<svg width="174" height="190" viewBox="0 0 174 190" fill="none" xmlns="http://www.w3.org/2000/svg">
<g clip-path="url(#clip0_1575_1755)">
<mask id="mask0_1575_1755" style="mask-type:luminance" maskUnits="userSpaceOnUse" x="1" y="0" width="172" height="190">
<path d="M1.25415 0H172.785V189.373H1.25415V0Z" fill="white"/>
</mask>
<g mask="url(#mask0_1575_1755)">
<path d="M19.3606 164.859H55.0591C55.2599 166.5 55.6078 168.112 56.1026 169.694C56.5974 171.271 57.2293 172.795 58.0033 174.26C58.7725 175.725 59.669 177.111 60.6929 178.414C61.7167 179.712 62.8484 180.913 64.0878 182.01C65.3272 183.107 66.6549 184.082 68.0706 184.939C69.4864 185.797 70.9708 186.517 72.5189 187.105C74.0669 187.688 75.6542 188.134 77.2806 188.427C78.912 188.726 80.5531 188.878 82.209 188.878C83.8648 188.878 85.5059 188.726 87.1324 188.427C88.7588 188.134 90.351 187.688 91.899 187.105C93.4471 186.517 94.9266 185.797 96.3424 184.939C97.763 184.082 99.0907 183.107 100.33 182.01C101.57 180.913 102.701 179.712 103.725 178.414C104.744 177.111 105.641 175.725 106.415 174.26C107.184 172.795 107.816 171.271 108.31 169.694C108.805 168.112 109.158 166.5 109.359 164.859H145.052C145.768 164.854 146.483 164.805 147.193 164.717C147.904 164.628 148.604 164.496 149.3 164.325C149.995 164.153 150.676 163.943 151.343 163.688C152.014 163.438 152.665 163.144 153.302 162.816C153.939 162.488 154.551 162.12 155.144 161.719C155.737 161.317 156.3 160.881 156.844 160.415C157.383 159.945 157.892 159.445 158.377 158.916C158.858 158.387 159.308 157.834 159.725 157.251C160.141 156.668 160.518 156.06 160.866 155.433C161.209 154.806 161.518 154.164 161.787 153.498C162.052 152.837 162.282 152.161 162.473 151.47C162.659 150.779 162.806 150.079 162.914 149.368C163.022 148.663 163.085 147.953 163.11 147.237C163.129 146.522 163.11 145.807 163.046 145.092C162.987 144.381 162.884 143.671 162.738 142.97C162.591 142.27 162.404 141.579 162.179 140.903C161.219 138.15 159.916 135.568 158.265 133.168C156.614 130.767 154.674 128.621 152.445 126.74C151.215 125.731 150.103 124.599 149.114 123.35C148.129 122.096 147.286 120.754 146.591 119.323C145.895 117.888 145.361 116.394 144.989 114.846C144.616 113.293 144.411 111.72 144.381 110.128V84.967C159.803 81.9738 172.878 70.2751 172.859 52.7761C172.859 51.1595 172.736 49.5478 172.496 47.9507C172.251 46.3488 171.894 44.7811 171.409 43.233C170.929 41.6899 170.336 40.1908 169.625 38.7358C168.915 37.2857 168.102 35.8895 167.181 34.5619C166.26 33.2343 165.241 31.9802 164.134 30.8045C163.022 29.6287 161.826 28.5461 160.553 27.5516C159.274 26.5571 157.932 25.6655 156.521 24.8768C155.11 24.088 153.645 23.4071 152.131 22.8437C150.618 22.2754 149.065 21.8247 147.482 21.4965C145.9 21.1634 144.303 20.9527 142.686 20.8645C141.074 20.7764 139.463 20.8106 137.851 20.9723C136.244 21.1291 134.652 21.4034 133.089 21.8051C131.522 22.2019 129.993 22.7163 128.504 23.3483C127.015 23.9803 125.584 24.72 124.207 25.5724C122.831 26.4199 121.523 27.3654 120.293 28.4138C119.059 29.4622 117.912 30.5987 116.854 31.8185C110.721 27.4781 104.009 24.4065 96.7196 22.5939V15.0201C96.7196 14.0648 96.6265 13.1242 96.4403 12.1885C96.2493 11.2528 95.9749 10.3465 95.6124 9.46963C95.245 8.58782 94.7992 7.755 94.2652 6.96138C93.7361 6.17265 93.1336 5.43781 92.4624 4.76666C91.7864 4.09061 91.0564 3.49294 90.2628 2.96385C89.4741 2.43477 88.6363 1.98897 87.7545 1.62155C86.8776 1.25903 85.9713 0.984686 85.0356 0.798527C84.0999 0.612367 83.1593 0.519287 82.209 0.519287C81.2537 0.519287 80.3131 0.612367 79.3774 0.798527C78.4466 0.984686 77.5354 1.25903 76.6585 1.62155C75.7767 1.98897 74.9438 2.43477 74.1502 2.96385C73.3566 3.49294 72.6266 4.09061 71.9506 4.76666C71.2794 5.43781 70.6769 6.17265 70.1478 6.96138C69.6187 7.755 69.168 8.58782 68.8055 9.46963C68.4381 10.3465 68.1637 11.2528 67.9776 12.1885C67.7865 13.1242 67.6934 14.0648 67.6934 15.0201V22.6037C66.0131 23.0103 64.3524 23.4855 62.7112 24.0292C61.0701 24.573 59.4534 25.1854 57.8662 25.8614C56.274 26.5424 54.7162 27.2821 53.1877 28.0905C51.6592 28.8988 50.17 29.7708 48.7101 30.7016C47.2551 31.6373 45.8442 32.6269 44.4676 33.6801C43.0959 34.7285 41.7683 35.8357 40.4897 36.9967C39.2062 38.1577 37.9765 39.3678 36.7959 40.6317C35.6152 41.8956 34.4934 43.2085 33.4205 44.5655C32.3477 45.9226 31.3385 47.3236 30.3832 48.7639C29.4279 50.2042 28.5363 51.6837 27.7035 53.2024C26.8707 54.7161 26.1064 56.2642 25.4059 57.8465C24.7004 59.424 24.0685 61.0308 23.4953 62.6622C22.927 64.2984 22.4273 65.9494 22.0011 67.6248C21.57 69.3002 21.2075 70.9904 20.9185 72.6952C20.6294 74.4 20.409 76.1146 20.262 77.8342C20.115 79.5586 20.0367 81.283 20.0367 83.0123L20.0318 110.162C20.0024 111.749 19.8015 113.317 19.4292 114.865C19.0569 116.408 18.5229 117.898 17.8272 119.328C17.1365 120.759 16.2939 122.096 15.3092 123.345C14.3245 124.59 13.2173 125.716 11.9877 126.725C9.75871 128.607 7.81383 130.752 6.158 133.158C4.50216 135.568 3.19414 138.15 2.23395 140.908C2.0086 141.584 1.82244 142.275 1.67548 142.975C1.52851 143.676 1.42563 144.386 1.36684 145.096C1.30316 145.812 1.28356 146.527 1.30806 147.242C1.32765 147.957 1.39134 148.668 1.49911 149.373C1.60689 150.084 1.75386 150.779 1.94492 151.47C2.13108 152.161 2.36133 152.837 2.63077 153.503C2.90021 154.164 3.20394 154.811 3.55177 155.438C3.89469 156.065 4.27681 156.668 4.69322 157.251C5.10963 157.834 5.56033 158.387 6.04042 158.916C6.52052 159.445 7.0349 159.945 7.57379 160.415C8.11267 160.881 8.68094 161.317 9.27371 161.719C9.86648 162.12 10.4789 162.488 11.1157 162.816C11.7477 163.149 12.3992 163.438 13.0704 163.688C13.7415 163.943 14.4225 164.153 15.1181 164.325C15.8089 164.496 16.5143 164.628 17.2247 164.717C17.9301 164.805 18.6454 164.854 19.3606 164.859ZM82.209 182.147C80.994 182.147 79.7889 182.039 78.5984 181.824C77.4031 181.613 76.2372 181.295 75.1006 180.873C73.9641 180.457 72.8716 179.943 71.8232 179.33C70.7748 178.718 69.7902 178.017 68.8643 177.233C67.9384 176.45 67.0909 175.587 66.3168 174.652C65.5428 173.716 64.8569 172.721 64.2593 171.668C63.6616 170.61 63.1619 169.513 62.7553 168.371C62.3536 167.225 62.0499 166.054 61.8539 164.859H102.564C102.363 166.054 102.064 167.225 101.658 168.371C101.251 169.513 100.751 170.61 100.154 171.668C99.5561 172.721 98.8702 173.721 98.0962 174.652C97.3221 175.587 96.4746 176.45 95.5487 177.233C94.6277 178.017 93.6382 178.718 92.5947 179.33C91.5463 179.943 90.4538 180.457 89.3124 180.873C88.1758 181.295 87.0099 181.613 85.8146 181.824C84.6241 182.039 83.419 182.147 82.209 182.147ZM140.913 27.5467C141.736 27.5467 142.564 27.5908 143.382 27.6691C144.205 27.7524 145.023 27.8749 145.831 28.0366C146.64 28.1982 147.438 28.3991 148.232 28.6391C149.021 28.8792 149.795 29.1584 150.559 29.4768C151.323 29.7904 152.068 30.1431 152.798 30.535C153.523 30.922 154.233 31.3482 154.919 31.8087C155.605 32.2643 156.266 32.7591 156.903 33.2833C157.545 33.8075 158.152 34.3611 158.735 34.944C159.323 35.527 159.877 36.1394 160.401 36.7762C160.925 37.418 161.415 38.0794 161.875 38.7652C162.331 39.4511 162.757 40.1614 163.144 40.8913C163.536 41.6164 163.889 42.361 164.202 43.1253C164.521 43.8895 164.8 44.6635 165.04 45.4571C165.28 46.2459 165.481 47.0444 165.643 47.8576C165.804 48.666 165.927 49.4841 166.01 50.3022C166.088 51.1252 166.132 51.9482 166.132 52.7761C164.947 86.1672 116.874 86.1574 115.693 52.7761C115.693 51.9482 115.737 51.1252 115.816 50.3022C115.899 49.4841 116.021 48.666 116.183 47.8576C116.345 47.0444 116.546 46.2459 116.786 45.4571C117.026 44.6635 117.305 43.8895 117.618 43.1253C117.937 42.361 118.29 41.6164 118.681 40.8865C119.068 40.1614 119.495 39.4511 119.95 38.7652C120.411 38.0794 120.901 37.418 121.425 36.7762C121.949 36.1394 122.503 35.527 123.086 34.944C123.673 34.3611 124.281 33.8075 124.923 33.2833C125.56 32.7591 126.221 32.2643 126.907 31.8087C127.593 31.3482 128.303 30.922 129.028 30.535C129.758 30.1431 130.503 29.7904 131.267 29.4768C132.026 29.1584 132.805 28.8792 133.594 28.6391C134.383 28.3991 135.186 28.1982 135.994 28.0366C136.803 27.8749 137.621 27.7524 138.444 27.6691C139.262 27.5908 140.085 27.5467 140.913 27.5467ZM74.4197 15.0201C74.4295 14.2559 74.5519 13.5112 74.7822 12.7813C75.0075 12.0514 75.3358 11.3753 75.7669 10.7434C76.1931 10.1114 76.7026 9.55291 77.2904 9.06792C77.8832 8.58292 78.5299 8.19591 79.2353 7.90197C79.9358 7.60314 80.6658 7.41698 81.4251 7.3337C82.1845 7.25531 82.9389 7.28471 83.6884 7.42188C84.438 7.55905 85.1532 7.80399 85.8342 8.14692C86.5151 8.49474 87.1275 8.93565 87.6811 9.45983C90.8262 12.1738 89.8709 17.7439 89.9982 21.3446C84.8005 20.6392 79.6076 20.6539 74.4197 21.3838V15.0201ZM8.57807 143.132C10.131 138.669 12.7177 134.912 16.3282 131.864C17.935 130.542 19.3753 129.062 20.6539 127.426C21.9374 125.79 23.0299 124.031 23.9313 122.16C24.8278 120.288 25.5186 118.338 25.9938 116.315C26.4739 114.292 26.7286 112.239 26.758 110.162V83.0123C26.7531 80.5139 26.9148 78.0252 27.2479 75.5464C27.581 73.0675 28.0807 70.6278 28.7421 68.2176C29.4083 65.8073 30.2313 63.4509 31.216 61.1533C32.2007 58.8557 33.3323 56.6365 34.6208 54.4908C35.9092 52.3499 37.3299 50.3022 38.8975 48.3524C40.4603 46.4026 42.1504 44.5655 43.963 42.846C45.7756 41.1265 47.696 39.5392 49.7291 38.0794C51.7572 36.6195 53.8736 35.3066 56.083 34.1357C58.2924 32.9649 60.5704 31.9508 62.917 31.0886C65.2636 30.2264 67.6542 29.5307 70.0939 28.9968C72.5385 28.4579 75.0026 28.0905 77.4962 27.8896C79.9848 27.6936 82.4784 27.6642 84.9719 27.8014C87.4704 27.9386 89.9444 28.2472 92.3938 28.7224C94.8482 29.1976 97.2585 29.8394 99.6246 30.6428C101.991 31.4462 104.293 32.4064 106.527 33.5234C108.766 34.6403 110.917 35.9042 112.979 37.3102C110.299 42.121 108.967 47.2747 108.967 52.7761C108.898 70.182 122.13 82.2089 137.655 84.9621V110.128C137.689 112.21 137.944 114.267 138.419 116.296C138.899 118.324 139.585 120.274 140.492 122.155C141.393 124.031 142.485 125.79 143.769 127.431C145.052 129.072 146.498 130.552 148.104 131.879C151.705 134.921 154.282 138.674 155.835 143.127C155.977 143.553 156.09 143.989 156.183 144.425C156.271 144.866 156.335 145.312 156.374 145.758C156.408 146.204 156.423 146.654 156.408 147.1C156.389 147.551 156.349 147.997 156.281 148.442C156.212 148.883 156.119 149.324 156.001 149.755C155.879 150.191 155.737 150.613 155.565 151.029C155.399 151.445 155.203 151.847 154.987 152.244C154.767 152.636 154.527 153.013 154.267 153.381C154.003 153.743 153.723 154.091 153.42 154.424C153.116 154.752 152.793 155.066 152.455 155.36C152.117 155.654 151.759 155.923 151.387 156.178C151.014 156.428 150.627 156.658 150.231 156.864C149.834 157.069 149.422 157.251 149.001 157.407C148.58 157.564 148.153 157.696 147.717 157.804C147.281 157.907 146.84 157.99 146.395 158.044C145.949 158.098 145.503 158.128 145.052 158.132C123.757 158.147 19.3606 158.132 19.3606 158.132C18.9099 158.128 18.4641 158.098 18.0183 158.044C17.5725 157.99 17.1316 157.907 16.6956 157.804C16.2596 157.696 15.8334 157.564 15.4121 157.407C14.9908 157.251 14.5842 157.069 14.1824 156.864C13.7856 156.658 13.3986 156.428 13.0263 156.178C12.654 155.928 12.3013 155.654 11.9583 155.36C11.6203 155.066 11.297 154.757 10.9981 154.424C10.6944 154.091 10.4103 153.743 10.1506 153.381C9.88608 153.018 9.64603 152.636 9.43048 152.244C9.21003 151.852 9.01897 151.445 8.84751 151.034C8.68094 150.618 8.53398 150.191 8.4164 149.76C8.29393 149.329 8.20085 148.888 8.13226 148.447C8.06368 148.002 8.02449 147.556 8.00979 147.105C7.99509 146.659 8.00489 146.208 8.03918 145.763C8.07837 145.317 8.14206 144.871 8.23024 144.43C8.32332 143.994 8.436 143.558 8.57807 143.132Z" fill="#1E5192"/>
</g>
<path d="M136.205 61.1826C135.769 61.1924 135.343 61.2806 134.941 61.4569C134.534 61.6333 134.177 61.8733 133.873 62.1918C133.564 62.5053 133.324 62.8629 133.158 63.2744C132.991 63.681 132.908 64.1023 132.908 64.5432C132.908 64.9842 132.991 65.4104 133.158 65.817C133.324 66.2236 133.559 66.5861 133.868 66.8996C134.177 67.2181 134.534 67.463 134.936 67.6345C135.343 67.8108 135.764 67.9039 136.205 67.9088L145.621 67.9137C146.061 67.9039 146.483 67.8157 146.884 67.6394C147.291 67.463 147.649 67.223 147.957 66.9045C148.266 66.591 148.501 66.2285 148.668 65.8219C148.834 65.4153 148.918 64.989 148.918 64.553C148.918 64.1121 148.834 63.6859 148.668 63.2793C148.501 62.8727 148.266 62.5102 147.957 62.1967C147.649 61.8782 147.291 61.6333 146.889 61.4618C146.483 61.2855 146.061 61.1973 145.621 61.1875H144.278L144.283 41.0039C144.273 40.3719 144.102 39.7841 143.764 39.2501C143.431 38.7112 142.98 38.3046 142.412 38.0205C141.843 37.7363 141.246 37.6187 140.619 37.6726C139.987 37.7265 139.414 37.9372 138.904 38.3095L134.196 41.8416C133.863 42.0866 133.589 42.3854 133.368 42.7332C133.148 43.081 132.996 43.4583 132.913 43.8649C132.834 44.2666 132.825 44.6732 132.893 45.0798C132.962 45.4864 133.099 45.8685 133.305 46.2262C133.51 46.5838 133.775 46.8875 134.098 47.1472C134.417 47.4068 134.774 47.6028 135.166 47.7301C135.558 47.8575 135.96 47.9114 136.371 47.8918C136.783 47.8722 137.175 47.784 137.557 47.6175L137.552 61.1826H136.205Z" fill="#1E5192"/>
</g>
<defs>
<clipPath id="clip0_1575_1755">
<rect width="173.069" height="190" fill="white"/>
</clipPath>
</defs>
</svg>
