<svg width="64" height="44" viewBox="0 0 64 44" fill="none" xmlns="http://www.w3.org/2000/svg">
<g clip-path="url(#clip0_1561_2440)">
<mask id="mask0_1561_2440" style="mask-type:luminance" maskUnits="userSpaceOnUse" x="0" y="9" width="63" height="35">
<path d="M0 9.73508H62.1282V43.5757H0V9.73508Z" fill="white"/>
</mask>
<g mask="url(#mask0_1561_2440)">
<path d="M41.4041 13.3997C42.7631 13.8351 44.099 14.3604 45.392 14.9619C51.0971 17.6238 56.1388 21.5237 60.1597 26.3722C60.3308 26.5763 60.3308 26.8695 60.1597 27.0737C56.1388 31.9222 51.0971 35.816 45.392 38.484C44.099 39.0854 42.7631 39.6108 41.4041 40.0471C48.7664 34.358 50.1134 23.7763 44.4253 16.4199C43.5527 15.2881 42.5369 14.2714 41.4041 13.3997ZM20.7991 13.3997C13.4367 19.0929 12.0898 29.6696 17.7779 37.0259C18.6505 38.1578 19.6663 39.1745 20.7991 40.0471C19.4351 39.6108 18.0981 39.0854 16.8062 38.484C11.101 35.816 6.06439 31.9222 2.04346 27.0737C1.87234 26.8695 1.87234 26.5763 2.04346 26.3722C6.06439 21.5237 11.101 17.6298 16.8062 14.9619C18.0981 14.3604 19.4351 13.8351 20.7991 13.4047V13.3997ZM30.8504 11.6154C39.0954 11.4773 45.8773 18.0491 46.0214 26.2891C46.0214 26.4332 46.0214 26.5823 46.0214 26.7254C46.1265 34.9654 39.5377 41.7364 31.2977 41.8474C23.0517 41.9525 16.2808 35.3577 16.1757 27.1177C16.1757 26.9856 16.1757 26.8525 16.1757 26.7254C16.0717 18.5025 22.6324 11.7475 30.8504 11.6154ZM32.4246 9.89219C26.7634 9.68204 21.1303 10.8259 15.9996 13.2226C10.0403 16.0116 4.76644 20.0816 0.568389 25.1463C-0.188161 26.063 -0.188161 27.3889 0.568389 28.2996C4.76644 33.3643 10.0403 37.4342 15.9996 40.2233C25.5706 44.6965 36.6386 44.6965 46.2146 40.2233C52.1679 37.4342 57.4427 33.3643 61.6398 28.2996C62.3964 27.3889 62.3964 26.063 61.6398 25.1463C57.4427 20.0816 52.1679 16.0116 46.2146 13.2226C41.8844 11.2011 37.196 10.0693 32.4246 9.89219Z" fill="white"/>
</g>
<path d="M36.7597 26.7254C36.8207 23.6002 34.3459 21.0153 31.2206 20.9492C28.0944 20.8822 25.5095 23.362 25.4434 26.4883C25.4434 26.5653 25.4434 26.6434 25.4434 26.7254C25.3774 29.8457 27.8572 32.4366 30.9825 32.4966C34.1087 32.5637 36.6936 30.0839 36.7597 26.9576C36.7597 26.8805 36.7597 26.8035 36.7597 26.7254Z" fill="white"/>
<path d="M11.117 7.10917L14.9448 10.3005C15.3591 10.6327 15.9605 10.5657 16.2917 10.1514C16.612 9.7541 16.5629 9.16867 16.1707 8.82642L12.3429 5.6341C11.9296 5.30286 11.3271 5.36891 10.9959 5.78321C10.6697 6.1865 10.7247 6.77193 11.117 7.10917Z" fill="white"/>
<path d="M49.8543 5.6341L46.0215 8.82642C45.6182 9.16867 45.5632 9.77611 45.8994 10.1794C46.2477 10.5877 46.8501 10.6437 47.2584 10.3005L51.0862 7.10917C51.4835 6.76092 51.5335 6.15348 51.1793 5.75619C50.843 5.3639 50.2626 5.31387 49.8543 5.6341Z" fill="white"/>
<mask id="mask1_1561_2440" style="mask-type:luminance" maskUnits="userSpaceOnUse" x="29" y="0" width="4" height="8">
<path d="M29.9739 0.0120087H32.2796V7.17322H29.9739V0.0120087Z" fill="white"/>
</mask>
<g mask="url(#mask1_1561_2440)">
<path d="M30.1431 1.12181V6.10344C30.1601 6.63382 30.6074 7.04812 31.1378 7.02611C31.6402 7.00409 32.0374 6.6058 32.0595 6.10344V1.12181C32.0374 0.591428 31.5961 0.178127 31.0607 0.200143C30.5634 0.222159 30.1601 0.619448 30.1431 1.12181Z" fill="white"/>
</g>
</g>
<defs>
<clipPath id="clip0_1561_2440">
<rect width="63.4061" height="44" fill="white"/>
</clipPath>
</defs>
</svg>
