<svg width="152" height="220" viewBox="0 0 152 220" fill="none" xmlns="http://www.w3.org/2000/svg">
<g clip-path="url(#clip0_1575_1710)">
<mask id="mask0_1575_1710" style="mask-type:luminance" maskUnits="userSpaceOnUse" x="0" y="0" width="150" height="219">
<path d="M0 0.383179H149.905V218.695H0V0.383179Z" fill="white"/>
</mask>
<g mask="url(#mask0_1575_1710)">
<path d="M30.6484 130.968H120.605C122.254 130.968 123.587 129.631 123.587 127.986V117.526H132.743C134.391 117.526 135.725 116.192 135.725 114.544V25.8915C135.725 25.0782 135.393 24.3011 134.807 23.7408L111.428 1.31212C110.871 0.780773 110.134 0.484375 109.364 0.484375H42.7863C41.138 0.484375 39.8042 1.81817 39.8042 3.46643V13.9235H30.6484C29.0037 13.9235 27.6663 15.2609 27.6663 16.9056V127.986C27.6663 129.631 29.0037 130.968 30.6484 130.968ZM112.346 10.4607L125.322 22.9095H112.346V10.4607ZM45.7683 6.44849H106.378V25.8915C106.378 27.5398 107.716 28.8736 109.364 28.8736H129.758V111.562H45.7683V6.44849ZM33.634 19.8913H39.8042V114.544C39.8042 116.192 41.138 117.526 42.7863 117.526H117.623V125.001H33.634V19.8913ZM53.1349 23.2962C53.1349 21.648 54.4723 20.3142 56.1206 20.3142H92.1077C93.7523 20.3142 95.0897 21.648 95.0897 23.2962C95.0897 24.9445 93.7523 26.2783 92.1077 26.2783H56.1206C54.4723 26.2783 53.1349 24.9445 53.1349 23.2962ZM53.1349 35.2028C53.1349 33.5545 54.4723 32.2207 56.1206 32.2207H92.1077C93.7523 32.2207 95.0897 33.5545 95.0897 35.2028C95.0897 36.851 93.7523 38.1848 92.1077 38.1848H56.1206C54.4723 38.1848 53.1349 36.851 53.1349 35.2028ZM53.1349 47.0985C53.1349 45.4502 54.4723 44.1128 56.1206 44.1128H119.423C121.068 44.1128 122.405 45.4502 122.405 47.0985C122.405 48.7431 121.068 50.0805 119.423 50.0805H56.1206C54.4723 50.0805 53.1349 48.7467 53.1349 47.0985ZM53.1349 59.005C53.1349 57.3568 54.4723 56.023 56.1206 56.023H119.423C121.068 56.023 122.405 57.3568 122.405 59.005C122.405 60.6533 121.068 61.9871 119.423 61.9871H56.1206C54.4723 61.9871 53.1349 60.6533 53.1349 59.005ZM53.1349 70.9116C53.1349 69.2633 54.4723 67.9295 56.1206 67.9295H119.423C121.068 67.9295 122.405 69.2633 122.405 70.9116C122.405 72.5598 121.068 73.8936 119.423 73.8936H56.1206C54.4723 73.8936 53.1349 72.5598 53.1349 70.9116ZM53.1349 82.8181C53.1349 81.1735 54.4723 79.836 56.1206 79.836H119.423C121.068 79.836 122.405 81.1735 122.405 82.8181C122.405 84.4664 121.068 85.8038 119.423 85.8038H56.1206C54.4723 85.8038 53.1349 84.4664 53.1349 82.8181ZM53.1349 94.7138C53.1349 93.0655 54.4723 91.7318 56.1206 91.7318H119.423C121.068 91.7318 122.405 93.0655 122.405 94.7138C122.405 96.3621 121.068 97.6959 119.423 97.6959H56.1206C54.4723 97.6959 53.1349 96.3621 53.1349 94.7138ZM145.828 134.753C143.233 132.096 139.748 130.614 136.011 130.571C135.96 130.571 135.91 130.571 135.855 130.571C132.179 130.571 128.724 131.977 126.103 134.536L109.935 150.35C108.529 144.838 103.519 140.75 97.5766 140.75H75.5961C64.9547 132.92 53.5 133.416 42.4067 142.217C42.3525 142.257 42.2983 142.304 42.2513 142.347L28.6242 154.771L24.0409 150.184C23.4806 149.627 22.7215 149.313 21.9299 149.313C21.1383 149.313 20.3829 149.627 19.8226 150.184L1.16395 168.842C3.91304e-05 170.006 3.91304e-05 171.897 1.16395 173.061L45.8334 217.745C46.3936 218.301 47.1527 218.616 47.9443 218.616C48.7323 218.616 49.4914 218.301 50.0516 217.745L68.7103 199.086C69.8742 197.922 69.8742 196.032 68.7103 194.868L63.1691 189.326L66.7006 185.806L106.331 185.78C111.157 185.78 115.357 184.064 118.816 180.68L145.611 154.474C151.109 149.099 151.207 140.251 145.828 134.753ZM47.9443 211.415L7.48952 170.953L21.9299 156.513L26.3217 160.905C26.3542 160.941 26.3831 160.977 26.4157 161.009L41.8465 176.437L62.3811 196.975L47.9443 211.415ZM141.44 150.209L114.641 176.415C112.306 178.703 109.588 179.816 106.331 179.816L65.4643 179.842C64.6728 179.842 63.9173 180.152 63.357 180.713L58.958 185.105L45.1394 171.293L32.8461 158.996L46.1912 146.829C55.5242 139.463 63.9679 139.228 72.7623 146.085C73.2864 146.493 73.9298 146.714 74.5949 146.714H97.5766C101.318 146.714 104.361 149.761 104.361 153.502C104.361 153.708 104.35 153.91 104.332 154.113C104.329 154.163 104.321 154.214 104.318 154.265C104.296 154.453 104.267 154.641 104.231 154.828C104.22 154.879 104.206 154.933 104.195 154.988C104.166 155.118 104.13 155.248 104.094 155.374C104.072 155.454 104.05 155.533 104.021 155.609C103.993 155.71 103.953 155.804 103.917 155.898C103.794 156.217 103.653 156.52 103.483 156.813C103.461 156.853 103.443 156.889 103.425 156.929C102.247 158.935 100.067 160.29 97.5766 160.29H65.4643C63.8197 160.29 62.4823 161.624 62.4823 163.272C62.4823 164.921 63.8197 166.254 65.4643 166.254H97.5766C102.182 166.254 106.223 163.804 108.464 160.135L130.274 138.801C133.423 135.722 138.49 135.776 141.563 138.921C144.643 142.069 144.588 147.133 141.44 150.209Z" fill="#1E5192"/>
</g>
</g>
<defs>
<clipPath id="clip0_1575_1710">
<rect width="151.987" height="220" fill="white"/>
</clipPath>
</defs>
</svg>
