<svg width="170" height="190" viewBox="0 0 170 190" fill="none" xmlns="http://www.w3.org/2000/svg">
<path d="M113.589 82.3104L71.9055 123.994L55.6776 107.766C55.5217 107.61 55.3531 107.47 55.1717 107.349C54.9871 107.225 54.7962 107.123 54.5926 107.04C54.3889 106.954 54.1789 106.891 53.9626 106.849C53.7494 106.805 53.5298 106.783 53.3103 106.783C53.0907 106.783 52.8743 106.805 52.658 106.849C52.4416 106.891 52.2316 106.954 52.0279 107.04C51.8275 107.123 51.6334 107.225 51.4488 107.349C51.2675 107.47 51.0988 107.61 50.9429 107.766L31.9976 126.711C31.8417 126.867 31.7017 127.036 31.5808 127.217C31.4567 127.402 31.3549 127.596 31.269 127.796C31.1862 128 31.1226 128.21 31.0812 128.426C31.0367 128.643 31.0144 128.859 31.0144 129.079C31.0144 129.298 31.0367 129.518 31.0812 129.731C31.1226 129.947 31.1862 130.157 31.269 130.361C31.3549 130.564 31.4567 130.755 31.5808 130.94C31.7017 131.121 31.8417 131.29 31.9976 131.446L69.535 168.996C69.6909 169.152 69.8595 169.289 70.0409 169.413C70.2255 169.534 70.4164 169.636 70.62 169.721C70.8237 169.804 71.0337 169.868 71.25 169.912C71.4632 169.954 71.6828 169.976 71.9023 169.976C72.1219 169.976 72.3383 169.954 72.5546 169.912C72.771 169.868 72.981 169.804 73.1847 169.721C73.3883 169.636 73.5792 169.534 73.7638 169.413C73.9451 169.289 74.1138 169.152 74.2697 168.996L137.272 105.99C137.428 105.834 137.568 105.666 137.689 105.481C137.81 105.3 137.915 105.106 137.998 104.902C138.084 104.698 138.147 104.492 138.189 104.275C138.233 104.059 138.252 103.843 138.252 103.623C138.252 103.4 138.233 103.184 138.189 102.968C138.147 102.751 138.084 102.544 137.998 102.341C137.915 102.137 137.81 101.943 137.689 101.762C137.568 101.577 137.428 101.408 137.272 101.252L118.327 82.3104C118.171 82.1544 118.002 82.0176 117.818 81.8935C117.636 81.7726 117.442 81.6676 117.239 81.5849C117.035 81.5021 116.828 81.4385 116.612 81.394C116.395 81.3526 116.179 81.3303 115.956 81.3303C115.737 81.3303 115.52 81.3526 115.304 81.394C115.088 81.4385 114.881 81.5021 114.677 81.5849C114.474 81.6676 114.279 81.7726 114.098 81.8935C113.913 82.0176 113.745 82.1544 113.589 82.3104ZM71.9055 161.891L39.0838 129.069L53.3071 114.878L69.535 131.109C69.8532 131.411 70.2191 131.643 70.6264 131.805C71.0368 131.971 71.4632 132.05 71.9023 132.05C72.3414 132.05 72.7678 131.971 73.1751 131.805C73.5856 131.643 73.9515 131.411 74.2697 131.109L115.956 89.4252L130.183 103.623L71.9055 161.891Z" fill="#1E5192"/>
<mask id="mask0_1570_2514" style="mask-type:luminance" maskUnits="userSpaceOnUse" x="1" y="0" width="167" height="189">
<path d="M1.62915 0.814575H167.803V188.781H1.62915V0.814575Z" fill="white"/>
</mask>
<g mask="url(#mask0_1570_2514)">
<path d="M150.837 22.9991H137.399V18.7289C137.399 18.1594 137.374 17.5898 137.317 17.0234C137.263 16.457 137.18 15.8938 137.069 15.3338C136.957 14.777 136.82 14.2233 136.655 13.6792C136.489 13.1319 136.299 12.5973 136.079 12.0691C135.863 11.5441 135.618 11.0286 135.35 10.5259C135.083 10.0231 134.79 9.53631 134.472 9.0622C134.157 8.58809 133.817 8.12989 133.457 7.69078C133.094 7.2485 132.712 6.82848 132.312 6.42437C131.907 6.02345 131.487 5.63843 131.045 5.27887C130.606 4.91613 130.148 4.57885 129.674 4.26065C129.203 3.94564 128.713 3.6529 128.21 3.38244C127.707 3.11516 127.195 2.87015 126.667 2.65377C126.142 2.43422 125.607 2.2433 125.06 2.07784C124.516 1.91238 123.962 1.77238 123.405 1.66101C122.845 1.54964 122.282 1.46691 121.716 1.41282C121.149 1.35554 120.58 1.3269 120.01 1.3269C119.441 1.3269 118.871 1.35554 118.305 1.41282C117.738 1.46691 117.175 1.54964 116.615 1.66101C116.058 1.77238 115.505 1.91238 114.96 2.07784C114.416 2.2433 113.879 2.43422 113.354 2.65377C112.825 2.87015 112.313 3.11516 111.81 3.38244C111.308 3.6529 110.821 3.94564 110.347 4.26065C109.872 4.57885 109.414 4.91613 108.975 5.27887C108.536 5.63843 108.113 6.02345 107.709 6.42437C107.308 6.82848 106.926 7.2485 106.563 7.69078C106.204 8.12989 105.863 8.58809 105.548 9.0622C105.23 9.53631 104.94 10.0231 104.67 10.5259C104.403 11.0286 104.158 11.5441 103.941 12.0691C103.725 12.5973 103.531 13.1319 103.369 13.6792C103.203 14.2233 103.063 14.777 102.955 15.3338C102.844 15.8938 102.761 16.457 102.704 17.0234C102.649 17.5898 102.621 18.1594 102.621 18.7289V22.9991H63.2953C63.0757 22.9991 62.8561 23.0214 62.6398 23.0627C62.4266 23.1073 62.2166 23.1709 62.0129 23.2537C61.8093 23.3396 61.6184 23.4414 61.4338 23.5623C61.2525 23.6864 61.0806 23.8232 60.9279 23.9791C60.772 24.135 60.632 24.3037 60.5111 24.4882C60.387 24.6696 60.2851 24.8637 60.1992 25.0674C60.1165 25.271 60.0529 25.4778 60.0083 25.6942C59.9669 25.9106 59.9447 26.1269 59.9447 26.3497V33.9641C59.9447 34.6673 59.8779 35.3609 59.741 36.0514C59.6042 36.7387 59.4006 37.4069 59.1333 38.056C58.8628 38.7052 58.5351 39.3193 58.1437 39.9047C57.7523 40.487 57.31 41.028 56.8136 41.5244C56.3173 42.0207 55.7763 42.463 55.194 42.8544C54.6117 43.2426 53.9944 43.5735 53.3453 43.8408C52.6962 44.1113 52.028 44.3117 51.3407 44.4486C50.6534 44.5854 49.9566 44.6554 49.2534 44.6554C48.5533 44.6554 47.8565 44.5854 47.1692 44.4486C46.4819 44.3117 45.8137 44.1113 45.1646 43.8408C44.5154 43.5735 43.8982 43.2426 43.3159 42.8544C42.7304 42.463 42.1926 42.0207 41.6962 41.5244C41.1999 41.028 40.7544 40.487 40.3662 39.9047C39.9748 39.3193 39.6471 38.7052 39.3766 38.056C39.1093 37.4069 38.9057 36.7387 38.7689 36.0514C38.632 35.3609 38.5652 34.6673 38.5652 33.9641V18.7289C38.5652 18.188 38.6066 17.6503 38.6861 17.1157C38.7689 16.5811 38.8898 16.0561 39.0521 15.5406C39.2143 15.0252 39.4148 14.5256 39.6503 14.0388C39.8889 13.5551 40.1594 13.0905 40.468 12.6451C40.7767 12.2028 41.1171 11.7828 41.4862 11.3914C41.8585 10.9968 42.2594 10.6341 42.6858 10.3032C43.1122 9.97224 43.5609 9.67313 44.0318 9.40903C44.5027 9.14493 44.9927 8.91901 45.4987 8.7281C46.0046 8.53718 46.5201 8.38763 47.0483 8.27626C47.5797 8.16489 48.1142 8.09171 48.652 8.06307C49.1929 8.03125 49.7306 8.04398 50.2684 8.09489C50.8061 8.1458 51.3375 8.23808 51.8625 8.36854C52.3876 8.499 52.8967 8.67082 53.3962 8.88083C53.8926 9.09084 54.3731 9.33585 54.8345 9.61586C55.2959 9.89905 55.7318 10.2141 56.1454 10.5641C56.5591 10.9109 56.9441 11.2896 57.3005 11.6968C57.4405 11.875 57.5964 12.0373 57.7714 12.1869C57.9464 12.3332 58.131 12.4605 58.3314 12.5719C58.5319 12.6801 58.7419 12.7692 58.9583 12.836C59.1778 12.8996 59.4006 12.9442 59.6265 12.9664C59.8524 12.9855 60.0815 12.9855 60.3074 12.9601C60.5333 12.9346 60.7561 12.8869 60.9724 12.8169C61.1888 12.7469 61.3956 12.6546 61.5929 12.5432C61.7934 12.4287 61.9779 12.2982 62.1466 12.1487C62.3184 11.9959 62.4743 11.8305 62.6111 11.6491C62.748 11.4677 62.8657 11.2736 62.9643 11.0668C63.0598 10.86 63.1362 10.6468 63.1903 10.4273C63.2443 10.2045 63.2762 9.9786 63.2825 9.75268C63.2921 9.52358 63.2762 9.29766 63.238 9.07175C63.203 8.84901 63.1425 8.62946 63.0598 8.41627C62.9771 8.20626 62.8721 8.00261 62.748 7.8117C62.6239 7.62078 62.4839 7.44259 62.3248 7.28031C61.7457 6.61847 61.1188 6.00436 60.4474 5.43797C59.7729 4.87159 59.0633 4.35611 58.3123 3.89791C57.5614 3.43971 56.7818 3.03879 55.9704 2.69832C55.159 2.35785 54.3285 2.08102 53.4726 1.86465C52.6198 1.65146 51.7575 1.50191 50.8825 1.41918C50.0043 1.33645 49.1293 1.31736 48.251 1.36827C47.3728 1.41918 46.501 1.53373 45.6419 1.7151C44.7795 1.89647 43.9395 2.14466 43.1154 2.45331C42.2913 2.76196 41.4958 3.13106 40.7289 3.56381C39.9621 3.99337 39.2334 4.47703 38.5398 5.01795C37.8461 5.55888 37.197 6.15073 36.5924 6.7903C35.9878 7.42987 35.4374 8.1108 34.9346 8.8331C34.4351 9.55858 33.9928 10.3159 33.6046 11.105C33.2196 11.8973 32.895 12.7119 32.6341 13.5519C32.3732 14.3919 32.1759 15.2447 32.0422 16.1166C31.9118 16.9852 31.845 17.8603 31.845 18.7385V23.0086H18.4299C17.8794 23.0086 17.3321 23.0373 16.788 23.0914C16.2407 23.1455 15.6998 23.2282 15.162 23.3332C14.6243 23.4414 14.0929 23.575 13.5711 23.7341C13.0461 23.8932 12.5306 24.0778 12.0247 24.2878C11.5155 24.501 11.0223 24.7333 10.5387 24.991C10.055 25.2519 9.58411 25.5319 9.12909 25.8374C8.67407 26.1429 8.23496 26.4674 7.81177 26.8174C7.38539 27.1643 6.98128 27.5334 6.59308 27.9184C6.20489 28.3066 5.83896 28.7139 5.48895 29.1371C5.14212 29.5603 4.81438 29.9994 4.51209 30.4576C4.20663 30.9126 3.92344 31.3803 3.6657 31.864C3.40796 32.3476 3.1725 32.844 2.96249 33.3499C2.75248 33.8559 2.56793 34.3713 2.40883 34.8964C2.24974 35.4214 2.11609 35.9528 2.00791 36.4905C1.89972 37.0283 1.82017 37.5692 1.76608 38.1133C1.71199 38.6606 1.68335 39.2079 1.68335 39.7552V172.149C1.68335 172.7 1.71199 173.244 1.76608 173.791C1.82017 174.335 1.89972 174.879 2.00791 175.417C2.11609 175.955 2.24974 176.483 2.40883 177.008C2.56793 177.533 2.75248 178.049 2.96249 178.555C3.1725 179.061 3.40796 179.557 3.6657 180.041C3.92344 180.524 4.20663 180.992 4.51209 181.45C4.81438 181.905 5.14212 182.344 5.48895 182.767C5.83896 183.191 6.20489 183.598 6.59308 183.986C6.98128 184.374 7.38539 184.74 7.81177 185.09C8.23496 185.437 8.67407 185.762 9.12909 186.067C9.58411 186.373 10.055 186.656 10.5387 186.914C11.0223 187.171 11.5155 187.407 12.0247 187.617C12.5306 187.827 13.0461 188.011 13.5711 188.17C14.0929 188.33 14.6243 188.463 15.162 188.571C15.6998 188.68 16.2407 188.759 16.788 188.813C17.3321 188.867 17.8794 188.896 18.4299 188.896H134.049C134.272 188.896 134.488 188.874 134.704 188.832C134.921 188.788 135.128 188.724 135.331 188.641C135.535 188.559 135.729 188.454 135.91 188.333C136.095 188.209 136.264 188.072 136.419 187.916C136.575 187.76 136.712 187.591 136.836 187.407C136.957 187.225 137.059 187.031 137.145 186.828C137.228 186.624 137.291 186.417 137.336 186.201C137.377 185.984 137.399 185.768 137.399 185.548C137.399 185.326 137.377 185.109 137.336 184.893C137.291 184.677 137.228 184.47 137.145 184.266C137.059 184.063 136.957 183.868 136.836 183.687C136.712 183.503 136.575 183.334 136.419 183.178C136.264 183.022 136.095 182.885 135.91 182.761C135.729 182.64 135.535 182.538 135.331 182.452C135.128 182.37 134.921 182.306 134.704 182.262C134.488 182.22 134.272 182.198 134.049 182.198H18.4299C17.7681 182.198 17.1158 182.134 16.4698 182.004C15.8207 181.877 15.1939 181.686 14.5829 181.434C13.9752 181.18 13.3961 180.871 12.8456 180.505C12.2983 180.139 11.7892 179.722 11.3246 179.255C10.8569 178.787 10.44 178.281 10.0741 177.734C9.7082 177.183 9.39955 176.604 9.145 175.996C8.89363 175.385 8.70271 174.759 8.57543 174.109C8.44497 173.463 8.38133 172.811 8.38133 172.149V69.1054H160.885V172.149C160.885 172.811 160.819 173.463 160.691 174.109C160.564 174.759 160.373 175.385 160.119 175.996C159.867 176.604 159.558 177.183 159.193 177.734C158.823 178.281 158.407 178.787 157.942 179.255C157.474 179.722 156.968 180.139 156.418 180.505C155.871 180.871 155.292 181.18 154.681 181.434C154.073 181.686 153.443 181.877 152.797 182.004C152.151 182.134 151.495 182.198 150.837 182.198C150.617 182.198 150.398 182.22 150.184 182.262C149.968 182.306 149.758 182.37 149.554 182.452C149.351 182.538 149.16 182.64 148.975 182.761C148.794 182.885 148.625 183.022 148.469 183.178C148.314 183.334 148.174 183.503 148.053 183.687C147.928 183.868 147.827 184.063 147.744 184.266C147.658 184.47 147.594 184.677 147.553 184.893C147.508 185.109 147.486 185.326 147.486 185.548C147.486 185.768 147.508 185.984 147.553 186.201C147.594 186.417 147.658 186.624 147.744 186.828C147.827 187.031 147.928 187.225 148.053 187.407C148.174 187.591 148.314 187.76 148.469 187.916C148.625 188.072 148.794 188.209 148.975 188.333C149.16 188.454 149.351 188.559 149.554 188.641C149.758 188.724 149.968 188.788 150.184 188.832C150.398 188.874 150.617 188.896 150.837 188.896C151.384 188.896 151.931 188.867 152.479 188.813C153.023 188.759 153.564 188.68 154.101 188.571C154.639 188.463 155.171 188.33 155.696 188.17C156.221 188.011 156.736 187.827 157.242 187.617C157.748 187.407 158.244 187.171 158.728 186.914C159.212 186.656 159.679 186.373 160.134 186.067C160.593 185.762 161.032 185.437 161.455 185.09C161.878 184.74 162.285 184.374 162.674 183.986C163.059 183.598 163.428 183.191 163.775 182.767C164.125 182.344 164.449 181.905 164.755 181.45C165.06 180.992 165.34 180.524 165.601 180.041C165.859 179.557 166.094 179.061 166.304 178.555C166.514 178.049 166.699 177.533 166.858 177.008C167.017 176.483 167.151 175.955 167.259 175.417C167.364 174.879 167.447 174.335 167.501 173.791C167.555 173.244 167.583 172.7 167.583 172.149V39.7456C167.583 39.1984 167.555 38.6511 167.501 38.1038C167.447 37.5597 167.364 37.0187 167.259 36.481C167.151 35.9432 167.017 35.4118 166.858 34.8868C166.699 34.3618 166.514 33.8463 166.304 33.3404C166.094 32.8345 165.859 32.3381 165.601 31.8544C165.34 31.3708 165.06 30.903 164.755 30.4448C164.449 29.9898 164.125 29.5507 163.775 29.1275C163.428 28.7043 163.059 28.297 162.674 27.9088C162.285 27.5206 161.878 27.1547 161.455 26.8079C161.032 26.4579 160.593 26.1333 160.134 25.8278C159.679 25.5224 159.212 25.2424 158.728 24.9814C158.244 24.7237 157.748 24.4882 157.242 24.2782C156.736 24.0682 156.221 23.8837 155.696 23.7246C155.171 23.5655 154.639 23.4318 154.101 23.3237C153.564 23.2155 153.023 23.1359 152.479 23.0818C151.931 23.0277 151.384 22.9991 150.837 22.9991ZM109.306 18.7289C109.306 18.0257 109.373 17.3321 109.51 16.6416C109.647 15.9543 109.85 15.2829 110.118 14.6338C110.385 13.9847 110.716 13.3674 111.104 12.7851C111.495 12.1996 111.938 11.6587 112.434 11.1623C112.93 10.6659 113.471 10.2236 114.054 9.83223C114.639 9.44085 115.253 9.10993 115.902 8.84265C116.551 8.57218 117.223 8.37172 117.91 8.2349C118.601 8.09489 119.294 8.02807 119.997 8.02807C120.701 8.02807 121.394 8.09489 122.085 8.2349C122.772 8.37172 123.44 8.57218 124.089 8.84265C124.739 9.10993 125.356 9.44085 125.941 9.83223C126.524 10.2236 127.065 10.6659 127.561 11.1623C128.057 11.6587 128.5 12.1996 128.891 12.7851C129.279 13.3674 129.61 13.9847 129.877 14.6338C130.145 15.2829 130.348 15.9543 130.485 16.6416C130.622 17.3321 130.689 18.0257 130.689 18.7289V33.9641C130.689 34.6673 130.622 35.3641 130.485 36.0514C130.348 36.7419 130.145 37.4101 129.877 38.0592C129.61 38.7083 129.279 39.3256 128.891 39.9079C128.5 40.4934 128.057 41.0343 127.561 41.5307C127.065 42.0271 126.524 42.4726 125.941 42.8608C125.356 43.2521 124.739 43.5831 124.089 43.8503C123.44 44.1208 122.772 44.3245 122.085 44.4613C121.394 44.5981 120.701 44.6649 119.997 44.6649C119.294 44.6649 118.601 44.5981 117.91 44.4613C117.223 44.3245 116.551 44.1208 115.902 43.8503C115.253 43.5831 114.639 43.2521 114.054 42.8608C113.471 42.4726 112.93 42.0271 112.434 41.5307C111.938 41.0343 111.495 40.4934 111.104 39.9079C110.716 39.3256 110.385 38.7083 110.118 38.0592C109.85 37.4101 109.647 36.7419 109.51 36.0514C109.373 35.3641 109.306 34.6673 109.306 33.9641V18.7289ZM160.885 62.4074H8.38133V39.7456C8.38133 39.087 8.44497 38.4315 8.57543 37.7856C8.70271 37.1365 8.89363 36.5096 9.145 35.8987C9.39955 35.2909 9.7082 34.7118 10.0741 34.1645C10.44 33.614 10.8569 33.1081 11.3246 32.6404C11.7892 32.1726 12.2983 31.759 12.8456 31.3899C13.3961 31.024 13.9752 30.7153 14.5829 30.4639C15.1939 30.2094 15.8207 30.0185 16.4698 29.8912C17.1158 29.7607 17.7681 29.6971 18.4299 29.6971H31.8641V33.9641C31.8641 34.5336 31.8927 35.1032 31.9468 35.6696C32.0041 36.236 32.0868 36.7992 32.1982 37.3592C32.3095 37.916 32.4463 38.4697 32.6118 39.0138C32.7773 39.5611 32.9682 40.0957 33.1846 40.6239C33.4041 41.1489 33.6459 41.6644 33.9164 42.1671C34.1837 42.6698 34.4764 43.1567 34.7914 43.6308C35.1096 44.1049 35.4469 44.5631 35.8097 45.0022C36.1692 45.4445 36.551 45.8645 36.9552 46.2686C37.3561 46.6727 37.7793 47.0546 38.2184 47.4141C38.6607 47.7769 39.1157 48.1173 39.5898 48.4323C40.0639 48.7505 40.5507 49.0433 41.0535 49.3106C41.5562 49.5778 42.0717 49.8228 42.5967 50.0424C43.1249 50.2588 43.6595 50.4497 44.2036 50.6152C44.7509 50.7806 45.3014 50.9206 45.8614 51.032C46.4182 51.1434 46.9814 51.2261 47.551 51.2834C48.1174 51.3375 48.6838 51.3661 49.2534 51.3661C49.8261 51.3661 50.3925 51.3375 50.9589 51.2834C51.5284 51.2261 52.0885 51.1434 52.6485 51.032C53.2085 50.9206 53.759 50.7806 54.3063 50.6152C54.8504 50.4497 55.385 50.2588 55.9132 50.0424C56.4382 49.8228 56.9537 49.5778 57.4564 49.3106C57.9591 49.0433 58.446 48.7505 58.9201 48.4323C59.3942 48.1173 59.8492 47.7769 60.2915 47.4141C60.7306 47.0546 61.1538 46.6727 61.5547 46.2686C61.9588 45.8645 62.3407 45.4445 62.7002 45.0022C63.063 44.5631 63.4003 44.1049 63.7185 43.6308C64.0335 43.1567 64.3262 42.6698 64.5935 42.1671C64.864 41.6644 65.1058 41.1489 65.3222 40.6239C65.5417 40.0957 65.7326 39.5611 65.8981 39.0138C66.0635 38.4697 66.2004 37.916 66.3117 37.3592C66.4231 36.7992 66.5058 36.236 66.5599 35.6696C66.6172 35.1032 66.6458 34.5336 66.6427 33.9641V29.6971H102.621V33.9641C102.621 34.5336 102.649 35.1032 102.704 35.6696C102.761 36.236 102.844 36.7992 102.955 37.3592C103.063 37.916 103.203 38.4697 103.369 39.0138C103.531 39.5611 103.725 40.0957 103.941 40.6239C104.158 41.1489 104.403 41.6644 104.67 42.1671C104.94 42.6698 105.23 43.1567 105.548 43.6308C105.863 44.1049 106.204 44.5631 106.563 45.0022C106.926 45.4445 107.308 45.8645 107.709 46.2686C108.113 46.6727 108.536 47.0546 108.975 47.4141C109.414 47.7769 109.872 48.1173 110.347 48.4323C110.821 48.7505 111.308 49.0433 111.81 49.3106C112.313 49.5778 112.825 49.8228 113.354 50.0424C113.879 50.2588 114.416 50.4497 114.96 50.6152C115.505 50.7806 116.058 50.9206 116.615 51.032C117.175 51.1434 117.738 51.2261 118.305 51.2834C118.871 51.3375 119.441 51.3661 120.01 51.3661C120.58 51.3661 121.149 51.3375 121.716 51.2834C122.282 51.2261 122.845 51.1434 123.405 51.032C123.962 50.9206 124.516 50.7806 125.06 50.6152C125.607 50.4497 126.142 50.2588 126.667 50.0424C127.195 49.8228 127.707 49.5778 128.21 49.3106C128.713 49.0433 129.203 48.7505 129.674 48.4323C130.148 48.1173 130.606 47.7769 131.045 47.4141C131.487 47.0546 131.907 46.6727 132.312 46.2686C132.712 45.8645 133.094 45.4445 133.457 45.0022C133.817 44.5631 134.157 44.1049 134.472 43.6308C134.79 43.1567 135.083 42.6698 135.35 42.1671C135.618 41.6644 135.863 41.1489 136.079 40.6239C136.299 40.0957 136.489 39.5611 136.655 39.0138C136.82 38.4697 136.957 37.916 137.069 37.3592C137.18 36.7992 137.263 36.236 137.317 35.6696C137.374 35.1032 137.399 34.5336 137.399 33.9641V29.6971H150.837C151.495 29.6971 152.151 29.7607 152.797 29.8912C153.443 30.0185 154.073 30.2094 154.681 30.4639C155.292 30.7153 155.871 31.024 156.418 31.3899C156.968 31.759 157.474 32.1726 157.942 32.6404C158.407 33.1081 158.823 33.614 159.193 34.1645C159.558 34.7118 159.867 35.2909 160.119 35.8987C160.373 36.5096 160.564 37.1365 160.691 37.7856C160.819 38.4315 160.885 39.087 160.885 39.7456V62.4074Z" fill="#1E5192"/>
</g>
</svg>
