<svg width="200" height="200" viewBox="0 0 200 200" fill="none" xmlns="http://www.w3.org/2000/svg">
<mask id="mask0_1575_1730" style="mask-type:luminance" maskUnits="userSpaceOnUse" x="0" y="0" width="199" height="199">
<path d="M0 0H198.717V198.717H0V0Z" fill="white"/>
</mask>
<g mask="url(#mask0_1575_1730)">
<path d="M9.94775 66.3083H64.935L75.8508 77.224C76.9695 78.3461 78.3963 79.1064 79.9504 79.4179C81.5012 79.726 83.1123 79.5686 84.576 78.9624C86.0363 78.3561 87.289 77.3312 88.1665 76.0149C89.0474 74.6986 89.5163 73.1511 89.5163 71.5669V66.3083H102.78C105.416 66.3049 107.945 65.2566 109.81 63.3943C111.673 61.5287 112.724 58.9999 112.724 56.3639V9.94775C112.724 7.30841 111.673 4.77961 109.81 2.91734C107.945 1.05171 105.416 0.00334941 102.78 0H9.94775C7.30841 0.00334941 4.77961 1.05171 2.91734 2.91734C1.05171 4.77961 0.00334941 7.30841 0 9.94775V56.3639C0.00334941 58.9999 1.05171 61.5287 2.91734 63.3943C4.77961 65.2566 7.30841 66.3049 9.94775 66.3083ZM6.63183 9.94775C6.63183 9.06685 6.98017 8.22615 7.60316 7.60316C8.22615 6.98017 9.06685 6.63183 9.94775 6.63183H102.78C103.658 6.63183 104.502 6.98017 105.121 7.60316C105.744 8.22615 106.093 9.06685 106.096 9.94775V56.3639C106.093 57.2414 105.744 58.0855 105.121 58.7051C104.502 59.3281 103.658 59.6764 102.78 59.6798H86.2038C85.7684 59.6798 85.3363 59.7635 84.9344 59.931C84.5324 60.0985 84.164 60.343 83.8558 60.6478C83.551 60.9559 83.3065 61.3244 83.1391 61.7263C82.9716 62.1282 82.8879 62.5569 82.8879 62.9924V71.5669C82.8644 71.8281 82.774 72.0793 82.6166 72.2903C82.4625 72.5047 82.2548 72.6688 82.0103 72.7693C81.7692 72.8698 81.5046 72.8999 81.2433 72.8597C80.9854 72.8195 80.7442 72.709 80.5433 72.5382L68.6529 60.6511C68.3447 60.343 67.9796 60.0985 67.5777 59.931C67.1758 59.7635 66.7437 59.6798 66.3083 59.6798H9.94775C9.06685 59.6764 8.22615 59.3281 7.60316 58.7051C6.98017 58.0855 6.63183 57.2414 6.63183 56.3639V9.94775ZM49.732 23.2081C49.732 22.7726 49.8191 22.3406 49.9833 21.9386C50.1507 21.5367 50.3952 21.1716 50.7034 20.8635C51.0115 20.5553 51.3766 20.3108 51.7785 20.1434C52.1805 19.9792 52.6125 19.8921 53.048 19.8921H92.8323C93.7132 19.8921 94.5572 20.2405 95.1768 20.8635C95.7998 21.4865 96.1482 22.3305 96.1482 23.2081C96.1482 24.089 95.7998 24.9297 95.1768 25.5527C94.5572 26.1756 93.7132 26.524 92.8323 26.524H53.048C52.6125 26.524 52.1805 26.4369 51.7785 26.2728C51.3766 26.1053 51.0115 25.8608 50.7034 25.5527C50.3952 25.2445 50.1507 24.8794 49.9833 24.4775C49.8191 24.0756 49.732 23.6435 49.732 23.2081ZM16.5762 23.2081C16.5762 22.7726 16.6633 22.3406 16.8308 21.9386C16.9949 21.5367 17.2394 21.1716 17.5476 20.8635C17.8557 20.5553 18.2208 20.3108 18.6227 20.1434C19.0247 19.9792 19.4567 19.8921 19.8921 19.8921H39.7843C40.6652 19.8921 41.5092 20.2405 42.1289 20.8635C42.7519 21.4865 43.1002 22.3305 43.1002 23.2081C43.1002 24.089 42.7519 24.9297 42.1289 25.5527C41.5092 26.1756 40.6652 26.524 39.7843 26.524H19.8921C19.4567 26.524 19.0247 26.4369 18.6227 26.2728C18.2208 26.1053 17.8557 25.8608 17.5476 25.5527C17.2394 25.2445 16.9949 24.8794 16.8308 24.4775C16.6633 24.0756 16.5762 23.6435 16.5762 23.2081ZM16.5762 43.1002C16.5762 42.6648 16.6633 42.2361 16.8308 41.8308C16.9949 41.4289 17.2394 41.0638 17.5476 40.7556C17.8557 40.4475 18.2208 40.203 18.6227 40.0389C19.0247 39.8714 19.4567 39.7843 19.8921 39.7843H72.9401C73.821 39.7843 74.6617 40.136 75.2847 40.7556C75.9077 41.3786 76.256 42.2227 76.256 43.1002C76.256 43.9811 75.9077 44.8252 75.2847 45.4448C74.6617 46.0678 73.821 46.4161 72.9401 46.4161H19.8921C19.4567 46.4161 19.0247 46.3324 18.6227 46.1649C18.2208 45.9975 17.8557 45.7529 17.5476 45.4448C17.2394 45.1367 16.9949 44.7716 16.8308 44.3696C16.6633 43.9677 16.5762 43.5356 16.5762 43.1002ZM125.08 92.8323H122.672C114.761 92.8423 107.178 95.9874 101.584 101.584C95.9874 107.178 92.8423 114.761 92.8323 122.672V135.936C92.8323 136.813 93.184 137.657 93.8036 138.277C94.4266 138.9 95.2706 139.248 96.1482 139.248C97.0291 139.248 97.8698 138.9 98.4928 138.277C99.1158 137.657 99.4641 136.813 99.4641 135.936V122.672C99.4708 116.519 101.919 110.621 106.27 106.27C110.621 101.919 116.519 99.4708 122.672 99.4641H130.322L134.177 109.743L129.904 135.39C129.827 135.819 129.837 136.261 129.934 136.689C130.027 137.115 130.208 137.52 130.46 137.878C130.714 138.237 131.036 138.538 131.407 138.773C131.776 139.004 132.191 139.161 132.623 139.232C133.055 139.305 133.497 139.292 133.923 139.191C134.348 139.091 134.75 138.91 135.105 138.652C135.46 138.398 135.762 138.073 135.993 137.701C136.221 137.326 136.375 136.914 136.442 136.478L140.401 112.724H144.731L148.687 136.478C148.838 137.339 149.323 138.106 150.037 138.612C150.754 139.118 151.638 139.319 152.499 139.175C153.363 139.031 154.133 138.555 154.642 137.845C155.155 137.135 155.366 136.251 155.228 135.39L150.955 109.743L154.81 99.4641H162.456C168.613 99.4708 174.511 101.919 178.862 106.27C183.213 110.621 185.658 116.519 185.668 122.672V135.936C185.668 136.813 186.016 137.657 186.636 138.277C187.259 138.9 188.103 139.248 188.98 139.248C189.861 139.248 190.705 138.9 191.325 138.277C191.948 137.657 192.296 136.813 192.296 135.936V122.672C192.29 114.761 189.141 107.178 183.548 101.584C177.954 95.9874 170.368 92.8423 162.456 92.8323H160.052C164.108 89.2785 166.982 84.5693 168.294 79.3375C169.604 74.1057 169.289 68.5959 167.39 63.5484C165.491 58.5008 162.095 54.1499 157.66 51.0785C153.225 48.0105 147.96 46.3659 142.564 46.3659C137.172 46.3659 131.906 48.0105 127.469 51.0785C123.034 54.1499 119.641 58.5008 117.742 63.5484C115.843 68.5959 115.525 74.1057 116.837 79.3375C118.147 84.5693 121.024 89.2785 125.08 92.8323ZM145.24 106.096H139.891L137.403 99.4641H147.726L145.24 106.096ZM142.564 53.048C146.5 53.048 150.345 54.2136 153.617 56.4007C156.89 58.5845 159.439 61.6928 160.943 65.3269C162.45 68.961 162.845 72.9636 162.075 76.8221C161.308 80.6806 159.415 84.2243 156.632 87.0076C153.848 89.7877 150.305 91.6834 146.446 92.4504C142.588 93.2174 138.589 92.8256 134.951 91.3183C131.317 89.8144 128.212 87.2622 126.025 83.9932C123.838 80.7208 122.672 76.8757 122.672 72.9401C122.679 67.6648 124.776 62.6105 128.507 58.8793C132.235 55.1514 137.292 53.0547 142.564 53.048ZM195.612 145.88H94.9692C89.6771 141.59 83.0687 139.245 76.256 139.248H73.8478C77.9039 135.695 80.7811 130.985 82.0907 125.754C83.4037 120.522 83.0888 115.012 81.1864 109.965C79.2872 104.917 75.8943 100.566 71.4597 97.498C67.0217 94.4266 61.7564 92.782 56.3639 92.782C50.968 92.782 45.7027 94.4266 41.2681 97.498C36.8335 100.566 33.4372 104.917 31.538 109.965C29.6389 115.012 29.3241 120.522 30.6337 125.754C31.9467 130.985 34.8205 135.695 38.8766 139.248H36.4717C29.6557 139.245 23.0473 141.59 17.7552 145.88H3.31592C2.88049 145.88 2.44842 145.967 2.04649 146.131C1.64456 146.299 1.27948 146.543 0.971329 146.852C0.663184 147.16 0.418676 147.525 0.251206 147.927C0.0870842 148.329 0 148.761 0 149.196V162.456C0 162.895 0.0870842 163.324 0.251206 163.726C0.418676 164.128 0.663184 164.496 0.971329 164.804C1.27948 165.109 1.64456 165.354 2.04649 165.521C2.44842 165.689 2.88049 165.772 3.31592 165.772H6.8261C6.69882 166.874 6.63518 167.98 6.63183 169.088V195.612C6.63183 196.493 6.98017 197.334 7.60316 197.957C8.2228 198.58 9.06685 198.928 9.94775 198.928C10.8253 198.928 11.6693 198.58 12.2923 197.957C12.912 197.334 13.2603 196.493 13.2603 195.612V169.088C13.2704 162.935 15.7154 157.037 20.0663 152.686C24.4172 148.335 30.3155 145.887 36.4717 145.88H76.256C82.4089 145.887 88.3072 148.335 92.6581 152.686C97.009 157.037 99.4574 162.935 99.4641 169.088V195.612C99.4641 196.493 99.8124 197.334 100.435 197.957C101.058 198.58 101.899 198.928 102.78 198.928C103.658 198.928 104.502 198.58 105.125 197.957C105.744 197.334 106.096 196.493 106.096 195.612V169.088C106.093 167.98 106.026 166.874 105.898 165.772H185.668V195.612C185.668 196.493 186.016 197.334 186.636 197.957C187.259 198.58 188.103 198.928 188.98 198.928C189.861 198.928 190.705 198.58 191.325 197.957C191.948 197.334 192.296 196.493 192.296 195.612V165.772H195.612C196.048 165.772 196.48 165.689 196.882 165.521C197.284 165.354 197.649 165.109 197.957 164.804C198.265 164.496 198.51 164.128 198.677 163.726C198.841 163.324 198.928 162.895 198.928 162.456V149.196C198.928 148.761 198.841 148.329 198.677 147.927C198.51 147.525 198.265 147.16 197.957 146.852C197.649 146.543 197.284 146.299 196.882 146.131C196.48 145.967 196.048 145.88 195.612 145.88ZM6.63183 159.144V152.512H11.676C10.3028 154.575 9.19413 156.803 8.37353 159.144H6.63183ZM36.4717 119.356C36.4717 115.424 37.6373 111.576 39.8211 108.307C42.0083 105.034 45.1166 102.485 48.7507 100.978C52.3848 99.4741 56.384 99.0789 60.2425 99.8459C64.101 100.613 67.648 102.509 70.4281 105.292C73.2114 108.072 75.1072 111.616 75.8742 115.474C76.6412 119.336 76.246 123.335 74.7421 126.969C73.2349 130.604 70.686 133.712 67.4136 135.896C64.1446 138.083 60.2961 139.248 56.3639 139.248C51.0886 139.245 46.0309 137.145 42.3031 133.417C38.5752 129.689 36.4751 124.632 36.4717 119.356ZM192.296 159.144H104.354C103.534 156.803 102.422 154.575 101.048 152.512H192.296V159.144ZM30.3658 175.72V195.612C30.3658 196.493 30.0174 197.334 29.3944 197.957C28.7748 198.58 27.9307 198.928 27.0532 198.928C26.1723 198.928 25.3282 198.58 24.7086 197.957C24.0856 197.334 23.7373 196.493 23.7373 195.612V175.72C23.7373 174.839 24.0856 173.999 24.7086 173.376C25.3282 172.753 26.1723 172.404 27.0532 172.404C27.9307 172.404 28.7748 172.753 29.3944 173.376C30.0174 173.999 30.3658 174.839 30.3658 175.72ZM90.0456 175.72V195.612C90.0456 196.493 89.6972 197.334 89.0742 197.957C88.4512 198.58 87.6105 198.928 86.7296 198.928C85.8521 198.928 85.008 198.58 84.385 197.957C83.7654 197.334 83.4137 196.493 83.4137 195.612V175.72C83.4137 174.839 83.7654 173.999 84.385 173.376C85.008 172.753 85.8521 172.404 86.7296 172.404C87.6105 172.404 88.4512 172.753 89.0742 173.376C89.6972 173.999 90.0456 174.839 90.0456 175.72ZM113.254 125.988C113.689 125.988 114.121 126.075 114.523 126.239C114.925 126.407 115.29 126.651 115.598 126.959C115.906 127.268 116.151 127.633 116.318 128.035C116.482 128.436 116.57 128.869 116.57 129.304V135.936C116.57 136.813 116.221 137.657 115.598 138.277C114.975 138.9 114.135 139.248 113.254 139.248C112.376 139.248 111.532 138.9 110.909 138.277C110.286 137.657 109.938 136.813 109.938 135.936V129.304C109.938 128.869 110.025 128.436 110.189 128.035C110.356 127.633 110.601 127.268 110.909 126.959C111.217 126.651 111.582 126.407 111.984 126.239C112.386 126.075 112.818 125.988 113.254 125.988ZM172.933 125.988C173.369 125.988 173.798 126.075 174.199 126.239C174.605 126.407 174.97 126.651 175.278 126.959C175.586 127.268 175.831 127.633 175.995 128.035C176.162 128.436 176.249 128.869 176.249 129.304V135.936C176.249 136.813 175.898 137.657 175.278 138.277C174.655 138.9 173.811 139.248 172.933 139.248C172.053 139.248 171.208 138.9 170.589 138.277C169.966 137.657 169.618 136.813 169.618 135.936V129.304C169.618 128.869 169.701 128.436 169.869 128.035C170.036 127.633 170.281 127.268 170.589 126.959C170.897 126.651 171.262 126.407 171.664 126.239C172.066 126.075 172.498 125.988 172.933 125.988Z" fill="#1E5192"/>
</g>
</svg>
