<svg width="72" height="45" viewBox="0 0 72 45" fill="none" xmlns="http://www.w3.org/2000/svg">
<g clip-path="url(#clip0_1560_2407)">
<path d="M24.2584 32.4264L20.6933 37.0793C19.9376 38.0666 20.1493 39.4745 21.1644 40.2088L21.4152 40.3892C21.8256 40.6868 22.3071 40.8293 22.7852 40.8293C23.4888 40.8293 24.1847 40.5191 24.635 39.9314L28.2001 35.2777C28.9559 34.2913 28.7441 32.8833 27.7281 32.149L27.4783 31.9677C27.0679 31.671 26.5863 31.5277 26.1082 31.5277C25.4046 31.5277 24.7079 31.8388 24.2584 32.4264Z" fill="white"/>
<mask id="mask0_1560_2407" style="mask-type:luminance" maskUnits="userSpaceOnUse" x="26" y="36" width="8" height="9">
<path d="M26.0363 36.4934H33.2594V44.1401H26.0363V36.4934Z" fill="white"/>
</mask>
<g mask="url(#mask0_1560_2407)">
<path d="M28.8925 37.3137L26.4614 40.4862C25.7863 41.3672 25.9763 42.6242 26.883 43.2801L27.5286 43.7472C27.8947 44.0119 28.3251 44.1401 28.7511 44.1401C29.3801 44.1401 30.0013 43.8627 30.4031 43.3383L32.8342 40.165C33.5092 39.284 33.3192 38.0269 32.4134 37.371L31.767 36.904C31.4009 36.6392 30.9714 36.5111 30.5445 36.5111C29.9163 36.5111 29.2942 36.7884 28.8925 37.3137Z" fill="white"/>
</g>
<path d="M15.8917 26.9523L14.9113 26.2433C14.5825 26.0055 14.1964 25.89 13.8129 25.89C13.248 25.8909 12.6893 26.1396 12.3283 26.6117L10.6919 28.7463C10.0863 29.538 10.2564 30.6677 11.0711 31.257L12.0515 31.9661C12.3804 32.2046 12.7665 32.3193 13.15 32.3193C13.7148 32.3193 14.2736 32.0698 14.6345 31.5985L16.2709 29.463C16.8765 28.6713 16.7064 27.5416 15.8917 26.9523Z" fill="white"/>
<path d="M23.1453 27.2828C22.7063 26.9658 22.1909 26.8123 21.6799 26.8123C20.9276 26.8123 20.1823 27.1445 19.7008 27.7734L15.3504 33.4516C14.5417 34.5071 14.7691 36.0137 15.8545 36.7986C16.2935 37.1164 16.8089 37.2698 17.3199 37.2698C17.9984 37.2698 18.6709 36.9992 19.1498 36.4849C19.2218 36.3652 19.3008 36.2489 19.3884 36.1351L21.4543 33.4389L22.9536 31.4821C23.0559 31.3481 23.1687 31.2208 23.2885 31.1011L23.6494 30.6298C24.458 29.5742 24.2307 28.0685 23.1453 27.2828Z" fill="white"/>
<path d="M10.8872 0.785748L0.398218 19.0232C0.065911 19.6015 0.279351 20.3316 0.873687 20.6545L4.4961 22.6214C5.0913 22.9443 5.84268 22.7377 6.17499 22.1602L16.6639 3.92199C16.9962 3.34448 16.7837 2.61438 16.1893 2.29148L12.5661 0.323742C11.9717 0.000844434 11.2195 0.207398 10.8872 0.785748Z" fill="white"/>
<mask id="mask1_1560_2407" style="mask-type:luminance" maskUnits="userSpaceOnUse" x="54" y="1" width="18" height="23">
<path d="M54.8342 1.00494H71.4149V23.6373H54.8342V1.00494Z" fill="white"/>
</mask>
<g mask="url(#mask1_1560_2407)">
<path d="M54.9921 4.7659L65.4811 23.0033C65.8134 23.5808 66.5648 23.7882 67.16 23.4653L70.7833 21.4976C71.3776 21.1747 71.5902 20.4446 71.2579 19.8671L60.7689 1.62882C60.4366 1.05047 59.6852 0.843915 59.09 1.16681L55.4676 3.13455C54.8724 3.45745 54.6598 4.18755 54.9921 4.7659Z" fill="white"/>
</g>
<path d="M59.2731 29.4739C59.3017 28.6317 58.8965 27.8316 58.2059 27.3224L52.7623 23.3144C50.7954 21.9672 48.3408 20.4235 45.4689 18.7272C41.4187 16.3346 37.602 14.2648 35.832 13.3189C35.5561 13.1714 35.2324 13.1326 34.927 13.2101L32.9375 13.7168C32.6451 13.7919 32.3909 13.9664 32.2208 14.2092L32.2182 14.2126C31.6664 14.9975 31.053 15.7183 30.3945 16.3548C29.6214 17.1018 28.8006 17.7223 27.9564 18.1986C26.9421 18.7694 25.8992 19.1302 24.8546 19.2693C24.6238 19.2997 24.3912 19.3157 24.1639 19.3157C23.3449 19.3157 22.5813 19.1117 21.9566 18.7247C21.1558 18.2298 20.6421 17.5048 20.4712 16.628C20.2734 15.6129 20.5441 14.4545 21.2972 13.0854C21.8282 12.1209 22.4902 11.2399 22.9735 10.5958C23.0915 10.4381 23.1947 10.3015 23.2763 10.1886C23.6095 9.72825 23.9973 9.20301 24.432 8.65248C24.5431 8.51169 24.4259 8.31104 24.2446 8.33127C23.3318 8.43328 21.2651 8.33296 18.0149 6.37534C17.726 6.20166 17.346 6.29693 17.1802 6.58526L8.16977 22.2521C7.98062 22.5809 8.0266 22.9898 8.28429 23.2714L10.6729 25.8833C10.7059 25.9195 10.7432 25.9515 10.7831 25.9794L11.0226 25.6666C11.3514 25.2383 11.7861 24.8876 12.2798 24.6532C12.7535 24.4281 13.2845 24.3092 13.8129 24.3092C14.1782 24.3092 14.5391 24.364 14.8845 24.4736C15.2437 24.5866 15.5803 24.7552 15.884 24.9753L16.8644 25.6843C17.2392 25.9558 17.549 26.2922 17.785 26.6842C17.8405 26.7761 17.8917 26.8705 17.9368 26.9658C17.9984 27.0939 18.1772 27.1125 18.2639 26.9995L18.3941 26.8292C18.781 26.3242 19.2912 25.9119 19.8725 25.6362C20.4304 25.3707 21.0656 25.2307 21.6764 25.2307C22.1033 25.2307 22.5327 25.2956 22.9397 25.4246C23.3622 25.557 23.7596 25.756 24.1171 26.0139C24.5587 26.3343 24.9231 26.7297 25.2007 27.1909C25.4671 27.6335 25.6415 28.1166 25.7179 28.6258C25.7717 28.979 25.776 29.334 25.7317 29.6838C25.7144 29.8272 25.8307 29.9536 25.979 29.9486C26.0224 29.9469 26.0666 29.9469 26.1118 29.9469C26.5178 29.9469 26.9308 30.0093 27.3221 30.1324C27.7282 30.2605 28.1065 30.451 28.4501 30.6998L28.7008 30.881C29.9277 31.7688 30.4682 33.2248 30.2244 34.599C30.1932 34.7726 30.3346 34.9311 30.5168 34.9295C30.5263 34.9295 30.5359 34.9295 30.5463 34.9295C30.9333 34.9295 31.315 34.9885 31.6812 35.104C32.0621 35.2237 32.4169 35.4024 32.7397 35.6351L33.3852 36.103C35.0164 37.2825 35.3539 39.5242 34.1401 41.1092L33.8216 41.5248C33.6715 41.7204 33.7071 42.0003 33.9093 42.1453C33.9449 42.1706 33.9839 42.1909 34.0255 42.2044C34.75 42.4548 41.7346 44.7597 43.7084 41.5257C43.8386 41.3124 43.751 41.0367 43.5219 40.9279L37.0059 37.8322C36.6137 37.645 36.4081 37.21 36.5356 36.8036C36.6285 36.5069 36.894 36.2388 37.5386 36.2126C37.6063 36.2092 37.6749 36.2244 37.7356 36.2548L44.4373 39.6524C45.1895 40.0343 46.0441 40.1936 46.8866 40.0925C47.9183 39.9685 49.0419 39.4517 49.1408 37.8136C49.1659 37.3837 48.9386 36.9764 48.5551 36.7598L40.1928 32.0259C39.8657 31.8404 39.6904 31.4788 39.752 31.1162C39.811 30.7773 39.9975 30.4325 40.5112 30.4139C40.6795 30.408 40.8452 30.4519 40.9901 30.5337L49.7776 35.4968C50.2192 35.7456 50.7242 35.867 51.2344 35.8434C52.1133 35.8046 53.3957 35.5449 53.9024 34.4329C54.3475 33.4549 53.9553 32.3075 53.0113 31.757L43.3909 26.148C43.1063 25.9827 42.9397 25.6767 42.9614 25.3555C42.99 24.9314 43.2104 24.4517 44.105 24.5908C44.2134 24.6077 44.3175 24.6456 44.4112 24.7004L55.3409 31.0302C56.1531 31.5007 57.1491 31.5791 58.0185 31.2174C58.6649 30.9485 59.2401 30.4367 59.2731 29.4739Z" fill="white"/>
<path d="M63.2677 22.6433L54.147 6.78339C54.0741 6.65693 53.9214 6.59622 53.7782 6.63754C53.1232 6.82723 52.3041 7.02029 52.1852 7.03462C51.833 7.07678 51.479 7.09701 51.1259 7.09701C49.9242 7.09701 48.7242 6.86517 47.5902 6.48662C44.9465 5.60392 41.6607 5.35016 38.7298 5.35016C36.5616 5.35016 34.5877 5.48927 33.2116 5.61488C32.0776 5.71943 30.9766 5.79952 29.8773 6.11483C28.8448 6.41075 27.9615 7.09448 27.2405 7.85241C27.0496 8.05222 26.8639 8.25708 26.68 8.46532C25.9408 9.30418 25.2579 10.1995 24.6072 11.0982C23.6545 12.4151 20.61 16.0184 22.8303 17.391C23.2242 17.6346 23.6936 17.7341 24.1638 17.7341C24.3217 17.7341 24.4788 17.7231 24.6341 17.7021C26.4102 17.466 28.0014 16.4374 29.2465 15.2335C29.8512 14.6501 30.3944 14.0043 30.8742 13.3206C30.9557 13.2034 31.2828 12.5037 31.4208 12.4682L34.4688 11.6918L35.4874 11.4329C35.5143 11.4254 35.5421 11.422 35.5707 11.422C35.6245 11.422 35.6775 11.4355 35.726 11.4608C37.2965 12.2878 50.9931 19.5872 58.8531 26.1783C58.854 26.1792 58.8548 26.18 58.8548 26.18C58.9633 26.2702 59.1229 26.2702 59.2331 26.1826L63.2494 22.973C63.3197 22.8752 63.3275 22.747 63.2677 22.6433Z" fill="white"/>
</g>
<defs>
<clipPath id="clip0_1560_2407">
<rect width="71.6327" height="45" fill="white"/>
</clipPath>
</defs>
</svg>
