<svg width="172" height="180" viewBox="0 0 172 180" fill="none" xmlns="http://www.w3.org/2000/svg">
<g clip-path="url(#clip0_1575_1775)">
<mask id="mask0_1575_1775" style="mask-type:luminance" maskUnits="userSpaceOnUse" x="0" y="0" width="133" height="180">
<path d="M0.262207 0H132.11V179.45H0.262207V0Z" fill="white"/>
</mask>
<g mask="url(#mask0_1575_1775)">
<path fill-rule="evenodd" clip-rule="evenodd" d="M40.02 0.270996C39.1083 0.270996 38.2396 0.666638 37.6376 1.35041L0.937455 43.5594C0.438602 44.1357 0.159072 44.8754 0.167673 45.6408V175.932C0.167673 177.652 1.56962 179.067 3.30701 179.067L128.945 179.17C130.678 179.17 132.089 177.76 132.089 176.022V126.567C132.136 124.795 130.712 123.337 128.945 123.337C127.173 123.337 125.75 124.795 125.784 126.567V172.874L6.46784 172.767V48.7888H44.4667C46.1998 48.7888 47.6103 47.3782 47.6103 45.6408V16.759C47.649 14.9872 46.1869 13.5379 44.4151 13.5637C42.682 13.5852 41.293 15.0173 41.3145 16.759V42.4929H10.2135L41.4435 6.56687H125.788V58.3315C125.75 60.1033 127.173 61.5611 128.945 61.5611C130.717 61.5611 132.14 60.1033 132.093 58.3315V3.42323C132.093 1.68585 130.682 0.270996 128.945 0.270996H40.02Z" fill="#1E5192"/>
</g>
<path d="M36.842 57.553C35.0788 57.5315 33.6467 58.942 33.6467 60.7052C33.6467 62.4641 35.0788 63.8747 36.842 63.8488H95.4228C97.1688 63.8747 98.6181 62.4641 98.6181 60.7052C98.6181 58.942 97.1688 57.5315 95.4228 57.553H36.842Z" fill="#1E5192"/>
<path d="M24.3922 74.2604C22.629 74.2346 21.1926 75.6494 21.1926 77.4083C21.1926 79.1672 22.629 80.582 24.3922 80.5562H37.7881C39.547 80.582 40.9833 79.1672 40.9833 77.4083C40.9833 75.6494 39.547 74.2346 37.7881 74.2604H24.3922Z" fill="#1E5192"/>
<path d="M50.5046 74.2604C48.7457 74.2346 47.3093 75.6494 47.3093 77.4083C47.3093 79.1672 48.7457 80.582 50.5046 80.5562H107.851C109.61 80.582 111.042 79.1672 111.042 77.4083C111.042 75.6494 109.61 74.2346 107.851 74.2604H50.5046Z" fill="#1E5192"/>
<path d="M24.3922 90.9676C22.629 90.9418 21.1926 92.3567 21.1926 94.1113C21.1926 95.8745 22.629 97.2893 24.3922 97.2635H90.4343C92.1975 97.2893 93.6295 95.8745 93.6295 94.1113C93.6295 92.3567 92.1975 90.9418 90.4343 90.9676H24.3922Z" fill="#1E5192"/>
<path d="M96.941 117.028L104.944 125.04L99.6847 134.927L88.8174 137.623L98.0161 128.42C100.089 126.421 98.5924 122.907 95.7154 123.01C94.8897 123.036 94.1156 123.372 93.5479 123.961L84.3837 133.155L87.0714 122.305L96.941 117.028ZM147.398 65.797L156.021 74.4367C142.728 92.8082 130.11 106.755 110.04 121.23L100.76 111.919C115.196 91.7761 128.898 78.8317 147.398 65.797ZM159.315 58.7013C160.325 58.6884 161.284 59.0324 162.278 59.7678C163.632 60.7741 164.118 62.9157 162.093 65.8401C161.297 67.0012 160.523 68.0763 159.723 69.2159L152.714 62.1847C153.836 61.4192 154.898 60.6709 156.068 59.9011C157.251 59.1184 158.313 58.7228 159.315 58.7013ZM160.27 52.4871C157.767 52.3237 155.07 52.9903 152.585 54.6374C128.029 70.8716 111.111 86.0479 93.1523 111.945L82.8656 117.372C82.0829 117.802 81.5153 118.542 81.2959 119.411L75.5419 142.633C74.9657 144.93 77.0471 147.024 79.3392 146.456L102.562 140.69C103.43 140.483 104.17 139.903 104.587 139.103L110.023 128.812C135.933 110.831 150.594 93.5823 167.275 69.4223C170.664 64.5112 170.1 58.6583 166.742 55.3125C165.069 53.631 162.764 52.6462 160.27 52.4871Z" fill="#1E5192"/>
<path d="M37.6247 120.963C34.8509 122.804 31.9911 125.72 29.1485 129.203C23.4546 136.196 17.9716 145.067 16.9136 152.357C16.1353 157.659 18.9048 161.56 21.7173 163.125C24.5255 164.686 27.3294 164.665 27.3294 164.665C31.5309 164.742 31.6427 158.446 27.4455 158.364C27.4455 158.364 25.9532 158.274 24.7706 157.612C23.5794 156.954 22.6763 156.511 23.1407 153.26C23.8116 148.697 28.8345 139.576 34.0381 133.198C35.7325 131.125 37.4182 129.255 38.9492 127.934C40.4028 126.696 41.6198 126.451 41.9079 128.674C42.0369 129.723 41.9552 130.988 41.7574 132.493C41.2972 136.071 40.278 140.264 39.2115 144.289C38.1493 148.319 37.0398 152.172 36.3689 155.311C36.0335 156.885 35.7669 158.274 35.7454 159.616C35.7325 160.291 35.7669 160.949 35.9862 161.74C36.2184 162.514 36.7302 163.534 37.7924 164.192C39.3319 165.155 41.3317 165.348 42.9744 164.888C44.6215 164.424 45.9761 163.508 47.305 162.355C48.9607 160.928 50.7024 158.334 52.4053 156.09C52.3967 157.96 52.4311 159.676 52.3967 161.448C52.3709 162.57 52.9343 163.615 53.889 164.192C55.2737 165.06 57.024 165.434 58.6582 165.202C60.2881 164.957 61.7674 164.239 63.1651 163.245C65.969 161.254 68.6525 158.102 71.6241 153.66C73.9635 150.172 68.7299 146.667 66.3947 150.155C64.0166 153.707 61.8147 156.111 60.2494 157.552C58.8603 158.812 58.7141 158.059 58.7313 157.053C58.77 155.165 58.8517 153.264 58.6668 151.565C58.4131 149.041 57.5186 147.398 55.7855 146.517C53.4804 145.351 51.5366 147.024 50.2895 148.727C47.6705 152.262 45.6321 155.212 43.899 156.915C42.8368 157.982 42.3251 157.53 42.7336 155.702C43.3228 153.015 44.342 149.587 45.301 145.919C46.3847 141.808 47.4641 137.421 47.9931 133.319C48.5263 129.22 48.7026 125.389 47.0943 122.043C44.1743 118.357 40.9962 119.02 37.6247 120.963Z" fill="#1E5192"/>
</g>
<defs>
<clipPath id="clip0_1575_1775">
<rect width="171.743" height="180" fill="white"/>
</clipPath>
</defs>
</svg>
