<svg width="46" height="60" viewBox="0 0 46 60" fill="none" xmlns="http://www.w3.org/2000/svg">
<path d="M31.6464 14.655C32.3899 15.7372 32.9814 16.9568 33.3841 18.275C33.7773 19.5627 33.9912 20.9365 33.9912 22.3605C33.9912 25.8672 32.7098 29.0457 30.6397 31.3507C28.555 33.6714 25.6701 35.107 22.4801 35.107C19.289 35.107 16.4042 33.6714 14.3195 31.3507C12.2494 29.0457 10.969 25.8672 10.969 22.3605C10.969 20.9365 11.1819 19.5627 11.5751 18.275C11.983 16.9411 12.5839 15.7068 13.34 14.6151L13.339 14.613C13.4533 14.4484 13.6357 14.3603 13.8213 14.3603H31.1378C31.3549 14.3603 31.5458 14.4788 31.6464 14.655ZM32.2651 18.6147C31.9254 17.5031 31.4367 16.4671 30.8274 15.5338H14.1317C13.5225 16.4671 13.0338 17.5031 12.694 18.6147C12.3364 19.785 12.1424 21.0445 12.1424 22.3605C12.1424 25.5694 13.3075 28.47 15.1909 30.5663C17.0596 32.6458 19.6372 33.9325 22.4801 33.9325C25.323 33.9325 27.8996 32.6458 29.7683 30.5663C31.6517 28.47 32.8167 25.5694 32.8167 22.3605C32.8167 21.0445 32.6227 19.785 32.2651 18.6147Z" fill="white"/>
<path fill-rule="evenodd" clip-rule="evenodd" d="M31.422 6.7974V14.525H13.5592V6.77223L22.9908 9.26594L31.422 6.7974Z" fill="white"/>
<path fill-rule="evenodd" clip-rule="evenodd" d="M22.3888 0.0262146L38.0096 3.71749L22.975 8.11871L6.97876 3.88842L22.3888 0.0262146Z" fill="white"/>
<mask id="mask0_1561_2424" style="mask-type:luminance" maskUnits="userSpaceOnUse" x="0" y="37" width="45" height="23">
<path d="M0.050293 37.5839H44.849V59.8658H0.050293V37.5839Z" fill="white"/>
</mask>
<g mask="url(#mask0_1561_2424)">
<path fill-rule="evenodd" clip-rule="evenodd" d="M16.8131 37.737L11.0665 37.7506C5.00312 37.7685 0.0429688 42.7118 0.0429688 48.7741V59.7987H7.70656L8.26235 54.85L8.81709 59.7987H36.1504L36.7051 54.85L37.2609 59.7987H44.9255V48.7741C44.9255 42.7118 39.9643 37.7433 33.901 37.7506L28.146 37.758L22.4874 46.7209L16.8131 37.737Z" fill="white"/>
</g>
<path d="M15.6805 31.6097V37.7454L16.8351 37.737L16.8519 37.7873C16.8519 37.7706 16.8519 37.7538 16.8519 37.737V32.7842C16.3789 31.8058 15.9794 32.9971 15.6805 31.6097Z" fill="white"/>
<path d="M29.3141 37.7527V31.6978C29.0174 33.0935 28.6199 31.7712 28.147 32.7569V37.7569L29.3141 37.7527Z" fill="white"/>
<path fill-rule="evenodd" clip-rule="evenodd" d="M11.9641 25.8935C11.8194 24.7798 11.7418 23.599 11.7418 22.3752C11.7418 21.1357 11.8215 19.9392 11.9704 18.8119C8.64927 17.3815 8.72268 27.2756 11.9641 25.8935Z" fill="white"/>
<path fill-rule="evenodd" clip-rule="evenodd" d="M32.9949 25.8935C33.1397 24.7798 33.2173 23.599 33.2173 22.3752C33.2173 21.1357 33.1376 19.9392 32.9886 18.8119C36.3097 17.3815 36.2363 27.2756 32.9949 25.8935Z" fill="white"/>
<path d="M33.533 15.3943L34.4453 9.15059H35.7068L36.5562 15.3943H33.533Z" fill="white"/>
<path d="M36.6296 8.31166C36.6296 8.41233 36.6202 8.51196 36.6003 8.61158C36.5804 8.71015 36.552 8.80663 36.5132 8.89996C36.4744 8.99329 36.4272 9.08242 36.3706 9.16632C36.314 9.25021 36.2511 9.32781 36.1787 9.40017C36.1074 9.47148 36.0298 9.53545 35.9459 9.59102C35.862 9.64765 35.7729 9.69484 35.6796 9.73364C35.5862 9.77244 35.4897 9.8018 35.3912 9.82068C35.2916 9.8406 35.1919 9.85109 35.0902 9.85109C34.9895 9.85109 34.8899 9.8406 34.7903 9.82068C34.6917 9.8018 34.5952 9.77244 34.5019 9.73364C34.4086 9.69484 34.3194 9.64765 34.2356 9.59102C34.1517 9.53545 34.0741 9.47148 34.0017 9.40017C33.9304 9.32781 33.8664 9.25021 33.8108 9.16632C33.7542 9.08242 33.707 8.99329 33.6682 8.89996C33.6294 8.80663 33.6001 8.71015 33.5812 8.61158C33.5613 8.51196 33.5508 8.41233 33.5508 8.31166C33.5508 8.20994 33.5613 8.11032 33.5812 8.0107C33.6001 7.91212 33.6294 7.81565 33.6682 7.72232C33.707 7.62899 33.7542 7.53985 33.8108 7.45596C33.8664 7.37206 33.9304 7.29446 34.0017 7.22315C34.0741 7.1508 34.1517 7.08788 34.2356 7.03125C34.3194 6.97462 34.4086 6.92743 34.5019 6.88863C34.5952 6.84983 34.6917 6.82152 34.7903 6.80159C34.8899 6.78167 34.9895 6.77223 35.0902 6.77223C35.1919 6.77223 35.2916 6.78167 35.3912 6.80159C35.4897 6.82152 35.5862 6.84983 35.6796 6.88863C35.7729 6.92743 35.862 6.97462 35.9459 7.03125C36.0298 7.08788 36.1074 7.1508 36.1787 7.22315C36.2511 7.29446 36.314 7.37206 36.3706 7.45596C36.4272 7.53985 36.4744 7.62899 36.5132 7.72232C36.552 7.81565 36.5804 7.91212 36.6003 8.0107C36.6202 8.11032 36.6296 8.20994 36.6296 8.31166Z" fill="white"/>
<path d="M34.6036 4.39597L34.6959 8.02852H35.4856L35.5747 4.16527L34.6036 4.39597Z" fill="white"/>
</svg>
