<svg width="180" height="180" viewBox="0 0 180 180" fill="none" xmlns="http://www.w3.org/2000/svg">
<g clip-path="url(#clip0_1575_1801)">
<path d="M79.5334 53.9965C80.8186 53.9965 81.8662 52.9534 81.8662 51.6638C81.8662 50.3742 80.8186 49.3311 79.5334 49.3311C51.4921 49.3311 28.6796 72.1436 28.6796 100.189C28.6796 128.226 51.4921 151.039 79.5334 151.039C107.57 151.039 130.383 128.226 130.383 100.189C130.383 98.8997 129.34 97.8522 128.05 97.8522C126.765 97.8522 125.717 98.8997 125.717 100.189C125.717 125.656 105 146.373 79.5334 146.373C54.0625 146.373 33.3451 125.656 33.3451 100.189C33.3451 74.7184 54.0625 53.9965 79.5334 53.9965Z" fill="#1E5192"/>
<mask id="mask0_1575_1801" style="mask-type:luminance" maskUnits="userSpaceOnUse" x="0" y="20" width="160" height="160">
<path d="M0 20.2817H160V179.718H0V20.2817Z" fill="white"/>
</mask>
<g mask="url(#mask0_1575_1801)">
<path d="M156.717 97.852C155.427 97.852 154.384 98.8996 154.384 100.189C154.384 141.457 120.801 175.035 79.5334 175.035C38.2614 175.035 4.68308 141.457 4.68308 100.189C4.68308 58.9128 38.2614 25.3388 79.5334 25.3388C80.8186 25.3388 81.8662 24.2913 81.8662 23.0017C81.8662 21.7165 80.8186 20.6689 79.5334 20.6689C35.6822 20.6689 0.0131836 56.338 0.0131836 100.189C0.0131836 144.032 35.6822 179.701 79.5334 179.701C123.38 179.701 159.049 144.032 159.049 100.189C159.049 98.8996 158.002 97.852 156.717 97.852Z" fill="#1E5192"/>
</g>
<mask id="mask1_1575_1801" style="mask-type:luminance" maskUnits="userSpaceOnUse" x="56" y="0" width="124" height="124">
<path d="M56.338 0H179.718V123.944H56.338V0Z" fill="white"/>
</mask>
<g mask="url(#mask1_1575_1801)">
<path d="M144.186 57.5704L127.931 55.088L134.133 48.8864L145.286 48.816C146.576 48.8072 147.61 47.7552 147.601 46.4656C147.597 45.1848 146.554 44.1505 145.268 44.1505C145.264 44.1505 145.255 44.1505 145.251 44.1505L138.829 44.1901L144.252 38.7676L155.396 38.6971C156.686 38.6883 157.724 37.6364 157.72 36.3468C157.711 35.066 156.668 34.0316 155.387 34.0316C155.378 34.0316 155.374 34.0316 155.374 34.0316L148.952 34.0713L156.078 26.941L172.337 29.4234L144.186 57.5704ZM97.8081 100.189C97.8081 110.264 89.6126 118.464 79.5334 118.464C69.4542 118.464 61.2588 110.264 61.2588 100.189C61.2588 90.11 69.4542 81.9102 79.5334 81.9102C83.728 81.9102 87.5528 83.389 90.6382 85.7746L77.8785 98.5387C76.9762 99.4498 76.9762 100.924 77.8785 101.835C78.3362 102.293 78.9348 102.522 79.5334 102.522C80.1276 102.522 80.7306 102.293 81.1839 101.835L93.9392 89.0801C96.3292 92.1655 97.8081 95.9903 97.8081 100.189ZM122.148 35.5325L150.295 7.38552L152.777 23.6399L146.822 29.5906C146.822 29.595 146.818 29.595 146.818 29.595L145.647 30.7658L145.687 24.3441C145.695 23.0589 144.661 22.007 143.376 21.9982C143.367 21.9982 143.363 21.9982 143.354 21.9982C142.073 21.9982 141.03 23.0325 141.021 24.3133L140.951 35.4621L135.524 40.889L135.568 34.4674C135.572 33.1778 134.538 32.1258 133.253 32.117C133.244 32.117 133.239 32.117 133.231 32.117C131.954 32.117 130.907 33.1514 130.902 34.4322L130.827 45.5853L124.63 51.7869L122.148 35.5325ZM179.463 27.0906C179.19 26.2544 178.468 25.6426 177.597 25.5105L157.315 22.4075L154.212 2.12143C154.08 1.24995 153.464 0.528122 152.632 0.255234C151.778 -0.0132515 150.876 0.206819 150.251 0.823016L118.006 33.0677C117.487 33.5915 117.24 34.3309 117.35 35.0704L120.533 55.8802L93.9348 82.478C89.9868 79.2605 85.0132 77.2447 79.5334 77.2447C66.8838 77.2447 56.5889 87.5396 56.5889 100.189C56.5889 112.834 66.8838 123.129 79.5334 123.129C92.1787 123.129 102.474 112.834 102.474 100.189C102.474 94.7051 100.462 89.7315 97.2403 85.779L123.838 59.1813L144.648 62.3635C144.767 62.3811 144.886 62.3899 145 62.3899C145.616 62.3899 146.21 62.1478 146.655 61.7077L178.9 29.463C179.516 28.8424 179.736 27.9225 179.463 27.0906Z" fill="#1E5192"/>
</g>
</g>
<defs>
<clipPath id="clip0_1575_1801">
<rect width="180" height="180" fill="white"/>
</clipPath>
</defs>
</svg>
