<svg xmlns="http://www.w3.org/2000/svg" xmlns:xlink="http://www.w3.org/1999/xlink" width="708" zoomAndPan="magnify" viewBox="0 0 531 156.749997" height="209" preserveAspectRatio="xMidYMid meet" version="1.0"><defs><g/><clipPath id="bd70cf3f6b"><path d="M 125.390625 33.910156 L 204.921875 33.910156 L 204.921875 93.390625 L 125.390625 93.390625 Z M 125.390625 33.910156 " clip-rule="nonzero"/></clipPath><clipPath id="4395f9c0a7"><path d="M 132.1875 75.75 L 205.503906 75.75 L 205.503906 115.226562 L 132.1875 115.226562 Z M 132.1875 75.75 " clip-rule="nonzero"/></clipPath><clipPath id="317f19f7d7"><path d="M 148 7 L 211 7 L 211 44 L 148 44 Z M 148 7 " clip-rule="nonzero"/></clipPath><clipPath id="808f31fbc5"><path d="M 151.363281 0 L 213.902344 15.355469 L 206.40625 45.898438 L 143.863281 30.542969 Z M 151.363281 0 " clip-rule="nonzero"/></clipPath><clipPath id="1e629b70df"><path d="M 151.363281 0 L 213.902344 15.355469 L 206.40625 45.898438 L 143.863281 30.542969 Z M 151.363281 0 " clip-rule="nonzero"/></clipPath><clipPath id="0efaef61e8"><path d="M 137.878906 87.914062 L 182.386719 87.914062 L 182.386719 105.203125 L 137.878906 105.203125 Z M 137.878906 87.914062 " clip-rule="nonzero"/></clipPath><clipPath id="8beaf64a42"><path d="M 168 86.480469 L 176 86.480469 L 176 89 L 168 89 Z M 168 86.480469 " clip-rule="nonzero"/></clipPath><clipPath id="60a1c8f93e"><path d="M 149.046875 68 L 181.996094 68 L 181.996094 85 L 149.046875 85 Z M 149.046875 68 " clip-rule="nonzero"/></clipPath><clipPath id="562ce4ec05"><path d="M 149.046875 55.210938 L 181.996094 55.210938 L 181.996094 69 L 149.046875 69 Z M 149.046875 55.210938 " clip-rule="nonzero"/></clipPath><clipPath id="f30cd97141"><path d="M 324.726562 35.945312 L 381 35.945312 L 381 115 L 324.726562 115 Z M 324.726562 35.945312 " clip-rule="nonzero"/></clipPath></defs><g clip-path="url(#bd70cf3f6b)"><path fill="#ffffff" d="M 204.5625 70.839844 C 204.363281 69.28125 204.109375 68.023438 203.851562 66.917969 C 203.78125 66.640625 203.722656 66.375 203.652344 66.117188 C 203.585938 65.855469 203.519531 65.605469 203.453125 65.355469 C 203.378906 65.113281 203.308594 64.871094 203.238281 64.632812 C 203.171875 64.390625 203.09375 64.160156 203.019531 63.925781 C 202.277344 61.597656 201.332031 59.355469 200.167969 57.214844 C 200.257812 57.328125 200.34375 57.441406 200.429688 57.554688 C 200.515625 57.667969 200.597656 57.78125 200.679688 57.894531 C 200.847656 58.117188 201.015625 58.34375 201.175781 58.578125 C 201.339844 58.816406 201.511719 59.054688 201.675781 59.316406 C 201.839844 59.578125 202.019531 59.851562 202.191406 60.15625 C 202.53125 60.722656 203.078125 61.925781 203.5 63.011719 C 203.894531 64.039062 204.1875 64.878906 204.382812 65.472656 C 204.585938 66.0625 204.699219 66.40625 204.742188 66.433594 C 204.761719 66.449219 204.765625 66.382812 204.742188 66.234375 C 204.726562 66.085938 204.679688 65.855469 204.609375 65.53125 C 204.46875 64.882812 204.210938 63.875 203.742188 62.476562 C 203.632812 62.144531 203.582031 61.925781 203.554688 61.726562 C 203.527344 61.53125 203.523438 61.363281 203.472656 61.148438 C 203.59375 61.414062 203.695312 61.675781 203.796875 61.917969 C 203.898438 62.160156 203.984375 62.390625 204.066406 62.609375 C 204.148438 62.824219 204.230469 63.023438 204.296875 63.207031 C 204.363281 63.394531 204.425781 63.5625 204.480469 63.714844 C 204.59375 64.019531 204.671875 64.261719 204.734375 64.429688 C 204.796875 64.597656 204.835938 64.691406 204.851562 64.707031 C 204.878906 64.738281 204.828125 64.457031 204.65625 63.824219 C 204.570312 63.507812 204.460938 63.101562 204.300781 62.609375 C 204.222656 62.363281 204.136719 62.09375 204.035156 61.800781 C 203.933594 61.511719 203.828125 61.195312 203.699219 60.859375 C 202.679688 58.125 201.476562 55.671875 200.125 53.417969 C 198.773438 51.164062 197.269531 49.113281 195.582031 47.214844 C 194.5625 46.058594 193.488281 44.984375 192.375 43.972656 C 191.261719 42.964844 190.105469 42.015625 188.894531 41.136719 C 187.683594 40.257812 186.425781 39.445312 185.113281 38.691406 C 183.800781 37.945312 182.429688 37.253906 180.996094 36.644531 C 180.710938 36.523438 180.375 36.386719 180.007812 36.253906 C 179.640625 36.121094 179.242188 35.976562 178.824219 35.847656 C 178.617188 35.78125 178.40625 35.714844 178.191406 35.644531 C 177.976562 35.585938 177.761719 35.523438 177.542969 35.460938 C 177.4375 35.429688 177.328125 35.398438 177.21875 35.367188 C 177.113281 35.339844 177.003906 35.3125 176.894531 35.28125 C 176.679688 35.226562 176.46875 35.171875 176.261719 35.117188 C 173.667969 34.472656 171.007812 34.082031 168.328125 33.957031 C 165.652344 33.832031 162.949219 33.960938 160.269531 34.367188 C 157.589844 34.773438 154.9375 35.449219 152.367188 36.402344 C 149.796875 37.351562 147.3125 38.570312 144.972656 40.042969 C 139.488281 43.480469 134.828125 48.199219 131.464844 53.710938 C 129.777344 56.464844 128.421875 59.417969 127.417969 62.484375 C 126.421875 65.550781 125.777344 68.730469 125.523438 71.929688 C 125.421875 73.148438 125.378906 74.339844 125.394531 75.5 C 125.40625 76.65625 125.464844 77.78125 125.570312 78.867188 C 125.679688 79.953125 125.828125 81 126.011719 82 C 126.058594 82.25 126.109375 82.5 126.15625 82.746094 C 126.183594 82.867188 126.207031 82.988281 126.234375 83.109375 C 126.261719 83.230469 126.289062 83.351562 126.316406 83.472656 C 126.371094 83.710938 126.421875 83.949219 126.480469 84.179688 C 126.542969 84.414062 126.601562 84.644531 126.664062 84.871094 C 126.71875 85.101562 126.789062 85.324219 126.851562 85.546875 C 126.917969 85.765625 126.980469 85.984375 127.050781 86.199219 C 127.1875 86.628906 127.320312 87.050781 127.472656 87.453125 C 127.542969 87.65625 127.613281 87.855469 127.691406 88.054688 C 127.765625 88.25 127.84375 88.441406 127.917969 88.632812 C 127.957031 88.726562 127.992188 88.820312 128.03125 88.914062 C 128.070312 89.007812 128.109375 89.101562 128.148438 89.191406 C 128.226562 89.375 128.304688 89.554688 128.382812 89.734375 C 129.011719 91.148438 129.683594 92.355469 130.324219 93.351562 C 129.171875 90.878906 128.253906 88.246094 127.625 85.554688 C 126.992188 82.863281 126.648438 80.117188 126.597656 77.4375 C 126.535156 74.144531 126.902344 71.183594 127.578125 68.222656 C 127.921875 66.742188 128.339844 65.257812 128.867188 63.734375 C 129.398438 62.210938 130.019531 60.640625 130.796875 59.003906 C 131.265625 58.011719 131.878906 57.171875 132.40625 56.433594 C 132.484375 56.320312 132.558594 56.21875 132.632812 56.125 C 132.703125 56.027344 132.773438 55.941406 132.839844 55.859375 C 132.976562 55.695312 133.097656 55.550781 133.21875 55.414062 C 133.34375 55.277344 133.464844 55.144531 133.59375 55.003906 C 133.722656 54.859375 133.855469 54.707031 134.007812 54.53125 C 134.160156 54.355469 134.324219 54.152344 134.519531 53.914062 C 134.617188 53.792969 134.71875 53.664062 134.832031 53.523438 C 134.941406 53.382812 135.058594 53.230469 135.191406 53.070312 C 135.320312 52.90625 135.460938 52.730469 135.609375 52.539062 C 135.757812 52.351562 135.921875 52.148438 136.097656 51.929688 C 136.449219 51.492188 136.855469 50.996094 137.335938 50.433594 C 137.71875 50.210938 138.214844 49.84375 138.902344 49.292969 C 139.597656 48.75 140.476562 48.023438 141.652344 47.128906 C 141.785156 47.027344 141.738281 47.125 141.59375 47.320312 C 141.519531 47.414062 141.421875 47.535156 141.304688 47.664062 C 141.191406 47.792969 141.066406 47.9375 140.929688 48.074219 C 140.078125 48.945312 139.222656 49.894531 138.449219 50.863281 C 137.671875 51.828125 136.980469 52.816406 136.429688 53.734375 C 137.226562 52.605469 138.097656 51.507812 139 50.480469 C 139.726562 49.652344 140.503906 48.824219 141.304688 48.050781 C 142.105469 47.28125 142.925781 46.566406 143.71875 45.96875 C 144.777344 45.183594 145.4375 44.859375 146.277344 44.410156 C 146.382812 44.355469 146.488281 44.296875 146.601562 44.234375 C 146.714844 44.171875 146.832031 44.109375 146.953125 44.046875 C 147.199219 43.910156 147.464844 43.761719 147.765625 43.59375 C 147.917969 43.507812 148.074219 43.417969 148.242188 43.324219 C 148.414062 43.230469 148.59375 43.128906 148.78125 43.019531 C 148.972656 42.910156 149.175781 42.800781 149.390625 42.679688 C 149.5 42.621094 149.609375 42.558594 149.722656 42.496094 C 149.839844 42.429688 149.957031 42.367188 150.078125 42.300781 C 150.292969 42.242188 150.523438 42.167969 150.761719 42.101562 C 151 42.035156 151.238281 41.96875 151.464844 41.90625 C 151.921875 41.792969 152.320312 41.703125 152.535156 41.703125 C 152.65625 41.707031 152.550781 41.808594 152.3125 41.972656 C 152.070312 42.136719 151.691406 42.351562 151.269531 42.589844 C 150.960938 42.753906 150.621094 42.945312 150.253906 43.144531 C 150.074219 43.246094 149.890625 43.355469 149.699219 43.460938 C 149.605469 43.515625 149.507812 43.570312 149.414062 43.625 C 149.316406 43.683594 149.222656 43.738281 149.125 43.796875 C 148.355469 44.25 147.585938 44.753906 146.941406 45.214844 C 145.890625 45.980469 145.132812 46.652344 144.296875 47.414062 C 144.472656 47.273438 144.625 47.164062 144.757812 47.066406 C 144.890625 46.972656 145.003906 46.894531 145.097656 46.832031 C 145.285156 46.710938 145.402344 46.652344 145.480469 46.628906 C 145.628906 46.582031 145.605469 46.675781 145.636719 46.726562 C 145.667969 46.777344 145.75 46.785156 146.117188 46.566406 C 146.488281 46.355469 147.125 45.902344 148.34375 45.140625 C 148.511719 45.039062 148.761719 44.898438 149.035156 44.753906 C 149.316406 44.613281 149.621094 44.460938 149.90625 44.332031 C 150.191406 44.207031 150.449219 44.09375 150.628906 44.023438 C 150.8125 43.957031 150.917969 43.921875 150.890625 43.949219 C 150.53125 44.289062 150.511719 44.421875 150.726562 44.378906 C 150.835938 44.363281 151.007812 44.304688 151.234375 44.214844 C 151.34375 44.171875 151.46875 44.117188 151.609375 44.058594 C 151.746094 44 151.898438 43.9375 152.0625 43.867188 C 152.144531 43.828125 152.226562 43.792969 152.3125 43.753906 C 152.402344 43.71875 152.492188 43.679688 152.585938 43.640625 C 152.769531 43.558594 152.96875 43.476562 153.171875 43.390625 C 153.378906 43.304688 153.597656 43.21875 153.820312 43.125 C 154.042969 43.035156 154.28125 42.949219 154.519531 42.855469 C 155.488281 42.492188 156.582031 42.132812 157.726562 41.835938 C 158.78125 41.558594 159.984375 41.300781 161.222656 41.113281 C 162.460938 40.925781 163.734375 40.8125 164.929688 40.785156 C 166.121094 40.753906 167.234375 40.808594 168.144531 40.917969 C 169.054688 41.023438 169.761719 41.1875 170.164062 41.355469 C 170.203125 41.375 170.261719 41.390625 170.34375 41.414062 C 170.417969 41.433594 170.515625 41.457031 170.625 41.484375 C 170.734375 41.507812 170.859375 41.535156 170.996094 41.5625 C 171.066406 41.578125 171.136719 41.59375 171.210938 41.609375 C 171.28125 41.625 171.359375 41.640625 171.4375 41.65625 C 171.746094 41.722656 172.085938 41.789062 172.433594 41.867188 C 172.605469 41.90625 172.78125 41.941406 172.953125 41.976562 C 173.125 42.015625 173.296875 42.054688 173.460938 42.09375 C 174.367188 42.292969 175.148438 42.492188 175.667969 42.667969 C 175.929688 42.757812 176.128906 42.832031 176.246094 42.898438 C 176.363281 42.960938 176.398438 43.015625 176.339844 43.050781 C 176.265625 43.09375 176.367188 43.175781 176.589844 43.277344 C 176.816406 43.375 177.15625 43.511719 177.566406 43.65625 C 178.382812 43.953125 179.453125 44.339844 180.351562 44.707031 C 184.390625 46.328125 188.132812 48.757812 191.289062 51.796875 C 194.449219 54.832031 197.023438 58.46875 198.828125 62.425781 C 198.957031 62.71875 199.105469 63.027344 199.238281 63.351562 C 199.304688 63.515625 199.375 63.675781 199.441406 63.839844 C 199.507812 64.003906 199.570312 64.167969 199.636719 64.328125 C 199.894531 64.976562 200.121094 65.59375 200.300781 66.050781 C 200.390625 66.28125 200.464844 66.472656 200.527344 66.605469 C 200.589844 66.738281 200.644531 66.8125 200.675781 66.816406 C 200.710938 66.820312 200.730469 66.746094 200.726562 66.585938 C 200.722656 66.425781 200.707031 66.175781 200.644531 65.820312 C 200.59375 65.515625 200.746094 65.75 200.953125 66.191406 C 201.050781 66.414062 201.171875 66.6875 201.28125 66.976562 C 201.390625 67.261719 201.503906 67.5625 201.597656 67.828125 C 201.941406 68.800781 202.257812 69.96875 202.515625 71.132812 C 202.773438 72.292969 202.964844 73.449219 203.117188 74.390625 C 203.203125 74.878906 203.261719 75.285156 203.324219 75.53125 C 203.386719 75.773438 203.445312 75.863281 203.5 75.726562 C 203.523438 75.65625 203.546875 75.527344 203.566406 75.335938 C 203.585938 75.144531 203.613281 74.890625 203.617188 74.558594 C 203.621094 74.390625 203.625 74.207031 203.625 74.003906 C 203.628906 73.800781 203.617188 73.578125 203.613281 73.332031 C 203.609375 73.210938 203.605469 73.085938 203.601562 72.953125 C 203.59375 72.820312 203.582031 72.683594 203.574219 72.539062 C 203.566406 72.398438 203.554688 72.25 203.546875 72.09375 C 203.535156 71.941406 203.515625 71.78125 203.503906 71.617188 C 203.351562 70.109375 203.386719 69.703125 203.390625 69.078125 C 203.386719 68.921875 203.382812 68.753906 203.367188 68.550781 C 203.359375 68.449219 203.351562 68.339844 203.335938 68.21875 C 203.316406 68.101562 203.300781 67.96875 203.273438 67.824219 C 203.253906 67.679688 203.226562 67.519531 203.191406 67.347656 C 203.15625 67.175781 203.113281 66.984375 203.066406 66.777344 C 203.042969 66.675781 203.015625 66.566406 202.988281 66.453125 C 202.960938 66.339844 202.929688 66.222656 202.894531 66.101562 C 202.828125 65.855469 202.757812 65.589844 202.664062 65.304688 C 202.734375 65.273438 202.707031 64.847656 202.890625 65.289062 C 202.960938 65.457031 203.027344 65.632812 203.09375 65.816406 C 203.164062 65.996094 203.234375 66.183594 203.308594 66.378906 C 203.371094 66.574219 203.441406 66.777344 203.515625 66.988281 C 203.546875 67.09375 203.585938 67.199219 203.621094 67.308594 C 203.65625 67.417969 203.6875 67.53125 203.722656 67.644531 C 204.007812 68.550781 204.292969 69.601562 204.5625 70.839844 " fill-opacity="1" fill-rule="nonzero"/></g><g clip-path="url(#4395f9c0a7)"><path fill="#ffffff" d="M 153.125 108.8125 C 153.300781 108.890625 153.480469 108.96875 153.65625 109.050781 C 153.835938 109.128906 154.015625 109.203125 154.195312 109.28125 C 154.550781 109.433594 154.921875 109.566406 155.292969 109.703125 C 155.484375 109.765625 155.679688 109.828125 155.875 109.886719 C 155.972656 109.917969 156.070312 109.945312 156.171875 109.976562 C 156.269531 110.003906 156.367188 110.03125 156.46875 110.054688 C 156.667969 110.109375 156.867188 110.164062 157.066406 110.214844 C 157.265625 110.261719 157.464844 110.3125 157.664062 110.359375 C 157.472656 110.296875 157.277344 110.234375 157.082031 110.167969 C 156.886719 110.105469 156.695312 110.035156 156.5 109.964844 C 156.398438 109.929688 156.300781 109.894531 156.203125 109.859375 C 156.105469 109.824219 156.003906 109.785156 155.90625 109.746094 C 155.707031 109.671875 155.503906 109.597656 155.300781 109.515625 C 155.070312 109.445312 154.859375 109.382812 154.660156 109.324219 C 154.460938 109.265625 154.277344 109.203125 154.101562 109.144531 C 153.75 109.035156 153.4375 108.921875 153.125 108.8125 Z M 182.703125 110.765625 C 181.652344 111.246094 180.59375 111.722656 179.507812 112.132812 C 179.714844 112.097656 179.898438 112.105469 180.140625 112.019531 C 180.320312 111.953125 180.503906 111.882812 180.6875 111.816406 C 180.78125 111.78125 180.875 111.746094 180.96875 111.710938 C 181.058594 111.671875 181.152344 111.632812 181.25 111.597656 C 181.4375 111.519531 181.632812 111.441406 181.832031 111.359375 C 182.03125 111.273438 182.234375 111.183594 182.445312 111.089844 C 183.289062 110.714844 184.257812 110.253906 185.441406 109.601562 C 185.351562 109.644531 185.261719 109.6875 185.175781 109.726562 C 185.089844 109.765625 185.003906 109.800781 184.925781 109.835938 C 184.765625 109.90625 184.613281 109.972656 184.476562 110.035156 C 184.199219 110.152344 183.957031 110.246094 183.746094 110.332031 C 183.640625 110.375 183.542969 110.417969 183.449219 110.457031 C 183.355469 110.492188 183.265625 110.527344 183.179688 110.5625 C 183.011719 110.628906 182.855469 110.695312 182.703125 110.765625 Z M 153.636719 109.238281 C 152.851562 108.941406 152.308594 108.8125 151.667969 108.578125 C 151.753906 108.625 151.839844 108.667969 151.925781 108.714844 C 152.015625 108.757812 152.101562 108.800781 152.191406 108.84375 C 152.367188 108.929688 152.542969 109.019531 152.71875 109.105469 C 152.894531 109.1875 153.070312 109.265625 153.25 109.34375 C 153.335938 109.382812 153.425781 109.421875 153.511719 109.457031 C 153.601562 109.496094 153.6875 109.527344 153.777344 109.5625 C 153.996094 109.640625 154.210938 109.722656 154.449219 109.800781 C 154.6875 109.875 154.945312 109.957031 155.246094 110.050781 C 155.851562 110.222656 156.625 110.445312 157.765625 110.695312 C 156.570312 110.351562 155.730469 110.039062 155.089844 109.796875 C 154.449219 109.554688 154.011719 109.371094 153.636719 109.238281 Z M 139.992188 99.195312 C 142.375 101.769531 145.148438 104.042969 148.238281 105.90625 C 149.011719 106.367188 149.800781 106.8125 150.613281 107.21875 C 151.425781 107.628906 152.253906 108.011719 153.097656 108.367188 C 154.792969 109.066406 156.546875 109.660156 158.359375 110.109375 C 159.09375 110.300781 159.847656 110.441406 160.601562 110.574219 L 161.171875 110.660156 L 161.453125 110.703125 L 161.738281 110.742188 C 161.929688 110.769531 162.117188 110.792969 162.308594 110.820312 C 162.5 110.839844 162.6875 110.863281 162.878906 110.882812 C 163.820312 110.988281 164.308594 110.992188 164.574219 110.96875 C 164.835938 110.945312 164.871094 110.894531 164.914062 110.84375 C 164.957031 110.792969 165.007812 110.746094 165.289062 110.71875 C 165.433594 110.707031 165.632812 110.699219 165.921875 110.699219 C 166.066406 110.695312 166.230469 110.695312 166.421875 110.695312 C 166.613281 110.699219 166.832031 110.703125 167.078125 110.699219 C 165.800781 110.648438 164.613281 110.511719 163.261719 110.355469 C 160.675781 110.054688 158.113281 109.464844 155.652344 108.59375 C 153.1875 107.71875 150.820312 106.574219 148.625 105.167969 L 148.726562 105.121094 L 148.964844 105.269531 L 149.210938 105.414062 L 149.695312 105.699219 C 150.023438 105.878906 150.347656 106.070312 150.683594 106.242188 C 151.34375 106.597656 152.023438 106.921875 152.707031 107.234375 C 154.085938 107.847656 155.503906 108.382812 156.96875 108.816406 C 158.425781 109.253906 159.933594 109.585938 161.46875 109.832031 C 162.238281 109.945312 163.011719 110.046875 163.800781 110.109375 C 164.191406 110.148438 164.585938 110.167969 164.980469 110.195312 C 165.179688 110.203125 165.378906 110.210938 165.578125 110.21875 L 165.875 110.230469 C 165.976562 110.234375 166.078125 110.234375 166.175781 110.234375 C 163.277344 109.976562 160.265625 109.429688 157.214844 108.460938 C 154.164062 107.492188 151.070312 106.089844 148.101562 104.148438 C 146.03125 102.796875 144.109375 101.195312 142.382812 99.40625 L 142.222656 99.238281 L 142.0625 99.066406 L 141.746094 98.722656 C 141.535156 98.496094 141.332031 98.257812 141.125 98.027344 C 140.925781 97.789062 140.722656 97.550781 140.527344 97.3125 L 140.089844 96.765625 L 139.949219 96.578125 C 139.191406 95.59375 138.484375 94.566406 137.835938 93.507812 L 137.972656 93.449219 C 139.746094 96.285156 141.9375 98.851562 144.453125 101.042969 L 144.421875 100.90625 C 142.03125 98.789062 139.9375 96.335938 138.207031 93.589844 C 136.480469 90.84375 135.117188 87.804688 134.226562 84.523438 C 134.90625 86.816406 135.8125 88.992188 136.910156 91.042969 C 138.011719 93.089844 139.304688 95.007812 140.769531 96.792969 C 142.234375 98.578125 143.863281 100.234375 145.664062 101.738281 C 147.464844 103.238281 149.425781 104.597656 151.554688 105.78125 C 152.21875 106.148438 152.910156 106.5 153.625 106.832031 C 154.34375 107.15625 155.082031 107.46875 155.839844 107.746094 C 157.359375 108.304688 158.953125 108.761719 160.585938 109.09375 C 161.402344 109.257812 162.222656 109.402344 163.054688 109.5 L 163.363281 109.542969 L 163.675781 109.574219 C 163.882812 109.597656 164.089844 109.621094 164.296875 109.640625 C 164.507812 109.65625 164.714844 109.671875 164.921875 109.691406 C 165.128906 109.710938 165.335938 109.714844 165.546875 109.730469 C 165.960938 109.757812 166.375 109.765625 166.789062 109.78125 C 166.996094 109.78125 167.203125 109.785156 167.410156 109.785156 L 167.71875 109.789062 L 168.027344 109.78125 C 168.847656 109.777344 169.664062 109.730469 170.464844 109.671875 C 170.679688 109.652344 170.894531 109.636719 171.101562 109.617188 C 171.3125 109.59375 171.519531 109.574219 171.722656 109.554688 C 171.824219 109.542969 171.925781 109.53125 172.023438 109.519531 C 172.125 109.507812 172.226562 109.496094 172.324219 109.480469 C 172.519531 109.457031 172.714844 109.433594 172.910156 109.40625 C 173.289062 109.347656 173.664062 109.300781 174.023438 109.238281 C 174.199219 109.207031 174.378906 109.179688 174.550781 109.148438 C 174.722656 109.117188 174.894531 109.085938 175.058594 109.054688 C 176.390625 108.804688 177.511719 108.542969 178.390625 108.335938 C 178.5 108.3125 178.605469 108.289062 178.710938 108.265625 C 178.8125 108.242188 178.910156 108.214844 179.007812 108.195312 C 179.195312 108.152344 179.371094 108.113281 179.53125 108.082031 C 179.847656 108.015625 180.101562 107.972656 180.289062 107.960938 C 180.667969 107.933594 180.773438 108.019531 180.570312 108.253906 C 180.433594 108.40625 180.683594 108.488281 180.152344 108.851562 C 180.085938 108.898438 180.007812 108.945312 179.914062 109 C 179.820312 109.054688 179.710938 109.109375 179.585938 109.171875 C 179.460938 109.234375 179.316406 109.304688 179.15625 109.378906 C 178.992188 109.449219 178.808594 109.523438 178.605469 109.605469 C 177.785156 109.925781 176.605469 110.324219 174.894531 110.699219 C 174.597656 110.757812 174.28125 110.832031 173.945312 110.914062 C 173.777344 110.953125 173.605469 110.992188 173.429688 111.03125 C 173.34375 111.050781 173.253906 111.074219 173.164062 111.09375 C 173.078125 111.113281 172.988281 111.132812 172.898438 111.152344 C 172.71875 111.191406 172.535156 111.234375 172.351562 111.273438 C 172.171875 111.3125 171.984375 111.347656 171.800781 111.382812 C 171.4375 111.460938 171.070312 111.519531 170.714844 111.574219 C 172.761719 111.398438 174.847656 111.007812 176.742188 110.476562 C 177.6875 110.210938 178.585938 109.90625 179.414062 109.589844 C 179.621094 109.507812 179.824219 109.425781 180.023438 109.347656 C 180.21875 109.261719 180.414062 109.179688 180.601562 109.097656 C 180.789062 109.015625 180.972656 108.929688 181.148438 108.847656 C 181.324219 108.761719 181.496094 108.679688 181.660156 108.597656 C 182.664062 108.089844 183.582031 107.589844 184.441406 107.089844 C 185.304688 106.59375 186.109375 106.097656 186.882812 105.597656 C 187.648438 105.09375 188.386719 104.582031 189.105469 104.046875 C 189.824219 103.511719 190.523438 102.945312 191.21875 102.339844 C 191.382812 102.195312 191.539062 102.054688 191.699219 101.917969 C 191.855469 101.777344 192.007812 101.640625 192.160156 101.5 C 192.316406 101.367188 192.464844 101.226562 192.609375 101.089844 C 192.757812 100.949219 192.90625 100.816406 193.050781 100.675781 C 193.632812 100.121094 194.1875 99.546875 194.734375 98.898438 C 195.578125 97.894531 196.207031 97.054688 196.703125 96.390625 C 197.199219 95.726562 197.558594 95.230469 197.828125 94.890625 C 197.96875 94.71875 198.078125 94.585938 198.171875 94.484375 C 198.265625 94.386719 198.339844 94.320312 198.402344 94.285156 C 198.523438 94.21875 198.582031 94.269531 198.597656 94.402344 C 198.605469 94.464844 198.730469 94.355469 198.90625 94.148438 C 198.988281 94.042969 199.085938 93.910156 199.1875 93.765625 C 199.289062 93.617188 199.398438 93.453125 199.492188 93.28125 C 200.191406 92.054688 200.660156 91.09375 201.039062 90.285156 C 201.132812 90.078125 201.21875 89.882812 201.304688 89.695312 C 201.34375 89.601562 201.386719 89.507812 201.425781 89.417969 C 201.464844 89.328125 201.503906 89.234375 201.542969 89.148438 C 201.617188 88.96875 201.691406 88.792969 201.765625 88.621094 C 201.835938 88.449219 201.90625 88.277344 201.976562 88.105469 C 202.257812 87.414062 202.527344 86.703125 202.847656 85.789062 C 203.160156 84.878906 203.519531 83.765625 203.886719 82.25 C 203.535156 84.15625 203.070312 85.863281 202.53125 87.453125 C 201.996094 89.046875 201.375 90.519531 200.691406 91.960938 C 200.582031 92.191406 200.445312 92.480469 200.308594 92.785156 C 200.167969 93.089844 200.019531 93.40625 199.890625 93.695312 C 199.625 94.261719 199.425781 94.710938 199.476562 94.667969 C 199.570312 94.601562 199.714844 94.441406 199.902344 94.199219 C 199.996094 94.078125 200.105469 93.9375 200.214844 93.777344 C 200.328125 93.617188 200.449219 93.4375 200.578125 93.242188 C 201.089844 92.457031 201.707031 91.390625 202.292969 90.15625 C 202.882812 88.917969 203.449219 87.515625 203.890625 86.082031 C 204.339844 84.652344 204.679688 83.199219 204.890625 81.894531 C 205.050781 80.914062 205.140625 79.847656 205.222656 78.929688 C 205.328125 77.828125 205.417969 76.835938 205.460938 75.789062 C 205.480469 76.121094 205.503906 76.421875 205.523438 76.742188 C 205.539062 77.0625 205.542969 77.398438 205.539062 77.792969 L 205.515625 78.441406 L 205.503906 78.769531 L 205.445312 79.742188 L 205.386719 80.394531 L 205.359375 80.71875 L 205.324219 81.042969 C 205.300781 81.261719 205.273438 81.476562 205.25 81.695312 C 205.21875 81.910156 205.191406 82.128906 205.160156 82.34375 L 205.113281 82.671875 L 205.0625 82.996094 C 205.023438 83.210938 204.988281 83.429688 204.953125 83.648438 C 204.910156 83.863281 204.867188 84.082031 204.828125 84.296875 C 204.804688 84.40625 204.785156 84.515625 204.761719 84.625 L 204.691406 84.949219 C 204.640625 85.164062 204.597656 85.382812 204.546875 85.597656 C 204.335938 86.464844 204.097656 87.332031 203.820312 88.199219 C 202.597656 92.023438 200.753906 95.667969 198.390625 98.957031 C 196.027344 102.246094 193.136719 105.175781 189.851562 107.59375 C 188.507812 108.59375 187.085938 109.492188 185.621094 110.3125 C 184.882812 110.714844 184.140625 111.109375 183.378906 111.464844 C 183 111.648438 182.613281 111.8125 182.230469 111.988281 C 182.039062 112.070312 181.84375 112.148438 181.648438 112.230469 C 181.453125 112.3125 181.261719 112.394531 181.0625 112.46875 C 179.5 113.085938 177.894531 113.613281 176.261719 114.023438 C 176.054688 114.074219 175.851562 114.125 175.648438 114.175781 L 175.03125 114.3125 L 174.722656 114.378906 L 174.414062 114.441406 L 173.792969 114.566406 C 172.964844 114.710938 172.128906 114.847656 171.292969 114.941406 C 170.457031 115.046875 169.617188 115.113281 168.777344 115.167969 L 168.144531 115.195312 L 167.828125 115.207031 L 167.511719 115.214844 L 166.882812 115.226562 C 166.671875 115.226562 166.460938 115.222656 166.25 115.222656 C 165.40625 115.222656 164.566406 115.179688 163.722656 115.125 L 163.09375 115.074219 L 162.777344 115.046875 L 162.464844 115.011719 L 161.832031 114.945312 L 161.207031 114.863281 C 157.859375 114.414062 154.566406 113.515625 151.441406 112.222656 C 151.632812 112.28125 151.832031 112.339844 152.035156 112.402344 C 152.136719 112.433594 152.238281 112.46875 152.34375 112.5 C 152.449219 112.53125 152.554688 112.5625 152.660156 112.597656 C 152.875 112.660156 153.09375 112.726562 153.3125 112.796875 C 153.535156 112.863281 153.761719 112.929688 153.992188 112.996094 C 154.90625 113.257812 155.863281 113.519531 156.800781 113.722656 C 157.039062 113.777344 157.261719 113.816406 157.476562 113.855469 C 157.695312 113.894531 157.898438 113.933594 158.101562 113.964844 C 158.511719 114.023438 158.898438 114.082031 159.316406 114.128906 C 158.917969 114.039062 158.457031 113.902344 158.03125 113.789062 C 157.609375 113.664062 157.226562 113.558594 156.980469 113.5 C 155.78125 113.230469 154.777344 112.90625 153.863281 112.5625 C 153.40625 112.394531 152.976562 112.207031 152.550781 112.027344 C 152.132812 111.832031 151.71875 111.648438 151.308594 111.441406 C 150.484375 111.035156 149.660156 110.589844 148.742188 110.074219 C 147.824219 109.558594 146.816406 108.96875 145.644531 108.234375 C 145.441406 108.105469 145.285156 108.003906 145.167969 107.925781 C 145.054688 107.847656 144.984375 107.792969 144.945312 107.757812 C 144.863281 107.6875 144.917969 107.699219 145.046875 107.757812 C 145.175781 107.816406 145.382812 107.910156 145.605469 108.015625 C 145.832031 108.121094 146.074219 108.234375 146.28125 108.316406 C 146.695312 108.484375 146.953125 108.550781 146.59375 108.257812 C 146.503906 108.183594 146.375 108.089844 146.203125 107.964844 C 146.03125 107.839844 145.816406 107.6875 145.546875 107.5 C 145.019531 107.121094 144.28125 106.609375 143.332031 105.871094 C 143.425781 105.90625 143.476562 105.886719 143.617188 105.992188 C 144.6875 106.785156 145.386719 107.199219 145.824219 107.429688 C 146.265625 107.65625 146.441406 107.699219 146.523438 107.671875 C 146.6875 107.625 146.457031 107.332031 147.140625 107.699219 C 148.214844 108.261719 148.835938 108.523438 149.105469 108.628906 C 149.378906 108.726562 149.304688 108.660156 149.015625 108.488281 C 148.871094 108.398438 148.675781 108.28125 148.441406 108.148438 C 148.207031 108.015625 147.941406 107.851562 147.652344 107.679688 C 147.363281 107.507812 147.0625 107.316406 146.753906 107.121094 C 146.601562 107.023438 146.449219 106.921875 146.296875 106.820312 C 146.144531 106.71875 145.992188 106.621094 145.847656 106.515625 C 142.152344 103.976562 138.921875 100.761719 136.359375 97.085938 C 136.214844 96.523438 135.160156 94.898438 134.210938 93.042969 C 133.734375 92.117188 133.277344 91.144531 132.925781 90.253906 C 132.832031 90.03125 132.753906 89.8125 132.675781 89.605469 C 132.640625 89.5 132.601562 89.398438 132.566406 89.300781 C 132.53125 89.199219 132.5 89.101562 132.46875 89.007812 C 132.410156 88.816406 132.351562 88.636719 132.304688 88.472656 C 132.257812 88.304688 132.222656 88.148438 132.191406 88.011719 C 132.449219 88.695312 132.746094 89.371094 133.046875 90.046875 C 133.359375 90.714844 133.675781 91.378906 134.027344 92.023438 C 134.367188 92.671875 134.738281 93.300781 135.109375 93.914062 C 135.203125 94.066406 135.300781 94.214844 135.398438 94.367188 C 135.496094 94.515625 135.585938 94.667969 135.6875 94.816406 C 135.886719 95.109375 136.078125 95.402344 136.285156 95.683594 C 136.40625 95.851562 136.519531 96.007812 136.621094 96.144531 C 136.722656 96.28125 136.816406 96.398438 136.894531 96.492188 C 137.054688 96.683594 137.152344 96.792969 137.179688 96.792969 C 137.203125 96.792969 137.152344 96.683594 137.007812 96.4375 C 136.855469 96.199219 136.621094 95.820312 136.285156 95.273438 C 135.488281 93.972656 134.753906 92.59375 134.226562 91.457031 C 135.820312 94.335938 137.78125 96.953125 140.035156 99.25 L 139.992188 99.195312 " fill-opacity="1" fill-rule="nonzero"/></g><path fill="#ffffff" d="M 140.5 95.699219 C 141.003906 96.390625 141.566406 97.097656 142.191406 97.808594 C 142.8125 98.523438 143.496094 99.246094 144.238281 99.957031 C 145.71875 101.382812 147.445312 102.769531 149.382812 104.003906 C 150.351562 104.625 151.371094 105.207031 152.4375 105.738281 C 153.5 106.265625 154.609375 106.746094 155.75 107.171875 C 156.890625 107.59375 158.0625 107.957031 159.257812 108.257812 C 160.449219 108.558594 161.664062 108.789062 162.886719 108.957031 C 164.515625 109.183594 166.109375 109.269531 167.675781 109.257812 C 169.238281 109.230469 170.777344 109.105469 172.304688 108.851562 C 173.828125 108.601562 175.34375 108.230469 176.855469 107.734375 C 177.613281 107.484375 178.367188 107.199219 179.125 106.882812 C 179.878906 106.5625 180.632812 106.203125 181.390625 105.8125 C 182.492188 105.226562 183.25 104.761719 183.742188 104.4375 C 183.863281 104.359375 183.972656 104.289062 184.0625 104.226562 C 184.15625 104.160156 184.230469 104.105469 184.292969 104.0625 C 184.417969 103.96875 184.484375 103.914062 184.496094 103.890625 C 184.527344 103.84375 184.351562 103.917969 184.019531 104.078125 C 183.851562 104.15625 183.644531 104.253906 183.402344 104.367188 C 183.28125 104.425781 183.148438 104.484375 183.011719 104.546875 C 182.871094 104.605469 182.726562 104.671875 182.570312 104.738281 C 181.761719 105.078125 181.1875 105.269531 180.855469 105.34375 C 180.523438 105.417969 180.4375 105.378906 180.59375 105.230469 C 180.75 105.085938 181.152344 104.824219 181.777344 104.421875 C 182.402344 104.023438 183.253906 103.476562 184.285156 102.722656 C 185.332031 101.953125 185.773438 101.503906 185.84375 101.363281 C 185.910156 101.214844 185.589844 101.347656 185.046875 101.640625 C 182.8125 102.804688 180.261719 103.84375 177.578125 104.503906 C 177.511719 104.519531 177.4375 104.542969 177.351562 104.566406 C 177.261719 104.59375 177.167969 104.617188 177.0625 104.648438 C 176.855469 104.707031 176.621094 104.785156 176.371094 104.851562 C 176.121094 104.925781 175.859375 105.003906 175.597656 105.074219 C 175.46875 105.109375 175.339844 105.148438 175.214844 105.183594 C 175.089844 105.214844 174.96875 105.25 174.851562 105.28125 C 174.472656 105.386719 174.09375 105.472656 173.722656 105.558594 C 173.34375 105.636719 172.972656 105.71875 172.597656 105.78125 C 172.226562 105.851562 171.855469 105.898438 171.484375 105.957031 C 171.300781 105.976562 171.113281 106 170.929688 106.023438 C 170.746094 106.046875 170.5625 106.0625 170.378906 106.078125 C 168.910156 106.21875 167.457031 106.234375 166.011719 106.183594 C 163.023438 106.054688 159.980469 105.535156 157.007812 104.535156 C 154.039062 103.535156 151.136719 102.066406 148.492188 100.117188 C 150.894531 102.050781 153.617188 103.617188 156.515625 104.746094 C 159.410156 105.871094 162.480469 106.550781 165.582031 106.769531 C 167.824219 106.929688 170.046875 106.863281 172.230469 106.570312 C 174.417969 106.277344 176.566406 105.75 178.660156 104.992188 L 178.71875 105.132812 C 177.023438 105.851562 175.25 106.429688 173.472656 106.839844 C 173.382812 106.863281 173.296875 106.882812 173.207031 106.902344 C 173.117188 106.921875 173.027344 106.941406 172.9375 106.960938 C 172.75 106.996094 172.566406 107.039062 172.375 107.074219 C 171.996094 107.144531 171.609375 107.21875 171.242188 107.273438 C 170.507812 107.394531 169.839844 107.476562 169.429688 107.550781 C 168.601562 107.695312 167.738281 107.796875 166.84375 107.835938 C 165.949219 107.875 165.03125 107.863281 164.09375 107.789062 C 162.222656 107.652344 160.292969 107.273438 158.371094 106.671875 C 157.398438 106.367188 156.363281 105.996094 155.421875 105.589844 C 154.480469 105.1875 153.628906 104.753906 153.007812 104.386719 C 151.976562 103.761719 151.179688 103.246094 150.335938 102.71875 C 149.488281 102.191406 148.589844 101.652344 147.40625 100.886719 C 147.230469 100.777344 147.042969 100.640625 146.835938 100.492188 C 146.625 100.34375 146.40625 100.167969 146.167969 99.980469 C 146.109375 99.933594 146.050781 99.886719 145.988281 99.835938 C 145.925781 99.785156 145.867188 99.734375 145.804688 99.683594 C 145.679688 99.578125 145.550781 99.46875 145.421875 99.355469 C 145.292969 99.242188 145.160156 99.121094 145.023438 99 C 144.957031 98.941406 144.886719 98.878906 144.820312 98.816406 C 144.75 98.75 144.683594 98.6875 144.613281 98.621094 C 144.472656 98.488281 144.328125 98.355469 144.1875 98.210938 C 144.046875 98.070312 143.902344 97.925781 143.753906 97.777344 C 143.609375 97.628906 143.460938 97.472656 143.3125 97.316406 C 143.160156 97.164062 143.015625 96.996094 142.867188 96.832031 C 142.265625 96.167969 141.65625 95.441406 141.058594 94.65625 C 142.242188 96.320312 143.550781 97.816406 144.9375 99.152344 C 146.324219 100.484375 147.789062 101.660156 149.3125 102.679688 C 150.832031 103.699219 152.402344 104.574219 154.007812 105.296875 C 154.808594 105.660156 155.617188 105.992188 156.433594 106.289062 C 157.253906 106.582031 158.074219 106.84375 158.902344 107.070312 C 159.074219 107.117188 159.238281 107.164062 159.402344 107.207031 C 159.566406 107.253906 159.730469 107.292969 159.894531 107.335938 C 160.054688 107.378906 160.214844 107.421875 160.378906 107.460938 C 160.539062 107.503906 160.699219 107.542969 160.863281 107.582031 L 161.105469 107.640625 C 161.1875 107.660156 161.265625 107.679688 161.347656 107.699219 C 161.511719 107.734375 161.675781 107.773438 161.84375 107.8125 C 162.007812 107.847656 162.175781 107.882812 162.347656 107.921875 C 162.515625 107.957031 162.6875 107.996094 162.863281 108.027344 C 163.039062 108.058594 163.21875 108.09375 163.398438 108.128906 C 163.582031 108.164062 163.769531 108.191406 163.960938 108.226562 C 164.148438 108.257812 164.34375 108.289062 164.542969 108.316406 C 164.746094 108.34375 164.949219 108.375 165.160156 108.402344 C 166.003906 108.507812 166.941406 108.589844 168.007812 108.625 C 164.761719 108.753906 161.632812 108.410156 158.757812 107.695312 C 158.578125 107.652344 158.398438 107.601562 158.21875 107.554688 C 158.042969 107.507812 157.863281 107.464844 157.6875 107.414062 C 157.335938 107.308594 156.988281 107.210938 156.644531 107.097656 C 155.953125 106.878906 155.285156 106.632812 154.628906 106.378906 C 153.320312 105.859375 152.078125 105.28125 150.914062 104.640625 C 149.75 104 148.65625 103.316406 147.644531 102.59375 C 146.628906 101.875 145.691406 101.121094 144.828125 100.355469 C 143.097656 98.820312 141.667969 97.230469 140.5 95.699219 " fill-opacity="1" fill-rule="nonzero"/><path fill="#ffffff" d="M 139.992188 99.195312 C 139.5 98.585938 138.902344 97.859375 138.3125 97.074219 C 137.722656 96.289062 137.140625 95.449219 136.648438 94.648438 C 136.398438 94.25 136.179688 93.859375 135.980469 93.496094 C 135.882812 93.3125 135.792969 93.136719 135.710938 92.96875 C 135.671875 92.886719 135.632812 92.804688 135.59375 92.726562 C 135.554688 92.644531 135.523438 92.566406 135.492188 92.492188 C 135.226562 91.894531 135.113281 91.453125 135.179688 91.289062 C 135.183594 91.28125 135.152344 91.203125 135.097656 91.074219 C 135.042969 90.945312 134.964844 90.761719 134.867188 90.546875 C 134.820312 90.441406 134.761719 90.324219 134.710938 90.203125 C 134.65625 90.078125 134.597656 89.949219 134.539062 89.8125 C 134.484375 89.679688 134.417969 89.542969 134.359375 89.398438 C 134.296875 89.257812 134.238281 89.113281 134.175781 88.972656 C 133.679688 87.820312 133.230469 86.648438 133.066406 86.65625 C 133.066406 86.65625 133.078125 86.609375 133.078125 86.609375 C 132.820312 86.300781 132.804688 86.585938 133.019531 87.382812 C 133.234375 88.175781 133.707031 89.472656 134.515625 91.117188 C 135.964844 94.035156 137.824219 96.796875 140.023438 99.238281 C 140.035156 99.25 139.992188 99.195312 139.992188 99.195312 " fill-opacity="1" fill-rule="nonzero"/><path fill="#ffffff" d="M 132.25 75.089844 C 132.25 75.332031 132.25 75.5625 132.25 75.789062 C 132.253906 76.015625 132.257812 76.238281 132.261719 76.453125 C 132.265625 76.667969 132.277344 76.878906 132.289062 77.082031 C 132.296875 77.285156 132.304688 77.484375 132.316406 77.679688 C 132.347656 78.066406 132.367188 78.433594 132.40625 78.78125 C 132.421875 78.953125 132.4375 79.125 132.453125 79.289062 C 132.476562 79.453125 132.496094 79.613281 132.511719 79.769531 C 132.671875 81.027344 132.863281 82.023438 133.082031 82.90625 C 133.144531 83.164062 133.210938 83.378906 133.273438 83.566406 C 133.339844 83.753906 133.40625 83.914062 133.46875 84.066406 C 133.597656 84.363281 133.734375 84.609375 133.871094 84.933594 C 133.792969 84.628906 133.710938 84.300781 133.640625 83.960938 C 133.605469 83.792969 133.566406 83.625 133.53125 83.457031 C 133.5 83.289062 133.46875 83.121094 133.4375 82.957031 C 133.3125 82.300781 133.210938 81.703125 133.132812 81.3125 C 133.105469 81.195312 133.078125 81.078125 133.054688 80.960938 C 133.03125 80.84375 133.007812 80.726562 132.984375 80.613281 C 132.941406 80.382812 132.890625 80.15625 132.851562 79.925781 C 132.808594 79.699219 132.769531 79.46875 132.726562 79.238281 C 132.6875 79.007812 132.648438 78.769531 132.609375 78.527344 C 132.464844 77.558594 132.324219 76.480469 132.25 75.089844 " fill-opacity="1" fill-rule="nonzero"/><path fill="#ffffff" d="M 132.109375 67.28125 C 132.324219 66.296875 132.578125 65.320312 132.878906 64.355469 C 133.179688 63.390625 133.519531 62.441406 133.898438 61.503906 C 134.65625 59.628906 135.582031 57.816406 136.65625 56.089844 L 136.375 56.367188 L 136.105469 56.648438 C 135.59375 57.515625 135.117188 58.40625 134.679688 59.3125 C 134.246094 60.222656 133.847656 61.148438 133.492188 62.085938 C 132.769531 63.960938 132.222656 65.898438 131.832031 67.859375 C 131.917969 67.664062 132.015625 67.472656 132.109375 67.28125 " fill-opacity="1" fill-rule="nonzero"/><path fill="#ffffff" d="M 133.078125 86.609375 C 133.078125 86.609375 133.066406 86.65625 133.066406 86.65625 C 132.636719 85.222656 132.3125 83.824219 132.046875 82.546875 C 131.78125 81.269531 131.574219 80.113281 131.371094 79.152344 C 131.367188 79.136719 131.367188 79.1875 131.367188 79.277344 C 131.367188 79.320312 131.367188 79.375 131.367188 79.433594 C 131.367188 79.492188 131.371094 79.554688 131.371094 79.621094 C 131.382812 79.886719 131.394531 80.179688 131.40625 80.265625 C 131.769531 82.46875 132.332031 84.570312 133.078125 86.609375 " fill-opacity="1" fill-rule="nonzero"/><path fill="#ffffff" d="M 137.546875 101.875 C 138.480469 102.878906 139.464844 103.828125 140.496094 104.726562 C 141.527344 105.621094 142.605469 106.464844 143.71875 107.246094 L 143.566406 107.027344 C 141.261719 105.355469 139.140625 103.429688 137.242188 101.292969 C 137.34375 101.488281 137.445312 101.679688 137.546875 101.875 " fill-opacity="1" fill-rule="nonzero"/><path fill="#ffffff" d="M 155.917969 108.894531 C 154.753906 108.511719 153.605469 108.070312 152.488281 107.566406 C 151.371094 107.058594 150.277344 106.492188 149.21875 105.871094 L 149.195312 105.929688 C 150.253906 106.550781 151.347656 107.117188 152.46875 107.621094 C 153.589844 108.128906 154.734375 108.570312 155.902344 108.957031 L 155.917969 108.894531 " fill-opacity="1" fill-rule="nonzero"/><path fill="#ffffff" d="M 141.003906 52.476562 C 140.828125 52.6875 140.644531 52.902344 140.460938 53.125 C 140.28125 53.347656 140.09375 53.570312 139.921875 53.792969 C 139.75 54.015625 139.582031 54.230469 139.433594 54.4375 C 139.285156 54.644531 139.148438 54.839844 139.03125 55.011719 C 138.773438 55.417969 138.578125 55.746094 138.417969 56.058594 C 138.335938 56.214844 138.257812 56.367188 138.179688 56.519531 C 138.105469 56.671875 138.027344 56.828125 137.945312 56.992188 C 138.53125 56.074219 139.265625 55.097656 139.8125 54.359375 C 140.546875 53.359375 141.15625 52.546875 141.878906 51.699219 C 141.730469 51.824219 141.582031 51.953125 141.4375 52.085938 C 141.292969 52.214844 141.148438 52.34375 141.003906 52.476562 " fill-opacity="1" fill-rule="nonzero"/><path fill="#ffffff" d="M 149.121094 103.179688 C 149.34375 103.328125 149.574219 103.46875 149.804688 103.613281 C 150.03125 103.757812 150.265625 103.894531 150.5 104.03125 C 150.695312 104.148438 150.902344 104.246094 151.105469 104.351562 C 150.636719 104.09375 150.175781 103.820312 149.722656 103.539062 C 149.523438 103.414062 149.316406 103.304688 149.121094 103.179688 " fill-opacity="1" fill-rule="nonzero"/><path fill="#ffffff" d="M 138.78125 90.09375 C 138.664062 89.855469 138.558594 89.632812 138.457031 89.417969 C 138.355469 89.199219 138.261719 88.988281 138.167969 88.78125 C 138.089844 88.601562 138 88.417969 137.914062 88.234375 C 138 88.4375 138.074219 88.648438 138.167969 88.847656 C 138.261719 89.046875 138.355469 89.242188 138.453125 89.449219 C 138.558594 89.652344 138.664062 89.867188 138.78125 90.09375 " fill-opacity="1" fill-rule="nonzero"/><path fill="#ffffff" d="M 201.304688 79.722656 C 201.269531 79.929688 201.234375 80.132812 201.191406 80.335938 C 201.148438 80.539062 201.113281 80.746094 201.082031 80.953125 C 201.003906 81.453125 200.953125 81.960938 200.871094 82.464844 C 200.921875 82.261719 200.976562 82.058594 201.023438 81.851562 C 201.070312 81.648438 201.113281 81.4375 201.152344 81.226562 C 201.191406 80.980469 201.214844 80.730469 201.242188 80.480469 C 201.269531 80.226562 201.285156 79.972656 201.304688 79.722656 " fill-opacity="1" fill-rule="nonzero"/><g clip-path="url(#317f19f7d7)"><g clip-path="url(#808f31fbc5)"><g clip-path="url(#1e629b70df)"><path fill="#ffffff" d="M 207.550781 37.769531 C 207.96875 39.679688 206.992188 43.691406 206.992188 43.691406 C 206.875 43.734375 206.765625 43.761719 206.65625 43.785156 L 206.671875 41.078125 C 206.671875 41.078125 206.082031 42.730469 205.886719 43.730469 C 204.605469 43.832031 204.0625 43.050781 204.0625 43.050781 C 204.515625 39.804688 205.300781 38.113281 205.804688 37.300781 C 205.644531 37.03125 205.585938 36.710938 205.660156 36.386719 C 205.773438 35.855469 206.214844 35.46875 206.71875 35.390625 L 208.0625 29.59375 L 199.511719 31.183594 C 198.867188 31.308594 198.304688 30.738281 198.4375 30.089844 L 198.910156 27.785156 C 198.964844 27.488281 198.878906 27.1875 198.679688 26.96875 C 188.578125 16.066406 178.554688 14.253906 171.933594 14.648438 C 164.722656 15.085938 159.972656 18.097656 159.773438 18.222656 L 159.765625 18.230469 C 159.554688 18.363281 159.417969 18.566406 159.359375 18.800781 L 158.769531 21.367188 C 158.617188 22.015625 157.859375 22.300781 157.320312 21.90625 L 148.390625 15.398438 C 147.734375 14.917969 147.972656 13.886719 148.765625 13.738281 L 181.953125 7.625 C 182.207031 7.582031 182.457031 7.632812 182.660156 7.78125 L 210.378906 27.582031 C 211.046875 28.054688 210.816406 29.09375 210.007812 29.246094 L 208.871094 29.457031 L 207.464844 35.519531 C 207.984375 35.765625 208.28125 36.351562 208.152344 36.933594 C 208.082031 37.300781 207.847656 37.59375 207.550781 37.769531 Z M 160.734375 19.738281 C 160.679688 19.765625 160.636719 19.820312 160.621094 19.886719 L 157.214844 33.746094 C 157.175781 33.914062 157.332031 34.0625 157.496094 34.007812 C 160.0625 33.191406 175.632812 29.070312 193.515625 42.921875 C 193.644531 43.019531 193.824219 42.957031 193.863281 42.808594 L 197.429688 28.285156 C 197.445312 28.214844 197.429688 28.140625 197.378906 28.089844 C 196.203125 26.730469 180.933594 9.730469 160.734375 19.738281 Z M 160.734375 19.738281 " fill-opacity="1" fill-rule="nonzero"/></g></g></g><g clip-path="url(#0efaef61e8)"><path fill="#ffffff" d="M 182.179688 89.503906 C 181.484375 88.859375 179.769531 88.242188 175.757812 90.472656 C 174.023438 91.554688 173.082031 92.25 172.605469 92.632812 C 172.300781 92.878906 171.925781 93.023438 171.535156 93.050781 C 169.445312 93.195312 162.847656 93.832031 160.585938 93.789062 C 160.253906 93.78125 160.144531 93.335938 160.367188 93.164062 C 160.53125 93.035156 160.785156 92.96875 161.148438 92.855469 C 162.433594 92.457031 169.5625 92.488281 169.40625 89.820312 C 169.257812 87.265625 164.144531 88.207031 162.628906 88.53125 C 162.039062 88.65625 161.382812 88.753906 160.777344 88.828125 C 160.777344 88.828125 158.578125 88.925781 157.496094 88.664062 C 155.242188 88.074219 150.496094 87.121094 147.496094 89.546875 C 145.082031 91.503906 144.007812 92.792969 143.542969 93.496094 C 143.226562 93.972656 142.792969 94.359375 142.289062 94.621094 L 138.0625 97.59375 C 137.839844 97.75 137.8125 98.070312 138.007812 98.261719 L 142.714844 102.972656 L 144.941406 105.195312 C 145.128906 105.382812 145.441406 105.363281 145.601562 105.144531 C 146.554688 103.855469 149.964844 100.082031 157.078125 100.308594 C 165.644531 100.585938 165.699219 100.421875 167.578125 99.425781 C 169.054688 98.644531 172.5625 97.390625 174.003906 96.882812 C 174.429688 96.734375 174.824219 96.511719 175.167969 96.226562 L 182.132812 90.511719 C 182.457031 90.261719 182.476562 89.78125 182.179688 89.503906 " fill-opacity="1" fill-rule="nonzero"/></g><g clip-path="url(#8beaf64a42)"><path fill="#ffffff" d="M 168.996094 87.816406 C 169.214844 87.941406 169.410156 88.085938 169.570312 88.246094 C 169.671875 88.347656 169.761719 88.453125 169.839844 88.566406 C 170.351562 88.324219 170.921875 88.066406 171.539062 87.800781 L 171.546875 87.796875 C 173.09375 87.21875 174.425781 86.910156 175.515625 86.878906 C 175.160156 86.6875 174.714844 86.578125 174.1875 86.546875 C 173.070312 86.480469 171.617188 86.777344 169.871094 87.429688 C 169.570312 87.558594 169.273438 87.691406 168.996094 87.816406 " fill-opacity="1" fill-rule="nonzero"/></g><path fill="#ffffff" d="M 168.082031 92.261719 C 168.492188 92.230469 168.886719 92.199219 169.25 92.171875 L 169.253906 92.171875 C 170.234375 92.09375 171.078125 92.027344 171.617188 91.996094 C 171.707031 91.988281 171.800781 91.96875 171.890625 91.941406 C 172.003906 91.898438 172.109375 91.84375 172.199219 91.769531 C 172.6875 91.375 173.628906 90.683594 175.332031 89.628906 L 175.351562 89.617188 L 175.367188 89.609375 C 175.851562 89.34375 176.328125 89.105469 176.777344 88.902344 C 177.222656 88.710938 177.648438 88.558594 178.042969 88.441406 C 178.097656 88.425781 178.152344 88.410156 178.207031 88.394531 C 178.144531 88.339844 178.078125 88.289062 178.003906 88.238281 C 177.597656 87.972656 177.054688 87.828125 176.390625 87.804688 C 175.328125 87.769531 173.972656 88.054688 172.363281 88.648438 C 171.628906 88.960938 170.96875 89.257812 170.394531 89.535156 C 170.398438 89.5625 170.398438 89.585938 170.402344 89.613281 C 170.476562 90.789062 169.699219 91.679688 168.082031 92.261719 " fill-opacity="1" fill-rule="nonzero"/><g clip-path="url(#60a1c8f93e)"><path fill="#ffffff" d="M 181.867188 81.722656 L 181.867188 68.839844 C 181.695312 69.007812 181.503906 69.171875 181.3125 69.320312 C 181.132812 69.457031 180.949219 69.585938 180.753906 69.703125 C 180.121094 70.089844 179.414062 70.351562 178.675781 70.46875 C 177.679688 70.621094 176.652344 70.5625 175.648438 70.5625 L 168.53125 70.5625 C 168.507812 70.5625 168.480469 70.5625 168.457031 70.558594 L 168.457031 71.015625 C 168.457031 71.074219 168.457031 71.125 168.457031 71.179688 C 168.441406 71.480469 168.21875 71.703125 167.917969 71.71875 C 167.386719 71.746094 166.847656 71.71875 166.3125 71.71875 L 163.722656 71.71875 C 163.496094 71.71875 163.269531 71.722656 163.042969 71.71875 C 162.703125 71.710938 162.46875 71.484375 162.464844 71.144531 C 162.460938 70.949219 162.460938 70.753906 162.460938 70.5625 C 162.441406 70.5625 162.414062 70.5625 162.390625 70.5625 C 162.378906 70.5625 162.359375 70.5625 162.34375 70.5625 C 161.335938 70.578125 160.320312 70.5625 159.3125 70.5625 L 154.800781 70.5625 C 153.6875 70.5625 152.546875 70.636719 151.46875 70.289062 C 151.019531 70.144531 150.582031 69.949219 150.171875 69.707031 C 149.976562 69.589844 149.792969 69.46875 149.613281 69.335938 C 149.417969 69.1875 149.230469 69.027344 149.054688 68.855469 L 149.054688 82.898438 C 149.054688 83 149.050781 83.105469 149.058594 83.210938 C 149.132812 84.191406 149.933594 84.945312 150.917969 84.960938 C 151.15625 84.964844 151.394531 84.960938 151.636719 84.960938 L 179.003906 84.960938 C 179.320312 84.960938 179.644531 84.960938 179.964844 84.960938 C 181.046875 84.957031 181.867188 84.105469 181.867188 83.03125 C 181.867188 82.585938 181.867188 82.15625 181.867188 81.722656 Z M 181.867188 81.722656 " fill-opacity="1" fill-rule="nonzero"/></g><g clip-path="url(#562ce4ec05)"><path fill="#ffffff" d="M 181.863281 63.09375 L 181.863281 61.816406 C 181.792969 60.84375 180.996094 60.078125 180.007812 60.066406 C 179.941406 60.066406 179.878906 60.066406 179.8125 60.066406 L 171.851562 60.066406 L 171.851562 57.292969 C 171.851562 56.726562 171.691406 56.191406 171.285156 55.785156 C 170.902344 55.398438 170.386719 55.21875 169.847656 55.214844 C 169.359375 55.214844 168.878906 55.214844 168.390625 55.214844 L 161.28125 55.214844 C 161.1875 55.214844 161.097656 55.210938 161.007812 55.214844 C 159.941406 55.238281 159.101562 56.082031 159.078125 57.148438 C 159.054688 58.117188 159.066406 59.09375 159.074219 60.066406 L 151.3125 60.066406 C 151.199219 60.066406 151.085938 60.066406 150.972656 60.066406 C 150.476562 60.066406 150.011719 60.234375 149.644531 60.578125 C 149.285156 60.910156 149.097656 61.367188 149.066406 61.847656 L 149.066406 63.648438 C 149.066406 63.90625 149.066406 64.164062 149.066406 64.421875 C 149.066406 64.535156 149.066406 64.644531 149.074219 64.753906 C 149.078125 64.832031 149.085938 64.90625 149.09375 64.984375 C 149.09375 64.996094 149.097656 65.007812 149.097656 65.019531 C 149.117188 65.125 149.128906 65.234375 149.152344 65.335938 C 149.207031 65.597656 149.289062 65.851562 149.382812 66.101562 C 149.382812 66.105469 149.382812 66.105469 149.386719 66.109375 C 149.386719 66.113281 149.386719 66.113281 149.390625 66.117188 C 149.394531 66.125 149.394531 66.128906 149.398438 66.136719 C 149.421875 66.1875 149.445312 66.238281 149.472656 66.292969 C 149.519531 66.386719 149.570312 66.480469 149.621094 66.574219 C 149.628906 66.589844 149.636719 66.601562 149.648438 66.613281 C 149.71875 66.734375 149.792969 66.851562 149.875 66.964844 C 149.90625 67.011719 149.945312 67.050781 149.972656 67.101562 C 149.96875 67.09375 149.964844 67.085938 149.960938 67.078125 C 149.96875 67.089844 149.972656 67.097656 149.980469 67.105469 C 150.042969 67.183594 150.109375 67.261719 150.179688 67.335938 C 150.289062 67.449219 150.402344 67.5625 150.523438 67.667969 C 150.570312 67.714844 150.621094 67.753906 150.671875 67.792969 C 150.679688 67.800781 150.691406 67.808594 150.699219 67.816406 C 150.765625 67.859375 150.789062 67.871094 150.792969 67.875 C 150.789062 67.875 150.773438 67.863281 150.746094 67.847656 C 150.824219 67.898438 150.898438 67.957031 150.976562 68.011719 C 151.183594 68.144531 151.398438 68.261719 151.621094 68.367188 C 151.835938 68.433594 151.722656 68.40625 151.652344 68.382812 C 151.660156 68.386719 151.664062 68.386719 151.671875 68.390625 C 151.734375 68.410156 151.792969 68.4375 151.855469 68.457031 C 151.972656 68.496094 152.09375 68.535156 152.210938 68.566406 C 152.34375 68.601562 152.472656 68.628906 152.605469 68.65625 C 152.648438 68.664062 152.695312 68.671875 152.738281 68.679688 C 152.765625 68.683594 152.792969 68.683594 152.8125 68.6875 C 153.144531 68.714844 153.476562 68.707031 153.808594 68.707031 L 162.402344 68.707031 C 162.429688 68.707031 162.457031 68.707031 162.480469 68.710938 L 162.480469 67.816406 C 162.480469 67.558594 162.445312 67.277344 162.65625 67.085938 C 162.835938 66.917969 163.074219 66.945312 163.300781 66.945312 L 167.792969 66.945312 C 167.839844 66.945312 167.886719 66.945312 167.929688 66.945312 C 168.222656 66.960938 168.425781 67.160156 168.460938 67.4375 C 168.464844 67.453125 168.464844 67.46875 168.464844 67.484375 C 168.464844 67.492188 168.464844 67.496094 168.464844 67.503906 L 168.464844 68.714844 C 168.492188 68.710938 168.519531 68.710938 168.542969 68.710938 L 168.59375 68.710938 C 169.578125 68.691406 170.558594 68.710938 171.539062 68.710938 L 177.660156 68.710938 C 177.820312 68.710938 177.972656 68.703125 178.132812 68.6875 C 178.164062 68.6875 178.195312 68.683594 178.226562 68.679688 C 178.265625 68.671875 178.304688 68.667969 178.34375 68.660156 C 178.472656 68.632812 178.605469 68.609375 178.734375 68.570312 C 178.867188 68.539062 178.992188 68.496094 179.117188 68.453125 C 179.175781 68.429688 179.234375 68.40625 179.292969 68.386719 C 179.523438 68.277344 179.742188 68.164062 179.953125 68.023438 C 180.023438 67.980469 180.089844 67.9375 180.15625 67.886719 C 180.175781 67.871094 180.234375 67.828125 180.261719 67.808594 C 180.261719 67.808594 180.265625 67.804688 180.265625 67.804688 C 180.269531 67.800781 180.277344 67.796875 180.277344 67.792969 C 180.328125 67.753906 180.375 67.710938 180.425781 67.667969 C 180.542969 67.566406 180.65625 67.453125 180.765625 67.335938 C 180.835938 67.261719 180.902344 67.1875 180.96875 67.105469 C 180.96875 67.097656 180.976562 67.09375 180.980469 67.085938 C 181.011719 67.039062 181.050781 66.988281 181.085938 66.945312 C 181.15625 66.84375 181.222656 66.742188 181.28125 66.636719 C 181.292969 66.613281 181.308594 66.589844 181.320312 66.574219 C 181.375 66.472656 181.429688 66.371094 181.480469 66.269531 C 181.5 66.21875 181.527344 66.167969 181.550781 66.121094 C 181.640625 65.875 181.722656 65.625 181.78125 65.367188 C 181.796875 65.285156 181.8125 65.199219 181.828125 65.117188 C 181.828125 65.117188 181.828125 65.113281 181.828125 65.113281 C 181.828125 65.113281 181.828125 65.109375 181.828125 65.109375 C 181.828125 65.105469 181.828125 65.101562 181.828125 65.097656 C 181.828125 65.09375 181.828125 65.09375 181.832031 65.089844 C 181.835938 65.050781 181.84375 65.003906 181.847656 64.972656 C 181.855469 64.90625 181.859375 64.835938 181.863281 64.769531 C 181.867188 64.660156 181.867188 64.554688 181.871094 64.445312 L 181.871094 63.710938 C 181.867188 63.492188 181.863281 63.296875 181.863281 63.09375 Z M 170.007812 57.160156 C 170.007812 57.164062 170.007812 57.167969 170.011719 57.167969 C 170.011719 57.167969 170.011719 57.171875 170.011719 57.171875 C 170.015625 57.191406 170.019531 57.203125 170.011719 57.183594 C 170.007812 57.1875 170 57.179688 169.996094 57.171875 C 170.015625 58.136719 170.007812 59.101562 170 60.070312 L 160.929688 60.070312 L 160.929688 57.371094 C 160.929688 57.304688 160.929688 57.238281 160.929688 57.175781 C 160.917969 57.191406 160.910156 57.195312 160.90625 57.191406 C 160.898438 57.203125 160.898438 57.179688 160.902344 57.152344 C 160.886719 57.175781 160.875 57.179688 160.902344 57.148438 C 160.902344 57.132812 160.90625 57.121094 160.910156 57.105469 C 160.910156 57.105469 160.910156 57.105469 160.90625 57.105469 C 160.90625 57.105469 160.90625 57.105469 160.910156 57.105469 C 160.914062 57.097656 160.914062 57.085938 160.917969 57.078125 C 160.890625 57.078125 160.898438 57.074219 160.921875 57.070312 C 160.925781 57.050781 160.933594 57.042969 160.933594 57.066406 C 160.941406 57.066406 160.949219 57.0625 160.960938 57.0625 C 160.960938 57.058594 160.960938 57.058594 160.960938 57.054688 C 160.960938 57.054688 160.960938 57.058594 160.960938 57.058594 C 160.972656 57.054688 160.984375 57.054688 161 57.050781 C 161.015625 57.035156 161.023438 57.03125 161.027344 57.027344 C 161.023438 57.03125 161.015625 57.039062 161.003906 57.050781 C 161.035156 57.046875 161.054688 57.046875 161.042969 57.054688 C 161.046875 57.058594 161.042969 57.066406 161.03125 57.078125 C 161.058594 57.078125 161.089844 57.078125 161.117188 57.078125 L 169.585938 57.078125 C 169.699219 57.078125 169.804688 57.074219 169.917969 57.078125 C 169.910156 57.074219 169.90625 57.074219 169.902344 57.070312 C 169.878906 57.054688 169.882812 57.050781 169.902344 57.046875 C 169.890625 57.039062 169.894531 57.039062 169.90625 57.046875 C 169.910156 57.046875 169.917969 57.046875 169.921875 57.046875 C 169.90625 57.035156 169.898438 57.027344 169.894531 57.023438 C 169.894531 57.023438 169.90625 57.03125 169.925781 57.046875 C 169.941406 57.046875 169.953125 57.050781 169.96875 57.050781 C 169.976562 57.050781 169.980469 57.054688 169.988281 57.054688 C 169.988281 57.046875 169.988281 57.042969 169.992188 57.042969 C 169.992188 57.042969 169.996094 57.046875 169.996094 57.054688 C 170.027344 57.0625 170.042969 57.070312 169.996094 57.074219 C 169.996094 57.078125 169.996094 57.082031 169.996094 57.089844 C 170.007812 57.09375 170.015625 57.097656 170.019531 57.097656 C 170.015625 57.097656 170.003906 57.097656 169.996094 57.09375 L 169.996094 57.097656 C 170 57.101562 170.007812 57.105469 170.015625 57.113281 C 170.011719 57.113281 170.007812 57.109375 170 57.105469 C 170 57.113281 170.003906 57.117188 170.003906 57.125 C 170.015625 57.140625 170.027344 57.152344 170.039062 57.160156 C 170.027344 57.152344 170.019531 57.144531 170.007812 57.136719 C 170.007812 57.152344 170.007812 57.152344 170.007812 57.160156 Z M 170.007812 57.160156 " fill-opacity="1" fill-rule="nonzero"/></g><path fill="#ffffff" d="M 376.527344 43.726562 C 376.527344 43.726562 376.300781 43.953125 376.167969 44.085938 C 375.808594 44.402344 375.269531 44.898438 375.222656 45.257812 C 375.179688 45.75 375.3125 46.378906 375.492188 46.964844 C 375.582031 47.367188 375.671875 47.773438 375.71875 48.132812 C 375.851562 49.164062 375.898438 50.242188 375.941406 51.277344 C 375.941406 51.367188 375.941406 51.457031 375.941406 51.546875 L 375.941406 51.816406 L 375.71875 52.039062 C 373.964844 52.804688 372.214844 53.566406 370.460938 54.375 L 369.652344 54.734375 C 367.585938 59.410156 365.746094 64.574219 364.082031 70.503906 C 369.921875 67 376.167969 63.363281 382.683594 60.578125 C 386.546875 58.914062 389.78125 57.878906 392.882812 57.296875 C 395.039062 56.890625 396.789062 56.847656 398.363281 57.117188 C 399.171875 57.25 399.933594 57.476562 400.5625 57.746094 C 400.699219 57.789062 400.832031 57.878906 401.011719 58.015625 C 399.753906 55.769531 397.914062 53.476562 395.441406 50.960938 C 393.824219 49.34375 391.890625 48.582031 389.332031 48.582031 C 388.792969 48.582031 388.207031 48.582031 387.625 48.671875 C 387.398438 48.671875 387.128906 48.714844 386.90625 48.761719 L 386.1875 48.851562 L 386.097656 48.535156 C 386.097656 48.535156 386.007812 48.3125 386.007812 48.175781 C 385.378906 45.078125 383.984375 41.300781 381.15625 41.300781 C 380.480469 41.300781 379.71875 41.527344 378.910156 41.929688 C 378.097656 42.335938 377.335938 42.964844 376.570312 43.726562 Z M 376.527344 43.726562 " fill-opacity="1" fill-rule="nonzero"/><path fill="#ffffff" d="M 400.203125 62.015625 C 399.980469 61.296875 399.484375 60.757812 398.765625 60.398438 C 397.148438 59.589844 394.722656 59.5 392.253906 60.082031 C 392.074219 60.398438 391.847656 60.710938 391.625 61.027344 C 391.488281 61.207031 391.355469 61.386719 391.265625 61.566406 C 394.363281 62.644531 397.238281 63.945312 399.84375 65.519531 C 400.382812 64.261719 400.5625 63.003906 400.203125 62.015625 Z M 400.203125 62.015625 " fill-opacity="1" fill-rule="nonzero"/><g clip-path="url(#f30cd97141)"><path fill="#ffffff" d="M 357.613281 107.886719 C 356.894531 104.292969 356.847656 100.5625 356.9375 97.371094 C 357.074219 90.003906 358.105469 82.457031 360.039062 74.863281 C 362.148438 66.460938 364.800781 58.824219 367.902344 52.128906 C 370.101562 47.367188 373.695312 39.550781 380.167969 37.976562 C 377.785156 37.167969 375.359375 36.71875 373.246094 36.359375 L 372.707031 36.269531 C 370.730469 35.957031 368.621094 35.730469 367.09375 36.269531 C 365.339844 36.945312 363.8125 38.472656 362.6875 39.730469 C 361.476562 41.078125 360.351562 42.605469 359.183594 44.402344 L 359.003906 44.71875 L 358.421875 44.359375 C 355.996094 42.652344 352.445312 40.402344 349.523438 40.402344 C 348.535156 40.402344 347.683594 40.671875 347.007812 41.167969 C 344.898438 42.742188 345.03125 46.378906 345.839844 49.300781 C 347.277344 49.929688 348.714844 50.78125 350.289062 51.769531 C 350.421875 51.859375 350.738281 52.085938 351.097656 52.398438 C 351.457031 52.714844 351.90625 53.027344 352.3125 53.34375 L 352.492188 53.476562 C 352.761719 53.65625 352.941406 53.792969 353.121094 53.835938 L 354.109375 54.464844 L 353.882812 54.960938 C 353.660156 55.453125 353.480469 55.992188 353.253906 56.488281 L 353.164062 56.714844 L 351.726562 56.714844 C 350.738281 56.714844 349.703125 56.714844 348.714844 56.714844 C 349.433594 58.105469 350.0625 59.273438 350.648438 60.308594 L 350.738281 60.441406 L 351.414062 61.699219 L 351.414062 61.835938 C 351.140625 62.554688 350.917969 63.316406 350.691406 64.035156 L 350.511719 64.664062 L 349.882812 63.945312 C 346.964844 59.230469 344.988281 55.273438 343.683594 51.457031 C 342.113281 46.828125 341.886719 43.28125 343.101562 40.628906 C 340.226562 42.5625 337.304688 45.390625 335.148438 48.402344 C 333.53125 50.648438 333.304688 53.746094 334.519531 58.105469 L 334.609375 58.464844 L 333.710938 58.734375 C 331.957031 59.320312 328.949219 60.578125 328.273438 62.507812 C 327.960938 63.363281 328.183594 64.304688 328.8125 65.339844 C 329.667969 66.597656 330.835938 67.40625 332.09375 68.304688 L 332.855469 68.84375 C 333.261719 69.113281 333.621094 69.023438 334.160156 68.84375 C 334.339844 68.753906 334.519531 68.707031 334.742188 68.664062 C 335.597656 68.4375 336.449219 68.214844 337.304688 68.035156 L 337.304688 67.945312 L 338.382812 67.898438 L 338.519531 68.125 C 339.011719 69.066406 339.507812 69.96875 340.046875 70.910156 C 340.226562 71.179688 340.808594 72.167969 341.617188 73.425781 L 341.796875 73.695312 L 340.449219 75 L 339.820312 74.683594 C 335.148438 73.203125 327.421875 70.6875 325.21875 65.113281 C 324.726562 66.640625 324.726562 68.347656 324.726562 69.832031 L 324.726562 70.867188 C 324.726562 72.347656 324.726562 73.875 324.90625 75.359375 C 325.445312 78.726562 328.632812 80.660156 331.464844 82.367188 L 332.046875 82.726562 C 332.046875 82.726562 332.273438 82.859375 332.363281 82.949219 L 332.675781 83.175781 L 332.453125 83.488281 C 331.417969 84.75 330.160156 86.457031 329.21875 88.296875 C 327.871094 91.082031 329.128906 93.867188 330.519531 96.25 C 331.734375 98.273438 332.945312 100.203125 334.472656 101.777344 C 334.203125 100.921875 334.25 100.023438 334.609375 98.855469 C 335.058594 97.597656 335.6875 96.382812 336.675781 94.8125 C 338.429688 92.027344 340.628906 89.554688 342.742188 87.308594 C 342.964844 87.085938 343.28125 86.816406 343.640625 86.5 C 344.042969 86.140625 344.492188 85.78125 344.808594 85.378906 L 346.378906 83.984375 L 346.289062 84.929688 C 346.019531 87.535156 345.886719 90.183594 345.839844 92.878906 L 345.839844 93.148438 L 345.257812 93.328125 L 345.121094 93.328125 C 344.402344 93.554688 343.863281 93.734375 343.550781 93.824219 L 343.191406 93.957031 C 341.933594 94.316406 340.808594 94.585938 339.730469 94.8125 C 337.800781 97.371094 336.945312 99.441406 337.257812 100.832031 C 337.394531 101.507812 337.800781 102 338.429688 102.359375 C 339.28125 102.855469 340.40625 103.078125 341.753906 103.078125 C 343.101562 103.078125 344.359375 102.855469 345.257812 102.675781 L 345.617188 102.585938 L 346.425781 102.539062 L 346.425781 102.898438 C 346.875 106.042969 347.636719 109.1875 350.46875 110.894531 C 352.265625 111.976562 354.242188 112.605469 356.625 113.324219 C 358.0625 113.773438 359.363281 114.132812 360.710938 114.355469 C 358.914062 112.875 358.152344 110.042969 357.703125 107.839844 Z M 357.613281 107.886719 " fill-opacity="1" fill-rule="nonzero"/></g><path fill="#ffffff" d="M 372.753906 77.648438 C 372.753906 77.648438 373.15625 77.648438 373.382812 77.648438 C 373.785156 77.648438 374.234375 77.648438 374.640625 77.648438 L 377.425781 77.648438 C 377.695312 77.648438 377.917969 77.648438 378.097656 77.648438 C 379.359375 77.605469 380.527344 77.605469 381.695312 77.558594 L 383.761719 77.558594 C 384.929688 77.46875 386.277344 77.425781 387.625 77.335938 C 387.308594 76.617188 386.816406 75.898438 386.367188 75.179688 C 386.140625 74.863281 385.960938 74.550781 385.738281 74.234375 C 385.0625 73.15625 384.390625 72.125 383.714844 71.046875 C 382.1875 68.753906 380.707031 66.6875 379.222656 64.753906 C 376.347656 66.148438 373.335938 67.765625 369.789062 69.832031 C 370.238281 70.460938 370.6875 71.046875 371.136719 71.628906 C 371.898438 72.617188 372.617188 73.605469 373.335938 74.59375 L 373.425781 74.730469 L 373.023438 76.480469 L 372.886719 77.066406 C 372.84375 77.246094 372.796875 77.425781 372.753906 77.605469 Z M 372.753906 77.648438 " fill-opacity="1" fill-rule="nonzero"/><path fill="#ffffff" d="M 390.050781 77.15625 L 390.140625 77.15625 C 390.140625 77.15625 390.8125 76.929688 391.53125 76.167969 L 392.925781 74.640625 L 393.195312 74.773438 C 393.601562 74.953125 394.050781 75.179688 394.453125 75.402344 C 394.8125 75.582031 395.171875 75.761719 395.578125 75.941406 C 395.890625 76.078125 396.789062 75.71875 397.375 75.492188 C 397.554688 75.402344 397.734375 75.359375 397.824219 75.3125 C 399.214844 74.773438 400.742188 74.101562 401.371094 72.886719 C 402.179688 71.316406 400.878906 69.699219 400.472656 69.25 C 398.09375 66.640625 394.410156 65.023438 391.171875 63.765625 C 390.183594 63.40625 389.195312 63.046875 388.207031 62.734375 C 388.027344 62.6875 387.804688 62.597656 387.578125 62.464844 C 387.085938 62.238281 386.410156 61.96875 386.007812 61.96875 C 385.917969 61.96875 385.871094 61.96875 385.828125 61.96875 C 384.03125 62.6875 382.457031 63.363281 381.019531 64.035156 C 381.425781 64.84375 382.144531 65.652344 382.816406 66.460938 C 383.222656 66.957031 383.625 67.40625 383.984375 67.898438 C 385.019531 69.339844 386.097656 70.867188 387.21875 72.574219 L 388.523438 74.773438 C 388.972656 75.628906 389.421875 76.480469 390.050781 77.15625 Z M 390.050781 77.15625 " fill-opacity="1" fill-rule="nonzero"/><path fill="#ffffff" d="M 398.046875 78.007812 C 395.082031 78.996094 391.757812 79.625 387.308594 80.074219 C 380.078125 80.792969 372.347656 80.660156 364.574219 79.671875 C 367.855469 83.445312 371.40625 86.996094 375.089844 90.230469 L 375.492188 90.632812 C 375.808594 90.949219 376.167969 91.261719 376.527344 91.488281 L 378.097656 92.746094 C 378.097656 92.746094 378.503906 93.105469 378.730469 93.285156 C 378.820312 93.058594 378.910156 92.835938 379 92.519531 C 379.132812 92.160156 379.222656 91.890625 379.3125 91.667969 L 379.402344 91.441406 L 380.257812 91.441406 C 380.796875 91.351562 381.335938 91.351562 381.917969 91.308594 L 383.085938 91.21875 L 383.175781 91.488281 C 383.402344 92.070312 383.671875 92.65625 383.804688 92.96875 L 383.894531 93.195312 C 384.433594 94.542969 384.972656 96.027344 385.332031 97.644531 C 386.769531 98.40625 388.746094 99.394531 390.542969 99.394531 C 391.039062 99.394531 391.488281 99.304688 391.9375 99.171875 C 393.960938 98.496094 394.09375 95.621094 394.003906 94.453125 C 393.960938 93.285156 393.824219 92.25 393.601562 91.351562 C 393.511719 90.949219 393.421875 90.542969 393.332031 90.230469 L 393.195312 89.824219 L 393.601562 89.734375 C 394.722656 89.464844 395.710938 89.242188 396.566406 88.972656 L 396.746094 88.972656 C 398.585938 88.34375 400.652344 87.714844 401.777344 86.140625 C 403.035156 84.34375 403.4375 81.917969 403.796875 79.582031 C 404.066406 77.785156 404.15625 75.988281 404.066406 74.28125 C 402.855469 76.390625 399.890625 77.378906 398.09375 78.007812 Z M 398.046875 78.007812 " fill-opacity="1" fill-rule="nonzero"/><path fill="#ffffff" d="M 385.109375 100.652344 C 382.324219 99.351562 379.492188 97.597656 376.480469 95.261719 C 373.605469 93.058594 370.777344 90.589844 368.125 87.9375 C 366.867188 86.679688 365.609375 85.378906 364.394531 83.984375 C 364.304688 83.894531 364.125 83.625 363.855469 83.308594 C 363.40625 82.726562 362.375 81.421875 361.789062 80.792969 C 361.027344 84.929688 360.621094 88.972656 360.21875 92.789062 L 360.21875 93.015625 L 359.859375 97.507812 L 360.800781 97.101562 L 361.117188 97.417969 C 362.015625 98.226562 362.914062 99.035156 363.8125 99.800781 L 364.035156 99.980469 L 363.316406 101.238281 C 362.777344 102.136719 362.238281 102.988281 361.65625 103.84375 C 361.519531 104.023438 361.339844 104.246094 361.117188 104.472656 C 360.710938 104.921875 360.171875 105.503906 360.21875 105.910156 C 360.351562 107.527344 360.980469 109.773438 362.015625 111.253906 C 362.6875 112.199219 363.453125 112.648438 364.351562 112.648438 C 367.046875 112.648438 370.28125 108.558594 371.675781 106.671875 L 372.214844 105.953125 L 372.484375 106.132812 C 374.863281 107.707031 378.007812 109.546875 380.929688 109.546875 C 381.738281 109.546875 382.457031 109.414062 383.175781 109.144531 C 387.128906 107.660156 390.589844 104.425781 392.609375 102.226562 C 392.117188 102.359375 391.578125 102.449219 391.039062 102.449219 C 388.972656 102.449219 386.90625 101.460938 385.0625 100.609375 Z M 385.109375 100.652344 " fill-opacity="1" fill-rule="nonzero"/><path fill="#ffffff" d="M 268.5 9.101562 C 267.84375 9.101562 267.363281 9.640625 267.363281 10.242188 L 267.363281 151.734375 C 267.363281 152.394531 267.902344 152.875 268.5 152.875 C 269.101562 152.875 269.640625 152.335938 269.640625 151.734375 L 269.640625 10.242188 C 269.640625 9.640625 269.160156 9.101562 268.5 9.101562 Z M 268.5 9.101562 " fill-opacity="1" fill-rule="nonzero"/><g fill="#ffffff" fill-opacity="1"><g transform="translate(119.953178, 134.304992)"><g><path d="M 4.15625 0 L 1.375 0 L 1.375 -13.5 L 4.15625 -13.5 Z M 4.15625 0 "/></g></g></g><g fill="#ffffff" fill-opacity="1"><g transform="translate(125.485206, 134.304992)"><g><path d="M 12.1875 0 L 9.40625 0 L 3.984375 -8.875 L 3.984375 0 L 1.203125 0 L 1.203125 -13.5 L 3.984375 -13.5 L 9.40625 -4.59375 L 9.40625 -13.5 L 12.1875 -13.5 Z M 12.1875 0 "/></g></g></g><g fill="#ffffff" fill-opacity="1"><g transform="translate(138.88439, 134.304992)"><g><path d="M 1.203125 0 L 1.203125 -13.5 L 5.359375 -13.5 C 6.546875 -13.5 7.609375 -13.226562 8.546875 -12.6875 C 9.484375 -12.15625 10.210938 -11.394531 10.734375 -10.40625 C 11.253906 -9.425781 11.515625 -8.304688 11.515625 -7.046875 L 11.515625 -6.4375 C 11.515625 -5.175781 11.253906 -4.054688 10.734375 -3.078125 C 10.222656 -2.109375 9.5 -1.351562 8.5625 -0.8125 C 7.625 -0.28125 6.566406 -0.0078125 5.390625 0 Z M 3.984375 -11.25 L 3.984375 -2.234375 L 5.328125 -2.234375 C 6.421875 -2.234375 7.253906 -2.585938 7.828125 -3.296875 C 8.398438 -4.003906 8.691406 -5.019531 8.703125 -6.34375 L 8.703125 -7.0625 C 8.703125 -8.4375 8.414062 -9.476562 7.84375 -10.1875 C 7.28125 -10.894531 6.453125 -11.25 5.359375 -11.25 Z M 3.984375 -11.25 "/></g></g></g><g fill="#ffffff" fill-opacity="1"><g transform="translate(151.21794, 134.304992)"><g><path d="M 11.421875 -13.5 L 11.421875 -4.609375 C 11.421875 -3.128906 10.957031 -1.957031 10.03125 -1.09375 C 9.113281 -0.238281 7.851562 0.1875 6.25 0.1875 C 4.675781 0.1875 3.425781 -0.226562 2.5 -1.0625 C 1.570312 -1.894531 1.097656 -3.039062 1.078125 -4.5 L 1.078125 -13.5 L 3.859375 -13.5 L 3.859375 -4.59375 C 3.859375 -3.707031 4.066406 -3.0625 4.484375 -2.65625 C 4.910156 -2.25 5.5 -2.046875 6.25 -2.046875 C 7.8125 -2.046875 8.601562 -2.867188 8.625 -4.515625 L 8.625 -13.5 Z M 11.421875 -13.5 "/></g></g></g><g fill="#ffffff" fill-opacity="1"><g transform="translate(163.709019, 134.304992)"><g><path d="M 8.203125 -3.546875 C 8.203125 -4.066406 8.015625 -4.46875 7.640625 -4.75 C 7.273438 -5.03125 6.609375 -5.328125 5.640625 -5.640625 C 4.679688 -5.953125 3.921875 -6.257812 3.359375 -6.5625 C 1.828125 -7.394531 1.0625 -8.507812 1.0625 -9.90625 C 1.0625 -10.632812 1.265625 -11.285156 1.671875 -11.859375 C 2.085938 -12.429688 2.675781 -12.878906 3.4375 -13.203125 C 4.207031 -13.523438 5.070312 -13.6875 6.03125 -13.6875 C 7 -13.6875 7.859375 -13.507812 8.609375 -13.15625 C 9.367188 -12.8125 9.957031 -12.316406 10.375 -11.671875 C 10.789062 -11.035156 11 -10.316406 11 -9.515625 L 8.21875 -9.515625 C 8.21875 -10.128906 8.019531 -10.609375 7.625 -10.953125 C 7.238281 -11.296875 6.691406 -11.46875 5.984375 -11.46875 C 5.304688 -11.46875 4.78125 -11.320312 4.40625 -11.03125 C 4.03125 -10.75 3.84375 -10.375 3.84375 -9.90625 C 3.84375 -9.457031 4.0625 -9.085938 4.5 -8.796875 C 4.9375 -8.503906 5.585938 -8.226562 6.453125 -7.96875 C 8.035156 -7.488281 9.1875 -6.894531 9.90625 -6.1875 C 10.632812 -5.488281 11 -4.613281 11 -3.5625 C 11 -2.394531 10.554688 -1.476562 9.671875 -0.8125 C 8.785156 -0.144531 7.59375 0.1875 6.09375 0.1875 C 5.0625 0.1875 4.117188 0 3.265625 -0.375 C 2.410156 -0.757812 1.757812 -1.28125 1.3125 -1.9375 C 0.863281 -2.601562 0.640625 -3.375 0.640625 -4.25 L 3.4375 -4.25 C 3.4375 -2.757812 4.320312 -2.015625 6.09375 -2.015625 C 6.757812 -2.015625 7.273438 -2.144531 7.640625 -2.40625 C 8.015625 -2.675781 8.203125 -3.054688 8.203125 -3.546875 Z M 8.203125 -3.546875 "/></g></g></g><g fill="#ffffff" fill-opacity="1"><g transform="translate(175.37539, 134.304992)"><g><path d="M 11.359375 -11.25 L 7.234375 -11.25 L 7.234375 0 L 4.453125 0 L 4.453125 -11.25 L 0.375 -11.25 L 0.375 -13.5 L 11.359375 -13.5 Z M 11.359375 -11.25 "/></g></g></g><g fill="#ffffff" fill-opacity="1"><g transform="translate(187.115892, 134.304992)"><g><path d="M 6.203125 -4.9375 L 3.984375 -4.9375 L 3.984375 0 L 1.203125 0 L 1.203125 -13.5 L 6.21875 -13.5 C 7.8125 -13.5 9.039062 -13.140625 9.90625 -12.421875 C 10.769531 -11.710938 11.203125 -10.710938 11.203125 -9.421875 C 11.203125 -8.492188 11.003906 -7.722656 10.609375 -7.109375 C 10.210938 -6.492188 9.609375 -6.003906 8.796875 -5.640625 L 11.71875 -0.125 L 11.71875 0 L 8.734375 0 Z M 3.984375 -7.1875 L 6.234375 -7.1875 C 6.929688 -7.1875 7.46875 -7.363281 7.84375 -7.71875 C 8.226562 -8.082031 8.421875 -8.578125 8.421875 -9.203125 C 8.421875 -9.835938 8.238281 -10.335938 7.875 -10.703125 C 7.519531 -11.066406 6.96875 -11.25 6.21875 -11.25 L 3.984375 -11.25 Z M 3.984375 -7.1875 "/></g></g></g><g fill="#ffffff" fill-opacity="1"><g transform="translate(199.227049, 134.304992)"><g><path d="M 5.859375 -7.421875 L 8.671875 -13.5 L 11.703125 -13.5 L 7.28125 -4.890625 L 7.28125 0 L 4.453125 0 L 4.453125 -4.890625 L 0.015625 -13.5 L 3.0625 -13.5 Z M 5.859375 -7.421875 "/></g></g></g><g fill="#ffffff" fill-opacity="1"><g transform="translate(116.755491, 147.881374)"><g><path d="M 1.828125 0 L 0.890625 0 L 0.890625 -7.09375 L 1.828125 -7.09375 Z M 1.828125 0 "/></g></g></g><g fill="#ffffff" fill-opacity="1"><g transform="translate(119.469831, 147.881374)"><g><path d="M 6.28125 0 L 5.34375 0 L 1.765625 -5.46875 L 1.765625 0 L 0.828125 0 L 0.828125 -7.09375 L 1.765625 -7.09375 L 5.34375 -1.609375 L 5.34375 -7.09375 L 6.28125 -7.09375 Z M 6.28125 0 "/></g></g></g><g fill="#ffffff" fill-opacity="1"><g transform="translate(126.584605, 147.881374)"><g><path d="M 5.734375 -6.328125 L 3.453125 -6.328125 L 3.453125 0 L 2.515625 0 L 2.515625 -6.328125 L 0.234375 -6.328125 L 0.234375 -7.09375 L 5.734375 -7.09375 Z M 5.734375 -6.328125 "/></g></g></g><g fill="#ffffff" fill-opacity="1"><g transform="translate(132.539573, 147.881374)"><g><path d="M 4.84375 -3.28125 L 1.765625 -3.28125 L 1.765625 -0.765625 L 5.328125 -0.765625 L 5.328125 0 L 0.828125 0 L 0.828125 -7.09375 L 5.28125 -7.09375 L 5.28125 -6.328125 L 1.765625 -6.328125 L 1.765625 -4.046875 L 4.84375 -4.046875 Z M 4.84375 -3.28125 "/></g></g></g><g fill="#ffffff" fill-opacity="1"><g transform="translate(138.2119, 147.881374)"><g><path d="M 3.421875 -2.875 L 1.765625 -2.875 L 1.765625 0 L 0.8125 0 L 0.8125 -7.09375 L 3.171875 -7.09375 C 3.972656 -7.09375 4.585938 -6.910156 5.015625 -6.546875 C 5.441406 -6.179688 5.65625 -5.65625 5.65625 -4.96875 C 5.65625 -4.519531 5.535156 -4.128906 5.296875 -3.796875 C 5.054688 -3.472656 4.726562 -3.234375 4.3125 -3.078125 L 5.96875 -0.0625 L 5.96875 0 L 4.96875 0 Z M 1.765625 -3.640625 L 3.203125 -3.640625 C 3.660156 -3.640625 4.023438 -3.757812 4.296875 -4 C 4.578125 -4.238281 4.71875 -4.5625 4.71875 -4.96875 C 4.71875 -5.40625 4.585938 -5.738281 4.328125 -5.96875 C 4.066406 -6.207031 3.6875 -6.328125 3.1875 -6.328125 L 1.765625 -6.328125 Z M 1.765625 -3.640625 "/></g></g></g><g fill="#ffffff" fill-opacity="1"><g transform="translate(144.356926, 147.881374)"><g><path d="M 6.28125 0 L 5.34375 0 L 1.765625 -5.46875 L 1.765625 0 L 0.828125 0 L 0.828125 -7.09375 L 1.765625 -7.09375 L 5.34375 -1.609375 L 5.34375 -7.09375 L 6.28125 -7.09375 Z M 6.28125 0 "/></g></g></g><g fill="#ffffff" fill-opacity="1"><g transform="translate(151.4717, 147.881374)"><g><path d="M 2.921875 -3.15625 C 2.117188 -3.394531 1.53125 -3.679688 1.15625 -4.015625 C 0.789062 -4.347656 0.609375 -4.765625 0.609375 -5.265625 C 0.609375 -5.816406 0.832031 -6.273438 1.28125 -6.640625 C 1.726562 -7.015625 2.3125 -7.203125 3.03125 -7.203125 C 3.519531 -7.203125 3.953125 -7.101562 4.328125 -6.90625 C 4.710938 -6.71875 5.007812 -6.457031 5.21875 -6.125 C 5.425781 -5.800781 5.53125 -5.441406 5.53125 -5.046875 L 4.59375 -5.046875 C 4.59375 -5.472656 4.453125 -5.804688 4.171875 -6.046875 C 3.898438 -6.296875 3.519531 -6.421875 3.03125 -6.421875 C 2.5625 -6.421875 2.195312 -6.316406 1.9375 -6.109375 C 1.6875 -5.910156 1.5625 -5.632812 1.5625 -5.28125 C 1.5625 -4.988281 1.679688 -4.738281 1.921875 -4.53125 C 2.171875 -4.332031 2.585938 -4.148438 3.171875 -3.984375 C 3.765625 -3.828125 4.226562 -3.644531 4.5625 -3.4375 C 4.894531 -3.238281 5.140625 -3.003906 5.296875 -2.734375 C 5.460938 -2.472656 5.546875 -2.160156 5.546875 -1.796875 C 5.546875 -1.222656 5.320312 -0.765625 4.875 -0.421875 C 4.425781 -0.078125 3.828125 0.09375 3.078125 0.09375 C 2.585938 0.09375 2.128906 0 1.703125 -0.1875 C 1.285156 -0.375 0.960938 -0.628906 0.734375 -0.953125 C 0.503906 -1.273438 0.390625 -1.644531 0.390625 -2.0625 L 1.328125 -2.0625 C 1.328125 -1.625 1.484375 -1.28125 1.796875 -1.03125 C 2.117188 -0.789062 2.546875 -0.671875 3.078125 -0.671875 C 3.566406 -0.671875 3.941406 -0.769531 4.203125 -0.96875 C 4.472656 -1.164062 4.609375 -1.4375 4.609375 -1.78125 C 4.609375 -2.132812 4.484375 -2.40625 4.234375 -2.59375 C 3.992188 -2.789062 3.554688 -2.976562 2.921875 -3.15625 Z M 2.921875 -3.15625 "/></g></g></g><g fill="#ffffff" fill-opacity="1"><g transform="translate(157.392562, 147.881374)"><g><path d="M 6.28125 0 L 5.34375 0 L 5.34375 -3.28125 L 1.765625 -3.28125 L 1.765625 0 L 0.828125 0 L 0.828125 -7.09375 L 1.765625 -7.09375 L 1.765625 -4.046875 L 5.34375 -4.046875 L 5.34375 -7.09375 L 6.28125 -7.09375 Z M 6.28125 0 "/></g></g></g><g fill="#ffffff" fill-opacity="1"><g transform="translate(164.507335, 147.881374)"><g><path d="M 1.828125 0 L 0.890625 0 L 0.890625 -7.09375 L 1.828125 -7.09375 Z M 1.828125 0 "/></g></g></g><g fill="#ffffff" fill-opacity="1"><g transform="translate(167.221676, 147.881374)"><g><path d="M 1.765625 -2.78125 L 1.765625 0 L 0.828125 0 L 0.828125 -7.09375 L 3.4375 -7.09375 C 4.21875 -7.09375 4.828125 -6.894531 5.265625 -6.5 C 5.703125 -6.101562 5.921875 -5.578125 5.921875 -4.921875 C 5.921875 -4.234375 5.707031 -3.703125 5.28125 -3.328125 C 4.851562 -2.960938 4.238281 -2.78125 3.4375 -2.78125 Z M 1.765625 -3.546875 L 3.4375 -3.546875 C 3.9375 -3.546875 4.320312 -3.660156 4.59375 -3.890625 C 4.863281 -4.128906 5 -4.472656 5 -4.921875 C 5 -5.335938 4.863281 -5.671875 4.59375 -5.921875 C 4.320312 -6.179688 3.957031 -6.316406 3.5 -6.328125 L 1.765625 -6.328125 Z M 1.765625 -3.546875 "/></g></g></g><g fill="#ffffff" fill-opacity="1"><g transform="translate(173.517763, 147.881374)"><g/></g></g><g fill="#ffffff" fill-opacity="1"><g transform="translate(175.988447, 147.881374)"><g><path d="M 2.921875 -3.15625 C 2.117188 -3.394531 1.53125 -3.679688 1.15625 -4.015625 C 0.789062 -4.347656 0.609375 -4.765625 0.609375 -5.265625 C 0.609375 -5.816406 0.832031 -6.273438 1.28125 -6.640625 C 1.726562 -7.015625 2.3125 -7.203125 3.03125 -7.203125 C 3.519531 -7.203125 3.953125 -7.101562 4.328125 -6.90625 C 4.710938 -6.71875 5.007812 -6.457031 5.21875 -6.125 C 5.425781 -5.800781 5.53125 -5.441406 5.53125 -5.046875 L 4.59375 -5.046875 C 4.59375 -5.472656 4.453125 -5.804688 4.171875 -6.046875 C 3.898438 -6.296875 3.519531 -6.421875 3.03125 -6.421875 C 2.5625 -6.421875 2.195312 -6.316406 1.9375 -6.109375 C 1.6875 -5.910156 1.5625 -5.632812 1.5625 -5.28125 C 1.5625 -4.988281 1.679688 -4.738281 1.921875 -4.53125 C 2.171875 -4.332031 2.585938 -4.148438 3.171875 -3.984375 C 3.765625 -3.828125 4.226562 -3.644531 4.5625 -3.4375 C 4.894531 -3.238281 5.140625 -3.003906 5.296875 -2.734375 C 5.460938 -2.472656 5.546875 -2.160156 5.546875 -1.796875 C 5.546875 -1.222656 5.320312 -0.765625 4.875 -0.421875 C 4.425781 -0.078125 3.828125 0.09375 3.078125 0.09375 C 2.585938 0.09375 2.128906 0 1.703125 -0.1875 C 1.285156 -0.375 0.960938 -0.628906 0.734375 -0.953125 C 0.503906 -1.273438 0.390625 -1.644531 0.390625 -2.0625 L 1.328125 -2.0625 C 1.328125 -1.625 1.484375 -1.28125 1.796875 -1.03125 C 2.117188 -0.789062 2.546875 -0.671875 3.078125 -0.671875 C 3.566406 -0.671875 3.941406 -0.769531 4.203125 -0.96875 C 4.472656 -1.164062 4.609375 -1.4375 4.609375 -1.78125 C 4.609375 -2.132812 4.484375 -2.40625 4.234375 -2.59375 C 3.992188 -2.789062 3.554688 -2.976562 2.921875 -3.15625 Z M 2.921875 -3.15625 "/></g></g></g><g fill="#ffffff" fill-opacity="1"><g transform="translate(181.909309, 147.881374)"><g><path d="M 2.984375 -3.53125 L 4.84375 -7.09375 L 5.90625 -7.09375 L 3.453125 -2.640625 L 3.453125 0 L 2.515625 0 L 2.515625 -2.640625 L 0.078125 -7.09375 L 1.140625 -7.09375 Z M 2.984375 -3.53125 "/></g></g></g><g fill="#ffffff" fill-opacity="1"><g transform="translate(187.903263, 147.881374)"><g><path d="M 2.921875 -3.15625 C 2.117188 -3.394531 1.53125 -3.679688 1.15625 -4.015625 C 0.789062 -4.347656 0.609375 -4.765625 0.609375 -5.265625 C 0.609375 -5.816406 0.832031 -6.273438 1.28125 -6.640625 C 1.726562 -7.015625 2.3125 -7.203125 3.03125 -7.203125 C 3.519531 -7.203125 3.953125 -7.101562 4.328125 -6.90625 C 4.710938 -6.71875 5.007812 -6.457031 5.21875 -6.125 C 5.425781 -5.800781 5.53125 -5.441406 5.53125 -5.046875 L 4.59375 -5.046875 C 4.59375 -5.472656 4.453125 -5.804688 4.171875 -6.046875 C 3.898438 -6.296875 3.519531 -6.421875 3.03125 -6.421875 C 2.5625 -6.421875 2.195312 -6.316406 1.9375 -6.109375 C 1.6875 -5.910156 1.5625 -5.632812 1.5625 -5.28125 C 1.5625 -4.988281 1.679688 -4.738281 1.921875 -4.53125 C 2.171875 -4.332031 2.585938 -4.148438 3.171875 -3.984375 C 3.765625 -3.828125 4.226562 -3.644531 4.5625 -3.4375 C 4.894531 -3.238281 5.140625 -3.003906 5.296875 -2.734375 C 5.460938 -2.472656 5.546875 -2.160156 5.546875 -1.796875 C 5.546875 -1.222656 5.320312 -0.765625 4.875 -0.421875 C 4.425781 -0.078125 3.828125 0.09375 3.078125 0.09375 C 2.585938 0.09375 2.128906 0 1.703125 -0.1875 C 1.285156 -0.375 0.960938 -0.628906 0.734375 -0.953125 C 0.503906 -1.273438 0.390625 -1.644531 0.390625 -2.0625 L 1.328125 -2.0625 C 1.328125 -1.625 1.484375 -1.28125 1.796875 -1.03125 C 2.117188 -0.789062 2.546875 -0.671875 3.078125 -0.671875 C 3.566406 -0.671875 3.941406 -0.769531 4.203125 -0.96875 C 4.472656 -1.164062 4.609375 -1.4375 4.609375 -1.78125 C 4.609375 -2.132812 4.484375 -2.40625 4.234375 -2.59375 C 3.992188 -2.789062 3.554688 -2.976562 2.921875 -3.15625 Z M 2.921875 -3.15625 "/></g></g></g><g fill="#ffffff" fill-opacity="1"><g transform="translate(193.824125, 147.881374)"><g><path d="M 5.734375 -6.328125 L 3.453125 -6.328125 L 3.453125 0 L 2.515625 0 L 2.515625 -6.328125 L 0.234375 -6.328125 L 0.234375 -7.09375 L 5.734375 -7.09375 Z M 5.734375 -6.328125 "/></g></g></g><g fill="#ffffff" fill-opacity="1"><g transform="translate(199.779093, 147.881374)"><g><path d="M 4.84375 -3.28125 L 1.765625 -3.28125 L 1.765625 -0.765625 L 5.328125 -0.765625 L 5.328125 0 L 0.828125 0 L 0.828125 -7.09375 L 5.28125 -7.09375 L 5.28125 -6.328125 L 1.765625 -6.328125 L 1.765625 -4.046875 L 4.84375 -4.046875 Z M 4.84375 -3.28125 "/></g></g></g><g fill="#ffffff" fill-opacity="1"><g transform="translate(205.451419, 147.881374)"><g><path d="M 2.03125 -7.09375 L 4.359375 -1.3125 L 6.671875 -7.09375 L 7.890625 -7.09375 L 7.890625 0 L 6.953125 0 L 6.953125 -2.765625 L 7.046875 -5.75 L 4.703125 0 L 4 0 L 1.671875 -5.734375 L 1.765625 -2.765625 L 1.765625 0 L 0.828125 0 L 0.828125 -7.09375 Z M 2.03125 -7.09375 "/></g></g></g><g fill="#ffffff" fill-opacity="1"><g transform="translate(329.936371, 134.304992)"><g><path d="M 11.71875 -3.890625 L 13.53125 -13.5 L 16.3125 -13.5 L 13.3125 0 L 10.515625 0 L 8.3125 -9.03125 L 6.125 0 L 3.3125 0 L 0.328125 -13.5 L 3.09375 -13.5 L 4.921875 -3.90625 L 7.140625 -13.5 L 9.5 -13.5 Z M 11.71875 -3.890625 "/></g></g></g><g fill="#ffffff" fill-opacity="1"><g transform="translate(346.532455, 134.304992)"><g><path d="M 4.15625 0 L 1.375 0 L 1.375 -13.5 L 4.15625 -13.5 Z M 4.15625 0 "/></g></g></g><g fill="#ffffff" fill-opacity="1"><g transform="translate(352.064484, 134.304992)"><g><path d="M 12.1875 0 L 9.40625 0 L 3.984375 -8.875 L 3.984375 0 L 1.203125 0 L 1.203125 -13.5 L 3.984375 -13.5 L 9.40625 -4.59375 L 9.40625 -13.5 L 12.1875 -13.5 Z M 12.1875 0 "/></g></g></g><g fill="#ffffff" fill-opacity="1"><g transform="translate(365.463667, 134.304992)"><g><path d="M 11.359375 -11.25 L 7.234375 -11.25 L 7.234375 0 L 4.453125 0 L 4.453125 -11.25 L 0.375 -11.25 L 0.375 -13.5 L 11.359375 -13.5 Z M 11.359375 -11.25 "/></g></g></g><g fill="#ffffff" fill-opacity="1"><g transform="translate(377.204169, 134.304992)"><g><path d="M 9.328125 -5.84375 L 3.984375 -5.84375 L 3.984375 -2.234375 L 10.25 -2.234375 L 10.25 0 L 1.203125 0 L 1.203125 -13.5 L 10.234375 -13.5 L 10.234375 -11.25 L 3.984375 -11.25 L 3.984375 -8.03125 L 9.328125 -8.03125 Z M 9.328125 -5.84375 "/></g></g></g><g fill="#ffffff" fill-opacity="1"><g transform="translate(387.879038, 134.304992)"><g><path d="M 11.796875 -4.5 C 11.691406 -3.039062 11.15625 -1.894531 10.1875 -1.0625 C 9.21875 -0.226562 7.945312 0.1875 6.375 0.1875 C 4.632812 0.1875 3.269531 -0.394531 2.28125 -1.5625 C 1.289062 -2.726562 0.796875 -4.328125 0.796875 -6.359375 L 0.796875 -7.1875 C 0.796875 -8.476562 1.023438 -9.617188 1.484375 -10.609375 C 1.941406 -11.597656 2.59375 -12.359375 3.4375 -12.890625 C 4.289062 -13.421875 5.28125 -13.6875 6.40625 -13.6875 C 7.957031 -13.6875 9.207031 -13.265625 10.15625 -12.421875 C 11.113281 -11.585938 11.664062 -10.421875 11.8125 -8.921875 L 9.03125 -8.921875 C 8.96875 -9.785156 8.726562 -10.414062 8.3125 -10.8125 C 7.894531 -11.207031 7.257812 -11.40625 6.40625 -11.40625 C 5.476562 -11.40625 4.785156 -11.070312 4.328125 -10.40625 C 3.867188 -9.738281 3.628906 -8.707031 3.609375 -7.3125 L 3.609375 -6.296875 C 3.609375 -4.835938 3.828125 -3.769531 4.265625 -3.09375 C 4.710938 -2.414062 5.414062 -2.078125 6.375 -2.078125 C 7.226562 -2.078125 7.863281 -2.273438 8.28125 -2.671875 C 8.707031 -3.066406 8.953125 -3.675781 9.015625 -4.5 Z M 11.796875 -4.5 "/></g></g></g><g fill="#ffffff" fill-opacity="1"><g transform="translate(331.208128, 147.881374)"><g><path d="M 6.28125 0 L 5.34375 0 L 1.765625 -5.46875 L 1.765625 0 L 0.828125 0 L 0.828125 -7.09375 L 1.765625 -7.09375 L 5.34375 -1.609375 L 5.34375 -7.09375 L 6.28125 -7.09375 Z M 6.28125 0 "/></g></g></g><g fill="#ffffff" fill-opacity="1"><g transform="translate(338.322901, 147.881374)"><g><path d="M 4.84375 -3.28125 L 1.765625 -3.28125 L 1.765625 -0.765625 L 5.328125 -0.765625 L 5.328125 0 L 0.828125 0 L 0.828125 -7.09375 L 5.28125 -7.09375 L 5.28125 -6.328125 L 1.765625 -6.328125 L 1.765625 -4.046875 L 4.84375 -4.046875 Z M 4.84375 -3.28125 "/></g></g></g><g fill="#ffffff" fill-opacity="1"><g transform="translate(343.995228, 147.881374)"><g><path d="M 2.359375 -2.234375 L 2.484375 -1.296875 L 2.6875 -2.140625 L 4.09375 -7.09375 L 4.890625 -7.09375 L 6.25 -2.140625 L 6.453125 -1.28125 L 6.59375 -2.25 L 7.703125 -7.09375 L 8.640625 -7.09375 L 6.921875 0 L 6.0625 0 L 4.609375 -5.171875 L 4.5 -5.71875 L 4.375 -5.171875 L 2.859375 0 L 2.015625 0 L 0.296875 -7.09375 L 1.234375 -7.09375 Z M 2.359375 -2.234375 "/></g></g></g><g fill="#ffffff" fill-opacity="1"><g transform="translate(352.849716, 147.881374)"><g/></g></g><g fill="#ffffff" fill-opacity="1"><g transform="translate(355.3204, 147.881374)"><g><path d="M 1.53125 -0.765625 L 5.59375 -0.765625 L 5.59375 0 L 0.421875 0 L 0.421875 -0.703125 L 4.3125 -6.328125 L 0.484375 -6.328125 L 0.484375 -7.09375 L 5.4375 -7.09375 L 5.4375 -6.40625 Z M 1.53125 -0.765625 "/></g></g></g><g fill="#ffffff" fill-opacity="1"><g transform="translate(361.29486, 147.881374)"><g><path d="M 4.84375 -3.28125 L 1.765625 -3.28125 L 1.765625 -0.765625 L 5.328125 -0.765625 L 5.328125 0 L 0.828125 0 L 0.828125 -7.09375 L 5.28125 -7.09375 L 5.28125 -6.328125 L 1.765625 -6.328125 L 1.765625 -4.046875 L 4.84375 -4.046875 Z M 4.84375 -3.28125 "/></g></g></g><g fill="#ffffff" fill-opacity="1"><g transform="translate(366.967187, 147.881374)"><g><path d="M 4.75 -1.859375 L 1.765625 -1.859375 L 1.109375 0 L 0.140625 0 L 2.84375 -7.09375 L 3.671875 -7.09375 L 6.375 0 L 5.421875 0 Z M 2.046875 -2.625 L 4.46875 -2.625 L 3.25 -5.9375 Z M 2.046875 -2.625 "/></g></g></g><g fill="#ffffff" fill-opacity="1"><g transform="translate(373.477692, 147.881374)"><g><path d="M 1.765625 -0.765625 L 5.125 -0.765625 L 5.125 0 L 0.828125 0 L 0.828125 -7.09375 L 1.765625 -7.09375 Z M 1.765625 -0.765625 "/></g></g></g><g fill="#ffffff" fill-opacity="1"><g transform="translate(378.847884, 147.881374)"><g><path d="M 4.75 -1.859375 L 1.765625 -1.859375 L 1.109375 0 L 0.140625 0 L 2.84375 -7.09375 L 3.671875 -7.09375 L 6.375 0 L 5.421875 0 Z M 2.046875 -2.625 L 4.46875 -2.625 L 3.25 -5.9375 Z M 2.046875 -2.625 "/></g></g></g><g fill="#ffffff" fill-opacity="1"><g transform="translate(385.35839, 147.881374)"><g><path d="M 6.28125 0 L 5.34375 0 L 1.765625 -5.46875 L 1.765625 0 L 0.828125 0 L 0.828125 -7.09375 L 1.765625 -7.09375 L 5.34375 -1.609375 L 5.34375 -7.09375 L 6.28125 -7.09375 Z M 6.28125 0 "/></g></g></g><g fill="#ffffff" fill-opacity="1"><g transform="translate(392.473163, 147.881374)"><g><path d="M 0.828125 0 L 0.828125 -7.09375 L 2.828125 -7.09375 C 3.441406 -7.09375 3.984375 -6.957031 4.453125 -6.6875 C 4.929688 -6.414062 5.300781 -6.023438 5.5625 -5.515625 C 5.820312 -5.015625 5.953125 -4.4375 5.953125 -3.78125 L 5.953125 -3.328125 C 5.953125 -2.660156 5.820312 -2.070312 5.5625 -1.5625 C 5.3125 -1.0625 4.945312 -0.675781 4.46875 -0.40625 C 3.988281 -0.144531 3.425781 -0.0078125 2.78125 0 Z M 1.765625 -6.328125 L 1.765625 -0.765625 L 2.75 -0.765625 C 3.46875 -0.765625 4.023438 -0.988281 4.421875 -1.4375 C 4.828125 -1.882812 5.03125 -2.523438 5.03125 -3.359375 L 5.03125 -3.765625 C 5.03125 -4.578125 4.835938 -5.203125 4.453125 -5.640625 C 4.078125 -6.085938 3.546875 -6.316406 2.859375 -6.328125 Z M 1.765625 -6.328125 "/></g></g></g></svg>