<svg xmlns="http://www.w3.org/2000/svg" xmlns:xlink="http://www.w3.org/1999/xlink" width="620" zoomAndPan="magnify" viewBox="0 0 464.87997 225.75" height="301" preserveAspectRatio="xMidYMid meet" version="1.0"><defs><g/><clipPath id="c4822097a5"><path d="M 175.84375 47.765625 L 287.882812 47.765625 L 287.882812 131.558594 L 175.84375 131.558594 Z M 175.84375 47.765625 " clip-rule="nonzero"/></clipPath><clipPath id="e3c6af85e8"><path d="M 185.417969 106.707031 L 288.757812 106.707031 L 288.757812 162.320312 L 185.417969 162.320312 Z M 185.417969 106.707031 " clip-rule="nonzero"/></clipPath><clipPath id="7c19bc5618"><path d="M 207 10 L 297 10 L 297 62 L 207 62 Z M 207 10 " clip-rule="nonzero"/></clipPath><clipPath id="d8a9011723"><path d="M 212.4375 0 L 301.199219 21.792969 L 290.480469 65.449219 L 201.71875 43.652344 Z M 212.4375 0 " clip-rule="nonzero"/></clipPath><clipPath id="2fa16ac560"><path d="M 212.4375 0 L 301.199219 21.792969 L 290.480469 65.449219 L 201.71875 43.652344 Z M 212.4375 0 " clip-rule="nonzero"/></clipPath><clipPath id="4ce7fc20aa"><path d="M 193.445312 123.835938 L 256.140625 123.835938 L 256.140625 148.039062 L 193.445312 148.039062 Z M 193.445312 123.835938 " clip-rule="nonzero"/></clipPath><clipPath id="c9cd41ce98"><path d="M 237 121.820312 L 247 121.820312 L 247 125 L 237 125 Z M 237 121.820312 " clip-rule="nonzero"/></clipPath><clipPath id="96c6dfec58"><path d="M 209.175781 96 L 255.621094 96 L 255.621094 119.726562 L 209.175781 119.726562 Z M 209.175781 96 " clip-rule="nonzero"/></clipPath><clipPath id="48d744e9c9"><path d="M 209.175781 77.773438 L 255.621094 77.773438 L 255.621094 97 L 209.175781 97 Z M 209.175781 77.773438 " clip-rule="nonzero"/></clipPath></defs><g clip-path="url(#c4822097a5)"><path fill="#1e5192" d="M 287.378906 99.789062 C 287.09375 97.597656 286.742188 95.824219 286.375 94.265625 C 286.28125 93.878906 286.195312 93.5 286.097656 93.136719 C 286 92.769531 285.90625 92.414062 285.8125 92.066406 C 285.710938 91.722656 285.613281 91.382812 285.515625 91.046875 C 285.421875 90.707031 285.308594 90.378906 285.207031 90.050781 C 284.160156 86.769531 282.824219 83.609375 281.1875 80.59375 C 281.3125 80.757812 281.433594 80.917969 281.558594 81.074219 C 281.675781 81.234375 281.792969 81.394531 281.910156 81.550781 C 282.144531 81.871094 282.378906 82.183594 282.609375 82.519531 C 282.835938 82.851562 283.078125 83.1875 283.308594 83.558594 C 283.542969 83.925781 283.792969 84.3125 284.035156 84.742188 C 284.515625 85.539062 285.285156 87.234375 285.878906 88.761719 C 286.4375 90.207031 286.847656 91.394531 287.125 92.230469 C 287.410156 93.0625 287.570312 93.542969 287.628906 93.585938 C 287.660156 93.605469 287.660156 93.515625 287.632812 93.304688 C 287.609375 93.09375 287.542969 92.765625 287.441406 92.3125 C 287.246094 91.398438 286.882812 89.976562 286.21875 88.007812 C 286.066406 87.542969 285.996094 87.230469 285.957031 86.953125 C 285.917969 86.679688 285.910156 86.4375 285.84375 86.136719 C 286.011719 86.515625 286.15625 86.882812 286.296875 87.222656 C 286.441406 87.566406 286.566406 87.890625 286.679688 88.195312 C 286.796875 88.5 286.910156 88.777344 287.003906 89.039062 C 287.097656 89.300781 287.183594 89.539062 287.261719 89.757812 C 287.421875 90.1875 287.535156 90.523438 287.621094 90.761719 C 287.707031 90.996094 287.761719 91.128906 287.78125 91.152344 C 287.824219 91.199219 287.75 90.800781 287.511719 89.90625 C 287.386719 89.460938 287.234375 88.890625 287.007812 88.195312 C 286.898438 87.847656 286.78125 87.46875 286.632812 87.058594 C 286.492188 86.648438 286.34375 86.203125 286.160156 85.730469 C 284.722656 81.878906 283.03125 78.421875 281.128906 75.246094 C 279.21875 72.074219 277.101562 69.183594 274.726562 66.507812 C 273.289062 64.882812 271.777344 63.367188 270.210938 61.941406 C 268.640625 60.519531 267.007812 59.1875 265.304688 57.945312 C 263.601562 56.710938 261.828125 55.5625 259.980469 54.503906 C 258.128906 53.449219 256.199219 52.476562 254.179688 51.617188 C 253.773438 51.449219 253.304688 51.253906 252.789062 51.066406 C 252.269531 50.882812 251.710938 50.675781 251.121094 50.496094 C 250.828125 50.402344 250.53125 50.308594 250.230469 50.210938 C 249.925781 50.125 249.621094 50.039062 249.316406 49.949219 C 249.164062 49.90625 249.011719 49.863281 248.859375 49.820312 C 248.707031 49.78125 248.554688 49.738281 248.402344 49.699219 C 248.101562 49.621094 247.800781 49.542969 247.507812 49.464844 C 243.855469 48.558594 240.105469 48.011719 236.332031 47.832031 C 232.5625 47.652344 228.757812 47.839844 224.980469 48.410156 C 221.207031 48.980469 217.464844 49.9375 213.847656 51.277344 C 210.226562 52.613281 206.730469 54.332031 203.429688 56.40625 C 195.703125 61.25 189.140625 67.894531 184.402344 75.660156 C 182.023438 79.539062 180.113281 83.703125 178.699219 88.019531 C 177.300781 92.339844 176.390625 96.816406 176.03125 101.328125 C 175.890625 103.042969 175.828125 104.722656 175.851562 106.351562 C 175.867188 107.984375 175.949219 109.566406 176.101562 111.097656 C 176.253906 112.625 176.460938 114.101562 176.71875 115.515625 C 176.785156 115.867188 176.855469 116.214844 176.925781 116.5625 C 176.960938 116.734375 176.996094 116.90625 177.03125 117.078125 C 177.070312 117.246094 177.109375 117.417969 177.148438 117.585938 C 177.226562 117.921875 177.300781 118.257812 177.382812 118.585938 C 177.46875 118.914062 177.554688 119.238281 177.636719 119.558594 C 177.71875 119.878906 177.816406 120.195312 177.90625 120.507812 C 177.996094 120.816406 178.082031 121.128906 178.183594 121.429688 C 178.378906 122.035156 178.566406 122.625 178.777344 123.195312 C 178.878906 123.480469 178.976562 123.765625 179.082031 124.039062 C 179.191406 124.316406 179.296875 124.585938 179.40625 124.855469 C 179.457031 124.988281 179.511719 125.121094 179.5625 125.253906 C 179.617188 125.386719 179.675781 125.515625 179.730469 125.644531 C 179.839844 125.902344 179.953125 126.15625 180.058594 126.40625 C 180.949219 128.402344 181.890625 130.101562 182.792969 131.503906 C 181.171875 128.019531 179.878906 124.308594 178.988281 120.519531 C 178.101562 116.730469 177.621094 112.863281 177.542969 109.085938 C 177.457031 104.445312 177.972656 100.277344 178.925781 96.105469 C 179.410156 94.019531 179.996094 91.925781 180.742188 89.777344 C 181.492188 87.632812 182.367188 85.421875 183.460938 83.117188 C 184.121094 81.722656 184.984375 80.535156 185.730469 79.496094 C 185.839844 79.339844 185.941406 79.191406 186.046875 79.058594 C 186.148438 78.925781 186.246094 78.804688 186.339844 78.6875 C 186.53125 78.457031 186.703125 78.253906 186.875 78.058594 C 187.050781 77.867188 187.222656 77.679688 187.402344 77.480469 C 187.582031 77.277344 187.769531 77.0625 187.984375 76.816406 C 188.199219 76.566406 188.433594 76.28125 188.703125 75.945312 C 188.839844 75.777344 188.988281 75.597656 189.144531 75.398438 C 189.300781 75.199219 189.464844 74.984375 189.652344 74.757812 C 189.835938 74.527344 190.03125 74.28125 190.238281 74.011719 C 190.453125 73.742188 190.679688 73.457031 190.929688 73.148438 C 191.425781 72.535156 192 71.835938 192.675781 71.042969 C 193.210938 70.730469 193.914062 70.210938 194.882812 69.4375 C 195.855469 68.671875 197.097656 67.648438 198.75 66.390625 C 198.941406 66.246094 198.875 66.386719 198.671875 66.65625 C 198.566406 66.792969 198.429688 66.960938 198.265625 67.140625 C 198.105469 67.324219 197.925781 67.527344 197.734375 67.71875 C 196.539062 68.945312 195.332031 70.28125 194.242188 71.648438 C 193.148438 73.011719 192.171875 74.398438 191.398438 75.691406 C 192.519531 74.101562 193.746094 72.558594 195.019531 71.109375 C 196.039062 69.945312 197.136719 68.773438 198.265625 67.6875 C 199.390625 66.601562 200.546875 65.597656 201.664062 64.757812 C 203.152344 63.648438 204.085938 63.191406 205.269531 62.558594 C 205.414062 62.480469 205.566406 62.394531 205.726562 62.308594 C 205.882812 62.226562 206.050781 62.136719 206.222656 62.042969 C 206.566406 61.855469 206.941406 61.644531 207.367188 61.410156 C 207.578125 61.289062 207.800781 61.164062 208.039062 61.027344 C 208.277344 60.894531 208.53125 60.753906 208.796875 60.601562 C 209.066406 60.445312 209.351562 60.292969 209.65625 60.121094 C 209.808594 60.039062 209.964844 59.949219 210.125 59.859375 C 210.285156 59.769531 210.453125 59.683594 210.625 59.585938 C 210.929688 59.503906 211.253906 59.398438 211.585938 59.304688 C 211.921875 59.210938 212.257812 59.117188 212.578125 59.027344 C 213.21875 58.871094 213.78125 58.746094 214.085938 58.746094 C 214.253906 58.75 214.105469 58.890625 213.769531 59.125 C 213.429688 59.355469 212.898438 59.660156 212.300781 59.996094 C 211.867188 60.226562 211.386719 60.496094 210.875 60.777344 C 210.617188 60.917969 210.355469 61.074219 210.089844 61.222656 C 209.957031 61.300781 209.820312 61.375 209.6875 61.453125 C 209.550781 61.535156 209.417969 61.613281 209.28125 61.695312 C 208.195312 62.332031 207.113281 63.039062 206.207031 63.691406 C 204.726562 64.769531 203.65625 65.714844 202.480469 66.789062 C 202.722656 66.589844 202.945312 66.4375 203.128906 66.300781 C 203.316406 66.167969 203.472656 66.058594 203.605469 65.96875 C 203.871094 65.800781 204.039062 65.71875 204.144531 65.683594 C 204.355469 65.617188 204.320312 65.75 204.363281 65.820312 C 204.40625 65.894531 204.527344 65.902344 205.039062 65.59375 C 205.566406 65.300781 206.464844 64.660156 208.179688 63.585938 C 208.417969 63.441406 208.765625 63.246094 209.15625 63.039062 C 209.550781 62.84375 209.976562 62.628906 210.378906 62.449219 C 210.78125 62.269531 211.144531 62.113281 211.402344 62.015625 C 211.660156 61.917969 211.804688 61.871094 211.765625 61.910156 C 211.265625 62.386719 211.230469 62.574219 211.535156 62.515625 C 211.691406 62.492188 211.933594 62.414062 212.25 62.285156 C 212.40625 62.222656 212.582031 62.144531 212.78125 62.0625 C 212.976562 61.980469 213.1875 61.890625 213.417969 61.789062 C 213.53125 61.742188 213.652344 61.6875 213.773438 61.632812 C 213.898438 61.582031 214.023438 61.527344 214.15625 61.472656 C 214.417969 61.363281 214.691406 61.242188 214.984375 61.121094 C 215.273438 61.003906 215.578125 60.878906 215.894531 60.75 C 216.210938 60.621094 216.542969 60.5 216.882812 60.371094 C 218.246094 59.859375 219.789062 59.347656 221.398438 58.929688 C 222.886719 58.542969 224.578125 58.179688 226.324219 57.917969 C 228.066406 57.652344 229.863281 57.488281 231.542969 57.449219 C 233.226562 57.40625 234.792969 57.484375 236.074219 57.636719 C 237.355469 57.785156 238.355469 58.019531 238.921875 58.257812 C 238.976562 58.28125 239.058594 58.308594 239.167969 58.335938 C 239.277344 58.367188 239.414062 58.398438 239.570312 58.4375 C 239.726562 58.472656 239.902344 58.511719 240.09375 58.550781 C 240.1875 58.570312 240.289062 58.589844 240.390625 58.609375 C 240.496094 58.632812 240.601562 58.65625 240.710938 58.679688 C 241.148438 58.773438 241.628906 58.867188 242.117188 58.976562 C 242.359375 59.027344 242.605469 59.082031 242.847656 59.132812 C 243.089844 59.1875 243.332031 59.242188 243.5625 59.292969 C 244.839844 59.574219 245.941406 59.859375 246.675781 60.105469 C 247.042969 60.230469 247.320312 60.332031 247.484375 60.425781 C 247.652344 60.519531 247.703125 60.589844 247.617188 60.644531 C 247.515625 60.707031 247.660156 60.820312 247.972656 60.960938 C 248.289062 61.101562 248.773438 61.292969 249.347656 61.496094 C 250.496094 61.914062 252.003906 62.460938 253.273438 62.972656 C 258.960938 65.257812 264.230469 68.683594 268.679688 72.964844 C 273.132812 77.238281 276.753906 82.367188 279.300781 87.9375 C 279.484375 88.347656 279.691406 88.789062 279.875 89.242188 C 279.972656 89.472656 280.066406 89.699219 280.164062 89.929688 C 280.257812 90.160156 280.347656 90.390625 280.4375 90.617188 C 280.800781 91.527344 281.117188 92.402344 281.371094 93.046875 C 281.503906 93.367188 281.601562 93.636719 281.695312 93.824219 C 281.785156 94.011719 281.855469 94.117188 281.90625 94.121094 C 281.953125 94.125 281.980469 94.027344 281.972656 93.800781 C 281.96875 93.574219 281.945312 93.21875 281.859375 92.71875 C 281.789062 92.292969 282 92.621094 282.292969 93.242188 C 282.429688 93.558594 282.597656 93.945312 282.757812 94.347656 C 282.910156 94.753906 283.070312 95.171875 283.199219 95.546875 C 283.683594 96.921875 284.132812 98.566406 284.496094 100.203125 C 284.859375 101.839844 285.128906 103.464844 285.339844 104.792969 C 285.460938 105.484375 285.546875 106.050781 285.636719 106.398438 C 285.722656 106.742188 285.804688 106.867188 285.878906 106.671875 C 285.914062 106.574219 285.945312 106.398438 285.976562 106.128906 C 286.003906 105.855469 286.039062 105.496094 286.046875 105.027344 C 286.050781 104.796875 286.054688 104.535156 286.058594 104.25 C 286.0625 103.960938 286.046875 103.648438 286.039062 103.304688 C 286.03125 103.132812 286.027344 102.953125 286.023438 102.765625 C 286.011719 102.582031 286 102.386719 285.984375 102.183594 C 285.972656 101.984375 285.957031 101.777344 285.945312 101.558594 C 285.929688 101.34375 285.90625 101.117188 285.882812 100.886719 C 285.671875 98.761719 285.71875 98.1875 285.726562 97.308594 C 285.722656 97.089844 285.714844 96.851562 285.691406 96.566406 C 285.679688 96.425781 285.667969 96.269531 285.648438 96.101562 C 285.625 95.929688 285.597656 95.746094 285.5625 95.542969 C 285.53125 95.339844 285.496094 95.117188 285.449219 94.871094 C 285.398438 94.628906 285.335938 94.363281 285.269531 94.070312 C 285.238281 93.921875 285.199219 93.769531 285.164062 93.613281 C 285.121094 93.453125 285.074219 93.289062 285.027344 93.117188 C 284.933594 92.769531 284.835938 92.394531 284.703125 91.992188 C 284.800781 91.953125 284.761719 91.351562 285.019531 91.972656 C 285.121094 92.210938 285.214844 92.457031 285.3125 92.710938 C 285.40625 92.96875 285.507812 93.234375 285.609375 93.507812 C 285.703125 93.785156 285.800781 94.070312 285.902344 94.363281 C 285.949219 94.511719 286.003906 94.664062 286.050781 94.816406 C 286.097656 94.972656 286.148438 95.128906 286.195312 95.289062 C 286.59375 96.570312 287 98.042969 287.378906 99.789062 " fill-opacity="1" fill-rule="nonzero"/></g><g clip-path="url(#e3c6af85e8)"><path fill="#1e5192" d="M 214.914062 153.28125 C 215.164062 153.394531 215.414062 153.507812 215.664062 153.621094 C 215.914062 153.730469 216.167969 153.835938 216.421875 153.941406 C 216.925781 154.160156 217.445312 154.347656 217.96875 154.539062 C 218.242188 154.628906 218.515625 154.714844 218.789062 154.800781 C 218.929688 154.839844 219.066406 154.882812 219.207031 154.925781 C 219.34375 154.960938 219.484375 155 219.625 155.039062 C 219.90625 155.113281 220.1875 155.1875 220.46875 155.257812 C 220.75 155.328125 221.03125 155.394531 221.3125 155.464844 C 221.039062 155.375 220.765625 155.285156 220.492188 155.195312 C 220.21875 155.105469 219.945312 155.003906 219.667969 154.90625 C 219.53125 154.859375 219.390625 154.808594 219.25 154.761719 C 219.113281 154.707031 218.972656 154.65625 218.832031 154.601562 C 218.554688 154.496094 218.269531 154.390625 217.980469 154.273438 C 217.65625 154.175781 217.359375 154.089844 217.078125 154.003906 C 216.800781 153.921875 216.542969 153.832031 216.292969 153.753906 C 215.796875 153.597656 215.355469 153.4375 214.914062 153.28125 Z M 256.585938 156.039062 C 255.101562 156.710938 253.609375 157.386719 252.082031 157.964844 C 252.375 157.914062 252.632812 157.925781 252.972656 157.804688 C 253.230469 157.707031 253.484375 157.613281 253.746094 157.515625 C 253.875 157.464844 254.007812 157.417969 254.140625 157.367188 C 254.269531 157.3125 254.402344 157.261719 254.535156 157.207031 C 254.800781 157.097656 255.074219 156.988281 255.355469 156.871094 C 255.632812 156.75 255.921875 156.625 256.222656 156.492188 C 257.410156 155.960938 258.777344 155.316406 260.445312 154.394531 C 260.3125 154.457031 260.1875 154.515625 260.066406 154.570312 C 259.945312 154.625 259.828125 154.675781 259.714844 154.726562 C 259.488281 154.828125 259.277344 154.917969 259.082031 155.003906 C 258.6875 155.175781 258.347656 155.304688 258.050781 155.425781 C 257.902344 155.488281 257.765625 155.542969 257.632812 155.597656 C 257.5 155.652344 257.375 155.699219 257.257812 155.75 C 257.019531 155.84375 256.800781 155.9375 256.585938 156.039062 Z M 215.636719 153.882812 C 214.53125 153.464844 213.765625 153.28125 212.859375 152.957031 C 212.980469 153.019531 213.105469 153.082031 213.226562 153.144531 C 213.351562 153.207031 213.472656 153.269531 213.597656 153.328125 C 213.84375 153.453125 214.09375 153.574219 214.339844 153.695312 C 214.589844 153.8125 214.839844 153.925781 215.089844 154.035156 C 215.214844 154.089844 215.339844 154.140625 215.460938 154.195312 C 215.585938 154.246094 215.710938 154.292969 215.835938 154.339844 C 216.140625 154.453125 216.445312 154.566406 216.777344 154.675781 C 217.113281 154.785156 217.480469 154.898438 217.902344 155.03125 C 218.757812 155.269531 219.847656 155.585938 221.453125 155.9375 C 219.769531 155.457031 218.585938 155.011719 217.683594 154.671875 C 216.78125 154.332031 216.164062 154.070312 215.636719 153.882812 Z M 196.414062 139.734375 C 199.773438 143.363281 203.679688 146.566406 208.03125 149.1875 C 209.121094 149.839844 210.234375 150.464844 211.378906 151.042969 C 212.519531 151.617188 213.6875 152.15625 214.878906 152.65625 C 217.261719 153.644531 219.738281 154.480469 222.289062 155.113281 C 223.324219 155.378906 224.382812 155.578125 225.449219 155.765625 L 226.25 155.890625 L 226.648438 155.949219 L 227.050781 156.003906 C 227.316406 156.039062 227.585938 156.074219 227.851562 156.113281 C 228.121094 156.140625 228.386719 156.171875 228.652344 156.203125 C 229.980469 156.351562 230.671875 156.351562 231.042969 156.320312 C 231.414062 156.289062 231.464844 156.214844 231.523438 156.148438 C 231.585938 156.078125 231.652344 156.007812 232.054688 155.972656 C 232.253906 155.953125 232.535156 155.941406 232.941406 155.945312 C 233.144531 155.941406 233.378906 155.9375 233.648438 155.941406 C 233.917969 155.941406 234.222656 155.945312 234.570312 155.941406 C 232.773438 155.871094 231.097656 155.675781 229.199219 155.460938 C 225.554688 155.03125 221.945312 154.203125 218.472656 152.976562 C 215.007812 151.742188 211.667969 150.128906 208.578125 148.148438 L 208.722656 148.082031 L 209.058594 148.292969 L 209.398438 148.496094 L 210.082031 148.898438 C 210.546875 149.152344 211.003906 149.421875 211.472656 149.660156 C 212.40625 150.164062 213.363281 150.621094 214.328125 151.0625 C 216.269531 151.925781 218.265625 152.679688 220.328125 153.289062 C 222.386719 153.90625 224.503906 154.375 226.667969 154.71875 C 227.753906 154.878906 228.84375 155.023438 229.953125 155.113281 C 230.503906 155.167969 231.0625 155.191406 231.617188 155.230469 C 231.898438 155.246094 232.175781 155.253906 232.457031 155.265625 L 232.878906 155.28125 C 233.019531 155.285156 233.160156 155.285156 233.300781 155.289062 C 229.21875 154.925781 224.976562 154.15625 220.675781 152.789062 C 216.378906 151.425781 212.023438 149.449219 207.839844 146.714844 C 204.917969 144.8125 202.214844 142.554688 199.785156 140.03125 L 199.554688 139.796875 L 199.332031 139.554688 L 198.886719 139.074219 C 198.589844 138.75 198.304688 138.417969 198.011719 138.089844 C 197.730469 137.753906 197.445312 137.421875 197.167969 137.082031 L 196.554688 136.3125 L 196.355469 136.050781 C 195.285156 134.664062 194.292969 133.21875 193.378906 131.726562 L 193.570312 131.644531 C 196.066406 135.636719 199.15625 139.25 202.695312 142.335938 L 202.65625 142.148438 C 199.289062 139.167969 196.335938 135.710938 193.898438 131.839844 C 191.464844 127.972656 189.546875 123.6875 188.292969 119.070312 C 189.25 122.296875 190.527344 125.363281 192.074219 128.25 C 193.625 131.132812 195.449219 133.835938 197.507812 136.355469 C 199.570312 138.867188 201.871094 141.199219 204.40625 143.316406 C 206.941406 145.433594 209.703125 147.347656 212.703125 149.015625 C 213.640625 149.535156 214.613281 150.027344 215.621094 150.492188 C 216.632812 150.949219 217.671875 151.390625 218.742188 151.78125 C 220.878906 152.570312 223.125 153.210938 225.421875 153.679688 C 226.574219 153.910156 227.734375 154.113281 228.902344 154.253906 L 229.339844 154.3125 L 229.777344 154.359375 C 230.070312 154.386719 230.363281 154.425781 230.65625 154.449219 C 230.949219 154.472656 231.242188 154.496094 231.535156 154.523438 C 231.828125 154.546875 232.121094 154.558594 232.410156 154.578125 C 232.996094 154.617188 233.582031 154.625 234.164062 154.648438 C 234.457031 154.648438 234.746094 154.652344 235.039062 154.65625 L 235.472656 154.660156 L 235.90625 154.652344 C 237.066406 154.644531 238.210938 154.578125 239.34375 154.496094 C 239.644531 154.46875 239.945312 154.445312 240.242188 154.417969 C 240.535156 154.386719 240.824219 154.355469 241.113281 154.328125 C 241.257812 154.3125 241.398438 154.296875 241.539062 154.28125 C 241.683594 154.261719 241.820312 154.246094 241.960938 154.226562 C 242.238281 154.191406 242.515625 154.15625 242.785156 154.121094 C 243.324219 154.039062 243.851562 153.972656 244.351562 153.882812 C 244.605469 153.839844 244.855469 153.800781 245.097656 153.757812 C 245.339844 153.714844 245.582031 153.667969 245.816406 153.625 C 247.691406 153.277344 249.269531 152.902344 250.507812 152.613281 C 250.664062 152.578125 250.8125 152.546875 250.957031 152.511719 C 251.101562 152.480469 251.242188 152.445312 251.375 152.414062 C 251.644531 152.351562 251.890625 152.300781 252.113281 152.257812 C 252.558594 152.160156 252.917969 152.101562 253.183594 152.085938 C 253.714844 152.046875 253.867188 152.171875 253.582031 152.5 C 253.390625 152.714844 253.738281 152.828125 252.992188 153.339844 C 252.898438 153.402344 252.785156 153.472656 252.65625 153.550781 C 252.523438 153.625 252.371094 153.707031 252.191406 153.792969 C 252.015625 153.882812 251.816406 153.976562 251.585938 154.082031 C 251.355469 154.183594 251.097656 154.285156 250.808594 154.402344 C 249.65625 154.851562 247.992188 155.414062 245.582031 155.941406 C 245.164062 156.023438 244.71875 156.132812 244.246094 156.242188 C 244.007812 156.296875 243.765625 156.355469 243.519531 156.410156 C 243.398438 156.441406 243.273438 156.46875 243.148438 156.5 C 243.023438 156.527344 242.894531 156.554688 242.769531 156.582031 C 242.515625 156.636719 242.257812 156.695312 242.003906 156.75 C 241.746094 156.808594 241.484375 156.855469 241.226562 156.90625 C 240.710938 157.015625 240.195312 157.097656 239.691406 157.175781 C 242.582031 156.925781 245.515625 156.375 248.183594 155.632812 C 249.519531 155.257812 250.785156 154.824219 251.953125 154.378906 C 252.242188 154.261719 252.527344 154.148438 252.808594 154.039062 C 253.085938 153.917969 253.355469 153.800781 253.621094 153.683594 C 253.886719 153.570312 254.144531 153.453125 254.390625 153.332031 C 254.640625 153.214844 254.882812 153.097656 255.117188 152.980469 C 256.53125 152.269531 257.820312 151.5625 259.035156 150.859375 C 260.246094 150.15625 261.382812 149.460938 262.46875 148.757812 C 263.550781 148.042969 264.589844 147.324219 265.601562 146.570312 C 266.617188 145.816406 267.601562 145.019531 268.582031 144.164062 C 268.808594 143.964844 269.035156 143.765625 269.253906 143.570312 C 269.476562 143.375 269.691406 143.179688 269.90625 142.984375 C 270.125 142.792969 270.332031 142.597656 270.539062 142.40625 C 270.75 142.210938 270.960938 142.019531 271.164062 141.824219 C 271.976562 141.039062 272.761719 140.230469 273.53125 139.320312 C 274.71875 137.90625 275.605469 136.722656 276.304688 135.785156 C 277.007812 134.851562 277.511719 134.152344 277.894531 133.671875 C 278.085938 133.433594 278.242188 133.242188 278.375 133.101562 C 278.507812 132.960938 278.613281 132.871094 278.699219 132.820312 C 278.867188 132.722656 278.953125 132.796875 278.976562 132.984375 C 278.988281 133.070312 279.164062 132.917969 279.40625 132.625 C 279.527344 132.476562 279.664062 132.292969 279.808594 132.085938 C 279.949219 131.878906 280.101562 131.648438 280.234375 131.40625 C 281.222656 129.675781 281.878906 128.328125 282.414062 127.183594 C 282.542969 126.894531 282.667969 126.617188 282.785156 126.355469 C 282.84375 126.222656 282.902344 126.089844 282.960938 125.964844 C 283.015625 125.835938 283.070312 125.707031 283.125 125.582031 C 283.230469 125.328125 283.335938 125.085938 283.4375 124.84375 C 283.535156 124.597656 283.636719 124.355469 283.734375 124.113281 C 284.128906 123.140625 284.511719 122.136719 284.960938 120.851562 C 285.402344 119.566406 285.910156 118 286.425781 115.867188 C 285.929688 118.546875 285.277344 120.953125 284.515625 123.195312 C 283.761719 125.4375 282.890625 127.511719 281.925781 129.542969 C 281.773438 129.871094 281.574219 130.277344 281.382812 130.707031 C 281.1875 131.136719 280.976562 131.582031 280.796875 131.988281 C 280.421875 132.789062 280.140625 133.417969 280.214844 133.359375 C 280.347656 133.265625 280.546875 133.039062 280.8125 132.699219 C 280.945312 132.527344 281.097656 132.332031 281.253906 132.105469 C 281.414062 131.878906 281.585938 131.625 281.765625 131.351562 C 282.488281 130.242188 283.355469 128.742188 284.179688 127 C 285.011719 125.261719 285.808594 123.28125 286.433594 121.261719 C 287.066406 119.246094 287.542969 117.199219 287.84375 115.363281 C 288.0625 113.984375 288.191406 112.484375 288.308594 111.1875 C 288.457031 109.632812 288.585938 108.238281 288.644531 106.765625 C 288.671875 107.230469 288.703125 107.65625 288.730469 108.105469 C 288.75 108.558594 288.761719 109.03125 288.753906 109.585938 L 288.722656 110.5 L 288.703125 110.960938 L 288.621094 112.332031 L 288.539062 113.25 L 288.5 113.707031 L 288.449219 114.167969 C 288.414062 114.472656 288.382812 114.777344 288.347656 115.082031 C 288.304688 115.386719 288.261719 115.695312 288.21875 116 L 288.15625 116.457031 L 288.082031 116.917969 C 288.03125 117.222656 287.980469 117.527344 287.925781 117.832031 C 287.867188 118.136719 287.808594 118.445312 287.75 118.75 C 287.722656 118.902344 287.691406 119.054688 287.660156 119.207031 L 287.558594 119.667969 C 287.492188 119.972656 287.425781 120.277344 287.351562 120.582031 C 287.058594 121.804688 286.722656 123.027344 286.332031 124.246094 C 284.605469 129.632812 282.011719 134.765625 278.679688 139.398438 C 275.355469 144.035156 271.28125 148.160156 266.65625 151.566406 C 264.757812 152.976562 262.757812 154.246094 260.695312 155.398438 C 259.65625 155.96875 258.609375 156.519531 257.535156 157.019531 C 257 157.28125 256.457031 157.511719 255.917969 157.757812 C 255.648438 157.875 255.371094 157.984375 255.097656 158.101562 C 254.824219 158.214844 254.550781 158.332031 254.273438 158.4375 C 252.070312 159.304688 249.8125 160.046875 247.507812 160.625 C 247.21875 160.695312 246.933594 160.769531 246.644531 160.835938 L 245.773438 161.035156 L 245.339844 161.128906 L 244.90625 161.21875 L 244.03125 161.390625 C 242.863281 161.59375 241.691406 161.789062 240.511719 161.921875 C 239.332031 162.070312 238.148438 162.160156 236.964844 162.234375 L 235.628906 162.292969 L 235.183594 162.300781 L 234.296875 162.320312 C 234 162.320312 233.703125 162.316406 233.40625 162.316406 C 232.21875 162.3125 231.03125 162.253906 229.847656 162.179688 L 228.957031 162.105469 L 228.515625 162.066406 L 228.070312 162.019531 L 227.183594 161.925781 L 226.300781 161.808594 C 221.582031 161.175781 216.949219 159.910156 212.542969 158.089844 C 212.8125 158.167969 213.09375 158.253906 213.378906 158.34375 C 213.523438 158.386719 213.667969 158.433594 213.8125 158.480469 C 213.960938 158.523438 214.109375 158.570312 214.261719 158.613281 C 214.5625 158.707031 214.871094 158.800781 215.179688 158.898438 C 215.496094 158.988281 215.8125 159.082031 216.136719 159.175781 C 217.425781 159.546875 218.773438 159.914062 220.09375 160.199219 C 220.429688 160.277344 220.746094 160.332031 221.046875 160.390625 C 221.351562 160.445312 221.640625 160.5 221.929688 160.539062 C 222.5 160.621094 223.050781 160.707031 223.640625 160.777344 C 223.074219 160.648438 222.425781 160.457031 221.828125 160.296875 C 221.234375 160.121094 220.691406 159.96875 220.347656 159.890625 C 218.660156 159.507812 217.242188 159.050781 215.957031 158.566406 C 215.3125 158.328125 214.707031 158.066406 214.109375 157.8125 C 213.519531 157.539062 212.933594 157.28125 212.355469 156.988281 C 211.195312 156.417969 210.035156 155.789062 208.742188 155.0625 C 207.449219 154.335938 206.027344 153.503906 204.375 152.46875 C 204.089844 152.285156 203.871094 152.144531 203.707031 152.035156 C 203.546875 151.925781 203.445312 151.847656 203.390625 151.796875 C 203.277344 151.699219 203.355469 151.714844 203.535156 151.796875 C 203.71875 151.882812 204.007812 152.015625 204.324219 152.160156 C 204.640625 152.308594 204.980469 152.472656 205.277344 152.585938 C 205.859375 152.820312 206.222656 152.914062 205.714844 152.503906 C 205.589844 152.398438 205.40625 152.265625 205.164062 152.089844 C 204.921875 151.914062 204.617188 151.699219 204.242188 151.4375 C 203.496094 150.898438 202.457031 150.183594 201.121094 149.140625 C 201.25 149.191406 201.324219 149.164062 201.519531 149.3125 C 203.03125 150.425781 204.015625 151.015625 204.632812 151.335938 C 205.253906 151.65625 205.503906 151.714844 205.617188 151.679688 C 205.84375 151.613281 205.523438 151.199219 206.484375 151.714844 C 207.996094 152.507812 208.875 152.878906 209.253906 153.023438 C 209.640625 153.160156 209.53125 153.070312 209.125 152.824219 C 208.921875 152.703125 208.644531 152.539062 208.316406 152.347656 C 207.984375 152.160156 207.613281 151.929688 207.207031 151.691406 C 206.800781 151.449219 206.375 151.175781 205.941406 150.90625 C 205.726562 150.761719 205.511719 150.621094 205.296875 150.476562 C 205.082031 150.335938 204.867188 150.199219 204.660156 150.050781 C 199.457031 146.472656 194.910156 141.941406 191.300781 136.761719 C 191.09375 135.972656 189.605469 133.683594 188.269531 131.070312 C 187.601562 129.765625 186.953125 128.394531 186.457031 127.140625 C 186.328125 126.828125 186.21875 126.519531 186.109375 126.226562 C 186.058594 126.078125 186.003906 125.9375 185.953125 125.796875 C 185.90625 125.65625 185.863281 125.515625 185.816406 125.382812 C 185.730469 125.113281 185.652344 124.863281 185.585938 124.628906 C 185.519531 124.394531 185.46875 124.175781 185.425781 123.984375 C 185.789062 124.945312 186.203125 125.898438 186.628906 126.847656 C 187.066406 127.789062 187.519531 128.722656 188.011719 129.632812 C 188.492188 130.546875 189.011719 131.429688 189.539062 132.296875 C 189.671875 132.511719 189.808594 132.722656 189.941406 132.933594 C 190.078125 133.144531 190.207031 133.359375 190.351562 133.566406 C 190.632812 133.976562 190.902344 134.394531 191.191406 134.789062 C 191.363281 135.027344 191.519531 135.246094 191.664062 135.441406 C 191.8125 135.628906 191.941406 135.796875 192.054688 135.929688 C 192.273438 136.199219 192.417969 136.351562 192.453125 136.351562 C 192.484375 136.351562 192.414062 136.195312 192.207031 135.855469 C 191.996094 135.515625 191.667969 134.980469 191.191406 134.214844 C 190.070312 132.382812 189.035156 130.433594 188.292969 128.832031 C 190.535156 132.890625 193.300781 136.578125 196.472656 139.8125 L 196.414062 139.734375 " fill-opacity="1" fill-rule="nonzero"/></g><path fill="#1e5192" d="M 197.128906 134.8125 C 197.839844 135.785156 198.632812 136.777344 199.511719 137.785156 C 200.390625 138.792969 201.351562 139.808594 202.394531 140.808594 C 204.484375 142.816406 206.917969 144.769531 209.644531 146.511719 C 211.007812 147.382812 212.445312 148.203125 213.945312 148.953125 C 215.445312 149.699219 217.003906 150.375 218.613281 150.972656 C 220.21875 151.570312 221.871094 152.082031 223.554688 152.503906 C 225.234375 152.925781 226.945312 153.253906 228.667969 153.488281 C 230.960938 153.808594 233.207031 153.929688 235.410156 153.910156 C 237.617188 153.871094 239.785156 153.699219 241.933594 153.339844 C 244.082031 152.988281 246.214844 152.464844 248.347656 151.769531 C 249.414062 151.417969 250.476562 151.011719 251.542969 150.566406 C 252.605469 150.117188 253.667969 149.613281 254.730469 149.054688 C 256.285156 148.234375 257.351562 147.582031 258.046875 147.121094 C 258.21875 147.007812 258.371094 146.910156 258.5 146.824219 C 258.628906 146.734375 258.734375 146.65625 258.824219 146.59375 C 258.996094 146.464844 259.089844 146.386719 259.113281 146.351562 C 259.152344 146.28125 258.90625 146.386719 258.441406 146.617188 C 258.203125 146.726562 257.910156 146.863281 257.566406 147.023438 C 257.398438 147.105469 257.214844 147.1875 257.015625 147.273438 C 256.820312 147.359375 256.613281 147.449219 256.398438 147.546875 C 255.257812 148.023438 254.449219 148.292969 253.980469 148.398438 C 253.515625 148.503906 253.390625 148.449219 253.613281 148.242188 C 253.835938 148.035156 254.398438 147.667969 255.277344 147.101562 C 256.160156 146.535156 257.359375 145.769531 258.8125 144.703125 C 260.289062 143.621094 260.910156 142.992188 261.007812 142.789062 C 261.101562 142.582031 260.652344 142.769531 259.882812 143.179688 C 256.734375 144.824219 253.144531 146.285156 249.367188 147.214844 C 249.273438 147.238281 249.164062 147.269531 249.042969 147.304688 C 248.917969 147.339844 248.785156 147.378906 248.636719 147.417969 C 248.34375 147.5 248.015625 147.609375 247.660156 147.707031 C 247.308594 147.808594 246.941406 147.921875 246.574219 148.019531 C 246.394531 148.070312 246.214844 148.121094 246.035156 148.171875 C 245.859375 148.21875 245.6875 148.265625 245.523438 148.308594 C 244.992188 148.457031 244.457031 148.578125 243.929688 148.703125 C 243.398438 148.8125 242.875 148.929688 242.347656 149.011719 C 241.824219 149.113281 241.300781 149.179688 240.78125 149.257812 C 240.519531 149.289062 240.257812 149.320312 240 149.351562 C 239.738281 149.386719 239.480469 149.410156 239.222656 149.433594 C 237.152344 149.632812 235.109375 149.65625 233.070312 149.578125 C 228.859375 149.398438 224.574219 148.667969 220.386719 147.257812 C 216.203125 145.851562 212.117188 143.78125 208.390625 141.035156 C 211.773438 143.757812 215.609375 145.96875 219.691406 147.554688 C 223.769531 149.144531 228.097656 150.097656 232.460938 150.410156 C 235.625 150.632812 238.753906 150.539062 241.832031 150.125 C 244.910156 149.714844 247.9375 148.972656 250.886719 147.902344 L 250.96875 148.101562 C 248.582031 149.113281 246.085938 149.925781 243.578125 150.507812 C 243.457031 150.535156 243.332031 150.566406 243.207031 150.59375 C 243.082031 150.621094 242.953125 150.648438 242.824219 150.675781 C 242.566406 150.726562 242.300781 150.785156 242.035156 150.839844 C 241.5 150.933594 240.957031 151.039062 240.4375 151.113281 C 239.402344 151.285156 238.464844 151.402344 237.886719 151.507812 C 236.71875 151.710938 235.5 151.851562 234.242188 151.910156 C 232.980469 151.964844 231.6875 151.945312 230.371094 151.84375 C 227.734375 151.652344 225.011719 151.117188 222.304688 150.269531 C 220.9375 149.839844 219.476562 149.316406 218.152344 148.746094 C 216.824219 148.179688 215.628906 147.570312 214.75 147.046875 C 213.296875 146.171875 212.179688 145.441406 210.984375 144.703125 C 209.792969 143.957031 208.527344 143.199219 206.855469 142.117188 C 206.609375 141.964844 206.347656 141.773438 206.054688 141.5625 C 205.757812 141.351562 205.449219 141.105469 205.117188 140.84375 C 205.03125 140.777344 204.949219 140.707031 204.859375 140.640625 C 204.777344 140.566406 204.691406 140.496094 204.601562 140.421875 C 204.429688 140.273438 204.246094 140.121094 204.0625 139.964844 C 203.882812 139.800781 203.695312 139.632812 203.503906 139.464844 C 203.40625 139.378906 203.308594 139.292969 203.214844 139.203125 C 203.117188 139.109375 203.019531 139.019531 202.921875 138.925781 C 202.730469 138.738281 202.523438 138.554688 202.324219 138.351562 C 202.125 138.152344 201.921875 137.949219 201.710938 137.742188 C 201.507812 137.527344 201.300781 137.3125 201.089844 137.09375 C 200.878906 136.875 200.675781 136.640625 200.460938 136.40625 C 199.617188 135.472656 198.761719 134.449219 197.914062 133.34375 C 199.582031 135.6875 201.425781 137.792969 203.378906 139.671875 C 205.335938 141.554688 207.402344 143.207031 209.542969 144.644531 C 211.6875 146.078125 213.898438 147.3125 216.15625 148.332031 C 217.289062 148.84375 218.425781 149.3125 219.578125 149.730469 C 220.730469 150.140625 221.890625 150.507812 223.058594 150.832031 C 223.292969 150.898438 223.527344 150.960938 223.757812 151.023438 C 223.988281 151.09375 224.222656 151.144531 224.449219 151.203125 C 224.679688 151.261719 224.90625 151.328125 225.132812 151.382812 C 225.359375 151.4375 225.589844 151.496094 225.816406 151.550781 L 226.15625 151.636719 C 226.273438 151.660156 226.386719 151.6875 226.5 151.714844 C 226.730469 151.769531 226.960938 151.820312 227.195312 151.875 C 227.429688 151.925781 227.664062 151.976562 227.90625 152.027344 C 228.144531 152.078125 228.386719 152.132812 228.636719 152.175781 C 228.882812 152.226562 229.132812 152.273438 229.390625 152.324219 C 229.648438 152.371094 229.910156 152.410156 230.179688 152.457031 C 230.445312 152.503906 230.722656 152.550781 231.003906 152.585938 C 231.285156 152.625 231.574219 152.667969 231.871094 152.707031 C 233.058594 152.855469 234.378906 152.972656 235.882812 153.019531 C 231.308594 153.199219 226.902344 152.71875 222.847656 151.710938 C 222.59375 151.652344 222.34375 151.582031 222.09375 151.515625 C 221.84375 151.445312 221.589844 151.386719 221.34375 151.3125 C 220.851562 151.167969 220.355469 151.027344 219.875 150.867188 C 218.902344 150.5625 217.957031 150.214844 217.035156 149.855469 C 215.191406 149.125 213.4375 148.3125 211.800781 147.40625 C 210.160156 146.507812 208.617188 145.542969 207.191406 144.527344 C 205.765625 143.507812 204.441406 142.449219 203.226562 141.371094 C 200.789062 139.210938 198.777344 136.96875 197.128906 134.8125 " fill-opacity="1" fill-rule="nonzero"/><path fill="#1e5192" d="M 196.414062 139.734375 C 195.71875 138.878906 194.878906 137.855469 194.046875 136.75 C 193.21875 135.640625 192.398438 134.457031 191.703125 133.332031 C 191.351562 132.769531 191.042969 132.21875 190.761719 131.707031 C 190.625 131.449219 190.5 131.203125 190.382812 130.964844 C 190.328125 130.847656 190.269531 130.734375 190.214844 130.621094 C 190.164062 130.511719 190.117188 130.398438 190.074219 130.296875 C 189.703125 129.453125 189.539062 128.832031 189.636719 128.597656 C 189.640625 128.585938 189.597656 128.476562 189.519531 128.296875 C 189.441406 128.113281 189.332031 127.859375 189.195312 127.554688 C 189.125 127.402344 189.046875 127.242188 188.972656 127.066406 C 188.898438 126.894531 188.816406 126.710938 188.734375 126.519531 C 188.652344 126.332031 188.5625 126.136719 188.480469 125.9375 C 188.394531 125.738281 188.308594 125.535156 188.222656 125.332031 C 187.519531 123.714844 186.886719 122.058594 186.65625 122.070312 C 186.65625 122.070312 186.671875 122.007812 186.671875 122.007812 C 186.308594 121.574219 186.289062 121.972656 186.589844 123.09375 C 186.894531 124.210938 187.558594 126.042969 188.703125 128.355469 C 190.742188 132.46875 193.359375 136.355469 196.460938 139.796875 C 196.472656 139.8125 196.414062 139.734375 196.414062 139.734375 " fill-opacity="1" fill-rule="nonzero"/><path fill="#1e5192" d="M 185.507812 105.78125 C 185.507812 106.117188 185.507812 106.445312 185.503906 106.765625 C 185.511719 107.085938 185.519531 107.394531 185.527344 107.699219 C 185.53125 108.003906 185.546875 108.296875 185.5625 108.585938 C 185.574219 108.871094 185.582031 109.152344 185.605469 109.425781 C 185.644531 109.96875 185.671875 110.488281 185.726562 110.976562 C 185.75 111.222656 185.773438 111.460938 185.796875 111.695312 C 185.824219 111.925781 185.851562 112.152344 185.878906 112.371094 C 186.101562 114.140625 186.375 115.542969 186.675781 116.789062 C 186.769531 117.152344 186.859375 117.457031 186.949219 117.722656 C 187.042969 117.984375 187.136719 118.210938 187.226562 118.421875 C 187.402344 118.839844 187.597656 119.191406 187.789062 119.644531 C 187.683594 119.214844 187.566406 118.75 187.46875 118.277344 C 187.417969 118.039062 187.363281 117.804688 187.3125 117.566406 C 187.269531 117.328125 187.222656 117.09375 187.179688 116.859375 C 187.003906 115.9375 186.863281 115.09375 186.75 114.546875 C 186.710938 114.378906 186.675781 114.210938 186.640625 114.046875 C 186.609375 113.882812 186.578125 113.722656 186.542969 113.558594 C 186.480469 113.234375 186.410156 112.914062 186.355469 112.59375 C 186.296875 112.273438 186.238281 111.949219 186.179688 111.621094 C 186.125 111.296875 186.070312 110.964844 186.015625 110.621094 C 185.808594 109.253906 185.613281 107.738281 185.507812 105.78125 " fill-opacity="1" fill-rule="nonzero"/><path fill="#1e5192" d="M 185.308594 94.777344 C 185.613281 93.390625 185.972656 92.015625 186.394531 90.65625 C 186.816406 89.300781 187.296875 87.957031 187.832031 86.636719 C 188.898438 83.996094 190.203125 81.445312 191.710938 79.011719 L 191.320312 79.402344 L 190.9375 79.796875 C 190.214844 81.023438 189.542969 82.273438 188.929688 83.554688 C 188.320312 84.832031 187.757812 86.136719 187.253906 87.460938 C 186.242188 90.101562 185.472656 92.832031 184.921875 95.59375 C 185.042969 95.316406 185.179688 95.046875 185.308594 94.777344 " fill-opacity="1" fill-rule="nonzero"/><path fill="#1e5192" d="M 186.671875 122.007812 C 186.671875 122.007812 186.65625 122.070312 186.65625 122.070312 C 186.054688 120.054688 185.597656 118.082031 185.222656 116.28125 C 184.84375 114.484375 184.554688 112.851562 184.269531 111.5 C 184.265625 111.480469 184.261719 111.550781 184.261719 111.675781 C 184.261719 111.738281 184.261719 111.8125 184.261719 111.898438 C 184.265625 111.980469 184.265625 112.070312 184.269531 112.164062 C 184.285156 112.535156 184.304688 112.949219 184.320312 113.066406 C 184.832031 116.175781 185.625 119.132812 186.671875 122.007812 " fill-opacity="1" fill-rule="nonzero"/><path fill="#1e5192" d="M 192.972656 143.511719 C 194.289062 144.921875 195.671875 146.265625 197.125 147.527344 C 198.578125 148.792969 200.09375 149.976562 201.664062 151.078125 L 201.449219 150.773438 C 198.203125 148.414062 195.210938 145.699219 192.542969 142.691406 C 192.683594 142.964844 192.828125 143.238281 192.972656 143.511719 " fill-opacity="1" fill-rule="nonzero"/><path fill="#1e5192" d="M 218.851562 153.402344 C 217.207031 152.863281 215.59375 152.238281 214.019531 151.527344 C 212.441406 150.816406 210.90625 150.015625 209.414062 149.144531 L 209.378906 149.222656 C 210.875 150.097656 212.414062 150.898438 213.992188 151.609375 C 215.570312 152.320312 217.183594 152.945312 218.828125 153.484375 L 218.851562 153.402344 " fill-opacity="1" fill-rule="nonzero"/><path fill="#1e5192" d="M 197.839844 73.921875 C 197.59375 74.21875 197.332031 74.519531 197.074219 74.832031 C 196.820312 75.148438 196.558594 75.460938 196.316406 75.773438 C 196.074219 76.089844 195.839844 76.390625 195.628906 76.683594 C 195.417969 76.976562 195.226562 77.25 195.0625 77.496094 C 194.699219 78.066406 194.425781 78.527344 194.199219 78.972656 C 194.082031 79.191406 193.972656 79.402344 193.863281 79.617188 C 193.757812 79.835938 193.648438 80.050781 193.53125 80.28125 C 194.355469 78.992188 195.390625 77.613281 196.160156 76.574219 C 197.199219 75.164062 198.054688 74.023438 199.070312 72.824219 C 198.859375 73 198.65625 73.183594 198.453125 73.371094 C 198.25 73.554688 198.042969 73.734375 197.839844 73.921875 " fill-opacity="1" fill-rule="nonzero"/><path fill="#1e5192" d="M 209.273438 145.347656 C 209.589844 145.558594 209.914062 145.757812 210.234375 145.960938 C 210.558594 146.164062 210.890625 146.355469 211.214844 146.550781 C 211.492188 146.714844 211.785156 146.851562 212.066406 147 C 211.410156 146.632812 210.761719 146.25 210.121094 145.855469 C 209.839844 145.679688 209.550781 145.523438 209.273438 145.347656 " fill-opacity="1" fill-rule="nonzero"/><path fill="#1e5192" d="M 194.707031 126.914062 C 194.546875 126.578125 194.394531 126.265625 194.25 125.960938 C 194.113281 125.65625 193.976562 125.359375 193.84375 125.0625 C 193.734375 124.8125 193.609375 124.550781 193.488281 124.296875 C 193.605469 124.582031 193.710938 124.875 193.84375 125.160156 C 193.976562 125.4375 194.109375 125.71875 194.246094 126.007812 C 194.394531 126.296875 194.542969 126.59375 194.707031 126.914062 " fill-opacity="1" fill-rule="nonzero"/><path fill="#1e5192" d="M 282.785156 112.304688 C 282.734375 112.59375 282.691406 112.882812 282.628906 113.167969 C 282.570312 113.457031 282.515625 113.746094 282.476562 114.039062 C 282.367188 114.742188 282.292969 115.460938 282.175781 116.167969 C 282.246094 115.878906 282.328125 115.59375 282.394531 115.304688 C 282.460938 115.015625 282.519531 114.722656 282.570312 114.425781 C 282.632812 114.078125 282.660156 113.722656 282.699219 113.371094 C 282.738281 113.015625 282.757812 112.660156 282.785156 112.304688 " fill-opacity="1" fill-rule="nonzero"/><g clip-path="url(#7c19bc5618)"><g clip-path="url(#d8a9011723)"><g clip-path="url(#2fa16ac560)"><path fill="#1e5192" d="M 291.582031 53.203125 C 292.171875 55.890625 290.796875 61.542969 290.796875 61.542969 C 290.636719 61.601562 290.480469 61.644531 290.324219 61.671875 L 290.347656 57.863281 C 290.347656 57.863281 289.519531 60.191406 289.242188 61.597656 C 287.4375 61.742188 286.671875 60.640625 286.671875 60.640625 C 287.3125 56.070312 288.414062 53.683594 289.125 52.542969 C 288.902344 52.160156 288.820312 51.714844 288.921875 51.253906 C 289.082031 50.503906 289.699219 49.960938 290.414062 49.851562 L 292.308594 41.683594 L 280.261719 43.929688 C 279.355469 44.097656 278.5625 43.296875 278.75 42.386719 L 279.414062 39.136719 C 279.492188 38.71875 279.371094 38.292969 279.085938 37.988281 C 264.859375 22.628906 250.738281 20.074219 241.417969 20.632812 C 231.261719 21.246094 224.566406 25.492188 224.285156 25.671875 L 224.273438 25.679688 C 223.980469 25.863281 223.785156 26.15625 223.703125 26.484375 L 222.875 30.097656 C 222.660156 31.011719 221.59375 31.414062 220.828125 30.855469 L 208.253906 21.6875 C 207.328125 21.011719 207.664062 19.5625 208.785156 19.355469 L 255.53125 10.738281 C 255.882812 10.679688 256.238281 10.753906 256.523438 10.960938 L 295.570312 38.847656 C 296.507812 39.519531 296.183594 40.980469 295.050781 41.199219 L 293.445312 41.492188 L 291.460938 50.03125 C 292.199219 50.382812 292.613281 51.203125 292.433594 52.027344 C 292.332031 52.542969 292.003906 52.957031 291.582031 53.203125 Z M 225.644531 27.804688 C 225.566406 27.839844 225.503906 27.917969 225.480469 28.011719 L 220.683594 47.535156 C 220.628906 47.769531 220.847656 47.980469 221.078125 47.902344 C 224.695312 46.753906 246.628906 40.949219 271.8125 60.460938 C 271.996094 60.59375 272.25 60.511719 272.304688 60.300781 L 277.328125 39.839844 C 277.351562 39.746094 277.332031 39.640625 277.257812 39.566406 C 275.601562 37.648438 254.09375 13.707031 225.644531 27.804688 Z M 225.644531 27.804688 " fill-opacity="1" fill-rule="nonzero"/></g></g></g><g clip-path="url(#4ce7fc20aa)"><path fill="#1e5192" d="M 255.84375 126.078125 C 254.867188 125.171875 252.453125 124.300781 246.800781 127.441406 C 244.355469 128.964844 243.03125 129.941406 242.363281 130.484375 C 241.929688 130.832031 241.40625 131.035156 240.855469 131.074219 C 237.910156 131.277344 228.617188 132.175781 225.429688 132.113281 C 224.964844 132.101562 224.808594 131.476562 225.121094 131.230469 C 225.355469 131.046875 225.714844 130.957031 226.226562 130.796875 C 228.03125 130.234375 238.074219 130.28125 237.855469 126.523438 C 237.644531 122.921875 230.445312 124.25 228.308594 124.707031 C 227.476562 124.882812 226.554688 125.023438 225.703125 125.125 C 225.703125 125.125 222.605469 125.261719 221.078125 124.894531 C 217.902344 124.066406 211.21875 122.71875 206.992188 126.140625 C 203.59375 128.894531 202.082031 130.710938 201.425781 131.703125 C 200.980469 132.371094 200.371094 132.914062 199.660156 133.285156 L 193.707031 137.472656 C 193.394531 137.691406 193.355469 138.140625 193.628906 138.414062 L 203.394531 148.179688 C 203.660156 148.445312 204.101562 148.414062 204.324219 148.109375 C 205.667969 146.292969 210.472656 140.972656 220.488281 141.296875 C 232.554688 141.6875 232.632812 141.453125 235.28125 140.050781 C 237.355469 138.953125 242.296875 137.183594 244.328125 136.472656 C 244.929688 136.261719 245.484375 135.949219 245.972656 135.546875 L 255.777344 127.492188 C 256.234375 127.144531 256.265625 126.46875 255.84375 126.078125 " fill-opacity="1" fill-rule="nonzero"/></g><g clip-path="url(#c9cd41ce98)"><path fill="#1e5192" d="M 237.277344 123.699219 C 237.585938 123.875 237.859375 124.078125 238.085938 124.304688 C 238.226562 124.445312 238.355469 124.597656 238.464844 124.757812 C 239.183594 124.417969 239.988281 124.054688 240.855469 123.679688 L 240.867188 123.675781 C 243.046875 122.859375 244.925781 122.425781 246.460938 122.378906 C 245.957031 122.113281 245.332031 121.953125 244.585938 121.910156 C 243.015625 121.816406 240.972656 122.234375 238.507812 123.15625 C 238.082031 123.339844 237.667969 123.523438 237.277344 123.699219 " fill-opacity="1" fill-rule="nonzero"/></g><path fill="#1e5192" d="M 235.992188 129.960938 C 236.570312 129.917969 237.121094 129.871094 237.632812 129.832031 L 237.640625 129.832031 C 239.019531 129.726562 240.207031 129.632812 240.96875 129.585938 C 241.097656 129.578125 241.226562 129.550781 241.351562 129.507812 C 241.511719 129.453125 241.660156 129.371094 241.789062 129.265625 C 242.476562 128.710938 243.800781 127.738281 246.199219 126.253906 L 246.226562 126.238281 L 246.25 126.226562 C 246.933594 125.847656 247.601562 125.511719 248.234375 125.230469 C 248.863281 124.960938 249.460938 124.742188 250.019531 124.578125 C 250.097656 124.558594 250.175781 124.535156 250.253906 124.511719 C 250.164062 124.4375 250.066406 124.363281 249.964844 124.296875 C 249.390625 123.921875 248.628906 123.714844 247.691406 123.683594 C 246.195312 123.632812 244.289062 124.035156 242.019531 124.871094 C 240.984375 125.3125 240.054688 125.730469 239.246094 126.121094 C 239.25 126.15625 239.253906 126.195312 239.253906 126.230469 C 239.363281 127.886719 238.265625 129.140625 235.992188 129.960938 " fill-opacity="1" fill-rule="nonzero"/><g fill="#fe6601" fill-opacity="1"><g transform="translate(162.584792, 194.192039)"><g><path d="M 0.71875 -16.71875 L 0.71875 -19.015625 L 8.59375 -19.015625 L 8.59375 -16.71875 L 6.5625 -16.328125 L 6.5625 -2.671875 L 8.59375 -2.28125 L 8.59375 0 L 0.71875 0 L 0.71875 -2.28125 L 2.75 -2.671875 L 2.75 -16.328125 Z M 0.71875 -16.71875 "/></g></g></g><g fill="#fe6601" fill-opacity="1"><g transform="translate(171.893782, 194.192039)"><g><path d="M 20.171875 -19.015625 L 20.171875 -16.71875 L 18.125 -16.328125 L 18.125 0 L 14.328125 0 L 6.640625 -12.796875 L 6.5625 -12.78125 L 6.5625 -2.671875 L 8.609375 -2.28125 L 8.609375 0 L 0.734375 0 L 0.734375 -2.28125 L 2.75 -2.671875 L 2.75 -16.328125 L 0.734375 -16.71875 L 0.734375 -19.015625 L 6.5625 -19.015625 L 14.25 -6.21875 L 14.328125 -6.234375 L 14.328125 -16.328125 L 12.296875 -16.71875 L 12.296875 -19.015625 Z M 20.171875 -19.015625 "/></g></g></g><g fill="#fe6601" fill-opacity="1"><g transform="translate(192.548499, 194.192039)"><g><path d="M 9.28125 -19.015625 C 11.613281 -19.015625 13.53125 -18.269531 15.03125 -16.78125 C 16.539062 -15.300781 17.296875 -13.398438 17.296875 -11.078125 L 17.296875 -7.921875 C 17.296875 -5.585938 16.539062 -3.679688 15.03125 -2.203125 C 13.53125 -0.734375 11.613281 0 9.28125 0 L 0.734375 0 L 0.734375 -2.28125 L 2.75 -2.671875 L 2.75 -16.328125 L 0.734375 -16.71875 L 0.734375 -19.015625 Z M 6.5625 -16.078125 L 6.5625 -2.921875 L 9.09375 -2.921875 C 10.457031 -2.921875 11.523438 -3.378906 12.296875 -4.296875 C 13.078125 -5.222656 13.46875 -6.429688 13.46875 -7.921875 L 13.46875 -11.109375 C 13.46875 -12.578125 13.078125 -13.769531 12.296875 -14.6875 C 11.523438 -15.613281 10.457031 -16.078125 9.09375 -16.078125 Z M 6.5625 -16.078125 "/></g></g></g><g fill="#fe6601" fill-opacity="1"><g transform="translate(210.970632, 194.192039)"><g><path d="M 8.390625 -19.015625 L 8.390625 -16.71875 L 6.34375 -16.328125 L 6.34375 -6.40625 C 6.34375 -5.144531 6.679688 -4.203125 7.359375 -3.578125 C 8.035156 -2.960938 8.960938 -2.65625 10.140625 -2.65625 C 11.328125 -2.65625 12.257812 -2.960938 12.9375 -3.578125 C 13.625 -4.191406 13.96875 -5.132812 13.96875 -6.40625 L 13.96875 -16.328125 L 11.9375 -16.71875 L 11.9375 -19.015625 L 19.8125 -19.015625 L 19.8125 -16.71875 L 17.78125 -16.328125 L 17.78125 -6.40625 C 17.78125 -4.269531 17.078125 -2.617188 15.671875 -1.453125 C 14.265625 -0.296875 12.421875 0.28125 10.140625 0.28125 C 7.867188 0.28125 6.03125 -0.296875 4.625 -1.453125 C 3.226562 -2.617188 2.53125 -4.269531 2.53125 -6.40625 L 2.53125 -16.328125 L 0.515625 -16.71875 L 0.515625 -19.015625 Z M 8.390625 -19.015625 "/></g></g></g><g fill="#fe6601" fill-opacity="1"><g transform="translate(231.168392, 194.192039)"><g><path d="M 15.171875 -12.9375 L 12.3125 -12.9375 L 11.828125 -15.5625 C 11.492188 -15.769531 11.007812 -15.953125 10.375 -16.109375 C 9.738281 -16.265625 9.0625 -16.34375 8.34375 -16.34375 C 7.300781 -16.34375 6.492188 -16.117188 5.921875 -15.671875 C 5.347656 -15.234375 5.0625 -14.664062 5.0625 -13.96875 C 5.0625 -13.332031 5.359375 -12.804688 5.953125 -12.390625 C 6.554688 -11.972656 7.585938 -11.535156 9.046875 -11.078125 C 11.148438 -10.492188 12.742188 -9.722656 13.828125 -8.765625 C 14.910156 -7.804688 15.453125 -6.546875 15.453125 -4.984375 C 15.453125 -3.359375 14.804688 -2.070312 13.515625 -1.125 C 12.222656 -0.1875 10.523438 0.28125 8.421875 0.28125 C 6.921875 0.28125 5.5625 0.0390625 4.34375 -0.4375 C 3.125 -0.914062 2.113281 -1.578125 1.3125 -2.421875 L 1.3125 -6.40625 L 4.265625 -6.40625 L 4.65625 -3.703125 C 5.039062 -3.378906 5.5625 -3.113281 6.21875 -2.90625 C 6.875 -2.707031 7.609375 -2.609375 8.421875 -2.609375 C 9.460938 -2.609375 10.253906 -2.820312 10.796875 -3.25 C 11.347656 -3.675781 11.625 -4.25 11.625 -4.96875 C 11.625 -5.695312 11.363281 -6.28125 10.84375 -6.71875 C 10.332031 -7.164062 9.425781 -7.585938 8.125 -7.984375 C 5.863281 -8.628906 4.15625 -9.398438 3 -10.296875 C 1.84375 -11.203125 1.265625 -12.429688 1.265625 -13.984375 C 1.265625 -15.523438 1.914062 -16.785156 3.21875 -17.765625 C 4.53125 -18.742188 6.175781 -19.25 8.15625 -19.28125 C 9.613281 -19.28125 10.941406 -19.054688 12.140625 -18.609375 C 13.347656 -18.171875 14.359375 -17.582031 15.171875 -16.84375 Z M 15.171875 -12.9375 "/></g></g></g><g fill="#fe6601" fill-opacity="1"><g transform="translate(247.384043, 194.192039)"><g><path d="M 17.46875 -19.015625 L 17.46875 -13.953125 L 14.546875 -13.953125 L 14.390625 -16.078125 L 10.890625 -16.078125 L 10.890625 -2.671875 L 12.9375 -2.28125 L 12.9375 0 L 5.046875 0 L 5.046875 -2.28125 L 7.078125 -2.671875 L 7.078125 -16.078125 L 3.59375 -16.078125 L 3.4375 -13.953125 L 0.515625 -13.953125 L 0.515625 -19.015625 Z M 17.46875 -19.015625 "/></g></g></g><g fill="#fe6601" fill-opacity="1"><g transform="translate(265.36227, 194.192039)"><g><path d="M 9.28125 -19.015625 C 11.4375 -19.015625 13.128906 -18.519531 14.359375 -17.53125 C 15.585938 -16.539062 16.203125 -15.175781 16.203125 -13.4375 C 16.203125 -12.476562 15.941406 -11.644531 15.421875 -10.9375 C 14.910156 -10.238281 14.160156 -9.671875 13.171875 -9.234375 C 14.285156 -8.898438 15.085938 -8.347656 15.578125 -7.578125 C 16.078125 -6.804688 16.328125 -5.851562 16.328125 -4.71875 L 16.328125 -3.75 C 16.328125 -3.332031 16.410156 -3.003906 16.578125 -2.765625 C 16.742188 -2.535156 17.015625 -2.398438 17.390625 -2.359375 L 17.875 -2.296875 L 17.875 0 L 15.890625 0 C 14.648438 0 13.773438 -0.332031 13.265625 -1 C 12.765625 -1.675781 12.515625 -2.546875 12.515625 -3.609375 L 12.515625 -4.6875 C 12.515625 -5.613281 12.265625 -6.335938 11.765625 -6.859375 C 11.273438 -7.390625 10.582031 -7.664062 9.6875 -7.6875 L 6.5625 -7.6875 L 6.5625 -2.671875 L 8.609375 -2.28125 L 8.609375 0 L 0.734375 0 L 0.734375 -2.28125 L 2.75 -2.671875 L 2.75 -16.328125 L 0.734375 -16.71875 L 0.734375 -19.015625 Z M 6.5625 -10.625 L 9.203125 -10.625 C 10.265625 -10.625 11.0625 -10.847656 11.59375 -11.296875 C 12.125 -11.753906 12.390625 -12.410156 12.390625 -13.265625 C 12.390625 -14.117188 12.125 -14.800781 11.59375 -15.3125 C 11.070312 -15.820312 10.300781 -16.078125 9.28125 -16.078125 L 6.5625 -16.078125 Z M 6.5625 -10.625 "/></g></g></g><g fill="#fe6601" fill-opacity="1"><g transform="translate(283.74523, 194.192039)"><g><path d="M 7.671875 -16.71875 L 6.109375 -16.5 L 9.0625 -10.25 L 9.140625 -10.25 L 12.09375 -16.5 L 10.546875 -16.71875 L 10.546875 -19.015625 L 17.75 -19.015625 L 17.75 -16.71875 L 16.125 -16.453125 L 10.953125 -6.6875 L 10.953125 -2.671875 L 13 -2.28125 L 13 0 L 5.125 0 L 5.125 -2.28125 L 7.15625 -2.671875 L 7.15625 -6.890625 L 2.078125 -16.453125 L 0.46875 -16.71875 L 0.46875 -19.015625 L 7.671875 -19.015625 Z M 7.671875 -16.71875 "/></g></g></g><g fill="#fe6601" fill-opacity="1"><g transform="translate(139.462799, 216.652996)"><g><path d="M 0.46875 -10.875 L 0.46875 -12.375 L 5.59375 -12.375 L 5.59375 -10.875 L 4.265625 -10.625 L 4.265625 -1.75 L 5.59375 -1.484375 L 5.59375 0 L 0.46875 0 L 0.46875 -1.484375 L 1.796875 -1.75 L 1.796875 -10.625 Z M 0.46875 -10.875 "/></g></g></g><g fill="#fe6601" fill-opacity="1"><g transform="translate(145.522007, 216.652996)"><g><path d="M 13.125 -12.375 L 13.125 -10.875 L 11.796875 -10.625 L 11.796875 0 L 9.328125 0 L 4.328125 -8.328125 L 4.28125 -8.328125 L 4.28125 -1.75 L 5.59375 -1.484375 L 5.59375 0 L 0.46875 0 L 0.46875 -1.484375 L 1.796875 -1.75 L 1.796875 -10.625 L 0.46875 -10.875 L 0.46875 -12.375 L 4.28125 -12.375 L 9.265625 -4.046875 L 9.328125 -4.046875 L 9.328125 -10.625 L 8 -10.875 L 8 -12.375 Z M 13.125 -12.375 "/></g></g></g><g fill="#fe6601" fill-opacity="1"><g transform="translate(158.96613, 216.652996)"><g><path d="M 11.375 -12.375 L 11.375 -9.078125 L 9.46875 -9.078125 L 9.359375 -10.46875 L 7.09375 -10.46875 L 7.09375 -1.75 L 8.421875 -1.484375 L 8.421875 0 L 3.28125 0 L 3.28125 -1.484375 L 4.609375 -1.75 L 4.609375 -10.46875 L 2.34375 -10.46875 L 2.234375 -9.078125 L 0.34375 -9.078125 L 0.34375 -12.375 Z M 11.375 -12.375 "/></g></g></g><g fill="#fe6601" fill-opacity="1"><g transform="translate(170.668131, 216.652996)"><g><path d="M 8.46875 -5.4375 L 4.28125 -5.4375 L 4.28125 -1.90625 L 8.265625 -1.90625 L 8.375 -3.375 L 10.265625 -3.375 L 10.265625 0 L 0.46875 0 L 0.46875 -1.484375 L 1.796875 -1.75 L 1.796875 -10.625 L 0.46875 -10.875 L 0.46875 -12.375 L 10.25 -12.375 L 10.25 -8.984375 L 8.34375 -8.984375 L 8.234375 -10.46875 L 4.28125 -10.46875 L 4.28125 -7.359375 L 8.46875 -7.359375 Z M 8.46875 -5.4375 "/></g></g></g><g fill="#fe6601" fill-opacity="1"><g transform="translate(181.783753, 216.652996)"><g><path d="M 6.03125 -12.375 C 7.4375 -12.375 8.535156 -12.050781 9.328125 -11.40625 C 10.128906 -10.769531 10.53125 -9.882812 10.53125 -8.75 C 10.53125 -8.125 10.363281 -7.582031 10.03125 -7.125 C 9.695312 -6.664062 9.207031 -6.296875 8.5625 -6.015625 C 9.289062 -5.796875 9.816406 -5.4375 10.140625 -4.9375 C 10.460938 -4.4375 10.625 -3.8125 10.625 -3.0625 L 10.625 -2.4375 C 10.625 -2.164062 10.675781 -1.953125 10.78125 -1.796875 C 10.894531 -1.648438 11.078125 -1.5625 11.328125 -1.53125 L 11.625 -1.5 L 11.625 0 L 10.34375 0 C 9.53125 0 8.957031 -0.21875 8.625 -0.65625 C 8.300781 -1.09375 8.140625 -1.65625 8.140625 -2.34375 L 8.140625 -3.046875 C 8.140625 -3.648438 7.976562 -4.125 7.65625 -4.46875 C 7.34375 -4.8125 6.894531 -4.988281 6.3125 -5 L 4.28125 -5 L 4.28125 -1.75 L 5.59375 -1.484375 L 5.59375 0 L 0.46875 0 L 0.46875 -1.484375 L 1.796875 -1.75 L 1.796875 -10.625 L 0.46875 -10.875 L 0.46875 -12.375 Z M 4.28125 -6.921875 L 5.984375 -6.921875 C 6.679688 -6.921875 7.203125 -7.066406 7.546875 -7.359375 C 7.890625 -7.648438 8.0625 -8.078125 8.0625 -8.640625 C 8.0625 -9.191406 7.890625 -9.632812 7.546875 -9.96875 C 7.203125 -10.300781 6.695312 -10.46875 6.03125 -10.46875 L 4.28125 -10.46875 Z M 4.28125 -6.921875 "/></g></g></g><g fill="#fe6601" fill-opacity="1"><g transform="translate(193.749192, 216.652996)"><g><path d="M 13.125 -12.375 L 13.125 -10.875 L 11.796875 -10.625 L 11.796875 0 L 9.328125 0 L 4.328125 -8.328125 L 4.28125 -8.328125 L 4.28125 -1.75 L 5.59375 -1.484375 L 5.59375 0 L 0.46875 0 L 0.46875 -1.484375 L 1.796875 -1.75 L 1.796875 -10.625 L 0.46875 -10.875 L 0.46875 -12.375 L 4.28125 -12.375 L 9.265625 -4.046875 L 9.328125 -4.046875 L 9.328125 -10.625 L 8 -10.875 L 8 -12.375 Z M 13.125 -12.375 "/></g></g></g><g fill="#fe6601" fill-opacity="1"><g transform="translate(207.193315, 216.652996)"><g><path d="M 9.875 -8.421875 L 8.015625 -8.421875 L 7.6875 -10.125 C 7.476562 -10.257812 7.164062 -10.375 6.75 -10.46875 C 6.332031 -10.570312 5.894531 -10.625 5.4375 -10.625 C 4.75 -10.625 4.21875 -10.484375 3.84375 -10.203125 C 3.476562 -9.921875 3.296875 -9.550781 3.296875 -9.09375 C 3.296875 -8.675781 3.488281 -8.332031 3.875 -8.0625 C 4.269531 -7.789062 4.941406 -7.503906 5.890625 -7.203125 C 7.253906 -6.828125 8.285156 -6.328125 8.984375 -5.703125 C 9.691406 -5.078125 10.046875 -4.257812 10.046875 -3.25 C 10.046875 -2.1875 9.625 -1.347656 8.78125 -0.734375 C 7.945312 -0.128906 6.847656 0.171875 5.484375 0.171875 C 4.503906 0.171875 3.617188 0.0195312 2.828125 -0.28125 C 2.035156 -0.59375 1.375 -1.023438 0.84375 -1.578125 L 0.84375 -4.171875 L 2.765625 -4.171875 L 3.03125 -2.40625 C 3.28125 -2.195312 3.617188 -2.023438 4.046875 -1.890625 C 4.472656 -1.765625 4.953125 -1.703125 5.484375 -1.703125 C 6.160156 -1.703125 6.675781 -1.835938 7.03125 -2.109375 C 7.382812 -2.390625 7.5625 -2.765625 7.5625 -3.234375 C 7.5625 -3.703125 7.390625 -4.082031 7.046875 -4.375 C 6.710938 -4.664062 6.125 -4.9375 5.28125 -5.1875 C 3.8125 -5.613281 2.703125 -6.117188 1.953125 -6.703125 C 1.203125 -7.285156 0.828125 -8.085938 0.828125 -9.109375 C 0.828125 -10.109375 1.25 -10.925781 2.09375 -11.5625 C 2.945312 -12.195312 4.015625 -12.523438 5.296875 -12.546875 C 6.253906 -12.546875 7.125 -12.398438 7.90625 -12.109375 C 8.6875 -11.816406 9.34375 -11.429688 9.875 -10.953125 Z M 9.875 -8.421875 "/></g></g></g><g fill="#fe6601" fill-opacity="1"><g transform="translate(217.748057, 216.652996)"><g><path d="M 0.46875 -10.875 L 0.46875 -12.375 L 5.59375 -12.375 L 5.59375 -10.875 L 4.28125 -10.625 L 4.28125 -7.046875 L 9.328125 -7.046875 L 9.328125 -10.625 L 8 -10.875 L 8 -12.375 L 13.125 -12.375 L 13.125 -10.875 L 11.796875 -10.625 L 11.796875 -1.75 L 13.125 -1.484375 L 13.125 0 L 8 0 L 8 -1.484375 L 9.328125 -1.75 L 9.328125 -5.140625 L 4.28125 -5.140625 L 4.28125 -1.75 L 5.59375 -1.484375 L 5.59375 0 L 0.46875 0 L 0.46875 -1.484375 L 1.796875 -1.75 L 1.796875 -10.625 Z M 0.46875 -10.875 "/></g></g></g><g fill="#fe6601" fill-opacity="1"><g transform="translate(231.35365, 216.652996)"><g><path d="M 0.46875 -10.875 L 0.46875 -12.375 L 5.59375 -12.375 L 5.59375 -10.875 L 4.265625 -10.625 L 4.265625 -1.75 L 5.59375 -1.484375 L 5.59375 0 L 0.46875 0 L 0.46875 -1.484375 L 1.796875 -1.75 L 1.796875 -10.625 Z M 0.46875 -10.875 "/></g></g></g><g fill="#fe6601" fill-opacity="1"><g transform="translate(237.412859, 216.652996)"><g><path d="M 6.359375 -12.375 C 7.773438 -12.375 8.894531 -12.007812 9.71875 -11.28125 C 10.539062 -10.550781 10.953125 -9.597656 10.953125 -8.421875 C 10.953125 -7.234375 10.539062 -6.28125 9.71875 -5.5625 C 8.894531 -4.84375 7.773438 -4.484375 6.359375 -4.484375 L 4.28125 -4.484375 L 4.28125 -1.75 L 5.59375 -1.484375 L 5.59375 0 L 0.46875 0 L 0.46875 -1.484375 L 1.796875 -1.75 L 1.796875 -10.625 L 0.46875 -10.875 L 0.46875 -12.375 Z M 4.28125 -6.40625 L 6.359375 -6.40625 C 7.054688 -6.40625 7.582031 -6.59375 7.9375 -6.96875 C 8.289062 -7.34375 8.46875 -7.820312 8.46875 -8.40625 C 8.46875 -9 8.289062 -9.488281 7.9375 -9.875 C 7.582031 -10.269531 7.054688 -10.46875 6.359375 -10.46875 L 4.28125 -10.46875 Z M 4.28125 -6.40625 "/></g></g></g><g fill="#fe6601" fill-opacity="1"><g transform="translate(248.672954, 216.652996)"><g/></g></g><g fill="#fe6601" fill-opacity="1"><g transform="translate(252.939041, 216.652996)"><g><path d="M 9.875 -8.421875 L 8.015625 -8.421875 L 7.6875 -10.125 C 7.476562 -10.257812 7.164062 -10.375 6.75 -10.46875 C 6.332031 -10.570312 5.894531 -10.625 5.4375 -10.625 C 4.75 -10.625 4.21875 -10.484375 3.84375 -10.203125 C 3.476562 -9.921875 3.296875 -9.550781 3.296875 -9.09375 C 3.296875 -8.675781 3.488281 -8.332031 3.875 -8.0625 C 4.269531 -7.789062 4.941406 -7.503906 5.890625 -7.203125 C 7.253906 -6.828125 8.285156 -6.328125 8.984375 -5.703125 C 9.691406 -5.078125 10.046875 -4.257812 10.046875 -3.25 C 10.046875 -2.1875 9.625 -1.347656 8.78125 -0.734375 C 7.945312 -0.128906 6.847656 0.171875 5.484375 0.171875 C 4.503906 0.171875 3.617188 0.0195312 2.828125 -0.28125 C 2.035156 -0.59375 1.375 -1.023438 0.84375 -1.578125 L 0.84375 -4.171875 L 2.765625 -4.171875 L 3.03125 -2.40625 C 3.28125 -2.195312 3.617188 -2.023438 4.046875 -1.890625 C 4.472656 -1.765625 4.953125 -1.703125 5.484375 -1.703125 C 6.160156 -1.703125 6.675781 -1.835938 7.03125 -2.109375 C 7.382812 -2.390625 7.5625 -2.765625 7.5625 -3.234375 C 7.5625 -3.703125 7.390625 -4.082031 7.046875 -4.375 C 6.710938 -4.664062 6.125 -4.9375 5.28125 -5.1875 C 3.8125 -5.613281 2.703125 -6.117188 1.953125 -6.703125 C 1.203125 -7.285156 0.828125 -8.085938 0.828125 -9.109375 C 0.828125 -10.109375 1.25 -10.925781 2.09375 -11.5625 C 2.945312 -12.195312 4.015625 -12.523438 5.296875 -12.546875 C 6.253906 -12.546875 7.125 -12.398438 7.90625 -12.109375 C 8.6875 -11.816406 9.34375 -11.429688 9.875 -10.953125 Z M 9.875 -8.421875 "/></g></g></g><g fill="#fe6601" fill-opacity="1"><g transform="translate(263.493783, 216.652996)"><g><path d="M 4.984375 -10.875 L 3.984375 -10.734375 L 5.890625 -6.671875 L 5.953125 -6.671875 L 7.875 -10.734375 L 6.875 -10.875 L 6.875 -12.375 L 11.546875 -12.375 L 11.546875 -10.875 L 10.5 -10.703125 L 7.125 -4.359375 L 7.125 -1.75 L 8.453125 -1.484375 L 8.453125 0 L 3.328125 0 L 3.328125 -1.484375 L 4.65625 -1.75 L 4.65625 -4.484375 L 1.34375 -10.703125 L 0.3125 -10.875 L 0.3125 -12.375 L 4.984375 -12.375 Z M 4.984375 -10.875 "/></g></g></g><g fill="#fe6601" fill-opacity="1"><g transform="translate(275.374241, 216.652996)"><g><path d="M 9.875 -8.421875 L 8.015625 -8.421875 L 7.6875 -10.125 C 7.476562 -10.257812 7.164062 -10.375 6.75 -10.46875 C 6.332031 -10.570312 5.894531 -10.625 5.4375 -10.625 C 4.75 -10.625 4.21875 -10.484375 3.84375 -10.203125 C 3.476562 -9.921875 3.296875 -9.550781 3.296875 -9.09375 C 3.296875 -8.675781 3.488281 -8.332031 3.875 -8.0625 C 4.269531 -7.789062 4.941406 -7.503906 5.890625 -7.203125 C 7.253906 -6.828125 8.285156 -6.328125 8.984375 -5.703125 C 9.691406 -5.078125 10.046875 -4.257812 10.046875 -3.25 C 10.046875 -2.1875 9.625 -1.347656 8.78125 -0.734375 C 7.945312 -0.128906 6.847656 0.171875 5.484375 0.171875 C 4.503906 0.171875 3.617188 0.0195312 2.828125 -0.28125 C 2.035156 -0.59375 1.375 -1.023438 0.84375 -1.578125 L 0.84375 -4.171875 L 2.765625 -4.171875 L 3.03125 -2.40625 C 3.28125 -2.195312 3.617188 -2.023438 4.046875 -1.890625 C 4.472656 -1.765625 4.953125 -1.703125 5.484375 -1.703125 C 6.160156 -1.703125 6.675781 -1.835938 7.03125 -2.109375 C 7.382812 -2.390625 7.5625 -2.765625 7.5625 -3.234375 C 7.5625 -3.703125 7.390625 -4.082031 7.046875 -4.375 C 6.710938 -4.664062 6.125 -4.9375 5.28125 -5.1875 C 3.8125 -5.613281 2.703125 -6.117188 1.953125 -6.703125 C 1.203125 -7.285156 0.828125 -8.085938 0.828125 -9.109375 C 0.828125 -10.109375 1.25 -10.925781 2.09375 -11.5625 C 2.945312 -12.195312 4.015625 -12.523438 5.296875 -12.546875 C 6.253906 -12.546875 7.125 -12.398438 7.90625 -12.109375 C 8.6875 -11.816406 9.34375 -11.429688 9.875 -10.953125 Z M 9.875 -8.421875 "/></g></g></g><g fill="#fe6601" fill-opacity="1"><g transform="translate(285.928982, 216.652996)"><g><path d="M 11.375 -12.375 L 11.375 -9.078125 L 9.46875 -9.078125 L 9.359375 -10.46875 L 7.09375 -10.46875 L 7.09375 -1.75 L 8.421875 -1.484375 L 8.421875 0 L 3.28125 0 L 3.28125 -1.484375 L 4.609375 -1.75 L 4.609375 -10.46875 L 2.34375 -10.46875 L 2.234375 -9.078125 L 0.34375 -9.078125 L 0.34375 -12.375 Z M 11.375 -12.375 "/></g></g></g><g fill="#fe6601" fill-opacity="1"><g transform="translate(297.630983, 216.652996)"><g><path d="M 8.46875 -5.4375 L 4.28125 -5.4375 L 4.28125 -1.90625 L 8.265625 -1.90625 L 8.375 -3.375 L 10.265625 -3.375 L 10.265625 0 L 0.46875 0 L 0.46875 -1.484375 L 1.796875 -1.75 L 1.796875 -10.625 L 0.46875 -10.875 L 0.46875 -12.375 L 10.25 -12.375 L 10.25 -8.984375 L 8.34375 -8.984375 L 8.234375 -10.46875 L 4.28125 -10.46875 L 4.28125 -7.359375 L 8.46875 -7.359375 Z M 8.46875 -5.4375 "/></g></g></g><g fill="#fe6601" fill-opacity="1"><g transform="translate(308.746615, 216.652996)"><g><path d="M 12.421875 -9.15625 L 12.359375 -9.15625 L 9.046875 0 L 7.390625 0 L 4.09375 -9.125 L 4.03125 -9.125 L 4.28125 -3.6875 L 4.28125 -1.75 L 5.59375 -1.484375 L 5.59375 0 L 0.46875 0 L 0.46875 -1.484375 L 1.796875 -1.75 L 1.796875 -10.625 L 0.46875 -10.875 L 0.46875 -12.375 L 5.03125 -12.375 L 8.1875 -3.25 L 8.234375 -3.25 L 11.421875 -12.375 L 15.984375 -12.375 L 15.984375 -10.875 L 14.65625 -10.625 L 14.65625 -1.75 L 15.984375 -1.484375 L 15.984375 0 L 10.859375 0 L 10.859375 -1.484375 L 12.171875 -1.75 L 12.171875 -3.6875 Z M 12.421875 -9.15625 "/></g></g></g><g clip-path="url(#96c6dfec58)"><path fill="#1e5192" d="M 255.414062 115.121094 L 255.414062 96.96875 C 255.167969 97.210938 254.902344 97.441406 254.628906 97.648438 C 254.378906 97.84375 254.117188 98.019531 253.84375 98.1875 C 252.949219 98.734375 251.957031 99.105469 250.914062 99.265625 C 249.511719 99.480469 248.0625 99.398438 246.648438 99.398438 L 236.625 99.398438 C 236.589844 99.398438 236.550781 99.398438 236.515625 99.390625 L 236.515625 100.039062 C 236.515625 100.117188 236.519531 100.191406 236.515625 100.269531 C 236.496094 100.695312 236.179688 101.007812 235.757812 101.027344 C 235.007812 101.066406 234.25 101.027344 233.496094 101.027344 L 229.847656 101.027344 C 229.527344 101.027344 229.207031 101.035156 228.890625 101.027344 C 228.414062 101.019531 228.082031 100.699219 228.078125 100.21875 C 228.074219 99.945312 228.074219 99.667969 228.074219 99.398438 C 228.042969 99.402344 228.003906 99.402344 227.972656 99.402344 C 227.953125 99.402344 227.925781 99.402344 227.90625 99.402344 C 226.484375 99.421875 225.054688 99.402344 223.632812 99.402344 L 217.277344 99.402344 C 215.707031 99.402344 214.101562 99.5 212.585938 99.015625 C 211.953125 98.8125 211.335938 98.535156 210.753906 98.195312 C 210.480469 98.03125 210.21875 97.859375 209.96875 97.671875 C 209.691406 97.460938 209.429688 97.238281 209.183594 96.996094 L 209.183594 116.777344 C 209.183594 116.925781 209.179688 117.070312 209.191406 117.21875 C 209.292969 118.597656 210.417969 119.664062 211.804688 119.6875 C 212.144531 119.691406 212.480469 119.6875 212.820312 119.6875 L 251.375 119.6875 C 251.824219 119.6875 252.28125 119.6875 252.730469 119.6875 C 254.257812 119.679688 255.40625 118.476562 255.414062 116.964844 C 255.414062 116.339844 255.414062 115.730469 255.414062 115.121094 Z M 255.414062 115.121094 " fill-opacity="1" fill-rule="nonzero"/></g><g clip-path="url(#48d744e9c9)"><path fill="#1e5192" d="M 255.402344 88.878906 L 255.402344 87.078125 C 255.304688 85.707031 254.183594 84.628906 252.792969 84.609375 C 252.699219 84.609375 252.609375 84.609375 252.515625 84.609375 L 241.300781 84.609375 L 241.300781 80.703125 C 241.300781 79.90625 241.078125 79.15625 240.5 78.578125 C 239.960938 78.035156 239.234375 77.785156 238.476562 77.777344 C 237.792969 77.777344 237.113281 77.777344 236.425781 77.777344 L 226.410156 77.777344 C 226.277344 77.777344 226.148438 77.773438 226.023438 77.777344 C 224.519531 77.808594 223.339844 78.996094 223.300781 80.5 C 223.269531 81.863281 223.285156 83.238281 223.296875 84.609375 L 212.363281 84.609375 C 212.203125 84.609375 212.046875 84.609375 211.882812 84.609375 C 211.183594 84.609375 210.527344 84.851562 210.011719 85.332031 C 209.507812 85.800781 209.242188 86.445312 209.199219 87.121094 L 209.199219 89.65625 C 209.199219 90.023438 209.199219 90.382812 209.199219 90.75 C 209.199219 90.90625 209.199219 91.058594 209.210938 91.214844 C 209.214844 91.324219 209.226562 91.429688 209.238281 91.539062 C 209.238281 91.554688 209.242188 91.570312 209.242188 91.585938 C 209.269531 91.738281 209.289062 91.890625 209.320312 92.039062 C 209.398438 92.402344 209.515625 92.765625 209.644531 93.113281 C 209.644531 93.121094 209.644531 93.121094 209.652344 93.125 C 209.652344 93.128906 209.652344 93.128906 209.65625 93.136719 C 209.660156 93.144531 209.660156 93.152344 209.667969 93.160156 C 209.699219 93.234375 209.734375 93.308594 209.769531 93.382812 C 209.839844 93.519531 209.90625 93.648438 209.980469 93.777344 C 209.992188 93.800781 210 93.820312 210.015625 93.835938 C 210.117188 94.003906 210.21875 94.171875 210.335938 94.328125 C 210.382812 94.394531 210.433594 94.453125 210.476562 94.523438 C 210.472656 94.511719 210.464844 94.5 210.460938 94.492188 C 210.472656 94.507812 210.476562 94.515625 210.488281 94.527344 C 210.578125 94.636719 210.671875 94.746094 210.769531 94.851562 C 210.921875 95.015625 211.082031 95.171875 211.25 95.324219 C 211.320312 95.386719 211.386719 95.441406 211.460938 95.5 C 211.472656 95.511719 211.488281 95.519531 211.503906 95.53125 C 211.589844 95.589844 211.628906 95.609375 211.632812 95.613281 C 211.628906 95.613281 211.601562 95.59375 211.566406 95.574219 C 211.675781 95.648438 211.78125 95.730469 211.890625 95.804688 C 212.183594 95.992188 212.484375 96.160156 212.800781 96.304688 C 213.101562 96.398438 212.941406 96.363281 212.839844 96.328125 C 212.851562 96.332031 212.855469 96.332031 212.867188 96.335938 C 212.957031 96.367188 213.039062 96.40625 213.128906 96.429688 C 213.296875 96.488281 213.464844 96.542969 213.632812 96.589844 C 213.8125 96.636719 213.996094 96.675781 214.183594 96.714844 C 214.25 96.722656 214.3125 96.734375 214.375 96.746094 C 214.410156 96.75 214.445312 96.75 214.476562 96.753906 C 214.945312 96.796875 215.414062 96.785156 215.878906 96.785156 L 227.988281 96.785156 C 228.027344 96.785156 228.0625 96.785156 228.097656 96.792969 L 228.097656 95.53125 C 228.097656 95.164062 228.046875 94.773438 228.34375 94.5 C 228.601562 94.265625 228.9375 94.300781 229.253906 94.300781 L 235.585938 94.300781 C 235.648438 94.300781 235.714844 94.300781 235.777344 94.300781 C 236.183594 94.324219 236.472656 94.605469 236.527344 94.996094 C 236.53125 95.019531 236.53125 95.039062 236.53125 95.0625 C 236.53125 95.070312 236.53125 95.082031 236.53125 95.09375 L 236.53125 96.796875 C 236.566406 96.792969 236.605469 96.792969 236.640625 96.792969 L 236.707031 96.792969 C 238.09375 96.765625 239.480469 96.792969 240.863281 96.792969 L 249.480469 96.792969 C 249.707031 96.792969 249.925781 96.78125 250.152344 96.761719 C 250.191406 96.753906 250.242188 96.75 250.28125 96.746094 C 250.335938 96.734375 250.390625 96.730469 250.445312 96.71875 C 250.628906 96.683594 250.816406 96.644531 251 96.59375 C 251.183594 96.546875 251.359375 96.488281 251.539062 96.425781 C 251.621094 96.394531 251.699219 96.363281 251.785156 96.332031 C 252.109375 96.179688 252.417969 96.019531 252.714844 95.824219 C 252.8125 95.761719 252.90625 95.699219 253.003906 95.632812 C 253.027344 95.609375 253.113281 95.546875 253.148438 95.519531 C 253.148438 95.519531 253.152344 95.515625 253.152344 95.515625 C 253.160156 95.511719 253.167969 95.503906 253.167969 95.5 C 253.242188 95.441406 253.3125 95.378906 253.378906 95.324219 C 253.546875 95.175781 253.703125 95.019531 253.859375 94.851562 C 253.960938 94.746094 254.054688 94.640625 254.140625 94.527344 C 254.148438 94.515625 254.15625 94.511719 254.164062 94.5 C 254.207031 94.433594 254.261719 94.363281 254.308594 94.300781 C 254.410156 94.160156 254.503906 94.015625 254.585938 93.867188 C 254.601562 93.835938 254.625 93.804688 254.640625 93.777344 C 254.71875 93.636719 254.796875 93.496094 254.863281 93.351562 C 254.894531 93.28125 254.933594 93.210938 254.964844 93.140625 C 255.09375 92.796875 255.210938 92.445312 255.289062 92.078125 C 255.3125 91.964844 255.335938 91.84375 255.355469 91.730469 C 255.355469 91.730469 255.355469 91.722656 255.355469 91.722656 C 255.355469 91.722656 255.355469 91.71875 255.355469 91.71875 C 255.355469 91.714844 255.355469 91.707031 255.355469 91.703125 C 255.355469 91.699219 255.355469 91.691406 255.359375 91.6875 C 255.367188 91.632812 255.375 91.566406 255.382812 91.523438 C 255.390625 91.429688 255.398438 91.332031 255.402344 91.238281 C 255.40625 91.085938 255.414062 90.933594 255.417969 90.78125 L 255.417969 89.746094 C 255.40625 89.4375 255.402344 89.160156 255.402344 88.878906 Z M 238.703125 80.519531 C 238.703125 80.523438 238.703125 80.53125 238.707031 80.53125 C 238.707031 80.53125 238.707031 80.535156 238.707031 80.535156 C 238.710938 80.5625 238.71875 80.578125 238.707031 80.550781 C 238.703125 80.554688 238.691406 80.546875 238.6875 80.535156 C 238.710938 81.894531 238.703125 83.253906 238.691406 84.613281 L 225.914062 84.613281 L 225.914062 80.8125 C 225.914062 80.722656 225.914062 80.628906 225.914062 80.539062 C 225.898438 80.5625 225.886719 80.566406 225.882812 80.5625 C 225.871094 80.578125 225.871094 80.546875 225.875 80.507812 C 225.851562 80.539062 225.835938 80.546875 225.875 80.5 C 225.875 80.476562 225.882812 80.460938 225.886719 80.441406 C 225.886719 80.441406 225.886719 80.441406 225.882812 80.441406 C 225.882812 80.441406 225.882812 80.441406 225.886719 80.441406 C 225.890625 80.429688 225.890625 80.414062 225.898438 80.40625 C 225.859375 80.40625 225.871094 80.394531 225.902344 80.390625 C 225.90625 80.363281 225.917969 80.351562 225.917969 80.382812 C 225.929688 80.382812 225.9375 80.378906 225.953125 80.378906 C 225.953125 80.375 225.953125 80.375 225.953125 80.367188 C 225.953125 80.367188 225.953125 80.375 225.953125 80.375 C 225.976562 80.367188 225.992188 80.367188 226.011719 80.363281 C 226.03125 80.339844 226.042969 80.335938 226.046875 80.332031 C 226.042969 80.335938 226.03125 80.347656 226.015625 80.363281 C 226.058594 80.355469 226.089844 80.355469 226.074219 80.367188 C 226.078125 80.375 226.074219 80.382812 226.054688 80.398438 C 226.09375 80.398438 226.136719 80.398438 226.179688 80.398438 L 238.109375 80.398438 C 238.265625 80.398438 238.417969 80.394531 238.574219 80.398438 C 238.566406 80.394531 238.558594 80.394531 238.554688 80.390625 C 238.519531 80.367188 238.527344 80.363281 238.554688 80.355469 C 238.539062 80.347656 238.542969 80.347656 238.558594 80.355469 C 238.566406 80.355469 238.574219 80.355469 238.582031 80.355469 C 238.558594 80.339844 238.550781 80.332031 238.542969 80.324219 C 238.542969 80.324219 238.558594 80.335938 238.585938 80.355469 C 238.605469 80.355469 238.628906 80.363281 238.648438 80.363281 C 238.660156 80.363281 238.664062 80.367188 238.675781 80.367188 C 238.675781 80.355469 238.675781 80.351562 238.679688 80.351562 C 238.679688 80.351562 238.6875 80.355469 238.6875 80.367188 C 238.734375 80.378906 238.753906 80.390625 238.6875 80.394531 C 238.6875 80.40625 238.6875 80.410156 238.6875 80.421875 C 238.703125 80.425781 238.710938 80.429688 238.71875 80.429688 C 238.710938 80.429688 238.695312 80.429688 238.6875 80.425781 L 238.6875 80.429688 C 238.691406 80.4375 238.703125 80.441406 238.710938 80.453125 C 238.707031 80.453125 238.703125 80.445312 238.691406 80.441406 C 238.691406 80.453125 238.695312 80.457031 238.695312 80.46875 C 238.710938 80.488281 238.734375 80.507812 238.75 80.519531 C 238.734375 80.507812 238.71875 80.492188 238.703125 80.484375 C 238.703125 80.503906 238.703125 80.507812 238.703125 80.519531 Z M 238.703125 80.519531 " fill-opacity="1" fill-rule="nonzero"/></g></svg>