<svg xmlns="http://www.w3.org/2000/svg" xmlns:xlink="http://www.w3.org/1999/xlink" width="441" zoomAndPan="magnify" viewBox="0 0 330.75 155.249994" height="207" preserveAspectRatio="xMidYMid meet" version="1.0"><defs><g/><clipPath id="c714a4701e"><path d="M 125.238281 33.800781 L 204.511719 33.800781 L 204.511719 93.089844 L 125.238281 93.089844 Z M 125.238281 33.800781 " clip-rule="nonzero"/></clipPath><clipPath id="f649fbeda4"><path d="M 132.011719 75.507812 L 205.09375 75.507812 L 205.09375 114.855469 L 132.011719 114.855469 Z M 132.011719 75.507812 " clip-rule="nonzero"/></clipPath><clipPath id="2c533648a4"><path d="M 147 7 L 211 7 L 211 44 L 147 44 Z M 147 7 " clip-rule="nonzero"/></clipPath><clipPath id="ec9b4154cd"><path d="M 151.125 0 L 213.464844 15.304688 L 205.988281 45.75 L 143.652344 30.445312 Z M 151.125 0 " clip-rule="nonzero"/></clipPath><clipPath id="77d06bb6f5"><path d="M 151.125 0 L 213.464844 15.304688 L 205.988281 45.75 L 143.652344 30.445312 Z M 151.125 0 " clip-rule="nonzero"/></clipPath><clipPath id="e1a205fb5b"><path d="M 151.125 0 L 213.464844 15.304688 L 205.988281 45.75 L 143.652344 30.445312 Z M 151.125 0 " clip-rule="nonzero"/></clipPath><clipPath id="d5928d4a8d"><path d="M 137.683594 87.628906 L 182.050781 87.628906 L 182.050781 104.863281 L 137.683594 104.863281 Z M 137.683594 87.628906 " clip-rule="nonzero"/></clipPath><clipPath id="cb3182a83b"><path d="M 168 86.203125 L 176 86.203125 L 176 89 L 168 89 Z M 168 86.203125 " clip-rule="nonzero"/></clipPath><clipPath id="4b9be3ebca"><path d="M 148.816406 68 L 181.65625 68 L 181.65625 84.890625 L 148.816406 84.890625 Z M 148.816406 68 " clip-rule="nonzero"/></clipPath><clipPath id="6e289faa34"><path d="M 148.816406 55.035156 L 181.65625 55.035156 L 181.65625 69 L 148.816406 69 Z M 148.816406 55.035156 " clip-rule="nonzero"/></clipPath></defs><g clip-path="url(#c714a4701e)"><path fill="#000000" d="M 204.152344 70.609375 C 203.953125 69.058594 203.703125 67.804688 203.445312 66.703125 C 203.375 66.425781 203.316406 66.160156 203.246094 65.902344 C 203.179688 65.644531 203.113281 65.394531 203.046875 65.148438 C 202.972656 64.902344 202.902344 64.660156 202.835938 64.421875 C 202.769531 64.183594 202.6875 63.953125 202.617188 63.71875 C 201.875 61.398438 200.933594 59.164062 199.773438 57.027344 C 199.863281 57.144531 199.949219 57.257812 200.035156 57.367188 C 200.117188 57.480469 200.203125 57.59375 200.285156 57.707031 C 200.449219 57.929688 200.617188 58.15625 200.777344 58.390625 C 200.941406 58.625 201.109375 58.863281 201.273438 59.125 C 201.441406 59.386719 201.617188 59.660156 201.789062 59.964844 C 202.128906 60.527344 202.671875 61.726562 203.09375 62.808594 C 203.488281 63.832031 203.777344 64.671875 203.976562 65.261719 C 204.175781 65.851562 204.289062 66.191406 204.332031 66.21875 C 204.351562 66.234375 204.355469 66.171875 204.332031 66.023438 C 204.316406 65.875 204.269531 65.640625 204.199219 65.320312 C 204.058594 64.675781 203.800781 63.667969 203.335938 62.273438 C 203.226562 61.945312 203.175781 61.726562 203.148438 61.527344 C 203.121094 61.332031 203.117188 61.164062 203.066406 60.949219 C 203.1875 61.21875 203.289062 61.476562 203.386719 61.71875 C 203.488281 61.960938 203.578125 62.191406 203.660156 62.40625 C 203.742188 62.621094 203.820312 62.820312 203.886719 63.003906 C 203.953125 63.191406 204.015625 63.359375 204.070312 63.511719 C 204.183594 63.816406 204.261719 64.054688 204.324219 64.222656 C 204.386719 64.386719 204.425781 64.484375 204.441406 64.5 C 204.46875 64.53125 204.417969 64.25 204.246094 63.617188 C 204.160156 63.304688 204.050781 62.898438 203.890625 62.40625 C 203.8125 62.164062 203.730469 61.890625 203.625 61.601562 C 203.527344 61.3125 203.421875 60.996094 203.289062 60.664062 C 202.273438 57.9375 201.078125 55.492188 199.730469 53.246094 C 198.382812 51 196.882812 48.953125 195.203125 47.0625 C 194.183594 45.910156 193.113281 44.839844 192.003906 43.832031 C 190.894531 42.824219 189.742188 41.878906 188.535156 41.003906 C 187.328125 40.128906 186.074219 39.316406 184.765625 38.566406 C 183.457031 37.820312 182.09375 37.132812 180.664062 36.523438 C 180.375 36.40625 180.042969 36.269531 179.679688 36.136719 C 179.3125 36.003906 178.914062 35.859375 178.5 35.730469 C 178.292969 35.664062 178.082031 35.597656 177.867188 35.53125 C 177.652344 35.46875 177.4375 35.40625 177.222656 35.34375 C 177.113281 35.316406 177.003906 35.285156 176.898438 35.253906 C 176.789062 35.226562 176.683594 35.195312 176.574219 35.167969 C 176.363281 35.113281 176.148438 35.058594 175.941406 35.003906 C 173.359375 34.359375 170.707031 33.972656 168.035156 33.847656 C 165.367188 33.722656 162.675781 33.851562 160.003906 34.257812 C 157.332031 34.660156 154.6875 35.335938 152.125 36.285156 C 149.5625 37.230469 147.089844 38.445312 144.753906 39.914062 C 139.285156 43.339844 134.644531 48.042969 131.289062 53.539062 C 129.609375 56.28125 128.257812 59.226562 127.253906 62.28125 C 126.265625 65.339844 125.621094 68.507812 125.367188 71.699219 C 125.269531 72.914062 125.226562 74.101562 125.238281 75.253906 C 125.253906 76.410156 125.3125 77.53125 125.417969 78.613281 C 125.527344 79.695312 125.671875 80.738281 125.855469 81.738281 C 125.902344 81.988281 125.953125 82.234375 126 82.476562 C 126.027344 82.601562 126.050781 82.722656 126.074219 82.84375 C 126.101562 82.964844 126.128906 83.082031 126.15625 83.203125 C 126.214844 83.441406 126.265625 83.675781 126.324219 83.910156 C 126.382812 84.140625 126.445312 84.371094 126.503906 84.597656 C 126.5625 84.824219 126.628906 85.046875 126.695312 85.269531 C 126.757812 85.488281 126.820312 85.707031 126.890625 85.921875 C 127.027344 86.351562 127.160156 86.769531 127.308594 87.171875 C 127.382812 87.375 127.453125 87.574219 127.527344 87.769531 C 127.605469 87.964844 127.679688 88.15625 127.753906 88.347656 C 127.792969 88.441406 127.828125 88.535156 127.867188 88.628906 C 127.90625 88.722656 127.945312 88.8125 127.984375 88.90625 C 128.0625 89.085938 128.140625 89.265625 128.21875 89.445312 C 128.847656 90.855469 129.515625 92.058594 130.152344 93.050781 C 129.003906 90.585938 128.089844 87.960938 127.460938 85.277344 C 126.832031 82.597656 126.492188 79.859375 126.4375 77.1875 C 126.378906 73.90625 126.742188 70.957031 127.417969 68.003906 C 127.757812 66.527344 128.175781 65.046875 128.703125 63.527344 C 129.230469 62.007812 129.851562 60.445312 130.625 58.8125 C 131.09375 57.824219 131.703125 56.988281 132.230469 56.25 C 132.308594 56.140625 132.382812 56.035156 132.453125 55.941406 C 132.527344 55.847656 132.59375 55.761719 132.664062 55.679688 C 132.796875 55.515625 132.917969 55.375 133.039062 55.234375 C 133.164062 55.097656 133.285156 54.964844 133.414062 54.824219 C 133.542969 54.683594 133.671875 54.527344 133.824219 54.355469 C 133.980469 54.179688 134.140625 53.976562 134.335938 53.738281 C 134.433594 53.621094 134.535156 53.492188 134.644531 53.351562 C 134.757812 53.210938 134.875 53.058594 135.003906 52.898438 C 135.132812 52.734375 135.273438 52.5625 135.421875 52.371094 C 135.570312 52.183594 135.734375 51.980469 135.910156 51.761719 C 136.257812 51.324219 136.664062 50.832031 137.144531 50.269531 C 137.523438 50.050781 138.019531 49.683594 138.707031 49.136719 C 139.394531 48.59375 140.273438 47.871094 141.445312 46.976562 C 141.578125 46.875 141.53125 46.976562 141.386719 47.167969 C 141.3125 47.261719 141.214844 47.382812 141.101562 47.511719 C 140.988281 47.640625 140.859375 47.78125 140.726562 47.917969 C 139.878906 48.785156 139.023438 49.730469 138.253906 50.699219 C 137.480469 51.664062 136.789062 52.644531 136.242188 53.5625 C 137.035156 52.433594 137.902344 51.34375 138.804688 50.320312 C 139.527344 49.496094 140.300781 48.664062 141.097656 47.898438 C 141.894531 47.128906 142.714844 46.417969 143.507812 45.824219 C 144.558594 45.039062 145.21875 44.714844 146.054688 44.269531 C 146.160156 44.210938 146.265625 44.152344 146.378906 44.089844 C 146.492188 44.03125 146.609375 43.96875 146.730469 43.902344 C 146.972656 43.769531 147.238281 43.621094 147.539062 43.453125 C 147.691406 43.371094 147.847656 43.28125 148.015625 43.183594 C 148.183594 43.089844 148.363281 42.992188 148.554688 42.882812 C 148.742188 42.773438 148.945312 42.664062 149.160156 42.542969 C 149.265625 42.484375 149.378906 42.421875 149.492188 42.359375 C 149.605469 42.292969 149.722656 42.230469 149.84375 42.164062 C 150.058594 42.105469 150.289062 42.03125 150.527344 41.964844 C 150.761719 41.898438 151 41.832031 151.226562 41.769531 C 151.679688 41.65625 152.078125 41.570312 152.292969 41.570312 C 152.414062 41.574219 152.308594 41.671875 152.070312 41.835938 C 151.832031 42 151.453125 42.214844 151.03125 42.453125 C 150.722656 42.617188 150.386719 42.808594 150.019531 43.007812 C 149.839844 43.105469 149.65625 43.214844 149.464844 43.324219 C 149.371094 43.375 149.277344 43.429688 149.179688 43.484375 C 149.085938 43.542969 148.992188 43.597656 148.894531 43.65625 C 148.128906 44.105469 147.359375 44.609375 146.71875 45.070312 C 145.671875 45.832031 144.914062 46.5 144.082031 47.261719 C 144.253906 47.121094 144.410156 47.011719 144.542969 46.914062 C 144.671875 46.820312 144.785156 46.742188 144.878906 46.679688 C 145.066406 46.558594 145.183594 46.503906 145.257812 46.476562 C 145.410156 46.429688 145.382812 46.523438 145.414062 46.574219 C 145.445312 46.628906 145.53125 46.632812 145.894531 46.414062 C 146.265625 46.207031 146.902344 45.753906 148.117188 44.996094 C 148.285156 44.890625 148.53125 44.753906 148.804688 44.609375 C 149.085938 44.46875 149.386719 44.316406 149.671875 44.1875 C 149.953125 44.0625 150.210938 43.953125 150.394531 43.882812 C 150.578125 43.8125 150.679688 43.78125 150.652344 43.808594 C 150.296875 44.144531 150.273438 44.277344 150.488281 44.238281 C 150.597656 44.21875 150.769531 44.164062 150.996094 44.074219 C 151.105469 44.03125 151.230469 43.972656 151.371094 43.917969 C 151.507812 43.859375 151.660156 43.792969 151.820312 43.722656 C 151.902344 43.6875 151.988281 43.652344 152.074219 43.613281 C 152.160156 43.578125 152.25 43.539062 152.34375 43.5 C 152.527344 43.421875 152.722656 43.335938 152.929688 43.25 C 153.132812 43.167969 153.351562 43.078125 153.574219 42.988281 C 153.796875 42.898438 154.03125 42.8125 154.273438 42.71875 C 155.238281 42.355469 156.328125 41.996094 157.46875 41.699219 C 158.519531 41.425781 159.71875 41.167969 160.953125 40.984375 C 162.1875 40.796875 163.457031 40.679688 164.648438 40.652344 C 165.835938 40.621094 166.945312 40.675781 167.851562 40.785156 C 168.757812 40.890625 169.464844 41.054688 169.867188 41.222656 C 169.90625 41.242188 169.964844 41.257812 170.042969 41.277344 C 170.121094 41.300781 170.214844 41.324219 170.324219 41.351562 C 170.4375 41.375 170.558594 41.402344 170.695312 41.429688 C 170.765625 41.445312 170.835938 41.457031 170.90625 41.472656 C 170.980469 41.488281 171.054688 41.507812 171.132812 41.523438 C 171.441406 41.589844 171.78125 41.65625 172.125 41.734375 C 172.300781 41.769531 172.472656 41.804688 172.644531 41.84375 C 172.816406 41.882812 172.988281 41.917969 173.152344 41.957031 C 174.054688 42.15625 174.832031 42.355469 175.351562 42.53125 C 175.613281 42.621094 175.8125 42.691406 175.925781 42.757812 C 176.042969 42.824219 176.078125 42.875 176.019531 42.910156 C 175.945312 42.957031 176.050781 43.035156 176.273438 43.136719 C 176.496094 43.238281 176.835938 43.371094 177.246094 43.515625 C 178.058594 43.808594 179.125 44.195312 180.019531 44.5625 C 184.046875 46.179688 187.777344 48.601562 190.921875 51.628906 C 194.074219 54.65625 196.636719 58.28125 198.4375 62.226562 C 198.566406 62.515625 198.714844 62.824219 198.84375 63.148438 C 198.914062 63.308594 198.980469 63.472656 199.050781 63.632812 C 199.113281 63.796875 199.179688 63.960938 199.242188 64.121094 C 199.5 64.765625 199.722656 65.382812 199.902344 65.839844 C 199.996094 66.066406 200.066406 66.257812 200.132812 66.390625 C 200.195312 66.523438 200.246094 66.597656 200.28125 66.601562 C 200.316406 66.605469 200.332031 66.53125 200.328125 66.371094 C 200.328125 66.210938 200.308594 65.960938 200.25 65.609375 C 200.199219 65.304688 200.347656 65.539062 200.554688 65.980469 C 200.652344 66.203125 200.773438 66.476562 200.882812 66.761719 C 200.992188 67.046875 201.105469 67.34375 201.199219 67.609375 C 201.539062 68.582031 201.859375 69.746094 202.113281 70.902344 C 202.371094 72.0625 202.5625 73.210938 202.710938 74.148438 C 202.796875 74.640625 202.855469 75.042969 202.921875 75.285156 C 202.984375 75.53125 203.039062 75.621094 203.09375 75.480469 C 203.117188 75.410156 203.140625 75.285156 203.160156 75.09375 C 203.179688 74.902344 203.207031 74.648438 203.210938 74.316406 C 203.214844 74.152344 203.21875 73.96875 203.21875 73.765625 C 203.222656 73.5625 203.210938 73.339844 203.207031 73.097656 C 203.203125 72.976562 203.199219 72.847656 203.195312 72.71875 C 203.1875 72.585938 203.175781 72.449219 203.167969 72.304688 C 203.160156 72.164062 203.148438 72.015625 203.140625 71.863281 C 203.128906 71.710938 203.109375 71.550781 203.097656 71.386719 C 202.945312 69.882812 202.980469 69.476562 202.984375 68.855469 C 202.980469 68.699219 202.976562 68.53125 202.960938 68.332031 C 202.953125 68.230469 202.945312 68.121094 202.929688 68 C 202.914062 67.878906 202.894531 67.75 202.871094 67.605469 C 202.847656 67.460938 202.820312 67.304688 202.789062 67.128906 C 202.75 66.957031 202.710938 66.769531 202.660156 66.5625 C 202.636719 66.460938 202.613281 66.351562 202.585938 66.238281 C 202.554688 66.128906 202.523438 66.011719 202.492188 65.886719 C 202.421875 65.644531 202.355469 65.378906 202.261719 65.09375 C 202.332031 65.066406 202.300781 64.640625 202.484375 65.078125 C 202.554688 65.246094 202.621094 65.421875 202.691406 65.601562 C 202.757812 65.785156 202.828125 65.972656 202.902344 66.164062 C 202.96875 66.359375 203.035156 66.5625 203.109375 66.773438 C 203.140625 66.875 203.179688 66.984375 203.214844 67.09375 C 203.25 67.203125 203.28125 67.3125 203.316406 67.425781 C 203.597656 68.332031 203.886719 69.375 204.152344 70.609375 " fill-opacity="1" fill-rule="nonzero"/></g><g clip-path="url(#f649fbeda4)"><path fill="#000000" d="M 152.878906 108.460938 C 153.058594 108.539062 153.234375 108.621094 153.410156 108.699219 C 153.589844 108.777344 153.769531 108.851562 153.945312 108.925781 C 154.304688 109.082031 154.671875 109.214844 155.042969 109.347656 C 155.234375 109.414062 155.429688 109.472656 155.625 109.535156 C 155.722656 109.5625 155.820312 109.59375 155.917969 109.621094 C 156.015625 109.648438 156.113281 109.675781 156.214844 109.703125 C 156.410156 109.753906 156.609375 109.808594 156.808594 109.859375 C 157.007812 109.90625 157.207031 109.957031 157.40625 110.003906 C 157.214844 109.941406 157.019531 109.878906 156.824219 109.816406 C 156.632812 109.75 156.4375 109.679688 156.242188 109.609375 C 156.144531 109.574219 156.046875 109.542969 155.949219 109.507812 C 155.851562 109.46875 155.753906 109.433594 155.652344 109.394531 C 155.457031 109.316406 155.253906 109.242188 155.050781 109.164062 C 154.820312 109.09375 154.609375 109.03125 154.414062 108.972656 C 154.214844 108.914062 154.03125 108.851562 153.855469 108.792969 C 153.503906 108.683594 153.191406 108.570312 152.878906 108.460938 Z M 182.367188 110.410156 C 181.316406 110.886719 180.261719 111.363281 179.175781 111.773438 C 179.386719 111.738281 179.570312 111.746094 179.808594 111.660156 C 179.992188 111.589844 180.171875 111.523438 180.355469 111.453125 C 180.449219 111.421875 180.539062 111.386719 180.632812 111.351562 C 180.726562 111.3125 180.820312 111.273438 180.914062 111.238281 C 181.101562 111.160156 181.296875 111.082031 181.496094 111 C 181.691406 110.914062 181.894531 110.824219 182.105469 110.734375 C 182.949219 110.355469 183.914062 109.898438 185.09375 109.246094 C 185.003906 109.289062 184.914062 109.332031 184.828125 109.371094 C 184.742188 109.410156 184.660156 109.449219 184.578125 109.484375 C 184.417969 109.554688 184.269531 109.617188 184.132812 109.679688 C 183.855469 109.796875 183.613281 109.890625 183.402344 109.976562 C 183.296875 110.019531 183.199219 110.0625 183.105469 110.097656 C 183.011719 110.136719 182.925781 110.171875 182.839844 110.207031 C 182.671875 110.273438 182.515625 110.339844 182.367188 110.410156 Z M 153.390625 108.886719 C 152.609375 108.589844 152.066406 108.460938 151.425781 108.230469 C 151.511719 108.273438 151.601562 108.320312 151.6875 108.363281 C 151.773438 108.40625 151.859375 108.449219 151.949219 108.492188 C 152.125 108.578125 152.300781 108.667969 152.472656 108.753906 C 152.652344 108.835938 152.828125 108.914062 153.003906 108.992188 C 153.09375 109.03125 153.179688 109.066406 153.269531 109.105469 C 153.355469 109.140625 153.445312 109.175781 153.53125 109.207031 C 153.75 109.289062 153.960938 109.367188 154.199219 109.445312 C 154.4375 109.523438 154.695312 109.605469 154.996094 109.695312 C 155.597656 109.867188 156.371094 110.089844 157.507812 110.339844 C 156.316406 109.996094 155.480469 109.683594 154.839844 109.445312 C 154.203125 109.203125 153.765625 109.019531 153.390625 108.886719 Z M 139.789062 98.875 C 142.167969 101.441406 144.929688 103.710938 148.011719 105.5625 C 148.78125 106.023438 149.570312 106.46875 150.378906 106.875 C 151.1875 107.28125 152.011719 107.664062 152.855469 108.019531 C 154.542969 108.71875 156.292969 109.308594 158.097656 109.753906 C 158.828125 109.945312 159.582031 110.085938 160.332031 110.21875 L 160.898438 110.304688 L 161.183594 110.347656 L 161.46875 110.386719 C 161.65625 110.410156 161.847656 110.4375 162.035156 110.460938 C 162.222656 110.484375 162.414062 110.503906 162.601562 110.527344 C 163.542969 110.632812 164.03125 110.632812 164.292969 110.609375 C 164.554688 110.585938 164.589844 110.535156 164.632812 110.488281 C 164.675781 110.4375 164.722656 110.390625 165.007812 110.363281 C 165.148438 110.347656 165.347656 110.34375 165.636719 110.34375 C 165.777344 110.339844 165.945312 110.339844 166.136719 110.339844 C 166.328125 110.339844 166.542969 110.347656 166.789062 110.34375 C 165.515625 110.292969 164.332031 110.15625 162.988281 110.003906 C 160.410156 109.699219 157.855469 109.113281 155.398438 108.246094 C 152.945312 107.371094 150.582031 106.230469 148.394531 104.828125 L 148.496094 104.78125 L 148.734375 104.929688 L 148.976562 105.074219 L 149.460938 105.359375 C 149.789062 105.539062 150.113281 105.726562 150.445312 105.898438 C 151.105469 106.253906 151.78125 106.574219 152.464844 106.890625 C 153.839844 107.5 155.253906 108.035156 156.710938 108.464844 C 158.167969 108.902344 159.667969 109.234375 161.199219 109.476562 C 161.964844 109.589844 162.738281 109.695312 163.519531 109.753906 C 163.910156 109.796875 164.304688 109.8125 164.699219 109.839844 C 164.898438 109.847656 165.09375 109.855469 165.292969 109.863281 L 165.589844 109.875 C 165.691406 109.878906 165.789062 109.878906 165.890625 109.878906 C 163 109.621094 160 109.078125 156.957031 108.113281 C 153.917969 107.144531 150.835938 105.75 147.875 103.8125 C 145.808594 102.46875 143.894531 100.871094 142.175781 99.085938 L 142.011719 98.917969 L 141.855469 98.746094 L 141.539062 98.40625 C 141.328125 98.179688 141.128906 97.941406 140.921875 97.710938 C 140.722656 97.472656 140.519531 97.238281 140.324219 96.996094 L 139.890625 96.453125 L 139.746094 96.269531 C 138.992188 95.285156 138.289062 94.261719 137.644531 93.207031 L 137.777344 93.148438 C 139.542969 95.972656 141.730469 98.53125 144.234375 100.714844 L 144.207031 100.582031 C 141.824219 98.472656 139.734375 96.027344 138.011719 93.289062 C 136.289062 90.550781 134.933594 87.519531 134.042969 84.253906 C 134.722656 86.539062 135.625 88.707031 136.71875 90.746094 C 137.816406 92.789062 139.105469 94.703125 140.5625 96.480469 C 142.023438 98.261719 143.648438 99.910156 145.445312 101.410156 C 147.238281 102.90625 149.195312 104.261719 151.316406 105.441406 C 151.980469 105.808594 152.667969 106.15625 153.378906 106.488281 C 154.097656 106.808594 154.832031 107.121094 155.585938 107.398438 C 157.101562 107.957031 158.691406 108.410156 160.316406 108.742188 C 161.128906 108.90625 161.949219 109.046875 162.777344 109.148438 L 163.085938 109.1875 L 163.398438 109.222656 C 163.605469 109.242188 163.8125 109.269531 164.019531 109.285156 C 164.226562 109.304688 164.433594 109.320312 164.640625 109.335938 C 164.847656 109.355469 165.054688 109.363281 165.261719 109.375 C 165.675781 109.40625 166.089844 109.410156 166.5 109.425781 C 166.707031 109.429688 166.914062 109.429688 167.117188 109.433594 L 167.425781 109.433594 L 167.734375 109.429688 C 168.554688 109.425781 169.367188 109.378906 170.164062 109.320312 C 170.378906 109.300781 170.589844 109.28125 170.800781 109.265625 C 171.007812 109.242188 171.214844 109.222656 171.417969 109.199219 C 171.519531 109.1875 171.621094 109.179688 171.71875 109.167969 C 171.820312 109.15625 171.917969 109.140625 172.019531 109.128906 C 172.214844 109.105469 172.410156 109.078125 172.601562 109.054688 C 172.980469 108.996094 173.355469 108.949219 173.710938 108.886719 C 173.890625 108.855469 174.066406 108.828125 174.238281 108.796875 C 174.410156 108.765625 174.578125 108.734375 174.746094 108.703125 C 176.070312 108.457031 177.1875 108.191406 178.066406 107.988281 C 178.175781 107.960938 178.28125 107.9375 178.382812 107.914062 C 178.484375 107.890625 178.585938 107.867188 178.679688 107.84375 C 178.867188 107.800781 179.042969 107.765625 179.203125 107.734375 C 179.515625 107.667969 179.769531 107.625 179.960938 107.613281 C 180.332031 107.585938 180.441406 107.671875 180.238281 107.90625 C 180.105469 108.058594 180.351562 108.140625 179.820312 108.5 C 179.757812 108.546875 179.675781 108.597656 179.585938 108.652344 C 179.492188 108.703125 179.382812 108.757812 179.257812 108.820312 C 179.132812 108.882812 178.988281 108.953125 178.828125 109.027344 C 178.664062 109.097656 178.484375 109.171875 178.277344 109.253906 C 177.460938 109.570312 176.285156 109.96875 174.578125 110.339844 C 174.285156 110.398438 173.96875 110.476562 173.632812 110.554688 C 173.464844 110.59375 173.292969 110.632812 173.121094 110.671875 C 173.035156 110.695312 172.945312 110.714844 172.855469 110.738281 C 172.769531 110.757812 172.679688 110.777344 172.589844 110.796875 C 172.410156 110.835938 172.230469 110.875 172.046875 110.914062 C 171.863281 110.953125 171.679688 110.988281 171.5 111.023438 C 171.132812 111.101562 170.765625 111.160156 170.414062 111.214844 C 172.457031 111.039062 174.53125 110.648438 176.421875 110.121094 C 177.367188 109.855469 178.261719 109.550781 179.085938 109.234375 C 179.292969 109.152344 179.496094 109.074219 179.691406 108.996094 C 179.890625 108.910156 180.082031 108.828125 180.269531 108.746094 C 180.457031 108.664062 180.636719 108.578125 180.8125 108.496094 C 180.988281 108.410156 181.160156 108.332031 181.324219 108.246094 C 182.328125 107.742188 183.238281 107.242188 184.097656 106.746094 C 184.957031 106.25 185.757812 105.757812 186.527344 105.257812 C 187.292969 104.753906 188.027344 104.246094 188.746094 103.710938 C 189.464844 103.175781 190.160156 102.613281 190.851562 102.007812 C 191.015625 101.867188 191.171875 101.726562 191.332031 101.589844 C 191.484375 101.449219 191.640625 101.3125 191.789062 101.175781 C 191.945312 101.039062 192.09375 100.902344 192.238281 100.765625 C 192.386719 100.625 192.535156 100.492188 192.679688 100.351562 C 193.257812 99.796875 193.8125 99.226562 194.355469 98.578125 C 195.195312 97.578125 195.824219 96.742188 196.320312 96.082031 C 196.8125 95.417969 197.171875 94.925781 197.441406 94.585938 C 197.578125 94.414062 197.691406 94.28125 197.78125 94.183594 C 197.875 94.082031 197.953125 94.019531 198.011719 93.984375 C 198.132812 93.914062 198.191406 93.964844 198.207031 94.097656 C 198.214844 94.160156 198.339844 94.050781 198.511719 93.84375 C 198.597656 93.738281 198.695312 93.609375 198.796875 93.460938 C 198.894531 93.316406 199.003906 93.152344 199.097656 92.980469 C 199.796875 91.757812 200.261719 90.800781 200.640625 89.992188 C 200.734375 89.789062 200.820312 89.59375 200.902344 89.40625 C 200.945312 89.3125 200.988281 89.222656 201.027344 89.128906 C 201.066406 89.039062 201.105469 88.949219 201.144531 88.859375 C 201.21875 88.683594 201.292969 88.507812 201.367188 88.335938 C 201.433594 88.164062 201.503906 87.992188 201.574219 87.820312 C 201.855469 87.132812 202.125 86.421875 202.441406 85.515625 C 202.757812 84.605469 203.113281 83.496094 203.480469 81.984375 C 203.128906 83.882812 202.667969 85.585938 202.128906 87.171875 C 201.59375 88.757812 200.976562 90.226562 200.296875 91.664062 C 200.1875 91.894531 200.046875 92.183594 199.914062 92.488281 C 199.773438 92.792969 199.625 93.105469 199.496094 93.394531 C 199.230469 93.960938 199.035156 94.40625 199.085938 94.363281 C 199.179688 94.296875 199.320312 94.136719 199.507812 93.894531 C 199.601562 93.773438 199.710938 93.636719 199.820312 93.476562 C 199.933594 93.316406 200.054688 93.136719 200.183594 92.941406 C 200.691406 92.160156 201.304688 91.097656 201.890625 89.863281 C 202.480469 88.632812 203.042969 87.230469 203.484375 85.804688 C 203.933594 84.378906 204.269531 82.929688 204.480469 81.628906 C 204.640625 80.65625 204.726562 79.59375 204.8125 78.675781 C 204.914062 77.574219 205.007812 76.589844 205.050781 75.546875 C 205.066406 75.875 205.089844 76.175781 205.109375 76.496094 C 205.125 76.8125 205.132812 77.148438 205.128906 77.542969 L 205.101562 78.191406 L 205.09375 78.515625 L 205.070312 78.839844 L 205.03125 79.488281 L 204.976562 80.132812 L 204.949219 80.460938 L 204.910156 80.785156 C 204.886719 81 204.863281 81.214844 204.839844 81.433594 C 204.808594 81.648438 204.777344 81.863281 204.75 82.082031 L 204.703125 82.40625 L 204.648438 82.730469 C 204.613281 82.945312 204.578125 83.160156 204.542969 83.378906 C 204.5 83.59375 204.457031 83.808594 204.417969 84.027344 C 204.394531 84.132812 204.375 84.242188 204.351562 84.351562 L 204.28125 84.675781 C 204.234375 84.890625 204.1875 85.105469 204.136719 85.324219 C 203.925781 86.1875 203.6875 87.050781 203.414062 87.914062 C 202.191406 91.726562 200.355469 95.359375 198 98.636719 C 195.644531 101.917969 192.761719 104.835938 189.492188 107.246094 C 188.148438 108.242188 186.734375 109.140625 185.273438 109.957031 C 184.539062 110.359375 183.796875 110.75 183.035156 111.105469 C 182.660156 111.289062 182.273438 111.453125 181.890625 111.625 C 181.699219 111.710938 181.507812 111.789062 181.3125 111.871094 C 181.117188 111.949219 180.925781 112.035156 180.730469 112.109375 C 179.171875 112.722656 177.570312 113.246094 175.941406 113.65625 C 175.738281 113.707031 175.535156 113.757812 175.332031 113.804688 L 174.714844 113.945312 L 174.410156 114.011719 L 174.101562 114.074219 L 173.480469 114.195312 C 172.65625 114.34375 171.824219 114.480469 170.992188 114.574219 C 170.15625 114.675781 169.320312 114.742188 168.480469 114.796875 L 167.851562 114.824219 L 167.539062 114.835938 L 167.222656 114.84375 L 166.59375 114.855469 C 166.382812 114.855469 166.171875 114.851562 165.964844 114.851562 C 165.125 114.851562 164.285156 114.808594 163.445312 114.753906 L 162.816406 114.703125 L 162.503906 114.675781 L 162.1875 114.644531 L 161.5625 114.574219 L 160.9375 114.492188 C 157.597656 114.042969 154.320312 113.148438 151.203125 111.863281 C 151.394531 111.917969 151.589844 111.976562 151.792969 112.039062 C 151.894531 112.074219 151.996094 112.105469 152.101562 112.136719 C 152.207031 112.167969 152.3125 112.199219 152.417969 112.234375 C 152.632812 112.300781 152.847656 112.363281 153.070312 112.433594 C 153.292969 112.5 153.515625 112.566406 153.746094 112.632812 C 154.65625 112.890625 155.609375 113.152344 156.546875 113.355469 C 156.78125 113.410156 157.003906 113.449219 157.21875 113.488281 C 157.433594 113.527344 157.640625 113.566406 157.84375 113.597656 C 158.25 113.65625 158.636719 113.714844 159.054688 113.761719 C 158.65625 113.671875 158.195312 113.535156 157.773438 113.425781 C 157.351562 113.300781 156.96875 113.191406 156.722656 113.136719 C 155.53125 112.867188 154.527344 112.542969 153.617188 112.199219 C 153.160156 112.03125 152.734375 111.84375 152.308594 111.664062 C 151.890625 111.472656 151.480469 111.289062 151.070312 111.082031 C 150.25 110.679688 149.425781 110.234375 148.511719 109.722656 C 147.597656 109.207031 146.59375 108.617188 145.425781 107.882812 C 145.222656 107.753906 145.066406 107.65625 144.953125 107.578125 C 144.839844 107.5 144.765625 107.445312 144.726562 107.410156 C 144.648438 107.339844 144.699219 107.351562 144.828125 107.410156 C 144.957031 107.46875 145.164062 107.5625 145.386719 107.667969 C 145.609375 107.773438 145.851562 107.886719 146.058594 107.96875 C 146.472656 108.132812 146.730469 108.199219 146.371094 107.910156 C 146.28125 107.835938 146.152344 107.742188 145.980469 107.617188 C 145.8125 107.492188 145.59375 107.339844 145.328125 107.152344 C 144.800781 106.773438 144.066406 106.265625 143.121094 105.527344 C 143.210938 105.566406 143.261719 105.546875 143.402344 105.648438 C 144.472656 106.441406 145.167969 106.855469 145.605469 107.082031 C 146.042969 107.308594 146.21875 107.351562 146.300781 107.328125 C 146.464844 107.277344 146.234375 106.984375 146.917969 107.351562 C 147.984375 107.910156 148.605469 108.175781 148.875 108.277344 C 149.148438 108.375 149.074219 108.308594 148.785156 108.136719 C 148.640625 108.050781 148.445312 107.933594 148.210938 107.800781 C 147.976562 107.667969 147.714844 107.503906 147.425781 107.335938 C 147.140625 107.164062 146.839844 106.96875 146.53125 106.777344 C 146.378906 106.675781 146.226562 106.578125 146.074219 106.476562 C 145.921875 106.375 145.769531 106.277344 145.625 106.171875 C 141.945312 103.644531 138.726562 100.4375 136.171875 96.773438 C 136.023438 96.210938 134.972656 94.59375 134.027344 92.742188 C 133.554688 91.820312 133.097656 90.851562 132.746094 89.960938 C 132.65625 89.742188 132.578125 89.523438 132.5 89.316406 C 132.460938 89.210938 132.425781 89.109375 132.386719 89.011719 C 132.355469 88.910156 132.324219 88.8125 132.292969 88.71875 C 132.230469 88.53125 132.175781 88.351562 132.128906 88.1875 C 132.082031 88.019531 132.042969 87.867188 132.015625 87.730469 C 132.273438 88.410156 132.566406 89.085938 132.867188 89.753906 C 133.175781 90.421875 133.496094 91.082031 133.84375 91.726562 C 134.183594 92.371094 134.550781 93 134.925781 93.609375 C 135.019531 93.761719 135.117188 93.914062 135.210938 94.0625 C 135.308594 94.210938 135.398438 94.363281 135.5 94.507812 C 135.699219 94.800781 135.890625 95.09375 136.09375 95.375 C 136.214844 95.542969 136.328125 95.699219 136.429688 95.835938 C 136.535156 95.96875 136.625 96.085938 136.703125 96.183594 C 136.863281 96.375 136.960938 96.480469 136.988281 96.480469 C 137.011719 96.480469 136.960938 96.371094 136.8125 96.128906 C 136.664062 95.886719 136.429688 95.511719 136.09375 94.96875 C 135.300781 93.671875 134.566406 92.292969 134.042969 91.160156 C 135.632812 94.03125 137.585938 96.640625 139.832031 98.929688 L 139.789062 98.875 " fill-opacity="1" fill-rule="nonzero"/></g><path fill="#000000" d="M 140.296875 95.390625 C 140.796875 96.078125 141.359375 96.785156 141.980469 97.496094 C 142.601562 98.207031 143.28125 98.925781 144.023438 99.636719 C 145.5 101.054688 147.222656 102.4375 149.152344 103.671875 C 150.117188 104.285156 151.132812 104.867188 152.195312 105.398438 C 153.253906 105.925781 154.359375 106.402344 155.496094 106.824219 C 156.632812 107.246094 157.804688 107.609375 158.992188 107.910156 C 160.183594 108.207031 161.394531 108.441406 162.613281 108.605469 C 164.234375 108.832031 165.824219 108.917969 167.382812 108.90625 C 168.941406 108.878906 170.476562 108.753906 171.996094 108.5 C 173.519531 108.253906 175.027344 107.882812 176.535156 107.390625 C 177.289062 107.140625 178.042969 106.855469 178.796875 106.539062 C 179.550781 106.222656 180.300781 105.863281 181.054688 105.46875 C 182.152344 104.890625 182.90625 104.425781 183.398438 104.101562 C 183.519531 104.023438 183.628906 103.953125 183.71875 103.890625 C 183.8125 103.828125 183.886719 103.773438 183.949219 103.726562 C 184.070312 103.636719 184.136719 103.582031 184.152344 103.554688 C 184.183594 103.507812 184.007812 103.582031 183.675781 103.742188 C 183.511719 103.820312 183.300781 103.917969 183.058594 104.03125 C 182.941406 104.089844 182.808594 104.148438 182.671875 104.210938 C 182.53125 104.269531 182.386719 104.335938 182.230469 104.402344 C 181.425781 104.738281 180.855469 104.929688 180.523438 105.003906 C 180.191406 105.078125 180.105469 105.042969 180.261719 104.894531 C 180.417969 104.746094 180.816406 104.488281 181.441406 104.085938 C 182.0625 103.6875 182.914062 103.144531 183.941406 102.390625 C 184.984375 101.625 185.425781 101.179688 185.496094 101.035156 C 185.5625 100.886719 185.242188 101.023438 184.699219 101.3125 C 182.472656 102.476562 179.929688 103.507812 177.257812 104.167969 C 177.191406 104.183594 177.113281 104.207031 177.027344 104.230469 C 176.941406 104.253906 176.84375 104.28125 176.742188 104.3125 C 176.535156 104.371094 176.300781 104.445312 176.050781 104.515625 C 175.800781 104.585938 175.542969 104.667969 175.28125 104.734375 C 175.152344 104.773438 175.027344 104.808594 174.902344 104.84375 C 174.777344 104.878906 174.652344 104.910156 174.539062 104.941406 C 174.160156 105.046875 173.785156 105.132812 173.410156 105.21875 C 173.035156 105.296875 172.664062 105.378906 172.292969 105.441406 C 171.921875 105.511719 171.550781 105.558594 171.183594 105.613281 C 170.996094 105.636719 170.8125 105.660156 170.628906 105.679688 C 170.445312 105.703125 170.261719 105.722656 170.078125 105.738281 C 168.613281 105.878906 167.167969 105.894531 165.726562 105.839844 C 162.746094 105.714844 159.714844 105.195312 156.75 104.199219 C 153.792969 103.203125 150.902344 101.738281 148.265625 99.796875 C 150.660156 101.722656 153.371094 103.285156 156.257812 104.40625 C 159.148438 105.53125 162.207031 106.207031 165.296875 106.425781 C 167.535156 106.585938 169.75 106.519531 171.925781 106.226562 C 174.105469 105.9375 176.246094 105.410156 178.332031 104.652344 L 178.390625 104.792969 C 176.703125 105.511719 174.9375 106.085938 173.160156 106.496094 C 173.074219 106.515625 172.988281 106.539062 172.898438 106.558594 C 172.808594 106.578125 172.71875 106.597656 172.628906 106.617188 C 172.445312 106.652344 172.257812 106.695312 172.070312 106.730469 C 171.691406 106.796875 171.308594 106.871094 170.941406 106.925781 C 170.207031 107.046875 169.542969 107.128906 169.136719 107.203125 C 168.308594 107.347656 167.445312 107.449219 166.554688 107.488281 C 165.664062 107.527344 164.75 107.515625 163.816406 107.445312 C 161.949219 107.308594 160.023438 106.925781 158.109375 106.328125 C 157.140625 106.027344 156.109375 105.65625 155.171875 105.25 C 154.230469 104.851562 153.382812 104.417969 152.765625 104.050781 C 151.734375 103.429688 150.945312 102.914062 150.097656 102.390625 C 149.257812 101.863281 148.359375 101.324219 147.179688 100.5625 C 147.003906 100.453125 146.816406 100.316406 146.609375 100.167969 C 146.402344 100.019531 146.183594 99.84375 145.945312 99.65625 C 145.886719 99.609375 145.828125 99.5625 145.765625 99.515625 C 145.707031 99.464844 145.644531 99.414062 145.585938 99.359375 C 145.460938 99.257812 145.332031 99.148438 145.203125 99.035156 C 145.074219 98.921875 144.941406 98.804688 144.804688 98.683594 C 144.738281 98.621094 144.667969 98.5625 144.601562 98.496094 C 144.535156 98.433594 144.464844 98.367188 144.394531 98.300781 C 144.257812 98.167969 144.113281 98.039062 143.972656 97.894531 C 143.832031 97.753906 143.6875 97.609375 143.539062 97.464844 C 143.394531 97.3125 143.25 97.160156 143.101562 97.003906 C 142.949219 96.851562 142.804688 96.683594 142.65625 96.519531 C 142.058594 95.859375 141.449219 95.132812 140.851562 94.351562 C 142.03125 96.011719 143.335938 97.5 144.71875 98.832031 C 146.101562 100.160156 147.5625 101.332031 149.082031 102.347656 C 150.597656 103.363281 152.160156 104.234375 153.761719 104.957031 C 154.558594 105.320312 155.367188 105.652344 156.179688 105.945312 C 156.996094 106.238281 157.816406 106.496094 158.640625 106.726562 C 158.808594 106.773438 158.976562 106.816406 159.140625 106.863281 C 159.300781 106.910156 159.464844 106.945312 159.628906 106.992188 C 159.789062 107.03125 159.949219 107.078125 160.109375 107.117188 C 160.273438 107.15625 160.433594 107.195312 160.59375 107.234375 L 160.835938 107.296875 C 160.917969 107.3125 160.996094 107.332031 161.078125 107.351562 C 161.242188 107.390625 161.40625 107.425781 161.570312 107.464844 C 161.734375 107.5 161.902344 107.535156 162.070312 107.574219 C 162.242188 107.609375 162.414062 107.648438 162.589844 107.679688 C 162.765625 107.710938 162.941406 107.746094 163.125 107.78125 C 163.304688 107.816406 163.492188 107.84375 163.679688 107.875 C 163.871094 107.910156 164.0625 107.941406 164.265625 107.96875 C 164.464844 107.996094 164.667969 108.023438 164.878906 108.054688 C 165.71875 108.15625 166.652344 108.242188 167.71875 108.273438 C 164.480469 108.402344 161.363281 108.0625 158.496094 107.347656 C 158.316406 107.308594 158.136719 107.257812 157.960938 107.210938 C 157.78125 107.160156 157.605469 107.121094 157.429688 107.066406 C 157.082031 106.964844 156.730469 106.863281 156.390625 106.75 C 155.703125 106.535156 155.035156 106.289062 154.378906 106.035156 C 153.074219 105.519531 151.835938 104.941406 150.675781 104.304688 C 149.515625 103.664062 148.425781 102.984375 147.417969 102.265625 C 146.40625 101.546875 145.46875 100.796875 144.609375 100.03125 C 142.886719 98.503906 141.460938 96.917969 140.296875 95.390625 " fill-opacity="1" fill-rule="nonzero"/><path fill="#000000" d="M 139.789062 98.875 C 139.300781 98.269531 138.703125 97.542969 138.113281 96.761719 C 137.527344 95.980469 136.949219 95.140625 136.457031 94.34375 C 136.207031 93.945312 135.988281 93.554688 135.789062 93.195312 C 135.695312 93.011719 135.605469 92.835938 135.523438 92.671875 C 135.484375 92.585938 135.445312 92.503906 135.40625 92.425781 C 135.367188 92.347656 135.335938 92.269531 135.304688 92.195312 C 135.042969 91.597656 134.925781 91.160156 134.996094 90.996094 C 135 90.984375 134.96875 90.910156 134.910156 90.78125 C 134.855469 90.652344 134.777344 90.472656 134.679688 90.257812 C 134.632812 90.148438 134.578125 90.035156 134.523438 89.910156 C 134.472656 89.789062 134.414062 89.660156 134.355469 89.523438 C 134.296875 89.390625 134.234375 89.253906 134.175781 89.113281 C 134.113281 88.972656 134.054688 88.828125 133.992188 88.683594 C 133.496094 87.539062 133.050781 86.367188 132.886719 86.378906 C 132.886719 86.375 132.898438 86.332031 132.898438 86.332031 C 132.640625 86.023438 132.625 86.308594 132.839844 87.101562 C 133.054688 87.890625 133.523438 89.1875 134.332031 90.824219 C 135.777344 93.734375 137.628906 96.484375 139.824219 98.917969 C 139.832031 98.929688 139.789062 98.875 139.789062 98.875 " fill-opacity="1" fill-rule="nonzero"/><path fill="#000000" d="M 132.074219 74.851562 C 132.074219 75.089844 132.070312 75.320312 132.070312 75.546875 C 132.078125 75.773438 132.082031 75.992188 132.085938 76.207031 C 132.089844 76.421875 132.101562 76.628906 132.109375 76.835938 C 132.121094 77.039062 132.125 77.234375 132.140625 77.429688 C 132.171875 77.8125 132.191406 78.179688 132.226562 78.527344 C 132.246094 78.699219 132.261719 78.867188 132.277344 79.035156 C 132.296875 79.199219 132.316406 79.359375 132.335938 79.515625 C 132.492188 80.765625 132.6875 81.757812 132.902344 82.640625 C 132.964844 82.894531 133.03125 83.109375 133.09375 83.300781 C 133.160156 83.484375 133.226562 83.644531 133.289062 83.792969 C 133.414062 84.089844 133.550781 84.339844 133.6875 84.660156 C 133.613281 84.355469 133.527344 84.027344 133.460938 83.691406 C 133.421875 83.523438 133.386719 83.355469 133.351562 83.1875 C 133.320312 83.019531 133.289062 82.851562 133.253906 82.691406 C 133.128906 82.035156 133.03125 81.4375 132.953125 81.050781 C 132.925781 80.933594 132.898438 80.816406 132.875 80.699219 C 132.851562 80.582031 132.828125 80.46875 132.808594 80.351562 C 132.761719 80.125 132.710938 79.898438 132.671875 79.671875 C 132.632812 79.441406 132.589844 79.214844 132.546875 78.984375 C 132.511719 78.75 132.472656 78.515625 132.433594 78.273438 C 132.285156 77.308594 132.148438 76.234375 132.074219 74.851562 " fill-opacity="1" fill-rule="nonzero"/><path fill="#000000" d="M 131.933594 67.0625 C 132.148438 66.082031 132.402344 65.109375 132.699219 64.148438 C 133 63.1875 133.339844 62.238281 133.71875 61.304688 C 134.472656 59.4375 135.394531 57.628906 136.464844 55.910156 L 136.1875 56.183594 L 135.914062 56.464844 C 135.40625 57.332031 134.929688 58.21875 134.496094 59.121094 C 134.0625 60.027344 133.667969 60.949219 133.308594 61.886719 C 132.59375 63.757812 132.046875 65.6875 131.65625 67.640625 C 131.742188 67.445312 131.839844 67.253906 131.933594 67.0625 " fill-opacity="1" fill-rule="nonzero"/><path fill="#000000" d="M 132.898438 86.332031 C 132.898438 86.332031 132.886719 86.375 132.886719 86.378906 C 132.460938 84.949219 132.136719 83.554688 131.871094 82.28125 C 131.605469 81.007812 131.398438 79.855469 131.199219 78.894531 C 131.195312 78.882812 131.191406 78.933594 131.191406 79.019531 C 131.191406 79.066406 131.191406 79.117188 131.191406 79.175781 C 131.195312 79.234375 131.195312 79.300781 131.199219 79.367188 C 131.207031 79.628906 131.222656 79.921875 131.234375 80.003906 C 131.59375 82.203125 132.15625 84.296875 132.898438 86.332031 " fill-opacity="1" fill-rule="nonzero"/><path fill="#000000" d="M 137.355469 101.546875 C 138.285156 102.546875 139.265625 103.496094 140.292969 104.390625 C 141.320312 105.28125 142.394531 106.121094 143.507812 106.902344 L 143.355469 106.683594 C 141.058594 105.015625 138.941406 103.09375 137.050781 100.964844 C 137.148438 101.160156 137.253906 101.355469 137.355469 101.546875 " fill-opacity="1" fill-rule="nonzero"/><path fill="#000000" d="M 155.664062 108.542969 C 154.503906 108.164062 153.363281 107.71875 152.246094 107.21875 C 151.132812 106.714844 150.042969 106.148438 148.988281 105.53125 L 148.964844 105.589844 C 150.019531 106.207031 151.109375 106.773438 152.226562 107.277344 C 153.34375 107.78125 154.488281 108.222656 155.652344 108.605469 L 155.664062 108.542969 " fill-opacity="1" fill-rule="nonzero"/><path fill="#000000" d="M 140.800781 52.308594 C 140.625 52.515625 140.4375 52.730469 140.257812 52.953125 C 140.078125 53.175781 139.890625 53.394531 139.722656 53.617188 C 139.550781 53.839844 139.382812 54.054688 139.234375 54.261719 C 139.085938 54.46875 138.949219 54.664062 138.835938 54.835938 C 138.578125 55.242188 138.382812 55.566406 138.222656 55.878906 C 138.140625 56.035156 138.0625 56.1875 137.984375 56.335938 C 137.910156 56.492188 137.832031 56.644531 137.75 56.808594 C 138.335938 55.894531 139.066406 54.921875 139.609375 54.183594 C 140.34375 53.1875 140.949219 52.378906 141.671875 51.53125 C 141.523438 51.65625 141.378906 51.785156 141.234375 51.917969 C 141.089844 52.046875 140.941406 52.175781 140.800781 52.308594 " fill-opacity="1" fill-rule="nonzero"/><path fill="#000000" d="M 148.890625 102.84375 C 149.113281 102.996094 149.34375 103.136719 149.570312 103.28125 C 149.796875 103.425781 150.03125 103.558594 150.261719 103.699219 C 150.460938 103.8125 150.664062 103.910156 150.867188 104.015625 C 150.402344 103.757812 149.941406 103.484375 149.488281 103.207031 C 149.289062 103.082031 149.085938 102.972656 148.890625 102.84375 " fill-opacity="1" fill-rule="nonzero"/><path fill="#000000" d="M 138.582031 89.804688 C 138.46875 89.566406 138.363281 89.34375 138.257812 89.128906 C 138.160156 88.910156 138.066406 88.703125 137.972656 88.492188 C 137.894531 88.316406 137.804688 88.132812 137.71875 87.949219 C 137.804688 88.152344 137.878906 88.363281 137.972656 88.5625 C 138.066406 88.757812 138.160156 88.957031 138.257812 89.160156 C 138.359375 89.363281 138.46875 89.578125 138.582031 89.804688 " fill-opacity="1" fill-rule="nonzero"/><path fill="#000000" d="M 200.90625 79.464844 C 200.867188 79.671875 200.835938 79.875 200.792969 80.078125 C 200.75 80.28125 200.714844 80.484375 200.683594 80.691406 C 200.605469 81.191406 200.554688 81.699219 200.472656 82.199219 C 200.523438 81.996094 200.578125 81.792969 200.625 81.589844 C 200.671875 81.382812 200.714844 81.175781 200.753906 80.964844 C 200.792969 80.722656 200.816406 80.46875 200.84375 80.21875 C 200.871094 79.96875 200.882812 79.71875 200.90625 79.464844 " fill-opacity="1" fill-rule="nonzero"/><g clip-path="url(#2c533648a4)"><g clip-path="url(#ec9b4154cd)"><g clip-path="url(#77d06bb6f5)"><g clip-path="url(#e1a205fb5b)"><path fill="#000000" d="M 206.894531 37.40625 C 207.3125 39.292969 206.34375 43.261719 206.34375 43.261719 C 206.230469 43.304688 206.121094 43.332031 206.011719 43.355469 L 206.027344 40.679688 C 206.027344 40.679688 205.445312 42.3125 205.25 43.300781 C 203.980469 43.398438 203.441406 42.628906 203.441406 42.628906 C 203.886719 39.417969 204.664062 37.742188 205.160156 36.941406 C 205.003906 36.671875 204.949219 36.359375 205.019531 36.035156 C 205.132812 35.511719 205.566406 35.125 206.070312 35.050781 L 207.398438 29.316406 L 198.917969 30.886719 C 198.277344 31.003906 197.71875 30.441406 197.851562 29.800781 L 198.316406 27.519531 C 198.371094 27.226562 198.285156 26.929688 198.085938 26.714844 C 188.054688 15.921875 178.109375 14.117188 171.542969 14.507812 C 164.390625 14.933594 159.679688 17.910156 159.480469 18.035156 L 159.472656 18.039062 C 159.265625 18.171875 159.128906 18.375 159.074219 18.605469 L 158.488281 21.140625 C 158.339844 21.785156 157.589844 22.066406 157.050781 21.671875 L 148.1875 15.230469 C 147.535156 14.753906 147.769531 13.734375 148.558594 13.589844 L 181.480469 7.5625 C 181.730469 7.523438 181.976562 7.574219 182.179688 7.71875 L 209.695312 27.328125 C 210.355469 27.796875 210.128906 28.824219 209.328125 28.976562 L 208.199219 29.179688 L 206.808594 35.179688 C 207.324219 35.425781 207.621094 36.003906 207.496094 36.582031 C 207.421875 36.941406 207.191406 37.234375 206.894531 37.40625 Z M 160.4375 19.535156 C 160.382812 19.558594 160.339844 19.613281 160.324219 19.679688 L 156.957031 33.386719 C 156.917969 33.550781 157.070312 33.699219 157.234375 33.644531 C 159.78125 32.839844 175.226562 28.777344 192.976562 42.492188 C 193.101562 42.585938 193.28125 42.527344 193.320312 42.378906 L 196.847656 28.015625 C 196.863281 27.945312 196.847656 27.871094 196.800781 27.820312 C 195.628906 26.476562 180.46875 9.648438 160.4375 19.535156 Z M 160.4375 19.535156 " fill-opacity="1" fill-rule="nonzero"/></g></g></g></g><g clip-path="url(#d5928d4a8d)"><path fill="#000000" d="M 181.839844 89.214844 C 181.148438 88.574219 179.441406 87.957031 175.441406 90.179688 C 173.710938 91.257812 172.773438 91.953125 172.300781 92.335938 C 171.996094 92.578125 171.625 92.726562 171.234375 92.753906 C 169.148438 92.898438 162.570312 93.53125 160.316406 93.488281 C 159.988281 93.480469 159.878906 93.035156 160.097656 92.863281 C 160.265625 92.734375 160.519531 92.671875 160.878906 92.558594 C 162.160156 92.160156 169.265625 92.191406 169.109375 89.53125 C 168.960938 86.984375 163.867188 87.921875 162.351562 88.246094 C 161.765625 88.371094 161.113281 88.46875 160.511719 88.542969 C 160.511719 88.542969 158.316406 88.636719 157.238281 88.378906 C 154.988281 87.792969 150.257812 86.839844 147.269531 89.261719 C 144.863281 91.210938 143.796875 92.496094 143.328125 93.195312 C 143.015625 93.671875 142.582031 94.054688 142.078125 94.316406 L 137.867188 97.28125 C 137.648438 97.4375 137.621094 97.753906 137.8125 97.945312 L 142.503906 102.640625 L 144.722656 104.855469 C 144.910156 105.046875 145.222656 105.023438 145.382812 104.808594 C 146.332031 103.523438 149.730469 99.757812 156.820312 99.988281 C 165.359375 100.261719 165.414062 100.097656 167.289062 99.105469 C 168.757812 98.328125 172.253906 97.074219 173.691406 96.570312 C 174.117188 96.425781 174.507812 96.203125 174.855469 95.917969 L 181.796875 90.21875 C 182.117188 89.96875 182.136719 89.492188 181.839844 89.214844 " fill-opacity="1" fill-rule="nonzero"/></g><g clip-path="url(#cb3182a83b)"><path fill="#000000" d="M 168.699219 87.535156 C 168.921875 87.65625 169.113281 87.800781 169.273438 87.960938 C 169.375 88.0625 169.464844 88.167969 169.542969 88.28125 C 170.050781 88.039062 170.621094 87.785156 171.234375 87.519531 L 171.242188 87.515625 C 172.785156 86.9375 174.113281 86.632812 175.199219 86.597656 C 174.84375 86.410156 174.402344 86.296875 173.875 86.265625 C 172.761719 86.203125 171.316406 86.496094 169.574219 87.148438 C 169.273438 87.277344 168.980469 87.40625 168.699219 87.535156 " fill-opacity="1" fill-rule="nonzero"/></g><path fill="#000000" d="M 167.792969 91.964844 C 168.199219 91.933594 168.589844 91.902344 168.953125 91.875 L 168.957031 91.875 C 169.933594 91.796875 170.777344 91.730469 171.3125 91.699219 C 171.40625 91.691406 171.496094 91.675781 171.585938 91.644531 C 171.699219 91.605469 171.804688 91.546875 171.894531 91.472656 C 172.382812 91.082031 173.320312 90.394531 175.015625 89.339844 L 175.035156 89.332031 L 175.050781 89.320312 C 175.535156 89.054688 176.007812 88.816406 176.457031 88.617188 C 176.898438 88.425781 177.324219 88.273438 177.71875 88.15625 C 177.773438 88.140625 177.828125 88.125 177.882812 88.109375 C 177.820312 88.054688 177.753906 88.003906 177.679688 87.957031 C 177.273438 87.691406 176.734375 87.542969 176.070312 87.523438 C 175.011719 87.488281 173.664062 87.769531 172.058594 88.359375 C 171.328125 88.671875 170.667969 88.972656 170.09375 89.246094 C 170.097656 89.273438 170.097656 89.296875 170.101562 89.324219 C 170.175781 90.496094 169.402344 91.382812 167.792969 91.964844 " fill-opacity="1" fill-rule="nonzero"/><g fill="#000000" fill-opacity="1"><g transform="translate(119.816136, 133.872462)"><g><path d="M 4.140625 0 L 1.375 0 L 1.375 -13.453125 L 4.140625 -13.453125 Z M 4.140625 0 "/></g></g></g><g fill="#000000" fill-opacity="1"><g transform="translate(125.330348, 133.872462)"><g><path d="M 12.140625 0 L 9.375 0 L 3.96875 -8.84375 L 3.96875 0 L 1.203125 0 L 1.203125 -13.453125 L 3.96875 -13.453125 L 9.375 -4.578125 L 9.375 -13.453125 L 12.140625 -13.453125 Z M 12.140625 0 "/></g></g></g><g fill="#000000" fill-opacity="1"><g transform="translate(138.68638, 133.872462)"><g><path d="M 1.203125 0 L 1.203125 -13.453125 L 5.34375 -13.453125 C 6.519531 -13.453125 7.570312 -13.1875 8.5 -12.65625 C 9.4375 -12.125 10.164062 -11.363281 10.6875 -10.375 C 11.21875 -9.394531 11.484375 -8.28125 11.484375 -7.03125 L 11.484375 -6.40625 C 11.484375 -5.15625 11.222656 -4.039062 10.703125 -3.0625 C 10.191406 -2.09375 9.46875 -1.34375 8.53125 -0.8125 C 7.59375 -0.28125 6.539062 -0.0078125 5.375 0 Z M 3.96875 -11.203125 L 3.96875 -2.234375 L 5.3125 -2.234375 C 6.394531 -2.234375 7.222656 -2.585938 7.796875 -3.296875 C 8.367188 -4.003906 8.660156 -5.015625 8.671875 -6.328125 L 8.671875 -7.046875 C 8.671875 -8.410156 8.382812 -9.441406 7.8125 -10.140625 C 7.25 -10.847656 6.425781 -11.203125 5.34375 -11.203125 Z M 3.96875 -11.203125 "/></g></g></g><g fill="#000000" fill-opacity="1"><g transform="translate(150.98021, 133.872462)"><g><path d="M 11.375 -13.453125 L 11.375 -4.59375 C 11.375 -3.125 10.914062 -1.957031 10 -1.09375 C 9.082031 -0.238281 7.828125 0.1875 6.234375 0.1875 C 4.660156 0.1875 3.410156 -0.226562 2.484375 -1.0625 C 1.554688 -1.894531 1.085938 -3.035156 1.078125 -4.484375 L 1.078125 -13.453125 L 3.84375 -13.453125 L 3.84375 -4.578125 C 3.84375 -3.691406 4.050781 -3.046875 4.46875 -2.640625 C 4.894531 -2.242188 5.484375 -2.046875 6.234375 -2.046875 C 7.785156 -2.046875 8.578125 -2.863281 8.609375 -4.5 L 8.609375 -13.453125 Z M 11.375 -13.453125 "/></g></g></g><g fill="#000000" fill-opacity="1"><g transform="translate(163.431062, 133.872462)"><g><path d="M 8.171875 -3.53125 C 8.171875 -4.050781 7.984375 -4.453125 7.609375 -4.734375 C 7.242188 -5.015625 6.582031 -5.3125 5.625 -5.625 C 4.664062 -5.9375 3.90625 -6.242188 3.34375 -6.546875 C 1.8125 -7.367188 1.046875 -8.476562 1.046875 -9.875 C 1.046875 -10.601562 1.25 -11.25 1.65625 -11.8125 C 2.070312 -12.382812 2.660156 -12.832031 3.421875 -13.15625 C 4.191406 -13.476562 5.054688 -13.640625 6.015625 -13.640625 C 6.972656 -13.640625 7.828125 -13.460938 8.578125 -13.109375 C 9.328125 -12.765625 9.910156 -12.273438 10.328125 -11.640625 C 10.742188 -11.003906 10.953125 -10.285156 10.953125 -9.484375 L 8.1875 -9.484375 C 8.1875 -10.097656 7.988281 -10.570312 7.59375 -10.90625 C 7.207031 -11.25 6.664062 -11.421875 5.96875 -11.421875 C 5.289062 -11.421875 4.765625 -11.273438 4.390625 -10.984375 C 4.015625 -10.703125 3.828125 -10.332031 3.828125 -9.875 C 3.828125 -9.4375 4.046875 -9.066406 4.484375 -8.765625 C 4.921875 -8.472656 5.570312 -8.195312 6.4375 -7.9375 C 8.007812 -7.457031 9.15625 -6.867188 9.875 -6.171875 C 10.59375 -5.472656 10.953125 -4.597656 10.953125 -3.546875 C 10.953125 -2.378906 10.507812 -1.460938 9.625 -0.796875 C 8.75 -0.140625 7.566406 0.1875 6.078125 0.1875 C 5.046875 0.1875 4.101562 0 3.25 -0.375 C 2.40625 -0.757812 1.757812 -1.28125 1.3125 -1.9375 C 0.863281 -2.59375 0.640625 -3.359375 0.640625 -4.234375 L 3.421875 -4.234375 C 3.421875 -2.742188 4.304688 -2 6.078125 -2 C 6.734375 -2 7.242188 -2.132812 7.609375 -2.40625 C 7.984375 -2.675781 8.171875 -3.050781 8.171875 -3.53125 Z M 8.171875 -3.53125 "/></g></g></g><g fill="#000000" fill-opacity="1"><g transform="translate(175.059862, 133.872462)"><g><path d="M 11.328125 -11.203125 L 7.203125 -11.203125 L 7.203125 0 L 4.4375 0 L 4.4375 -11.203125 L 0.375 -11.203125 L 0.375 -13.453125 L 11.328125 -13.453125 Z M 11.328125 -11.203125 "/></g></g></g><g fill="#000000" fill-opacity="1"><g transform="translate(186.762554, 133.872462)"><g><path d="M 6.1875 -4.921875 L 3.96875 -4.921875 L 3.96875 0 L 1.203125 0 L 1.203125 -13.453125 L 6.203125 -13.453125 C 7.785156 -13.453125 9.007812 -13.097656 9.875 -12.390625 C 10.738281 -11.679688 11.171875 -10.679688 11.171875 -9.390625 C 11.171875 -8.472656 10.972656 -7.707031 10.578125 -7.09375 C 10.179688 -6.476562 9.578125 -5.988281 8.765625 -5.625 L 11.671875 -0.125 L 11.671875 0 L 8.703125 0 Z M 3.96875 -7.171875 L 6.203125 -7.171875 C 6.898438 -7.171875 7.4375 -7.347656 7.8125 -7.703125 C 8.195312 -8.054688 8.390625 -8.546875 8.390625 -9.171875 C 8.390625 -9.796875 8.207031 -10.289062 7.84375 -10.65625 C 7.488281 -11.019531 6.941406 -11.203125 6.203125 -11.203125 L 3.96875 -11.203125 Z M 3.96875 -7.171875 "/></g></g></g><g fill="#000000" fill-opacity="1"><g transform="translate(198.834707, 133.872462)"><g><path d="M 5.84375 -7.390625 L 8.640625 -13.453125 L 11.671875 -13.453125 L 7.25 -4.875 L 7.25 0 L 4.4375 0 L 4.4375 -4.875 L 0.015625 -13.453125 L 3.0625 -13.453125 Z M 5.84375 -7.390625 "/></g></g></g><g fill="#000000" fill-opacity="1"><g transform="translate(116.628747, 147.405121)"><g><path d="M 1.828125 0 L 0.890625 0 L 0.890625 -7.078125 L 1.828125 -7.078125 Z M 1.828125 0 "/></g></g></g><g fill="#000000" fill-opacity="1"><g transform="translate(119.334346, 147.405121)"><g><path d="M 6.265625 0 L 5.328125 0 L 1.765625 -5.453125 L 1.765625 0 L 0.828125 0 L 0.828125 -7.078125 L 1.765625 -7.078125 L 5.328125 -1.59375 L 5.328125 -7.078125 L 6.265625 -7.078125 Z M 6.265625 0 "/></g></g></g><g fill="#000000" fill-opacity="1"><g transform="translate(126.426207, 147.405121)"><g><path d="M 5.703125 -6.3125 L 3.4375 -6.3125 L 3.4375 0 L 2.5 0 L 2.5 -6.3125 L 0.234375 -6.3125 L 0.234375 -7.078125 L 5.703125 -7.078125 Z M 5.703125 -6.3125 "/></g></g></g><g fill="#000000" fill-opacity="1"><g transform="translate(132.361997, 147.405121)"><g><path d="M 4.828125 -3.265625 L 1.75 -3.265625 L 1.75 -0.765625 L 5.3125 -0.765625 L 5.3125 0 L 0.828125 0 L 0.828125 -7.078125 L 5.265625 -7.078125 L 5.265625 -6.3125 L 1.75 -6.3125 L 1.75 -4.03125 L 4.828125 -4.03125 Z M 4.828125 -3.265625 "/></g></g></g><g fill="#000000" fill-opacity="1"><g transform="translate(138.016056, 147.405121)"><g><path d="M 3.421875 -2.859375 L 1.75 -2.859375 L 1.75 0 L 0.8125 0 L 0.8125 -7.078125 L 3.15625 -7.078125 C 3.957031 -7.078125 4.570312 -6.894531 5 -6.53125 C 5.425781 -6.164062 5.640625 -5.640625 5.640625 -4.953125 C 5.640625 -4.503906 5.519531 -4.117188 5.28125 -3.796875 C 5.039062 -3.472656 4.710938 -3.226562 4.296875 -3.0625 L 5.953125 -0.0625 L 5.953125 0 L 4.953125 0 Z M 1.75 -3.625 L 3.1875 -3.625 C 3.65625 -3.625 4.023438 -3.742188 4.296875 -3.984375 C 4.566406 -4.222656 4.703125 -4.546875 4.703125 -4.953125 C 4.703125 -5.390625 4.570312 -5.722656 4.3125 -5.953125 C 4.050781 -6.179688 3.675781 -6.300781 3.1875 -6.3125 L 1.75 -6.3125 Z M 1.75 -3.625 "/></g></g></g><g fill="#000000" fill-opacity="1"><g transform="translate(144.141292, 147.405121)"><g><path d="M 6.265625 0 L 5.328125 0 L 1.765625 -5.453125 L 1.765625 0 L 0.828125 0 L 0.828125 -7.078125 L 1.765625 -7.078125 L 5.328125 -1.59375 L 5.328125 -7.078125 L 6.265625 -7.078125 Z M 6.265625 0 "/></g></g></g><g fill="#000000" fill-opacity="1"><g transform="translate(151.233153, 147.405121)"><g><path d="M 2.90625 -3.15625 C 2.101562 -3.382812 1.519531 -3.664062 1.15625 -4 C 0.789062 -4.332031 0.609375 -4.75 0.609375 -5.25 C 0.609375 -5.800781 0.832031 -6.257812 1.28125 -6.625 C 1.726562 -6.988281 2.304688 -7.171875 3.015625 -7.171875 C 3.503906 -7.171875 3.9375 -7.078125 4.3125 -6.890625 C 4.695312 -6.703125 4.992188 -6.441406 5.203125 -6.109375 C 5.410156 -5.785156 5.515625 -5.425781 5.515625 -5.03125 L 4.578125 -5.03125 C 4.578125 -5.457031 4.441406 -5.789062 4.171875 -6.03125 C 3.898438 -6.28125 3.515625 -6.40625 3.015625 -6.40625 C 2.554688 -6.40625 2.195312 -6.300781 1.9375 -6.09375 C 1.6875 -5.894531 1.5625 -5.617188 1.5625 -5.265625 C 1.5625 -4.972656 1.679688 -4.726562 1.921875 -4.53125 C 2.160156 -4.332031 2.570312 -4.148438 3.15625 -3.984375 C 3.75 -3.816406 4.210938 -3.632812 4.546875 -3.4375 C 4.878906 -3.238281 5.125 -3.003906 5.28125 -2.734375 C 5.445312 -2.472656 5.53125 -2.160156 5.53125 -1.796875 C 5.53125 -1.222656 5.304688 -0.765625 4.859375 -0.421875 C 4.410156 -0.078125 3.8125 0.09375 3.0625 0.09375 C 2.582031 0.09375 2.128906 0 1.703125 -0.1875 C 1.285156 -0.375 0.960938 -0.628906 0.734375 -0.953125 C 0.503906 -1.273438 0.390625 -1.640625 0.390625 -2.046875 L 1.328125 -2.046875 C 1.328125 -1.617188 1.484375 -1.28125 1.796875 -1.03125 C 2.117188 -0.789062 2.539062 -0.671875 3.0625 -0.671875 C 3.5625 -0.671875 3.941406 -0.769531 4.203125 -0.96875 C 4.460938 -1.164062 4.59375 -1.4375 4.59375 -1.78125 C 4.59375 -2.132812 4.46875 -2.40625 4.21875 -2.59375 C 3.976562 -2.78125 3.539062 -2.96875 2.90625 -3.15625 Z M 2.90625 -3.15625 "/></g></g></g><g fill="#000000" fill-opacity="1"><g transform="translate(157.134947, 147.405121)"><g><path d="M 6.265625 0 L 5.328125 0 L 5.328125 -3.265625 L 1.75 -3.265625 L 1.75 0 L 0.828125 0 L 0.828125 -7.078125 L 1.75 -7.078125 L 1.75 -4.03125 L 5.328125 -4.03125 L 5.328125 -7.078125 L 6.265625 -7.078125 Z M 6.265625 0 "/></g></g></g><g fill="#000000" fill-opacity="1"><g transform="translate(164.226807, 147.405121)"><g><path d="M 1.828125 0 L 0.890625 0 L 0.890625 -7.078125 L 1.828125 -7.078125 Z M 1.828125 0 "/></g></g></g><g fill="#000000" fill-opacity="1"><g transform="translate(166.932407, 147.405121)"><g><path d="M 1.75 -2.765625 L 1.75 0 L 0.828125 0 L 0.828125 -7.078125 L 3.4375 -7.078125 C 4.207031 -7.078125 4.8125 -6.878906 5.25 -6.484375 C 5.6875 -6.085938 5.90625 -5.5625 5.90625 -4.90625 C 5.90625 -4.226562 5.691406 -3.703125 5.265625 -3.328125 C 4.835938 -2.953125 4.222656 -2.765625 3.421875 -2.765625 Z M 1.75 -3.53125 L 3.4375 -3.53125 C 3.925781 -3.53125 4.304688 -3.644531 4.578125 -3.875 C 4.847656 -4.113281 4.984375 -4.457031 4.984375 -4.90625 C 4.984375 -5.320312 4.847656 -5.65625 4.578125 -5.90625 C 4.304688 -6.164062 3.941406 -6.300781 3.484375 -6.3125 L 1.75 -6.3125 Z M 1.75 -3.53125 "/></g></g></g><g fill="#000000" fill-opacity="1"><g transform="translate(173.208218, 147.405121)"><g/></g></g><g fill="#000000" fill-opacity="1"><g transform="translate(175.670945, 147.405121)"><g><path d="M 2.90625 -3.15625 C 2.101562 -3.382812 1.519531 -3.664062 1.15625 -4 C 0.789062 -4.332031 0.609375 -4.75 0.609375 -5.25 C 0.609375 -5.800781 0.832031 -6.257812 1.28125 -6.625 C 1.726562 -6.988281 2.304688 -7.171875 3.015625 -7.171875 C 3.503906 -7.171875 3.9375 -7.078125 4.3125 -6.890625 C 4.695312 -6.703125 4.992188 -6.441406 5.203125 -6.109375 C 5.410156 -5.785156 5.515625 -5.425781 5.515625 -5.03125 L 4.578125 -5.03125 C 4.578125 -5.457031 4.441406 -5.789062 4.171875 -6.03125 C 3.898438 -6.28125 3.515625 -6.40625 3.015625 -6.40625 C 2.554688 -6.40625 2.195312 -6.300781 1.9375 -6.09375 C 1.6875 -5.894531 1.5625 -5.617188 1.5625 -5.265625 C 1.5625 -4.972656 1.679688 -4.726562 1.921875 -4.53125 C 2.160156 -4.332031 2.570312 -4.148438 3.15625 -3.984375 C 3.75 -3.816406 4.210938 -3.632812 4.546875 -3.4375 C 4.878906 -3.238281 5.125 -3.003906 5.28125 -2.734375 C 5.445312 -2.472656 5.53125 -2.160156 5.53125 -1.796875 C 5.53125 -1.222656 5.304688 -0.765625 4.859375 -0.421875 C 4.410156 -0.078125 3.8125 0.09375 3.0625 0.09375 C 2.582031 0.09375 2.128906 0 1.703125 -0.1875 C 1.285156 -0.375 0.960938 -0.628906 0.734375 -0.953125 C 0.503906 -1.273438 0.390625 -1.640625 0.390625 -2.046875 L 1.328125 -2.046875 C 1.328125 -1.617188 1.484375 -1.28125 1.796875 -1.03125 C 2.117188 -0.789062 2.539062 -0.671875 3.0625 -0.671875 C 3.5625 -0.671875 3.941406 -0.769531 4.203125 -0.96875 C 4.460938 -1.164062 4.59375 -1.4375 4.59375 -1.78125 C 4.59375 -2.132812 4.46875 -2.40625 4.21875 -2.59375 C 3.976562 -2.78125 3.539062 -2.96875 2.90625 -3.15625 Z M 2.90625 -3.15625 "/></g></g></g><g fill="#000000" fill-opacity="1"><g transform="translate(181.572739, 147.405121)"><g><path d="M 2.984375 -3.53125 L 4.828125 -7.078125 L 5.890625 -7.078125 L 3.453125 -2.640625 L 3.453125 0 L 2.515625 0 L 2.515625 -2.640625 L 0.078125 -7.078125 L 1.140625 -7.078125 Z M 2.984375 -3.53125 "/></g></g></g><g fill="#000000" fill-opacity="1"><g transform="translate(187.547389, 147.405121)"><g><path d="M 2.90625 -3.15625 C 2.101562 -3.382812 1.519531 -3.664062 1.15625 -4 C 0.789062 -4.332031 0.609375 -4.75 0.609375 -5.25 C 0.609375 -5.800781 0.832031 -6.257812 1.28125 -6.625 C 1.726562 -6.988281 2.304688 -7.171875 3.015625 -7.171875 C 3.503906 -7.171875 3.9375 -7.078125 4.3125 -6.890625 C 4.695312 -6.703125 4.992188 -6.441406 5.203125 -6.109375 C 5.410156 -5.785156 5.515625 -5.425781 5.515625 -5.03125 L 4.578125 -5.03125 C 4.578125 -5.457031 4.441406 -5.789062 4.171875 -6.03125 C 3.898438 -6.28125 3.515625 -6.40625 3.015625 -6.40625 C 2.554688 -6.40625 2.195312 -6.300781 1.9375 -6.09375 C 1.6875 -5.894531 1.5625 -5.617188 1.5625 -5.265625 C 1.5625 -4.972656 1.679688 -4.726562 1.921875 -4.53125 C 2.160156 -4.332031 2.570312 -4.148438 3.15625 -3.984375 C 3.75 -3.816406 4.210938 -3.632812 4.546875 -3.4375 C 4.878906 -3.238281 5.125 -3.003906 5.28125 -2.734375 C 5.445312 -2.472656 5.53125 -2.160156 5.53125 -1.796875 C 5.53125 -1.222656 5.304688 -0.765625 4.859375 -0.421875 C 4.410156 -0.078125 3.8125 0.09375 3.0625 0.09375 C 2.582031 0.09375 2.128906 0 1.703125 -0.1875 C 1.285156 -0.375 0.960938 -0.628906 0.734375 -0.953125 C 0.503906 -1.273438 0.390625 -1.640625 0.390625 -2.046875 L 1.328125 -2.046875 C 1.328125 -1.617188 1.484375 -1.28125 1.796875 -1.03125 C 2.117188 -0.789062 2.539062 -0.671875 3.0625 -0.671875 C 3.5625 -0.671875 3.941406 -0.769531 4.203125 -0.96875 C 4.460938 -1.164062 4.59375 -1.4375 4.59375 -1.78125 C 4.59375 -2.132812 4.46875 -2.40625 4.21875 -2.59375 C 3.976562 -2.78125 3.539062 -2.96875 2.90625 -3.15625 Z M 2.90625 -3.15625 "/></g></g></g><g fill="#000000" fill-opacity="1"><g transform="translate(193.449183, 147.405121)"><g><path d="M 5.703125 -6.3125 L 3.4375 -6.3125 L 3.4375 0 L 2.5 0 L 2.5 -6.3125 L 0.234375 -6.3125 L 0.234375 -7.078125 L 5.703125 -7.078125 Z M 5.703125 -6.3125 "/></g></g></g><g fill="#000000" fill-opacity="1"><g transform="translate(199.384973, 147.405121)"><g><path d="M 4.828125 -3.265625 L 1.75 -3.265625 L 1.75 -0.765625 L 5.3125 -0.765625 L 5.3125 0 L 0.828125 0 L 0.828125 -7.078125 L 5.265625 -7.078125 L 5.265625 -6.3125 L 1.75 -6.3125 L 1.75 -4.03125 L 4.828125 -4.03125 Z M 4.828125 -3.265625 "/></g></g></g><g fill="#000000" fill-opacity="1"><g transform="translate(205.039032, 147.405121)"><g><path d="M 2.03125 -7.078125 L 4.34375 -1.296875 L 6.65625 -7.078125 L 7.859375 -7.078125 L 7.859375 0 L 6.9375 0 L 6.9375 -2.75 L 7.015625 -5.734375 L 4.6875 0 L 3.984375 0 L 1.65625 -5.71875 L 1.75 -2.75 L 1.75 0 L 0.828125 0 L 0.828125 -7.078125 Z M 2.03125 -7.078125 "/></g></g></g><g clip-path="url(#4b9be3ebca)"><path fill="#000000" d="M 181.648438 81.632812 L 181.648438 68.707031 C 181.472656 68.878906 181.285156 69.042969 181.09375 69.191406 C 180.914062 69.328125 180.726562 69.457031 180.535156 69.574219 C 179.898438 69.960938 179.195312 70.226562 178.457031 70.34375 C 177.460938 70.496094 176.429688 70.4375 175.425781 70.4375 L 168.308594 70.4375 C 168.28125 70.4375 168.257812 70.4375 168.230469 70.433594 L 168.230469 70.894531 C 168.230469 70.949219 168.234375 71 168.230469 71.058594 C 168.214844 71.359375 167.992188 71.582031 167.691406 71.597656 C 167.160156 71.625 166.621094 71.597656 166.089844 71.597656 L 163.496094 71.597656 C 163.269531 71.597656 163.042969 71.601562 162.816406 71.597656 C 162.476562 71.589844 162.242188 71.363281 162.242188 71.019531 C 162.238281 70.828125 162.238281 70.628906 162.238281 70.4375 C 162.214844 70.4375 162.1875 70.4375 162.167969 70.4375 C 162.152344 70.4375 162.132812 70.4375 162.117188 70.4375 C 161.109375 70.453125 160.09375 70.4375 159.082031 70.4375 L 154.570312 70.4375 C 153.457031 70.4375 152.316406 70.511719 151.238281 70.164062 C 150.789062 70.019531 150.351562 69.820312 149.941406 69.578125 C 149.746094 69.464844 149.5625 69.339844 149.382812 69.207031 C 149.1875 69.058594 149 68.898438 148.824219 68.726562 L 148.824219 82.816406 C 148.824219 82.917969 148.820312 83.023438 148.828125 83.128906 C 148.902344 84.113281 149.703125 84.871094 150.6875 84.886719 C 150.929688 84.890625 151.164062 84.886719 151.40625 84.886719 L 178.78125 84.886719 C 179.101562 84.886719 179.425781 84.886719 179.742188 84.886719 C 180.828125 84.882812 181.644531 84.027344 181.648438 82.949219 C 181.648438 82.503906 181.648438 82.070312 181.648438 81.632812 Z M 181.648438 81.632812 " fill-opacity="1" fill-rule="nonzero"/></g><g clip-path="url(#6e289faa34)"><path fill="#000000" d="M 181.640625 62.945312 L 181.640625 61.664062 C 181.570312 60.6875 180.777344 59.917969 179.789062 59.902344 C 179.722656 59.902344 179.660156 59.902344 179.589844 59.902344 L 171.628906 59.902344 L 171.628906 57.121094 C 171.628906 56.554688 171.46875 56.019531 171.0625 55.609375 C 170.679688 55.222656 170.160156 55.042969 169.625 55.039062 C 169.136719 55.039062 168.652344 55.039062 168.167969 55.039062 L 161.054688 55.039062 C 160.960938 55.039062 160.871094 55.035156 160.78125 55.039062 C 159.714844 55.0625 158.875 55.90625 158.847656 56.976562 C 158.828125 57.949219 158.839844 58.929688 158.847656 59.902344 L 151.082031 59.902344 C 150.96875 59.902344 150.855469 59.902344 150.742188 59.902344 C 150.246094 59.902344 149.78125 60.074219 149.414062 60.417969 C 149.054688 60.753906 148.867188 61.210938 148.835938 61.691406 L 148.835938 63.5 C 148.835938 63.757812 148.835938 64.015625 148.835938 64.277344 C 148.835938 64.390625 148.835938 64.496094 148.84375 64.609375 C 148.847656 64.6875 148.855469 64.761719 148.863281 64.839844 C 148.863281 64.851562 148.867188 64.863281 148.867188 64.875 C 148.886719 64.980469 148.898438 65.089844 148.921875 65.195312 C 148.976562 65.453125 149.058594 65.710938 149.152344 65.960938 C 149.152344 65.964844 149.152344 65.964844 149.15625 65.96875 C 149.15625 65.972656 149.15625 65.972656 149.160156 65.976562 C 149.164062 65.984375 149.164062 65.988281 149.167969 65.996094 C 149.191406 66.046875 149.214844 66.097656 149.242188 66.152344 C 149.289062 66.25 149.339844 66.339844 149.390625 66.433594 C 149.398438 66.449219 149.40625 66.464844 149.417969 66.476562 C 149.488281 66.59375 149.5625 66.714844 149.644531 66.824219 C 149.675781 66.875 149.714844 66.914062 149.742188 66.964844 C 149.738281 66.957031 149.734375 66.949219 149.730469 66.941406 C 149.738281 66.953125 149.742188 66.960938 149.75 66.96875 C 149.8125 67.046875 149.878906 67.125 149.949219 67.199219 C 150.058594 67.3125 150.175781 67.425781 150.292969 67.535156 C 150.339844 67.578125 150.390625 67.621094 150.441406 67.660156 C 150.449219 67.667969 150.460938 67.675781 150.472656 67.683594 C 150.535156 67.722656 150.558594 67.738281 150.5625 67.742188 C 150.558594 67.742188 150.542969 67.726562 150.515625 67.710938 C 150.59375 67.765625 150.667969 67.824219 150.746094 67.875 C 150.953125 68.011719 151.167969 68.128906 151.390625 68.234375 C 151.605469 68.300781 151.492188 68.273438 151.421875 68.25 C 151.429688 68.253906 151.433594 68.253906 151.441406 68.257812 C 151.503906 68.277344 151.5625 68.304688 151.625 68.324219 C 151.746094 68.363281 151.863281 68.402344 151.984375 68.433594 C 152.113281 68.46875 152.242188 68.5 152.375 68.523438 C 152.421875 68.53125 152.464844 68.539062 152.511719 68.546875 C 152.535156 68.550781 152.5625 68.550781 152.585938 68.554688 C 152.914062 68.585938 153.25 68.578125 153.578125 68.578125 L 162.175781 68.578125 C 162.203125 68.578125 162.230469 68.578125 162.253906 68.582031 L 162.253906 67.683594 C 162.253906 67.421875 162.21875 67.140625 162.429688 66.949219 C 162.613281 66.78125 162.847656 66.808594 163.074219 66.808594 L 167.570312 66.808594 C 167.613281 66.808594 167.664062 66.808594 167.707031 66.808594 C 167.996094 66.820312 168.199219 67.023438 168.238281 67.300781 C 168.242188 67.316406 168.242188 67.332031 168.242188 67.347656 C 168.242188 67.355469 168.242188 67.363281 168.242188 67.371094 L 168.242188 68.585938 C 168.269531 68.582031 168.292969 68.582031 168.320312 68.582031 L 168.367188 68.582031 C 169.351562 68.5625 170.335938 68.582031 171.316406 68.582031 L 177.4375 68.582031 C 177.597656 68.582031 177.753906 68.574219 177.914062 68.558594 C 177.941406 68.554688 177.976562 68.550781 178.003906 68.546875 C 178.042969 68.539062 178.082031 68.535156 178.121094 68.527344 C 178.25 68.503906 178.382812 68.476562 178.515625 68.4375 C 178.644531 68.40625 178.769531 68.363281 178.898438 68.320312 C 178.957031 68.296875 179.011719 68.273438 179.070312 68.253906 C 179.300781 68.144531 179.519531 68.027344 179.734375 67.890625 C 179.804688 67.847656 179.871094 67.800781 179.9375 67.753906 C 179.957031 67.738281 180.015625 67.695312 180.042969 67.675781 C 180.042969 67.675781 180.042969 67.671875 180.042969 67.671875 C 180.046875 67.667969 180.054688 67.664062 180.054688 67.660156 C 180.109375 67.621094 180.15625 67.574219 180.203125 67.535156 C 180.324219 67.429688 180.433594 67.316406 180.546875 67.199219 C 180.617188 67.125 180.683594 67.050781 180.746094 66.96875 C 180.75 66.960938 180.757812 66.957031 180.761719 66.949219 C 180.792969 66.898438 180.832031 66.851562 180.867188 66.808594 C 180.9375 66.707031 181.003906 66.601562 181.0625 66.496094 C 181.074219 66.476562 181.089844 66.453125 181.097656 66.433594 C 181.15625 66.332031 181.210938 66.234375 181.257812 66.128906 C 181.28125 66.082031 181.308594 66.027344 181.328125 65.980469 C 181.421875 65.734375 181.503906 65.484375 181.558594 65.222656 C 181.578125 65.140625 181.59375 65.054688 181.609375 64.972656 C 181.609375 64.972656 181.609375 64.96875 181.609375 64.96875 C 181.609375 64.96875 181.609375 64.964844 181.609375 64.964844 C 181.609375 64.964844 181.609375 64.960938 181.609375 64.957031 C 181.609375 64.953125 181.609375 64.949219 181.613281 64.945312 C 181.617188 64.90625 181.625 64.859375 181.625 64.828125 C 181.632812 64.761719 181.636719 64.691406 181.640625 64.625 C 181.644531 64.515625 181.648438 64.40625 181.652344 64.300781 L 181.652344 63.5625 C 181.644531 63.34375 181.640625 63.144531 181.640625 62.945312 Z M 169.785156 56.992188 C 169.785156 56.996094 169.785156 56.996094 169.785156 56.996094 C 169.785156 56.996094 169.785156 57 169.785156 57 C 169.789062 57.019531 169.792969 57.03125 169.785156 57.011719 C 169.785156 57.015625 169.777344 57.007812 169.773438 57 C 169.789062 57.96875 169.785156 58.9375 169.777344 59.90625 L 160.703125 59.90625 L 160.703125 57.199219 C 160.703125 57.136719 160.703125 57.070312 160.703125 57.003906 C 160.691406 57.019531 160.683594 57.023438 160.679688 57.019531 C 160.671875 57.03125 160.671875 57.007812 160.675781 56.984375 C 160.65625 57.003906 160.648438 57.007812 160.675781 56.976562 C 160.675781 56.960938 160.679688 56.949219 160.683594 56.933594 C 160.683594 56.933594 160.683594 56.933594 160.679688 56.933594 C 160.679688 56.933594 160.679688 56.933594 160.683594 56.933594 C 160.6875 56.925781 160.6875 56.914062 160.691406 56.910156 C 160.664062 56.910156 160.671875 56.902344 160.695312 56.898438 C 160.699219 56.878906 160.707031 56.871094 160.707031 56.894531 C 160.714844 56.894531 160.722656 56.890625 160.734375 56.890625 C 160.734375 56.886719 160.734375 56.886719 160.734375 56.882812 C 160.734375 56.882812 160.734375 56.886719 160.734375 56.886719 C 160.746094 56.882812 160.757812 56.882812 160.773438 56.878906 C 160.789062 56.863281 160.796875 56.859375 160.800781 56.855469 C 160.796875 56.859375 160.789062 56.867188 160.777344 56.878906 C 160.808594 56.875 160.828125 56.875 160.816406 56.882812 C 160.820312 56.886719 160.816406 56.894531 160.804688 56.90625 C 160.832031 56.90625 160.863281 56.90625 160.890625 56.90625 L 169.363281 56.90625 C 169.476562 56.90625 169.582031 56.902344 169.695312 56.90625 C 169.6875 56.902344 169.683594 56.902344 169.679688 56.898438 C 169.652344 56.882812 169.660156 56.878906 169.679688 56.875 C 169.667969 56.867188 169.671875 56.867188 169.683594 56.875 C 169.6875 56.875 169.695312 56.875 169.699219 56.875 C 169.683594 56.863281 169.675781 56.855469 169.671875 56.851562 C 169.671875 56.851562 169.683594 56.859375 169.703125 56.875 C 169.714844 56.875 169.730469 56.878906 169.746094 56.878906 C 169.753906 56.878906 169.757812 56.882812 169.765625 56.882812 C 169.765625 56.875 169.765625 56.871094 169.769531 56.871094 C 169.769531 56.871094 169.773438 56.875 169.773438 56.882812 C 169.804688 56.890625 169.820312 56.898438 169.773438 56.902344 C 169.773438 56.910156 169.773438 56.914062 169.773438 56.917969 C 169.785156 56.921875 169.789062 56.925781 169.792969 56.925781 C 169.789062 56.925781 169.78125 56.925781 169.773438 56.921875 L 169.773438 56.925781 C 169.777344 56.929688 169.785156 56.933594 169.789062 56.941406 C 169.785156 56.941406 169.785156 56.9375 169.777344 56.933594 C 169.777344 56.941406 169.78125 56.945312 169.78125 56.953125 C 169.789062 56.96875 169.804688 56.984375 169.816406 56.992188 C 169.804688 56.984375 169.792969 56.972656 169.785156 56.964844 C 169.785156 56.980469 169.785156 56.984375 169.785156 56.992188 Z M 169.785156 56.992188 " fill-opacity="1" fill-rule="nonzero"/></g></svg>