<svg width="1728" height="960" viewBox="0 0 1728 960" fill="none" xmlns="http://www.w3.org/2000/svg">
<g clip-path="url(#clip0_746_1209)">
<rect width="1728" height="960" fill="#0C091E"/>
<g filter="url(#filter0_f_746_1209)">
<circle cx="1431.6" cy="63.6" r="2.4" fill="white"/>
</g>
<circle cx="1431.6" cy="63.6" r="2.4" fill="white"/>
<g filter="url(#filter1_f_746_1209)">
<circle cx="308" cy="85" r="2" fill="white"/>
</g>
<circle cx="308" cy="85" r="2" fill="white"/>
<g filter="url(#filter2_f_746_1209)">
<circle cx="72" cy="59" r="2" fill="white"/>
</g>
<circle cx="72" cy="59" r="2" fill="white"/>
<g filter="url(#filter3_f_746_1209)">
<circle cx="1219.2" cy="33.6" r="2.4" fill="white"/>
</g>
<circle cx="1219.2" cy="33.6" r="2.4" fill="white"/>
<g filter="url(#filter4_f_746_1209)">
<circle cx="1051" cy="65" r="2" fill="white"/>
</g>
<circle cx="1051" cy="65" r="2" fill="white"/>
<g filter="url(#filter5_f_746_1209)">
<circle cx="1668" cy="78" r="2.4" fill="white"/>
</g>
<circle cx="1668" cy="78" r="2.4" fill="white"/>
<g filter="url(#filter6_f_746_1209)">
<circle cx="812.4" cy="38.4" r="2.4" fill="white"/>
</g>
<circle cx="812.4" cy="38.4" r="2.4" fill="white"/>
<g filter="url(#filter7_f_746_1209)">
<circle cx="1155.6" cy="255.6" r="2.4" fill="white"/>
</g>
<circle cx="1155.6" cy="255.6" r="2.4" fill="white"/>
<g filter="url(#filter8_f_746_1209)">
<circle cx="1344" cy="489.6" r="2.4" fill="white"/>
</g>
<circle cx="1344" cy="489.6" r="2.4" fill="white"/>
<g filter="url(#filter9_f_746_1209)">
<circle cx="1558.8" cy="888" r="2.4" fill="white"/>
</g>
<circle cx="1558.8" cy="888" r="2.4" fill="white"/>
<g filter="url(#filter10_f_746_1209)">
<circle cx="1221.6" cy="921.6" r="2.4" fill="white"/>
</g>
<circle cx="1221.6" cy="921.6" r="2.4" fill="white"/>
<g filter="url(#filter11_f_746_1209)">
<circle cx="1574.4" cy="542.4" r="2.4" fill="white"/>
</g>
<circle cx="1574.4" cy="542.4" r="2.4" fill="white"/>
<g filter="url(#filter12_f_746_1209)">
<circle cx="1672.8" cy="796.8" r="2.4" fill="white"/>
</g>
<circle cx="1672.8" cy="796.8" r="2.4" fill="white"/>
<g filter="url(#filter13_f_746_1209)">
<circle cx="1680" cy="381.6" r="2.4" fill="white"/>
</g>
<circle cx="1680" cy="381.6" r="2.4" fill="white"/>
<g filter="url(#filter14_f_746_1209)">
<circle cx="760.8" cy="559.2" r="2.4" fill="white"/>
</g>
<circle cx="760.8" cy="559.2" r="2.4" fill="white"/>
<g filter="url(#filter15_f_746_1209)">
<circle cx="966" cy="542.4" r="2.4" fill="white"/>
</g>
<circle cx="966" cy="542.4" r="2.4" fill="white"/>
<g filter="url(#filter16_f_746_1209)">
<circle cx="1131.6" cy="703.2" r="2.4" fill="white"/>
</g>
<circle cx="1131.6" cy="703.2" r="2.4" fill="white"/>
<g filter="url(#filter17_f_746_1209)">
<circle cx="1680" cy="608.4" r="2.4" fill="white"/>
</g>
<circle cx="1680" cy="608.4" r="2.4" fill="white"/>
<g filter="url(#filter18_f_746_1209)">
<circle cx="1413.6" cy="568.8" r="2.4" fill="white"/>
</g>
<circle cx="1413.6" cy="568.8" r="2.4" fill="white"/>
<g filter="url(#filter19_f_746_1209)">
<circle cx="403" cy="30" r="2" fill="white"/>
</g>
<circle cx="403" cy="30" r="2" fill="white"/>
<g filter="url(#filter20_f_746_1209)">
<circle cx="43" cy="206" r="2" fill="white"/>
</g>
<circle cx="43" cy="206" r="2" fill="white"/>
<g filter="url(#filter21_f_746_1209)">
<circle cx="1055" cy="303" r="2" fill="white"/>
</g>
<circle cx="1055" cy="303" r="2" fill="white"/>
<g filter="url(#filter22_f_746_1209)">
<circle cx="580" cy="207" r="2" fill="white"/>
</g>
<circle cx="580" cy="207" r="2" fill="white"/>
<g filter="url(#filter23_f_746_1209)">
<circle cx="670" cy="309" r="2" fill="white"/>
</g>
<circle cx="670" cy="309" r="2" fill="white"/>
<g filter="url(#filter24_f_746_1209)">
<circle cx="938" cy="730" r="2" fill="white"/>
</g>
<circle cx="938" cy="730" r="2" fill="white"/>
<g filter="url(#filter25_f_746_1209)">
<circle cx="619" cy="522" r="2" fill="white"/>
</g>
<circle cx="619" cy="522" r="2" fill="white"/>
<g filter="url(#filter26_f_746_1209)">
<circle cx="660" cy="682" r="2" fill="white"/>
</g>
<circle cx="660" cy="682" r="2" fill="white"/>
<g filter="url(#filter27_f_746_1209)">
<circle cx="313" cy="736" r="2" fill="white"/>
</g>
<circle cx="313" cy="736" r="2" fill="white"/>
<g filter="url(#filter28_f_746_1209)">
<circle cx="43" cy="766" r="2" fill="white"/>
</g>
<circle cx="43" cy="766" r="2" fill="white"/>
<g filter="url(#filter29_f_746_1209)">
<circle cx="373" cy="314" r="2" fill="white"/>
</g>
<circle cx="373" cy="314" r="2" fill="white"/>
<g filter="url(#filter30_f_746_1209)">
<circle cx="101" cy="521" r="2" fill="white"/>
</g>
<circle cx="101" cy="521" r="2" fill="white"/>
<g filter="url(#filter31_f_746_1209)">
<circle cx="155" cy="647" r="2" fill="white"/>
</g>
<circle cx="155" cy="647" r="2" fill="white"/>
<path d="M1148.48 418C1156.9 347.792 1219.51 332.69 1273.48 287C1300.06 264.491 1318.48 256.185 1344.48 233C1390.38 192.065 1384.81 102.333 1446.48 113C1508.14 123.667 1571.4 101.789 1601.98 157C1636.89 220.043 1567.48 214.5 1523.48 324C1479.48 433.5 1583.84 416.313 1581.48 482C1579.98 523.814 1552.18 543.159 1551.98 585C1551.7 640.305 1624.52 666.997 1601.98 717.5C1574.48 779.094 1430.48 738 1430.48 738C1378.64 748 1214.77 788.04 1207.48 700C1203.2 648.396 1269.1 636.595 1273.48 585C1280.37 503.829 1138.77 498.883 1148.48 418Z" fill="#E5E5E5" fill-opacity="0.06"/>
<g clip-path="url(#clip1_746_1209)">
<path d="M1359.83 689.251C1288.71 695.951 1250.43 780.134 1297.54 837.615C1319.31 864.279 1355.66 877.469 1391.5 868.297C1410.69 863.377 1427.29 852.461 1439.12 838.258C1490.75 776.561 1442.11 681.451 1359.83 689.251Z" fill="url(#paint0_radial_746_1209)"/>
<path d="M1368.47 846.033C1343.47 846.033 1321.68 832.262 1310.41 811.927C1285.53 767.092 1319.84 712.664 1369.94 714.258C1401.8 714.901 1428.72 738.252 1433.86 769.305C1440.6 809.381 1409.45 846.033 1368.47 846.033Z" fill="url(#paint1_radial_746_1209)"/>
<g opacity="0.75">
<path d="M1394.79 790.789C1392.04 790.109 1391.28 793.509 1392.84 794.275C1394.39 795.054 1398.3 797.378 1399.08 795.82C1399.86 794.275 1397.91 791.568 1394.79 790.789Z" fill="#056DB1"/>
<path d="M1422.08 762.11C1419.42 762.716 1416.24 764.051 1418.96 765.992C1421.7 767.933 1425.97 767.154 1426.37 764.83C1426.76 762.493 1427.15 760.948 1422.08 762.11Z" fill="#056DB1"/>
<path d="M1368.67 824.512C1362.95 821.1 1354.63 819.864 1353.85 823.35C1353.07 826.836 1358.52 832.262 1365.15 831.484C1371.79 830.717 1372.57 826.836 1368.67 824.512Z" fill="#056DB1"/>
<path d="M1387.32 843.326C1382.16 844.847 1376.74 845.761 1371.13 845.971C1372.41 837.899 1380.13 840.446 1384.26 841.558C1385.47 841.892 1386.47 842.547 1387.32 843.326Z" fill="#056DB1"/>
<path d="M1332.41 824.128C1334.94 825.229 1336.7 819.864 1333.2 815.216C1329.69 810.568 1328.12 804.745 1323.83 803.583C1319.55 802.421 1317.21 817.54 1332.41 824.128Z" fill="#056DB1"/>
<path d="M1315.26 805.129C1313.88 805.376 1313.3 808.231 1316.42 808.615C1319.54 809.01 1319.54 804.362 1315.26 805.129Z" fill="#056DB1"/>
<path d="M1349.96 789.244C1347.21 788.997 1344.5 790.406 1344.88 793.509C1345.27 796.612 1349.56 793.509 1351.51 793.509C1353.46 793.509 1354.25 789.627 1349.96 789.244Z" fill="#056DB1"/>
<path d="M1376.86 753.198C1374.5 752.085 1374.13 757.079 1376.08 757.846C1378.03 758.624 1383.49 756.288 1376.86 753.198Z" fill="#056DB1"/>
</g>
<path d="M1351.91 778.391C1338.66 780.715 1336.7 781.098 1324.62 791.185C1316.62 797.848 1308.28 795.697 1303.56 793.472C1302.67 789.17 1302.2 784.707 1302.2 780.134C1302.2 761.393 1310.07 744.47 1322.7 732.48C1325.3 734.012 1327.99 736.089 1330.08 738.858C1335.92 746.609 1334.75 749.712 1351.91 758.624C1369.05 767.537 1365.16 776.067 1351.91 778.391Z" fill="url(#paint2_linear_746_1209)"/>
<path d="M1428.37 751.9C1416.14 749.353 1407.8 763.112 1399.47 762.11C1389.72 760.948 1392.45 746.609 1384.26 731.491C1380.16 723.925 1379.87 718.684 1380.61 715.346C1401.78 719.228 1419.41 733.122 1428.37 751.9Z" fill="url(#paint3_linear_746_1209)"/>
<path d="M1434.75 780.134C1434.75 805.71 1420.11 827.874 1398.7 838.802C1393.81 831.125 1401.73 825.426 1411.17 819.481C1422.87 812.113 1411.95 809.01 1413.89 796.995C1415.84 784.979 1408.43 784.201 1411.94 774.126C1414.44 766.931 1427.47 773.755 1434.71 778.255C1434.74 778.873 1434.75 779.503 1434.75 780.134Z" fill="url(#paint4_linear_746_1209)"/>
<path d="M1372.57 800.098C1365.49 802.286 1361.66 793.892 1352.69 795.833C1343.73 797.774 1336.32 813.658 1348.4 813.275C1360.49 812.892 1363.61 811.334 1372.57 817.54C1381.54 823.745 1392.07 819.481 1395.19 809.789C1398.3 800.098 1396.35 792.73 1372.57 800.098Z" fill="url(#paint5_linear_746_1209)"/>
<path d="M1387.38 771.023C1383.65 772.21 1382.71 774.126 1383.88 776.45C1385.04 778.774 1389.72 778.391 1392.06 781.877C1394.39 785.362 1400.25 789.627 1401.8 781.877C1403.37 774.126 1395.96 768.303 1387.38 771.023Z" fill="url(#paint6_linear_746_1209)"/>
<path opacity="0.5" d="M1373.74 750.861C1373.05 756.028 1368.28 750.861 1360.49 749.316C1352.69 747.771 1349.57 743.111 1353.08 740.008C1356.58 736.905 1361.26 734.581 1365.95 737.288C1370.62 740.008 1374.51 745.051 1373.74 750.861Z" fill="#056DB1"/>
<path d="M1365.55 720.242C1355.8 720.242 1351.13 725.668 1342.16 728.771C1336.82 730.613 1332.59 728.474 1330.04 726.447C1340.88 718.758 1354.15 714.234 1368.48 714.234C1368.98 714.234 1369.46 714.234 1369.95 714.259C1370.63 717.052 1370.39 720.242 1365.55 720.242Z" fill="url(#paint7_linear_746_1209)"/>
<path opacity="0.45" d="M1431.59 800.295C1426.19 817.045 1414.21 830.878 1398.7 838.802C1395.08 840.643 1391.27 842.164 1387.32 843.338C1382.16 844.859 1376.74 845.774 1371.13 845.984C1370.25 846.021 1369.37 846.033 1368.47 846.033C1343.47 846.033 1321.68 832.262 1310.41 811.927C1307.25 806.241 1304.91 800.036 1303.56 793.472C1302.67 789.17 1302.2 784.707 1302.2 780.133C1302.2 772.173 1303.62 764.545 1306.22 757.487C1313.71 779.75 1330.87 808.479 1369.88 813.806C1377.48 814.845 1384.6 814.981 1391.24 814.412C1407.52 812.991 1420.93 807.329 1431.59 800.295Z" fill="url(#paint8_linear_746_1209)"/>
<path opacity="0.45" d="M1434.75 780.133C1434.75 787.167 1433.65 793.941 1431.59 800.295C1426.19 817.045 1414.21 830.878 1398.7 838.802C1395.08 840.643 1391.27 842.164 1387.32 843.338C1382.16 844.859 1376.74 845.774 1371.13 845.984C1370.25 846.021 1369.37 846.033 1368.47 846.033C1343.47 846.033 1321.68 832.262 1310.41 811.927C1321.87 816.613 1335.52 819.814 1351.71 820.445C1367.41 821.063 1380.44 818.652 1391.24 814.4C1414.44 805.277 1427.37 787.625 1434.38 773.087C1434.57 774.781 1434.68 776.511 1434.73 778.242C1434.74 778.873 1434.75 779.503 1434.75 780.133Z" fill="url(#paint9_linear_746_1209)"/>
<path d="M1433.87 769.342C1433.87 769.342 1424.43 734.976 1381.04 723.666C1355.03 716.879 1336.98 722.998 1326.69 728.981C1359.53 702.329 1409.75 712.911 1428.37 751.899C1432.7 760.936 1433.56 768.081 1433.87 769.342Z" fill="url(#paint10_linear_746_1209)"/>
</g>
<rect width="192.302" height="180.519" rx="15" transform="matrix(0.835813 0.549014 -0.549051 0.835789 1461.31 82.6937)" fill="#686767"/>
<rect width="192.302" height="3.92433" transform="matrix(0.835813 0.549014 -0.549051 0.835789 1434.37 123.691)" fill="#595959"/>
<rect width="192.302" height="3.92433" transform="matrix(0.835813 0.549015 -0.549051 0.835789 1423.6 140.091)" fill="#595959"/>
<ellipse cx="3.92455" cy="3.92435" rx="3.92455" ry="3.92435" transform="matrix(0.835813 0.549015 -0.549051 0.835789 1448.99 112.164)" fill="#7D7D7D"/>
<ellipse cx="3.92448" cy="3.92431" rx="3.92448" ry="3.92431" transform="matrix(0.835811 0.549017 -0.549049 0.835791 1590.04 204.812)" fill="#7D7D7D"/>
<ellipse cx="3.92452" cy="3.92432" rx="3.92452" ry="3.92432" transform="matrix(0.835813 0.549015 -0.549051 0.835789 1424.21 149.883)" fill="#7D7D7D"/>
<ellipse cx="3.92455" cy="3.92435" rx="3.92455" ry="3.92435" transform="matrix(0.835813 0.549015 -0.549051 0.835789 1565.26 242.532)" fill="#7D7D7D"/>
<rect width="37.283" height="100.07" rx="10" transform="matrix(0.999318 -0.0369264 0.0368827 0.99932 1516.13 226.602)" fill="#D6D6D6"/>
<ellipse cx="12.7547" cy="12.7541" rx="12.7547" ry="12.7541" transform="matrix(0.999318 -0.0369266 0.0368825 0.99932 1532.75 304.529)" fill="url(#paint11_radial_746_1209)"/>
<rect width="37.283" height="100.07" rx="10" transform="matrix(-0.294269 -0.955723 -0.95571 0.29431 1455.96 189.751)" fill="#D6D6D6"/>
<ellipse cx="12.7547" cy="12.7541" rx="12.7547" ry="12.7541" transform="matrix(-0.294269 -0.955723 -0.95571 0.294311 1378.06 199.995)" fill="url(#paint12_radial_746_1209)"/>
<path d="M1481.79 308.618L1398.14 253.675L1349.77 327.315C1346.74 331.931 1348.02 338.131 1352.64 341.163L1367.9 351.19C1372.52 354.222 1378.72 352.938 1381.75 348.322L1405.78 311.739C1408.81 307.124 1415.01 305.84 1419.63 308.872L1421.36 310.011C1425.98 313.043 1427.26 319.243 1424.23 323.859L1400.2 360.442C1397.17 365.058 1398.45 371.258 1403.07 374.29L1419.56 385.125C1424.18 388.157 1430.38 386.874 1433.41 382.258L1481.79 308.618Z" fill="#D6D6D6"/>
<rect width="127.547" height="123.616" transform="matrix(0.835813 0.549014 -0.549051 0.835789 1452.38 146.096)" fill="#E1E1E1"/>
<rect width="119.698" height="35.319" transform="matrix(0.835813 0.549014 -0.549051 0.835789 1398.56 235.169)" fill="#E1E1E1"/>
<rect width="9.81133" height="123.617" transform="matrix(0.835813 0.549015 -0.549051 0.835789 1468.78 156.87)" fill="url(#paint13_linear_746_1209)"/>
<rect width="9.81134" height="123.616" transform="matrix(0.835813 0.549014 -0.549052 0.835788 1531.1 197.807)" fill="url(#paint14_linear_746_1209)"/>
<rect width="127.547" height="3.92433" transform="matrix(0.835813 0.549014 -0.549051 0.835789 1386.66 246.134)" fill="#9A9A9A"/>
<rect width="13.7359" height="31.3947" rx="6.86795" transform="matrix(0.835814 0.549014 -0.549052 0.835788 1585.92 175.123)" fill="#D6D6D6"/>
<rect width="13.7359" height="31.3947" rx="6.86793" transform="matrix(0.835813 0.549015 -0.549051 0.835789 1467.83 97.5561)" fill="#D6D6D6"/>
<path d="M1582.01 191.337C1560.67 223.828 1517.02 232.864 1484.53 211.521C1452.04 190.177 1443 146.536 1464.34 114.045C1485.69 81.5547 1529.33 72.5183 1561.82 93.8619C1594.32 115.205 1603.36 158.847 1582.01 191.337Z" fill="#D6D6D6" stroke="#E1E1E1" stroke-width="0.5"/>
<path fill-rule="evenodd" clip-rule="evenodd" d="M1581.05 193.055C1558.93 223.018 1516.98 230.786 1485.47 210.09C1453.96 189.393 1444.43 147.805 1463.15 115.607C1462.37 116.653 1461.63 117.727 1460.9 118.828C1439.48 151.434 1448.55 195.23 1481.16 216.649C1513.77 238.069 1557.57 229 1578.99 196.394C1579.71 195.294 1580.4 194.18 1581.05 193.055Z" fill="#DDDDDD"/>
<path fill-rule="evenodd" clip-rule="evenodd" d="M1576.74 199.616C1554.62 229.578 1512.67 237.346 1481.16 216.65C1449.65 195.953 1440.12 154.365 1458.84 122.167C1458.06 123.214 1457.32 124.287 1456.59 125.388C1435.17 157.994 1444.24 201.79 1476.85 223.21C1509.46 244.629 1553.26 235.56 1574.68 202.954C1575.4 201.854 1576.09 200.74 1576.74 199.616Z" fill="#D6D6D6"/>
<path d="M1588.99 167.748C1578.46 140.881 1524.6 103.151 1490.25 94.6765C1464.53 114.171 1450.96 143.44 1462.76 174.046C1469.32 191.041 1478.4 199.298 1494.02 208.664C1505.58 215.594 1513.28 219.132 1526.75 219.599C1558.37 220.695 1585.03 186.278 1588.99 167.748Z" fill="black"/>
<rect x="1502.98" y="229.506" width="3.92453" height="1.96218" rx="0.981089" transform="rotate(13.3007 1502.98 229.506)" fill="#C4C4C4"/>
<rect width="1.96233" height="1.96209" rx="0.981047" transform="matrix(0.973176 0.230061 -0.230062 0.973176 1511.69 230.535)" fill="#C4C4C4"/>
<mask id="mask0_746_1209" style="mask-type:alpha" maskUnits="userSpaceOnUse" x="1458" y="94" width="131" height="126">
<path d="M1588.99 167.75C1578.46 140.882 1524.6 103.152 1490.25 94.678C1464.53 114.172 1450.96 143.441 1462.76 174.048C1469.32 191.043 1478.4 199.299 1494.02 208.666C1505.58 215.596 1513.28 219.134 1526.75 219.6C1558.37 220.696 1585.03 186.28 1588.99 167.75Z" fill="black"/>
</mask>
<g mask="url(#mask0_746_1209)">
<rect width="19.6219" height="108.726" transform="matrix(0.369765 0.929126 -0.929149 0.369707 1542.91 101.197)" fill="#484848"/>
<rect width="11.0719" height="114.619" transform="matrix(0.369764 0.929126 -0.929149 0.369707 1563.21 127.838)" fill="#484848"/>
</g>
<ellipse cx="12.7547" cy="12.7541" rx="12.7547" ry="12.7541" transform="matrix(0.835813 0.549015 -0.549051 0.835789 1491.82 103.924)" fill="#828282" fill-opacity="0.5"/>
<ellipse cx="6.86795" cy="6.86757" rx="6.86795" ry="6.86757" transform="matrix(0.835814 0.549013 -0.549053 0.835788 1508.22 114.698)" fill="#828282" fill-opacity="0.5"/>
<ellipse cx="4.90565" cy="4.90542" rx="4.90565" ry="4.90542" transform="matrix(0.835812 0.549016 -0.54905 0.83579 1481.05 120.324)" fill="#828282" fill-opacity="0.5"/>
<ellipse cx="4.90566" cy="4.90542" rx="4.90566" ry="4.90542" transform="matrix(0.835813 0.549015 -0.549051 0.835789 1517.82 85.7888)" fill="#BC0D0D"/>
<ellipse cx="4.9057" cy="4.90543" rx="4.9057" ry="4.90543" transform="matrix(0.835814 0.549013 -0.549053 0.835788 1540.17 91.0792)" fill="#BC0D0D"/>
<rect width="52.9812" height="27.4703" rx="5" transform="matrix(0.835813 0.549015 -0.549051 0.835789 1447.43 217.967)" fill="#273AE7"/>
<path d="M1473.15 239.561L1460.01 241.195L1467.24 244.479L1449.26 247.342" stroke="#D2CB15"/>
<g clip-path="url(#clip2_746_1209)">
<path d="M103.649 -249.527C-283.114 -212.823 -491.234 247.893 -235.086 562.553C-116.753 708.524 80.9477 780.747 275.854 730.479C380.295 703.523 470.505 643.846 534.796 566.113C815.593 228.312 551.144 -292.251 103.649 -249.527Z" fill="url(#paint15_radial_746_1209)"/>
<path d="M536.831 246.283C536.831 268.831 534.882 290.955 531.155 312.402C529.122 323.93 526.666 335.289 523.701 346.479C507.268 407.851 476.097 463.12 434.253 508.386C419.091 524.831 402.489 539.92 384.616 553.483C368.183 566.029 350.649 577.303 332.268 587.136C307.365 600.445 280.853 611.041 253.069 618.67C220.627 627.571 186.491 632.233 151.254 632.233C135.075 632.233 119.151 631.216 103.565 629.266C-27.0497 613.16 -137.505 531.613 -193.918 418.447C-215.942 374.367 -229.748 325.541 -233.391 273.917C-234.068 264.762 -234.407 255.522 -234.407 246.283C-234.407 188.047 -221.532 132.863 -198.492 83.3579C-177.909 39.1088 -149.109 -0.562737 -114.211 -33.7071C-81.9385 -64.3933 -44.3295 -89.5695 -2.90884 -107.625C44.2718 -128.224 96.4499 -139.668 151.169 -139.668C317.445 -139.668 459.156 -34.3853 513.282 113.281C526.751 150.071 534.798 189.403 536.492 230.516C536.746 235.687 536.831 240.942 536.831 246.283Z" fill="url(#paint16_radial_746_1209)"/>
<path d="M108.903 352.837C108.395 355.973 107.294 358.94 105.685 361.652C93.4025 383.692 50.6265 394.543 2.93763 386.32C-38.5678 379.115 -71.6874 359.448 -82.3602 338.087C-85.4943 331.814 -86.6801 325.456 -85.5789 319.099C-80.7508 291.295 -34.0784 284.598 19.6245 294.007C73.3274 303.247 113.732 325.033 108.903 352.837Z" fill="#BCBCBC"/>
<path d="M-5.3639 169.059L-5.44869 169.143C-16.1215 185.249 -49.4105 170.5 -88.1206 145.154C-119.715 124.47 -142.247 103.872 -143.772 88.1896C-144.111 84.6293 -143.348 81.2386 -141.4 78.1869C-130.727 61.9114 -88.3747 60.8094 -49.5798 86.2399C-10.785 111.67 5.30891 152.783 -5.3639 169.059Z" fill="#BCBCBC"/>
<path d="M421.887 406.749C390.631 432.858 353.191 439.555 338.368 421.668C337.605 420.736 336.928 419.804 336.335 418.786C324.984 400.222 338.537 366.908 368.184 342.241C398.339 317.064 434.169 309.944 450.009 325.456C450.602 326.05 451.195 326.643 451.703 327.237C466.526 345.123 453.228 380.725 421.887 406.749Z" fill="#BCBCBC"/>
<path d="M196.402 192.709C164.807 217.716 132.704 231.533 114.323 208.307C112.544 206.103 111.104 203.729 109.833 201.186C98.1442 177.621 109.664 143.459 138.294 120.826C169.889 95.8191 213.004 84.0363 242.397 121.25C242.566 121.504 242.82 121.758 242.905 122.012C260.185 144.985 227.743 167.957 196.402 192.709Z" fill="#BCBCBC"/>
<path d="M70.1917 541.955C65.6176 546.363 56.5541 548.821 42.3237 548.143C-9.85449 545.854 -66.522 482.278 -50.6822 461.849C-50.4281 461.51 -50.174 461.255 -49.9199 461.001C-33.4871 442.437 7.67941 475.835 28.6862 486.855C63.3305 504.996 82.3045 530.341 70.1917 541.955Z" fill="#BCBCBC"/>
<path d="M274.84 495.078C274.924 507.115 258.576 519.83 232.826 520.932C185.73 522.966 158.879 513.896 152.526 497.112C151.848 495.332 151.425 493.467 151.17 491.432C148.883 471.003 191.998 474.479 214.699 473.292C257.306 471.003 274.755 482.701 274.84 495.078Z" fill="#BCBCBC"/>
<path d="M417.566 224.243C412.399 231.957 402.404 237.213 389.444 237.213C348.617 237.213 294.151 207.713 301.012 180.418C301.775 177.282 302.961 174.569 304.316 172.365C314.819 155.411 341.332 163.634 366.828 169.059C417.821 179.909 428.747 207.713 417.566 224.243Z" fill="#BCBCBC"/>
<path d="M285.003 23.7657C284.495 22.579 284.241 21.2227 284.071 19.7816C283.055 8.16837 294.49 -8.78529 316.767 -14.8886C331.252 -18.8727 350.819 -18.3641 362.931 -10.9045C368.268 -7.59855 372.079 -3.02105 373.519 3.25181C376.908 18.8492 292.203 41.8214 285.003 23.7657Z" fill="#BCBCBC"/>
<path d="M480.078 130.489C478.299 131.337 476.182 131.506 473.895 130.913C464.408 128.455 452.041 113.875 448.314 91.9197C446.196 79.0349 452.634 66.6587 461.02 62.7594C470.337 58.3514 482.111 64.4547 486.854 91.9197C489.65 107.517 489.226 125.912 480.078 130.489Z" fill="#BCBCBC"/>
<path d="M434.254 508.386C405.031 540.005 370.556 566.707 332.27 587.051C327.95 584.932 324.053 581.795 322.529 577.303C321.173 573.319 321.766 568.233 325.917 561.79C341.757 536.784 357.681 498.214 393.935 495.925C404.523 495.247 412.909 496.519 419.6 498.892C426.038 501.266 430.782 504.656 434.254 508.386Z" fill="#BCBCBC"/>
<path d="M252.986 618.585C220.544 627.486 186.407 632.148 151.17 632.148C134.992 632.148 119.067 631.131 103.481 629.181C103.481 624.604 104.329 619.687 107.124 615.533C109.834 611.549 114.324 608.328 121.693 607.141C148.883 602.564 162.521 584.423 201.061 586.712C221.052 587.899 235.028 597.647 243.753 606.718C248.073 611.295 251.037 615.533 252.986 618.585Z" fill="#BCBCBC"/>
<path d="M85.4377 425.568C75.2732 420.482 67.3108 416.497 69.5979 436.927C71.8849 457.356 87.7247 461.933 101.362 461.933C114.915 461.933 94.5012 430.145 85.4377 425.568Z" fill="#9B9B9B"/>
<path d="M536.83 246.283C536.83 268.831 534.882 290.955 531.155 312.402C527.851 311.13 524.463 308.842 520.905 305.281C498.204 282.563 515.399 250.351 520.905 239.416C527.004 227.21 533.103 228.312 536.491 230.431C536.745 235.687 536.83 240.942 536.83 246.283Z" fill="#9B9B9B"/>
<path d="M303.214 271.204C290.085 269.594 282.8 280.274 303.214 289.345C323.628 298.5 321.341 273.493 303.214 271.204Z" fill="#9B9B9B"/>
<path d="M137.617 10.2028C130.84 12.4916 121.777 19.2731 137.617 21.5618C153.456 23.7658 144.393 7.9141 137.617 10.2028Z" fill="#9B9B9B"/>
<path d="M176.157 10.2028C167.856 5.37101 167.094 28.3432 173.87 37.4134C180.647 46.4836 203.347 26.0545 176.157 10.2028Z" fill="#9B9B9B"/>
<path d="M248.748 548.227C243.835 549.329 241.971 557.298 255.524 561.875C269.162 566.368 269.162 543.65 248.748 548.227Z" fill="#9B9B9B"/>
<path d="M51.3869 586.797C44.6105 589.086 37.7494 593.578 51.3869 598.156C65.0244 602.649 58.1633 584.508 51.3869 586.797Z" fill="#9B9B9B"/>
<path d="M62.7378 253.064C51.218 253.657 76.3753 268.916 83.1517 271.204C89.9281 273.493 110.342 250.775 62.7378 253.064Z" fill="#9B9B9B"/>
<path d="M434.761 194.065C429.086 198.473 439.335 223.565 448.399 221.276C457.462 218.987 455.175 178.129 434.761 194.065Z" fill="#9B9B9B"/>
<path d="M252.308 353.176C251.291 357.075 250.021 360.89 248.75 364.28C242.143 381.997 203.094 388.948 192.76 380.81C192.506 380.641 192.252 380.386 191.998 380.132C182.935 371.062 191.744 348.259 196.572 336.985C203.349 321.133 237.4 309.774 248.75 314.267C257.899 318.082 256.713 336.646 252.308 353.176Z" fill="#BCBCBC"/>
<path d="M-143.772 88.2744C-144.111 84.7142 -143.348 81.3234 -141.4 78.2718C-130.727 61.9963 -88.3747 60.8943 -49.5798 86.3248C-10.785 111.755 5.30891 152.868 -5.3639 169.143L-5.44869 169.228C-4.85576 159.31 -9.00621 145.408 -23.4907 125.996C-61.2691 75.5592 -130.134 58.1817 -143.772 88.2744Z" fill="#9B9B9B"/>
<path d="M108.903 352.836C108.395 355.973 107.294 358.94 105.685 361.652C104.753 357.753 96.3671 327.152 58.1652 314.352C18.5234 301.128 -34.8408 289.345 -66.6051 314.352C-76.7697 322.32 -81.0897 330.542 -82.3602 338.002C-85.4943 331.729 -86.6801 325.371 -85.5789 319.014C-80.7508 291.21 -34.0784 284.513 19.6245 293.922C73.3274 303.247 113.732 325.032 108.903 352.836Z" fill="#9B9B9B"/>
<path d="M171.583 114.553C129.4 129.133 111.612 170.5 109.833 201.186C98.1442 177.621 109.664 143.459 138.294 120.826C169.889 95.8191 213.004 84.0363 242.397 121.25C242.566 121.504 242.82 121.758 242.905 122.012C230.199 112.179 207.075 102.346 171.583 114.553Z" fill="#9B9B9B"/>
<path d="M252.308 353.176C251.885 336.731 247.819 318.166 230.624 323.422C213.005 328.847 193.015 360.805 192.845 380.81C192.591 380.641 192.337 380.386 192.083 380.132C183.02 371.062 191.829 348.259 196.657 336.985C203.434 321.133 237.485 309.774 248.835 314.267C257.899 318.082 256.713 336.646 252.308 353.176Z" fill="#9B9B9B"/>
<path d="M417.567 224.243C422.734 194.32 374.791 184.656 350.819 175.925C327.102 167.279 310.838 170.331 304.231 172.365C314.735 155.411 341.248 163.634 366.744 169.059C417.821 179.909 428.748 207.713 417.567 224.243Z" fill="#9B9B9B"/>
<path d="M285.005 23.7659C284.497 22.5791 284.243 21.2228 284.073 19.7818C298.388 29.2758 335.066 21.5619 355.31 12.4069C369.795 5.79499 367.423 -3.86858 362.933 -10.8196C368.27 -7.51362 372.082 -2.93614 373.522 3.33671C376.91 18.8493 292.205 41.8215 285.005 23.7659Z" fill="#9B9B9B"/>
<path d="M70.1916 541.955C68.2434 529.748 57.0624 517.88 37.7497 507.284C12.7617 493.637 -5.36517 480.074 -21.205 468.715C-29.5061 462.781 -40.9412 461.17 -49.9199 461.001C-33.4872 442.437 7.67937 475.835 28.6862 486.855C63.3305 504.996 82.3044 530.341 70.1916 541.955Z" fill="#9B9B9B"/>
<path d="M274.84 495.077C271.197 486.007 260.186 482.277 241.89 482.277H178.361C154.051 482.277 152.526 496.349 152.526 497.027C151.848 495.247 151.425 493.382 151.17 491.348C148.883 470.918 191.998 474.394 214.699 473.207C257.306 471.003 274.755 482.701 274.84 495.077Z" fill="#9B9B9B"/>
<path d="M243.753 606.802C248.073 611.21 251.037 615.533 252.986 618.585C220.544 627.486 186.407 632.148 151.17 632.148C134.992 632.148 119.067 631.131 103.481 629.181C103.481 624.604 104.329 619.687 107.124 615.533C182.511 633.335 225.965 616.805 243.753 606.802Z" fill="#9B9B9B"/>
<path d="M434.253 508.387C405.03 540.005 370.555 566.707 332.268 587.052C327.948 584.932 324.052 581.796 322.527 577.303C385.802 553.568 413.161 510.59 419.599 498.977C426.037 501.266 430.78 504.657 434.253 508.387Z" fill="#9B9B9B"/>
<path d="M450.009 325.456C444.927 323.676 408.757 313.589 366.659 361.992C345.398 386.49 338.029 405.478 336.335 418.786C324.984 400.222 338.537 366.908 368.184 342.241C398.339 317.149 434.169 309.944 450.009 325.456Z" fill="#9B9B9B"/>
<path d="M473.895 130.828C464.408 128.37 452.041 113.79 448.314 91.8348C446.196 78.95 452.634 66.5738 461.02 62.6744C457.377 67.5062 453.989 74.8811 455.09 85.0533C457.038 101.498 463.222 117.943 473.895 130.828Z" fill="#9B9B9B"/>
<path opacity="0.45" d="M384.616 553.483C368.183 566.029 350.649 577.303 332.268 587.136C307.365 600.445 280.853 611.041 253.069 618.67C220.627 627.571 186.491 632.233 151.254 632.233C135.075 632.233 119.151 631.216 103.565 629.266C-27.0497 613.16 -137.505 531.613 -193.918 418.447C-215.942 374.368 -229.748 325.541 -233.391 273.917C-234.068 264.762 -234.407 255.522 -234.407 246.283C-234.407 188.047 -221.532 132.863 -198.492 83.3579C-177.909 39.1088 -149.109 -0.562742 -114.211 -33.7072C-221.786 479.735 173.87 550.855 384.616 553.483Z" fill="url(#paint17_linear_746_1209)"/>
<path d="M536.831 246.283C536.831 268.831 534.883 290.956 531.156 312.402C529.123 323.93 526.666 335.289 523.702 346.479C510.318 36.0572 300.25 -140.43 -2.9082 -107.625C44.2724 -128.224 96.4505 -139.668 151.17 -139.668C317.445 -139.668 459.157 -34.3853 513.283 113.281C526.751 150.071 534.798 189.403 536.492 230.516C536.746 235.687 536.831 240.942 536.831 246.283Z" fill="url(#paint18_linear_746_1209)"/>
</g>
<path d="M383.5 268.5C329 191 204.112 21.5 79.1122 82.5C-45.888 143.5 65.9996 122.5 69.9996 195C73.9996 267.5 80.4997 284 61.4997 328C24.2886 414.173 22.2243 520.5 56.612 568C90.9996 615.5 309.612 788 381.112 777.5C452.612 767 438.112 643 396.612 577.5C355.112 512 172.61 602.47 283.612 503C322.112 468.5 415.112 540 438.112 540C461.112 540 541.863 483.73 473.112 388C399.5 285.5 438 346 383.5 268.5Z" fill="#E5E5E5" fill-opacity="0.06"/>
</g>
<defs>
<filter id="filter0_f_746_1209" x="1424.2" y="56.2" width="14.7998" height="14.8" filterUnits="userSpaceOnUse" color-interpolation-filters="sRGB">
<feFlood flood-opacity="0" result="BackgroundImageFix"/>
<feBlend mode="normal" in="SourceGraphic" in2="BackgroundImageFix" result="shape"/>
<feGaussianBlur stdDeviation="2.5" result="effect1_foregroundBlur_746_1209"/>
</filter>
<filter id="filter1_f_746_1209" x="301" y="78" width="14" height="14" filterUnits="userSpaceOnUse" color-interpolation-filters="sRGB">
<feFlood flood-opacity="0" result="BackgroundImageFix"/>
<feBlend mode="normal" in="SourceGraphic" in2="BackgroundImageFix" result="shape"/>
<feGaussianBlur stdDeviation="2.5" result="effect1_foregroundBlur_746_1209"/>
</filter>
<filter id="filter2_f_746_1209" x="65" y="52" width="14" height="14" filterUnits="userSpaceOnUse" color-interpolation-filters="sRGB">
<feFlood flood-opacity="0" result="BackgroundImageFix"/>
<feBlend mode="normal" in="SourceGraphic" in2="BackgroundImageFix" result="shape"/>
<feGaussianBlur stdDeviation="2.5" result="effect1_foregroundBlur_746_1209"/>
</filter>
<filter id="filter3_f_746_1209" x="1211.8" y="26.2" width="14.7998" height="14.8" filterUnits="userSpaceOnUse" color-interpolation-filters="sRGB">
<feFlood flood-opacity="0" result="BackgroundImageFix"/>
<feBlend mode="normal" in="SourceGraphic" in2="BackgroundImageFix" result="shape"/>
<feGaussianBlur stdDeviation="2.5" result="effect1_foregroundBlur_746_1209"/>
</filter>
<filter id="filter4_f_746_1209" x="1044" y="58" width="14" height="14" filterUnits="userSpaceOnUse" color-interpolation-filters="sRGB">
<feFlood flood-opacity="0" result="BackgroundImageFix"/>
<feBlend mode="normal" in="SourceGraphic" in2="BackgroundImageFix" result="shape"/>
<feGaussianBlur stdDeviation="2.5" result="effect1_foregroundBlur_746_1209"/>
</filter>
<filter id="filter5_f_746_1209" x="1660.6" y="70.6" width="14.7998" height="14.8" filterUnits="userSpaceOnUse" color-interpolation-filters="sRGB">
<feFlood flood-opacity="0" result="BackgroundImageFix"/>
<feBlend mode="normal" in="SourceGraphic" in2="BackgroundImageFix" result="shape"/>
<feGaussianBlur stdDeviation="2.5" result="effect1_foregroundBlur_746_1209"/>
</filter>
<filter id="filter6_f_746_1209" x="805" y="31" width="14.7998" height="14.8" filterUnits="userSpaceOnUse" color-interpolation-filters="sRGB">
<feFlood flood-opacity="0" result="BackgroundImageFix"/>
<feBlend mode="normal" in="SourceGraphic" in2="BackgroundImageFix" result="shape"/>
<feGaussianBlur stdDeviation="2.5" result="effect1_foregroundBlur_746_1209"/>
</filter>
<filter id="filter7_f_746_1209" x="1148.2" y="248.2" width="14.7998" height="14.8" filterUnits="userSpaceOnUse" color-interpolation-filters="sRGB">
<feFlood flood-opacity="0" result="BackgroundImageFix"/>
<feBlend mode="normal" in="SourceGraphic" in2="BackgroundImageFix" result="shape"/>
<feGaussianBlur stdDeviation="2.5" result="effect1_foregroundBlur_746_1209"/>
</filter>
<filter id="filter8_f_746_1209" x="1336.6" y="482.2" width="14.7998" height="14.8" filterUnits="userSpaceOnUse" color-interpolation-filters="sRGB">
<feFlood flood-opacity="0" result="BackgroundImageFix"/>
<feBlend mode="normal" in="SourceGraphic" in2="BackgroundImageFix" result="shape"/>
<feGaussianBlur stdDeviation="2.5" result="effect1_foregroundBlur_746_1209"/>
</filter>
<filter id="filter9_f_746_1209" x="1551.4" y="880.6" width="14.7998" height="14.8" filterUnits="userSpaceOnUse" color-interpolation-filters="sRGB">
<feFlood flood-opacity="0" result="BackgroundImageFix"/>
<feBlend mode="normal" in="SourceGraphic" in2="BackgroundImageFix" result="shape"/>
<feGaussianBlur stdDeviation="2.5" result="effect1_foregroundBlur_746_1209"/>
</filter>
<filter id="filter10_f_746_1209" x="1214.2" y="914.2" width="14.7998" height="14.8" filterUnits="userSpaceOnUse" color-interpolation-filters="sRGB">
<feFlood flood-opacity="0" result="BackgroundImageFix"/>
<feBlend mode="normal" in="SourceGraphic" in2="BackgroundImageFix" result="shape"/>
<feGaussianBlur stdDeviation="2.5" result="effect1_foregroundBlur_746_1209"/>
</filter>
<filter id="filter11_f_746_1209" x="1567" y="535" width="14.7998" height="14.8" filterUnits="userSpaceOnUse" color-interpolation-filters="sRGB">
<feFlood flood-opacity="0" result="BackgroundImageFix"/>
<feBlend mode="normal" in="SourceGraphic" in2="BackgroundImageFix" result="shape"/>
<feGaussianBlur stdDeviation="2.5" result="effect1_foregroundBlur_746_1209"/>
</filter>
<filter id="filter12_f_746_1209" x="1665.4" y="789.4" width="14.7998" height="14.8" filterUnits="userSpaceOnUse" color-interpolation-filters="sRGB">
<feFlood flood-opacity="0" result="BackgroundImageFix"/>
<feBlend mode="normal" in="SourceGraphic" in2="BackgroundImageFix" result="shape"/>
<feGaussianBlur stdDeviation="2.5" result="effect1_foregroundBlur_746_1209"/>
</filter>
<filter id="filter13_f_746_1209" x="1672.6" y="374.2" width="14.7998" height="14.8" filterUnits="userSpaceOnUse" color-interpolation-filters="sRGB">
<feFlood flood-opacity="0" result="BackgroundImageFix"/>
<feBlend mode="normal" in="SourceGraphic" in2="BackgroundImageFix" result="shape"/>
<feGaussianBlur stdDeviation="2.5" result="effect1_foregroundBlur_746_1209"/>
</filter>
<filter id="filter14_f_746_1209" x="753.4" y="551.8" width="14.7998" height="14.8" filterUnits="userSpaceOnUse" color-interpolation-filters="sRGB">
<feFlood flood-opacity="0" result="BackgroundImageFix"/>
<feBlend mode="normal" in="SourceGraphic" in2="BackgroundImageFix" result="shape"/>
<feGaussianBlur stdDeviation="2.5" result="effect1_foregroundBlur_746_1209"/>
</filter>
<filter id="filter15_f_746_1209" x="958.6" y="535" width="14.7998" height="14.8" filterUnits="userSpaceOnUse" color-interpolation-filters="sRGB">
<feFlood flood-opacity="0" result="BackgroundImageFix"/>
<feBlend mode="normal" in="SourceGraphic" in2="BackgroundImageFix" result="shape"/>
<feGaussianBlur stdDeviation="2.5" result="effect1_foregroundBlur_746_1209"/>
</filter>
<filter id="filter16_f_746_1209" x="1124.2" y="695.8" width="14.7998" height="14.8" filterUnits="userSpaceOnUse" color-interpolation-filters="sRGB">
<feFlood flood-opacity="0" result="BackgroundImageFix"/>
<feBlend mode="normal" in="SourceGraphic" in2="BackgroundImageFix" result="shape"/>
<feGaussianBlur stdDeviation="2.5" result="effect1_foregroundBlur_746_1209"/>
</filter>
<filter id="filter17_f_746_1209" x="1672.6" y="601" width="14.7998" height="14.8" filterUnits="userSpaceOnUse" color-interpolation-filters="sRGB">
<feFlood flood-opacity="0" result="BackgroundImageFix"/>
<feBlend mode="normal" in="SourceGraphic" in2="BackgroundImageFix" result="shape"/>
<feGaussianBlur stdDeviation="2.5" result="effect1_foregroundBlur_746_1209"/>
</filter>
<filter id="filter18_f_746_1209" x="1406.2" y="561.4" width="14.7998" height="14.8" filterUnits="userSpaceOnUse" color-interpolation-filters="sRGB">
<feFlood flood-opacity="0" result="BackgroundImageFix"/>
<feBlend mode="normal" in="SourceGraphic" in2="BackgroundImageFix" result="shape"/>
<feGaussianBlur stdDeviation="2.5" result="effect1_foregroundBlur_746_1209"/>
</filter>
<filter id="filter19_f_746_1209" x="396" y="23" width="14" height="14" filterUnits="userSpaceOnUse" color-interpolation-filters="sRGB">
<feFlood flood-opacity="0" result="BackgroundImageFix"/>
<feBlend mode="normal" in="SourceGraphic" in2="BackgroundImageFix" result="shape"/>
<feGaussianBlur stdDeviation="2.5" result="effect1_foregroundBlur_746_1209"/>
</filter>
<filter id="filter20_f_746_1209" x="36" y="199" width="14" height="14" filterUnits="userSpaceOnUse" color-interpolation-filters="sRGB">
<feFlood flood-opacity="0" result="BackgroundImageFix"/>
<feBlend mode="normal" in="SourceGraphic" in2="BackgroundImageFix" result="shape"/>
<feGaussianBlur stdDeviation="2.5" result="effect1_foregroundBlur_746_1209"/>
</filter>
<filter id="filter21_f_746_1209" x="1048" y="296" width="14" height="14" filterUnits="userSpaceOnUse" color-interpolation-filters="sRGB">
<feFlood flood-opacity="0" result="BackgroundImageFix"/>
<feBlend mode="normal" in="SourceGraphic" in2="BackgroundImageFix" result="shape"/>
<feGaussianBlur stdDeviation="2.5" result="effect1_foregroundBlur_746_1209"/>
</filter>
<filter id="filter22_f_746_1209" x="573" y="200" width="14" height="14" filterUnits="userSpaceOnUse" color-interpolation-filters="sRGB">
<feFlood flood-opacity="0" result="BackgroundImageFix"/>
<feBlend mode="normal" in="SourceGraphic" in2="BackgroundImageFix" result="shape"/>
<feGaussianBlur stdDeviation="2.5" result="effect1_foregroundBlur_746_1209"/>
</filter>
<filter id="filter23_f_746_1209" x="663" y="302" width="14" height="14" filterUnits="userSpaceOnUse" color-interpolation-filters="sRGB">
<feFlood flood-opacity="0" result="BackgroundImageFix"/>
<feBlend mode="normal" in="SourceGraphic" in2="BackgroundImageFix" result="shape"/>
<feGaussianBlur stdDeviation="2.5" result="effect1_foregroundBlur_746_1209"/>
</filter>
<filter id="filter24_f_746_1209" x="931" y="723" width="14" height="14" filterUnits="userSpaceOnUse" color-interpolation-filters="sRGB">
<feFlood flood-opacity="0" result="BackgroundImageFix"/>
<feBlend mode="normal" in="SourceGraphic" in2="BackgroundImageFix" result="shape"/>
<feGaussianBlur stdDeviation="2.5" result="effect1_foregroundBlur_746_1209"/>
</filter>
<filter id="filter25_f_746_1209" x="612" y="515" width="14" height="14" filterUnits="userSpaceOnUse" color-interpolation-filters="sRGB">
<feFlood flood-opacity="0" result="BackgroundImageFix"/>
<feBlend mode="normal" in="SourceGraphic" in2="BackgroundImageFix" result="shape"/>
<feGaussianBlur stdDeviation="2.5" result="effect1_foregroundBlur_746_1209"/>
</filter>
<filter id="filter26_f_746_1209" x="653" y="675" width="14" height="14" filterUnits="userSpaceOnUse" color-interpolation-filters="sRGB">
<feFlood flood-opacity="0" result="BackgroundImageFix"/>
<feBlend mode="normal" in="SourceGraphic" in2="BackgroundImageFix" result="shape"/>
<feGaussianBlur stdDeviation="2.5" result="effect1_foregroundBlur_746_1209"/>
</filter>
<filter id="filter27_f_746_1209" x="306" y="729" width="14" height="14" filterUnits="userSpaceOnUse" color-interpolation-filters="sRGB">
<feFlood flood-opacity="0" result="BackgroundImageFix"/>
<feBlend mode="normal" in="SourceGraphic" in2="BackgroundImageFix" result="shape"/>
<feGaussianBlur stdDeviation="2.5" result="effect1_foregroundBlur_746_1209"/>
</filter>
<filter id="filter28_f_746_1209" x="36" y="759" width="14" height="14" filterUnits="userSpaceOnUse" color-interpolation-filters="sRGB">
<feFlood flood-opacity="0" result="BackgroundImageFix"/>
<feBlend mode="normal" in="SourceGraphic" in2="BackgroundImageFix" result="shape"/>
<feGaussianBlur stdDeviation="2.5" result="effect1_foregroundBlur_746_1209"/>
</filter>
<filter id="filter29_f_746_1209" x="366" y="307" width="14" height="14" filterUnits="userSpaceOnUse" color-interpolation-filters="sRGB">
<feFlood flood-opacity="0" result="BackgroundImageFix"/>
<feBlend mode="normal" in="SourceGraphic" in2="BackgroundImageFix" result="shape"/>
<feGaussianBlur stdDeviation="2.5" result="effect1_foregroundBlur_746_1209"/>
</filter>
<filter id="filter30_f_746_1209" x="94" y="514" width="14" height="14" filterUnits="userSpaceOnUse" color-interpolation-filters="sRGB">
<feFlood flood-opacity="0" result="BackgroundImageFix"/>
<feBlend mode="normal" in="SourceGraphic" in2="BackgroundImageFix" result="shape"/>
<feGaussianBlur stdDeviation="2.5" result="effect1_foregroundBlur_746_1209"/>
</filter>
<filter id="filter31_f_746_1209" x="148" y="640" width="14" height="14" filterUnits="userSpaceOnUse" color-interpolation-filters="sRGB">
<feFlood flood-opacity="0" result="BackgroundImageFix"/>
<feBlend mode="normal" in="SourceGraphic" in2="BackgroundImageFix" result="shape"/>
<feGaussianBlur stdDeviation="2.5" result="effect1_foregroundBlur_746_1209"/>
</filter>
<radialGradient id="paint0_radial_746_1209" cx="0" cy="0" r="1" gradientUnits="userSpaceOnUse" gradientTransform="translate(1368.57 780.003) scale(79.1977 78.7412)">
<stop stop-color="#90DD6F"/>
<stop offset="1" stop-color="#B8FFA9" stop-opacity="0"/>
</radialGradient>
<radialGradient id="paint1_radial_746_1209" cx="0" cy="0" r="1" gradientUnits="userSpaceOnUse" gradientTransform="translate(1371.76 754.345) scale(80.4362 79.9725)">
<stop stop-color="#00B3DC"/>
<stop offset="1" stop-color="#056DB0"/>
</radialGradient>
<linearGradient id="paint2_linear_746_1209" x1="1324.92" y1="678.536" x2="1339.95" y2="868.087" gradientUnits="userSpaceOnUse">
<stop stop-color="#F2F236"/>
<stop offset="1" stop-color="#F2F236" stop-opacity="0"/>
</linearGradient>
<linearGradient id="paint3_linear_746_1209" x1="1399.3" y1="672.639" x2="1414.33" y2="862.189" gradientUnits="userSpaceOnUse">
<stop stop-color="#F2F236"/>
<stop offset="1" stop-color="#F2F236" stop-opacity="0"/>
</linearGradient>
<linearGradient id="paint4_linear_746_1209" x1="1405.2" y1="672.17" x2="1420.23" y2="861.721" gradientUnits="userSpaceOnUse">
<stop stop-color="#F2F236"/>
<stop offset="1" stop-color="#F2F236" stop-opacity="0"/>
</linearGradient>
<linearGradient id="paint5_linear_746_1209" x1="1358.76" y1="675.853" x2="1373.79" y2="865.404" gradientUnits="userSpaceOnUse">
<stop stop-color="#F2F236"/>
<stop offset="1" stop-color="#F2F236" stop-opacity="0"/>
</linearGradient>
<linearGradient id="paint6_linear_746_1209" x1="1384.42" y1="673.818" x2="1399.46" y2="863.369" gradientUnits="userSpaceOnUse">
<stop stop-color="#F2F236"/>
<stop offset="1" stop-color="#F2F236" stop-opacity="0"/>
</linearGradient>
<linearGradient id="paint7_linear_746_1209" x1="1346.57" y1="676.82" x2="1361.6" y2="866.371" gradientUnits="userSpaceOnUse">
<stop stop-color="#F2F236"/>
<stop offset="1" stop-color="#F2F236" stop-opacity="0"/>
</linearGradient>
<linearGradient id="paint8_linear_746_1209" x1="1358.4" y1="865.444" x2="1368.22" y2="775.315" gradientUnits="userSpaceOnUse">
<stop stop-color="#00ACD8"/>
<stop offset="1" stop-color="#0983BD"/>
</linearGradient>
<linearGradient id="paint9_linear_746_1209" x1="1365.08" y1="861.57" x2="1376.06" y2="767.368" gradientUnits="userSpaceOnUse">
<stop stop-color="#056EB1"/>
<stop offset="1" stop-color="#00A9D7" stop-opacity="0.3"/>
</linearGradient>
<linearGradient id="paint10_linear_746_1209" x1="1416.61" y1="677.94" x2="1375.27" y2="759.921" gradientUnits="userSpaceOnUse">
<stop stop-color="#E2FFB5"/>
<stop offset="1" stop-color="#FFFFB3" stop-opacity="0"/>
</linearGradient>
<radialGradient id="paint11_radial_746_1209" cx="0" cy="0" r="1" gradientUnits="userSpaceOnUse" gradientTransform="translate(15.6981 15.6973) rotate(-156.802) scale(7.47203 7.47176)">
<stop stop-color="white"/>
<stop offset="1" stop-color="#DDDDDD"/>
</radialGradient>
<radialGradient id="paint12_radial_746_1209" cx="0" cy="0" r="1" gradientUnits="userSpaceOnUse" gradientTransform="translate(15.6981 15.6973) rotate(-156.802) scale(7.47203 7.47176)">
<stop stop-color="white"/>
<stop offset="1" stop-color="#DDDDDD"/>
</radialGradient>
<linearGradient id="paint13_linear_746_1209" x1="4.90566" y1="0" x2="4.90566" y2="123.617" gradientUnits="userSpaceOnUse">
<stop stop-color="#3BB094"/>
<stop offset="1" stop-color="#232030"/>
</linearGradient>
<linearGradient id="paint14_linear_746_1209" x1="4.90567" y1="0" x2="4.90567" y2="123.616" gradientUnits="userSpaceOnUse">
<stop stop-color="#3BB094"/>
<stop offset="1" stop-color="#232030"/>
</linearGradient>
<radialGradient id="paint15_radial_746_1209" cx="0" cy="0" r="1" gradientUnits="userSpaceOnUse" gradientTransform="translate(151.208 247.173) scale(461.916 462.262)">
<stop stop-color="#F8F8F8"/>
<stop offset="1" stop-color="white" stop-opacity="0"/>
</radialGradient>
<radialGradient id="paint16_radial_746_1209" cx="0" cy="0" r="1" gradientUnits="userSpaceOnUse" gradientTransform="translate(134.18 41.9545) scale(588.874 589.315)">
<stop stop-color="#E8E8E8"/>
<stop offset="1" stop-color="#DFDFDF"/>
</radialGradient>
<linearGradient id="paint17_linear_746_1209" x1="76.6765" y1="804.484" x2="72.9083" y2="-151.973" gradientUnits="userSpaceOnUse">
<stop/>
<stop offset="1" stop-opacity="0.2"/>
</linearGradient>
<linearGradient id="paint18_linear_746_1209" x1="494.217" y1="-139.838" x2="259.399" y2="120.14" gradientUnits="userSpaceOnUse">
<stop stop-color="#B7B7B7"/>
<stop offset="0.557292" stop-color="#AEAEAE" stop-opacity="0.2"/>
</linearGradient>
<clipPath id="clip0_746_1209">
<rect width="1728" height="960" fill="white"/>
</clipPath>
<clipPath id="clip1_746_1209">
<rect width="183.6" height="182.4" fill="white" transform="translate(1276.77 688.8)"/>
</clipPath>
<clipPath id="clip2_746_1209">
<rect width="998.4" height="998.4" fill="white" transform="translate(-348 -252)"/>
</clipPath>
</defs>
</svg>
