<svg width="36" height="36" viewBox="0 0 36 36" fill="none" xmlns="http://www.w3.org/2000/svg">
<g clip-path="url(#clip0_872_1548)">
<mask id="mask0_872_1548" style="mask-type:luminance" maskUnits="userSpaceOnUse" x="0" y="0" width="36" height="36">
<path d="M0.0424805 0.0413818H35.4303V35.4292H0.0424805V0.0413818Z" fill="white"/>
</mask>
<g mask="url(#mask0_872_1548)">
<path d="M0.0424805 33.7059V3.58734C0.0424805 3.35021 0.0865981 3.1241 0.177591 2.90903C0.268583 2.6912 0.395422 2.49818 0.560863 2.33274C0.726304 2.1673 0.919319 2.03771 1.13715 1.94947C1.35222 1.85848 1.57833 1.81436 1.81546 1.81436H17.7612C17.9956 1.81436 18.2217 1.85848 18.4395 1.94947C18.6546 2.03771 18.8476 2.1673 19.0131 2.33274C19.1785 2.49818 19.3081 2.6912 19.3991 2.90903C19.4873 3.1241 19.5315 3.35021 19.5315 3.58734C19.5315 3.82171 19.4873 4.04782 19.3991 4.26289C19.3081 4.48072 19.1785 4.67374 19.0131 4.83918C18.8476 5.00462 18.6546 5.13421 18.4395 5.22245C18.2217 5.31344 17.9956 5.35756 17.7612 5.35756H3.58568V31.9357H30.1638V17.7601C30.1638 17.5258 30.2079 17.2997 30.2989 17.0818C30.3871 16.8667 30.5167 16.6737 30.6822 16.5083C30.8476 16.3429 31.0406 16.2133 31.2585 16.125C31.4735 16.034 31.6996 15.9899 31.9368 15.9899C32.1712 15.9899 32.3973 16.034 32.6123 16.125C32.8302 16.2133 33.0232 16.3429 33.1886 16.5083C33.3541 16.6737 33.4837 16.8667 33.5719 17.0818C33.6629 17.2997 33.707 17.5258 33.707 17.7601V33.7059C33.707 33.943 33.6629 34.1691 33.5719 34.3842C33.4837 34.602 33.3541 34.7951 33.1886 34.9605C33.0232 35.1259 32.8302 35.2555 32.6123 35.3438C32.3973 35.4348 32.1712 35.4789 31.9368 35.4789H1.81546C1.57833 35.4789 1.35222 35.4348 1.13715 35.3438C0.919319 35.2555 0.726304 35.1259 0.560863 34.9605C0.395422 34.7951 0.268583 34.602 0.177591 34.3842C0.0865981 34.1691 0.0424805 33.943 0.0424805 33.7059ZM32.7419 0.562522C32.5765 0.394323 32.3835 0.267485 32.1656 0.176492C31.9506 0.0882568 31.7245 0.0413818 31.4873 0.0413818C31.253 0.0413818 31.0269 0.0882568 30.809 0.176492C30.5912 0.267485 30.4009 0.394323 30.2355 0.562522L18.4947 12.3006V17.0267H23.2208L34.9588 5.28587C35.127 5.12043 35.2539 4.93017 35.3449 4.71234C35.4359 4.49451 35.48 4.2684 35.48 4.03403C35.48 3.79965 35.4359 3.57079 35.3449 3.35572C35.2539 3.13789 35.127 2.94487 34.9588 2.77943L32.7419 0.562522Z" fill="#1E5192"/>
</g>
</g>
<defs>
<clipPath id="clip0_872_1548">
<rect width="36" height="36" fill="white"/>
</clipPath>
</defs>
</svg>
