<svg xmlns="http://www.w3.org/2000/svg" xmlns:xlink="http://www.w3.org/1999/xlink" width="68" zoomAndPan="magnify" viewBox="0 0 50.879997 50.999998" height="68" preserveAspectRatio="xMidYMid meet" version="1.0"><defs><clipPath id="d2d889925d"><path d="M 0 0.0585938 L 50.132812 0.0585938 L 50.132812 50.191406 L 0 50.191406 Z M 0 0.0585938 " clip-rule="nonzero"/></clipPath></defs><g clip-path="url(#d2d889925d)"><path fill="#ffffff" d="M 0 47.75 L 0 5.082031 C 0 4.746094 0.0625 4.425781 0.191406 4.121094 C 0.320312 3.8125 0.5 3.539062 0.734375 3.304688 C 0.96875 3.070312 1.242188 2.886719 1.550781 2.761719 C 1.855469 2.632812 2.175781 2.570312 2.511719 2.570312 L 25.101562 2.570312 C 25.433594 2.570312 25.753906 2.632812 26.0625 2.761719 C 26.367188 2.886719 26.640625 3.070312 26.875 3.304688 C 27.109375 3.539062 27.292969 3.8125 27.421875 4.121094 C 27.546875 4.425781 27.609375 4.746094 27.609375 5.082031 C 27.609375 5.414062 27.546875 5.734375 27.421875 6.039062 C 27.292969 6.347656 27.109375 6.621094 26.875 6.855469 C 26.640625 7.089844 26.367188 7.273438 26.0625 7.398438 C 25.753906 7.527344 25.433594 7.589844 25.101562 7.589844 L 5.019531 7.589844 L 5.019531 45.242188 L 42.671875 45.242188 L 42.671875 25.160156 C 42.671875 24.828125 42.734375 24.507812 42.863281 24.199219 C 42.988281 23.894531 43.171875 23.621094 43.40625 23.386719 C 43.640625 23.152344 43.914062 22.96875 44.222656 22.84375 C 44.527344 22.714844 44.847656 22.652344 45.183594 22.652344 C 45.515625 22.652344 45.835938 22.714844 46.140625 22.84375 C 46.449219 22.96875 46.722656 23.152344 46.957031 23.386719 C 47.191406 23.621094 47.375 23.894531 47.5 24.199219 C 47.628906 24.507812 47.691406 24.828125 47.691406 25.160156 L 47.691406 47.75 C 47.691406 48.085938 47.628906 48.40625 47.5 48.710938 C 47.375 49.019531 47.191406 49.292969 46.957031 49.527344 C 46.722656 49.761719 46.449219 49.945312 46.140625 50.070312 C 45.835938 50.199219 45.515625 50.261719 45.183594 50.261719 L 2.511719 50.261719 C 2.175781 50.261719 1.855469 50.199219 1.550781 50.070312 C 1.242188 49.945312 0.96875 49.761719 0.734375 49.527344 C 0.5 49.292969 0.320312 49.019531 0.191406 48.710938 C 0.0625 48.40625 0 48.085938 0 47.75 Z M 46.324219 0.796875 C 46.089844 0.558594 45.816406 0.378906 45.507812 0.25 C 45.203125 0.125 44.882812 0.0585938 44.546875 0.0585938 C 44.214844 0.0585938 43.894531 0.125 43.585938 0.25 C 43.277344 0.378906 43.007812 0.558594 42.773438 0.796875 L 26.140625 17.425781 L 26.140625 24.121094 L 32.835938 24.121094 L 49.464844 7.488281 C 49.703125 7.253906 49.882812 6.984375 50.011719 6.675781 C 50.140625 6.367188 50.203125 6.046875 50.203125 5.714844 C 50.203125 5.382812 50.140625 5.058594 50.011719 4.753906 C 49.882812 4.445312 49.703125 4.171875 49.464844 3.9375 Z M 46.324219 0.796875 " fill-opacity="1" fill-rule="nonzero"/></g></svg>