<svg width="42" height="40" viewBox="0 0 42 40" fill="none" xmlns="http://www.w3.org/2000/svg">
<mask id="mask0_872_1556" style="mask-type:luminance" maskUnits="userSpaceOnUse" x="0" y="0" width="42" height="40">
<path d="M0 0H41.6233V40H0V0Z" fill="white"/>
</mask>
<g mask="url(#mask0_872_1556)">
<path d="M16.0098 0.0400391C7.31712 0.0400391 0.0908203 6.35628 0.0908203 14.2986C0.0908203 18.1101 1.79683 21.5734 4.50135 24.1296L4.41576 24.5461C3.80525 26.332 2.3075 27.3419 1.4174 27.6672C0.898181 27.8497 0.470251 28.1293 0.233463 28.62C-0.000471294 29.105 0.142172 29.7783 0.495927 30.1292C1.32326 30.9622 2.40164 30.8795 3.18903 30.888C6.14745 30.9223 9.6365 29.3703 11.7476 28.3148L11.7733 28.3034L12.4951 27.8868L12.2183 27.8012L12.2497 27.807C13.428 28.0808 14.6604 28.1664 15.8729 28.1664C23.5157 28.1664 30.0944 23.5961 31.5465 17.0231V17.0203C31.7433 16.1444 31.846 15.2344 31.846 14.2986C31.846 6.36198 24.7053 0.0400391 16.0098 0.0400391ZM16.0098 1.85446C23.8295 1.85446 30.0316 7.45463 30.0316 14.2986C30.0316 15.1032 29.9432 15.882 29.7749 16.6294C28.5339 22.2439 22.7968 26.352 15.8729 26.352C14.7517 26.352 13.6505 26.2664 12.6662 26.0382L12.2697 25.9212L10.926 26.6943C8.92043 27.6985 5.45991 29.1022 3.209 29.0736C2.90089 29.0736 2.87236 29.0137 2.6584 28.988C3.94789 28.3576 5.43423 27.2136 6.1446 25.1081L6.15886 25.0596L6.48409 23.5305L6.08469 23.1768C3.48573 20.903 1.90524 17.7535 1.90524 14.2986C1.90524 7.46034 8.19295 1.85446 16.0098 1.85446ZM8.25572 8.20493V10.0194H23.6811V8.20493H8.25572ZM8.25572 12.741V14.5554H23.6811V12.741H8.25572ZM33.4636 16.5496C33.418 16.8377 33.3866 17.1287 33.3238 17.4168C33.2525 17.7278 33.1612 18.033 33.0671 18.3412C37.2465 19.953 39.9967 23.2053 39.9967 26.8142C39.9967 29.4046 38.6501 31.8266 36.1967 33.6382L35.706 34.0034L35.8572 34.5968C36.345 36.4711 38.0624 37.4411 39.2492 38.0858C37.3663 38.3397 33.2782 37.9146 31.2213 35.484L30.8789 35.0732L30.354 35.1788C29.5267 35.3414 28.571 35.4241 27.4213 35.4241C21.7811 35.4241 17.1994 33.236 15.4164 29.9666C14.6775 29.9523 13.99 29.901 13.3452 29.8239C15.0284 34.283 20.4403 37.2385 27.4213 37.2385C28.4683 37.2385 29.3783 37.1729 30.1971 37.0502C32.1998 39.0786 35.4635 39.9573 38.1081 39.9573C38.2821 39.9573 38.4561 39.9516 38.6216 39.9459C40.1564 39.8746 41.1549 39.5208 41.5971 38.8932C41.794 38.6107 41.8596 38.277 41.7826 37.9517C41.6314 37.3013 41.0351 36.9818 40.2078 36.5396C39.3976 36.1002 38.3306 35.5239 37.8313 34.6624C40.3733 32.5627 41.8111 29.7412 41.8111 26.8142C41.8111 22.3637 38.4818 18.3925 33.4636 16.5496ZM8.25572 17.277V19.0943H19.1451V17.277H8.25572ZM30.9531 22.7232C30.4995 23.3593 30.0002 23.9699 29.4496 24.5376H33.6605V22.7232H30.9531ZM26.0291 27.2592C24.7795 28.0095 23.4073 28.6229 21.9495 29.0736H33.6605V27.2592H26.0291Z" fill="#1E5192"/>
</g>
</svg>
