<svg xmlns="http://www.w3.org/2000/svg" xmlns:xlink="http://www.w3.org/1999/xlink" width="78" zoomAndPan="magnify" viewBox="0 0 58.5 56.249996" height="75" preserveAspectRatio="xMidYMid meet" version="1.0"><defs><clipPath id="be3eaf34f4"><path d="M 0.136719 0 L 57.128906 0 L 57.128906 54.769531 L 0.136719 54.769531 Z M 0.136719 0 " clip-rule="nonzero"/></clipPath></defs><g clip-path="url(#be3eaf34f4)"><path fill="#ffffff" d="M 22.058594 0.0546875 C 10.15625 0.0546875 0.261719 8.703125 0.261719 19.578125 C 0.261719 24.796875 2.597656 29.539062 6.300781 33.039062 L 6.183594 33.609375 C 5.347656 36.054688 3.296875 37.4375 2.078125 37.882812 C 1.367188 38.132812 0.78125 38.515625 0.457031 39.1875 C 0.136719 39.851562 0.332031 40.773438 0.816406 41.253906 C 1.949219 42.394531 3.425781 42.28125 4.503906 42.292969 C 8.554688 42.339844 13.332031 40.214844 16.222656 38.769531 L 16.257812 38.753906 L 17.246094 38.183594 L 16.867188 38.066406 L 16.910156 38.074219 C 18.523438 38.449219 20.210938 38.566406 21.871094 38.566406 C 32.335938 38.566406 41.34375 32.308594 43.332031 23.308594 L 43.332031 23.304688 C 43.601562 22.105469 43.742188 20.859375 43.742188 19.578125 C 43.742188 8.710938 33.964844 0.0546875 22.058594 0.0546875 Z M 22.058594 2.539062 C 32.765625 2.539062 41.257812 10.207031 41.257812 19.578125 C 41.257812 20.679688 41.136719 21.746094 40.90625 22.769531 C 39.207031 30.457031 31.351562 36.082031 21.871094 36.082031 C 20.335938 36.082031 18.828125 35.964844 17.480469 35.652344 L 16.9375 35.492188 L 15.097656 36.550781 C 12.351562 37.925781 7.613281 39.847656 4.53125 39.808594 C 4.109375 39.808594 4.070312 39.726562 3.777344 39.691406 C 5.542969 38.828125 7.578125 37.261719 8.550781 34.378906 L 8.570312 34.3125 L 9.015625 32.21875 L 8.46875 31.734375 C 4.910156 28.621094 2.746094 24.308594 2.746094 19.578125 C 2.746094 10.214844 11.355469 2.539062 22.058594 2.539062 Z M 11.441406 11.234375 L 11.441406 13.71875 L 32.5625 13.71875 L 32.5625 11.234375 Z M 11.441406 17.445312 L 11.441406 19.929688 L 32.5625 19.929688 L 32.5625 17.445312 Z M 45.957031 22.660156 C 45.894531 23.054688 45.851562 23.453125 45.765625 23.847656 C 45.667969 24.273438 45.542969 24.691406 45.414062 25.113281 C 51.136719 27.320312 54.902344 31.773438 54.902344 36.714844 C 54.902344 40.261719 53.058594 43.578125 49.699219 46.058594 L 49.027344 46.558594 L 49.234375 47.371094 C 49.902344 49.9375 52.253906 51.265625 53.878906 52.148438 C 51.300781 52.496094 45.703125 51.914062 42.886719 48.585938 L 42.417969 48.023438 L 41.699219 48.167969 C 40.566406 48.390625 39.257812 48.503906 37.683594 48.503906 C 29.960938 48.503906 23.6875 45.507812 21.246094 41.03125 C 20.234375 41.011719 19.292969 40.941406 18.410156 40.835938 C 20.714844 46.941406 28.125 50.988281 37.683594 50.988281 C 39.117188 50.988281 40.363281 50.898438 41.484375 50.730469 C 44.226562 53.507812 48.695312 54.710938 52.316406 54.710938 C 52.554688 54.710938 52.792969 54.703125 53.019531 54.695312 C 55.121094 54.597656 56.488281 54.113281 57.09375 53.253906 C 57.363281 52.867188 57.453125 52.410156 57.347656 51.964844 C 57.140625 51.074219 56.324219 50.636719 55.191406 50.03125 C 54.082031 49.429688 52.621094 48.640625 51.9375 47.460938 C 55.417969 44.585938 57.386719 40.722656 57.386719 36.714844 C 57.386719 30.621094 52.828125 25.183594 45.957031 22.660156 Z M 11.441406 23.65625 L 11.441406 26.144531 L 26.351562 26.144531 L 26.351562 23.65625 Z M 42.519531 31.113281 C 41.898438 31.984375 41.214844 32.820312 40.460938 33.597656 L 46.226562 33.597656 L 46.226562 31.113281 Z M 35.777344 37.324219 C 34.066406 38.351562 32.1875 39.191406 30.191406 39.808594 L 46.226562 39.808594 L 46.226562 37.324219 Z M 35.777344 37.324219 " fill-opacity="1" fill-rule="nonzero"/></g></svg>