<svg width="593" height="130" viewBox="0 0 593 130" fill="none" xmlns="http://www.w3.org/2000/svg">
<mask id="mask0_872_1673" style="mask-type:luminance" maskUnits="userSpaceOnUse" x="0" y="37" width="88" height="67">
<path d="M0.224365 37.4207H87.9821V103.055H0.224365V37.4207Z" fill="white"/>
</mask>
<g mask="url(#mask0_872_1673)">
<path d="M87.5852 78.1666C87.3653 76.4502 87.085 75.0616 86.8003 73.8411C86.727 73.5349 86.658 73.2416 86.5804 72.957C86.5071 72.668 86.4338 72.392 86.3605 72.1203C86.2785 71.8486 86.2009 71.5813 86.1276 71.3182C86.0499 71.0551 85.9637 70.7964 85.8818 70.5376C85.0667 67.9673 84.0187 65.4961 82.7378 63.1328C82.837 63.2579 82.9319 63.3829 83.0268 63.508C83.1174 63.6331 83.2122 63.7581 83.3028 63.8832C83.4882 64.129 83.6694 64.3792 83.8505 64.6379C84.0273 64.901 84.2171 65.1641 84.3982 65.453C84.5837 65.742 84.7777 66.0438 84.9675 66.3802C85.3427 67.0056 85.9464 68.3338 86.4122 69.5284C86.8521 70.6627 87.1712 71.5899 87.3869 72.2454C87.6111 72.9009 87.7362 73.2761 87.7836 73.3063C87.8052 73.3236 87.8095 73.2502 87.7836 73.0864C87.7664 72.9225 87.7146 72.668 87.637 72.3101C87.4817 71.5942 87.1971 70.4815 86.6796 68.9376C86.5588 68.5754 86.5028 68.3295 86.4726 68.1139C86.4424 67.8983 86.4381 67.7085 86.3863 67.4713C86.5157 67.7689 86.6278 68.0578 86.74 68.3252C86.8521 68.5926 86.947 68.847 87.0375 69.0842C87.1281 69.3214 87.2187 69.5414 87.292 69.7484C87.3653 69.9511 87.4343 70.1408 87.4947 70.309C87.6197 70.6454 87.706 70.9085 87.775 71.0939C87.844 71.2794 87.8871 71.3829 87.9044 71.4001C87.9346 71.4389 87.8785 71.1241 87.6888 70.4255C87.5939 70.0761 87.4731 69.6276 87.2963 69.0886C87.21 68.8169 87.1152 68.515 87.003 68.1958C86.8909 67.8724 86.7745 67.5231 86.6322 67.1565C85.5066 64.1377 84.1783 61.4293 82.6904 58.9452C81.1939 56.4612 79.5379 54.1927 77.6791 52.0968C76.5492 50.8246 75.3676 49.6386 74.1385 48.5216C72.9094 47.409 71.6328 46.361 70.2959 45.3906C68.9633 44.4246 67.5746 43.5233 66.1256 42.6952C64.6722 41.8672 63.1628 41.1082 61.5844 40.4354C61.2653 40.3017 60.8987 40.1508 60.4933 40.0042C60.0836 39.8575 59.648 39.698 59.1866 39.5556C58.958 39.4823 58.7208 39.409 58.4879 39.3357C58.2507 39.2667 58.0092 39.1977 57.772 39.1287C57.6513 39.0942 57.5348 39.0597 57.4141 39.0252C57.2933 38.995 57.1769 38.9648 57.0561 38.9346C56.8189 38.8699 56.586 38.8096 56.3575 38.7492C53.4939 38.0376 50.557 37.6107 47.6028 37.4683C44.6487 37.3303 41.6686 37.477 38.7102 37.9212C35.7517 38.3697 32.8234 39.1201 29.99 40.168C27.1566 41.216 24.4138 42.5616 21.8305 44.1831C15.7756 47.9782 10.6393 53.1879 6.92608 59.2687C5.06302 62.3048 3.56654 65.5651 2.45819 68.9462C1.36278 72.3317 0.651197 75.8378 0.366562 79.3699C0.258747 80.7154 0.211308 82.0308 0.228558 83.3073C0.241496 84.5838 0.306186 85.8259 0.422626 87.0248C0.543381 88.2237 0.707261 89.3795 0.905641 90.4835C0.957394 90.7595 1.01777 91.0355 1.06952 91.3029C1.0954 91.4409 1.12559 91.5746 1.15146 91.7083C1.18165 91.842 1.21184 91.9757 1.24203 92.1051C1.30672 92.3681 1.36278 92.6312 1.42747 92.89C1.49647 93.1444 1.56116 93.3989 1.62585 93.6533C1.69054 93.9034 1.76386 94.1493 1.83717 94.3951C1.91049 94.6366 1.97517 94.8824 2.0528 95.1196C2.20806 95.594 2.35469 96.0554 2.51857 96.4996C2.60051 96.7239 2.67813 96.9482 2.76007 97.1638C2.84633 97.3794 2.92827 97.5907 3.01021 97.8021C3.05333 97.9056 3.09646 98.0091 3.13527 98.1126C3.1784 98.2161 3.22153 98.3196 3.26465 98.4188C3.35522 98.6215 3.44147 98.8198 3.52341 99.0182C4.22206 100.579 4.95952 101.908 5.66679 103.007C4.39456 100.278 3.38109 97.3751 2.68676 94.4037C1.98811 91.4366 1.61291 88.4048 1.55254 85.4464C1.48785 81.8151 1.88892 78.5505 2.63932 75.2815C3.01452 73.647 3.47597 72.0082 4.06249 70.3263C4.64469 68.6444 5.3304 66.915 6.18862 65.108C6.70613 64.0126 7.38322 63.0854 7.96542 62.2703C8.05167 62.1495 8.13361 62.0331 8.21124 61.9296C8.29318 61.8261 8.37081 61.7312 8.44412 61.6406C8.59075 61.4595 8.72876 61.2999 8.86245 61.1447C9.00045 60.9937 9.13414 60.8471 9.27646 60.6919C9.41878 60.5366 9.5611 60.3641 9.7336 60.17C9.90179 59.976 10.0829 59.756 10.2942 59.4886C10.4021 59.3593 10.5185 59.2169 10.6393 59.0617C10.7643 58.9064 10.8937 58.7382 11.036 58.5614C11.1826 58.3803 11.3336 58.1862 11.4975 57.9749C11.6657 57.7679 11.8425 57.5436 12.0365 57.3021C12.4247 56.8191 12.8775 56.2714 13.4037 55.6504C13.8263 55.4046 14.374 54.9992 15.133 54.3954C15.8964 53.796 16.871 52.9938 18.1648 52.0062C18.3114 51.8898 18.264 52.0019 18.1001 52.2132C18.0225 52.321 17.9104 52.4504 17.7853 52.5927C17.6602 52.7394 17.5179 52.8946 17.3713 53.0499C16.4311 54.0073 15.4867 55.0553 14.6328 56.1248C13.7789 57.19 13.0112 58.2811 12.4031 59.2946C13.2829 58.0482 14.2446 56.8364 15.2408 55.7021C16.043 54.7922 16.9012 53.8736 17.7853 53.024C18.6651 52.1701 19.5707 51.3852 20.4462 50.7254C21.6149 49.8585 22.3437 49.5006 23.271 49.0046C23.3831 48.9443 23.5038 48.8796 23.6289 48.8106C23.754 48.7416 23.8833 48.6769 24.017 48.6036C24.2887 48.4526 24.582 48.2887 24.9141 48.1033C25.0779 48.0127 25.2548 47.9092 25.4402 47.8057C25.63 47.7022 25.824 47.5901 26.0354 47.4736C26.2424 47.3486 26.4709 47.2321 26.7081 47.0984C26.8246 47.0294 26.9496 46.9604 27.0747 46.8914C27.1998 46.8224 27.3335 46.7534 27.4671 46.6758C27.7043 46.6111 27.9588 46.5292 28.2219 46.4559C28.4806 46.3825 28.7437 46.3092 28.9938 46.2402C29.4984 46.1152 29.9383 46.016 30.1755 46.0203C30.3092 46.0203 30.1927 46.1324 29.9297 46.3135C29.6623 46.4947 29.2483 46.7319 28.7782 46.9949C28.4375 47.1761 28.0623 47.3917 27.6612 47.6116C27.4585 47.7195 27.2558 47.8402 27.0445 47.961C26.941 48.017 26.8375 48.0774 26.7297 48.1378C26.6262 48.2025 26.5184 48.2629 26.4149 48.3275C25.5653 48.8278 24.7157 49.3841 24.0041 49.893C22.844 50.734 22.0074 51.4758 21.0844 52.3167C21.2785 52.1615 21.451 52.0407 21.5933 51.9372C21.74 51.8294 21.865 51.7475 21.9685 51.6785C22.1755 51.5448 22.3049 51.4801 22.3912 51.4542C22.5551 51.3981 22.5292 51.506 22.5637 51.562C22.5982 51.6181 22.6887 51.6224 23.0898 51.3809C23.5038 51.1523 24.2068 50.6521 25.5523 49.8111C25.7378 49.699 26.0095 49.5437 26.3157 49.3841C26.6262 49.2289 26.9583 49.0607 27.2731 48.9184C27.5879 48.7804 27.8725 48.6553 28.0752 48.5777C28.2736 48.5044 28.39 48.4655 28.3599 48.4957C27.9674 48.8709 27.9415 49.0176 28.1787 48.9701C28.2995 48.9529 28.4892 48.8882 28.7394 48.789C28.8644 48.7416 28.9981 48.6812 29.1534 48.6165C29.3086 48.5518 29.4725 48.4828 29.6537 48.4052C29.7442 48.362 29.8348 48.3232 29.934 48.2801C30.0288 48.2413 30.128 48.1982 30.2315 48.155C30.4342 48.0688 30.6542 47.9739 30.8784 47.879C31.107 47.7842 31.3442 47.6893 31.5943 47.5901C31.8402 47.4866 32.1032 47.3917 32.3663 47.2882C33.4358 46.8914 34.6434 46.4904 35.9027 46.1626C37.0714 45.8607 38.3954 45.5761 39.7625 45.3691C41.1296 45.1621 42.5355 45.0327 43.8508 45.0025C45.1705 44.968 46.3953 45.0284 47.4001 45.1491C48.405 45.2656 49.1856 45.4467 49.6298 45.6365C49.6729 45.6537 49.7376 45.6753 49.8238 45.6968C49.9101 45.7184 50.0179 45.7486 50.1387 45.7745C50.2594 45.8047 50.3974 45.8348 50.5484 45.865C50.6217 45.878 50.6993 45.8952 50.7812 45.9125C50.8632 45.9297 50.9451 45.947 51.0314 45.9685C51.3721 46.0375 51.7516 46.1109 52.1311 46.1971C52.3252 46.2402 52.5149 46.279 52.7047 46.3222C52.8944 46.3653 53.0842 46.4041 53.2653 46.4472C54.2658 46.6672 55.1284 46.8914 55.702 47.0855C55.9909 47.1804 56.2108 47.2623 56.3402 47.3356C56.4696 47.409 56.5084 47.465 56.4437 47.5038C56.3618 47.5556 56.4739 47.6418 56.7197 47.754C56.9699 47.8661 57.3451 48.0127 57.7979 48.1723C58.6992 48.5001 59.8766 48.927 60.8728 49.3324C65.3278 51.1221 69.4549 53.8003 72.9395 57.1555C76.4285 60.5064 79.2662 64.5215 81.2586 68.8859C81.4009 69.205 81.5648 69.55 81.7071 69.908C81.7848 70.0848 81.8581 70.2659 81.9357 70.4427C82.009 70.6239 82.078 70.805 82.147 70.9861C82.436 71.6977 82.6818 72.3791 82.8802 72.888C82.9837 73.1381 83.0613 73.3494 83.1346 73.4961C83.2036 73.6427 83.2597 73.7246 83.2985 73.729C83.3373 73.7333 83.3546 73.6513 83.3546 73.4745C83.3502 73.2977 83.3287 73.0217 83.264 72.6292C83.2079 72.2972 83.3718 72.5516 83.6004 73.0389C83.7082 73.2847 83.8419 73.5866 83.9669 73.9058C84.0877 74.2206 84.2128 74.5484 84.312 74.8459C84.6915 75.9198 85.0451 77.2092 85.3254 78.4901C85.6101 79.7709 85.8214 81.0475 85.9896 82.0868C86.0844 82.6259 86.1491 83.0701 86.2225 83.3418C86.2915 83.6135 86.3561 83.7127 86.4122 83.5574C86.4381 83.4841 86.464 83.3418 86.4898 83.1305C86.5114 82.9192 86.5373 82.6345 86.5416 82.2723C86.5459 82.0868 86.5502 81.8841 86.5502 81.6599C86.5545 81.4356 86.5416 81.1898 86.5373 80.9181C86.533 80.7844 86.5286 80.6464 86.5243 80.4998C86.5157 80.3532 86.5071 80.2022 86.4941 80.0426C86.4855 79.8874 86.4726 79.7235 86.464 79.5553C86.451 79.3828 86.4295 79.2103 86.4165 79.0249C86.2483 77.3602 86.2871 76.9117 86.2915 76.226C86.2871 76.0535 86.2828 75.868 86.2656 75.6438C86.257 75.5316 86.2483 75.4109 86.2311 75.2772C86.2138 75.1435 86.1923 75.0012 86.1664 74.8416C86.1405 74.682 86.1103 74.5052 86.0715 74.3155C86.0327 74.1257 85.9853 73.9144 85.9335 73.6858C85.9076 73.5737 85.8774 73.4529 85.8516 73.3279C85.8171 73.2028 85.7826 73.0734 85.7438 72.9397C85.6704 72.668 85.5928 72.3748 85.4936 72.06C85.5669 72.0298 85.5367 71.5554 85.7394 72.0427C85.8171 72.2282 85.8904 72.4222 85.968 72.6249C86.0413 72.8233 86.1189 73.0303 86.2009 73.2459C86.2742 73.4616 86.3475 73.6858 86.4295 73.9187C86.4683 74.0351 86.5071 74.1516 86.5459 74.2723C86.5847 74.3931 86.6235 74.5182 86.6623 74.6432C86.9729 75.6438 87.2877 76.7995 87.5852 78.1666Z" fill="#1E5192"/>
</g>
<mask id="mask1_872_1673" style="mask-type:luminance" maskUnits="userSpaceOnUse" x="7" y="83" width="82" height="45">
<path d="M7.72827 83.5875H88.6246V127.145H7.72827V83.5875Z" fill="white"/>
</mask>
<g mask="url(#mask1_872_1673)">
<path d="M30.8267 120.068C31.0208 120.154 31.2192 120.245 31.4132 120.331C31.6116 120.417 31.81 120.499 32.0084 120.586C32.4008 120.758 32.8062 120.9 33.2202 121.051C33.4316 121.12 33.6472 121.189 33.8628 121.254C33.9706 121.289 34.0785 121.323 34.1863 121.353C34.2984 121.383 34.4062 121.414 34.514 121.444C34.734 121.5 34.9539 121.56 35.1739 121.616C35.3981 121.668 35.6181 121.724 35.838 121.776C35.6224 121.707 35.4067 121.638 35.1954 121.565C34.9798 121.496 34.7642 121.418 34.5485 121.34C34.4407 121.301 34.3329 121.263 34.2208 121.224C34.113 121.185 34.0051 121.142 33.8973 121.103C33.6774 121.017 33.4531 120.935 33.2289 120.844C32.9744 120.767 32.7415 120.698 32.5216 120.633C32.3017 120.568 32.099 120.499 31.9049 120.439C31.5168 120.314 31.1717 120.189 30.8267 120.068ZM63.4647 122.224C62.3046 122.755 61.1359 123.281 59.937 123.734C60.1699 123.695 60.3726 123.704 60.6356 123.609C60.8383 123.535 61.0367 123.458 61.2437 123.384C61.3429 123.346 61.4464 123.307 61.5499 123.268C61.6534 123.225 61.7569 123.182 61.8604 123.139C62.0674 123.057 62.2831 122.97 62.503 122.88C62.723 122.785 62.9472 122.686 63.1801 122.582C64.1116 122.168 65.1812 121.659 66.4879 120.939C66.3844 120.987 66.2895 121.034 66.1946 121.077C66.0998 121.12 66.0049 121.159 65.9186 121.198C65.7375 121.276 65.5736 121.349 65.4227 121.418C65.1122 121.547 64.8491 121.651 64.6162 121.746C64.4998 121.793 64.3876 121.841 64.2884 121.884C64.1849 121.922 64.0858 121.961 63.9909 122C63.8054 122.073 63.6329 122.147 63.4647 122.224ZM31.3917 120.538C30.5248 120.21 29.9254 120.068 29.2181 119.814C29.313 119.861 29.4079 119.913 29.5028 119.96C29.6019 120.008 29.6968 120.055 29.796 120.103C29.9901 120.202 30.1841 120.297 30.3782 120.391C30.5723 120.482 30.7664 120.568 30.9647 120.655C31.0596 120.698 31.1588 120.741 31.2537 120.78C31.3529 120.823 31.4478 120.857 31.5469 120.896C31.7884 120.982 32.0256 121.073 32.2844 121.159C32.5475 121.245 32.8364 121.336 33.1685 121.435C33.837 121.625 34.6909 121.871 35.9458 122.147C34.6305 121.772 33.7033 121.422 32.996 121.155C32.2887 120.887 31.8057 120.685 31.3917 120.538ZM16.332 109.455C18.967 112.297 22.0246 114.807 25.4359 116.859C26.2898 117.373 27.161 117.86 28.0537 118.313C28.9507 118.761 29.865 119.184 30.7965 119.576C32.6639 120.353 34.6046 121.004 36.6013 121.5C37.4121 121.711 38.2445 121.866 39.0768 122.013L39.7021 122.108L40.017 122.16L40.3318 122.198C40.5431 122.229 40.7501 122.255 40.9614 122.285C41.1684 122.306 41.3797 122.332 41.5868 122.354C42.6304 122.47 43.1695 122.474 43.4584 122.449C43.7474 122.423 43.7905 122.367 43.8379 122.311C43.8854 122.259 43.9371 122.203 44.252 122.173C44.4072 122.16 44.6272 122.151 44.9463 122.151C45.1059 122.151 45.287 122.147 45.4983 122.151C45.7096 122.151 45.9511 122.155 46.2228 122.151C44.8126 122.095 43.5016 121.944 42.0137 121.776C39.1587 121.439 36.334 120.788 33.6127 119.831C30.8957 118.861 28.2823 117.597 25.8629 116.044L25.975 115.997L26.2381 116.161L26.5055 116.316L27.0402 116.631C27.4025 116.834 27.7604 117.041 28.1313 117.23C28.8602 117.627 29.6106 117.981 30.3653 118.326C31.8876 119.003 33.4531 119.598 35.066 120.072C36.679 120.555 38.3393 120.922 40.0342 121.194C40.8838 121.319 41.7377 121.431 42.6045 121.5C43.0358 121.543 43.4714 121.565 43.9113 121.595C44.1269 121.603 44.3468 121.612 44.5668 121.621L44.8989 121.634C45.0067 121.638 45.1188 121.638 45.2266 121.638C42.0309 121.353 38.7059 120.749 35.3377 119.68C31.9739 118.615 28.5626 117.066 25.2807 114.923C22.995 113.435 20.8775 111.667 18.9756 109.688L18.7945 109.502L18.622 109.317L18.2683 108.937C18.0398 108.683 17.8155 108.424 17.587 108.169C17.367 107.906 17.1427 107.643 16.9271 107.376L16.4441 106.777L16.2888 106.57C15.4522 105.483 14.6716 104.353 13.9557 103.184L14.1067 103.119C16.0646 106.246 18.4797 109.075 21.257 111.495L21.2268 111.344C18.5875 109.01 16.2716 106.302 14.3654 103.27C12.4592 100.243 10.9584 96.8876 9.97515 93.2693C10.7256 95.7966 11.7218 98.1987 12.9336 100.459C14.1498 102.718 15.5773 104.836 17.1902 106.807C18.8074 108.778 20.6058 110.602 22.5939 112.262C24.582 113.918 26.7427 115.419 29.0931 116.726C29.8262 117.131 30.5895 117.519 31.3787 117.882C32.1723 118.239 32.983 118.585 33.824 118.891C35.4973 119.507 37.2569 120.012 39.0595 120.379C39.9566 120.56 40.8665 120.719 41.7808 120.831L42.1258 120.875L42.4665 120.909C42.6994 120.935 42.928 120.965 43.1565 120.982C43.3851 121 43.6137 121.021 43.8423 121.038C44.0708 121.06 44.3037 121.064 44.5323 121.082C44.9894 121.112 45.4466 121.12 45.9037 121.138C46.1323 121.138 46.3608 121.142 46.5894 121.142L46.9301 121.146L47.2708 121.142C48.1765 121.133 49.0735 121.082 49.9619 121.017C50.1991 120.995 50.432 120.978 50.6648 120.956C50.8934 120.935 51.122 120.909 51.3462 120.887C51.4584 120.875 51.5705 120.862 51.6826 120.849C51.7904 120.836 51.9026 120.823 52.0104 120.81C52.2303 120.78 52.446 120.754 52.6573 120.728C53.0799 120.659 53.4896 120.607 53.8864 120.538C54.0848 120.504 54.2788 120.473 54.4686 120.439C54.6583 120.404 54.8481 120.37 55.0292 120.335C56.4998 120.064 57.7332 119.77 58.7036 119.542C58.8287 119.516 58.9451 119.49 59.0572 119.464C59.1737 119.438 59.2815 119.413 59.385 119.387C59.5963 119.339 59.7861 119.3 59.9629 119.266C60.3122 119.188 60.5925 119.141 60.8038 119.128C61.2179 119.098 61.3343 119.197 61.1143 119.456C60.9634 119.624 61.2351 119.714 60.6486 120.111C60.5753 120.163 60.489 120.219 60.3898 120.279C60.2863 120.335 60.1656 120.4 60.0276 120.469C59.8853 120.538 59.73 120.611 59.5489 120.693C59.372 120.771 59.1694 120.853 58.9408 120.944C58.0351 121.297 56.737 121.737 54.8481 122.151C54.5203 122.216 54.171 122.302 53.8001 122.388C53.6147 122.431 53.4249 122.474 53.2309 122.518C53.136 122.539 53.0368 122.565 52.9419 122.587C52.8427 122.608 52.7435 122.63 52.6443 122.651C52.446 122.694 52.2433 122.742 52.0449 122.785C51.8422 122.828 51.6395 122.867 51.4368 122.906C51.0314 122.992 50.626 123.057 50.2336 123.117C52.4977 122.923 54.7963 122.492 56.888 121.905C57.9316 121.612 58.9235 121.276 59.8378 120.926C60.0664 120.836 60.2906 120.745 60.5063 120.659C60.7262 120.564 60.9375 120.473 61.1445 120.383C61.3515 120.292 61.5542 120.202 61.7483 120.107C61.9424 120.012 62.1321 119.921 62.3176 119.831C63.4216 119.275 64.4351 118.718 65.3839 118.17C66.3326 117.618 67.2253 117.075 68.0749 116.523C68.9245 115.967 69.7353 115.402 70.5288 114.811C71.3224 114.22 72.0943 113.595 72.862 112.926C73.0388 112.767 73.2156 112.612 73.3924 112.461C73.5606 112.305 73.7331 112.154 73.9013 112.003C74.0695 111.852 74.2334 111.702 74.3973 111.546C74.5611 111.395 74.725 111.244 74.8846 111.093C75.5229 110.477 76.1396 109.843 76.739 109.131C77.6705 108.023 78.3649 107.096 78.9126 106.363C79.4603 105.629 79.8571 105.082 80.1546 104.706C80.3099 104.521 80.4306 104.37 80.5341 104.262C80.6376 104.15 80.7196 104.081 80.7886 104.042C80.918 103.965 80.987 104.021 81.0042 104.167C81.0128 104.236 81.1508 104.116 81.3406 103.887C81.4355 103.771 81.5433 103.628 81.6554 103.464C81.7675 103.301 81.884 103.124 81.9918 102.934C82.7638 101.575 83.277 100.519 83.6953 99.6219C83.7988 99.3976 83.8937 99.182 83.9886 98.975C84.036 98.8715 84.0791 98.768 84.1266 98.6688C84.1697 98.5696 84.2085 98.4661 84.2516 98.3712C84.3379 98.1728 84.4198 97.9787 84.4974 97.789C84.5751 97.5992 84.6527 97.4095 84.7303 97.2197C85.0408 96.4564 85.3427 95.6715 85.692 94.6666C86.0371 93.6618 86.4338 92.4327 86.8392 90.7594C86.4511 92.8596 85.9422 94.7443 85.3427 96.4995C84.7519 98.2591 84.0705 99.8806 83.3158 101.472C83.195 101.726 83.0398 102.046 82.8931 102.386C82.7379 102.723 82.574 103.072 82.4317 103.387C82.1341 104.016 81.9185 104.508 81.9746 104.461C82.0781 104.392 82.2333 104.21 82.4446 103.943C82.5481 103.809 82.6689 103.658 82.7896 103.477C82.9147 103.301 83.0484 103.102 83.1907 102.887C83.7557 102.02 84.4328 100.847 85.084 99.4795C85.7309 98.1167 86.3562 96.5685 86.8478 94.9858C87.3438 93.4074 87.7147 91.8074 87.9475 90.3669C88.1244 89.2845 88.2236 88.1114 88.3141 87.098C88.4306 85.8775 88.5298 84.7864 88.5772 83.6306C88.5988 83.9929 88.6246 84.3293 88.6462 84.6829C88.6634 85.0365 88.6678 85.4031 88.6634 85.8387L88.6376 86.5589L88.6246 86.9168L88.6031 87.2748L88.5599 87.995L88.4953 88.7109L88.4651 89.0688L88.4263 89.4268C88.4004 89.6683 88.3702 89.9055 88.3443 90.147C88.3098 90.3842 88.2796 90.6257 88.2451 90.8629L88.1934 91.2252L88.1373 91.5831C88.0942 91.8203 88.0554 92.0618 88.0166 92.299C87.9691 92.5405 87.9217 92.7777 87.8785 93.0192C87.8527 93.14 87.8311 93.2564 87.8052 93.3772L87.7276 93.7351C87.6758 93.9766 87.6241 94.2138 87.568 94.4553C87.3352 95.4127 87.0721 96.3701 86.7659 97.3232C85.416 101.541 83.3805 105.565 80.7756 109.192C78.1665 112.823 74.9752 116.053 71.3525 118.723C69.869 119.827 68.3035 120.823 66.682 121.724C65.8712 122.173 65.0518 122.604 64.2108 122.996C63.7925 123.199 63.3655 123.38 62.9429 123.57C62.7316 123.665 62.516 123.751 62.3003 123.842C62.0847 123.928 61.8734 124.023 61.6577 124.105C59.9284 124.786 58.1602 125.368 56.3575 125.817C56.1289 125.873 55.9047 125.933 55.6804 125.985L54.999 126.14L54.6583 126.214L54.3176 126.283L53.6319 126.416C52.7177 126.58 51.7991 126.731 50.8762 126.835C49.9533 126.951 49.026 127.024 48.0945 127.08L47.4002 127.111L47.0509 127.124L46.7015 127.132L46.0072 127.145C45.7743 127.149 45.5414 127.145 45.3086 127.145C44.3813 127.141 43.4498 127.098 42.5226 127.037L41.8239 126.977L41.4789 126.951L41.1296 126.912L40.4353 126.839L39.7453 126.744C36.0493 126.248 32.4181 125.26 28.968 123.833C29.1793 123.893 29.3993 123.962 29.6235 124.031C29.7356 124.066 29.8478 124.105 29.9642 124.139C30.0806 124.174 30.1971 124.208 30.3135 124.243C30.5507 124.316 30.7922 124.389 31.0337 124.467C31.2796 124.536 31.5297 124.609 31.7841 124.683C32.7933 124.972 33.8499 125.265 34.8849 125.485C35.1437 125.545 35.3938 125.588 35.631 125.636C35.8682 125.679 36.0925 125.722 36.321 125.752C36.7695 125.817 37.2008 125.886 37.6623 125.938C37.2181 125.838 36.7092 125.687 36.2434 125.562C35.7776 125.424 35.3507 125.308 35.0833 125.243C33.7593 124.946 32.651 124.583 31.6418 124.208C31.1372 124.023 30.6629 123.816 30.1928 123.617C29.7313 123.402 29.2742 123.199 28.8214 122.97C27.9114 122.522 27.0014 122.035 25.9923 121.461C24.9788 120.892 23.8661 120.241 22.5724 119.43C22.3481 119.287 22.1756 119.175 22.0462 119.089C21.9211 119.003 21.8435 118.942 21.8004 118.904C21.7098 118.826 21.7702 118.839 21.9125 118.904C22.0548 118.968 22.2834 119.076 22.5292 119.188C22.7794 119.305 23.0467 119.434 23.2753 119.525C23.7325 119.706 24.0171 119.779 23.6203 119.456C23.5211 119.378 23.3788 119.27 23.1891 119.137C22.9993 118.994 22.7621 118.826 22.4645 118.623C21.8823 118.201 21.0672 117.64 20.0193 116.821C20.1228 116.864 20.1788 116.842 20.3341 116.959C21.5201 117.83 22.2877 118.291 22.7707 118.541C23.2581 118.792 23.4521 118.839 23.5427 118.813C23.7238 118.761 23.4694 118.434 24.2241 118.839C25.4058 119.46 26.0958 119.749 26.3933 119.865C26.6952 119.973 26.609 119.9 26.2898 119.71C26.1346 119.611 25.9146 119.486 25.6559 119.335C25.3971 119.188 25.1082 119.007 24.789 118.822C24.4699 118.632 24.1378 118.416 23.7971 118.205C23.6289 118.093 23.4608 117.985 23.2926 117.873C23.1244 117.761 22.9562 117.653 22.7966 117.537C18.7212 114.733 15.1546 111.184 12.3299 107.13C12.166 106.509 11.0016 104.715 9.9579 102.671C9.43176 101.649 8.92287 100.571 8.53473 99.5917C8.43554 99.3458 8.34929 99.1043 8.26304 98.8758C8.21991 98.7593 8.1811 98.6472 8.14228 98.5394C8.10347 98.4273 8.06897 98.3194 8.03447 98.2159C7.96547 98.0046 7.90509 97.8062 7.85334 97.6251C7.80159 97.4397 7.75846 97.2715 7.72827 97.1162C8.0129 97.8709 8.33635 98.617 8.66842 99.3588C9.01344 100.096 9.36707 100.829 9.7509 101.541C10.1261 102.257 10.5358 102.951 10.9498 103.628C11.0533 103.796 11.1611 103.965 11.2646 104.129C11.3724 104.297 11.4759 104.465 11.5838 104.625C11.8037 104.948 12.015 105.271 12.2436 105.582C12.3773 105.772 12.5024 105.94 12.6145 106.091C12.7309 106.242 12.8301 106.371 12.9207 106.475C13.0932 106.686 13.2053 106.807 13.2312 106.807C13.2571 106.807 13.201 106.686 13.0414 106.414C12.8732 106.151 12.6145 105.733 12.2436 105.129C11.3681 103.697 10.553 102.171 9.97515 100.916C11.7304 104.094 13.8953 106.984 16.3794 109.515L16.332 109.455Z" fill="#1E5192"/>
</g>
<path d="M16.897 105.599C17.449 106.362 18.0743 107.139 18.76 107.928C19.4501 108.717 20.2004 109.515 21.0198 110.3C22.6543 111.87 24.5605 113.401 26.6996 114.763C27.7691 115.449 28.8904 116.092 30.0678 116.678C31.2408 117.26 32.4656 117.791 33.7206 118.257C34.9798 118.727 36.2736 119.128 37.5933 119.46C38.9087 119.788 40.2499 120.046 41.5997 120.228C43.3981 120.482 45.1533 120.573 46.8827 120.56C48.6078 120.529 50.3069 120.391 51.9889 120.111C53.6751 119.839 55.3441 119.43 57.0131 118.882C57.8497 118.606 58.6821 118.291 59.5144 117.942C60.3511 117.588 61.1834 117.191 62.0157 116.756C63.2319 116.113 64.0642 115.6 64.6076 115.242C64.7456 115.156 64.8664 115.078 64.9656 115.009C65.0648 114.936 65.151 114.876 65.22 114.828C65.3537 114.725 65.427 114.664 65.4443 114.638C65.4788 114.587 65.2847 114.669 64.9181 114.845C64.7327 114.932 64.5041 115.039 64.2367 115.165C64.1031 115.229 63.9564 115.294 63.8055 115.363C63.6502 115.428 63.4907 115.501 63.3182 115.574C62.4298 115.949 61.7915 116.161 61.4292 116.243C61.0583 116.325 60.9635 116.282 61.136 116.118C61.3128 115.958 61.7527 115.669 62.4427 115.225C63.1327 114.781 64.0729 114.181 65.2114 113.349C66.3672 112.499 66.8545 112.008 66.9321 111.848C67.0055 111.684 66.6518 111.831 66.048 112.154C63.5855 113.444 60.7694 114.587 57.8109 115.315C57.7376 115.333 57.6514 115.359 57.5565 115.384C57.4616 115.41 57.3538 115.441 57.2417 115.475C57.0131 115.54 56.7543 115.622 56.4783 115.699C56.2023 115.781 55.9134 115.868 55.6244 115.945C55.4821 115.984 55.3398 116.023 55.2018 116.066C55.0638 116.1 54.9301 116.135 54.8007 116.169C54.3824 116.29 53.9684 116.381 53.5544 116.48C53.136 116.566 52.7263 116.657 52.3166 116.726C51.9026 116.803 51.4929 116.855 51.0875 116.915C50.8805 116.941 50.6778 116.967 50.4751 116.989C50.2724 117.015 50.0697 117.036 49.8671 117.053C48.2455 117.209 46.6412 117.226 45.0455 117.166C41.7507 117.028 38.3911 116.454 35.1092 115.35C31.8359 114.246 28.636 112.624 25.7163 110.477C28.3643 112.607 31.3702 114.337 34.5658 115.579C37.7615 116.825 41.1512 117.575 44.5711 117.817C47.0466 117.994 49.5005 117.92 51.9112 117.597C54.322 117.273 56.6896 116.691 59.0012 115.855L59.0659 116.01C57.1985 116.803 55.2406 117.437 53.2783 117.894C53.1835 117.916 53.0843 117.938 52.9894 117.963C52.8902 117.985 52.7867 118.007 52.6875 118.024C52.4848 118.067 52.2778 118.114 52.0665 118.153C51.6482 118.227 51.2255 118.308 50.8201 118.369C50.0094 118.503 49.2719 118.593 48.8191 118.675C47.9048 118.839 46.9517 118.947 45.9641 118.994C44.9765 119.033 43.9631 119.02 42.9323 118.942C40.8666 118.791 38.7361 118.369 36.6143 117.709C35.5405 117.373 34.4019 116.963 33.3626 116.514C32.3189 116.07 31.3831 115.591 30.6974 115.186C29.5589 114.496 28.6834 113.927 27.7476 113.349C26.816 112.762 25.8241 112.167 24.5131 111.322C24.3233 111.201 24.1163 111.055 23.8877 110.886C23.6549 110.723 23.4134 110.533 23.1503 110.321C23.0856 110.27 23.0209 110.218 22.9519 110.166C22.8829 110.11 22.8182 110.05 22.7492 109.994C22.6112 109.877 22.4689 109.757 22.3266 109.636C22.1843 109.506 22.0376 109.377 21.8867 109.243C21.8134 109.174 21.7357 109.11 21.6624 109.036C21.5848 108.967 21.5115 108.894 21.4339 108.821C21.2829 108.674 21.119 108.532 20.9638 108.372C20.8085 108.217 20.649 108.057 20.4851 107.893C20.3255 107.73 20.1616 107.557 19.9978 107.385C19.8339 107.216 19.6743 107.031 19.5061 106.85C18.8463 106.117 18.1735 105.314 17.5094 104.452C18.8161 106.285 20.2608 107.937 21.7918 109.407C23.3228 110.882 24.94 112.176 26.6176 113.301C28.2996 114.427 30.0289 115.389 31.8014 116.191C32.6855 116.592 33.5782 116.959 34.4796 117.282C35.3809 117.605 36.2909 117.894 37.2052 118.149C37.3906 118.201 37.5717 118.248 37.7529 118.3C37.934 118.352 38.1151 118.39 38.2963 118.442C38.4731 118.485 38.6499 118.537 38.831 118.58C39.0078 118.623 39.1847 118.666 39.3658 118.71L39.6332 118.779C39.7237 118.8 39.81 118.817 39.9006 118.839C40.0817 118.882 40.2628 118.925 40.4439 118.964C40.6294 119.003 40.8148 119.046 41.0003 119.085C41.19 119.124 41.3798 119.167 41.5739 119.201C41.7679 119.24 41.962 119.279 42.1647 119.318C42.3674 119.352 42.5701 119.387 42.7814 119.421C42.9927 119.456 43.2083 119.494 43.4283 119.52C43.6482 119.555 43.8768 119.585 44.1054 119.615C45.0369 119.732 46.0719 119.822 47.2493 119.861C43.6655 120.003 40.2154 119.628 37.0413 118.835C36.8429 118.791 36.6445 118.735 36.4505 118.684C36.2521 118.632 36.058 118.584 35.8639 118.524C35.4758 118.412 35.0877 118.3 34.7081 118.175C33.9491 117.938 33.2073 117.666 32.4871 117.386C31.0424 116.812 29.671 116.174 28.3858 115.466C27.1007 114.759 25.8931 114.004 24.7762 113.211C23.6592 112.413 22.6241 111.581 21.6711 110.735C19.7606 109.045 18.1864 107.29 16.897 105.599Z" fill="#1E5192"/>
<path d="M16.332 109.455C15.7929 108.786 15.1331 107.984 14.4819 107.117C13.8307 106.25 13.1881 105.323 12.6447 104.439C12.3687 103.999 12.1272 103.568 11.9073 103.171C11.7994 102.968 11.7046 102.774 11.6097 102.589C11.5666 102.494 11.5234 102.403 11.4803 102.317C11.4415 102.231 11.4027 102.145 11.3682 102.063C11.0792 101.403 10.9499 100.916 11.0275 100.734C11.0318 100.722 10.9973 100.635 10.9326 100.497C10.8722 100.355 10.786 100.152 10.6782 99.9151C10.6264 99.7986 10.566 99.6693 10.5057 99.5356C10.4453 99.3976 10.3849 99.2553 10.3202 99.1043C10.2555 98.9577 10.1822 98.8067 10.1175 98.6472C10.0528 98.4919 9.98382 98.3323 9.91914 98.1771C9.36712 96.9092 8.87117 95.6111 8.69004 95.6197L8.70729 95.5723C8.41834 95.2316 8.4054 95.5421 8.6426 96.4219C8.87979 97.2973 9.39731 98.7291 10.2943 100.545C11.89 103.766 13.9428 106.811 16.3708 109.502C16.3795 109.515 16.332 109.455 16.332 109.455Z" fill="#1E5192"/>
<path d="M7.79289 82.8586C7.79289 83.126 7.78857 83.3805 7.78857 83.6306C7.7972 83.8807 7.80151 84.1266 7.80582 84.3638C7.81014 84.6009 7.82308 84.8295 7.8317 85.0581C7.84464 85.2823 7.84895 85.5023 7.8662 85.7136C7.9007 86.1406 7.92227 86.5459 7.96539 86.9298C7.98264 87.1238 7.99989 87.3093 8.01714 87.4904C8.03871 87.6715 8.06027 87.8484 8.08183 88.0252C8.25434 89.4095 8.46997 90.5093 8.70717 91.4839C8.78048 91.7685 8.84948 92.0057 8.91848 92.2127C8.99611 92.4197 9.06511 92.5966 9.13843 92.7604C9.27643 93.0925 9.42737 93.3642 9.57832 93.7179C9.49638 93.3815 9.4015 93.0192 9.32818 92.6483C9.28506 92.4629 9.24624 92.2774 9.20743 92.092C9.17293 91.9065 9.13412 91.7211 9.09962 91.54C8.96161 90.8154 8.85379 90.1513 8.76323 89.7244C8.73735 89.595 8.70716 89.4656 8.68129 89.3362C8.65541 89.2068 8.62954 89.0775 8.60366 88.9524C8.55622 88.6979 8.50016 88.4478 8.45703 88.1977C8.40959 87.9432 8.36215 87.6931 8.31903 87.4343C8.2759 87.1799 8.23277 86.9211 8.18965 86.6538C8.02577 85.5799 7.87483 84.3939 7.79289 82.8586Z" fill="#1E5192"/>
<path d="M7.63774 74.242C7.87493 73.1552 8.15526 72.077 8.48733 71.0118C8.81509 69.9509 9.1946 68.8986 9.61293 67.8679C10.4496 65.7978 11.4717 63.7968 12.6533 61.8949L12.3428 62.1968L12.0453 62.5073C11.4803 63.469 10.9542 64.448 10.4711 65.4485C9.99244 66.4534 9.55686 67.4711 9.1601 68.5105C8.36657 70.5805 7.76281 72.7153 7.33154 74.8802C7.42642 74.6646 7.53424 74.4533 7.63774 74.242Z" fill="#1E5192"/>
<path d="M8.70721 95.5723L8.68996 95.6197C8.21988 94.0413 7.86194 92.4974 7.56868 91.0871C7.2711 89.6769 7.04685 88.4004 6.82259 87.3395C6.81828 87.3222 6.81828 87.3783 6.81828 87.4775C6.81396 87.5249 6.81396 87.5853 6.81396 87.65C6.81828 87.7147 6.81828 87.788 6.82259 87.8613C6.83122 88.1502 6.84847 88.4737 6.8614 88.5686C7.26248 91.0009 7.8835 93.3211 8.70721 95.5723Z" fill="#1E5192"/>
<path d="M13.6365 112.417C14.6672 113.521 15.754 114.569 16.8926 115.561C18.0268 116.549 19.2171 117.476 20.4462 118.343L20.278 118.101C17.7378 116.256 15.3918 114.13 13.3044 111.771C13.4123 111.986 13.5244 112.202 13.6365 112.417Z" fill="#1E5192"/>
<path d="M33.9102 120.163C32.6207 119.74 31.3571 119.249 30.1237 118.692C28.8903 118.136 27.687 117.511 26.5183 116.825L26.4924 116.89C27.6612 117.575 28.8644 118.201 30.1021 118.757C31.3398 119.313 32.6034 119.805 33.8929 120.228L33.9102 120.163Z" fill="#1E5192"/>
<path d="M17.4532 57.9057C17.2591 58.1386 17.0521 58.3758 16.8538 58.6173C16.6511 58.8674 16.4484 59.1089 16.2586 59.3547C16.0689 59.6049 15.8834 59.8421 15.7195 60.0706C15.5556 60.2992 15.4047 60.5148 15.2753 60.7046C14.9907 61.1531 14.7751 61.5111 14.5982 61.8604C14.5077 62.0329 14.4214 62.1968 14.3352 62.365C14.2532 62.5375 14.167 62.7057 14.0764 62.8868C14.7233 61.8776 15.5341 60.7995 16.1335 59.9801C16.9486 58.8804 17.6171 57.9833 18.4149 57.0475C18.251 57.1855 18.0915 57.3278 17.9319 57.4744C17.7723 57.6168 17.6085 57.7591 17.4532 57.9057Z" fill="#1E5192"/>
<path d="M26.4062 113.854C26.6564 114.017 26.9108 114.173 27.161 114.332C27.4154 114.492 27.6742 114.643 27.9286 114.794C28.1486 114.923 28.3728 115.031 28.5971 115.147C28.0796 114.858 27.5707 114.561 27.0704 114.25C26.8505 114.112 26.6262 113.992 26.4062 113.854Z" fill="#1E5192"/>
<path d="M14.9994 99.4148C14.87 99.1517 14.7536 98.9059 14.6414 98.6687C14.5293 98.4272 14.4258 98.1943 14.3223 97.9658C14.2361 97.7674 14.1369 97.5647 14.042 97.362C14.1369 97.5863 14.2188 97.8191 14.3223 98.0391C14.4258 98.259 14.5293 98.4747 14.6371 98.7032C14.7493 98.9275 14.87 99.1647 14.9994 99.4148Z" fill="#1E5192"/>
<path d="M83.9885 87.9691C83.9497 88.1977 83.9152 88.4219 83.8677 88.6462C83.8203 88.8748 83.7771 89.099 83.747 89.3276C83.6607 89.8796 83.6046 90.4403 83.5098 90.9966C83.5658 90.7723 83.6305 90.5481 83.6823 90.3195C83.734 90.0952 83.7815 89.8667 83.8203 89.6295C83.8677 89.3578 83.8893 89.0818 83.9195 88.8058C83.954 88.5298 83.9669 88.2494 83.9885 87.9691Z" fill="#1E5192"/>
<mask id="mask2_872_1673" style="mask-type:luminance" maskUnits="userSpaceOnUse" x="24" y="7" width="71" height="42">
<path d="M24.2888 7.72821H94.947V48.5775H24.2888V7.72821Z" fill="white"/>
</mask>
<g mask="url(#mask2_872_1673)">
<mask id="mask3_872_1673" style="mask-type:luminance" maskUnits="userSpaceOnUse" x="20" y="0" width="78" height="51">
<path d="M28.8817 0L97.8925 16.9443L89.6165 50.6476L20.6101 33.7032L28.8817 0Z" fill="white"/>
</mask>
<g mask="url(#mask3_872_1673)">
<mask id="mask4_872_1673" style="mask-type:luminance" maskUnits="userSpaceOnUse" x="20" y="0" width="78" height="51">
<path d="M28.8817 0L97.8925 16.9443L89.6165 50.6476L20.6101 33.7032L28.8817 0Z" fill="white"/>
</mask>
<g mask="url(#mask4_872_1673)">
<path d="M90.8803 41.6773C91.3417 43.7819 90.2636 48.2109 90.2636 48.2109C90.1385 48.2584 90.0177 48.2886 89.897 48.3144L89.9142 45.3301C89.9142 45.3301 89.263 47.1543 89.0474 48.2541C87.6329 48.3662 87.0334 47.5037 87.0334 47.5037C87.5337 43.9242 88.4005 42.0568 88.9525 41.1598C88.78 40.8622 88.7153 40.5129 88.7973 40.1506C88.9223 39.5641 89.4053 39.1372 89.966 39.0552L91.4495 32.6553L82.0135 34.4105C81.3019 34.5442 80.6809 33.9189 80.8275 33.203L81.3493 30.6585C81.4097 30.3308 81.3148 29.9987 81.0906 29.7572C69.9467 17.7292 58.8848 15.7282 51.5835 16.1638C43.6267 16.6425 38.3826 19.9675 38.1626 20.1098L38.154 20.1141C37.9211 20.2608 37.7702 20.4893 37.7055 20.7481L37.0543 23.5772C36.8904 24.2931 36.0538 24.6079 35.4543 24.1723L25.6042 16.9918C24.8797 16.4613 25.1385 15.3228 26.0183 15.1589L62.6411 8.41396C62.9171 8.36652 63.1932 8.42259 63.4174 8.58647L94.0026 30.4343C94.7401 30.9561 94.4856 32.1033 93.5972 32.2714L92.3422 32.5043L90.7854 39.1932C91.3633 39.4692 91.691 40.1118 91.5487 40.7544C91.4668 41.1598 91.2123 41.4832 90.8803 41.6773ZM39.2235 21.7788C39.1632 21.809 39.1157 21.8694 39.0985 21.9427L35.3422 37.2396C35.2947 37.4207 35.4672 37.5846 35.6484 37.5242C38.4818 36.6229 55.6633 32.0774 75.3936 47.3614C75.5359 47.4692 75.7386 47.4045 75.7774 47.2363L79.7149 31.2105C79.7321 31.1372 79.7149 31.051 79.6588 30.9949C78.3607 29.4941 61.5112 10.7385 39.2235 21.7788Z" fill="#1E5192"/>
</g>
</g>
</g>
<mask id="mask5_872_1673" style="mask-type:luminance" maskUnits="userSpaceOnUse" x="14" y="97" width="50" height="20">
<path d="M14.0032 97.0084H63.1198V116.083H14.0032V97.0084Z" fill="white"/>
</mask>
<g mask="url(#mask5_872_1673)">
<path d="M62.8869 98.7636C62.1192 98.052 60.2303 97.3706 55.8012 99.8332C53.8864 101.023 52.8471 101.791 52.3252 102.218C51.9845 102.485 51.5748 102.649 51.1436 102.679C48.8363 102.839 41.5566 103.542 39.0596 103.49C38.693 103.486 38.5722 102.994 38.8181 102.8C38.9992 102.658 39.2795 102.589 39.6806 102.464C41.0951 102.02 48.9657 102.058 48.7932 99.113C48.6293 96.2925 42.9884 97.3318 41.3108 97.6898C40.6639 97.8278 39.9394 97.9356 39.2709 98.0175C39.2709 98.0175 36.8429 98.1254 35.6483 97.8364C33.1599 97.1895 27.9244 96.1329 24.6166 98.8111C21.9514 100.972 20.7697 102.395 20.2522 103.171C19.9029 103.693 19.4285 104.12 18.8678 104.409L14.2059 107.691C13.9601 107.863 13.9299 108.217 14.1455 108.428L21.7961 116.079C22.0031 116.286 22.3481 116.26 22.5249 116.023C23.5772 114.6 27.3421 110.434 35.1868 110.688C44.6401 110.994 44.7005 110.809 46.7749 109.709C48.4007 108.851 52.2735 107.462 53.8648 106.906C54.3349 106.742 54.7705 106.496 55.15 106.181L62.8351 99.872C63.1931 99.6003 63.2146 99.0698 62.8869 98.7636Z" fill="#1E5192"/>
</g>
<mask id="mask6_872_1673" style="mask-type:luminance" maskUnits="userSpaceOnUse" x="47" y="95" width="10" height="4">
<path d="M47.4734 95.4299H56.3057V98.259H47.4734V95.4299Z" fill="white"/>
</mask>
<g mask="url(#mask6_872_1673)">
<path d="M48.3403 96.9006C48.5818 97.0386 48.7975 97.1981 48.9743 97.3749C49.0864 97.4871 49.1856 97.6035 49.2719 97.7286C49.8325 97.4612 50.4621 97.1766 51.1435 96.8833L51.1522 96.879C52.86 96.245 54.3306 95.9043 55.5338 95.8655C55.1414 95.6585 54.6497 95.5335 54.0675 95.4989C52.8341 95.4256 51.2341 95.7534 49.3064 96.4736C48.97 96.6202 48.6465 96.7626 48.3403 96.9006Z" fill="#1E5192"/>
</g>
<path d="M47.3311 101.804C47.7839 101.769 48.2151 101.739 48.6205 101.705H48.6248C49.703 101.623 50.6345 101.55 51.2297 101.511C51.3332 101.506 51.4324 101.485 51.5316 101.45C51.6566 101.407 51.7731 101.343 51.8766 101.261C52.4156 100.829 53.4507 100.066 55.331 98.9016L55.3526 98.8887L55.3698 98.88C55.9046 98.5868 56.4307 98.3237 56.9267 98.0994C57.414 97.8924 57.8841 97.7199 58.324 97.5906C58.3843 97.5733 58.4447 97.5561 58.5051 97.5388C58.4361 97.4784 58.3585 97.4224 58.2808 97.3663C57.8323 97.073 57.2329 96.9135 56.4997 96.8876C55.3267 96.8488 53.8302 97.1636 52.0534 97.8191C51.2469 98.1641 50.5138 98.4919 49.8841 98.7981C49.8841 98.8283 49.8884 98.8542 49.8884 98.8843C49.9747 100.182 49.1122 101.166 47.3311 101.804Z" fill="#1E5192"/>
<mask id="mask7_872_1673" style="mask-type:luminance" maskUnits="userSpaceOnUse" x="26" y="75" width="37" height="19">
<path d="M26.3286 75.0743H62.6841V93.8429H26.3286V75.0743Z" fill="white"/>
</mask>
<g mask="url(#mask7_872_1673)">
<path d="M62.5461 90.1772V75.9584C62.3521 76.1482 62.1407 76.3293 61.9294 76.4932C61.731 76.6441 61.5283 76.7821 61.317 76.9158C60.6141 77.3385 59.8378 77.6317 59.0227 77.7568C57.923 77.925 56.7888 77.8603 55.6761 77.8603H47.8271C47.8012 77.8603 47.771 77.8603 47.7409 77.856V78.3649C47.7409 78.4253 47.7452 78.4813 47.7409 78.546C47.7279 78.8781 47.4821 79.1239 47.15 79.1368C46.5635 79.167 45.9684 79.1368 45.3775 79.1368H42.5183C42.2681 79.1368 42.018 79.1412 41.7679 79.1368C41.397 79.1282 41.1382 78.8824 41.1339 78.5029C41.1296 78.2916 41.1296 78.0716 41.1296 77.8603C41.108 77.8646 41.0778 77.8646 41.052 77.8646C41.0347 77.8646 41.0175 77.8646 41.0002 77.8646C39.8832 77.8819 38.7663 77.8646 37.6536 77.8646H32.6768C31.4477 77.8646 30.1884 77.9422 28.9982 77.5627C28.5022 77.4032 28.0192 77.1832 27.5664 76.9202C27.355 76.7908 27.148 76.6571 26.9497 76.5105C26.734 76.3466 26.5313 76.1698 26.3373 75.98V91.4753C26.3373 91.5874 26.3329 91.7039 26.3416 91.816C26.4235 92.8985 27.3033 93.7351 28.3901 93.7524C28.6575 93.7567 28.9162 93.7524 29.1836 93.7524H59.3806C59.7343 93.7524 60.0922 93.7524 60.4416 93.7524C61.6405 93.748 62.5418 92.8036 62.5461 91.6219C62.5461 91.1303 62.5461 90.6559 62.5461 90.1772Z" fill="#1E5192"/>
</g>
<mask id="mask8_872_1673" style="mask-type:luminance" maskUnits="userSpaceOnUse" x="26" y="60" width="37" height="17">
<path d="M26.3286 60.9246H62.6841V76.1783H26.3286V60.9246Z" fill="white"/>
</mask>
<g mask="url(#mask8_872_1673)">
<path d="M62.5374 69.6231V68.2129C62.4598 67.139 61.58 66.2938 60.4932 66.2808C60.4199 66.2808 60.3466 66.2808 60.2733 66.2808H51.4927V63.2189C51.4927 62.5978 51.3159 62.007 50.8631 61.5542C50.4405 61.1272 49.8712 60.9332 49.2804 60.9289C48.7413 60.9289 48.2108 60.9289 47.6718 60.9289H39.8271C39.7236 60.9289 39.6244 60.9245 39.5252 60.9289C38.3478 60.9547 37.4249 61.8819 37.3948 63.0593C37.3689 64.1288 37.3818 65.207 37.3904 66.2808H28.8299C28.7005 66.2808 28.5797 66.2808 28.4504 66.2808C27.9026 66.2808 27.3894 66.4663 26.9841 66.8458C26.5916 67.2124 26.3803 67.7169 26.3501 68.2431V70.2312C26.3501 70.5202 26.3501 70.8005 26.3501 71.0894C26.3501 71.2102 26.3501 71.3309 26.3587 71.4517C26.363 71.5379 26.3717 71.6199 26.376 71.7061C26.376 71.7191 26.3803 71.732 26.3803 71.7449C26.4018 71.8614 26.4191 71.9821 26.445 72.0943C26.5054 72.3832 26.5959 72.6635 26.6994 72.9395C26.6994 72.9439 26.6994 72.9439 26.7037 72.9482C26.7037 72.9525 26.7037 72.9525 26.7037 72.9568C26.708 72.9654 26.708 72.9697 26.7124 72.9784C26.7382 73.0344 26.7684 73.0905 26.7943 73.1509C26.8504 73.2544 26.9021 73.3579 26.9582 73.4614C26.9668 73.4786 26.9754 73.4916 26.9884 73.5045C27.066 73.6382 27.1479 73.7676 27.2385 73.8926C27.2773 73.9444 27.3161 73.9875 27.3506 74.0436C27.3463 74.0349 27.342 74.0263 27.3377 74.0177C27.3463 74.0306 27.3506 74.0393 27.3593 74.0479C27.4283 74.1341 27.5016 74.2204 27.5792 74.298C27.6956 74.4274 27.825 74.5482 27.9544 74.6689C28.0105 74.7163 28.0622 74.7638 28.1183 74.8069C28.1269 74.8155 28.1398 74.8242 28.1528 74.8328C28.2218 74.8759 28.252 74.8932 28.2563 74.8975C28.252 74.8975 28.2304 74.8802 28.2002 74.8673C28.2865 74.9233 28.3684 74.988 28.4547 75.0441C28.6832 75.195 28.9204 75.3244 29.1662 75.4409C29.4034 75.5142 29.2784 75.484 29.2007 75.4538C29.2094 75.4581 29.2137 75.4581 29.2223 75.4624C29.2913 75.4883 29.356 75.5185 29.425 75.5357C29.5587 75.5832 29.6881 75.622 29.8175 75.6608C29.9641 75.6953 30.1064 75.7298 30.253 75.76C30.3048 75.7686 30.3522 75.7729 30.3997 75.7816C30.4298 75.7859 30.46 75.7859 30.4816 75.7902C30.8482 75.8247 31.2147 75.8161 31.5813 75.8161H41.0648C41.095 75.8161 41.1209 75.8161 41.1511 75.8204V74.8328C41.1511 74.5438 41.1079 74.2376 41.3451 74.0263C41.5435 73.8409 41.8066 73.8711 42.0567 73.8711H47.0119C47.0637 73.8711 47.1154 73.8711 47.1629 73.8711C47.4863 73.8883 47.7106 74.1083 47.7494 74.4145C47.7537 74.4317 47.7537 74.449 47.7537 74.4619C47.7537 74.4705 47.7537 74.4791 47.7537 74.4878V75.8247C47.7839 75.8204 47.8141 75.8204 47.8399 75.8204H47.896C48.9785 75.7988 50.0653 75.8204 51.1477 75.8204H57.897C58.0738 75.8204 58.2463 75.8118 58.4231 75.7945C58.4576 75.7902 58.4922 75.7859 58.5267 75.7816C58.5655 75.7729 58.6129 75.7729 58.6517 75.7643C58.794 75.7341 58.945 75.7039 59.0873 75.6651C59.2296 75.6263 59.3676 75.5832 59.5099 75.5314C59.5746 75.5099 59.635 75.484 59.6997 75.4581C59.9541 75.3417 60.1956 75.2123 60.4285 75.0614C60.5062 75.0139 60.5838 74.9622 60.6571 74.9104C60.6743 74.8932 60.7433 74.8457 60.7692 74.8242L60.7735 74.8198C60.7778 74.8155 60.7865 74.8112 60.7865 74.8069C60.8425 74.7638 60.8986 74.712 60.9504 74.6689C61.0797 74.5525 61.2048 74.4317 61.3256 74.3023C61.4032 74.2204 61.4808 74.1385 61.5498 74.0479C61.5541 74.0393 61.5627 74.0349 61.5671 74.0263C61.5972 73.9746 61.6447 73.9185 61.6792 73.8711C61.7568 73.7589 61.8301 73.6468 61.8948 73.5304C61.9078 73.5045 61.925 73.4829 61.9379 73.4614C61.9983 73.3492 62.0587 73.2371 62.1148 73.125C62.1406 73.0732 62.1665 73.0129 62.1924 72.9611C62.2959 72.6894 62.3865 72.4177 62.4468 72.1288C62.4684 72.0382 62.4813 71.9433 62.4986 71.8528V71.8484V71.8441C62.4986 71.8441 62.4986 71.8398 62.4986 71.8355C62.4986 71.8312 62.4986 71.8269 62.5029 71.8226C62.5072 71.7794 62.5158 71.7277 62.5202 71.6932C62.5288 71.6199 62.5331 71.5422 62.5374 71.4689C62.5417 71.3525 62.546 71.2317 62.5503 71.111V70.3002C62.5417 70.0587 62.5374 69.8431 62.5374 69.6231ZM49.4529 63.0765C49.4529 63.0809 49.4529 63.0852 49.4572 63.0852V63.0895C49.4615 63.1067 49.4658 63.1197 49.4572 63.0981C49.4529 63.1024 49.4486 63.0938 49.4442 63.0895C49.4615 64.1504 49.4529 65.2156 49.4486 66.2808H39.4389V63.3051C39.4389 63.2361 39.4389 63.1628 39.4389 63.0895C39.426 63.1067 39.4174 63.111 39.4131 63.1067C39.4044 63.1197 39.4044 63.0938 39.4088 63.0679C39.3872 63.0895 39.3786 63.0938 39.4088 63.0593C39.4088 63.042 39.4131 63.0291 39.4174 63.0119C39.4174 63.0119 39.4174 63.0119 39.4131 63.0119C39.4131 63.0119 39.4131 63.0119 39.4174 63.0119C39.4217 63.0075 39.4217 62.9946 39.426 62.986C39.3958 62.986 39.4044 62.9774 39.4303 62.973C39.4346 62.9515 39.4433 62.9429 39.4433 62.9687C39.4519 62.9687 39.4605 62.9644 39.4691 62.9644C39.4691 62.9601 39.4691 62.9601 39.4691 62.9558V62.9601C39.4864 62.9558 39.4993 62.9558 39.5166 62.9515C39.5338 62.9342 39.5424 62.9299 39.5468 62.9256C39.5424 62.9299 39.5338 62.9385 39.5209 62.9515C39.5511 62.9472 39.5769 62.9472 39.564 62.9558C39.5683 62.9601 39.564 62.9687 39.5511 62.9817C39.5813 62.9817 39.6158 62.9817 39.6459 62.9817H48.9914C49.1165 62.9817 49.2329 62.9774 49.358 62.9817C49.3494 62.9774 49.3451 62.9774 49.3407 62.973C49.3106 62.9558 49.3192 62.9515 49.3407 62.9472C49.3278 62.9385 49.3321 62.9385 49.3451 62.9472C49.3494 62.9472 49.358 62.9472 49.3623 62.9472C49.3451 62.9342 49.3364 62.9256 49.3321 62.9256C49.3321 62.9256 49.3451 62.9299 49.3666 62.9472C49.3796 62.9472 49.3968 62.9515 49.4141 62.9515C49.4227 62.9515 49.427 62.9558 49.4356 62.9558C49.4356 62.9472 49.4356 62.9429 49.4399 62.9429C49.4399 62.9429 49.4442 62.9472 49.4442 62.9558C49.4787 62.9644 49.496 62.973 49.4442 62.9774C49.4442 62.986 49.4442 62.9903 49.4442 62.9989C49.4529 63.0032 49.4615 63.0075 49.4658 63.0075C49.4615 63.0075 49.4529 63.0075 49.4442 63.0032V63.0075C49.4486 63.0075 49.4529 63.0119 49.4615 63.0205C49.4572 63.0205 49.4529 63.0162 49.4486 63.0119C49.4486 63.0205 49.4529 63.0248 49.4529 63.0334C49.4615 63.0507 49.4787 63.0679 49.4917 63.0765C49.4787 63.0679 49.4658 63.055 49.4529 63.0464C49.4529 63.0636 49.4529 63.0679 49.4529 63.0765Z" fill="#1E5192"/>
</g>
<path d="M327.221 41.3495C327.221 41.3495 326.971 41.5996 326.824 41.7463C326.427 42.0913 325.832 42.639 325.785 43.0357C325.733 43.5791 325.884 44.2735 326.082 44.916C326.177 45.3602 326.276 45.8088 326.328 46.2055C326.475 47.3441 326.527 48.53 326.574 49.6729C326.574 49.7678 326.574 49.8669 326.574 49.9661V50.2637L326.328 50.5138C324.396 51.3548 322.464 52.1958 320.532 53.0885L319.644 53.4852C317.362 58.6345 315.335 64.3315 313.502 70.8695C319.941 67.0053 326.824 62.9946 334.005 59.924C338.266 58.0911 341.828 56.9526 345.248 56.3057C347.624 55.8615 349.556 55.8141 351.29 56.1073C352.182 56.2583 353.023 56.5041 353.718 56.8017C353.864 56.8534 354.011 56.9526 354.209 57.0992C352.825 54.6238 350.794 52.0966 348.068 49.3236C346.287 47.5424 344.157 46.6972 341.336 46.6972C340.741 46.6972 340.094 46.6972 339.452 46.7963C339.206 46.7963 338.908 46.8481 338.658 46.8955L337.869 46.9947L337.77 46.6497C337.77 46.6497 337.67 46.4039 337.67 46.253C336.976 42.8373 335.441 38.6757 332.323 38.6757C331.577 38.6757 330.736 38.9215 329.843 39.37C328.955 39.8142 328.109 40.5085 327.268 41.3495H327.221Z" fill="#1E5192"/>
<path d="M353.321 61.5068C353.071 60.7132 352.528 60.1224 351.734 59.7257C349.953 58.8329 347.279 58.7337 344.554 59.3763C344.355 59.7257 344.109 60.0707 343.859 60.42C343.713 60.6141 343.562 60.8124 343.467 61.0108C346.882 62.2011 350.052 63.6372 352.924 65.3709C353.52 63.9822 353.718 62.5979 353.321 61.5068Z" fill="#1E5192"/>
<mask id="mask9_872_1673" style="mask-type:luminance" maskUnits="userSpaceOnUse" x="270" y="32" width="63" height="88">
<path d="M270.117 32.7717H332.314V119.236H270.117V32.7717Z" fill="white"/>
</mask>
<g mask="url(#mask9_872_1673)">
<path d="M306.369 112.072C305.576 108.113 305.528 103.999 305.628 100.484C305.774 92.3635 306.913 84.0401 309.043 75.6736C311.372 66.4101 314.292 57.9918 317.712 50.6129C320.135 45.3601 324.099 36.7435 331.232 35.0098C328.605 34.1214 325.932 33.6254 323.603 33.2287L323.012 33.1295C320.83 32.7845 318.501 32.5343 316.819 33.1295C314.887 33.8712 313.205 35.5575 311.967 36.9418C310.63 38.4297 309.388 40.1116 308.103 42.0954L307.905 42.4404L307.262 42.0437C304.584 40.1634 300.672 37.6836 297.455 37.6836C296.364 37.6836 295.424 37.9812 294.682 38.5289C292.353 40.2626 292.5 44.2733 293.393 47.4905C294.98 48.1849 296.562 49.125 298.296 50.2161C298.443 50.3153 298.792 50.5611 299.189 50.9104C299.586 51.2555 300.077 51.6005 300.526 51.9498L300.724 52.0964C301.022 52.2948 301.22 52.4457 301.419 52.4932L302.505 53.1875L302.259 53.7309C302.009 54.2786 301.811 54.8694 301.565 55.4172L301.466 55.663H299.883C298.792 55.663 297.654 55.663 296.562 55.663C297.356 57.1983 298.05 58.4877 298.693 59.6263L298.792 59.7729L299.534 61.1616V61.3082C299.236 62.1017 298.991 62.9427 298.74 63.7362L298.542 64.4306L297.852 63.637C294.63 58.436 292.453 54.0802 291.016 49.8711C289.283 44.7693 289.037 40.8534 290.374 37.9337C287.204 40.0642 283.983 43.1822 281.606 46.5029C279.825 48.9784 279.575 52.394 280.912 57.1983L281.011 57.595L280.019 57.8926C278.091 58.5352 274.771 59.9239 274.029 62.0543C273.684 62.9944 273.93 64.0338 274.624 65.1723C275.564 66.561 276.849 67.4494 278.238 68.4413L279.079 69.0364C279.528 69.334 279.92 69.2348 280.515 69.0364C280.714 68.9373 280.912 68.8855 281.162 68.8381C282.102 68.5879 283.042 68.3421 283.983 68.1437V68.0445L285.173 67.9971L285.319 68.2429C285.867 69.2823 286.411 70.2742 287.006 71.3135C287.204 71.6111 287.847 72.7022 288.739 74.0865L288.938 74.3841L287.45 75.8202L286.756 75.4752C281.606 73.8407 273.089 71.0677 270.661 64.9265C270.117 66.6084 270.117 68.4887 270.117 70.1232V71.2661C270.117 72.9006 270.117 74.5825 270.316 76.217C270.907 79.9302 274.426 82.0606 277.544 83.9409L278.191 84.3377C278.191 84.3377 278.437 84.4886 278.536 84.5878L278.881 84.8336L278.635 85.1829C277.496 86.5673 276.108 88.4476 275.068 90.4789C273.585 93.5494 274.969 96.62 276.504 99.2464C277.841 101.476 279.178 103.607 280.865 105.336C280.567 104.396 280.614 103.408 281.011 102.119C281.507 100.73 282.201 99.3931 283.288 97.6594C285.22 94.5888 287.648 91.8675 289.977 89.3921C290.223 89.1419 290.572 88.8444 290.965 88.4994C291.413 88.1026 291.909 87.7058 292.254 87.2616L293.988 85.7263L293.889 86.7657C293.591 89.6379 293.444 92.5619 293.393 95.5333V95.8308L292.75 96.0292H292.599C291.81 96.275 291.215 96.4734 290.866 96.5726L290.473 96.7192C289.084 97.116 287.847 97.4136 286.656 97.6594C284.526 100.484 283.586 102.761 283.935 104.297C284.082 105.043 284.526 105.586 285.22 105.983C286.16 106.526 287.402 106.776 288.886 106.776C290.374 106.776 291.758 106.526 292.75 106.328L293.147 106.229L294.035 106.181V106.578C294.531 110.041 295.372 113.508 298.495 115.393C300.474 116.579 302.656 117.273 305.278 118.067C306.865 118.563 308.301 118.959 309.785 119.205C307.806 117.571 306.965 114.453 306.469 112.025L306.369 112.072Z" fill="#1E5192"/>
</g>
<path d="M323.059 78.7443C323.059 78.7443 323.503 78.7443 323.754 78.7443C324.198 78.7443 324.694 78.7443 325.138 78.7443H328.209C328.506 78.7443 328.756 78.7443 328.955 78.7443C330.339 78.6926 331.628 78.6926 332.914 78.6452H335.195C336.48 78.546 337.968 78.4942 339.452 78.395C339.107 77.6058 338.559 76.8123 338.067 76.0188C337.817 75.6738 337.619 75.3244 337.373 74.9794C336.631 73.7891 335.885 72.6506 335.143 71.4646C333.461 68.9374 331.827 66.6603 330.192 64.5299C327.023 66.0652 323.702 67.8463 319.79 70.1234C320.286 70.8177 320.782 71.4646 321.278 72.1072C322.119 73.1983 322.913 74.2851 323.702 75.3762L323.801 75.5228L323.357 77.4549L323.206 78.0975C323.158 78.2958 323.107 78.4942 323.059 78.6926V78.7443Z" fill="#1E5192"/>
<path d="M342.125 78.1967H342.225C342.225 78.1967 342.971 77.9509 343.76 77.1099L345.295 75.4237L345.593 75.5746C346.041 75.773 346.533 76.0188 346.981 76.2689C347.378 76.463 347.775 76.6614 348.219 76.8598C348.564 77.0107 349.556 76.6139 350.199 76.3638C350.397 76.2689 350.595 76.2172 350.695 76.1697C352.23 75.5746 353.916 74.8285 354.606 73.4916C355.499 71.7579 354.063 69.9768 353.619 69.4808C350.992 66.6086 346.93 64.8275 343.363 63.4388C342.276 63.0421 341.185 62.6453 340.094 62.3003C339.9 62.2529 339.65 62.1537 339.404 62.0027C338.856 61.7569 338.115 61.4594 337.67 61.4594C337.571 61.4594 337.52 61.4594 337.472 61.4594C335.488 62.2529 333.759 62.9946 332.172 63.7364C332.616 64.6291 333.41 65.5175 334.151 66.4103C334.6 66.958 335.044 67.4496 335.441 67.9973C336.579 69.58 337.77 71.2663 339.007 73.1466L340.444 75.5746C340.939 76.5148 341.435 77.4549 342.125 78.1967Z" fill="#1E5192"/>
<path d="M350.94 79.1411C347.676 80.2279 344.01 80.9222 339.107 81.4182C331.133 82.2117 322.615 82.0608 314.046 80.9697C317.66 85.1314 321.571 89.0429 325.634 92.6095L326.082 93.058C326.427 93.403 326.824 93.748 327.221 93.9981L328.955 95.3825C328.955 95.3825 329.399 95.7792 329.645 95.9776C329.744 95.7318 329.843 95.4817 329.942 95.1367C330.093 94.7399 330.192 94.4423 330.292 94.1965L330.391 93.9464H331.331C331.926 93.8472 332.517 93.8472 333.164 93.7997L334.449 93.7006L334.548 93.9981C334.798 94.6407 335.096 95.2833 335.242 95.6326L335.342 95.8784C335.937 97.3663 336.532 99.0008 336.929 100.782C338.511 101.623 340.689 102.714 342.673 102.714C343.217 102.714 343.712 102.615 344.208 102.468C346.434 101.722 346.585 98.5523 346.486 97.2671C346.434 95.9776 346.287 94.8391 346.041 93.8472C345.942 93.403 345.843 92.9588 345.744 92.6095L345.593 92.1653L346.041 92.0661C347.279 91.7685 348.366 91.5227 349.31 91.2251H349.504C351.536 90.5308 353.817 89.8364 355.055 88.1028C356.439 86.1233 356.888 83.4494 357.28 80.8748C357.578 78.891 357.677 76.9115 357.578 75.0269C356.241 77.3557 352.972 78.4468 350.992 79.1411H350.94Z" fill="#1E5192"/>
<path d="M336.679 104.098C333.608 102.662 330.486 100.73 327.169 98.1555C324 95.7318 320.882 93.0063 317.958 90.0823C316.573 88.6979 315.185 87.2618 313.848 85.7265C313.748 85.6273 313.55 85.3298 313.252 84.9848C312.757 84.3379 311.618 82.9018 310.975 82.2117C310.134 86.7659 309.686 91.2251 309.242 95.4343V95.6801L308.845 100.635L309.884 100.187L310.234 100.536C311.221 101.425 312.213 102.317 313.205 103.158L313.451 103.357L312.657 104.745C312.067 105.733 311.471 106.677 310.824 107.617C310.678 107.816 310.479 108.062 310.234 108.312C309.785 108.803 309.19 109.45 309.242 109.895C309.388 111.676 310.083 114.155 311.221 115.79C311.967 116.829 312.808 117.325 313.796 117.325C316.767 117.325 320.334 112.818 321.869 110.735L322.464 109.946L322.762 110.14C325.388 111.874 328.856 113.905 332.073 113.905C332.966 113.905 333.755 113.759 334.548 113.461C338.908 111.827 342.721 108.26 344.95 105.832C344.403 105.983 343.812 106.082 343.217 106.082C340.94 106.082 338.658 104.991 336.627 104.051L336.679 104.098Z" fill="#1E5192"/>
<path d="M216.447 3.44147C215.877 3.44147 215.468 3.90292 215.468 4.42043V126.093C215.468 126.658 215.929 127.072 216.447 127.072C216.96 127.072 217.426 126.606 217.426 126.093V4.42043C217.426 3.90292 217.012 3.44147 216.447 3.44147Z" fill="#1E5192"/>
<path d="M415.378 64.5232L412.48 64.8855L405.338 95.5224H398.765L392.297 72.2514H392.159L385.69 95.5224H379.134L371.941 64.8855L369.06 64.5232V60.2623H382.032V64.5232L378.807 65.0752L382.86 84.4131L382.998 84.4303L389.623 60.2623H394.815L401.474 84.4303L401.629 84.4131L405.648 65.0752L402.423 64.5232V60.2623H415.378V64.5232Z" fill="#1E5192"/>
<path d="M417.43 64.5232V60.2623H432.041V64.5232L428.263 65.2477V90.5543L432.041 91.2788V95.5224H417.43V91.2788L421.208 90.5543V65.2477L417.43 64.5232Z" fill="#1E5192"/>
<path d="M470.748 60.2623V64.5232L466.97 65.2477V95.5224H459.932L445.7 71.7857L445.545 71.8202V90.5543L449.322 91.2788V95.5224H434.729V91.2788L438.472 90.5543V65.2477L434.729 64.5232V60.2623H445.545L459.794 83.9991L459.932 83.9646V65.2477L456.154 64.5232V60.2623H470.748Z" fill="#1E5192"/>
<path d="M504.068 60.2623V69.6639H498.651L498.358 65.7135H491.872V90.5543L495.65 91.2788V95.5224H481.021V91.2788L484.799 90.5543V65.7135H478.33L478.037 69.6639H472.638V60.2623H504.068Z" fill="#1E5192"/>
<path d="M529.13 80.0314H517.192V90.1057H528.578L528.888 85.8794H534.27V95.5224H506.376V91.2788L510.12 90.5543V65.2477L506.376 64.5232V60.2623H534.219V69.9226H528.802L528.474 65.7135H517.192V74.5803H529.13V80.0314Z" fill="#1E5192"/>
<path d="M566.925 72.148H561.681L560.956 67.4558C560.253 66.7658 559.374 66.2224 558.317 65.817C557.256 65.403 556.01 65.196 554.574 65.196C551.512 65.196 549.157 66.313 547.501 68.5426C545.845 70.7766 545.017 73.6833 545.017 77.2714V78.4962C545.017 82.0843 545.836 84.9996 547.484 87.2422C549.127 89.4848 551.451 90.606 554.453 90.606C555.842 90.606 557.114 90.4077 558.265 90.0023C559.425 89.6012 560.322 89.0492 560.956 88.3462L561.681 83.6541H566.925V90.6233C565.51 92.2793 563.699 93.599 561.491 94.5737C559.292 95.5397 556.825 96.0227 554.091 96.0227C549.364 96.0227 545.487 94.3925 542.464 91.1236C539.449 87.846 537.944 83.6368 537.944 78.4962V77.3059C537.944 72.1911 539.445 67.9863 542.446 64.6957C545.448 61.4095 549.329 59.7621 554.091 59.7621C556.825 59.7621 559.287 60.258 561.474 61.2456C563.669 62.2375 565.485 63.5486 566.925 65.1788V72.148Z" fill="#1E5192"/>
<path d="M101.194 68.2313V63.9704H115.806V68.2313L112.028 68.9558V94.2623L115.806 94.9869V99.2305H101.194V94.9869L104.972 94.2623V68.9558L101.194 68.2313Z" fill="#1E5192"/>
<path d="M118.459 68.2313V63.9704H133.07V68.2313L129.292 68.9558V94.2623L133.07 94.9869V99.2305H118.459V94.9869L122.237 94.2623V68.9558L118.459 68.2313Z" fill="#1E5192"/>
<path d="M162.53 75.235H157.234L156.303 70.3876C155.69 69.9995 154.793 69.6588 153.612 69.3699C152.439 69.0852 151.188 68.9386 149.868 68.9386C147.936 68.9386 146.44 69.3483 145.383 70.1634C144.322 70.9828 143.796 72.0351 143.796 73.3202C143.796 74.5191 144.348 75.5024 145.452 76.2701C146.556 77.0291 148.462 77.8399 151.179 78.7024C155.065 79.7849 158.015 81.2123 160.029 82.9805C162.039 84.753 163.048 87.0862 163.048 89.9842C163.048 92.9988 161.849 95.3793 159.46 97.126C157.066 98.864 153.914 99.7308 150.006 99.7308C147.22 99.7308 144.702 99.2866 142.451 98.4025C140.195 97.5184 138.315 96.2936 136.81 94.7281V87.3622H142.295L143.037 92.3821C143.749 92.96 144.715 93.4344 145.935 93.8139C147.151 94.1934 148.51 94.3831 150.006 94.3831C151.947 94.3831 153.422 93.995 154.423 93.2101C155.432 92.4166 155.941 91.36 155.941 90.036C155.941 88.6818 155.458 87.5864 154.492 86.7584C153.534 85.9304 151.856 85.1541 149.454 84.4296C145.28 83.222 142.114 81.7902 139.967 80.1342C137.815 78.4695 136.741 76.1924 136.741 73.303C136.741 70.4394 137.948 68.1019 140.363 66.282C142.787 64.4664 145.836 63.5349 149.506 63.4874C152.219 63.4874 154.686 63.9014 156.907 64.7295C159.136 65.5489 161.012 66.64 162.53 68.0071V75.235Z" fill="#1E5192"/>
</svg>
