<svg width="41" height="41" viewBox="0 0 41 41" fill="none" xmlns="http://www.w3.org/2000/svg">
<path d="M20.0609 0C19.4036 0 18.7464 0.0324566 18.0945 0.0973697C17.44 0.162283 16.7909 0.256948 16.1471 0.386774C15.5007 0.513896 14.8651 0.673473 14.2376 0.862804C13.6074 1.05484 12.9907 1.27662 12.3822 1.52816C11.7763 1.7797 11.184 2.05829 10.6025 2.36933C10.0237 2.67767 9.46109 3.01575 8.91473 3.38089C8.36838 3.74603 7.84096 4.13551 7.33518 4.55203C6.8267 4.97126 6.33985 5.41213 5.87464 5.87464C5.41213 6.33985 4.97126 6.8267 4.55203 7.33518C4.13551 7.84096 3.74603 8.36838 3.38089 8.91473C3.01575 9.46109 2.67767 10.0237 2.36933 10.6025C2.05829 11.184 1.7797 11.7763 1.52816 12.3822C1.27662 12.9907 1.05484 13.6074 0.862804 14.2376C0.673473 14.8651 0.513896 15.5007 0.386774 16.1471C0.256948 16.7909 0.162283 17.44 0.0973697 18.0945C0.0324566 18.7464 0 19.4036 0 20.0609C0 20.7181 0.0324566 21.3726 0.0973697 22.0272C0.162283 22.679 0.256948 23.3281 0.386774 23.9746C0.513896 24.6183 0.673473 25.2539 0.862804 25.8841C1.05484 26.5116 1.27662 27.1283 1.52816 27.7368C1.7797 28.3427 2.05829 28.9377 2.36933 29.5165C2.67767 30.0953 3.01575 30.6579 3.38089 31.2043C3.74603 31.7506 4.13551 32.278 4.55203 32.7865C4.97126 33.2923 5.41213 33.7792 5.87464 34.2444C6.33985 34.7096 6.8267 35.1504 7.33518 35.567C7.84096 35.9835 8.36838 36.373 8.91473 36.7381C9.46109 37.1033 10.0237 37.4413 10.6025 37.7497C11.184 38.0607 11.7763 38.342 12.3822 38.5935C12.9907 38.8451 13.6074 39.0642 14.2376 39.2562C14.8651 39.4455 15.5007 39.6051 16.1471 39.7349C16.7909 39.8621 17.44 39.9594 18.0945 40.0243C18.7464 40.0865 19.4036 40.119 20.0609 40.119C20.7181 40.119 21.3726 40.0865 22.0272 40.0243C22.679 39.9594 23.3281 39.8621 23.9746 39.7349C24.6183 39.6051 25.2539 39.4455 25.8841 39.2562C26.5116 39.0642 27.1283 38.8451 27.7368 38.5935C28.3427 38.342 28.9377 38.0607 29.5165 37.7497C30.0953 37.4413 30.6579 37.1033 31.2043 36.7381C31.7506 36.373 32.278 35.9835 32.7865 35.567C33.2923 35.1504 33.7792 34.7096 34.2444 34.2444C34.7096 33.7792 35.1504 33.2923 35.567 32.7865C35.9835 32.278 36.373 31.7506 36.7381 31.2043C37.1033 30.6579 37.4413 30.0953 37.7497 29.5165C38.0607 28.9377 38.342 28.3427 38.5935 27.7368C38.8451 27.1283 39.0642 26.5116 39.2562 25.8841C39.4455 25.2539 39.6051 24.6183 39.7349 23.9746C39.8621 23.3281 39.9594 22.679 40.0243 22.0272C40.0865 21.3726 40.119 20.7181 40.119 20.0609C40.119 19.4036 40.0865 18.7464 40.0216 18.0945C39.9594 17.44 39.8621 16.7909 39.7349 16.1471C39.6051 15.5034 39.4455 14.8651 39.2562 14.2376C39.0642 13.6074 38.8424 12.9907 38.5908 12.3849C38.3393 11.7763 38.0607 11.184 37.7497 10.6052C37.4413 10.0237 37.1033 9.46109 36.7381 8.91473C36.373 8.36838 35.9835 7.84367 35.5643 7.33518C35.1477 6.8267 34.7069 6.33985 34.2444 5.87734C33.7792 5.41213 33.2923 4.97126 32.7838 4.55474C32.278 4.13821 31.7506 3.74603 31.2043 3.38089C30.6579 3.01575 30.0953 2.68037 29.5165 2.36933C28.935 2.06099 28.3427 1.7797 27.7368 1.52816C27.1283 1.27662 26.5116 1.05484 25.8814 0.865508C25.2539 0.673473 24.6183 0.513896 23.9719 0.386774C23.3281 0.256948 22.679 0.162283 22.0272 0.0973697C21.3726 0.0324566 20.7181 0 20.0609 0ZM20.0609 7.52181C20.2962 7.52181 20.5342 7.53533 20.7695 7.56238C21.0048 7.58942 21.2401 7.6327 21.47 7.68679C21.7026 7.74089 21.9298 7.80851 22.1516 7.88694C22.3761 7.96808 22.5952 8.06275 22.8061 8.16823C23.0198 8.27372 23.2254 8.39272 23.4255 8.52255C23.623 8.65238 23.815 8.79302 23.9962 8.94449C24.1801 9.09595 24.3532 9.25823 24.5155 9.43133C24.6805 9.60173 24.8347 9.78295 24.978 9.97228C25.1187 10.1616 25.2512 10.3591 25.3702 10.5646C25.4919 10.7702 25.6001 10.9811 25.6948 11.1975C25.7894 11.4166 25.8733 11.6384 25.9436 11.8656C26.0139 12.0928 26.0707 12.3227 26.114 12.5553C26.1573 12.7906 26.187 13.0259 26.2006 13.2612C26.2168 13.4992 26.2195 13.7345 26.2087 13.9725C26.1978 14.2106 26.1708 14.4459 26.1329 14.6812C26.0951 14.9138 26.041 15.1464 25.9761 15.3736C25.9111 15.6035 25.8327 15.8253 25.7408 16.0471C25.6488 16.2661 25.546 16.4771 25.4297 16.6854C25.3134 16.8936 25.1863 17.0911 25.0456 17.2858C24.905 17.4779 24.7562 17.6618 24.5967 17.8349C24.4344 18.0107 24.264 18.1757 24.0855 18.3298C23.9043 18.4867 23.7176 18.6301 23.5202 18.7653C23.3254 18.8978 23.1199 19.0195 22.9089 19.1304C22.7007 19.2386 22.4843 19.336 22.2625 19.4225C22.0407 19.5064 21.8135 19.5794 21.5836 19.6362C21.3537 19.6957 21.1211 19.7417 20.8858 19.7715C20.6505 19.8039 20.4125 19.8228 20.1745 19.8255C19.9391 19.831 19.7011 19.8228 19.4658 19.7985C19.2278 19.7769 18.9952 19.739 18.7626 19.6876C18.53 19.6389 18.3001 19.574 18.0756 19.4983C17.8511 19.4225 17.632 19.3333 17.4184 19.2305C17.202 19.1277 16.9964 19.0141 16.7936 18.887C11.6276 15.6143 13.8671 7.58401 20.0609 7.52181ZM27.2743 32.5972H12.8447C12.5472 32.5972 12.2496 32.5674 11.9575 32.5079C11.6654 32.4484 11.3814 32.3619 11.1056 32.2483C10.8297 32.1347 10.5673 31.994 10.3185 31.8264C10.0724 31.6614 9.84245 31.472 9.63148 31.2611C9.42052 31.0501 9.23118 30.8202 9.0662 30.5714C8.90121 30.3225 8.76057 30.0629 8.64697 29.787C8.53066 29.5111 8.44682 29.2271 8.38731 28.9323C8.32781 28.6402 8.30076 28.3454 8.30076 28.0452C8.30076 24.191 11.1407 20.8614 15.214 19.363C15.5494 19.647 15.9091 19.9013 16.2878 20.1231C16.6691 20.3421 17.0667 20.5288 17.4806 20.6802C17.8917 20.8317 18.3163 20.948 18.7491 21.0237C19.1818 21.0995 19.62 21.14 20.0609 21.14C20.499 21.14 20.9372 21.0995 21.3699 21.0237C21.8027 20.948 22.2273 20.8317 22.6412 20.6802C23.0523 20.5288 23.4499 20.3421 23.8312 20.1231C24.2126 19.9013 24.5696 19.647 24.905 19.363C28.981 20.8614 31.8209 24.191 31.8209 28.0452C31.8209 28.3454 31.7912 28.6402 31.7317 28.9323C31.6749 29.2271 31.5883 29.5111 31.4747 29.787C31.3584 30.0629 31.2205 30.3225 31.0528 30.5714C30.8878 30.8202 30.6985 31.0501 30.4875 31.2611C30.2766 31.472 30.0494 31.6614 29.8005 31.8264C29.5517 31.994 29.2893 32.1347 29.0135 32.2483C28.7376 32.3619 28.4536 32.4484 28.1615 32.5079C27.8694 32.5674 27.5745 32.5972 27.2743 32.5972Z" fill="#1E5192"/>
</svg>
