<svg xmlns="http://www.w3.org/2000/svg" xmlns:xlink="http://www.w3.org/1999/xlink" width="79" zoomAndPan="magnify" viewBox="0 0 59.25 59.25" height="79" preserveAspectRatio="xMidYMid meet" version="1.0"><defs><clipPath id="fa877b93cf"><path d="M 0 0 L 57.769531 0 L 57.769531 57.769531 L 0 57.769531 Z M 0 0 " clip-rule="nonzero"/></clipPath></defs><g clip-path="url(#fa877b93cf)"><path fill="#ffffff" d="M 28.972656 0 C 28.023438 0 27.074219 0.046875 26.132812 0.140625 C 25.1875 0.234375 24.25 0.371094 23.320312 0.558594 C 22.386719 0.742188 21.46875 0.972656 20.5625 1.246094 C 19.652344 1.523438 18.761719 1.84375 17.882812 2.207031 C 17.007812 2.570312 16.152344 2.972656 15.3125 3.421875 C 14.476562 3.867188 13.664062 4.355469 12.875 4.882812 C 12.085938 5.410156 11.324219 5.972656 10.59375 6.574219 C 9.859375 7.179688 9.15625 7.816406 8.484375 8.484375 C 7.816406 9.15625 7.179688 9.859375 6.574219 10.59375 C 5.972656 11.324219 5.410156 12.085938 4.882812 12.875 C 4.355469 13.664062 3.867188 14.476562 3.421875 15.3125 C 2.972656 16.152344 2.570312 17.007812 2.207031 17.882812 C 1.84375 18.761719 1.523438 19.652344 1.246094 20.5625 C 0.972656 21.46875 0.742188 22.386719 0.558594 23.320312 C 0.371094 24.25 0.234375 25.1875 0.140625 26.132812 C 0.046875 27.074219 0 28.023438 0 28.972656 C 0 29.921875 0.046875 30.867188 0.140625 31.8125 C 0.234375 32.753906 0.371094 33.691406 0.558594 34.625 C 0.742188 35.554688 0.972656 36.472656 1.246094 37.382812 C 1.523438 38.289062 1.84375 39.179688 2.207031 40.058594 C 2.570312 40.933594 2.972656 41.792969 3.421875 42.628906 C 3.867188 43.464844 4.355469 44.277344 4.882812 45.066406 C 5.410156 45.855469 5.972656 46.617188 6.574219 47.351562 C 7.179688 48.082031 7.816406 48.785156 8.484375 49.457031 C 9.15625 50.128906 9.859375 50.765625 10.59375 51.367188 C 11.324219 51.96875 12.085938 52.53125 12.875 53.058594 C 13.664062 53.585938 14.476562 54.074219 15.3125 54.519531 C 16.152344 54.96875 17.007812 55.375 17.882812 55.738281 C 18.761719 56.101562 19.652344 56.417969 20.5625 56.695312 C 21.46875 56.96875 22.386719 57.199219 23.320312 57.386719 C 24.25 57.570312 25.1875 57.710938 26.132812 57.804688 C 27.074219 57.894531 28.023438 57.941406 28.972656 57.941406 C 29.921875 57.941406 30.867188 57.894531 31.8125 57.804688 C 32.753906 57.710938 33.691406 57.570312 34.625 57.386719 C 35.554688 57.199219 36.472656 56.96875 37.382812 56.695312 C 38.289062 56.417969 39.179688 56.101562 40.058594 55.738281 C 40.933594 55.375 41.792969 54.96875 42.628906 54.519531 C 43.464844 54.074219 44.277344 53.585938 45.066406 53.058594 C 45.855469 52.53125 46.617188 51.96875 47.351562 51.367188 C 48.082031 50.765625 48.785156 50.128906 49.457031 49.457031 C 50.128906 48.785156 50.765625 48.082031 51.367188 47.351562 C 51.96875 46.617188 52.53125 45.855469 53.058594 45.066406 C 53.585938 44.277344 54.074219 43.464844 54.519531 42.628906 C 54.96875 41.792969 55.375 40.933594 55.738281 40.058594 C 56.101562 39.179688 56.417969 38.289062 56.695312 37.382812 C 56.96875 36.472656 57.199219 35.554688 57.386719 34.625 C 57.570312 33.691406 57.710938 32.753906 57.804688 31.8125 C 57.894531 30.867188 57.941406 29.921875 57.941406 28.972656 C 57.941406 28.023438 57.894531 27.074219 57.800781 26.132812 C 57.710938 25.1875 57.570312 24.25 57.386719 23.320312 C 57.199219 22.390625 56.96875 21.46875 56.695312 20.5625 C 56.417969 19.652344 56.097656 18.761719 55.734375 17.886719 C 55.371094 17.007812 54.96875 16.152344 54.519531 15.316406 C 54.074219 14.476562 53.585938 13.664062 53.058594 12.875 C 52.53125 12.085938 51.96875 11.328125 51.363281 10.59375 C 50.761719 9.859375 50.125 9.15625 49.457031 8.488281 C 48.785156 7.816406 48.082031 7.179688 47.347656 6.578125 C 46.617188 5.976562 45.855469 5.410156 45.066406 4.882812 C 44.277344 4.355469 43.464844 3.871094 42.628906 3.421875 C 41.789062 2.976562 40.933594 2.570312 40.058594 2.207031 C 39.179688 1.84375 38.289062 1.523438 37.378906 1.25 C 36.472656 0.972656 35.554688 0.742188 34.621094 0.558594 C 33.691406 0.371094 32.753906 0.234375 31.8125 0.140625 C 30.867188 0.046875 29.921875 0 28.972656 0 Z M 28.972656 10.863281 C 29.3125 10.863281 29.65625 10.882812 29.996094 10.921875 C 30.335938 10.960938 30.675781 11.023438 31.007812 11.101562 C 31.34375 11.179688 31.671875 11.277344 31.992188 11.390625 C 32.316406 11.507812 32.632812 11.644531 32.9375 11.796875 C 33.246094 11.949219 33.542969 12.121094 33.832031 12.308594 C 34.117188 12.496094 34.394531 12.699219 34.65625 12.917969 C 34.921875 13.136719 35.171875 13.371094 35.40625 13.621094 C 35.644531 13.867188 35.867188 14.128906 36.074219 14.402344 C 36.277344 14.675781 36.46875 14.960938 36.640625 15.257812 C 36.816406 15.554688 36.972656 15.859375 37.109375 16.171875 C 37.246094 16.488281 37.367188 16.808594 37.46875 17.136719 C 37.570312 17.464844 37.652344 17.796875 37.714844 18.132812 C 37.777344 18.472656 37.820312 18.8125 37.839844 19.152344 C 37.863281 19.496094 37.867188 19.835938 37.851562 20.179688 C 37.835938 20.523438 37.796875 20.863281 37.742188 21.203125 C 37.6875 21.539062 37.609375 21.875 37.515625 22.203125 C 37.421875 22.535156 37.308594 22.855469 37.175781 23.175781 C 37.042969 23.492188 36.894531 23.796875 36.726562 24.097656 C 36.558594 24.398438 36.375 24.683594 36.171875 24.964844 C 35.96875 25.242188 35.753906 25.507812 35.523438 25.757812 C 35.289062 26.011719 35.042969 26.25 34.785156 26.472656 C 34.523438 26.699219 34.253906 26.90625 33.96875 27.101562 C 33.6875 27.292969 33.390625 27.46875 33.085938 27.628906 C 32.785156 27.785156 32.472656 27.925781 32.152344 28.050781 C 31.832031 28.171875 31.503906 28.277344 31.171875 28.359375 C 30.839844 28.445312 30.503906 28.511719 30.164062 28.554688 C 29.824219 28.601562 29.480469 28.628906 29.136719 28.632812 C 28.796875 28.640625 28.453125 28.628906 28.113281 28.59375 C 27.769531 28.5625 27.433594 28.507812 27.097656 28.433594 C 26.761719 28.363281 26.429688 28.269531 26.105469 28.160156 C 25.78125 28.050781 25.464844 27.921875 25.15625 27.773438 C 24.84375 27.625 24.546875 27.460938 24.253906 27.277344 C 16.792969 22.550781 20.027344 10.953125 28.972656 10.863281 Z M 39.390625 47.078125 L 18.550781 47.078125 C 18.121094 47.078125 17.691406 47.035156 17.269531 46.949219 C 16.847656 46.863281 16.4375 46.738281 16.039062 46.574219 C 15.640625 46.410156 15.261719 46.207031 14.902344 45.964844 C 14.546875 45.726562 14.214844 45.453125 13.910156 45.148438 C 13.605469 44.84375 13.332031 44.511719 13.09375 44.152344 C 12.855469 43.792969 12.652344 43.417969 12.488281 43.019531 C 12.320312 42.621094 12.199219 42.210938 12.113281 41.785156 C 12.027344 41.363281 11.988281 40.9375 11.988281 40.503906 C 11.988281 34.9375 16.089844 30.128906 21.972656 27.964844 C 22.457031 28.375 22.976562 28.742188 23.523438 29.0625 C 24.074219 29.378906 24.648438 29.648438 25.246094 29.867188 C 25.839844 30.085938 26.453125 30.253906 27.078125 30.363281 C 27.703125 30.472656 28.335938 30.53125 28.972656 30.53125 C 29.605469 30.53125 30.238281 30.472656 30.863281 30.363281 C 31.488281 30.253906 32.101562 30.085938 32.699219 29.867188 C 33.292969 29.648438 33.867188 29.378906 34.417969 29.0625 C 34.96875 28.742188 35.484375 28.375 35.96875 27.964844 C 41.855469 30.128906 45.957031 34.9375 45.957031 40.503906 C 45.957031 40.9375 45.914062 41.363281 45.828125 41.785156 C 45.746094 42.210938 45.621094 42.621094 45.457031 43.019531 C 45.289062 43.417969 45.089844 43.792969 44.847656 44.152344 C 44.609375 44.511719 44.335938 44.84375 44.03125 45.148438 C 43.726562 45.453125 43.398438 45.726562 43.039062 45.964844 C 42.679688 46.207031 42.300781 46.410156 41.902344 46.574219 C 41.503906 46.738281 41.09375 46.863281 40.671875 46.949219 C 40.25 47.035156 39.824219 47.078125 39.390625 47.078125 Z M 39.390625 47.078125 " fill-opacity="1" fill-rule="nonzero"/></g></svg>