<svg width="193" height="100" viewBox="0 0 193 100" fill="none" xmlns="http://www.w3.org/2000/svg">
<g clip-path="url(#clip0_1171_3360)">
<mask id="mask0_1171_3360" style="mask-type:luminance" maskUnits="userSpaceOnUse" x="35" y="48" width="122" height="52">
<path d="M35.2656 48.4956H156.72V99.5024H35.2656V48.4956Z" fill="white"/>
</mask>
<g mask="url(#mask0_1171_3360)">
<path d="M156.635 83.856C156.678 84.6034 156.37 85.3295 155.804 85.8193C155.158 86.3827 139.448 99.5856 95.9938 99.5856C52.5381 99.5856 36.8299 86.3827 36.1812 85.8193C35.6159 85.3295 35.31 84.6034 35.3526 83.856L37.3217 48.54L42.0847 50.1568L40.2627 82.826C41.8446 83.916 45.5698 86.1833 51.9418 88.4312C60.0931 91.3084 74.3531 94.7374 95.9938 94.7374C117.633 94.7374 131.895 91.3084 140.046 88.4312C146.41 86.1853 150.135 83.9199 151.723 82.826L149.901 50.1568L154.666 48.54L156.635 83.856Z" fill="#1E5192"/>
</g>
<mask id="mask1_1171_3360" style="mask-type:luminance" maskUnits="userSpaceOnUse" x="0" y="0" width="192" height="69">
<path d="M0 0.00244141H191.945V68.402H0V0.00244141Z" fill="white"/>
</mask>
<g mask="url(#mask1_1171_3360)">
<path d="M154.385 43.5158L149.62 45.1325L95.994 63.3288L42.3656 45.1325L37.6007 43.5158L10.0739 34.1757L95.994 5.02257L181.914 34.1757L154.385 43.5158ZM190.234 31.8813L96.7724 0.1705C96.267 -0.00182031 95.721 -0.00182031 95.2157 0.1705L1.75222 31.8813C0.768637 32.2143 0.108398 33.1379 0.108398 34.1757C0.108398 35.2154 0.768637 36.137 1.75222 36.472L37.3218 48.5402L42.0849 50.1569L95.2157 68.1828C95.4674 68.2699 95.7307 68.3106 95.994 68.3106C96.2573 68.3106 96.5207 68.2699 96.7724 68.1828L149.901 50.1569L154.666 48.5402L190.234 36.472C191.217 36.137 191.88 35.2154 191.88 34.1757C191.88 33.1379 191.217 32.2143 190.234 31.8813Z" fill="#1E5192"/>
</g>
<path d="M170.63 63.5592C163.731 43.2041 153.772 31.9433 140.178 29.1358C123.267 25.641 98.8052 30.7312 97.7732 30.9481C97.0859 31.0952 96.507 31.4921 96.1817 32.0401C95.9029 32.5125 95.8351 33.0546 95.99 33.5658C96.3153 34.6307 97.5409 35.2599 98.7859 35.0005C99.0279 34.9502 123.099 29.918 138.967 33.196C150.83 35.6472 159.702 46.0038 166.091 64.8564C166.388 65.7277 167.271 66.2931 168.293 66.2931C168.378 66.2931 168.465 66.2892 168.552 66.2815C168.676 66.2699 168.798 66.2505 168.914 66.2234C169.6 66.0646 170.171 65.6561 170.481 65.1004C170.75 64.6202 170.802 64.0723 170.63 63.5592Z" fill="#1E5192"/>
<path d="M170.562 70.2081L174.017 88.6154C175.316 88.4353 177.146 88.0616 179.144 87.2813L170.562 70.2081ZM172.065 93.6262C172.036 93.6262 172.017 93.6262 172.007 93.6262C170.853 93.6107 169.869 92.784 169.656 91.6494L165.645 70.2855C165.474 69.7976 165.112 68.6533 164.975 67.3483C164.582 63.5786 166.415 61.987 167.542 61.3752C167.875 61.1932 168.249 61.0944 168.628 61.0828C169.91 61.048 172.297 61.501 173.848 64.9571C174.334 66.0433 174.596 67.1063 174.714 67.6736L184.602 87.3472C185.194 88.5263 184.735 89.9629 183.568 90.5786C177.974 93.5333 172.696 93.6262 172.065 93.6262Z" fill="#1E5192"/>
</g>
<defs>
<clipPath id="clip0_1171_3360">
<rect width="192.565" height="100" fill="white"/>
</clipPath>
</defs>
</svg>
