<svg width="156" height="163" viewBox="0 0 156 163" fill="none" xmlns="http://www.w3.org/2000/svg">
<g filter="url(#filter0_d_1189_3832)">
<path d="M109.99 55.5809H97.1635V55.4209C97.1635 50.1973 92.8896 45.9209 87.6634 45.9209H72.1449C66.9213 45.9209 62.6449 50.1973 62.6449 55.4209V55.5809H49.9782C46.6515 55.5809 43.8022 58.2727 43.8022 61.7568V104.351C43.8022 107.677 46.4941 110.527 49.9782 110.527H109.99C113.317 110.527 116.166 107.835 116.166 104.351V61.7568C116.166 58.4302 113.317 55.5809 109.99 55.5809ZM67.2362 55.5809C67.2362 52.8891 69.4531 50.6722 72.1449 50.6722H87.6634C90.3552 50.6722 92.5722 52.8891 92.5722 55.5809V55.7384L67.2362 55.5809ZM87.0311 89.3072V82.3415L101.282 82.499L111.732 75.5308V104.351C111.732 105.301 110.94 105.935 110.15 105.935H49.9782C49.0259 105.935 48.3936 105.143 48.3936 104.351V75.3733L57.2613 82.0241L72.1449 82.1815V89.3072H87.0311ZM58.6859 77.5902L48.2361 69.8322V61.7568C48.2361 60.8046 49.0259 60.1722 49.8182 60.1722H109.833C110.782 60.1722 111.415 60.9645 111.415 61.7568V69.9897L99.5404 77.9076L58.6859 77.5902ZM82.4373 82.499V84.8733H76.5788V82.499H82.4373Z" fill="#1E5192"/>
<mask id="mask0_1189_3832" style="mask-type:luminance" maskUnits="userSpaceOnUse" x="4" y="0" width="148" height="155">
<path d="M4.63965 0H151.802V154.043H4.63965V0Z" fill="white"/>
</mask>
<g mask="url(#mask0_1189_3832)">
<path d="M148.152 77.4323C146.41 77.4323 144.986 78.8569 144.986 80.599C144.986 117.494 115.058 147.422 78.163 147.422C41.2675 147.422 11.1828 117.652 11.1828 80.7564C11.1828 45.4456 38.5757 16.468 73.2543 14.0937L70.4025 16.3106C68.9779 17.4178 68.663 19.4773 69.7702 20.9019C70.4025 21.6942 71.3548 22.1691 72.3045 22.1691C72.9369 22.1691 73.7291 22.0091 74.204 21.5342L84.9713 13.3014C85.7635 12.6665 86.2384 11.7168 86.2384 10.6096C86.2384 9.49984 85.6061 8.55008 84.8138 8.07521L74.0466 0.949545C72.6194 -0.000210106 70.5625 0.317208 69.6127 1.8993C68.663 3.32393 68.9779 5.3834 70.5625 6.33316L72.7794 7.75779C34.7742 10.4496 4.68945 42.2789 4.68945 80.9164C4.68945 121.293 37.626 154.23 78.003 154.23C118.383 154.23 151.319 121.293 151.319 80.9164C151.319 78.8569 149.895 77.4323 148.152 77.4323Z" fill="#1E5192"/>
</g>
<path d="M149.578 63.6562C149.578 63.9162 149.553 64.1736 149.503 64.4285C149.45 64.6835 149.375 64.9309 149.275 65.1709C149.178 65.4108 149.055 65.6382 148.91 65.8557C148.765 66.0706 148.603 66.2706 148.418 66.4555C148.235 66.638 148.036 66.8029 147.818 66.9479C147.603 67.0929 147.373 67.2128 147.133 67.3128C146.893 67.4128 146.646 67.4878 146.391 67.5377C146.136 67.5902 145.879 67.6152 145.619 67.6152C145.359 67.6152 145.101 67.5902 144.846 67.5377C144.591 67.4878 144.344 67.4128 144.104 67.3128C143.864 67.2128 143.637 67.0929 143.419 66.9479C143.204 66.8029 143.004 66.638 142.819 66.4555C142.637 66.2706 142.472 66.0706 142.327 65.8557C142.182 65.6382 142.062 65.4108 141.962 65.1709C141.862 64.9309 141.787 64.6835 141.737 64.4285C141.685 64.1736 141.66 63.9162 141.66 63.6562C141.66 63.3963 141.685 63.1389 141.737 62.8839C141.787 62.629 141.862 62.3816 141.962 62.1416C142.062 61.9017 142.182 61.6718 142.327 61.4568C142.472 61.2394 142.637 61.0394 142.819 60.857C143.004 60.672 143.204 60.5096 143.419 60.3646C143.637 60.2196 143.864 60.0972 144.104 59.9972C144.344 59.8997 144.591 59.8247 144.846 59.7722C145.101 59.7223 145.359 59.6973 145.619 59.6973C145.879 59.6973 146.136 59.7223 146.391 59.7722C146.646 59.8247 146.893 59.8997 147.133 59.9972C147.373 60.0972 147.603 60.2196 147.818 60.3646C148.036 60.5096 148.235 60.672 148.418 60.857C148.603 61.0394 148.765 61.2394 148.91 61.4568C149.055 61.6718 149.178 61.9017 149.275 62.1416C149.375 62.3816 149.45 62.629 149.503 62.8839C149.553 63.1389 149.578 63.3963 149.578 63.6562Z" fill="#1E5192"/>
<path d="M144.351 48.9297C144.351 49.1896 144.326 49.447 144.277 49.702C144.227 49.9569 144.152 50.2044 144.052 50.4443C143.952 50.6842 143.829 50.9117 143.684 51.1291C143.542 51.3441 143.377 51.544 143.192 51.729C143.009 51.9114 142.809 52.0764 142.592 52.2213C142.377 52.3638 142.15 52.4863 141.91 52.5862C141.667 52.6862 141.42 52.7612 141.165 52.8112C140.91 52.8612 140.652 52.8887 140.393 52.8887C140.133 52.8887 139.875 52.8612 139.62 52.8112C139.365 52.7612 139.118 52.6862 138.878 52.5862C138.638 52.4863 138.411 52.3638 138.193 52.2213C137.978 52.0764 137.778 51.9114 137.593 51.729C137.411 51.544 137.246 51.3441 137.101 51.1291C136.958 50.9117 136.836 50.6842 136.736 50.4443C136.636 50.2044 136.561 49.9569 136.511 49.702C136.461 49.447 136.436 49.1896 136.436 48.9297C136.436 48.6697 136.461 48.4123 136.511 48.1574C136.561 47.9024 136.636 47.655 136.736 47.4151C136.836 47.1751 136.958 46.9452 137.101 46.7302C137.246 46.5128 137.411 46.3129 137.593 46.1304C137.778 45.9455 137.978 45.783 138.193 45.638C138.411 45.4931 138.638 45.3706 138.878 45.2706C139.118 45.1732 139.365 45.0982 139.62 45.0457C139.875 44.9957 140.133 44.9707 140.393 44.9707C140.652 44.9707 140.91 44.9957 141.165 45.0457C141.42 45.0982 141.667 45.1732 141.91 45.2706C142.15 45.3706 142.377 45.4931 142.592 45.638C142.809 45.783 143.009 45.9455 143.192 46.1304C143.377 46.3129 143.542 46.5128 143.684 46.7302C143.829 46.9452 143.952 47.1751 144.052 47.4151C144.152 47.655 144.227 47.9024 144.277 48.1574C144.326 48.4123 144.351 48.6697 144.351 48.9297Z" fill="#1E5192"/>
<path d="M135.009 35.1533C135.009 35.4132 134.984 35.6707 134.934 35.9256C134.884 36.1805 134.809 36.428 134.709 36.6679C134.609 36.9079 134.486 37.1353 134.341 37.3527C134.199 37.5677 134.034 37.7676 133.849 37.9526C133.667 38.135 133.467 38.3 133.249 38.445C133.034 38.5899 132.807 38.7099 132.567 38.8099C132.324 38.9098 132.077 38.9848 131.822 39.0348C131.567 39.0873 131.31 39.1123 131.05 39.1123C130.79 39.1123 130.532 39.0873 130.277 39.0348C130.023 38.9848 129.775 38.9098 129.535 38.8099C129.295 38.7099 129.068 38.5899 128.85 38.445C128.635 38.3 128.435 38.135 128.25 37.9526C128.068 37.7676 127.903 37.5677 127.758 37.3527C127.616 37.1353 127.493 36.9079 127.393 36.6679C127.293 36.428 127.218 36.1805 127.168 35.9256C127.118 35.6707 127.093 35.4132 127.093 35.1533C127.093 34.8934 127.118 34.6359 127.168 34.381C127.218 34.1261 127.293 33.8786 127.393 33.6387C127.493 33.3988 127.616 33.1688 127.758 32.9539C127.903 32.7364 128.068 32.5365 128.25 32.354C128.435 32.1691 128.635 32.0066 128.85 31.8617C129.068 31.7167 129.295 31.5942 129.535 31.4968C129.775 31.3968 130.023 31.3218 130.277 31.2693C130.532 31.2193 130.79 31.1943 131.05 31.1943C131.31 31.1943 131.567 31.2193 131.822 31.2693C132.077 31.3218 132.324 31.3968 132.567 31.4968C132.807 31.5942 133.034 31.7167 133.249 31.8617C133.467 32.0066 133.667 32.1691 133.849 32.354C134.034 32.5365 134.199 32.7364 134.341 32.9539C134.486 33.1688 134.609 33.3988 134.709 33.6387C134.809 33.8786 134.884 34.1261 134.934 34.381C134.984 34.6359 135.009 34.8934 135.009 35.1533Z" fill="#1E5192"/>
<path d="M121.709 23.4365C121.709 23.6965 121.682 23.9539 121.632 24.2088C121.582 24.4638 121.507 24.7112 121.407 24.9511C121.307 25.1911 121.185 25.4185 121.042 25.6359C120.897 25.8509 120.732 26.0508 120.55 26.2358C120.365 26.4182 120.165 26.5832 119.95 26.7282C119.732 26.8706 119.505 26.9931 119.265 27.0931C119.025 27.193 118.778 27.268 118.523 27.318C118.268 27.368 118.01 27.393 117.75 27.393C117.491 27.393 117.233 27.368 116.978 27.318C116.723 27.268 116.476 27.193 116.233 27.0931C115.993 26.9931 115.766 26.8706 115.551 26.7282C115.334 26.5832 115.134 26.4182 114.951 26.2358C114.766 26.0508 114.601 25.8509 114.459 25.6359C114.314 25.4185 114.191 25.1911 114.091 24.9511C113.994 24.7112 113.916 24.4638 113.866 24.2088C113.816 23.9539 113.792 23.6965 113.792 23.4365C113.792 23.1766 113.816 22.9192 113.866 22.6642C113.916 22.4093 113.994 22.1618 114.091 21.9194C114.191 21.6795 114.314 21.452 114.459 21.2371C114.601 21.0196 114.766 20.8197 114.951 20.6372C115.134 20.4523 115.334 20.2873 115.551 20.1449C115.766 19.9999 115.993 19.8774 116.233 19.7775C116.476 19.6775 116.723 19.6025 116.978 19.5525C117.233 19.5025 117.491 19.4775 117.75 19.4775C118.01 19.4775 118.268 19.5025 118.523 19.5525C118.778 19.6025 119.025 19.6775 119.265 19.7775C119.505 19.8774 119.732 19.9999 119.95 20.1449C120.165 20.2873 120.365 20.4523 120.55 20.6372C120.732 20.8197 120.897 21.0196 121.042 21.2371C121.185 21.452 121.307 21.6795 121.407 21.9194C121.507 22.1618 121.582 22.4093 121.632 22.6642C121.682 22.9192 121.709 23.1766 121.709 23.4365Z" fill="#1E5192"/>
<path d="M106.191 15.0435C106.191 15.3034 106.166 15.5608 106.113 15.8158C106.063 16.0707 105.988 16.3181 105.888 16.5581C105.789 16.798 105.669 17.0254 105.524 17.2429C105.379 17.4578 105.214 17.6578 105.031 17.8427C104.846 18.0252 104.646 18.1901 104.431 18.3351C104.214 18.4776 103.986 18.6 103.747 18.7C103.507 18.8 103.259 18.875 103.004 18.925C102.749 18.9749 102.492 19.0024 102.232 19.0024C101.972 19.0024 101.715 18.9749 101.46 18.925C101.205 18.875 100.957 18.8 100.717 18.7C100.477 18.6 100.247 18.4776 100.032 18.3351C99.8151 18.1901 99.6151 18.0252 99.4326 17.8427C99.2477 17.6578 99.0852 17.4578 98.9403 17.2429C98.7953 17.0254 98.6728 16.798 98.5729 16.5581C98.4754 16.3181 98.4004 16.0707 98.3479 15.8158C98.2979 15.5608 98.2729 15.3034 98.2729 15.0435C98.2729 14.7835 98.2979 14.5261 98.3479 14.2712C98.4004 14.0162 98.4754 13.7688 98.5729 13.5288C98.6728 13.2889 98.7953 13.059 98.9403 12.844C99.0852 12.6266 99.2477 12.4266 99.4326 12.2442C99.6151 12.0592 99.8151 11.8968 100.032 11.7518C100.247 11.6068 100.477 11.4844 100.717 11.3844C100.957 11.2869 101.205 11.2119 101.46 11.1595C101.715 11.1095 101.972 11.0845 102.232 11.0845C102.492 11.0845 102.749 11.1095 103.004 11.1595C103.259 11.2119 103.507 11.2869 103.747 11.3844C103.986 11.4844 104.214 11.6068 104.431 11.7518C104.646 11.8968 104.846 12.0592 105.031 12.2442C105.214 12.4266 105.379 12.6266 105.524 12.844C105.669 13.059 105.789 13.2889 105.888 13.5288C105.988 13.7688 106.063 14.0162 106.113 14.2712C106.166 14.5261 106.191 14.7835 106.191 15.0435Z" fill="#1E5192"/>
</g>
<defs>
<filter id="filter0_d_1189_3832" x="0" y="0" width="156.762" height="163" filterUnits="userSpaceOnUse" color-interpolation-filters="sRGB">
<feFlood flood-opacity="0" result="BackgroundImageFix"/>
<feColorMatrix in="SourceAlpha" type="matrix" values="0 0 0 0 0 0 0 0 0 0 0 0 0 0 0 0 0 0 127 0" result="hardAlpha"/>
<feOffset dy="4"/>
<feGaussianBlur stdDeviation="2"/>
<feComposite in2="hardAlpha" operator="out"/>
<feColorMatrix type="matrix" values="0 0 0 0 0 0 0 0 0 0 0 0 0 0 0 0 0 0 0.25 0"/>
<feBlend mode="normal" in2="BackgroundImageFix" result="effect1_dropShadow_1189_3832"/>
<feBlend mode="normal" in="SourceGraphic" in2="effect1_dropShadow_1189_3832" result="shape"/>
</filter>
</defs>
</svg>
