<svg width="133" height="140" viewBox="0 0 133 140" fill="none" xmlns="http://www.w3.org/2000/svg">
<g clip-path="url(#clip0_1401_2352)">
<mask id="mask0_1401_2352" style="mask-type:luminance" maskUnits="userSpaceOnUse" x="66" y="0" width="6" height="18">
<path d="M66.543 0.0576172H71.2961V17.2842H66.543V0.0576172Z" fill="white"/>
</mask>
<g mask="url(#mask0_1401_2352)">
<path d="M66.6406 2.26687V14.8163C66.6406 16.0231 67.6196 17.0021 68.8264 17.0021C70.0333 17.0021 71.0106 16.0231 71.0106 14.8163V2.26687C71.0106 1.06003 70.0333 0.0810547 68.8264 0.0810547C67.6196 0.0810547 66.6406 1.06003 66.6406 2.26687Z" fill="#1E5192"/>
</g>
<mask id="mask1_1401_2352" style="mask-type:luminance" maskUnits="userSpaceOnUse" x="114" y="60" width="19" height="6">
<path d="M114.938 60.9258H132.114V65.6789H114.938V60.9258Z" fill="white"/>
</mask>
<g mask="url(#mask1_1401_2352)">
<path d="M130.006 61.2598H117.456C116.249 61.2598 115.271 62.2387 115.271 63.4439C115.271 64.6507 116.249 65.6297 117.456 65.6297H130.006C131.213 65.6297 132.19 64.6507 132.19 63.4439C132.19 62.2387 131.213 61.2598 130.006 61.2598Z" fill="#1E5192"/>
</g>
<path d="M7.64773 65.6302H20.1988C21.404 65.6302 22.383 64.6512 22.383 63.4444C22.383 62.2392 21.404 61.2603 20.1988 61.2603H7.64773C6.44089 61.2603 5.46191 62.2392 5.46191 63.4444C5.46191 64.6512 6.44089 65.6302 7.64773 65.6302Z" fill="#1E5192"/>
<path d="M24.0219 18.6391C23.1678 19.4915 23.1678 20.8755 24.0219 21.7279L32.8951 30.6028C33.3222 31.0299 33.8808 31.2425 34.4395 31.2425C34.9999 31.2425 35.5586 31.0299 35.9856 30.6028C36.838 29.7488 36.838 28.3664 35.9856 27.5123L27.1107 18.6391C26.2583 17.785 24.876 17.785 24.0219 18.6391Z" fill="#1E5192"/>
<path d="M110.539 18.6378L101.668 27.5127C100.814 28.3651 100.814 29.7492 101.668 30.6016C102.095 31.0286 102.654 31.2413 103.212 31.2413C103.771 31.2413 104.331 31.0286 104.757 30.6016L113.63 21.7283C114.484 20.8743 114.484 19.4919 113.63 18.6378C112.776 17.7854 111.392 17.7854 110.539 18.6378Z" fill="#1E5192"/>
<mask id="mask2_1401_2352" style="mask-type:luminance" maskUnits="userSpaceOnUse" x="0" y="30" width="116" height="110">
<path d="M0 30.2471H115.802V139.943H0V30.2471Z" fill="white"/>
</mask>
<g mask="url(#mask2_1401_2352)">
<path d="M8.71118 139.838L32.161 136.646C35.3764 136.209 38.1935 134.071 39.7024 131.275C39.8493 131.282 43.9525 131.063 44.4015 131.23C45.2893 131.559 46.1704 132.15 47.1021 132.776C48.3545 133.617 49.7741 134.569 51.5008 135.053C51.6915 135.107 51.889 135.134 52.0882 135.134L96.8492 135.151C102.124 135.151 106.416 130.879 106.416 125.629C106.416 123.511 105.724 121.553 104.549 119.97C108.291 118.677 110.984 115.133 110.984 110.972C110.984 108.742 110.216 106.695 108.926 105.071C109.068 104.968 109.193 104.845 109.304 104.712C112.332 103.111 114.41 99.9567 114.41 96.3126C114.41 93.9664 113.266 91.9612 111.559 90.4303C112.231 90.0522 112.872 89.5712 113.453 88.9635C115.148 87.1862 115.932 84.7185 115.786 81.6297C115.551 76.6774 111.708 73.3489 106.224 73.3489L79.3543 73.3219C81.2126 67.3063 83.8592 55.6717 83.5672 52.9069C82.7148 44.724 80.8582 34.9242 74.0104 31.7476C72.3073 30.9576 70.6279 30.5897 68.9721 30.6825C66.9179 30.7889 64.8756 31.6446 63.0662 33.1587C59.076 36.4922 59.314 41.3719 59.5047 45.2929C59.5469 46.152 59.5925 52.4748 59.5925 52.4748C59.5402 55.2565 44.6682 79.5873 44.2395 80.3823C43.4546 80.9798 40.9616 82.5884 38.5395 84.0974C36.9512 82.1428 34.6945 80.7098 32.1914 80.3131L8.6808 76.5795C8.21832 76.5052 7.76259 76.4715 7.31867 76.4715C3.18504 76.4715 0 79.5519 0 83.8459V132.376C0 136.734 3.29138 139.919 7.52966 139.919C7.91618 139.919 8.31115 139.892 8.71118 139.838ZM40.6932 87.9052C47.5224 83.6805 47.7182 83.2484 48.0068 82.6103C48.2128 82.163 49.5918 79.9063 50.9252 77.7256C59.3798 63.8967 63.9624 55.7763 63.9624 52.4765C63.9624 52.4765 63.9152 46.0102 63.8696 45.0802C63.6687 40.955 63.7025 38.3202 65.868 36.5108C66.9618 35.5976 68.0826 35.1048 69.1966 35.0474C70.1317 34.9968 71.1208 35.2246 72.174 35.7124C77.6478 38.251 78.7905 49.2273 79.2209 53.3626C79.496 55.9687 75.4232 72.2467 74.4138 74.3245C73.9986 74.9726 73.9547 75.7946 74.3024 76.4867C74.6738 77.2226 75.4282 77.6868 76.2519 77.6885L106.222 77.7188C107.726 77.7188 111.245 78.1206 111.421 81.8373C111.508 83.6855 111.129 85.0679 110.29 85.9473C109.581 86.69 108.575 87.0528 107.643 87.2267C107.64 87.2267 107.638 87.225 107.636 87.225H92.2565C91.0513 87.225 90.0723 88.204 90.0723 89.4091C90.0723 90.616 91.0513 91.595 92.2565 91.595H104.023C104.062 91.6034 104.099 91.6186 104.137 91.6253C106.929 92.0591 110.04 94.0913 110.04 96.3126C110.04 98.5271 108.617 100.404 106.637 101.132H92.2565C91.0513 101.132 90.0723 102.11 90.0723 103.317C90.0723 104.522 91.0513 105.501 92.2565 105.501H100.598C100.907 105.692 101.261 105.817 101.65 105.834C104.433 105.955 106.614 108.212 106.614 110.972C106.614 113.814 104.284 116.125 101.418 116.125H100.902C100.652 116.024 100.38 115.965 100.093 115.965H91.3146C90.1078 115.965 89.1288 116.944 89.1288 118.15C89.1288 119.357 90.1078 120.335 91.3146 120.335H96.3901C96.6078 120.421 96.8408 120.481 97.0889 120.492C99.8688 120.615 102.046 122.871 102.046 125.629C102.046 128.469 99.7152 130.781 96.8492 130.781L52.4207 130.764C51.4603 130.438 47.2962 127.643 45.9223 127.132C45.2066 126.867 44.3948 126.738 43.4411 126.738C42.7947 126.738 42.1701 126.794 41.5642 126.848C41.3296 126.868 41.0983 126.889 40.8671 126.906C40.8688 126.875 40.8722 126.845 40.8722 126.816V90.3375C40.8722 89.74 40.8114 89.1475 40.6932 88.5652V87.9052ZM4.36994 132.376V83.8459C4.36994 82.0213 5.52783 80.8414 7.31867 80.8414C7.53979 80.8414 7.76765 80.8583 7.99551 80.8954L31.5061 84.6274C33.7543 84.9852 35.7528 86.9465 36.3233 89.1239V128.011C35.7562 130.136 33.7881 132.015 31.5719 132.317L8.12211 135.507C7.92125 135.536 7.72039 135.549 7.52966 135.549C5.63923 135.549 4.36994 134.275 4.36994 132.376Z" fill="#1E5192"/>
</g>
<path d="M18.9617 97.6307C20.1668 97.6307 21.1458 96.6517 21.1458 95.4449V88.96C21.1458 87.7532 20.1668 86.7759 18.9617 86.7759C17.7549 86.7759 16.7759 87.7532 16.7759 88.96V95.4449C16.7759 96.6517 17.7549 97.6307 18.9617 97.6307Z" fill="#1E5192"/>
<path d="M21.1591 104.092C21.1591 104.234 21.1456 104.374 21.117 104.514C21.0883 104.652 21.0477 104.789 20.992 104.919C20.9363 105.051 20.8688 105.175 20.7878 105.294C20.7085 105.412 20.6173 105.52 20.5144 105.621C20.4131 105.721 20.3017 105.81 20.1819 105.889C20.062 105.969 19.9354 106.035 19.8021 106.089C19.6687 106.144 19.532 106.185 19.3902 106.212C19.2485 106.241 19.105 106.254 18.9615 106.254C18.8164 106.254 18.6729 106.241 18.5328 106.212C18.391 106.185 18.2526 106.144 18.1193 106.089C17.9859 106.035 17.8593 105.969 17.7395 105.889C17.6197 105.81 17.5083 105.721 17.407 105.621C17.304 105.52 17.2129 105.412 17.1335 105.294C17.0525 105.175 16.985 105.051 16.931 104.919C16.8753 104.789 16.8331 104.652 16.8044 104.514C16.7774 104.374 16.7622 104.234 16.7622 104.092C16.7622 103.95 16.7774 103.81 16.8044 103.67C16.8331 103.531 16.8753 103.396 16.931 103.265C16.985 103.133 17.0525 103.008 17.1335 102.89C17.2129 102.772 17.304 102.664 17.407 102.563C17.5083 102.463 17.6197 102.374 17.7395 102.294C17.8593 102.215 17.9859 102.149 18.1193 102.095C18.2526 102.039 18.391 101.999 18.5328 101.972C18.6729 101.943 18.8164 101.93 18.9615 101.93C19.105 101.93 19.2485 101.943 19.3902 101.972C19.532 101.999 19.6687 102.039 19.8021 102.095C19.9354 102.149 20.062 102.215 20.1819 102.294C20.3017 102.374 20.4131 102.463 20.5144 102.563C20.6173 102.664 20.7085 102.772 20.7878 102.89C20.8688 103.008 20.9363 103.133 20.992 103.265C21.0477 103.396 21.0883 103.531 21.117 103.67C21.1456 103.81 21.1591 103.95 21.1591 104.092Z" fill="#1E5192"/>
</g>
<defs>
<clipPath id="clip0_1401_2352">
<rect width="132.546" height="140" fill="white"/>
</clipPath>
</defs>
</svg>
