<svg width="189" height="120" viewBox="0 0 189 120" fill="none" xmlns="http://www.w3.org/2000/svg">
<mask id="mask0_915_2528" style="mask-type:luminance" maskUnits="userSpaceOnUse" x="0" y="0" width="188" height="120">
<path d="M0.280273 0H187.555V119.09H0.280273V0Z" fill="white"/>
</mask>
<g mask="url(#mask0_915_2528)">
<path d="M15.6273 3.40779C9.05407 3.40779 3.70473 8.75713 3.70473 15.3303V103.902C3.70473 110.478 9.05407 115.827 15.6273 115.827H172.334C178.909 115.827 184.258 110.478 184.258 103.902V15.3303C184.258 8.75713 178.909 3.40779 172.334 3.40779H15.6273ZM172.334 119.232H15.6273C7.17907 119.232 0.299316 112.353 0.299316 103.902V15.3303C0.299316 6.87975 7.17907 0 15.6273 0H172.334C180.784 0 187.664 6.87975 187.664 15.3303V103.902C187.664 112.353 180.784 119.232 172.334 119.232Z" fill="#1E5192"/>
</g>
<path d="M168.928 20.4396H19.035C18.0891 20.4396 17.3311 19.6815 17.3311 18.7357C17.3311 17.7923 18.0891 17.0342 19.035 17.0342H168.928C169.871 17.0342 170.632 17.7923 170.632 18.7357C170.632 19.6815 169.871 20.4396 168.928 20.4396Z" fill="#1E5192"/>
<path d="M46.2883 47.6925C41.5901 47.6925 37.7711 51.5114 37.7711 56.2096C37.7711 60.9078 41.5901 64.7268 46.2883 64.7268C50.9864 64.7268 54.8054 60.9078 54.8054 56.2096C54.8054 51.5114 50.9864 47.6925 46.2883 47.6925ZM46.2883 68.1322C39.7151 68.1322 34.3657 62.7828 34.3657 56.2096C34.3657 49.6364 39.7151 44.2871 46.2883 44.2871C52.8614 44.2871 58.2108 49.6364 58.2108 56.2096C58.2108 62.7828 52.8614 68.1322 46.2883 68.1322Z" fill="#1E5192"/>
<path d="M66.7277 88.5741C65.7843 88.5741 65.0238 87.8137 65.0238 86.8702C65.0238 76.5423 56.6136 68.1321 46.2881 68.1321C35.9625 68.1321 27.5523 76.5423 27.5523 86.8702C27.5523 87.8137 26.7942 88.5741 25.8484 88.5741C24.9026 88.5741 24.1445 87.8137 24.1445 86.8702C24.1445 74.653 34.0732 64.7267 46.2881 64.7267C58.5053 64.7267 68.4316 74.653 68.4316 86.8702C68.4316 87.8137 67.6735 88.5741 66.7277 88.5741Z" fill="#1E5192"/>
<path d="M20.7388 85.1664H71.8368V34.0661H20.7388V85.1664ZM73.5407 88.5741H19.035C18.0891 88.5741 17.3311 87.8137 17.3311 86.8703V32.3622C17.3311 31.4187 18.0891 30.6606 19.035 30.6606H73.5407C74.4865 30.6606 75.2446 31.4187 75.2446 32.3622V86.8703C75.2446 87.8137 74.4865 88.5741 73.5407 88.5741Z" fill="#1E5192"/>
<path d="M66.7277 105.606C66.4877 105.606 66.2358 105.554 65.9958 105.447C56.9749 101.174 51.8775 105.062 51.6636 105.233C50.9602 105.779 49.9217 105.699 49.3228 105.033C48.4578 104.049 45.7035 101.654 43.2415 102.16C41.8442 102.467 41.1526 102.999 40.3542 103.624C39.1564 104.556 37.8114 105.606 34.7648 105.606C30.9578 105.606 27.4597 101.946 25.6488 99.6982L20.233 105.1C19.5676 105.765 18.5029 105.765 17.8233 105.1C17.1579 104.434 17.1579 103.37 17.8233 102.704L24.6507 95.8911C25.0096 95.5204 25.5158 95.3327 26.0219 95.3992C26.5281 95.4539 26.9939 95.72 27.2719 96.1454C28.3104 97.7162 31.9155 102.201 34.7648 102.201C36.6398 102.201 37.2791 101.694 38.251 100.936C39.1945 100.204 40.3542 99.2989 42.5215 98.8331C46.0623 98.0751 49.242 100.337 50.839 101.747C53.2891 100.43 59.1042 98.4196 67.4597 102.36C68.3128 102.759 68.6717 103.783 68.2724 104.634C67.9801 105.247 67.367 105.606 66.7277 105.606Z" fill="#1E5192"/>
<path d="M168.928 37.4738H90.575C89.6292 37.4738 88.8711 36.7158 88.8711 35.7699C88.8711 34.8241 89.6292 34.066 90.575 34.066H168.928C169.872 34.066 170.632 34.8241 170.632 35.7699C170.632 36.7158 169.872 37.4738 168.928 37.4738Z" fill="#1E5192"/>
<path d="M138.267 71.5399H90.575C89.6292 71.5399 88.8711 70.7818 88.8711 69.836C88.8711 68.8925 89.6292 68.1321 90.575 68.1321H138.267C139.213 68.1321 139.971 68.8925 139.971 69.836C139.971 70.7818 139.213 71.5399 138.267 71.5399Z" fill="#1E5192"/>
<path d="M138.267 85.1663H90.575C89.6292 85.1663 88.8711 84.4083 88.8711 83.4624C88.8711 82.519 89.6292 81.7585 90.575 81.7585H138.267C139.213 81.7585 139.971 82.519 139.971 83.4624C139.971 84.4083 139.213 85.1663 138.267 85.1663Z" fill="#1E5192"/>
<path d="M138.267 98.7927H90.575C89.6292 98.7927 88.8711 98.0347 88.8711 97.0889C88.8711 96.1454 89.6292 95.3873 90.575 95.3873H138.267C139.213 95.3873 139.971 96.1454 139.971 97.0889C139.971 98.0347 139.213 98.7927 138.267 98.7927Z" fill="#1E5192"/>
<path d="M96.7087 52.8042C96.7087 54.3061 95.4849 55.5323 93.9806 55.5323C92.4787 55.5323 91.2524 54.3061 91.2524 52.8042C91.2524 51.2999 92.4787 50.076 93.9806 50.076C95.4849 50.076 96.7087 51.2999 96.7087 52.8042Z" fill="#1E5192"/>
<path d="M106.929 52.8042C106.929 54.3061 105.706 55.5323 104.201 55.5323C102.697 55.5323 101.473 54.3061 101.473 52.8042C101.473 51.2999 102.697 50.076 104.201 50.076C105.706 50.076 106.929 51.2999 106.929 52.8042Z" fill="#1E5192"/>
<path d="M117.148 52.8042C117.148 54.3061 115.924 55.5323 114.422 55.5323C112.918 55.5323 111.694 54.3061 111.694 52.8042C111.694 51.2999 112.918 50.076 114.422 50.076C115.924 50.076 117.148 51.2999 117.148 52.8042Z" fill="#1E5192"/>
<path d="M127.369 52.8042C127.369 54.3061 126.146 55.5323 124.641 55.5323C123.137 55.5323 121.913 54.3061 121.913 52.8042C121.913 51.2999 123.137 50.076 124.641 50.076C126.146 50.076 127.369 51.2999 127.369 52.8042Z" fill="#1E5192"/>
<path d="M137.59 52.8042C137.59 54.3061 136.364 55.5323 134.862 55.5323C133.358 55.5323 132.134 54.3061 132.134 52.8042C132.134 51.2999 133.358 50.076 134.862 50.076C136.364 50.076 137.59 51.2999 137.59 52.8042Z" fill="#1E5192"/>
<path d="M147.809 52.8042C147.809 54.3061 146.585 55.5323 145.081 55.5323C143.576 55.5323 142.353 54.3061 142.353 52.8042C142.353 51.2999 143.576 50.076 145.081 50.076C146.585 50.076 147.809 51.2999 147.809 52.8042Z" fill="#1E5192"/>
<path d="M158.03 52.8042C158.03 54.3061 156.806 55.5323 155.302 55.5323C153.798 55.5323 152.574 54.3061 152.574 52.8042C152.574 51.2999 153.798 50.076 155.302 50.076C156.806 50.076 158.03 51.2999 158.03 52.8042Z" fill="#1E5192"/>
<path d="M168.249 52.8042C168.249 54.3061 167.025 55.5323 165.521 55.5323C164.019 55.5323 162.792 54.3061 162.792 52.8042C162.792 51.2999 164.019 50.076 165.521 50.076C167.025 50.076 168.249 51.2999 168.249 52.8042Z" fill="#1E5192"/>
</svg>
