    <svg width="35" height="36" viewBox="0 0 35 36" fill="none" xmlns="http://www.w3.org/2000/svg">
<path d="M17.5 0C7.8506 0 0 7.87739 0 17.5597C0 27.242 7.8506 35.1194 17.5 35.1194C27.1494 35.1194 35 27.242 35 17.5597C35 7.87739 27.1494 0 17.5 0ZM17.5 27.0073C17.1672 27.0073 16.8419 26.9083 16.5651 26.7228C16.2884 26.5373 16.0728 26.2736 15.9454 25.965C15.818 25.6565 15.7847 25.317 15.8496 24.9895C15.9146 24.662 16.0748 24.3611 16.3102 24.125C16.5455 23.8889 16.8453 23.7281 17.1717 23.6629C17.4981 23.5978 17.8365 23.6312 18.1439 23.759C18.4514 23.8868 18.7142 24.1032 18.8991 24.3809C19.084 24.6585 19.1827 24.985 19.1827 25.3189C19.1827 25.7667 19.0054 26.1962 18.6898 26.5128C18.3743 26.8295 17.9463 27.0073 17.5 27.0073ZM19.3274 10.0259L18.8445 20.3254C18.8445 20.6836 18.7026 21.0272 18.4502 21.2805C18.1977 21.5338 17.8553 21.6761 17.4983 21.6761C17.1413 21.6761 16.7989 21.5338 16.5464 21.2805C16.294 21.0272 16.1522 20.6836 16.1522 20.3254L15.6692 10.031V10.0268C15.6586 9.77935 15.6981 9.53234 15.7851 9.30062C15.8722 9.06889 16.0051 8.85724 16.1758 8.67842C16.3466 8.49959 16.5516 8.35728 16.7786 8.26007C17.0056 8.16285 17.2498 8.11273 17.4966 8.11273C17.7434 8.11273 17.9877 8.16285 18.2147 8.26007C18.4417 8.35728 18.6467 8.49959 18.8174 8.67842C18.9882 8.85724 19.1211 9.06889 19.2081 9.30062C19.2952 9.53234 19.3346 9.77935 19.324 10.0268L19.3274 10.0259Z" fill="white"/>
</svg>
