<svg xmlns="http://www.w3.org/2000/svg" xmlns:xlink="http://www.w3.org/1999/xlink" width="430" zoomAndPan="magnify" viewBox="0 0 322.5 208.499994" height="278" preserveAspectRatio="xMidYMid meet" version="1.0"><defs><clipPath id="6bdef1740f"><path d="M 117.21875 169.085938 L 149.738281 169.085938 L 149.738281 204.515625 L 117.21875 204.515625 Z M 117.21875 169.085938 " clip-rule="nonzero"/></clipPath><clipPath id="bad3bea12b"><path d="M 246.871094 4.65625 L 321.519531 4.65625 L 321.519531 109.519531 L 246.871094 109.519531 Z M 246.871094 4.65625 " clip-rule="nonzero"/></clipPath></defs><path fill="#ffffff" d="M 109.214844 150.242188 L 93.164062 171.800781 C 89.761719 176.375 90.714844 182.898438 95.285156 186.300781 L 96.414062 187.136719 C 98.261719 188.515625 100.429688 189.175781 102.582031 189.175781 C 105.75 189.175781 108.882812 187.738281 110.910156 185.015625 L 126.960938 163.453125 C 130.363281 158.882812 129.410156 152.359375 124.835938 148.957031 L 123.710938 148.117188 C 121.863281 146.742188 119.695312 146.078125 117.542969 146.078125 C 114.375 146.078125 111.238281 147.519531 109.214844 150.242188 " fill-opacity="1" fill-rule="nonzero"/><g clip-path="url(#6bdef1740f)"><path fill="#ffffff" d="M 130.078125 172.886719 L 119.132812 187.585938 C 116.09375 191.667969 116.949219 197.492188 121.03125 200.53125 L 123.9375 202.695312 C 125.585938 203.921875 127.523438 204.515625 129.441406 204.515625 C 132.273438 204.515625 135.070312 203.230469 136.878906 200.800781 L 147.824219 186.097656 C 150.863281 182.015625 150.007812 176.191406 145.929688 173.152344 L 143.019531 170.988281 C 141.371094 169.761719 139.4375 169.167969 137.515625 169.167969 C 134.6875 169.167969 131.886719 170.453125 130.078125 172.886719 " fill-opacity="1" fill-rule="nonzero"/></g><path fill="#ffffff" d="M 71.546875 124.878906 L 67.132812 121.59375 C 65.652344 120.492188 63.914062 119.957031 62.1875 119.957031 C 59.644531 119.960938 57.128906 121.113281 55.503906 123.300781 L 48.136719 133.191406 C 45.410156 136.859375 46.175781 142.09375 49.84375 144.824219 L 54.257812 148.109375 C 55.738281 149.214844 57.476562 149.746094 59.203125 149.746094 C 61.746094 149.746094 64.261719 148.589844 65.886719 146.40625 L 73.253906 136.511719 C 75.980469 132.84375 75.214844 127.609375 71.546875 124.878906 " fill-opacity="1" fill-rule="nonzero"/><path fill="#ffffff" d="M 104.203125 126.410156 C 102.226562 124.941406 99.90625 124.230469 97.605469 124.230469 C 94.21875 124.230469 90.863281 125.769531 88.695312 128.683594 L 69.109375 154.992188 C 65.46875 159.882812 66.492188 166.863281 71.378906 170.5 C 73.355469 171.972656 75.675781 172.683594 77.976562 172.683594 C 81.03125 172.683594 84.058594 171.429688 86.214844 169.046875 C 86.539062 168.492188 86.894531 167.953125 87.289062 167.425781 L 96.589844 154.933594 L 103.339844 145.867188 C 103.800781 145.246094 104.308594 144.65625 104.847656 144.101562 L 106.472656 141.917969 C 110.113281 137.027344 109.089844 130.050781 104.203125 126.410156 " fill-opacity="1" fill-rule="nonzero"/><path fill="#ffffff" d="M 49.015625 3.640625 L 1.792969 88.140625 C 0.296875 90.820312 1.257812 94.203125 3.933594 95.699219 L 20.242188 104.8125 C 22.921875 106.308594 26.304688 105.351562 27.800781 102.675781 L 75.023438 18.171875 C 76.519531 15.496094 75.5625 12.113281 72.886719 10.617188 L 56.574219 1.5 C 53.898438 0.00390625 50.511719 0.960938 49.015625 3.640625 " fill-opacity="1" fill-rule="nonzero"/><g clip-path="url(#bad3bea12b)"><path fill="#ffffff" d="M 247.582031 22.082031 L 294.804688 106.582031 C 296.300781 109.257812 299.683594 110.21875 302.363281 108.722656 L 318.675781 99.605469 C 321.351562 98.109375 322.308594 94.726562 320.8125 92.050781 L 273.589844 7.546875 C 272.09375 4.867188 268.710938 3.910156 266.03125 5.40625 L 249.722656 14.523438 C 247.042969 16.019531 246.085938 19.402344 247.582031 22.082031 " fill-opacity="1" fill-rule="nonzero"/></g><path fill="#ffffff" d="M 266.855469 136.5625 C 266.984375 132.660156 265.160156 128.953125 262.050781 126.59375 L 237.542969 108.023438 C 228.6875 101.78125 217.636719 94.628906 204.707031 86.769531 C 186.472656 75.683594 169.289062 66.09375 161.320312 61.710938 C 160.078125 61.027344 158.621094 60.847656 157.246094 61.207031 L 148.289062 63.554688 C 146.972656 63.902344 145.828125 64.710938 145.0625 65.835938 L 145.050781 65.851562 C 142.566406 69.488281 139.804688 72.828125 136.839844 75.777344 C 133.359375 79.238281 129.664062 82.113281 125.863281 84.320312 C 121.296875 86.964844 116.601562 88.636719 111.898438 89.28125 C 110.859375 89.421875 109.8125 89.496094 108.789062 89.496094 C 105.101562 89.496094 101.664062 88.550781 98.851562 86.757812 C 95.246094 84.464844 92.933594 81.105469 92.164062 77.042969 C 91.273438 72.339844 92.492188 66.972656 95.882812 60.628906 C 98.273438 56.160156 101.253906 52.078125 103.429688 49.09375 C 103.960938 48.363281 104.425781 47.730469 104.792969 47.207031 C 106.292969 45.074219 108.039062 42.640625 109.996094 40.089844 C 110.496094 39.4375 109.96875 38.507812 109.152344 38.601562 C 105.042969 39.074219 95.738281 38.609375 81.105469 29.539062 C 79.804688 28.734375 78.09375 29.175781 77.347656 30.511719 L 36.78125 103.101562 C 35.929688 104.625 36.136719 106.519531 37.296875 107.824219 L 48.050781 119.925781 C 48.199219 120.09375 48.367188 120.242188 48.546875 120.371094 L 49.625 118.921875 C 51.105469 116.9375 53.0625 115.3125 55.285156 114.226562 C 57.417969 113.183594 59.808594 112.632812 62.1875 112.632812 C 63.832031 112.632812 65.457031 112.886719 67.011719 113.394531 C 68.628906 113.917969 70.144531 114.699219 71.511719 115.71875 L 75.925781 119.003906 C 77.613281 120.261719 79.007812 121.820312 80.070312 123.636719 C 80.320312 124.0625 80.550781 124.5 80.753906 124.941406 C 81.03125 125.535156 81.835938 125.621094 82.226562 125.097656 L 82.8125 124.308594 C 84.554688 121.96875 86.851562 120.058594 89.46875 118.78125 C 91.980469 117.550781 94.839844 116.902344 97.589844 116.902344 C 99.511719 116.902344 101.445312 117.203125 103.277344 117.800781 C 105.179688 118.414062 106.96875 119.335938 108.578125 120.53125 C 110.566406 122.015625 112.207031 123.847656 113.457031 125.984375 C 114.65625 128.035156 115.441406 130.273438 115.785156 132.632812 C 116.027344 134.269531 116.046875 135.914062 115.847656 137.535156 C 115.769531 138.199219 116.292969 138.785156 116.960938 138.761719 C 117.15625 138.753906 117.355469 138.753906 117.558594 138.753906 C 119.386719 138.753906 121.246094 139.042969 123.007812 139.613281 C 124.835938 140.207031 126.539062 141.089844 128.085938 142.242188 L 129.214844 143.082031 C 134.738281 147.195312 137.171875 153.941406 136.074219 160.308594 C 135.933594 161.113281 136.570312 161.847656 137.390625 161.839844 C 137.433594 161.839844 137.476562 161.839844 137.523438 161.839844 C 139.265625 161.839844 140.984375 162.113281 142.632812 162.648438 C 144.347656 163.203125 145.945312 164.03125 147.398438 165.109375 L 150.304688 167.277344 C 157.648438 172.742188 159.167969 183.128906 153.703125 190.472656 L 152.269531 192.398438 C 151.59375 193.304688 151.753906 194.601562 152.664062 195.273438 C 152.824219 195.390625 153 195.484375 153.1875 195.546875 C 156.449219 196.707031 187.894531 207.386719 196.78125 192.402344 C 197.367188 191.414062 196.972656 190.136719 195.941406 189.632812 L 166.605469 175.289062 C 164.839844 174.421875 163.914062 172.40625 164.488281 170.523438 C 164.90625 169.148438 166.101562 167.90625 169.003906 167.785156 C 169.308594 167.769531 169.617188 167.839844 169.890625 167.980469 L 200.0625 183.722656 C 203.449219 185.492188 207.296875 186.230469 211.089844 185.761719 C 215.734375 185.1875 220.792969 182.792969 221.238281 175.203125 C 221.351562 173.210938 220.328125 171.324219 218.601562 170.320312 L 180.953125 148.386719 C 179.480469 147.527344 178.691406 145.851562 178.96875 144.171875 C 179.234375 142.601562 180.074219 141.003906 182.386719 140.917969 C 183.144531 140.890625 183.890625 141.09375 184.542969 141.472656 L 224.105469 164.46875 C 226.09375 165.621094 228.367188 166.183594 230.664062 166.074219 C 234.621094 165.894531 240.394531 164.691406 242.675781 159.539062 C 244.679688 155.007812 242.914062 149.691406 238.664062 147.140625 L 195.351562 121.152344 C 194.070312 120.386719 193.320312 118.96875 193.417969 117.480469 C 193.546875 115.515625 194.539062 113.292969 198.566406 113.9375 C 199.054688 114.015625 199.523438 114.191406 199.945312 114.445312 L 249.152344 143.773438 C 252.808594 145.953125 257.292969 146.316406 261.207031 144.640625 C 264.117188 143.394531 266.707031 141.023438 266.855469 136.5625 " fill-opacity="1" fill-rule="nonzero"/><path fill="#ffffff" d="M 284.839844 104.914062 L 243.777344 31.429688 C 243.449219 30.84375 242.761719 30.5625 242.117188 30.753906 C 239.167969 31.632812 235.480469 32.527344 234.945312 32.59375 C 233.359375 32.789062 231.765625 32.882812 230.175781 32.882812 C 224.765625 32.882812 219.363281 31.808594 214.257812 30.054688 C 202.355469 25.964844 187.5625 24.789062 174.367188 24.789062 C 164.605469 24.789062 155.71875 25.433594 149.523438 26.015625 C 144.417969 26.5 139.460938 26.871094 134.511719 28.332031 C 129.863281 29.703125 125.886719 32.871094 122.640625 36.382812 C 121.78125 37.308594 120.945312 38.257812 120.117188 39.222656 C 116.789062 43.109375 113.714844 47.257812 110.785156 51.421875 C 106.496094 57.523438 92.789062 74.21875 102.785156 80.578125 C 104.558594 81.707031 106.671875 82.167969 108.789062 82.167969 C 109.5 82.167969 110.207031 82.117188 110.90625 82.019531 C 118.902344 80.925781 126.066406 76.160156 131.671875 70.582031 C 134.394531 67.878906 136.839844 64.886719 139 61.71875 C 139.367188 61.175781 140.839844 57.933594 141.460938 57.769531 L 155.183594 54.171875 L 159.769531 52.972656 C 159.890625 52.9375 160.015625 52.921875 160.144531 52.921875 C 160.386719 52.921875 160.625 52.984375 160.84375 53.101562 C 167.914062 56.933594 229.578125 90.753906 264.964844 121.292969 C 264.96875 121.296875 264.972656 121.300781 264.972656 121.300781 C 265.460938 121.71875 266.179688 121.71875 266.675781 121.3125 L 284.757812 106.441406 C 285.074219 105.988281 285.109375 105.394531 284.839844 104.914062 " fill-opacity="1" fill-rule="nonzero"/></svg>