<svg width="40" height="40" viewBox="0 0 49 50" fill="none" xmlns="http://www.w3.org/2000/svg">
<g clip-path="url(#clip0_915_2471)">
<path d="M27.1362 38.8979C26.9613 38.8979 26.7903 38.8276 26.6641 38.7014C26.5059 38.5465 26.4388 38.3212 26.4812 38.1039L27.2249 34.2751C27.252 34.1441 27.3127 34.0259 27.407 33.9292L40.8904 20.4459C41.0166 20.3205 41.1859 20.2502 41.3625 20.2502C41.5398 20.2502 41.7084 20.3205 41.8346 20.4459L44.9196 23.531C45.18 23.7914 45.18 24.2155 44.9196 24.476L31.4363 37.9585C31.342 38.0528 31.2222 38.1167 31.0904 38.1414L27.2624 38.8844C27.2217 38.8923 27.1785 38.8979 27.1362 38.8979ZM28.4958 34.7289L27.9814 37.385L30.6375 36.8697L43.5033 24.0039L41.3625 21.863L28.4958 34.7289Z" fill="white"/>
<mask id="mask0_915_2471" style="mask-type:luminance" maskUnits="userSpaceOnUse" x="42" y="16" width="7" height="8">
<path d="M42.127 16.7689H48.5183V23.3129H42.127V16.7689Z" fill="white"/>
</mask>
<g mask="url(#mask0_915_2471)">
<path d="M45.9869 23.1292C45.8095 23.1292 45.641 23.0589 45.5147 22.9335L42.4297 19.8484C42.1693 19.588 42.1693 19.1638 42.4297 18.9034L44.2566 17.0765C44.509 16.8272 44.9516 16.8272 45.2008 17.0765L48.2859 20.1615C48.5463 20.422 48.5463 20.8461 48.2859 21.1065L46.459 22.9335C46.3359 23.0589 46.1666 23.1292 45.9869 23.1292ZM43.8484 19.3763L45.9892 21.5163L46.8751 20.6312L44.7343 18.4904L43.8484 19.3763Z" fill="white"/>
</g>
<path d="M37.3346 28.6954C37.166 28.6954 36.9951 28.6307 36.8633 28.4997C36.6029 28.2392 36.6029 27.8151 36.8633 27.5555L42.4295 21.9884C42.6899 21.7288 43.1141 21.7288 43.3745 21.9884C43.6341 22.2489 43.6341 22.673 43.3745 22.9327L37.8075 28.4997C37.6781 28.6307 37.5063 28.6954 37.3346 28.6954Z" fill="white"/>
<path d="M30.9631 38.1543C30.7914 38.1543 30.6228 38.0903 30.4918 37.9585L27.4067 34.8735C27.1463 34.6139 27.1463 34.1897 27.4067 33.9293C27.6664 33.6697 28.0905 33.6697 28.3509 33.9293L31.4352 37.0143C31.6956 37.2747 31.6956 37.6981 31.4352 37.9585C31.3034 38.0903 31.1349 38.1543 30.9631 38.1543Z" fill="white"/>
<mask id="mask1_915_2471" style="mask-type:luminance" maskUnits="userSpaceOnUse" x="0" y="0" width="36" height="50">
<path d="M0 0.00143433H35.5828V49.7434H0V0.00143433Z" fill="white"/>
</mask>
<g mask="url(#mask1_915_2471)">
<path d="M34.9126 49.7674H0.668616C0.301157 49.7674 0 49.4694 0 49.0996V0.669251C0 0.301792 0.297961 0.00143433 0.668616 0.00143433H34.9126C35.2809 0.00143433 35.5812 0.298597 35.5812 0.669251V23.6299C35.5812 23.9973 35.2833 24.2977 34.9126 24.2977C34.5428 24.2977 34.2448 24.0005 34.2448 23.6299V1.33707H1.33643V48.4317H34.2448V37.6716C34.2448 37.3009 34.5428 37.003 34.9126 37.003C35.2809 37.003 35.5812 37.3009 35.5812 37.6716V49.0996C35.578 49.467 35.2809 49.7674 34.9126 49.7674Z" fill="white"/>
</g>
<path d="M11.7881 9.19446H5.72739C5.35753 9.19446 5.05957 8.8965 5.05957 8.52664C5.05957 8.15679 5.35753 7.85883 5.72739 7.85883H11.7881C12.1555 7.85883 12.4559 8.15679 12.4559 8.52664C12.4559 8.8941 12.1555 9.19446 11.7881 9.19446Z" fill="white"/>
<path d="M29.5955 21.2128H5.72739C5.35753 21.2128 5.05957 20.9148 5.05957 20.545C5.05957 20.1743 5.35753 19.8771 5.72739 19.8771H29.5955C29.9653 19.8771 30.2633 20.1743 30.2633 20.545C30.2633 20.9124 29.9653 21.2128 29.5955 21.2128Z" fill="white"/>
<path d="M29.5955 27.2191H5.72739C5.35753 27.2191 5.05957 26.9212 5.05957 26.5513C5.05957 26.1807 5.35753 25.8835 5.72739 25.8835H29.5955C29.9653 25.8835 30.2633 26.1807 30.2633 26.5513C30.2633 26.9212 29.9653 27.2191 29.5955 27.2191Z" fill="white"/>
<path d="M25.9153 33.2287H5.72739C5.35753 33.2287 5.05957 32.9307 5.05957 32.5609C5.05957 32.1934 5.35753 31.8922 5.72739 31.8922H25.9153C26.2851 31.8922 26.5831 32.1902 26.5831 32.5609C26.5831 32.9307 26.2827 33.2287 25.9153 33.2287Z" fill="white"/>
<path d="M29.8504 41.9103H24.4207C24.0501 41.9103 23.7529 41.6123 23.7529 41.2425C23.7529 40.8718 24.0501 40.5747 24.4207 40.5747H29.8504C30.2186 40.5747 30.5182 40.8718 30.5182 41.2425C30.5182 41.61 30.221 41.9103 29.8504 41.9103Z" fill="white"/>
</g>
<defs>
<clipPath id="clip0_915_2471">
<rect width="48.773" height="50" fill="white"/>
</clipPath>
</defs>
</svg>
