<svg xmlns="http://www.w3.org/2000/svg" xmlns:xlink="http://www.w3.org/1999/xlink" width="287" zoomAndPan="magnify" viewBox="0 0 215.25 232.499992" height="310" preserveAspectRatio="xMidYMid meet" version="1.0"><defs><clipPath id="270a06cd1b"><path d="M 0 0.15625 L 180 0.15625 L 180 231.847656 L 0 231.847656 Z M 0 0.15625 " clip-rule="nonzero"/></clipPath><clipPath id="bb95896323"><path d="M 135 45 L 213.753906 45 L 213.753906 101 L 135 101 Z M 135 45 " clip-rule="nonzero"/></clipPath></defs><g clip-path="url(#270a06cd1b)"><path fill="#ffffff" d="M 25.800781 4.378906 L 43.808594 4.378906 C 44.03125 1.933594 46.144531 0.15625 48.589844 0.15625 L 130.410156 0.15625 C 132.855469 0.15625 134.96875 2.042969 135.078125 4.378906 L 153.199219 4.378906 C 160.3125 4.378906 166.652344 7.378906 171.429688 11.9375 C 176.101562 16.609375 178.992188 23.054688 178.992188 30.171875 L 178.992188 51.625 L 170.429688 56.628906 L 170.429688 30.28125 C 170.429688 25.613281 168.539062 21.164062 165.316406 18.164062 C 162.316406 15.050781 157.867188 13.050781 153.199219 13.050781 L 135.078125 13.050781 C 134.855469 15.496094 132.746094 17.386719 130.410156 17.386719 L 48.589844 17.386719 C 46.144531 17.386719 44.03125 15.496094 43.808594 13.050781 L 25.800781 13.050781 C 21.132812 13.050781 16.683594 14.941406 13.570312 18.164062 C 10.570312 21.164062 8.570312 25.613281 8.570312 30.28125 L 8.570312 206.039062 C 8.570312 210.707031 10.460938 215.15625 13.570312 218.15625 C 16.683594 221.269531 21.019531 223.269531 25.800781 223.269531 L 153.3125 223.269531 C 157.980469 223.269531 162.425781 221.378906 165.429688 218.15625 C 168.539062 215.15625 170.542969 210.707031 170.542969 206.039062 L 170.542969 97.539062 L 179.101562 92.535156 L 179.101562 205.925781 C 179.101562 213.042969 176.101562 219.488281 171.542969 224.160156 C 166.875 228.828125 160.425781 231.71875 153.3125 231.71875 L 25.800781 231.71875 C 18.6875 231.71875 12.238281 228.71875 7.570312 224.160156 C 2.898438 219.488281 0.0078125 213.042969 0.0078125 205.925781 L 0.0078125 30.171875 C 0.0078125 23.054688 2.898438 16.71875 7.570312 11.9375 C 12.238281 7.269531 18.6875 4.378906 25.800781 4.378906 Z M 25.800781 4.378906 " fill-opacity="1" fill-rule="nonzero"/></g><path fill="#ffffff" d="M 36.472656 124.664062 C 35.136719 123.441406 35.136719 121.441406 36.472656 120.214844 C 37.695312 118.882812 39.695312 118.882812 40.917969 120.214844 L 46.699219 125.996094 L 57.929688 106.652344 C 58.707031 105.207031 60.707031 104.652344 62.265625 105.542969 C 63.707031 106.320312 64.265625 108.320312 63.375 109.878906 L 50.367188 132.554688 C 50.144531 132.777344 50.035156 133.113281 49.703125 133.335938 C 48.480469 134.558594 46.476562 134.558594 45.253906 133.335938 L 36.472656 124.550781 Z M 36.472656 124.664062 " fill-opacity="1" fill-rule="nonzero"/><path fill="#ffffff" d="M 75.046875 124.441406 C 73.269531 124.441406 71.933594 123.105469 71.933594 121.328125 C 71.933594 119.550781 73.269531 118.214844 75.046875 118.214844 L 140.527344 118.214844 C 142.304688 118.214844 143.640625 119.550781 143.640625 121.328125 C 143.640625 123.105469 142.304688 124.441406 140.527344 124.441406 Z M 75.046875 124.441406 " fill-opacity="1" fill-rule="nonzero"/><path fill="#ffffff" d="M 36.472656 157.679688 C 35.136719 156.457031 35.136719 154.457031 36.472656 153.234375 C 37.695312 151.898438 39.695312 151.898438 40.917969 153.234375 L 46.699219 159.015625 L 57.929688 139.671875 C 58.707031 138.226562 60.707031 137.671875 62.265625 138.558594 C 63.707031 139.335938 64.265625 141.339844 63.375 142.894531 L 50.367188 165.574219 C 50.144531 165.796875 50.035156 166.128906 49.703125 166.351562 C 48.480469 167.574219 46.476562 167.574219 45.253906 166.351562 L 36.472656 157.570312 Z M 36.472656 157.679688 " fill-opacity="1" fill-rule="nonzero"/><path fill="#ffffff" d="M 75.046875 157.457031 C 73.269531 157.457031 71.933594 156.125 71.933594 154.34375 C 71.933594 152.566406 73.269531 151.234375 75.046875 151.234375 L 140.527344 151.234375 C 142.304688 151.234375 143.640625 152.566406 143.640625 154.34375 C 143.640625 156.125 142.304688 157.457031 140.527344 157.457031 Z M 75.046875 157.457031 " fill-opacity="1" fill-rule="nonzero"/><path fill="#ffffff" d="M 36.472656 190.699219 C 35.136719 189.476562 35.136719 187.472656 36.472656 186.25 C 37.695312 184.917969 39.695312 184.917969 40.917969 186.25 L 46.699219 192.03125 L 57.929688 172.6875 C 58.707031 171.242188 60.707031 170.6875 62.265625 171.578125 C 63.707031 172.355469 64.265625 174.355469 63.375 175.800781 L 50.367188 198.589844 C 50.144531 198.8125 50.035156 199.144531 49.703125 199.367188 C 48.480469 200.589844 46.476562 200.589844 45.253906 199.367188 L 36.472656 190.585938 Z M 36.472656 190.699219 " fill-opacity="1" fill-rule="nonzero"/><path fill="#ffffff" d="M 75.046875 190.476562 C 73.269531 190.476562 71.933594 189.140625 71.933594 187.363281 C 71.933594 185.582031 73.269531 184.136719 75.046875 184.136719 L 140.527344 184.136719 C 142.304688 184.136719 143.640625 185.582031 143.640625 187.363281 C 143.640625 189.140625 142.304688 190.476562 140.527344 190.476562 Z M 75.046875 190.476562 " fill-opacity="1" fill-rule="nonzero"/><path fill="#ffffff" d="M 89.609375 32.503906 C 105.84375 32.503906 118.960938 45.621094 118.960938 61.851562 C 118.960938 78.082031 105.84375 91.203125 89.609375 91.203125 C 73.378906 91.203125 60.261719 78.082031 60.261719 61.851562 C 60.261719 45.621094 73.378906 32.503906 89.609375 32.503906 Z M 89.609375 46.621094 C 94.28125 46.621094 98.171875 50.402344 98.171875 55.183594 C 98.171875 59.851562 94.390625 63.742188 89.609375 63.742188 C 84.941406 63.742188 81.050781 59.964844 81.050781 55.183594 C 81.050781 50.515625 84.832031 46.621094 89.609375 46.621094 Z M 83.71875 66.1875 L 95.503906 66.1875 C 101.0625 66.1875 105.507812 70.636719 105.507812 76.195312 L 105.507812 76.972656 L 73.714844 76.972656 L 73.714844 76.195312 C 73.714844 70.636719 78.160156 66.1875 83.71875 66.1875 Z M 83.71875 66.1875 " fill-opacity="1" fill-rule="evenodd"/><g clip-path="url(#bb95896323)"><path fill="#ffffff" d="M 203.335938 46.84375 L 213.121094 63.742188 C 213.898438 65.078125 213.453125 66.746094 212.117188 67.523438 L 154.976562 100.539062 C 154.421875 100.875 153.867188 100.984375 153.199219 100.875 L 137.746094 98.539062 C 136.859375 98.425781 136.191406 97.984375 135.746094 97.203125 C 135.300781 96.425781 135.300781 95.648438 135.523438 94.871094 L 141.195312 80.308594 C 141.414062 79.75 141.859375 79.195312 142.417969 78.972656 L 199.558594 45.957031 C 200.890625 45.179688 202.558594 45.621094 203.335938 46.957031 Z M 200 51.625 C 200.335938 52.292969 200.113281 53.070312 199.558594 53.402344 L 148.53125 82.863281 C 147.863281 83.199219 147.085938 82.976562 146.75 82.417969 C 146.417969 81.753906 146.640625 80.972656 147.195312 80.640625 L 198.222656 51.179688 C 198.890625 50.847656 199.667969 51.070312 200 51.625 Z M 200 51.625 " fill-opacity="1" fill-rule="evenodd"/></g></svg>