<svg width="40" height="40" viewBox="0 0 46 50" fill="none" xmlns="http://www.w3.org/2000/svg">
<g clip-path="url(#clip0_915_2465)">
<mask id="mask0_915_2465" style="mask-type:luminance" maskUnits="userSpaceOnUse" x="0" y="0" width="46" height="50">
<path d="M0 0.0304565H45.7436V49.9183H0V0.0304565Z" fill="white"/>
</mask>
<g mask="url(#mask0_915_2465)">
<path d="M6.29185 16.3109C6.29185 15.968 6.5699 15.6899 6.91205 15.6899H19.9128C20.255 15.6899 20.533 15.968 20.533 16.3109C20.533 16.6531 20.255 16.9311 19.9128 16.9311H6.91205C6.5699 16.9311 6.29185 16.6539 6.29185 16.3109ZM26.5611 22.1907H6.91205C6.5699 22.1907 6.29185 22.4688 6.29185 22.8117C6.29185 23.1539 6.5699 23.4319 6.91205 23.4319H26.5611C26.904 23.4319 27.1821 23.1539 27.1821 22.8117C27.1821 22.4688 26.904 22.1907 26.5611 22.1907ZM26.5611 28.6907H6.91205C6.5699 28.6907 6.29185 28.9688 6.29185 29.3109C6.29185 29.6539 6.5699 29.9319 6.91205 29.9319H26.5611C26.904 29.9319 27.1821 29.6539 27.1821 29.3109C27.1821 28.9688 26.904 28.6907 26.5611 28.6907ZM26.5611 35.1899H6.91205C6.5699 35.1899 6.29185 35.4688 6.29185 35.8109C6.29185 36.1531 6.5699 36.4311 6.91205 36.4311H26.5611C26.904 36.4311 27.1821 36.1531 27.1821 35.8109C27.1821 35.4688 26.904 35.1899 26.5611 35.1899ZM26.5611 41.6907H6.91205C6.5699 41.6907 6.29185 41.9696 6.29185 42.3117C6.29185 42.6539 6.5699 42.9319 6.91205 42.9319H26.5611C26.904 42.9319 27.1821 42.6539 27.1821 42.3117C27.1821 41.9696 26.904 41.6907 26.5611 41.6907ZM45.739 41.1394C45.739 45.9615 41.8159 49.8854 36.9938 49.8854C35.6132 49.8854 34.3063 49.5625 33.1436 48.9904H0.632399C0.468137 48.9904 0.310284 48.9255 0.194098 48.8085C0.0787133 48.6923 0.012207 48.5345 0.012207 48.3694V8.62901C0.012207 8.28607 0.290252 8.00802 0.632399 8.00802H3.77903V4.63943C3.77903 4.29648 4.05708 4.01844 4.40003 4.01844H7.54586V0.650649C7.54586 0.308501 7.82471 0.0304565 8.16685 0.0304565H31.3608C31.5234 0.0304565 31.6805 0.0945591 31.7959 0.208341L41.251 9.51523C41.3696 9.63222 41.4361 9.79087 41.4361 9.95754V33.6106C44.0106 35.1354 45.739 37.9383 45.739 41.1394ZM8.78865 4.01844H27.5947C27.7574 4.01844 27.9145 4.08254 28.0298 4.19632L37.485 13.5032C37.6036 13.6202 37.6701 13.7797 37.6701 13.9463V32.4215C38.5555 32.4896 39.404 32.6891 40.1957 33.0024V10.2188L31.1084 1.27164H8.78865V4.01844ZM5.02182 8.00802H23.8279V8.00882C23.9882 8.00882 24.1444 8.06892 24.263 8.18591L33.7181 17.4928C33.8391 17.6122 33.9024 17.7724 33.9024 17.9359H33.9032V32.9591C34.6965 32.6579 35.5459 32.4704 36.4289 32.4143V14.2067L27.3399 5.25962H5.02182V8.00802ZM24.4481 10.1106V17.3157H31.767L24.4481 10.1106ZM31.2758 47.7492C29.4233 46.1442 28.2486 43.7773 28.2486 41.1394C28.2486 37.8926 30.0282 35.0561 32.662 33.5465V18.5561H23.8279C23.485 18.5561 23.2069 18.2781 23.2069 17.9359V9.24921H1.25419V47.7492H31.2758ZM44.4978 41.1394C44.4978 37.0016 41.1308 33.6354 36.9938 33.6354C32.8552 33.6354 29.4898 37.0024 29.4898 41.1394C29.4898 45.2773 32.856 48.6442 36.9938 48.6442C41.1324 48.6442 44.4978 45.2773 44.4978 41.1394ZM40.3752 40.5192H37.614V37.7588C37.614 37.4159 37.3359 37.1378 36.9938 37.1378C36.6516 37.1378 36.3728 37.4159 36.3728 37.7588V40.5192H33.6124C33.2702 40.5192 32.9922 40.7973 32.9922 41.1394C32.9922 41.4824 33.2702 41.7604 33.6124 41.7604H36.3728V44.5208C36.3728 44.863 36.6516 45.1418 36.9938 45.1418C37.3359 45.1418 37.614 44.863 37.614 44.5208V41.7604H40.3752C40.7173 41.7604 40.9954 41.4824 40.9954 41.1394C40.9954 40.7973 40.7173 40.5192 40.3752 40.5192Z" fill="white"/>
</g>
</g>
<defs>
<clipPath id="clip0_915_2465">
<rect width="45.8462" height="50" fill="white"/>
</clipPath>
</defs>
</svg>
