<svg width="63" height="63" viewBox="0 0 63 63" fill="none" xmlns="http://www.w3.org/2000/svg">
<path d="M42.984 8.53084C46.0272 8.53993 48.9433 9.75289 51.0952 11.9048C53.2471 14.0567 54.4601 16.9728 54.4692 20.016V42.984C54.4601 46.0272 53.2471 48.9433 51.0952 51.0952C48.9433 53.2471 46.0272 54.4601 42.984 54.4692H20.016C16.9728 54.4601 14.0567 53.2471 11.9048 51.0952C9.75289 48.9433 8.53993 46.0272 8.53084 42.984V20.016C8.53993 16.9728 9.75289 14.0567 11.9048 11.9048C14.0567 9.75289 16.9728 8.53993 20.016 8.53084H42.984ZM42.984 3.9375H20.016C11.1727 3.9375 3.9375 11.1727 3.9375 20.016V42.984C3.9375 51.8273 11.1727 59.0625 20.016 59.0625H42.984C51.8273 59.0625 59.0625 51.8273 59.0625 42.984V20.016C59.0625 11.1727 51.8273 3.9375 42.984 3.9375Z" fill="white"/>
<path d="M46.4293 20.0161C45.7479 20.0161 45.0817 19.814 44.5152 19.4355C43.9486 19.0569 43.507 18.5188 43.2462 17.8893C42.9855 17.2597 42.9172 16.567 43.0502 15.8987C43.1831 15.2303 43.5112 14.6164 43.9931 14.1346C44.4749 13.6528 45.0888 13.3246 45.7571 13.1917C46.4254 13.0588 47.1182 13.127 47.7477 13.3877C48.3773 13.6485 48.9154 14.0901 49.2939 14.6567C49.6725 15.2233 49.8746 15.8894 49.8746 16.5708C49.8756 17.0235 49.7871 17.472 49.6143 17.8904C49.4415 18.3089 49.1878 18.6891 48.8676 19.0092C48.5475 19.3293 48.1673 19.583 47.7489 19.7558C47.3304 19.9286 46.882 20.0171 46.4293 20.0161ZM31.5 22.3122C33.3172 22.3122 35.0936 22.851 36.6045 23.8606C38.1155 24.8702 39.2931 26.3051 39.9885 27.984C40.6839 29.6629 40.8659 31.5103 40.5114 33.2925C40.1568 35.0748 39.2818 36.712 37.9968 37.9969C36.7119 39.2819 35.0748 40.1569 33.2925 40.5114C31.5102 40.866 29.6628 40.684 27.9839 39.9886C26.3051 39.2932 24.8701 38.1155 23.8605 36.6046C22.851 35.0937 22.3121 33.3173 22.3121 31.5001C22.3147 29.0641 23.2835 26.7286 25.006 25.0061C26.7285 23.2836 29.064 22.3148 31.5 22.3122ZM31.5 17.7188C28.7743 17.7188 26.1099 18.5271 23.8436 20.0414C21.5772 21.5557 19.8109 23.708 18.7678 26.2262C17.7247 28.7444 17.4518 31.5154 17.9836 34.1887C18.5153 36.862 19.8278 39.3175 21.7552 41.2449C23.6825 43.1722 26.1381 44.4848 28.8114 45.0165C31.4847 45.5483 34.2557 45.2754 36.7739 44.2323C39.292 43.1892 41.4444 41.4228 42.9587 39.1565C44.473 36.8902 45.2812 34.2257 45.2812 31.5001C45.2812 27.8451 43.8293 24.3397 41.2448 21.7553C38.6603 19.1708 35.155 17.7188 31.5 17.7188Z" fill="white"/>
</svg>
