<svg width="63" height="63" viewBox="0 0 63 63" fill="none" xmlns="http://www.w3.org/2000/svg">
<path d="M61.0312 13.4737C58.8157 14.4363 56.4716 15.0705 54.073 15.3563C56.5938 13.8802 58.4895 11.5351 59.4046 8.76096C57.0213 10.1546 54.4182 11.1324 51.7068 11.6526C50.565 10.456 49.1918 9.50404 47.6707 8.85465C46.1496 8.20526 44.5124 7.87196 42.8585 7.87502C36.1622 7.87502 30.7433 13.2153 30.7433 19.7983C30.7385 20.7139 30.8434 21.6269 31.0558 22.5176C26.2541 22.2925 21.5523 21.0676 17.2512 18.9213C12.95 16.7749 9.14421 13.7544 6.07729 10.053C5.00133 11.8668 4.43231 13.9364 4.42969 16.0453C4.42969 20.1797 6.5867 23.8342 9.84375 25.9752C7.91404 25.9294 6.02387 25.4187 4.33371 24.4863V24.634C4.33371 30.4172 8.5173 35.2283 14.0544 36.3235C13.0132 36.601 11.9402 36.7417 10.8626 36.7418C10.0979 36.7432 9.33504 36.669 8.58498 36.5203C10.1243 41.2576 14.6044 44.703 19.9114 44.8014C15.5991 48.1248 10.3047 49.9211 4.86035 49.9078C3.89396 49.9064 2.92847 49.8489 1.96875 49.7356C7.50731 53.2722 13.9455 55.1429 20.5168 55.125C42.8326 55.125 55.0241 36.951 55.0241 21.1887C55.0241 20.6719 55.0106 20.1551 54.986 19.6506C57.3523 17.9674 59.3994 15.8757 61.0312 13.4737Z" fill="white"/>
</svg>
