<svg xmlns="http://www.w3.org/2000/svg" xmlns:xlink="http://www.w3.org/1999/xlink" width="167" zoomAndPan="magnify" viewBox="0 0 125.25 162.75" height="217" preserveAspectRatio="xMidYMid meet" version="1.0"><defs><clipPath id="7f92f7fb65"><path d="M 0.0078125 47.894531 L 111.5 47.894531 L 111.5 131.28125 L 0.0078125 131.28125 Z M 0.0078125 47.894531 " clip-rule="nonzero"/></clipPath><clipPath id="e0cccdaceb"><path d="M 9.535156 106.550781 L 112.371094 106.550781 L 112.371094 161.890625 L 9.535156 161.890625 Z M 9.535156 106.550781 " clip-rule="nonzero"/></clipPath><clipPath id="f47f33d447"><path d="M 31 11 L 120 11 L 120 62 L 31 62 Z M 31 11 " clip-rule="nonzero"/></clipPath><clipPath id="9e4505c0a2"><path d="M 36.421875 0.359375 L 124.753906 22.046875 L 114.085938 65.488281 L 25.753906 43.800781 Z M 36.421875 0.359375 " clip-rule="nonzero"/></clipPath><clipPath id="bdb347c5a6"><path d="M 36.421875 0.359375 L 124.753906 22.046875 L 114.085938 65.488281 L 25.753906 43.800781 Z M 36.421875 0.359375 " clip-rule="nonzero"/></clipPath><clipPath id="46bac86766"><path d="M 17.523438 123.59375 L 79.910156 123.59375 L 79.910156 147.683594 L 17.523438 147.683594 Z M 17.523438 123.59375 " clip-rule="nonzero"/></clipPath><clipPath id="0684bad768"><path d="M 61 121.589844 L 71 121.589844 L 71 125 L 61 125 Z M 61 121.589844 " clip-rule="nonzero"/></clipPath><clipPath id="b6dc5314b1"><path d="M 33.171875 96 L 79.398438 96 L 79.398438 119.507812 L 33.171875 119.507812 Z M 33.171875 96 " clip-rule="nonzero"/></clipPath><clipPath id="de7bd3b90d"><path d="M 33.171875 77.757812 L 79.398438 77.757812 L 79.398438 97 L 33.171875 97 Z M 33.171875 77.757812 " clip-rule="nonzero"/></clipPath></defs><g clip-path="url(#7f92f7fb65)"><path fill="#1e5192" d="M 110.996094 99.664062 C 110.714844 97.484375 110.363281 95.71875 110 94.167969 C 109.90625 93.78125 109.820312 93.40625 109.722656 93.042969 C 109.625 92.679688 109.53125 92.328125 109.4375 91.980469 C 109.339844 91.636719 109.242188 91.296875 109.144531 90.964844 C 109.050781 90.628906 108.9375 90.300781 108.835938 89.972656 C 107.796875 86.707031 106.46875 83.566406 104.839844 80.5625 C 104.960938 80.726562 105.082031 80.882812 105.207031 81.042969 C 105.324219 81.199219 105.441406 81.359375 105.554688 81.515625 C 105.789062 81.832031 106.023438 82.148438 106.25 82.476562 C 106.480469 82.808594 106.71875 83.144531 106.949219 83.511719 C 107.179688 83.878906 107.429688 84.265625 107.671875 84.691406 C 108.148438 85.484375 108.914062 87.171875 109.503906 88.691406 C 110.0625 90.128906 110.46875 91.3125 110.746094 92.144531 C 111.03125 92.972656 111.191406 93.449219 111.25 93.492188 C 111.277344 93.511719 111.28125 93.421875 111.25 93.210938 C 111.226562 93.003906 111.164062 92.675781 111.0625 92.222656 C 110.863281 91.316406 110.503906 89.902344 109.84375 87.941406 C 109.695312 87.476562 109.621094 87.167969 109.585938 86.894531 C 109.546875 86.617188 109.539062 86.378906 109.472656 86.078125 C 109.640625 86.457031 109.78125 86.820312 109.921875 87.160156 C 110.066406 87.5 110.1875 87.824219 110.304688 88.125 C 110.417969 88.429688 110.53125 88.707031 110.625 88.96875 C 110.71875 89.230469 110.804688 89.464844 110.878906 89.679688 C 111.039062 90.109375 111.152344 90.445312 111.238281 90.679688 C 111.324219 90.914062 111.378906 91.046875 111.402344 91.070312 C 111.441406 91.113281 111.367188 90.71875 111.128906 89.832031 C 111.007812 89.386719 110.855469 88.820312 110.628906 88.128906 C 110.519531 87.785156 110.402344 87.402344 110.257812 86.996094 C 110.117188 86.589844 109.964844 86.144531 109.785156 85.675781 C 108.355469 81.84375 106.671875 78.402344 104.777344 75.242188 C 102.878906 72.085938 100.773438 69.207031 98.410156 66.546875 C 96.976562 64.929688 95.472656 63.421875 93.914062 62.003906 C 92.351562 60.585938 90.726562 59.257812 89.03125 58.027344 C 87.335938 56.792969 85.574219 55.652344 83.730469 54.597656 C 81.890625 53.550781 79.972656 52.582031 77.960938 51.726562 C 77.558594 51.558594 77.089844 51.367188 76.574219 51.179688 C 76.058594 50.996094 75.503906 50.789062 74.917969 50.609375 C 74.625 50.515625 74.328125 50.421875 74.027344 50.328125 C 73.726562 50.242188 73.421875 50.15625 73.121094 50.066406 C 72.96875 50.023438 72.816406 49.980469 72.664062 49.9375 C 72.511719 49.898438 72.363281 49.859375 72.210938 49.820312 C 71.910156 49.742188 71.613281 49.664062 71.320312 49.585938 C 67.6875 48.683594 63.957031 48.136719 60.199219 47.960938 C 56.449219 47.78125 52.660156 47.96875 48.902344 48.535156 C 45.148438 49.101562 41.425781 50.054688 37.824219 51.386719 C 34.222656 52.71875 30.742188 54.429688 27.457031 56.492188 C 19.765625 61.3125 13.238281 67.925781 8.519531 75.65625 C 6.15625 79.511719 4.253906 83.65625 2.847656 87.949219 C 1.453125 92.253906 0.546875 96.707031 0.191406 101.195312 C 0.0507812 102.902344 -0.0117188 104.574219 0.0117188 106.199219 C 0.0273438 107.820312 0.109375 109.394531 0.257812 110.917969 C 0.414062 112.441406 0.617188 113.910156 0.875 115.3125 C 0.941406 115.664062 1.011719 116.011719 1.082031 116.355469 C 1.117188 116.527344 1.152344 116.699219 1.1875 116.867188 C 1.226562 117.039062 1.261719 117.207031 1.300781 117.375 C 1.378906 117.710938 1.453125 118.042969 1.535156 118.371094 C 1.621094 118.695312 1.707031 119.019531 1.789062 119.339844 C 1.871094 119.660156 1.964844 119.972656 2.054688 120.28125 C 2.148438 120.59375 2.230469 120.898438 2.332031 121.199219 C 2.527344 121.804688 2.714844 122.390625 2.921875 122.957031 C 3.023438 123.242188 3.125 123.523438 3.230469 123.796875 C 3.335938 124.070312 3.441406 124.34375 3.546875 124.609375 C 3.601562 124.742188 3.652344 124.875 3.707031 125.007812 C 3.761719 125.136719 3.816406 125.265625 3.871094 125.394531 C 3.984375 125.652344 4.09375 125.90625 4.199219 126.152344 C 5.082031 128.140625 6.023438 129.828125 6.921875 131.226562 C 5.308594 127.757812 4.019531 124.066406 3.136719 120.296875 C 2.25 116.523438 1.769531 112.675781 1.695312 108.914062 C 1.609375 104.300781 2.125 100.152344 3.074219 95.996094 C 3.550781 93.921875 4.136719 91.839844 4.882812 89.703125 C 5.625 87.566406 6.496094 85.367188 7.585938 83.074219 C 8.242188 81.683594 9.101562 80.503906 9.84375 79.46875 C 9.953125 79.3125 10.054688 79.167969 10.15625 79.035156 C 10.257812 78.902344 10.355469 78.78125 10.449219 78.667969 C 10.636719 78.4375 10.8125 78.234375 10.980469 78.042969 C 11.15625 77.847656 11.328125 77.664062 11.507812 77.464844 C 11.6875 77.265625 11.871094 77.046875 12.085938 76.800781 C 12.300781 76.554688 12.53125 76.273438 12.800781 75.9375 C 12.9375 75.769531 13.085938 75.589844 13.242188 75.394531 C 13.394531 75.195312 13.558594 74.980469 13.746094 74.753906 C 13.925781 74.527344 14.121094 74.28125 14.328125 74.011719 C 14.542969 73.746094 14.769531 73.460938 15.015625 73.15625 C 15.507812 72.542969 16.082031 71.847656 16.753906 71.058594 C 17.285156 70.746094 17.984375 70.230469 18.949219 69.460938 C 19.921875 68.699219 21.15625 67.683594 22.800781 66.425781 C 22.988281 66.28125 22.925781 66.421875 22.71875 66.691406 C 22.617188 66.828125 22.480469 66.996094 22.316406 67.175781 C 22.160156 67.359375 21.980469 67.558594 21.789062 67.753906 C 20.597656 68.96875 19.398438 70.300781 18.3125 71.660156 C 17.226562 73.015625 16.253906 74.398438 15.480469 75.6875 C 16.601562 74.101562 17.820312 72.566406 19.085938 71.125 C 20.105469 69.964844 21.195312 68.800781 22.316406 67.71875 C 23.4375 66.636719 24.589844 65.640625 25.703125 64.800781 C 27.183594 63.699219 28.109375 63.246094 29.285156 62.617188 C 29.433594 62.535156 29.582031 62.453125 29.742188 62.367188 C 29.898438 62.285156 30.0625 62.195312 30.234375 62.105469 C 30.578125 61.914062 30.953125 61.707031 31.375 61.472656 C 31.585938 61.351562 31.808594 61.226562 32.042969 61.089844 C 32.28125 60.960938 32.535156 60.820312 32.800781 60.667969 C 33.0625 60.511719 33.351562 60.359375 33.652344 60.191406 C 33.804688 60.105469 33.957031 60.019531 34.117188 59.929688 C 34.277344 59.839844 34.445312 59.753906 34.617188 59.660156 C 34.917969 59.574219 35.242188 59.46875 35.574219 59.375 C 35.90625 59.285156 36.242188 59.191406 36.558594 59.101562 C 37.199219 58.945312 37.757812 58.820312 38.0625 58.824219 C 38.230469 58.824219 38.078125 58.964844 37.746094 59.199219 C 37.410156 59.425781 36.878906 59.730469 36.28125 60.0625 C 35.851562 60.292969 35.375 60.5625 34.863281 60.84375 C 34.609375 60.980469 34.351562 61.136719 34.085938 61.285156 C 33.953125 61.363281 33.816406 61.4375 33.683594 61.515625 C 33.550781 61.59375 33.414062 61.675781 33.28125 61.753906 C 32.199219 62.390625 31.121094 63.09375 30.21875 63.746094 C 28.746094 64.8125 27.683594 65.757812 26.511719 66.824219 C 26.753906 66.628906 26.972656 66.472656 27.15625 66.339844 C 27.34375 66.207031 27.5 66.097656 27.628906 66.011719 C 27.894531 65.839844 28.0625 65.757812 28.167969 65.722656 C 28.375 65.65625 28.34375 65.789062 28.386719 65.863281 C 28.429688 65.933594 28.546875 65.941406 29.058594 65.636719 C 29.582031 65.34375 30.476562 64.707031 32.183594 63.640625 C 32.421875 63.496094 32.769531 63.300781 33.15625 63.09375 C 33.546875 62.898438 33.972656 62.683594 34.371094 62.503906 C 34.769531 62.328125 35.132812 62.171875 35.390625 62.074219 C 35.644531 61.976562 35.792969 61.933594 35.753906 61.96875 C 35.253906 62.445312 35.222656 62.628906 35.523438 62.574219 C 35.675781 62.546875 35.917969 62.46875 36.234375 62.34375 C 36.390625 62.28125 36.566406 62.203125 36.761719 62.121094 C 36.957031 62.042969 37.167969 61.949219 37.398438 61.851562 C 37.511719 61.800781 37.628906 61.75 37.75 61.695312 C 37.871094 61.644531 38 61.589844 38.128906 61.535156 C 38.390625 61.425781 38.664062 61.308594 38.953125 61.183594 C 39.242188 61.066406 39.546875 60.941406 39.859375 60.816406 C 40.175781 60.6875 40.507812 60.566406 40.84375 60.4375 C 42.199219 59.925781 43.734375 59.421875 45.335938 59.003906 C 46.816406 58.621094 48.5 58.257812 50.238281 57.996094 C 51.972656 57.730469 53.761719 57.570312 55.433594 57.53125 C 57.109375 57.488281 58.664062 57.566406 59.941406 57.71875 C 61.21875 57.863281 62.210938 58.097656 62.773438 58.335938 C 62.828125 58.359375 62.914062 58.382812 63.023438 58.410156 C 63.132812 58.441406 63.265625 58.476562 63.421875 58.511719 C 63.574219 58.546875 63.75 58.585938 63.941406 58.625 C 64.039062 58.644531 64.136719 58.664062 64.238281 58.6875 C 64.34375 58.707031 64.449219 58.730469 64.554688 58.753906 C 64.992188 58.847656 65.46875 58.941406 65.953125 59.050781 C 66.199219 59.101562 66.441406 59.152344 66.683594 59.207031 C 66.925781 59.257812 67.164062 59.3125 67.394531 59.363281 C 68.664062 59.648438 69.761719 59.929688 70.492188 60.175781 C 70.859375 60.296875 71.136719 60.398438 71.300781 60.492188 C 71.460938 60.585938 71.515625 60.65625 71.429688 60.707031 C 71.328125 60.773438 71.472656 60.882812 71.785156 61.027344 C 72.101562 61.164062 72.578125 61.355469 73.152344 61.558594 C 74.296875 61.972656 75.796875 62.515625 77.058594 63.027344 C 82.71875 65.304688 87.964844 68.710938 92.390625 72.96875 C 96.820312 77.226562 100.425781 82.328125 102.960938 87.871094 C 103.140625 88.28125 103.347656 88.71875 103.53125 89.171875 C 103.625 89.398438 103.722656 89.625 103.820312 89.855469 C 103.910156 90.082031 104 90.3125 104.089844 90.539062 C 104.453125 91.445312 104.769531 92.3125 105.019531 92.957031 C 105.152344 93.277344 105.25 93.542969 105.339844 93.730469 C 105.429688 93.914062 105.503906 94.023438 105.550781 94.027344 C 105.597656 94.03125 105.625 93.929688 105.621094 93.707031 C 105.613281 93.480469 105.589844 93.128906 105.503906 92.628906 C 105.4375 92.203125 105.644531 92.53125 105.933594 93.152344 C 106.074219 93.464844 106.242188 93.847656 106.398438 94.25 C 106.550781 94.652344 106.710938 95.070312 106.839844 95.441406 C 107.320312 96.808594 107.769531 98.445312 108.128906 100.074219 C 108.492188 101.703125 108.757812 103.324219 108.972656 104.644531 C 109.089844 105.332031 109.171875 105.898438 109.265625 106.242188 C 109.351562 106.585938 109.433594 106.710938 109.503906 106.515625 C 109.539062 106.417969 109.574219 106.242188 109.601562 105.972656 C 109.628906 105.703125 109.664062 105.34375 109.671875 104.878906 C 109.675781 104.648438 109.679688 104.386719 109.683594 104.101562 C 109.6875 103.816406 109.671875 103.503906 109.664062 103.164062 C 109.660156 102.992188 109.652344 102.8125 109.648438 102.628906 C 109.636719 102.441406 109.625 102.25 109.613281 102.050781 C 109.597656 101.847656 109.585938 101.640625 109.570312 101.425781 C 109.554688 101.210938 109.53125 100.988281 109.511719 100.757812 C 109.300781 98.640625 109.347656 98.070312 109.351562 97.195312 C 109.351562 96.980469 109.339844 96.742188 109.320312 96.457031 C 109.308594 96.316406 109.296875 96.164062 109.273438 95.992188 C 109.253906 95.824219 109.226562 95.640625 109.191406 95.4375 C 109.160156 95.238281 109.125 95.015625 109.078125 94.769531 C 109.027344 94.527344 108.96875 94.265625 108.898438 93.972656 C 108.867188 93.828125 108.832031 93.675781 108.792969 93.515625 C 108.75 93.359375 108.707031 93.195312 108.660156 93.023438 C 108.5625 92.679688 108.46875 92.308594 108.335938 91.90625 C 108.433594 91.867188 108.394531 91.265625 108.652344 91.886719 C 108.75 92.121094 108.84375 92.367188 108.941406 92.621094 C 109.035156 92.878906 109.136719 93.140625 109.238281 93.414062 C 109.328125 93.6875 109.425781 93.972656 109.527344 94.265625 C 109.574219 94.414062 109.628906 94.5625 109.675781 94.71875 C 109.726562 94.871094 109.773438 95.027344 109.824219 95.1875 C 110.21875 96.460938 110.621094 97.929688 110.996094 99.664062 " fill-opacity="1" fill-rule="nonzero"/></g><g clip-path="url(#e0cccdaceb)"><path fill="#1e5192" d="M 38.882812 152.898438 C 39.132812 153.011719 39.382812 153.121094 39.632812 153.234375 C 39.882812 153.34375 40.132812 153.449219 40.386719 153.554688 C 40.886719 153.773438 41.402344 153.960938 41.925781 154.148438 C 42.195312 154.238281 42.46875 154.324219 42.742188 154.40625 C 42.878906 154.449219 43.019531 154.492188 43.15625 154.53125 C 43.296875 154.570312 43.433594 154.609375 43.574219 154.644531 C 43.851562 154.71875 44.132812 154.796875 44.410156 154.867188 C 44.691406 154.933594 44.972656 155.003906 45.253906 155.070312 C 44.980469 154.980469 44.707031 154.894531 44.433594 154.804688 C 44.164062 154.710938 43.890625 154.613281 43.617188 154.515625 C 43.476562 154.46875 43.339844 154.417969 43.203125 154.371094 C 43.0625 154.316406 42.925781 154.265625 42.785156 154.210938 C 42.507812 154.105469 42.222656 154 41.9375 153.886719 C 41.617188 153.789062 41.320312 153.703125 41.039062 153.617188 C 40.761719 153.535156 40.503906 153.445312 40.257812 153.367188 C 39.765625 153.210938 39.324219 153.054688 38.882812 152.898438 Z M 80.355469 155.640625 C 78.878906 156.3125 77.394531 156.984375 75.871094 157.558594 C 76.164062 157.507812 76.421875 157.519531 76.757812 157.398438 C 77.015625 157.304688 77.269531 157.207031 77.527344 157.109375 C 77.65625 157.0625 77.789062 157.011719 77.917969 156.964844 C 78.050781 156.910156 78.179688 156.855469 78.3125 156.804688 C 78.578125 156.695312 78.851562 156.585938 79.128906 156.472656 C 79.40625 156.351562 79.695312 156.226562 79.992188 156.09375 C 81.175781 155.566406 82.535156 154.921875 84.195312 154.007812 C 84.0625 154.066406 83.941406 154.125 83.820312 154.179688 C 83.699219 154.234375 83.582031 154.289062 83.46875 154.335938 C 83.242188 154.433594 83.03125 154.527344 82.835938 154.613281 C 82.449219 154.78125 82.109375 154.910156 81.8125 155.035156 C 81.664062 155.09375 81.527344 155.148438 81.398438 155.203125 C 81.265625 155.257812 81.140625 155.304688 81.023438 155.351562 C 80.785156 155.449219 80.566406 155.542969 80.355469 155.640625 Z M 39.605469 153.496094 C 38.503906 153.078125 37.742188 152.898438 36.84375 152.574219 C 36.960938 152.636719 37.085938 152.699219 37.207031 152.761719 C 37.328125 152.824219 37.453125 152.882812 37.574219 152.945312 C 37.820312 153.066406 38.070312 153.1875 38.316406 153.308594 C 38.5625 153.425781 38.8125 153.539062 39.058594 153.648438 C 39.183594 153.699219 39.308594 153.753906 39.429688 153.804688 C 39.554688 153.859375 39.675781 153.902344 39.800781 153.949219 C 40.105469 154.0625 40.40625 154.175781 40.742188 154.285156 C 41.074219 154.394531 41.4375 154.507812 41.859375 154.636719 C 42.710938 154.878906 43.796875 155.191406 45.390625 155.542969 C 43.71875 155.0625 42.539062 154.617188 41.640625 154.28125 C 40.742188 153.941406 40.132812 153.683594 39.605469 153.496094 Z M 20.472656 139.417969 C 23.816406 143.027344 27.703125 146.214844 32.035156 148.824219 C 33.121094 149.472656 34.226562 150.09375 35.367188 150.667969 C 36.503906 151.242188 37.664062 151.777344 38.847656 152.277344 C 41.222656 153.257812 43.683594 154.089844 46.222656 154.71875 C 47.253906 154.984375 48.308594 155.183594 49.367188 155.371094 L 50.164062 155.492188 L 50.5625 155.554688 L 50.964844 155.605469 C 51.230469 155.644531 51.496094 155.679688 51.761719 155.714844 C 52.027344 155.742188 52.292969 155.773438 52.558594 155.804688 C 53.878906 155.953125 54.566406 155.953125 54.9375 155.921875 C 55.304688 155.890625 55.355469 155.820312 55.414062 155.75 C 55.476562 155.679688 55.542969 155.613281 55.941406 155.574219 C 56.140625 155.554688 56.421875 155.546875 56.824219 155.546875 C 57.027344 155.542969 57.257812 155.542969 57.527344 155.542969 C 57.796875 155.542969 58.101562 155.550781 58.445312 155.546875 C 56.65625 155.476562 54.992188 155.28125 53.101562 155.066406 C 49.472656 154.640625 45.882812 153.816406 42.425781 152.597656 C 38.976562 151.367188 35.65625 149.761719 32.578125 147.789062 L 32.722656 147.726562 L 33.058594 147.933594 L 33.398438 148.132812 L 34.078125 148.535156 C 34.539062 148.789062 34.992188 149.054688 35.460938 149.296875 C 36.390625 149.796875 37.34375 150.25 38.304688 150.6875 C 40.234375 151.546875 42.222656 152.300781 44.273438 152.902344 C 46.320312 153.519531 48.429688 153.988281 50.582031 154.328125 C 51.660156 154.488281 52.75 154.632812 53.851562 154.71875 C 54.398438 154.777344 54.953125 154.800781 55.507812 154.839844 C 55.785156 154.851562 56.066406 154.859375 56.34375 154.871094 L 56.761719 154.886719 C 56.902344 154.894531 57.042969 154.894531 57.183594 154.894531 C 53.121094 154.535156 48.898438 153.765625 44.617188 152.410156 C 40.34375 151.050781 36.007812 149.085938 31.84375 146.363281 C 28.9375 144.46875 26.246094 142.222656 23.828125 139.710938 L 23.601562 139.476562 L 23.378906 139.238281 L 22.933594 138.757812 C 22.640625 138.4375 22.355469 138.105469 22.066406 137.78125 C 21.785156 137.445312 21.5 137.113281 21.226562 136.777344 L 20.613281 136.011719 L 20.414062 135.75 C 19.351562 134.367188 18.363281 132.929688 17.453125 131.445312 L 17.648438 131.363281 C 20.128906 135.335938 23.203125 138.933594 26.726562 142.007812 L 26.6875 141.816406 C 23.335938 138.851562 20.398438 135.410156 17.972656 131.558594 C 15.550781 127.710938 13.640625 123.449219 12.394531 118.851562 C 13.347656 122.066406 14.617188 125.117188 16.15625 127.988281 C 17.699219 130.859375 19.515625 133.546875 21.5625 136.050781 C 23.617188 138.554688 25.902344 140.875 28.425781 142.980469 C 30.953125 145.085938 33.699219 146.992188 36.6875 148.652344 C 37.617188 149.167969 38.585938 149.660156 39.589844 150.125 C 40.59375 150.578125 41.628906 151.015625 42.691406 151.40625 C 44.820312 152.1875 47.054688 152.828125 49.34375 153.292969 C 50.488281 153.523438 51.640625 153.726562 52.804688 153.867188 L 53.242188 153.921875 L 53.675781 153.96875 C 53.96875 154 54.257812 154.039062 54.550781 154.058594 C 54.84375 154.085938 55.132812 154.109375 55.425781 154.132812 C 55.714844 154.160156 56.007812 154.167969 56.296875 154.1875 C 56.878906 154.226562 57.460938 154.234375 58.042969 154.257812 C 58.332031 154.261719 58.621094 154.261719 58.910156 154.265625 L 59.34375 154.269531 L 59.777344 154.261719 C 60.929688 154.253906 62.070312 154.1875 63.195312 154.105469 C 63.496094 154.078125 63.796875 154.054688 64.089844 154.03125 C 64.382812 154 64.671875 153.96875 64.957031 153.9375 C 65.101562 153.921875 65.242188 153.910156 65.382812 153.894531 C 65.523438 153.875 65.664062 153.859375 65.800781 153.839844 C 66.078125 153.804688 66.351562 153.769531 66.621094 153.734375 C 67.15625 153.652344 67.679688 153.585938 68.183594 153.496094 C 68.433594 153.453125 68.679688 153.414062 68.921875 153.375 C 69.164062 153.328125 69.402344 153.285156 69.636719 153.242188 C 71.503906 152.894531 73.070312 152.523438 74.304688 152.234375 C 74.460938 152.199219 74.609375 152.164062 74.753906 152.132812 C 74.898438 152.097656 75.035156 152.066406 75.167969 152.035156 C 75.433594 151.972656 75.679688 151.921875 75.90625 151.878906 C 76.347656 151.78125 76.707031 151.722656 76.96875 151.707031 C 77.496094 151.667969 77.648438 151.792969 77.363281 152.121094 C 77.171875 152.332031 77.519531 152.449219 76.777344 152.957031 C 76.683594 153.019531 76.574219 153.089844 76.445312 153.167969 C 76.3125 153.242188 76.160156 153.320312 75.984375 153.40625 C 75.808594 153.496094 75.605469 153.589844 75.378906 153.695312 C 75.152344 153.792969 74.894531 153.898438 74.605469 154.011719 C 73.457031 154.460938 71.804688 155.019531 69.40625 155.542969 C 68.988281 155.625 68.542969 155.734375 68.074219 155.84375 C 67.839844 155.898438 67.597656 155.957031 67.351562 156.011719 C 67.230469 156.039062 67.105469 156.070312 66.980469 156.101562 C 66.855469 156.128906 66.730469 156.15625 66.605469 156.183594 C 66.351562 156.238281 66.097656 156.292969 65.84375 156.351562 C 65.585938 156.40625 65.328125 156.453125 65.070312 156.507812 C 64.558594 156.613281 64.042969 156.695312 63.542969 156.773438 C 66.417969 156.523438 69.335938 155.976562 71.996094 155.234375 C 73.324219 154.863281 74.582031 154.433594 75.742188 153.988281 C 76.035156 153.875 76.316406 153.761719 76.597656 153.648438 C 76.871094 153.53125 77.140625 153.414062 77.40625 153.300781 C 77.667969 153.1875 77.925781 153.066406 78.171875 152.949219 C 78.417969 152.828125 78.660156 152.714844 78.894531 152.597656 C 80.300781 151.890625 81.585938 151.1875 82.792969 150.488281 C 84 149.789062 85.128906 149.097656 86.210938 148.394531 C 87.289062 147.6875 88.320312 146.96875 89.328125 146.21875 C 90.335938 145.46875 91.316406 144.675781 92.289062 143.824219 C 92.519531 143.625 92.742188 143.429688 92.964844 143.234375 C 93.179688 143.039062 93.398438 142.84375 93.609375 142.652344 C 93.828125 142.460938 94.035156 142.269531 94.242188 142.074219 C 94.449219 141.878906 94.660156 141.691406 94.859375 141.496094 C 95.671875 140.714844 96.453125 139.910156 97.21875 139.003906 C 98.402344 137.59375 99.285156 136.417969 99.980469 135.488281 C 100.675781 134.554688 101.179688 133.863281 101.558594 133.382812 C 101.75 133.144531 101.90625 132.957031 102.039062 132.816406 C 102.167969 132.675781 102.273438 132.585938 102.359375 132.539062 C 102.527344 132.441406 102.613281 132.511719 102.636719 132.699219 C 102.648438 132.785156 102.824219 132.636719 103.066406 132.34375 C 103.183594 132.195312 103.320312 132.011719 103.464844 131.804688 C 103.605469 131.597656 103.753906 131.371094 103.890625 131.128906 C 104.871094 129.40625 105.527344 128.0625 106.058594 126.925781 C 106.1875 126.636719 106.308594 126.363281 106.429688 126.101562 C 106.488281 125.96875 106.542969 125.839844 106.601562 125.710938 C 106.65625 125.582031 106.710938 125.457031 106.761719 125.332031 C 106.871094 125.082031 106.972656 124.839844 107.078125 124.597656 C 107.175781 124.355469 107.273438 124.113281 107.371094 123.871094 C 107.765625 122.902344 108.144531 121.902344 108.589844 120.625 C 109.03125 119.347656 109.535156 117.789062 110.050781 115.664062 C 109.554688 118.332031 108.90625 120.726562 108.148438 122.957031 C 107.398438 125.191406 106.53125 127.253906 105.570312 129.273438 C 105.417969 129.597656 105.222656 130.003906 105.03125 130.433594 C 104.839844 130.859375 104.628906 131.304688 104.449219 131.707031 C 104.074219 132.503906 103.796875 133.128906 103.871094 133.074219 C 104 132.980469 104.199219 132.753906 104.464844 132.414062 C 104.597656 132.242188 104.75 132.050781 104.90625 131.824219 C 105.0625 131.597656 105.230469 131.347656 105.414062 131.074219 C 106.132812 129.972656 106.992188 128.480469 107.816406 126.746094 C 108.640625 125.011719 109.433594 123.042969 110.058594 121.035156 C 110.6875 119.027344 111.164062 116.992188 111.460938 115.164062 C 111.679688 113.792969 111.804688 112.296875 111.925781 111.011719 C 112.070312 109.460938 112.199219 108.074219 112.257812 106.605469 C 112.285156 107.070312 112.316406 107.496094 112.34375 107.941406 C 112.363281 108.390625 112.375 108.859375 112.367188 109.414062 L 112.335938 110.324219 L 112.316406 110.78125 L 112.289062 111.238281 L 112.234375 112.148438 L 112.15625 113.058594 L 112.113281 113.515625 L 112.0625 113.972656 C 112.03125 114.277344 111.996094 114.582031 111.960938 114.886719 C 111.917969 115.1875 111.878906 115.492188 111.835938 115.796875 L 111.769531 116.253906 L 111.695312 116.710938 C 111.644531 117.011719 111.59375 117.316406 111.542969 117.621094 C 111.484375 117.925781 111.425781 118.230469 111.367188 118.535156 C 111.339844 118.683594 111.308594 118.839844 111.277344 118.988281 L 111.175781 119.445312 C 111.109375 119.75 111.046875 120.054688 110.972656 120.359375 C 110.679688 121.574219 110.34375 122.789062 109.957031 124.003906 C 108.238281 129.363281 105.65625 134.472656 102.34375 139.082031 C 99.03125 143.695312 94.976562 147.800781 90.375 151.191406 C 88.488281 152.59375 86.496094 153.855469 84.441406 155.007812 C 83.410156 155.570312 82.367188 156.117188 81.296875 156.617188 C 80.769531 156.875 80.226562 157.109375 79.6875 157.351562 C 79.421875 157.472656 79.144531 157.578125 78.875 157.695312 C 78.601562 157.804688 78.332031 157.925781 78.054688 158.027344 C 75.859375 158.894531 73.613281 159.632812 71.320312 160.203125 C 71.035156 160.277344 70.75 160.351562 70.460938 160.417969 L 69.597656 160.613281 L 69.164062 160.707031 L 68.730469 160.792969 L 67.859375 160.964844 C 66.699219 161.171875 65.53125 161.363281 64.355469 161.496094 C 63.183594 161.644531 62.007812 161.734375 60.828125 161.808594 L 59.941406 161.847656 L 59.5 161.867188 L 59.058594 161.875 L 58.171875 161.890625 C 57.878906 161.894531 57.582031 161.890625 57.285156 161.886719 C 56.105469 161.886719 54.925781 161.828125 53.746094 161.75 L 52.859375 161.679688 L 52.417969 161.640625 L 51.09375 161.5 L 50.214844 161.382812 C 45.523438 160.753906 40.910156 159.496094 36.527344 157.683594 C 36.796875 157.761719 37.074219 157.847656 37.359375 157.933594 C 37.5 157.980469 37.644531 158.027344 37.789062 158.070312 C 37.9375 158.113281 38.085938 158.160156 38.234375 158.207031 C 38.535156 158.296875 38.839844 158.390625 39.152344 158.484375 C 39.464844 158.578125 39.78125 158.671875 40.101562 158.765625 C 41.382812 159.132812 42.726562 159.5 44.042969 159.78125 C 44.371094 159.859375 44.6875 159.914062 44.988281 159.972656 C 45.292969 160.023438 45.578125 160.082031 45.863281 160.121094 C 46.4375 160.203125 46.984375 160.289062 47.570312 160.355469 C 47.007812 160.230469 46.359375 160.039062 45.765625 159.878906 C 45.175781 159.707031 44.636719 159.554688 44.292969 159.472656 C 42.613281 159.09375 41.203125 158.636719 39.925781 158.15625 C 39.28125 157.921875 38.679688 157.660156 38.082031 157.40625 C 37.496094 157.136719 36.914062 156.878906 36.339844 156.585938 C 35.183594 156.019531 34.027344 155.394531 32.742188 154.671875 C 31.457031 153.945312 30.042969 153.121094 28.398438 152.089844 C 28.113281 151.90625 27.894531 151.765625 27.734375 151.660156 C 27.574219 151.546875 27.472656 151.46875 27.417969 151.421875 C 27.304688 151.324219 27.378906 151.339844 27.5625 151.421875 C 27.742188 151.503906 28.03125 151.636719 28.347656 151.785156 C 28.660156 151.929688 29 152.09375 29.292969 152.207031 C 29.875 152.441406 30.234375 152.53125 29.730469 152.121094 C 29.605469 152.019531 29.425781 151.886719 29.183594 151.714844 C 28.941406 151.539062 28.640625 151.320312 28.265625 151.0625 C 27.523438 150.527344 26.488281 149.816406 25.15625 148.773438 C 25.289062 148.828125 25.359375 148.800781 25.558594 148.945312 C 27.058594 150.058594 28.039062 150.640625 28.652344 150.960938 C 29.269531 151.277344 29.519531 151.339844 29.632812 151.304688 C 29.859375 151.238281 29.539062 150.824219 30.496094 151.339844 C 32 152.125 32.875 152.496094 33.253906 152.640625 C 33.636719 152.777344 33.53125 152.6875 33.125 152.445312 C 32.921875 152.320312 32.648438 152.160156 32.320312 151.96875 C 31.992188 151.785156 31.621094 151.550781 31.214844 151.316406 C 30.8125 151.074219 30.386719 150.800781 29.953125 150.53125 C 29.742188 150.390625 29.527344 150.25 29.3125 150.109375 C 29.097656 149.96875 28.886719 149.828125 28.683594 149.683594 C 23.503906 146.125 18.976562 141.613281 15.386719 136.460938 C 15.179688 135.671875 13.699219 133.394531 12.371094 130.792969 C 11.703125 129.496094 11.0625 128.128906 10.566406 126.882812 C 10.4375 126.570312 10.332031 126.265625 10.222656 125.972656 C 10.167969 125.828125 10.117188 125.683594 10.066406 125.546875 C 10.019531 125.40625 9.972656 125.269531 9.929688 125.132812 C 9.84375 124.867188 9.765625 124.617188 9.699219 124.382812 C 9.632812 124.152344 9.582031 123.933594 9.539062 123.742188 C 9.902344 124.699219 10.316406 125.648438 10.738281 126.589844 C 11.175781 127.527344 11.621094 128.460938 12.113281 129.363281 C 12.589844 130.273438 13.109375 131.152344 13.632812 132.015625 C 13.761719 132.230469 13.902344 132.4375 14.035156 132.648438 C 14.171875 132.859375 14.300781 133.074219 14.441406 133.277344 C 14.722656 133.6875 14.988281 134.101562 15.277344 134.496094 C 15.449219 134.734375 15.605469 134.949219 15.746094 135.144531 C 15.894531 135.332031 16.023438 135.496094 16.136719 135.628906 C 16.355469 135.898438 16.496094 136.050781 16.53125 136.050781 C 16.566406 136.046875 16.496094 135.894531 16.289062 135.554688 C 16.078125 135.214844 15.75 134.683594 15.277344 133.921875 C 14.164062 132.097656 13.128906 130.164062 12.394531 128.566406 C 14.625 132.605469 17.375 136.273438 20.535156 139.492188 L 20.472656 139.417969 " fill-opacity="1" fill-rule="nonzero"/></g><path fill="#1e5192" d="M 21.1875 134.515625 C 21.890625 135.484375 22.683594 136.476562 23.558594 137.476562 C 24.429688 138.480469 25.386719 139.488281 26.425781 140.488281 C 28.503906 142.484375 30.925781 144.429688 33.640625 146.164062 C 35 147.027344 36.429688 147.84375 37.921875 148.589844 C 39.414062 149.332031 40.964844 150.007812 42.566406 150.601562 C 44.164062 151.191406 45.808594 151.703125 47.484375 152.125 C 49.15625 152.542969 50.859375 152.871094 52.570312 153.105469 C 54.855469 153.421875 57.085938 153.542969 59.28125 153.523438 C 61.476562 153.484375 63.632812 153.3125 65.773438 152.953125 C 67.914062 152.609375 70.035156 152.085938 72.15625 151.390625 C 73.21875 151.042969 74.273438 150.640625 75.335938 150.199219 C 76.394531 149.75 77.453125 149.246094 78.511719 148.691406 C 80.054688 147.875 81.117188 147.222656 81.808594 146.769531 C 81.980469 146.65625 82.132812 146.558594 82.261719 146.46875 C 82.386719 146.382812 82.496094 146.304688 82.582031 146.242188 C 82.753906 146.113281 82.847656 146.035156 82.867188 146 C 82.910156 145.933594 82.664062 146.039062 82.199219 146.265625 C 81.964844 146.375 81.671875 146.511719 81.332031 146.671875 C 81.164062 146.753906 80.980469 146.835938 80.785156 146.917969 C 80.589844 147.003906 80.382812 147.09375 80.167969 147.191406 C 79.035156 147.664062 78.230469 147.933594 77.765625 148.039062 C 77.296875 148.140625 77.175781 148.089844 77.394531 147.882812 C 77.617188 147.675781 78.175781 147.308594 79.054688 146.746094 C 79.929688 146.183594 81.125 145.421875 82.570312 144.363281 C 84.039062 143.285156 84.65625 142.65625 84.757812 142.457031 C 84.847656 142.25 84.402344 142.4375 83.636719 142.847656 C 80.503906 144.480469 76.929688 145.933594 73.167969 146.859375 C 73.078125 146.882812 72.96875 146.914062 72.847656 146.949219 C 72.726562 146.984375 72.589844 147.023438 72.445312 147.0625 C 72.152344 147.144531 71.824219 147.253906 71.472656 147.347656 C 71.125 147.449219 70.757812 147.5625 70.394531 147.660156 C 70.210938 147.710938 70.03125 147.761719 69.855469 147.8125 C 69.679688 147.859375 69.507812 147.90625 69.34375 147.949219 C 68.816406 148.097656 68.285156 148.214844 67.761719 148.339844 C 67.230469 148.449219 66.710938 148.566406 66.1875 148.652344 C 65.664062 148.75 65.144531 148.816406 64.625 148.894531 C 64.367188 148.925781 64.105469 148.957031 63.847656 148.988281 C 63.589844 149.023438 63.332031 149.046875 63.074219 149.066406 C 61.015625 149.265625 58.980469 149.289062 56.953125 149.214844 C 52.761719 149.035156 48.496094 148.304688 44.328125 146.902344 C 40.167969 145.503906 36.101562 143.441406 32.394531 140.710938 C 35.761719 143.421875 39.578125 145.621094 43.636719 147.199219 C 47.699219 148.78125 52.003906 149.730469 56.347656 150.039062 C 59.496094 150.261719 62.609375 150.167969 65.671875 149.757812 C 68.734375 149.347656 71.746094 148.609375 74.683594 147.546875 L 74.765625 147.742188 C 72.390625 148.75 69.90625 149.558594 67.410156 150.136719 C 67.289062 150.167969 67.167969 150.195312 67.042969 150.226562 C 66.914062 150.25 66.789062 150.277344 66.660156 150.304688 C 66.402344 150.355469 66.140625 150.414062 65.875 150.464844 C 65.339844 150.5625 64.800781 150.664062 64.285156 150.742188 C 63.253906 150.914062 62.320312 151.027344 61.746094 151.132812 C 60.582031 151.335938 59.371094 151.476562 58.117188 151.535156 C 56.867188 151.585938 55.578125 151.566406 54.265625 151.46875 C 51.644531 151.277344 48.933594 150.742188 46.238281 149.902344 C 44.878906 149.476562 43.425781 148.953125 42.105469 148.386719 C 40.785156 147.820312 39.59375 147.210938 38.722656 146.695312 C 37.277344 145.820312 36.164062 145.097656 34.972656 144.359375 C 33.789062 143.617188 32.527344 142.863281 30.867188 141.789062 C 30.621094 141.636719 30.359375 141.445312 30.070312 141.234375 C 29.773438 141.027344 29.46875 140.78125 29.132812 140.519531 C 29.050781 140.453125 28.96875 140.386719 28.882812 140.316406 C 28.796875 140.246094 28.710938 140.175781 28.625 140.101562 C 28.449219 139.953125 28.269531 139.800781 28.085938 139.644531 C 27.90625 139.484375 27.71875 139.316406 27.53125 139.148438 C 27.433594 139.0625 27.335938 138.976562 27.242188 138.886719 C 27.144531 138.796875 27.050781 138.703125 26.953125 138.613281 C 26.757812 138.425781 26.554688 138.242188 26.355469 138.039062 C 26.15625 137.84375 25.953125 137.640625 25.746094 137.433594 C 25.546875 137.222656 25.339844 137.007812 25.128906 136.785156 C 24.917969 136.570312 24.714844 136.335938 24.503906 136.105469 C 23.664062 135.175781 22.808594 134.15625 21.96875 133.058594 C 23.628906 135.390625 25.460938 137.484375 27.40625 139.355469 C 29.351562 141.226562 31.410156 142.875 33.542969 144.300781 C 35.671875 145.730469 37.871094 146.957031 40.121094 147.972656 C 41.246094 148.484375 42.382812 148.949219 43.527344 149.363281 C 44.671875 149.773438 45.828125 150.140625 46.988281 150.460938 C 47.222656 150.527344 47.457031 150.589844 47.6875 150.652344 C 47.917969 150.71875 48.148438 150.769531 48.375 150.832031 C 48.601562 150.890625 48.828125 150.953125 49.054688 151.007812 C 49.28125 151.066406 49.507812 151.121094 49.734375 151.175781 L 50.074219 151.261719 C 50.1875 151.285156 50.300781 151.3125 50.414062 151.339844 C 50.644531 151.390625 50.875 151.445312 51.105469 151.5 C 51.339844 151.546875 51.574219 151.597656 51.8125 151.648438 C 52.050781 151.699219 52.292969 151.753906 52.539062 151.800781 C 52.785156 151.847656 53.035156 151.894531 53.292969 151.945312 C 53.546875 151.992188 53.808594 152.03125 54.074219 152.078125 C 54.34375 152.125 54.613281 152.167969 54.894531 152.207031 C 55.175781 152.246094 55.464844 152.285156 55.757812 152.328125 C 56.941406 152.472656 58.253906 152.589844 59.753906 152.636719 C 55.199219 152.816406 50.816406 152.339844 46.78125 151.335938 C 46.527344 151.277344 46.28125 151.207031 46.03125 151.140625 C 45.78125 151.074219 45.53125 151.011719 45.285156 150.9375 C 44.792969 150.792969 44.300781 150.65625 43.820312 150.496094 C 42.851562 150.191406 41.914062 149.847656 40.992188 149.492188 C 39.160156 148.761719 37.417969 147.953125 35.785156 147.050781 C 34.15625 146.15625 32.621094 145.199219 31.199219 144.183594 C 29.78125 143.171875 28.464844 142.117188 27.253906 141.042969 C 24.828125 138.894531 22.824219 136.664062 21.1875 134.515625 " fill-opacity="1" fill-rule="nonzero"/><path fill="#1e5192" d="M 20.472656 139.417969 C 19.785156 138.566406 18.945312 137.546875 18.117188 136.445312 C 17.292969 135.34375 16.476562 134.164062 15.785156 133.042969 C 15.4375 132.488281 15.128906 131.9375 14.851562 131.429688 C 14.714844 131.171875 14.589844 130.925781 14.472656 130.691406 C 14.417969 130.574219 14.363281 130.460938 14.308594 130.347656 C 14.257812 130.238281 14.210938 130.128906 14.164062 130.023438 C 13.796875 129.183594 13.636719 128.566406 13.730469 128.335938 C 13.734375 128.320312 13.691406 128.214844 13.613281 128.035156 C 13.535156 127.851562 13.425781 127.597656 13.289062 127.296875 C 13.222656 127.144531 13.144531 126.984375 13.070312 126.8125 C 12.996094 126.636719 12.914062 126.457031 12.832031 126.265625 C 12.75 126.078125 12.660156 125.886719 12.578125 125.6875 C 12.492188 125.488281 12.40625 125.285156 12.320312 125.085938 C 11.625 123.476562 10.992188 121.828125 10.765625 121.839844 C 10.765625 121.835938 10.78125 121.777344 10.78125 121.777344 C 10.417969 121.34375 10.398438 121.742188 10.699219 122.859375 C 11.003906 123.96875 11.664062 125.789062 12.800781 128.09375 C 14.828125 132.1875 17.433594 136.054688 20.519531 139.476562 C 20.535156 139.492188 20.472656 139.417969 20.472656 139.417969 " fill-opacity="1" fill-rule="nonzero"/><path fill="#1e5192" d="M 9.621094 105.628906 C 9.621094 105.964844 9.621094 106.289062 9.621094 106.605469 C 9.625 106.925781 9.632812 107.234375 9.640625 107.535156 C 9.644531 107.839844 9.660156 108.132812 9.675781 108.417969 C 9.6875 108.703125 9.695312 108.984375 9.71875 109.253906 C 9.757812 109.796875 9.785156 110.3125 9.839844 110.796875 C 9.863281 111.042969 9.886719 111.28125 9.910156 111.511719 C 9.9375 111.742188 9.964844 111.96875 9.992188 112.1875 C 10.210938 113.945312 10.484375 115.34375 10.785156 116.585938 C 10.878906 116.945312 10.96875 117.246094 11.054688 117.511719 C 11.148438 117.773438 11.242188 118 11.332031 118.207031 C 11.507812 118.625 11.699219 118.972656 11.894531 119.421875 C 11.785156 118.996094 11.667969 118.535156 11.570312 118.0625 C 11.519531 117.828125 11.46875 117.589844 11.417969 117.355469 C 11.375 117.117188 11.328125 116.882812 11.285156 116.65625 C 11.109375 115.734375 10.972656 114.894531 10.855469 114.351562 C 10.820312 114.183594 10.785156 114.019531 10.75 113.855469 C 10.71875 113.691406 10.683594 113.53125 10.652344 113.367188 C 10.589844 113.046875 10.519531 112.726562 10.464844 112.40625 C 10.40625 112.085938 10.347656 111.765625 10.289062 111.441406 C 10.238281 111.117188 10.183594 110.785156 10.128906 110.445312 C 9.921875 109.085938 9.726562 107.574219 9.621094 105.628906 " fill-opacity="1" fill-rule="nonzero"/><path fill="#1e5192" d="M 9.425781 94.675781 C 9.726562 93.296875 10.082031 91.929688 10.503906 90.578125 C 10.925781 89.226562 11.402344 87.890625 11.933594 86.578125 C 12.996094 83.949219 14.296875 81.410156 15.796875 78.988281 L 15.40625 79.375 L 15.023438 79.769531 C 14.308594 80.988281 13.640625 82.234375 13.027344 83.507812 C 12.417969 84.78125 11.863281 86.078125 11.359375 87.394531 C 10.351562 90.027344 9.585938 92.742188 9.035156 95.488281 C 9.15625 95.214844 9.296875 94.945312 9.425781 94.675781 " fill-opacity="1" fill-rule="nonzero"/><path fill="#1e5192" d="M 10.78125 121.777344 C 10.78125 121.777344 10.765625 121.835938 10.765625 121.839844 C 10.164062 119.832031 9.710938 117.871094 9.335938 116.078125 C 8.960938 114.289062 8.675781 112.664062 8.390625 111.320312 C 8.386719 111.296875 8.382812 111.371094 8.382812 111.496094 C 8.382812 111.558594 8.382812 111.632812 8.382812 111.714844 C 8.382812 111.796875 8.386719 111.886719 8.390625 111.980469 C 8.402344 112.351562 8.425781 112.761719 8.441406 112.878906 C 8.949219 115.96875 9.734375 118.917969 10.78125 121.777344 " fill-opacity="1" fill-rule="nonzero"/><path fill="#1e5192" d="M 17.050781 143.175781 C 18.359375 144.582031 19.738281 145.914062 21.183594 147.171875 C 22.625 148.429688 24.136719 149.609375 25.703125 150.707031 L 25.488281 150.402344 C 22.257812 148.054688 19.28125 145.355469 16.621094 142.359375 C 16.761719 142.632812 16.90625 142.902344 17.050781 143.175781 " fill-opacity="1" fill-rule="nonzero"/><path fill="#1e5192" d="M 42.800781 153.019531 C 41.167969 152.480469 39.5625 151.859375 37.992188 151.152344 C 36.425781 150.441406 34.898438 149.648438 33.414062 148.78125 L 33.378906 148.859375 C 34.863281 149.730469 36.394531 150.523438 37.964844 151.234375 C 39.535156 151.941406 41.144531 152.5625 42.78125 153.101562 L 42.800781 153.019531 " fill-opacity="1" fill-rule="nonzero"/><path fill="#1e5192" d="M 21.894531 73.925781 C 21.648438 74.21875 21.386719 74.519531 21.132812 74.828125 C 20.878906 75.144531 20.617188 75.453125 20.378906 75.765625 C 20.136719 76.082031 19.902344 76.382812 19.691406 76.671875 C 19.484375 76.964844 19.292969 77.238281 19.132812 77.480469 C 18.769531 78.046875 18.496094 78.507812 18.269531 78.949219 C 18.15625 79.167969 18.046875 79.378906 17.933594 79.589844 C 17.828125 79.808594 17.722656 80.023438 17.605469 80.253906 C 18.425781 78.96875 19.457031 77.597656 20.222656 76.5625 C 21.253906 75.160156 22.105469 74.023438 23.121094 72.832031 C 22.910156 73.007812 22.707031 73.191406 22.503906 73.375 C 22.300781 73.558594 22.09375 73.738281 21.894531 73.925781 " fill-opacity="1" fill-rule="nonzero"/><path fill="#1e5192" d="M 33.273438 145.003906 C 33.585938 145.214844 33.910156 145.410156 34.230469 145.613281 C 34.550781 145.816406 34.878906 146.003906 35.203125 146.199219 C 35.480469 146.363281 35.769531 146.496094 36.054688 146.648438 C 35.398438 146.285156 34.753906 145.902344 34.113281 145.507812 C 33.835938 145.332031 33.550781 145.179688 33.273438 145.003906 " fill-opacity="1" fill-rule="nonzero"/><path fill="#1e5192" d="M 18.777344 126.660156 C 18.617188 126.324219 18.464844 126.011719 18.320312 125.710938 C 18.183594 125.40625 18.050781 125.113281 17.917969 124.816406 C 17.804688 124.566406 17.683594 124.308594 17.5625 124.054688 C 17.683594 124.339844 17.785156 124.632812 17.917969 124.910156 C 18.050781 125.1875 18.179688 125.46875 18.320312 125.757812 C 18.464844 126.042969 18.613281 126.339844 18.777344 126.660156 " fill-opacity="1" fill-rule="nonzero"/><path fill="#1e5192" d="M 106.429688 112.121094 C 106.378906 112.40625 106.332031 112.695312 106.273438 112.980469 C 106.214844 113.265625 106.160156 113.554688 106.117188 113.847656 C 106.007812 114.542969 105.9375 115.261719 105.820312 115.964844 C 105.890625 115.675781 105.972656 115.394531 106.039062 115.105469 C 106.101562 114.816406 106.164062 114.527344 106.214844 114.230469 C 106.273438 113.886719 106.304688 113.53125 106.339844 113.179688 C 106.382812 112.828125 106.402344 112.472656 106.429688 112.121094 " fill-opacity="1" fill-rule="nonzero"/><g clip-path="url(#f47f33d447)"><g clip-path="url(#9e4505c0a2)"><g clip-path="url(#bdb347c5a6)"><path fill="#1e5192" d="M 115.183594 53.304688 C 115.769531 55.980469 114.398438 61.601562 114.398438 61.601562 C 114.238281 61.664062 114.082031 61.703125 113.929688 61.734375 L 113.953125 57.941406 C 113.953125 57.941406 113.128906 60.261719 112.851562 61.660156 C 111.058594 61.800781 110.296875 60.707031 110.296875 60.707031 C 110.929688 56.160156 112.03125 53.785156 112.734375 52.648438 C 112.515625 52.269531 112.433594 51.824219 112.535156 51.367188 C 112.695312 50.621094 113.308594 50.078125 114.019531 49.972656 L 115.902344 41.84375 L 103.917969 44.074219 C 103.011719 44.246094 102.222656 43.445312 102.410156 42.539062 L 103.070312 39.308594 C 103.152344 38.890625 103.03125 38.46875 102.746094 38.164062 C 88.585938 22.878906 74.539062 20.339844 65.261719 20.894531 C 55.152344 21.503906 48.492188 25.726562 48.210938 25.90625 L 48.199219 25.914062 C 47.90625 26.101562 47.714844 26.386719 47.632812 26.714844 L 46.804688 30.308594 C 46.59375 31.222656 45.53125 31.621094 44.773438 31.066406 L 32.257812 21.945312 C 31.335938 21.269531 31.667969 19.828125 32.785156 19.621094 L 79.304688 11.046875 C 79.65625 10.988281 80.007812 11.0625 80.292969 11.265625 L 119.148438 39.019531 C 120.082031 39.6875 119.757812 41.140625 118.632812 41.359375 L 117.035156 41.648438 L 115.0625 50.148438 C 115.792969 50.496094 116.207031 51.316406 116.03125 52.132812 C 115.925781 52.648438 115.601562 53.058594 115.183594 53.304688 Z M 49.5625 28.03125 C 49.484375 28.066406 49.421875 28.140625 49.398438 28.234375 L 44.628906 47.664062 C 44.570312 47.898438 44.789062 48.109375 45.019531 48.03125 C 48.617188 46.886719 70.445312 41.109375 95.507812 60.527344 C 95.6875 60.660156 95.945312 60.578125 95.996094 60.367188 L 100.996094 40.007812 C 101.019531 39.914062 101 39.808594 100.929688 39.734375 C 99.277344 37.828125 77.875 14 49.5625 28.03125 Z M 49.5625 28.03125 " fill-opacity="1" fill-rule="nonzero"/></g></g></g><g clip-path="url(#46bac86766)"><path fill="#1e5192" d="M 79.617188 125.828125 C 78.644531 124.921875 76.242188 124.058594 70.617188 127.183594 C 68.183594 128.699219 66.867188 129.671875 66.199219 130.210938 C 65.773438 130.554688 65.25 130.761719 64.699219 130.796875 C 61.769531 131 52.519531 131.894531 49.351562 131.832031 C 48.886719 131.824219 48.730469 131.199219 49.042969 130.953125 C 49.273438 130.773438 49.632812 130.683594 50.140625 130.523438 C 51.941406 129.964844 61.933594 130.011719 61.714844 126.269531 C 61.503906 122.6875 54.339844 124.007812 52.214844 124.460938 C 51.386719 124.636719 50.46875 124.773438 49.621094 124.878906 C 49.621094 124.878906 46.539062 125.011719 45.019531 124.648438 C 41.859375 123.824219 35.207031 122.484375 31.003906 125.886719 C 27.617188 128.628906 26.117188 130.4375 25.460938 131.421875 C 25.019531 132.089844 24.414062 132.628906 23.703125 132.996094 L 17.78125 137.164062 C 17.46875 137.382812 17.433594 137.832031 17.703125 138.101562 L 27.421875 147.820312 C 27.683594 148.085938 28.125 148.050781 28.347656 147.75 C 29.683594 145.945312 34.464844 140.648438 44.433594 140.972656 C 56.441406 141.359375 56.519531 141.125 59.152344 139.730469 C 61.21875 138.636719 66.136719 136.878906 68.15625 136.167969 C 68.753906 135.960938 69.304688 135.652344 69.792969 135.25 L 79.550781 127.234375 C 80.003906 126.886719 80.035156 126.214844 79.617188 125.828125 " fill-opacity="1" fill-rule="nonzero"/></g><g clip-path="url(#0684bad768)"><path fill="#1e5192" d="M 61.140625 123.460938 C 61.449219 123.632812 61.71875 123.835938 61.945312 124.0625 C 62.085938 124.203125 62.210938 124.355469 62.320312 124.511719 C 63.039062 124.171875 63.839844 123.8125 64.703125 123.441406 L 64.714844 123.433594 C 66.878906 122.625 68.75 122.191406 70.277344 122.144531 C 69.777344 121.878906 69.152344 121.722656 68.414062 121.679688 C 66.851562 121.585938 64.816406 122.003906 62.367188 122.917969 C 61.941406 123.101562 61.53125 123.285156 61.140625 123.460938 " fill-opacity="1" fill-rule="nonzero"/></g><path fill="#1e5192" d="M 59.859375 129.691406 C 60.433594 129.644531 60.984375 129.601562 61.496094 129.5625 L 61.5 129.5625 C 62.871094 129.457031 64.058594 129.363281 64.8125 129.316406 C 64.941406 129.308594 65.070312 129.28125 65.195312 129.238281 C 65.355469 129.183594 65.503906 129.105469 65.632812 129 C 66.316406 128.449219 67.632812 127.480469 70.019531 126.003906 L 70.046875 125.988281 L 70.066406 125.972656 C 70.75 125.597656 71.414062 125.265625 72.046875 124.984375 C 72.667969 124.714844 73.265625 124.5 73.820312 124.335938 C 73.898438 124.3125 73.972656 124.289062 74.050781 124.269531 C 73.964844 124.191406 73.867188 124.121094 73.765625 124.054688 C 73.195312 123.679688 72.433594 123.476562 71.503906 123.445312 C 70.015625 123.394531 68.117188 123.792969 65.859375 124.625 C 64.832031 125.0625 63.902344 125.480469 63.101562 125.871094 C 63.101562 125.90625 63.105469 125.941406 63.109375 125.976562 C 63.214844 127.628906 62.121094 128.875 59.859375 129.691406 " fill-opacity="1" fill-rule="nonzero"/><g clip-path="url(#b6dc5314b1)"><path fill="#1e5192" d="M 79.1875 114.921875 L 79.1875 96.859375 C 78.945312 97.097656 78.679688 97.328125 78.40625 97.535156 C 78.15625 97.730469 77.898438 97.90625 77.625 98.074219 C 76.738281 98.613281 75.746094 98.984375 74.710938 99.144531 C 73.316406 99.359375 71.875 99.273438 70.464844 99.273438 L 60.492188 99.273438 C 60.453125 99.273438 60.417969 99.273438 60.382812 99.269531 L 60.382812 99.914062 C 60.382812 99.992188 60.386719 100.066406 60.382812 100.144531 C 60.359375 100.566406 60.046875 100.878906 59.625 100.898438 C 58.882812 100.933594 58.128906 100.898438 57.378906 100.898438 L 53.746094 100.898438 C 53.425781 100.898438 53.109375 100.902344 52.792969 100.898438 C 52.320312 100.886719 51.992188 100.570312 51.984375 100.09375 C 51.980469 99.820312 51.980469 99.546875 51.980469 99.273438 C 51.949219 99.28125 51.914062 99.28125 51.882812 99.28125 C 51.859375 99.28125 51.835938 99.28125 51.8125 99.28125 C 50.398438 99.300781 48.976562 99.28125 47.5625 99.28125 L 41.238281 99.28125 C 39.675781 99.28125 38.078125 99.378906 36.566406 98.894531 C 35.9375 98.691406 35.324219 98.414062 34.746094 98.078125 C 34.476562 97.917969 34.214844 97.746094 33.964844 97.558594 C 33.6875 97.347656 33.429688 97.125 33.183594 96.886719 L 33.183594 116.570312 C 33.183594 116.71875 33.179688 116.863281 33.1875 117.007812 C 33.292969 118.382812 34.414062 119.445312 35.792969 119.464844 C 36.128906 119.472656 36.464844 119.464844 36.800781 119.464844 L 75.167969 119.464844 C 75.617188 119.464844 76.070312 119.464844 76.519531 119.464844 C 78.039062 119.460938 79.183594 118.265625 79.1875 116.757812 C 79.1875 116.132812 79.1875 115.53125 79.1875 114.921875 Z M 79.1875 114.921875 " fill-opacity="1" fill-rule="nonzero"/></g><g clip-path="url(#de7bd3b90d)"><path fill="#1e5192" d="M 79.175781 88.808594 L 79.175781 87.015625 C 79.078125 85.652344 77.964844 84.582031 76.582031 84.558594 C 76.488281 84.558594 76.398438 84.558594 76.304688 84.558594 L 65.144531 84.558594 L 65.144531 80.671875 C 65.144531 79.878906 64.921875 79.128906 64.347656 78.558594 C 63.8125 78.015625 63.089844 77.765625 62.332031 77.761719 C 61.652344 77.761719 60.976562 77.761719 60.292969 77.761719 L 50.324219 77.761719 C 50.195312 77.761719 50.066406 77.757812 49.941406 77.761719 C 48.445312 77.792969 47.269531 78.972656 47.234375 80.46875 C 47.203125 81.828125 47.21875 83.195312 47.226562 84.558594 L 36.347656 84.558594 C 36.1875 84.558594 36.03125 84.558594 35.871094 84.558594 C 35.171875 84.558594 34.523438 84.800781 34.007812 85.277344 C 33.507812 85.746094 33.242188 86.386719 33.199219 87.058594 L 33.199219 89.582031 C 33.199219 89.945312 33.199219 90.304688 33.199219 90.671875 C 33.199219 90.828125 33.199219 90.976562 33.210938 91.132812 C 33.214844 91.242188 33.226562 91.347656 33.234375 91.457031 C 33.234375 91.472656 33.242188 91.488281 33.242188 91.503906 C 33.265625 91.65625 33.289062 91.804688 33.320312 91.949219 C 33.398438 92.316406 33.511719 92.675781 33.640625 93.023438 C 33.640625 93.027344 33.640625 93.027344 33.648438 93.035156 C 33.648438 93.039062 33.648438 93.039062 33.652344 93.042969 C 33.65625 93.054688 33.65625 93.058594 33.664062 93.070312 C 33.695312 93.144531 33.730469 93.214844 33.765625 93.289062 C 33.835938 93.425781 33.902344 93.554688 33.976562 93.683594 C 33.984375 93.707031 33.996094 93.726562 34.011719 93.742188 C 34.109375 93.910156 34.214844 94.074219 34.328125 94.230469 C 34.375 94.296875 34.429688 94.355469 34.46875 94.421875 C 34.464844 94.414062 34.460938 94.402344 34.453125 94.390625 C 34.464844 94.40625 34.46875 94.417969 34.480469 94.429688 C 34.570312 94.539062 34.664062 94.648438 34.761719 94.75 C 34.910156 94.914062 35.074219 95.070312 35.238281 95.21875 C 35.308594 95.28125 35.375 95.339844 35.449219 95.398438 C 35.457031 95.40625 35.472656 95.417969 35.488281 95.429688 C 35.578125 95.484375 35.613281 95.507812 35.621094 95.511719 C 35.613281 95.511719 35.589844 95.492188 35.550781 95.46875 C 35.660156 95.542969 35.765625 95.625 35.875 95.699219 C 36.167969 95.886719 36.46875 96.054688 36.78125 96.199219 C 37.082031 96.292969 36.921875 96.253906 36.824219 96.21875 C 36.832031 96.222656 36.839844 96.222656 36.847656 96.230469 C 36.9375 96.261719 37.019531 96.296875 37.109375 96.324219 C 37.273438 96.378906 37.441406 96.433594 37.609375 96.480469 C 37.789062 96.527344 37.972656 96.566406 38.160156 96.605469 C 38.222656 96.613281 38.285156 96.625 38.347656 96.636719 C 38.382812 96.640625 38.421875 96.640625 38.453125 96.644531 C 38.914062 96.6875 39.382812 96.675781 39.847656 96.675781 L 51.898438 96.675781 C 51.933594 96.675781 51.96875 96.675781 52.007812 96.683594 L 52.007812 95.429688 C 52.007812 95.0625 51.953125 94.671875 52.25 94.402344 C 52.503906 94.167969 52.839844 94.203125 53.15625 94.203125 L 59.453125 94.203125 C 59.515625 94.203125 59.585938 94.203125 59.648438 94.203125 C 60.054688 94.226562 60.339844 94.507812 60.390625 94.898438 C 60.398438 94.917969 60.398438 94.9375 60.398438 94.960938 C 60.398438 94.96875 60.398438 94.980469 60.398438 94.992188 L 60.398438 96.6875 C 60.433594 96.683594 60.46875 96.683594 60.507812 96.683594 L 60.574219 96.683594 C 61.953125 96.65625 63.332031 96.683594 64.707031 96.683594 L 73.285156 96.683594 C 73.507812 96.683594 73.726562 96.671875 73.953125 96.652344 C 73.992188 96.644531 74.039062 96.640625 74.082031 96.636719 C 74.132812 96.625 74.191406 96.621094 74.242188 96.609375 C 74.425781 96.574219 74.613281 96.535156 74.792969 96.484375 C 74.976562 96.4375 75.152344 96.378906 75.332031 96.316406 C 75.414062 96.285156 75.492188 96.253906 75.574219 96.222656 C 75.898438 96.074219 76.207031 95.914062 76.503906 95.71875 C 76.601562 95.65625 76.695312 95.59375 76.789062 95.527344 C 76.8125 95.507812 76.898438 95.445312 76.933594 95.417969 C 76.933594 95.417969 76.9375 95.414062 76.9375 95.414062 C 76.945312 95.40625 76.953125 95.402344 76.953125 95.398438 C 77.027344 95.339844 77.09375 95.277344 77.164062 95.21875 C 77.328125 95.074219 77.484375 94.917969 77.640625 94.75 C 77.742188 94.648438 77.835938 94.542969 77.921875 94.429688 C 77.929688 94.417969 77.9375 94.414062 77.945312 94.402344 C 77.984375 94.335938 78.042969 94.265625 78.089844 94.203125 C 78.1875 94.0625 78.28125 93.917969 78.367188 93.773438 C 78.382812 93.742188 78.402344 93.710938 78.417969 93.683594 C 78.496094 93.542969 78.574219 93.402344 78.640625 93.257812 C 78.671875 93.191406 78.710938 93.117188 78.742188 93.050781 C 78.871094 92.707031 78.984375 92.355469 79.0625 91.992188 C 79.089844 91.878906 79.109375 91.757812 79.128906 91.644531 C 79.128906 91.644531 79.128906 91.640625 79.128906 91.640625 C 79.128906 91.640625 79.128906 91.632812 79.128906 91.632812 C 79.128906 91.628906 79.128906 91.625 79.128906 91.617188 C 79.128906 91.613281 79.128906 91.609375 79.136719 91.601562 C 79.140625 91.550781 79.152344 91.484375 79.15625 91.441406 C 79.167969 91.347656 79.171875 91.25 79.175781 91.15625 C 79.183594 91.003906 79.1875 90.851562 79.191406 90.703125 L 79.191406 89.671875 C 79.183594 89.363281 79.175781 89.089844 79.175781 88.808594 Z M 62.558594 80.488281 C 62.558594 80.496094 62.558594 80.5 62.5625 80.5 C 62.5625 80.5 62.5625 80.503906 62.5625 80.503906 C 62.566406 80.53125 62.574219 80.546875 62.5625 80.519531 C 62.558594 80.527344 62.546875 80.515625 62.542969 80.503906 C 62.566406 81.859375 62.558594 83.210938 62.546875 84.566406 L 49.832031 84.566406 L 49.832031 80.78125 C 49.832031 80.691406 49.832031 80.597656 49.832031 80.511719 C 49.816406 80.53125 49.804688 80.535156 49.800781 80.53125 C 49.789062 80.546875 49.789062 80.515625 49.792969 80.480469 C 49.769531 80.511719 49.753906 80.515625 49.792969 80.46875 C 49.792969 80.449219 49.800781 80.433594 49.804688 80.410156 C 49.804688 80.410156 49.804688 80.410156 49.800781 80.410156 C 49.800781 80.410156 49.800781 80.410156 49.804688 80.410156 C 49.808594 80.402344 49.808594 80.386719 49.816406 80.375 C 49.777344 80.375 49.789062 80.363281 49.820312 80.359375 C 49.824219 80.332031 49.835938 80.324219 49.835938 80.355469 C 49.847656 80.355469 49.855469 80.347656 49.871094 80.347656 C 49.871094 80.34375 49.871094 80.34375 49.871094 80.339844 C 49.871094 80.339844 49.871094 80.34375 49.871094 80.34375 C 49.894531 80.339844 49.910156 80.339844 49.929688 80.332031 C 49.949219 80.3125 49.960938 80.308594 49.964844 80.300781 C 49.960938 80.308594 49.949219 80.316406 49.933594 80.332031 C 49.976562 80.328125 50.007812 80.328125 49.992188 80.339844 C 49.996094 80.34375 49.992188 80.355469 49.972656 80.371094 C 50.011719 80.371094 50.054688 80.371094 50.097656 80.371094 L 61.96875 80.371094 C 62.125 80.371094 62.277344 80.363281 62.433594 80.371094 C 62.421875 80.363281 62.417969 80.363281 62.410156 80.359375 C 62.375 80.339844 62.386719 80.332031 62.410156 80.328125 C 62.394531 80.316406 62.402344 80.316406 62.417969 80.328125 C 62.421875 80.328125 62.433594 80.328125 62.4375 80.328125 C 62.417969 80.3125 62.40625 80.300781 62.402344 80.296875 C 62.402344 80.296875 62.417969 80.308594 62.441406 80.328125 C 62.464844 80.328125 62.484375 80.332031 62.503906 80.332031 C 62.515625 80.332031 62.519531 80.339844 62.53125 80.339844 C 62.53125 80.328125 62.53125 80.324219 62.535156 80.324219 C 62.535156 80.324219 62.542969 80.328125 62.542969 80.339844 C 62.589844 80.347656 62.609375 80.359375 62.542969 80.363281 C 62.542969 80.375 62.542969 80.378906 62.542969 80.390625 C 62.558594 80.394531 62.566406 80.402344 62.574219 80.402344 C 62.566406 80.402344 62.550781 80.402344 62.542969 80.394531 L 62.542969 80.402344 C 62.546875 80.40625 62.558594 80.410156 62.566406 80.421875 C 62.5625 80.421875 62.558594 80.417969 62.546875 80.410156 C 62.546875 80.421875 62.550781 80.425781 62.550781 80.4375 C 62.566406 80.457031 62.589844 80.480469 62.605469 80.488281 C 62.589844 80.480469 62.574219 80.464844 62.558594 80.453125 C 62.558594 80.472656 62.558594 80.480469 62.558594 80.488281 Z M 62.558594 80.488281 " fill-opacity="1" fill-rule="nonzero"/></g></svg>