<svg xmlns="http://www.w3.org/2000/svg" xmlns:xlink="http://www.w3.org/1999/xlink" width="620" zoomAndPan="magnify" viewBox="0 0 464.87997 227.999995" height="304" preserveAspectRatio="xMidYMid meet" version="1.0"><defs><g/><clipPath id="ead487b9b8"><path d="M 175.796875 47.835938 L 287.929688 47.835938 L 287.929688 131.703125 L 175.796875 131.703125 Z M 175.796875 47.835938 " clip-rule="nonzero"/></clipPath><clipPath id="33ca5e7438"><path d="M 185.378906 106.828125 L 288.804688 106.828125 L 288.804688 162.488281 L 185.378906 162.488281 Z M 185.378906 106.828125 " clip-rule="nonzero"/></clipPath><clipPath id="a8bb8c081d"><path d="M 207 10 L 297 10 L 297 62 L 207 62 Z M 207 10 " clip-rule="nonzero"/></clipPath><clipPath id="7c70ff4c5d"><path d="M 212.421875 0.03125 L 301.257812 21.839844 L 290.53125 65.53125 L 201.691406 43.71875 Z M 212.421875 0.03125 " clip-rule="nonzero"/></clipPath><clipPath id="0fb98ea9ab"><path d="M 212.421875 0.03125 L 301.257812 21.839844 L 290.53125 65.53125 L 201.691406 43.71875 Z M 212.421875 0.03125 " clip-rule="nonzero"/></clipPath><clipPath id="f7a51afc8f"><path d="M 193.414062 124 L 256.160156 124 L 256.160156 148.195312 L 193.414062 148.195312 Z M 193.414062 124 " clip-rule="nonzero"/></clipPath><clipPath id="610150e85c"><path d="M 209.15625 97 L 255.644531 97 L 255.644531 119.859375 L 209.15625 119.859375 Z M 209.15625 97 " clip-rule="nonzero"/></clipPath><clipPath id="9ccdc99d6c"><path d="M 209.15625 77.867188 L 255.644531 77.867188 L 255.644531 97 L 209.15625 97 Z M 209.15625 77.867188 " clip-rule="nonzero"/></clipPath></defs><g clip-path="url(#ead487b9b8)"><path fill="#1e5192" d="M 287.425781 99.902344 C 287.140625 97.710938 286.785156 95.933594 286.421875 94.375 C 286.324219 93.988281 286.242188 93.609375 286.144531 93.242188 C 286.046875 92.878906 285.953125 92.523438 285.859375 92.175781 C 285.757812 91.828125 285.65625 91.488281 285.558594 91.152344 C 285.464844 90.8125 285.351562 90.484375 285.25 90.15625 C 284.203125 86.871094 282.867188 83.710938 281.230469 80.691406 C 281.355469 80.855469 281.476562 81.015625 281.597656 81.171875 C 281.71875 81.332031 281.835938 81.492188 281.953125 81.652344 C 282.1875 81.96875 282.421875 82.285156 282.652344 82.617188 C 282.878906 82.949219 283.121094 83.289062 283.351562 83.660156 C 283.585938 84.027344 283.839844 84.414062 284.082031 84.84375 C 284.558594 85.640625 285.332031 87.335938 285.921875 88.867188 C 286.484375 90.3125 286.894531 91.5 287.171875 92.335938 C 287.457031 93.171875 287.617188 93.652344 287.675781 93.691406 C 287.707031 93.714844 287.707031 93.621094 287.679688 93.414062 C 287.65625 93.203125 287.589844 92.875 287.488281 92.417969 C 287.292969 91.507812 286.929688 90.082031 286.265625 88.113281 C 286.113281 87.648438 286.039062 87.335938 286.003906 87.058594 C 285.964844 86.78125 285.957031 86.542969 285.890625 86.238281 C 286.058594 86.617188 286.199219 86.984375 286.34375 87.328125 C 286.488281 87.667969 286.609375 87.996094 286.726562 88.296875 C 286.84375 88.601562 286.957031 88.882812 287.050781 89.144531 C 287.144531 89.40625 287.230469 89.644531 287.308594 89.863281 C 287.46875 90.292969 287.582031 90.632812 287.667969 90.867188 C 287.753906 91.101562 287.808594 91.234375 287.828125 91.257812 C 287.871094 91.304688 287.796875 90.90625 287.558594 90.011719 C 287.433594 89.566406 287.28125 88.996094 287.054688 88.300781 C 286.945312 87.953125 286.824219 87.570312 286.679688 87.164062 C 286.539062 86.75 286.386719 86.304688 286.203125 85.832031 C 284.769531 81.980469 283.074219 78.519531 281.167969 75.339844 C 279.261719 72.167969 277.140625 69.273438 274.765625 66.59375 C 273.324219 64.96875 271.8125 63.453125 270.242188 62.023438 C 268.671875 60.601562 267.039062 59.265625 265.332031 58.027344 C 263.628906 56.789062 261.855469 55.636719 260 54.578125 C 258.148438 53.523438 256.21875 52.550781 254.199219 51.6875 C 253.792969 51.523438 253.324219 51.328125 252.804688 51.140625 C 252.285156 50.953125 251.726562 50.75 251.136719 50.566406 C 250.84375 50.472656 250.542969 50.378906 250.242188 50.285156 C 249.941406 50.195312 249.636719 50.109375 249.332031 50.023438 C 249.175781 49.976562 249.023438 49.933594 248.875 49.890625 C 248.71875 49.851562 248.566406 49.8125 248.417969 49.773438 C 248.113281 49.695312 247.8125 49.613281 247.519531 49.539062 C 243.867188 48.628906 240.113281 48.082031 236.335938 47.902344 C 232.5625 47.722656 228.753906 47.910156 224.972656 48.480469 C 221.195312 49.050781 217.453125 50.007812 213.832031 51.347656 C 210.210938 52.6875 206.707031 54.40625 203.40625 56.480469 C 195.671875 61.328125 189.105469 67.984375 184.359375 75.753906 C 181.980469 79.636719 180.070312 83.800781 178.652344 88.121094 C 177.253906 92.449219 176.339844 96.929688 175.980469 101.441406 C 175.839844 103.160156 175.78125 104.839844 175.800781 106.472656 C 175.820312 108.105469 175.902344 109.691406 176.050781 111.222656 C 176.207031 112.75 176.414062 114.226562 176.671875 115.640625 C 176.738281 115.996094 176.808594 116.34375 176.878906 116.691406 C 176.914062 116.863281 176.949219 117.035156 176.984375 117.207031 C 177.023438 117.375 177.0625 117.546875 177.101562 117.714844 C 177.179688 118.050781 177.253906 118.386719 177.335938 118.714844 C 177.421875 119.042969 177.507812 119.367188 177.589844 119.6875 C 177.671875 120.011719 177.769531 120.324219 177.859375 120.636719 C 177.953125 120.949219 178.035156 121.261719 178.136719 121.5625 C 178.332031 122.167969 178.519531 122.761719 178.730469 123.332031 C 178.832031 123.617188 178.933594 123.898438 179.039062 124.175781 C 179.148438 124.449219 179.253906 124.722656 179.359375 124.992188 C 179.414062 125.125 179.464844 125.257812 179.519531 125.390625 C 179.574219 125.523438 179.628906 125.652344 179.683594 125.78125 C 179.796875 126.039062 179.90625 126.292969 180.015625 126.542969 C 180.902344 128.542969 181.847656 130.242188 182.75 131.644531 C 181.128906 128.15625 179.832031 124.445312 178.945312 120.652344 C 178.054688 116.859375 177.574219 112.988281 177.496094 109.207031 C 177.410156 104.566406 177.929688 100.390625 178.882812 96.214844 C 179.363281 94.128906 179.953125 92.03125 180.699219 89.882812 C 181.445312 87.738281 182.324219 85.523438 183.421875 83.214844 C 184.082031 81.820312 184.945312 80.632812 185.691406 79.589844 C 185.800781 79.433594 185.902344 79.289062 186.007812 79.15625 C 186.109375 79.023438 186.207031 78.898438 186.300781 78.785156 C 186.492188 78.554688 186.664062 78.351562 186.835938 78.15625 C 187.011719 77.960938 187.183594 77.773438 187.363281 77.574219 C 187.546875 77.375 187.730469 77.15625 187.949219 76.910156 C 188.164062 76.660156 188.394531 76.375 188.667969 76.039062 C 188.804688 75.871094 188.949219 75.691406 189.105469 75.492188 C 189.265625 75.292969 189.429688 75.078125 189.613281 74.851562 C 189.796875 74.621094 189.992188 74.371094 190.203125 74.101562 C 190.417969 73.835938 190.644531 73.550781 190.894531 73.242188 C 191.390625 72.625 191.964844 71.925781 192.640625 71.132812 C 193.175781 70.820312 193.878906 70.300781 194.847656 69.527344 C 195.824219 68.761719 197.066406 67.738281 198.722656 66.472656 C 198.910156 66.328125 198.847656 66.46875 198.640625 66.742188 C 198.539062 66.878906 198.398438 67.046875 198.238281 67.226562 C 198.078125 67.410156 197.898438 67.613281 197.707031 67.808594 C 196.507812 69.03125 195.300781 70.371094 194.207031 71.738281 C 193.113281 73.101562 192.136719 74.492188 191.363281 75.785156 C 192.488281 74.195312 193.714844 72.648438 194.988281 71.199219 C 196.011719 70.035156 197.109375 68.863281 198.234375 67.773438 C 199.363281 66.6875 200.519531 65.683594 201.640625 64.839844 C 203.128906 63.730469 204.058594 63.277344 205.246094 62.640625 C 205.390625 62.5625 205.542969 62.480469 205.703125 62.394531 C 205.863281 62.308594 206.027344 62.21875 206.199219 62.125 C 206.542969 61.9375 206.921875 61.726562 207.347656 61.492188 C 207.558594 61.371094 207.78125 61.242188 208.019531 61.109375 C 208.257812 60.976562 208.511719 60.835938 208.777344 60.683594 C 209.042969 60.527344 209.332031 60.375 209.636719 60.203125 C 209.789062 60.117188 209.945312 60.03125 210.105469 59.941406 C 210.265625 59.851562 210.433594 59.761719 210.605469 59.667969 C 210.910156 59.582031 211.234375 59.476562 211.570312 59.382812 C 211.902344 59.292969 212.242188 59.195312 212.558594 59.109375 C 213.203125 58.949219 213.765625 58.824219 214.070312 58.828125 C 214.238281 58.828125 214.089844 58.96875 213.753906 59.203125 C 213.414062 59.433594 212.882812 59.738281 212.28125 60.074219 C 211.847656 60.304688 211.371094 60.578125 210.855469 60.859375 C 210.597656 61 210.339844 61.152344 210.070312 61.304688 C 209.9375 61.382812 209.804688 61.457031 209.667969 61.535156 C 209.53125 61.613281 209.398438 61.695312 209.261719 61.777344 C 208.175781 62.414062 207.09375 63.125 206.183594 63.777344 C 204.703125 64.851562 203.632812 65.800781 202.453125 66.875 C 202.699219 66.675781 202.917969 66.523438 203.105469 66.386719 C 203.292969 66.25 203.449219 66.144531 203.582031 66.054688 C 203.847656 65.882812 204.015625 65.804688 204.121094 65.769531 C 204.332031 65.699219 204.296875 65.835938 204.339844 65.90625 C 204.382812 65.980469 204.503906 65.988281 205.015625 65.679688 C 205.542969 65.386719 206.441406 64.742188 208.160156 63.671875 C 208.398438 63.527344 208.746094 63.328125 209.136719 63.125 C 209.53125 62.925781 209.960938 62.710938 210.359375 62.53125 C 210.761719 62.355469 211.125 62.195312 211.382812 62.097656 C 211.640625 62 211.789062 61.953125 211.75 61.992188 C 211.246094 62.46875 211.214844 62.65625 211.519531 62.597656 C 211.671875 62.574219 211.914062 62.496094 212.230469 62.367188 C 212.390625 62.304688 212.566406 62.226562 212.761719 62.144531 C 212.957031 62.0625 213.171875 61.972656 213.402344 61.871094 C 213.515625 61.820312 213.636719 61.769531 213.757812 61.714844 C 213.882812 61.664062 214.007812 61.609375 214.140625 61.554688 C 214.402344 61.441406 214.679688 61.324219 214.96875 61.203125 C 215.257812 61.082031 215.5625 60.960938 215.882812 60.832031 C 216.199219 60.703125 216.53125 60.582031 216.871094 60.449219 C 218.234375 59.9375 219.777344 59.429688 221.390625 59.011719 C 222.878906 58.621094 224.570312 58.257812 226.316406 57.996094 C 228.0625 57.730469 229.859375 57.566406 231.542969 57.527344 C 233.226562 57.484375 234.792969 57.5625 236.074219 57.714844 C 237.359375 57.863281 238.359375 58.097656 238.925781 58.335938 C 238.980469 58.359375 239.066406 58.386719 239.175781 58.414062 C 239.285156 58.445312 239.417969 58.476562 239.574219 58.515625 C 239.730469 58.550781 239.90625 58.589844 240.101562 58.628906 C 240.195312 58.648438 240.296875 58.667969 240.398438 58.691406 C 240.503906 58.710938 240.609375 58.734375 240.71875 58.757812 C 241.15625 58.851562 241.636719 58.945312 242.125 59.054688 C 242.367188 59.109375 242.613281 59.160156 242.855469 59.210938 C 243.101562 59.265625 243.339844 59.320312 243.574219 59.371094 C 244.851562 59.65625 245.949219 59.9375 246.6875 60.1875 C 247.054688 60.3125 247.335938 60.414062 247.5 60.507812 C 247.664062 60.601562 247.714844 60.671875 247.628906 60.722656 C 247.527344 60.789062 247.671875 60.898438 247.988281 61.042969 C 248.304688 61.183594 248.785156 61.375 249.363281 61.578125 C 250.511719 61.996094 252.023438 62.542969 253.289062 63.058594 C 258.984375 65.34375 264.257812 68.769531 268.710938 73.054688 C 273.164062 77.335938 276.792969 82.464844 279.339844 88.042969 C 279.523438 88.453125 279.730469 88.890625 279.914062 89.347656 C 280.011719 89.578125 280.109375 89.804688 280.203125 90.035156 C 280.296875 90.265625 280.386719 90.496094 280.476562 90.726562 C 280.84375 91.636719 281.160156 92.507812 281.414062 93.15625 C 281.542969 93.476562 281.644531 93.746094 281.734375 93.933594 C 281.824219 94.121094 281.898438 94.226562 281.945312 94.230469 C 281.996094 94.234375 282.019531 94.136719 282.015625 93.910156 C 282.011719 93.683594 281.984375 93.328125 281.902344 92.828125 C 281.832031 92.402344 282.039062 92.726562 282.332031 93.351562 C 282.472656 93.667969 282.640625 94.054688 282.800781 94.457031 C 282.953125 94.863281 283.113281 95.28125 283.242188 95.65625 C 283.726562 97.03125 284.175781 98.679688 284.539062 100.316406 C 284.902344 101.953125 285.171875 103.582031 285.386719 104.910156 C 285.503906 105.601562 285.589844 106.171875 285.679688 106.515625 C 285.769531 106.863281 285.851562 106.988281 285.921875 106.792969 C 285.960938 106.695312 285.992188 106.515625 286.023438 106.246094 C 286.050781 105.976562 286.085938 105.613281 286.089844 105.148438 C 286.097656 104.914062 286.101562 104.652344 286.101562 104.367188 C 286.105469 104.078125 286.09375 103.765625 286.085938 103.421875 C 286.078125 103.25 286.074219 103.070312 286.066406 102.882812 C 286.054688 102.695312 286.042969 102.503906 286.03125 102.300781 C 286.019531 102.101562 286.003906 101.890625 285.988281 101.675781 C 285.976562 101.457031 285.949219 101.234375 285.929688 101 C 285.714844 98.875 285.765625 98.300781 285.769531 97.421875 C 285.769531 97.203125 285.757812 96.964844 285.738281 96.679688 C 285.726562 96.535156 285.714844 96.378906 285.691406 96.210938 C 285.667969 96.042969 285.644531 95.855469 285.609375 95.652344 C 285.578125 95.449219 285.539062 95.226562 285.492188 94.980469 C 285.441406 94.738281 285.382812 94.472656 285.316406 94.179688 C 285.28125 94.03125 285.246094 93.878906 285.207031 93.71875 C 285.164062 93.5625 285.121094 93.398438 285.074219 93.222656 C 284.976562 92.878906 284.878906 92.503906 284.75 92.101562 C 284.847656 92.058594 284.804688 91.457031 285.0625 92.078125 C 285.164062 92.316406 285.261719 92.5625 285.355469 92.820312 C 285.453125 93.078125 285.550781 93.34375 285.652344 93.617188 C 285.746094 93.890625 285.84375 94.179688 285.945312 94.472656 C 285.996094 94.621094 286.046875 94.773438 286.097656 94.925781 C 286.144531 95.082031 286.191406 95.238281 286.242188 95.398438 C 286.640625 96.679688 287.046875 98.15625 287.425781 99.902344 " fill-opacity="1" fill-rule="nonzero"/></g><g clip-path="url(#33ca5e7438)"><path fill="#1e5192" d="M 214.898438 153.441406 C 215.148438 153.554688 215.398438 153.667969 215.648438 153.78125 C 215.902344 153.890625 216.15625 153.996094 216.40625 154.101562 C 216.914062 154.320312 217.433594 154.507812 217.957031 154.699219 C 218.226562 154.789062 218.503906 154.875 218.78125 154.960938 C 218.917969 155 219.054688 155.042969 219.195312 155.085938 C 219.335938 155.125 219.476562 155.160156 219.613281 155.199219 C 219.894531 155.273438 220.175781 155.351562 220.457031 155.421875 C 220.738281 155.488281 221.023438 155.558594 221.304688 155.625 C 221.027344 155.535156 220.753906 155.449219 220.480469 155.355469 C 220.207031 155.265625 219.933594 155.164062 219.65625 155.070312 C 219.519531 155.019531 219.378906 154.972656 219.238281 154.921875 C 219.101562 154.867188 218.960938 154.816406 218.820312 154.761719 C 218.542969 154.65625 218.257812 154.550781 217.96875 154.433594 C 217.644531 154.339844 217.347656 154.25 217.066406 154.164062 C 216.785156 154.082031 216.527344 153.992188 216.28125 153.914062 C 215.78125 153.757812 215.339844 153.597656 214.898438 153.441406 Z M 256.605469 156.199219 C 255.121094 156.875 253.628906 157.550781 252.097656 158.128906 C 252.390625 158.078125 252.652344 158.089844 252.988281 157.96875 C 253.246094 157.871094 253.503906 157.777344 253.765625 157.675781 C 253.894531 157.628906 254.023438 157.578125 254.15625 157.53125 C 254.289062 157.476562 254.421875 157.421875 254.554688 157.367188 C 254.820312 157.261719 255.09375 157.148438 255.375 157.035156 C 255.652344 156.914062 255.941406 156.789062 256.242188 156.65625 C 257.433594 156.125 258.796875 155.476562 260.46875 154.554688 C 260.335938 154.617188 260.210938 154.675781 260.089844 154.730469 C 259.96875 154.785156 259.851562 154.839844 259.738281 154.886719 C 259.507812 154.988281 259.300781 155.082031 259.105469 155.164062 C 258.710938 155.335938 258.371094 155.464844 258.074219 155.589844 C 257.925781 155.648438 257.785156 155.707031 257.65625 155.761719 C 257.523438 155.8125 257.398438 155.863281 257.277344 155.910156 C 257.039062 156.007812 256.820312 156.101562 256.605469 156.199219 Z M 215.621094 154.042969 C 214.515625 153.625 213.75 153.441406 212.84375 153.117188 C 212.964844 153.179688 213.089844 153.242188 213.210938 153.304688 C 213.335938 153.367188 213.457031 153.425781 213.582031 153.488281 C 213.828125 153.609375 214.078125 153.734375 214.324219 153.855469 C 214.574219 153.972656 214.824219 154.085938 215.074219 154.195312 C 215.199219 154.25 215.324219 154.300781 215.449219 154.355469 C 215.570312 154.40625 215.695312 154.453125 215.820312 154.5 C 216.128906 154.613281 216.429688 154.726562 216.765625 154.835938 C 217.101562 154.945312 217.464844 155.0625 217.890625 155.191406 C 218.746094 155.433594 219.835938 155.746094 221.441406 156.101562 C 219.757812 155.617188 218.574219 155.171875 217.671875 154.832031 C 216.769531 154.492188 216.152344 154.230469 215.621094 154.042969 Z M 196.382812 139.882812 C 199.746094 143.511719 203.652344 146.722656 208.011719 149.34375 C 209.101562 149.996094 210.214844 150.621094 211.359375 151.199219 C 212.503906 151.777344 213.671875 152.316406 214.863281 152.816406 C 217.25 153.804688 219.726562 154.640625 222.277344 155.273438 C 223.316406 155.539062 224.378906 155.742188 225.441406 155.925781 L 226.242188 156.050781 L 226.644531 156.113281 L 227.046875 156.164062 C 227.3125 156.203125 227.582031 156.238281 227.847656 156.273438 C 228.117188 156.304688 228.382812 156.335938 228.652344 156.363281 C 229.980469 156.511719 230.671875 156.515625 231.042969 156.480469 C 231.414062 156.449219 231.464844 156.378906 231.523438 156.308594 C 231.585938 156.238281 231.652344 156.171875 232.050781 156.132812 C 232.253906 156.113281 232.535156 156.105469 232.941406 156.105469 C 233.144531 156.101562 233.378906 156.101562 233.648438 156.101562 C 233.917969 156.101562 234.226562 156.109375 234.574219 156.105469 C 232.773438 156.035156 231.097656 155.839844 229.195312 155.621094 C 225.546875 155.191406 221.9375 154.363281 218.460938 153.136719 C 214.992188 151.898438 211.652344 150.285156 208.558594 148.304688 L 208.699219 148.238281 L 209.039062 148.449219 L 209.378906 148.648438 L 210.0625 149.054688 C 210.527344 149.308594 210.984375 149.578125 211.457031 149.816406 C 212.390625 150.320312 213.347656 150.777344 214.3125 151.21875 C 216.253906 152.082031 218.253906 152.839844 220.316406 153.445312 C 222.378906 154.066406 224.496094 154.535156 226.664062 154.878906 C 227.75 155.039062 228.84375 155.1875 229.949219 155.273438 C 230.503906 155.328125 231.058594 155.355469 231.617188 155.394531 C 231.898438 155.40625 232.175781 155.414062 232.457031 155.425781 L 232.878906 155.441406 C 233.019531 155.449219 233.160156 155.449219 233.300781 155.449219 C 229.214844 155.085938 224.96875 154.316406 220.664062 152.949219 C 216.363281 151.582031 212.003906 149.605469 207.816406 146.867188 C 204.894531 144.964844 202.1875 142.707031 199.757812 140.179688 L 199.527344 139.945312 L 199.304688 139.703125 L 198.855469 139.21875 C 198.558594 138.898438 198.273438 138.5625 197.984375 138.238281 C 197.703125 137.898438 197.417969 137.566406 197.140625 137.226562 L 196.523438 136.457031 L 196.324219 136.195312 C 195.253906 134.804688 194.261719 133.359375 193.347656 131.867188 L 193.539062 131.785156 C 196.035156 135.78125 199.125 139.398438 202.671875 142.488281 L 202.632812 142.296875 C 199.261719 139.3125 196.304688 135.855469 193.867188 131.980469 C 191.429688 128.109375 189.511719 123.824219 188.253906 119.199219 C 189.214844 122.433594 190.492188 125.5 192.039062 128.386719 C 193.59375 131.273438 195.417969 133.980469 197.480469 136.5 C 199.542969 139.015625 201.84375 141.347656 204.382812 143.46875 C 206.917969 145.585938 209.683594 147.503906 212.6875 149.171875 C 213.625 149.691406 214.601562 150.183594 215.605469 150.652344 C 216.617188 151.109375 217.65625 151.546875 218.730469 151.941406 C 220.867188 152.726562 223.117188 153.371094 225.417969 153.839844 C 226.570312 154.070312 227.730469 154.273438 228.898438 154.414062 L 229.335938 154.472656 L 229.777344 154.519531 C 230.070312 154.550781 230.359375 154.585938 230.652344 154.609375 C 230.949219 154.632812 231.242188 154.65625 231.535156 154.683594 C 231.824219 154.710938 232.121094 154.71875 232.410156 154.738281 C 232.996094 154.777344 233.582031 154.785156 234.167969 154.808594 C 234.457031 154.8125 234.75 154.8125 235.039062 154.816406 L 235.476562 154.820312 L 235.910156 154.8125 C 237.070312 154.804688 238.21875 154.738281 239.351562 154.65625 C 239.652344 154.628906 239.953125 154.605469 240.246094 154.578125 C 240.542969 154.546875 240.832031 154.515625 241.121094 154.488281 C 241.265625 154.472656 241.40625 154.457031 241.546875 154.441406 C 241.691406 154.421875 241.832031 154.40625 241.96875 154.386719 C 242.246094 154.351562 242.523438 154.316406 242.792969 154.28125 C 243.332031 154.199219 243.859375 154.132812 244.363281 154.042969 C 244.617188 154 244.863281 153.960938 245.109375 153.917969 C 245.351562 153.875 245.59375 153.828125 245.828125 153.785156 C 247.703125 153.4375 249.28125 153.0625 250.523438 152.773438 C 250.679688 152.738281 250.828125 152.703125 250.972656 152.671875 C 251.117188 152.636719 251.257812 152.605469 251.390625 152.574219 C 251.660156 152.511719 251.90625 152.460938 252.128906 152.414062 C 252.578125 152.320312 252.9375 152.261719 253.203125 152.242188 C 253.730469 152.203125 253.882812 152.328125 253.597656 152.65625 C 253.40625 152.875 253.753906 152.988281 253.007812 153.5 C 252.914062 153.5625 252.804688 153.632812 252.671875 153.710938 C 252.539062 153.785156 252.386719 153.867188 252.210938 153.953125 C 252.03125 154.042969 251.832031 154.136719 251.601562 154.242188 C 251.371094 154.34375 251.113281 154.445312 250.824219 154.5625 C 249.667969 155.015625 248.003906 155.574219 245.59375 156.101562 C 245.175781 156.183594 244.726562 156.292969 244.253906 156.40625 C 244.019531 156.460938 243.777344 156.515625 243.53125 156.574219 C 243.40625 156.601562 243.28125 156.632812 243.15625 156.664062 C 243.03125 156.691406 242.90625 156.71875 242.777344 156.746094 C 242.523438 156.800781 242.269531 156.855469 242.011719 156.914062 C 241.753906 156.96875 241.492188 157.019531 241.234375 157.070312 C 240.71875 157.175781 240.199219 157.257812 239.699219 157.339844 C 242.589844 157.089844 245.527344 156.539062 248.199219 155.792969 C 249.535156 155.417969 250.800781 154.988281 251.96875 154.539062 C 252.261719 154.421875 252.546875 154.308594 252.824219 154.199219 C 253.101562 154.078125 253.375 153.960938 253.640625 153.84375 C 253.90625 153.730469 254.160156 153.609375 254.410156 153.492188 C 254.660156 153.371094 254.902344 153.257812 255.136719 153.140625 C 256.550781 152.429688 257.84375 151.71875 259.058594 151.015625 C 260.269531 150.316406 261.40625 149.617188 262.496094 148.910156 C 263.578125 148.199219 264.617188 147.480469 265.632812 146.726562 C 266.644531 145.96875 267.628906 145.171875 268.609375 144.316406 C 268.839844 144.113281 269.066406 143.917969 269.285156 143.722656 C 269.507812 143.523438 269.722656 143.328125 269.9375 143.136719 C 270.15625 142.945312 270.363281 142.75 270.574219 142.554688 C 270.78125 142.359375 270.992188 142.171875 271.195312 141.972656 C 272.011719 141.1875 272.796875 140.378906 273.566406 139.464844 C 274.753906 138.050781 275.644531 136.867188 276.34375 135.929688 C 277.042969 134.992188 277.550781 134.296875 277.933594 133.8125 C 278.125 133.574219 278.28125 133.386719 278.414062 133.246094 C 278.546875 133.105469 278.652344 133.011719 278.738281 132.964844 C 278.90625 132.867188 278.992188 132.9375 279.015625 133.128906 C 279.027344 133.210938 279.203125 133.0625 279.449219 132.765625 C 279.566406 132.617188 279.703125 132.433594 279.847656 132.226562 C 279.988281 132.019531 280.140625 131.792969 280.273438 131.546875 C 281.261719 129.816406 281.921875 128.464844 282.457031 127.320312 C 282.585938 127.03125 282.710938 126.757812 282.828125 126.492188 C 282.886719 126.359375 282.945312 126.226562 283.003906 126.101562 C 283.058594 125.96875 283.113281 125.84375 283.167969 125.71875 C 283.273438 125.464844 283.378906 125.21875 283.480469 124.976562 C 283.578125 124.734375 283.679688 124.492188 283.777344 124.246094 C 284.175781 123.273438 284.558594 122.269531 285.003906 120.984375 C 285.449219 119.699219 285.957031 118.132812 286.472656 115.992188 C 285.976562 118.679688 285.324219 121.085938 284.5625 123.328125 C 283.804688 125.574219 282.933594 127.648438 281.96875 129.683594 C 281.8125 130.007812 281.617188 130.417969 281.425781 130.847656 C 281.230469 131.277344 281.019531 131.722656 280.839844 132.128906 C 280.460938 132.929688 280.183594 133.558594 280.253906 133.5 C 280.386719 133.410156 280.585938 133.179688 280.855469 132.839844 C 280.988281 132.667969 281.140625 132.472656 281.296875 132.246094 C 281.453125 132.019531 281.625 131.765625 281.808594 131.492188 C 282.53125 130.382812 283.398438 128.882812 284.226562 127.136719 C 285.054688 125.394531 285.851562 123.414062 286.480469 121.394531 C 287.113281 119.378906 287.589844 117.328125 287.890625 115.492188 C 288.113281 114.109375 288.238281 112.609375 288.355469 111.3125 C 288.503906 109.753906 288.632812 108.359375 288.691406 106.886719 C 288.71875 107.351562 288.75 107.777344 288.777344 108.226562 C 288.800781 108.679688 288.808594 109.152344 288.800781 109.707031 L 288.769531 110.625 L 288.753906 111.082031 L 288.722656 111.542969 L 288.667969 112.457031 L 288.589844 113.375 L 288.546875 113.835938 L 288.496094 114.292969 C 288.464844 114.597656 288.429688 114.902344 288.394531 115.210938 C 288.351562 115.515625 288.308594 115.820312 288.265625 116.128906 L 288.203125 116.585938 L 288.128906 117.042969 C 288.078125 117.351562 288.027344 117.65625 287.976562 117.960938 C 287.914062 118.269531 287.855469 118.574219 287.796875 118.878906 C 287.769531 119.03125 287.738281 119.1875 287.707031 119.339844 L 287.605469 119.796875 C 287.539062 120.101562 287.472656 120.410156 287.398438 120.714844 C 287.105469 121.9375 286.769531 123.160156 286.378906 124.378906 C 284.652344 129.769531 282.054688 134.910156 278.722656 139.546875 C 275.390625 144.1875 271.3125 148.3125 266.683594 151.726562 C 264.785156 153.132812 262.785156 154.40625 260.71875 155.5625 C 259.679688 156.128906 258.628906 156.679688 257.554688 157.183594 C 257.023438 157.441406 256.476562 157.675781 255.9375 157.917969 C 255.667969 158.039062 255.390625 158.148438 255.117188 158.265625 C 254.84375 158.375 254.570312 158.496094 254.292969 158.601562 C 252.085938 159.46875 249.824219 160.214844 247.519531 160.789062 C 247.234375 160.859375 246.945312 160.9375 246.65625 161.003906 L 245.785156 161.199219 L 245.351562 161.296875 L 244.039062 161.554688 C 242.871094 161.761719 241.699219 161.953125 240.515625 162.089844 C 239.335938 162.234375 238.152344 162.328125 236.96875 162.402344 L 235.632812 162.460938 L 234.296875 162.484375 C 234 162.488281 233.703125 162.484375 233.40625 162.484375 C 232.21875 162.480469 231.03125 162.421875 229.84375 162.34375 L 228.953125 162.273438 L 228.511719 162.234375 L 228.066406 162.1875 L 227.179688 162.089844 L 226.292969 161.976562 C 221.574219 161.339844 216.933594 160.074219 212.527344 158.253906 C 212.796875 158.332031 213.078125 158.417969 213.363281 158.507812 C 213.507812 158.550781 213.652344 158.597656 213.796875 158.644531 C 213.945312 158.6875 214.09375 158.734375 214.246094 158.777344 C 214.546875 158.871094 214.855469 158.964844 215.167969 159.0625 C 215.480469 159.152344 215.800781 159.246094 216.121094 159.339844 C 217.414062 159.710938 218.761719 160.082031 220.085938 160.363281 C 220.417969 160.441406 220.734375 160.496094 221.039062 160.554688 C 221.34375 160.609375 221.632812 160.667969 221.917969 160.707031 C 222.492188 160.789062 223.042969 160.875 223.632812 160.941406 C 223.066406 160.816406 222.417969 160.621094 221.820312 160.464844 C 221.226562 160.289062 220.683594 160.136719 220.335938 160.054688 C 218.648438 159.671875 217.230469 159.214844 215.945312 158.730469 C 215.296875 158.492188 214.691406 158.230469 214.09375 157.976562 C 213.5 157.703125 212.917969 157.441406 212.339844 157.148438 C 211.179688 156.582031 210.015625 155.953125 208.722656 155.226562 C 207.429688 154.496094 206.003906 153.664062 204.351562 152.628906 C 204.066406 152.445312 203.847656 152.304688 203.683594 152.195312 C 203.523438 152.082031 203.421875 152.003906 203.367188 151.957031 C 203.253906 151.859375 203.328125 151.875 203.511719 151.953125 C 203.691406 152.039062 203.980469 152.171875 204.300781 152.320312 C 204.617188 152.46875 204.957031 152.632812 205.253906 152.746094 C 205.835938 152.980469 206.199219 153.074219 205.691406 152.660156 C 205.566406 152.558594 205.386719 152.421875 205.140625 152.25 C 204.898438 152.074219 204.59375 151.855469 204.21875 151.59375 C 203.472656 151.058594 202.433594 150.339844 201.09375 149.292969 C 201.222656 149.347656 201.296875 149.320312 201.496094 149.464844 C 203.007812 150.582031 203.992188 151.171875 204.609375 151.492188 C 205.230469 151.8125 205.480469 151.875 205.59375 151.835938 C 205.824219 151.769531 205.5 151.355469 206.464844 151.871094 C 207.976562 152.664062 208.855469 153.039062 209.234375 153.183594 C 209.621094 153.320312 209.515625 153.230469 209.105469 152.984375 C 208.902344 152.859375 208.625 152.699219 208.296875 152.507812 C 207.964844 152.320312 207.589844 152.089844 207.183594 151.847656 C 206.777344 151.605469 206.355469 151.332031 205.917969 151.0625 C 205.703125 150.921875 205.488281 150.777344 205.273438 150.636719 C 205.058594 150.492188 204.84375 150.355469 204.636719 150.207031 C 199.429688 146.628906 194.875 142.09375 191.265625 136.910156 C 191.058594 136.117188 189.570312 133.824219 188.234375 131.210938 C 187.5625 129.90625 186.914062 128.53125 186.417969 127.277344 C 186.289062 126.964844 186.179688 126.65625 186.070312 126.363281 C 186.015625 126.214844 185.964844 126.074219 185.914062 125.933594 C 185.867188 125.789062 185.820312 125.652344 185.777344 125.519531 C 185.691406 125.25 185.613281 124.996094 185.542969 124.765625 C 185.480469 124.53125 185.425781 124.3125 185.382812 124.117188 C 185.75 125.082031 186.164062 126.035156 186.589844 126.984375 C 187.03125 127.925781 187.480469 128.863281 187.972656 129.773438 C 188.453125 130.6875 188.976562 131.570312 189.5 132.4375 C 189.632812 132.652344 189.773438 132.863281 189.90625 133.078125 C 190.042969 133.289062 190.171875 133.503906 190.316406 133.707031 C 190.597656 134.121094 190.867188 134.535156 191.15625 134.933594 C 191.328125 135.171875 191.484375 135.390625 191.628906 135.585938 C 191.777344 135.773438 191.90625 135.941406 192.019531 136.074219 C 192.242188 136.347656 192.382812 136.496094 192.417969 136.496094 C 192.453125 136.496094 192.378906 136.339844 192.175781 136 C 191.964844 135.660156 191.632812 135.125 191.15625 134.355469 C 190.035156 132.523438 188.996094 130.574219 188.257812 128.972656 C 190.5 133.03125 193.265625 136.722656 196.441406 139.960938 L 196.382812 139.882812 " fill-opacity="1" fill-rule="nonzero"/></g><path fill="#1e5192" d="M 197.097656 134.957031 C 197.808594 135.929688 198.605469 136.925781 199.484375 137.933594 C 200.363281 138.9375 201.324219 139.957031 202.371094 140.960938 C 204.460938 142.96875 206.894531 144.921875 209.625 146.667969 C 210.992188 147.539062 212.429688 148.359375 213.929688 149.109375 C 215.429688 149.855469 216.992188 150.535156 218.601562 151.128906 C 220.207031 151.726562 221.863281 152.238281 223.546875 152.664062 C 225.230469 153.085938 226.941406 153.414062 228.664062 153.648438 C 230.960938 153.96875 233.207031 154.089844 235.414062 154.070312 C 237.621094 154.03125 239.789062 153.859375 241.941406 153.5 C 244.09375 153.148438 246.226562 152.625 248.359375 151.925781 C 249.429688 151.574219 250.492188 151.167969 251.558594 150.726562 C 252.625 150.273438 253.6875 149.769531 254.75 149.210938 C 256.304688 148.390625 257.371094 147.734375 258.066406 147.277344 C 258.242188 147.164062 258.394531 147.066406 258.523438 146.976562 C 258.652344 146.886719 258.757812 146.808594 258.84375 146.746094 C 259.019531 146.617188 259.113281 146.539062 259.132812 146.503906 C 259.175781 146.4375 258.929688 146.542969 258.460938 146.769531 C 258.226562 146.882812 257.933594 147.019531 257.589844 147.179688 C 257.417969 147.261719 257.234375 147.34375 257.039062 147.429688 C 256.84375 147.515625 256.632812 147.605469 256.417969 147.699219 C 255.277344 148.175781 254.46875 148.449219 254 148.554688 C 253.53125 148.65625 253.410156 148.605469 253.628906 148.394531 C 253.851562 148.1875 254.414062 147.820312 255.296875 147.253906 C 256.179688 146.6875 257.378906 145.921875 258.832031 144.855469 C 260.3125 143.769531 260.933594 143.140625 261.03125 142.941406 C 261.125 142.730469 260.675781 142.921875 259.90625 143.332031 C 256.757812 144.976562 253.160156 146.4375 249.378906 147.371094 C 249.285156 147.394531 249.179688 147.421875 249.054688 147.460938 C 248.933594 147.492188 248.796875 147.53125 248.652344 147.574219 C 248.359375 147.65625 248.027344 147.761719 247.675781 147.859375 C 247.324219 147.960938 246.953125 148.074219 246.585938 148.171875 C 246.40625 148.226562 246.226562 148.277344 246.046875 148.328125 C 245.871094 148.375 245.699219 148.417969 245.53125 148.464844 C 245 148.613281 244.46875 148.734375 243.941406 148.859375 C 243.410156 148.96875 242.882812 149.082031 242.355469 149.167969 C 241.832031 149.269531 241.308594 149.335938 240.785156 149.414062 C 240.527344 149.445312 240.265625 149.476562 240.003906 149.507812 C 239.746094 149.542969 239.488281 149.566406 239.226562 149.589844 C 237.15625 149.789062 235.109375 149.8125 233.070312 149.734375 C 228.855469 149.554688 224.566406 148.820312 220.375 147.410156 C 216.1875 146.003906 212.097656 143.929688 208.371094 141.183594 C 211.757812 143.910156 215.59375 146.121094 219.679688 147.707031 C 223.761719 149.300781 228.09375 150.257812 232.460938 150.566406 C 235.625 150.792969 238.761719 150.695312 241.839844 150.28125 C 244.921875 149.871094 247.949219 149.128906 250.902344 148.058594 L 250.984375 148.253906 C 248.597656 149.269531 246.097656 150.082031 243.585938 150.664062 C 243.464844 150.695312 243.34375 150.722656 243.214844 150.753906 C 243.089844 150.777344 242.960938 150.804688 242.832031 150.832031 C 242.574219 150.886719 242.308594 150.945312 242.042969 150.996094 C 241.507812 151.089844 240.964844 151.195312 240.445312 151.273438 C 239.410156 151.445312 238.46875 151.558594 237.890625 151.664062 C 236.722656 151.871094 235.503906 152.007812 234.242188 152.070312 C 232.980469 152.121094 231.6875 152.105469 230.367188 152.003906 C 227.730469 151.808594 225.003906 151.273438 222.292969 150.425781 C 220.925781 150 219.46875 149.472656 218.140625 148.902344 C 216.808594 148.335938 215.613281 147.722656 214.734375 147.203125 C 213.28125 146.324219 212.160156 145.597656 210.964844 144.855469 C 209.773438 144.109375 208.507812 143.347656 206.835938 142.269531 C 206.589844 142.113281 206.324219 141.921875 206.03125 141.710938 C 205.738281 141.503906 205.425781 141.257812 205.09375 140.992188 C 205.007812 140.925781 204.925781 140.855469 204.835938 140.789062 C 204.753906 140.71875 204.667969 140.644531 204.578125 140.570312 C 204.40625 140.421875 204.222656 140.269531 204.039062 140.113281 C 203.855469 139.949219 203.671875 139.78125 203.480469 139.613281 C 203.382812 139.523438 203.285156 139.4375 203.1875 139.347656 C 203.09375 139.257812 202.996094 139.167969 202.898438 139.074219 C 202.703125 138.886719 202.496094 138.699219 202.300781 138.5 C 202.097656 138.300781 201.894531 138.09375 201.6875 137.886719 C 201.484375 137.675781 201.277344 137.457031 201.066406 137.238281 C 200.851562 137.019531 200.648438 136.785156 200.433594 136.554688 C 199.589844 135.617188 198.730469 134.589844 197.886719 133.488281 C 199.554688 135.832031 201.398438 137.941406 203.355469 139.820312 C 205.3125 141.703125 207.378906 143.359375 209.523438 144.796875 C 211.667969 146.230469 213.878906 147.464844 216.144531 148.488281 C 217.273438 149 218.414062 149.46875 219.566406 149.886719 C 220.71875 150.296875 221.882812 150.667969 223.050781 150.992188 C 223.285156 151.054688 223.519531 151.117188 223.753906 151.183594 C 223.984375 151.25 224.214844 151.300781 224.445312 151.363281 C 224.671875 151.421875 224.898438 151.484375 225.128906 151.539062 C 225.355469 151.597656 225.582031 151.652344 225.808594 151.710938 L 226.152344 151.792969 C 226.265625 151.820312 226.382812 151.847656 226.496094 151.871094 C 226.726562 151.925781 226.957031 151.980469 227.191406 152.035156 C 227.425781 152.085938 227.660156 152.136719 227.902344 152.1875 C 228.140625 152.238281 228.382812 152.292969 228.632812 152.335938 C 228.878906 152.382812 229.132812 152.433594 229.386719 152.480469 C 229.644531 152.53125 229.90625 152.570312 230.175781 152.617188 C 230.445312 152.664062 230.71875 152.707031 231 152.746094 C 231.285156 152.785156 231.574219 152.824219 231.871094 152.867188 C 233.058594 153.015625 234.378906 153.132812 235.886719 153.179688 C 231.304688 153.359375 226.898438 152.878906 222.839844 151.867188 C 222.585938 151.8125 222.335938 151.738281 222.085938 151.671875 C 221.835938 151.605469 221.582031 151.546875 221.335938 151.46875 C 220.839844 151.324219 220.347656 151.183594 219.863281 151.023438 C 218.890625 150.71875 217.945312 150.371094 217.019531 150.015625 C 215.175781 149.28125 213.421875 148.464844 211.78125 147.5625 C 210.140625 146.660156 208.597656 145.699219 207.171875 144.679688 C 205.742188 143.660156 204.417969 142.601562 203.199219 141.519531 C 200.761719 139.355469 198.746094 137.113281 197.097656 134.957031 " fill-opacity="1" fill-rule="nonzero"/><path fill="#1e5192" d="M 196.382812 139.882812 C 195.6875 139.027344 194.847656 138 194.015625 136.894531 C 193.183594 135.785156 192.363281 134.601562 191.667969 133.472656 C 191.316406 132.914062 191.007812 132.359375 190.726562 131.851562 C 190.589844 131.589844 190.464844 131.34375 190.347656 131.105469 C 190.292969 130.988281 190.234375 130.875 190.179688 130.761719 C 190.128906 130.648438 190.082031 130.539062 190.035156 130.433594 C 189.667969 129.589844 189.503906 128.972656 189.601562 128.738281 C 189.605469 128.722656 189.5625 128.613281 189.480469 128.433594 C 189.402344 128.253906 189.292969 127.996094 189.15625 127.695312 C 189.089844 127.542969 189.011719 127.378906 188.9375 127.203125 C 188.859375 127.03125 188.78125 126.847656 188.699219 126.65625 C 188.617188 126.46875 188.523438 126.273438 188.441406 126.074219 C 188.355469 125.875 188.269531 125.671875 188.183594 125.46875 C 187.484375 123.847656 186.847656 122.191406 186.617188 122.203125 C 186.617188 122.203125 186.636719 122.140625 186.636719 122.140625 C 186.269531 121.707031 186.25 122.105469 186.550781 123.230469 C 186.855469 124.347656 187.519531 126.179688 188.664062 128.496094 C 190.707031 132.609375 193.328125 136.5 196.429688 139.945312 C 196.441406 139.960938 196.382812 139.882812 196.382812 139.882812 " fill-opacity="1" fill-rule="nonzero"/><path fill="#1e5192" d="M 185.46875 105.898438 C 185.464844 106.238281 185.464844 106.566406 185.464844 106.886719 C 185.472656 107.203125 185.480469 107.515625 185.488281 107.820312 C 185.492188 108.125 185.507812 108.417969 185.519531 108.707031 C 185.535156 108.996094 185.542969 109.273438 185.5625 109.546875 C 185.605469 110.09375 185.632812 110.609375 185.6875 111.101562 C 185.710938 111.34375 185.734375 111.585938 185.757812 111.816406 C 185.785156 112.050781 185.8125 112.277344 185.839844 112.496094 C 186.0625 114.265625 186.335938 115.671875 186.636719 116.917969 C 186.730469 117.28125 186.820312 117.585938 186.910156 117.851562 C 187.003906 118.117188 187.097656 118.339844 187.1875 118.550781 C 187.367188 118.972656 187.558594 119.320312 187.753906 119.773438 C 187.644531 119.34375 187.527344 118.882812 187.429688 118.40625 C 187.378906 118.171875 187.324219 117.933594 187.277344 117.695312 C 187.230469 117.457031 187.183594 117.222656 187.140625 116.988281 C 186.964844 116.066406 186.824219 115.21875 186.710938 114.671875 C 186.671875 114.503906 186.636719 114.339844 186.601562 114.175781 C 186.570312 114.011719 186.539062 113.847656 186.503906 113.683594 C 186.441406 113.359375 186.371094 113.039062 186.316406 112.71875 C 186.257812 112.394531 186.199219 112.074219 186.140625 111.746094 C 186.085938 111.417969 186.03125 111.085938 185.976562 110.746094 C 185.769531 109.378906 185.574219 107.859375 185.46875 105.898438 " fill-opacity="1" fill-rule="nonzero"/><path fill="#1e5192" d="M 185.269531 94.886719 C 185.574219 93.5 185.933594 92.121094 186.355469 90.761719 C 186.777344 89.40625 187.257812 88.0625 187.792969 86.742188 C 188.863281 84.097656 190.167969 81.542969 191.679688 79.109375 L 191.285156 79.496094 L 190.902344 79.894531 C 190.179688 81.121094 189.507812 82.375 188.894531 83.652344 C 188.28125 84.933594 187.722656 86.238281 187.21875 87.5625 C 186.203125 90.207031 185.429688 92.9375 184.878906 95.703125 C 185 95.429688 185.140625 95.15625 185.269531 94.886719 " fill-opacity="1" fill-rule="nonzero"/><path fill="#1e5192" d="M 186.636719 122.140625 C 186.636719 122.140625 186.617188 122.203125 186.617188 122.203125 C 186.015625 120.183594 185.558594 118.210938 185.179688 116.410156 C 184.804688 114.609375 184.515625 112.976562 184.230469 111.625 C 184.226562 111.601562 184.222656 111.675781 184.222656 111.800781 C 184.222656 111.863281 184.222656 111.9375 184.222656 112.023438 C 184.222656 112.105469 184.226562 112.195312 184.230469 112.289062 C 184.242188 112.660156 184.265625 113.074219 184.28125 113.191406 C 184.789062 116.300781 185.582031 119.265625 186.636719 122.140625 " fill-opacity="1" fill-rule="nonzero"/><path fill="#1e5192" d="M 192.9375 143.664062 C 194.253906 145.078125 195.640625 146.417969 197.09375 147.683594 C 198.546875 148.945312 200.066406 150.132812 201.640625 151.234375 L 201.425781 150.929688 C 198.175781 148.570312 195.179688 145.855469 192.507812 142.84375 C 192.648438 143.117188 192.792969 143.390625 192.9375 143.664062 " fill-opacity="1" fill-rule="nonzero"/><path fill="#1e5192" d="M 218.839844 153.5625 C 217.195312 153.023438 215.582031 152.394531 214.003906 151.683594 C 212.425781 150.972656 210.886719 150.175781 209.394531 149.300781 L 209.359375 149.378906 C 210.855469 150.257812 212.394531 151.054688 213.976562 151.765625 C 215.554688 152.480469 217.171875 153.105469 218.816406 153.644531 L 218.839844 153.5625 " fill-opacity="1" fill-rule="nonzero"/><path fill="#1e5192" d="M 197.8125 74.015625 C 197.566406 74.3125 197.300781 74.613281 197.042969 74.925781 C 196.789062 75.242188 196.527344 75.554688 196.285156 75.867188 C 196.046875 76.183594 195.808594 76.488281 195.597656 76.777344 C 195.386719 77.070312 195.195312 77.347656 195.03125 77.589844 C 194.667969 78.164062 194.394531 78.625 194.164062 79.066406 C 194.050781 79.289062 193.941406 79.5 193.828125 79.714844 C 193.722656 79.929688 193.617188 80.148438 193.5 80.378906 C 194.324219 79.089844 195.359375 77.710938 196.128906 76.667969 C 197.167969 75.257812 198.023438 74.113281 199.042969 72.914062 C 198.832031 73.09375 198.628906 73.277344 198.425781 73.460938 C 198.21875 73.644531 198.011719 73.828125 197.8125 74.015625 " fill-opacity="1" fill-rule="nonzero"/><path fill="#1e5192" d="M 209.253906 145.5 C 209.570312 145.710938 209.898438 145.910156 210.21875 146.117188 C 210.539062 146.320312 210.871094 146.507812 211.199219 146.703125 C 211.476562 146.867188 211.765625 147.003906 212.050781 147.15625 C 211.390625 146.789062 210.742188 146.40625 210.101562 146.011719 C 209.820312 145.832031 209.53125 145.675781 209.253906 145.5 " fill-opacity="1" fill-rule="nonzero"/><path fill="#1e5192" d="M 194.675781 127.050781 C 194.511719 126.714844 194.363281 126.402344 194.21875 126.097656 C 194.078125 125.789062 193.945312 125.496094 193.8125 125.199219 C 193.699219 124.949219 193.574219 124.6875 193.453125 124.429688 C 193.574219 124.71875 193.679688 125.011719 193.8125 125.292969 C 193.945312 125.574219 194.078125 125.851562 194.214844 126.144531 C 194.359375 126.433594 194.511719 126.730469 194.675781 127.050781 " fill-opacity="1" fill-rule="nonzero"/><path fill="#1e5192" d="M 282.828125 112.429688 C 282.777344 112.71875 282.730469 113.007812 282.671875 113.296875 C 282.613281 113.582031 282.558594 113.871094 282.519531 114.164062 C 282.40625 114.867188 282.335938 115.585938 282.21875 116.296875 C 282.289062 116.007812 282.371094 115.722656 282.4375 115.433594 C 282.5 115.140625 282.5625 114.851562 282.613281 114.550781 C 282.675781 114.203125 282.703125 113.851562 282.742188 113.496094 C 282.78125 113.140625 282.800781 112.785156 282.828125 112.429688 " fill-opacity="1" fill-rule="nonzero"/><g clip-path="url(#a8bb8c081d)"><g clip-path="url(#7c70ff4c5d)"><g clip-path="url(#0fb98ea9ab)"><path fill="#1e5192" d="M 291.632812 53.277344 C 292.222656 55.96875 290.847656 61.625 290.847656 61.625 C 290.683594 61.683594 290.527344 61.726562 290.375 61.753906 L 290.398438 57.941406 C 290.398438 57.941406 289.566406 60.273438 289.289062 61.679688 C 287.484375 61.824219 286.71875 60.722656 286.71875 60.722656 C 287.359375 56.148438 288.460938 53.761719 289.171875 52.617188 C 288.949219 52.234375 288.867188 51.785156 288.96875 51.328125 C 289.132812 50.578125 289.75 50.03125 290.464844 49.925781 L 292.359375 41.75 L 280.304688 43.996094 C 279.394531 44.164062 278.601562 43.363281 278.789062 42.449219 L 279.453125 39.199219 C 279.535156 38.78125 279.414062 38.355469 279.128906 38.050781 C 264.886719 22.679688 250.753906 20.121094 241.425781 20.679688 C 231.257812 21.292969 224.558594 25.542969 224.28125 25.722656 L 224.265625 25.730469 C 223.972656 25.917969 223.777344 26.207031 223.695312 26.535156 L 222.867188 30.152344 C 222.652344 31.066406 221.585938 31.46875 220.820312 30.910156 L 208.234375 21.738281 C 207.308594 21.058594 207.640625 19.609375 208.765625 19.398438 L 255.550781 10.777344 C 255.902344 10.71875 256.257812 10.792969 256.542969 11 L 295.621094 38.910156 C 296.5625 39.582031 296.238281 41.046875 295.101562 41.261719 L 293.496094 41.554688 L 291.511719 50.105469 C 292.25 50.453125 292.664062 51.277344 292.484375 52.101562 C 292.382812 52.617188 292.054688 53.03125 291.632812 53.277344 Z M 225.636719 27.855469 C 225.558594 27.894531 225.496094 27.96875 225.472656 28.066406 L 220.675781 47.605469 C 220.617188 47.839844 220.835938 48.050781 221.070312 47.972656 C 224.6875 46.820312 246.640625 41.011719 271.847656 60.542969 C 272.027344 60.675781 272.285156 60.59375 272.335938 60.378906 L 277.363281 39.90625 C 277.386719 39.808594 277.371094 39.703125 277.296875 39.628906 C 275.636719 37.710938 254.113281 13.746094 225.636719 27.855469 Z M 225.636719 27.855469 " fill-opacity="1" fill-rule="nonzero"/></g></g></g><g clip-path="url(#f7a51afc8f)"><path fill="#1e5192" d="M 255.863281 126.214844 C 254.886719 125.304688 252.46875 124.4375 246.8125 127.578125 C 244.367188 129.101562 243.039062 130.082031 242.371094 130.625 C 241.941406 130.972656 241.414062 131.175781 240.863281 131.214844 C 237.914062 131.417969 228.613281 132.316406 225.425781 132.253906 C 224.960938 132.246094 224.800781 131.617188 225.113281 131.371094 C 225.347656 131.1875 225.707031 131.097656 226.21875 130.9375 C 228.027344 130.375 238.078125 130.421875 237.859375 126.660156 C 237.648438 123.054688 230.441406 124.386719 228.304688 124.84375 C 227.472656 125.019531 226.550781 125.15625 225.695312 125.261719 C 225.695312 125.261719 222.59375 125.398438 221.070312 125.03125 C 217.890625 124.199219 211.199219 122.851562 206.972656 126.277344 C 203.566406 129.035156 202.058594 130.851562 201.398438 131.84375 C 200.953125 132.511719 200.34375 133.054688 199.628906 133.425781 L 193.675781 137.617188 C 193.363281 137.839844 193.324219 138.289062 193.59375 138.558594 L 203.367188 148.332031 C 203.636719 148.601562 204.074219 148.566406 204.300781 148.265625 C 205.644531 146.445312 210.453125 141.125 220.480469 141.445312 C 232.554688 141.835938 232.632812 141.601562 235.28125 140.199219 C 237.363281 139.097656 242.304688 137.328125 244.339844 136.617188 C 244.9375 136.40625 245.496094 136.09375 245.984375 135.691406 L 255.800781 127.632812 C 256.253906 127.28125 256.285156 126.605469 255.863281 126.214844 " fill-opacity="1" fill-rule="nonzero"/></g><path fill="#1e5192" d="M 237.28125 123.835938 C 237.589844 124.007812 237.863281 124.210938 238.089844 124.441406 C 238.234375 124.582031 238.359375 124.734375 238.46875 124.894531 C 239.191406 124.550781 239.996094 124.1875 240.863281 123.8125 L 240.875 123.808594 C 243.054688 122.992188 244.933594 122.558594 246.472656 122.511719 C 245.96875 122.246094 245.339844 122.089844 244.597656 122.042969 C 243.023438 121.949219 240.976562 122.367188 238.515625 123.289062 C 238.089844 123.472656 237.671875 123.65625 237.28125 123.835938 " fill-opacity="1" fill-rule="nonzero"/><path fill="#1e5192" d="M 235.996094 130.101562 C 236.570312 130.054688 237.125 130.011719 237.640625 129.972656 L 237.644531 129.972656 C 239.023438 129.863281 240.214844 129.773438 240.976562 129.722656 C 241.105469 129.714844 241.234375 129.691406 241.359375 129.648438 C 241.519531 129.589844 241.667969 129.511719 241.796875 129.40625 C 242.488281 128.851562 243.8125 127.878906 246.210938 126.390625 L 246.238281 126.375 L 246.261719 126.363281 C 246.945312 125.984375 247.613281 125.648438 248.25 125.367188 C 248.875 125.097656 249.476562 124.878906 250.035156 124.714844 C 250.113281 124.691406 250.1875 124.671875 250.265625 124.648438 C 250.179688 124.570312 250.082031 124.496094 249.980469 124.429688 C 249.40625 124.054688 248.640625 123.847656 247.703125 123.820312 C 246.207031 123.769531 244.296875 124.167969 242.027344 125.003906 C 240.992188 125.445312 240.0625 125.867188 239.253906 126.257812 C 239.257812 126.292969 239.257812 126.332031 239.261719 126.367188 C 239.367188 128.027344 238.269531 129.28125 235.996094 130.101562 " fill-opacity="1" fill-rule="nonzero"/><g fill="#1e5192" fill-opacity="1"><g transform="translate(162.525485, 194.907203)"><g><path d="M 0.71875 -16.734375 L 0.71875 -19.03125 L 8.59375 -19.03125 L 8.59375 -16.734375 L 6.5625 -16.34375 L 6.5625 -2.671875 L 8.59375 -2.28125 L 8.59375 0 L 0.71875 0 L 0.71875 -2.28125 L 2.75 -2.671875 L 2.75 -16.34375 Z M 0.71875 -16.734375 "/></g></g></g><g fill="#1e5192" fill-opacity="1"><g transform="translate(171.842378, 194.907203)"><g><path d="M 20.171875 -19.03125 L 20.171875 -16.734375 L 18.140625 -16.34375 L 18.140625 0 L 14.34375 0 L 6.65625 -12.8125 L 6.578125 -12.796875 L 6.578125 -2.671875 L 8.609375 -2.28125 L 8.609375 0 L 0.734375 0 L 0.734375 -2.28125 L 2.75 -2.671875 L 2.75 -16.34375 L 0.734375 -16.734375 L 0.734375 -19.03125 L 6.578125 -19.03125 L 14.265625 -6.21875 L 14.34375 -6.234375 L 14.34375 -16.34375 L 12.296875 -16.734375 L 12.296875 -19.03125 Z M 20.171875 -19.03125 "/></g></g></g><g fill="#1e5192" fill-opacity="1"><g transform="translate(192.514631, 194.907203)"><g><path d="M 9.296875 -19.03125 C 11.617188 -19.03125 13.53125 -18.285156 15.03125 -16.796875 C 16.539062 -15.316406 17.296875 -13.410156 17.296875 -11.078125 L 17.296875 -7.9375 C 17.296875 -5.601562 16.539062 -3.695312 15.03125 -2.21875 C 13.53125 -0.738281 11.617188 0 9.296875 0 L 0.734375 0 L 0.734375 -2.28125 L 2.75 -2.671875 L 2.75 -16.34375 L 0.734375 -16.734375 L 0.734375 -19.03125 Z M 6.578125 -16.09375 L 6.578125 -2.921875 L 9.09375 -2.921875 C 10.457031 -2.921875 11.523438 -3.382812 12.296875 -4.3125 C 13.078125 -5.238281 13.46875 -6.445312 13.46875 -7.9375 L 13.46875 -11.109375 C 13.46875 -12.578125 13.078125 -13.773438 12.296875 -14.703125 C 11.523438 -15.628906 10.457031 -16.09375 9.09375 -16.09375 Z M 6.578125 -16.09375 "/></g></g></g><g fill="#1e5192" fill-opacity="1"><g transform="translate(210.952405, 194.907203)"><g><path d="M 8.390625 -19.03125 L 8.390625 -16.734375 L 6.359375 -16.34375 L 6.359375 -6.40625 C 6.359375 -5.144531 6.691406 -4.203125 7.359375 -3.578125 C 8.035156 -2.960938 8.960938 -2.65625 10.140625 -2.65625 C 11.335938 -2.65625 12.273438 -2.960938 12.953125 -3.578125 C 13.628906 -4.203125 13.96875 -5.144531 13.96875 -6.40625 L 13.96875 -16.34375 L 11.9375 -16.734375 L 11.9375 -19.03125 L 19.828125 -19.03125 L 19.828125 -16.734375 L 17.78125 -16.34375 L 17.78125 -6.40625 C 17.78125 -4.269531 17.078125 -2.617188 15.671875 -1.453125 C 14.265625 -0.296875 12.421875 0.28125 10.140625 0.28125 C 7.867188 0.28125 6.03125 -0.296875 4.625 -1.453125 C 3.226562 -2.617188 2.53125 -4.269531 2.53125 -6.40625 L 2.53125 -16.34375 L 0.515625 -16.734375 L 0.515625 -19.03125 Z M 8.390625 -19.03125 "/></g></g></g><g fill="#1e5192" fill-opacity="1"><g transform="translate(231.167313, 194.907203)"><g><path d="M 15.1875 -12.953125 L 12.328125 -12.953125 L 11.828125 -15.5625 C 11.492188 -15.769531 11.007812 -15.953125 10.375 -16.109375 C 9.738281 -16.265625 9.0625 -16.34375 8.34375 -16.34375 C 7.300781 -16.34375 6.492188 -16.125 5.921875 -15.6875 C 5.359375 -15.25 5.078125 -14.679688 5.078125 -13.984375 C 5.078125 -13.335938 5.375 -12.804688 5.96875 -12.390625 C 6.5625 -11.984375 7.59375 -11.546875 9.0625 -11.078125 C 11.15625 -10.492188 12.742188 -9.722656 13.828125 -8.765625 C 14.910156 -7.804688 15.453125 -6.550781 15.453125 -5 C 15.453125 -3.363281 14.804688 -2.070312 13.515625 -1.125 C 12.234375 -0.1875 10.535156 0.28125 8.421875 0.28125 C 6.921875 0.28125 5.5625 0.0390625 4.34375 -0.4375 C 3.125 -0.914062 2.113281 -1.582031 1.3125 -2.4375 L 1.3125 -6.40625 L 4.265625 -6.40625 L 4.671875 -3.703125 C 5.046875 -3.390625 5.5625 -3.128906 6.21875 -2.921875 C 6.882812 -2.710938 7.617188 -2.609375 8.421875 -2.609375 C 9.472656 -2.609375 10.269531 -2.820312 10.8125 -3.25 C 11.351562 -3.675781 11.625 -4.25 11.625 -4.96875 C 11.625 -5.695312 11.363281 -6.28125 10.84375 -6.71875 C 10.332031 -7.164062 9.425781 -7.585938 8.125 -7.984375 C 5.875 -8.640625 4.164062 -9.414062 3 -10.3125 C 1.84375 -11.207031 1.265625 -12.4375 1.265625 -14 C 1.265625 -15.539062 1.914062 -16.800781 3.21875 -17.78125 C 4.53125 -18.757812 6.175781 -19.265625 8.15625 -19.296875 C 9.613281 -19.296875 10.941406 -19.070312 12.140625 -18.625 C 13.347656 -18.175781 14.363281 -17.582031 15.1875 -16.84375 Z M 15.1875 -12.953125 "/></g></g></g><g fill="#1e5192" fill-opacity="1"><g transform="translate(247.396731, 194.907203)"><g><path d="M 17.484375 -19.03125 L 17.484375 -13.953125 L 14.5625 -13.953125 L 14.40625 -16.09375 L 10.90625 -16.09375 L 10.90625 -2.671875 L 12.9375 -2.28125 L 12.9375 0 L 5.046875 0 L 5.046875 -2.28125 L 7.078125 -2.671875 L 7.078125 -16.09375 L 3.59375 -16.09375 L 3.4375 -13.953125 L 0.515625 -13.953125 L 0.515625 -19.03125 Z M 17.484375 -19.03125 "/></g></g></g><g fill="#1e5192" fill-opacity="1"><g transform="translate(265.390221, 194.907203)"><g><path d="M 9.28125 -19.03125 C 11.4375 -19.03125 13.128906 -18.535156 14.359375 -17.546875 C 15.585938 -16.554688 16.203125 -15.191406 16.203125 -13.453125 C 16.203125 -12.492188 15.941406 -11.660156 15.421875 -10.953125 C 14.910156 -10.242188 14.160156 -9.671875 13.171875 -9.234375 C 14.296875 -8.910156 15.101562 -8.363281 15.59375 -7.59375 C 16.09375 -6.820312 16.34375 -5.863281 16.34375 -4.71875 L 16.34375 -3.75 C 16.34375 -3.332031 16.421875 -3.007812 16.578125 -2.78125 C 16.742188 -2.550781 17.019531 -2.410156 17.40625 -2.359375 L 17.875 -2.296875 L 17.875 0 L 15.90625 0 C 14.65625 0 13.773438 -0.332031 13.265625 -1 C 12.765625 -1.675781 12.515625 -2.546875 12.515625 -3.609375 L 12.515625 -4.6875 C 12.515625 -5.613281 12.269531 -6.335938 11.78125 -6.859375 C 11.289062 -7.390625 10.597656 -7.671875 9.703125 -7.703125 L 6.578125 -7.703125 L 6.578125 -2.671875 L 8.609375 -2.28125 L 8.609375 0 L 0.734375 0 L 0.734375 -2.28125 L 2.75 -2.671875 L 2.75 -16.34375 L 0.734375 -16.734375 L 0.734375 -19.03125 Z M 6.578125 -10.640625 L 9.21875 -10.640625 C 10.28125 -10.640625 11.078125 -10.863281 11.609375 -11.3125 C 12.140625 -11.769531 12.40625 -12.425781 12.40625 -13.28125 C 12.40625 -14.132812 12.140625 -14.816406 11.609375 -15.328125 C 11.085938 -15.835938 10.3125 -16.09375 9.28125 -16.09375 L 6.578125 -16.09375 Z M 6.578125 -10.640625 "/></g></g></g><g fill="#1e5192" fill-opacity="1"><g transform="translate(283.788788, 194.907203)"><g><path d="M 7.671875 -16.734375 L 6.109375 -16.5 L 9.0625 -10.265625 L 9.140625 -10.265625 L 12.109375 -16.5 L 10.5625 -16.734375 L 10.5625 -19.03125 L 17.765625 -19.03125 L 17.765625 -16.734375 L 16.140625 -16.46875 L 10.96875 -6.6875 L 10.96875 -2.671875 L 13 -2.28125 L 13 0 L 5.125 0 L 5.125 -2.28125 L 7.15625 -2.671875 L 7.15625 -6.890625 L 2.078125 -16.46875 L 0.46875 -16.734375 L 0.46875 -19.03125 L 7.671875 -19.03125 Z M 7.671875 -16.734375 "/></g></g></g><g fill="#1e5192" fill-opacity="1"><g transform="translate(134.059196, 218.047386)"><g><path d="M 0.5 -11.515625 L 0.5 -13.09375 L 5.921875 -13.09375 L 5.921875 -11.515625 L 4.515625 -11.25 L 4.515625 -1.84375 L 5.921875 -1.578125 L 5.921875 0 L 0.5 0 L 0.5 -1.578125 L 1.890625 -1.84375 L 1.890625 -11.25 Z M 0.5 -11.515625 "/></g></g></g><g fill="#1e5192" fill-opacity="1"><g transform="translate(140.471015, 218.047386)"><g><path d="M 13.890625 -13.09375 L 13.890625 -11.515625 L 12.484375 -11.25 L 12.484375 0 L 9.875 0 L 4.578125 -8.8125 L 4.53125 -8.8125 L 4.53125 -1.84375 L 5.921875 -1.578125 L 5.921875 0 L 0.5 0 L 0.5 -1.578125 L 1.890625 -1.84375 L 1.890625 -11.25 L 0.5 -11.515625 L 0.5 -13.09375 L 4.53125 -13.09375 L 9.8125 -4.28125 L 9.875 -4.296875 L 9.875 -11.25 L 8.46875 -11.515625 L 8.46875 -13.09375 Z M 13.890625 -13.09375 "/></g></g></g><g fill="#1e5192" fill-opacity="1"><g transform="translate(154.69752, 218.047386)"><g><path d="M 12.03125 -13.09375 L 12.03125 -9.609375 L 10.015625 -9.609375 L 9.90625 -11.078125 L 7.5 -11.078125 L 7.5 -1.84375 L 8.90625 -1.578125 L 8.90625 0 L 3.46875 0 L 3.46875 -1.578125 L 4.875 -1.84375 L 4.875 -11.078125 L 2.46875 -11.078125 L 2.359375 -9.609375 L 0.359375 -9.609375 L 0.359375 -13.09375 Z M 12.03125 -13.09375 "/></g></g></g><g fill="#1e5192" fill-opacity="1"><g transform="translate(167.080515, 218.047386)"><g><path d="M 8.953125 -5.75 L 4.53125 -5.75 L 4.53125 -2.015625 L 8.75 -2.015625 L 8.875 -3.578125 L 10.859375 -3.578125 L 10.859375 0 L 0.5 0 L 0.5 -1.578125 L 1.890625 -1.84375 L 1.890625 -11.25 L 0.5 -11.515625 L 0.5 -13.09375 L 10.84375 -13.09375 L 10.84375 -9.5 L 8.828125 -9.5 L 8.71875 -11.078125 L 4.53125 -11.078125 L 4.53125 -7.78125 L 8.953125 -7.78125 Z M 8.953125 -5.75 "/></g></g></g><g fill="#1e5192" fill-opacity="1"><g transform="translate(178.843011, 218.047386)"><g><path d="M 6.390625 -13.09375 C 7.878906 -13.09375 9.046875 -12.753906 9.890625 -12.078125 C 10.734375 -11.398438 11.15625 -10.457031 11.15625 -9.25 C 11.15625 -8.59375 10.976562 -8.019531 10.625 -7.53125 C 10.269531 -7.050781 9.75 -6.660156 9.0625 -6.359375 C 9.84375 -6.128906 10.398438 -5.75 10.734375 -5.21875 C 11.078125 -4.6875 11.25 -4.03125 11.25 -3.25 L 11.25 -2.578125 C 11.25 -2.296875 11.300781 -2.070312 11.40625 -1.90625 C 11.519531 -1.75 11.710938 -1.65625 11.984375 -1.625 L 12.3125 -1.578125 L 12.3125 0 L 10.953125 0 C 10.085938 0 9.484375 -0.226562 9.140625 -0.6875 C 8.796875 -1.15625 8.625 -1.753906 8.625 -2.484375 L 8.625 -3.234375 C 8.625 -3.867188 8.453125 -4.363281 8.109375 -4.71875 C 7.765625 -5.082031 7.285156 -5.273438 6.671875 -5.296875 L 4.53125 -5.296875 L 4.53125 -1.84375 L 5.921875 -1.578125 L 5.921875 0 L 0.5 0 L 0.5 -1.578125 L 1.890625 -1.84375 L 1.890625 -11.25 L 0.5 -11.515625 L 0.5 -13.09375 Z M 4.53125 -7.328125 L 6.34375 -7.328125 C 7.070312 -7.328125 7.617188 -7.476562 7.984375 -7.78125 C 8.347656 -8.09375 8.53125 -8.546875 8.53125 -9.140625 C 8.53125 -9.722656 8.347656 -10.191406 7.984375 -10.546875 C 7.628906 -10.898438 7.097656 -11.078125 6.390625 -11.078125 L 4.53125 -11.078125 Z M 4.53125 -7.328125 "/></g></g></g><g fill="#1e5192" fill-opacity="1"><g transform="translate(191.50478, 218.047386)"><g><path d="M 13.890625 -13.09375 L 13.890625 -11.515625 L 12.484375 -11.25 L 12.484375 0 L 9.875 0 L 4.578125 -8.8125 L 4.53125 -8.8125 L 4.53125 -1.84375 L 5.921875 -1.578125 L 5.921875 0 L 0.5 0 L 0.5 -1.578125 L 1.890625 -1.84375 L 1.890625 -11.25 L 0.5 -11.515625 L 0.5 -13.09375 L 4.53125 -13.09375 L 9.8125 -4.28125 L 9.875 -4.296875 L 9.875 -11.25 L 8.46875 -11.515625 L 8.46875 -13.09375 Z M 13.890625 -13.09375 "/></g></g></g><g fill="#1e5192" fill-opacity="1"><g transform="translate(205.731285, 218.047386)"><g><path d="M 10.453125 -8.921875 L 8.484375 -8.921875 L 8.140625 -10.71875 C 7.910156 -10.851562 7.578125 -10.972656 7.140625 -11.078125 C 6.703125 -11.191406 6.238281 -11.25 5.75 -11.25 C 5.03125 -11.25 4.472656 -11.097656 4.078125 -10.796875 C 3.679688 -10.492188 3.484375 -10.101562 3.484375 -9.625 C 3.484375 -9.175781 3.6875 -8.8125 4.09375 -8.53125 C 4.507812 -8.25 5.222656 -7.945312 6.234375 -7.625 C 7.679688 -7.226562 8.773438 -6.695312 9.515625 -6.03125 C 10.265625 -5.375 10.640625 -4.507812 10.640625 -3.4375 C 10.640625 -2.3125 10.195312 -1.425781 9.3125 -0.78125 C 8.425781 -0.132812 7.253906 0.1875 5.796875 0.1875 C 4.765625 0.1875 3.828125 0.0234375 2.984375 -0.296875 C 2.148438 -0.628906 1.457031 -1.085938 0.90625 -1.671875 L 0.90625 -4.40625 L 2.9375 -4.40625 L 3.21875 -2.546875 C 3.476562 -2.328125 3.832031 -2.144531 4.28125 -2 C 4.738281 -1.863281 5.242188 -1.796875 5.796875 -1.796875 C 6.515625 -1.796875 7.0625 -1.941406 7.4375 -2.234375 C 7.8125 -2.535156 8 -2.929688 8 -3.421875 C 8 -3.921875 7.820312 -4.320312 7.46875 -4.625 C 7.113281 -4.9375 6.488281 -5.226562 5.59375 -5.5 C 4.039062 -5.945312 2.863281 -6.476562 2.0625 -7.09375 C 1.269531 -7.71875 0.875 -8.566406 0.875 -9.640625 C 0.875 -10.691406 1.320312 -11.554688 2.21875 -12.234375 C 3.125 -12.910156 4.253906 -13.257812 5.609375 -13.28125 C 6.617188 -13.28125 7.535156 -13.125 8.359375 -12.8125 C 9.191406 -12.507812 9.890625 -12.101562 10.453125 -11.59375 Z M 10.453125 -8.921875 "/></g></g></g><g fill="#1e5192" fill-opacity="1"><g transform="translate(216.900261, 218.047386)"><g><path d="M 0.5 -11.515625 L 0.5 -13.09375 L 5.921875 -13.09375 L 5.921875 -11.515625 L 4.53125 -11.25 L 4.53125 -7.46875 L 9.875 -7.46875 L 9.875 -11.25 L 8.46875 -11.515625 L 8.46875 -13.09375 L 13.890625 -13.09375 L 13.890625 -11.515625 L 12.484375 -11.25 L 12.484375 -1.84375 L 13.890625 -1.578125 L 13.890625 0 L 8.46875 0 L 8.46875 -1.578125 L 9.875 -1.84375 L 9.875 -5.4375 L 4.53125 -5.4375 L 4.53125 -1.84375 L 5.921875 -1.578125 L 5.921875 0 L 0.5 0 L 0.5 -1.578125 L 1.890625 -1.84375 L 1.890625 -11.25 Z M 0.5 -11.515625 "/></g></g></g><g fill="#1e5192" fill-opacity="1"><g transform="translate(231.297628, 218.047386)"><g><path d="M 0.5 -11.515625 L 0.5 -13.09375 L 5.921875 -13.09375 L 5.921875 -11.515625 L 4.515625 -11.25 L 4.515625 -1.84375 L 5.921875 -1.578125 L 5.921875 0 L 0.5 0 L 0.5 -1.578125 L 1.890625 -1.84375 L 1.890625 -11.25 Z M 0.5 -11.515625 "/></g></g></g><g fill="#1e5192" fill-opacity="1"><g transform="translate(237.709447, 218.047386)"><g><path d="M 6.734375 -13.09375 C 8.234375 -13.09375 9.414062 -12.707031 10.28125 -11.9375 C 11.144531 -11.164062 11.578125 -10.160156 11.578125 -8.921875 C 11.578125 -7.660156 11.144531 -6.648438 10.28125 -5.890625 C 9.414062 -5.128906 8.234375 -4.75 6.734375 -4.75 L 4.53125 -4.75 L 4.53125 -1.84375 L 5.921875 -1.578125 L 5.921875 0 L 0.5 0 L 0.5 -1.578125 L 1.890625 -1.84375 L 1.890625 -11.25 L 0.5 -11.515625 L 0.5 -13.09375 Z M 4.53125 -6.765625 L 6.734375 -6.765625 C 7.460938 -6.765625 8.015625 -6.960938 8.390625 -7.359375 C 8.765625 -7.765625 8.953125 -8.273438 8.953125 -8.890625 C 8.953125 -9.523438 8.765625 -10.046875 8.390625 -10.453125 C 8.015625 -10.867188 7.460938 -11.078125 6.734375 -11.078125 L 4.53125 -11.078125 Z M 4.53125 -6.765625 "/></g></g></g><g fill="#1e5192" fill-opacity="1"><g transform="translate(249.62482, 218.047386)"><g/></g></g><g fill="#1e5192" fill-opacity="1"><g transform="translate(254.139172, 218.047386)"><g><path d="M 10.453125 -8.921875 L 8.484375 -8.921875 L 8.140625 -10.71875 C 7.910156 -10.851562 7.578125 -10.972656 7.140625 -11.078125 C 6.703125 -11.191406 6.238281 -11.25 5.75 -11.25 C 5.03125 -11.25 4.472656 -11.097656 4.078125 -10.796875 C 3.679688 -10.492188 3.484375 -10.101562 3.484375 -9.625 C 3.484375 -9.175781 3.6875 -8.8125 4.09375 -8.53125 C 4.507812 -8.25 5.222656 -7.945312 6.234375 -7.625 C 7.679688 -7.226562 8.773438 -6.695312 9.515625 -6.03125 C 10.265625 -5.375 10.640625 -4.507812 10.640625 -3.4375 C 10.640625 -2.3125 10.195312 -1.425781 9.3125 -0.78125 C 8.425781 -0.132812 7.253906 0.1875 5.796875 0.1875 C 4.765625 0.1875 3.828125 0.0234375 2.984375 -0.296875 C 2.148438 -0.628906 1.457031 -1.085938 0.90625 -1.671875 L 0.90625 -4.40625 L 2.9375 -4.40625 L 3.21875 -2.546875 C 3.476562 -2.328125 3.832031 -2.144531 4.28125 -2 C 4.738281 -1.863281 5.242188 -1.796875 5.796875 -1.796875 C 6.515625 -1.796875 7.0625 -1.941406 7.4375 -2.234375 C 7.8125 -2.535156 8 -2.929688 8 -3.421875 C 8 -3.921875 7.820312 -4.320312 7.46875 -4.625 C 7.113281 -4.9375 6.488281 -5.226562 5.59375 -5.5 C 4.039062 -5.945312 2.863281 -6.476562 2.0625 -7.09375 C 1.269531 -7.71875 0.875 -8.566406 0.875 -9.640625 C 0.875 -10.691406 1.320312 -11.554688 2.21875 -12.234375 C 3.125 -12.910156 4.253906 -13.257812 5.609375 -13.28125 C 6.617188 -13.28125 7.535156 -13.125 8.359375 -12.8125 C 9.191406 -12.507812 9.890625 -12.101562 10.453125 -11.59375 Z M 10.453125 -8.921875 "/></g></g></g><g fill="#1e5192" fill-opacity="1"><g transform="translate(265.308148, 218.047386)"><g><path d="M 5.28125 -11.515625 L 4.203125 -11.359375 L 6.25 -7.0625 L 6.296875 -7.0625 L 8.328125 -11.359375 L 7.265625 -11.515625 L 7.265625 -13.09375 L 12.21875 -13.09375 L 12.21875 -11.515625 L 11.109375 -11.328125 L 7.546875 -4.609375 L 7.546875 -1.84375 L 8.953125 -1.578125 L 8.953125 0 L 3.53125 0 L 3.53125 -1.578125 L 4.921875 -1.84375 L 4.921875 -4.734375 L 1.4375 -11.328125 L 0.328125 -11.515625 L 0.328125 -13.09375 L 5.28125 -13.09375 Z M 5.28125 -11.515625 "/></g></g></g><g fill="#1e5192" fill-opacity="1"><g transform="translate(277.87999, 218.047386)"><g><path d="M 10.453125 -8.921875 L 8.484375 -8.921875 L 8.140625 -10.71875 C 7.910156 -10.851562 7.578125 -10.972656 7.140625 -11.078125 C 6.703125 -11.191406 6.238281 -11.25 5.75 -11.25 C 5.03125 -11.25 4.472656 -11.097656 4.078125 -10.796875 C 3.679688 -10.492188 3.484375 -10.101562 3.484375 -9.625 C 3.484375 -9.175781 3.6875 -8.8125 4.09375 -8.53125 C 4.507812 -8.25 5.222656 -7.945312 6.234375 -7.625 C 7.679688 -7.226562 8.773438 -6.695312 9.515625 -6.03125 C 10.265625 -5.375 10.640625 -4.507812 10.640625 -3.4375 C 10.640625 -2.3125 10.195312 -1.425781 9.3125 -0.78125 C 8.425781 -0.132812 7.253906 0.1875 5.796875 0.1875 C 4.765625 0.1875 3.828125 0.0234375 2.984375 -0.296875 C 2.148438 -0.628906 1.457031 -1.085938 0.90625 -1.671875 L 0.90625 -4.40625 L 2.9375 -4.40625 L 3.21875 -2.546875 C 3.476562 -2.328125 3.832031 -2.144531 4.28125 -2 C 4.738281 -1.863281 5.242188 -1.796875 5.796875 -1.796875 C 6.515625 -1.796875 7.0625 -1.941406 7.4375 -2.234375 C 7.8125 -2.535156 8 -2.929688 8 -3.421875 C 8 -3.921875 7.820312 -4.320312 7.46875 -4.625 C 7.113281 -4.9375 6.488281 -5.226562 5.59375 -5.5 C 4.039062 -5.945312 2.863281 -6.476562 2.0625 -7.09375 C 1.269531 -7.71875 0.875 -8.566406 0.875 -9.640625 C 0.875 -10.691406 1.320312 -11.554688 2.21875 -12.234375 C 3.125 -12.910156 4.253906 -13.257812 5.609375 -13.28125 C 6.617188 -13.28125 7.535156 -13.125 8.359375 -12.8125 C 9.191406 -12.507812 9.890625 -12.101562 10.453125 -11.59375 Z M 10.453125 -8.921875 "/></g></g></g><g fill="#1e5192" fill-opacity="1"><g transform="translate(289.048965, 218.047386)"><g><path d="M 12.03125 -13.09375 L 12.03125 -9.609375 L 10.015625 -9.609375 L 9.90625 -11.078125 L 7.5 -11.078125 L 7.5 -1.84375 L 8.90625 -1.578125 L 8.90625 0 L 3.46875 0 L 3.46875 -1.578125 L 4.875 -1.84375 L 4.875 -11.078125 L 2.46875 -11.078125 L 2.359375 -9.609375 L 0.359375 -9.609375 L 0.359375 -13.09375 Z M 12.03125 -13.09375 "/></g></g></g><g fill="#1e5192" fill-opacity="1"><g transform="translate(301.43196, 218.047386)"><g><path d="M 8.953125 -5.75 L 4.53125 -5.75 L 4.53125 -2.015625 L 8.75 -2.015625 L 8.875 -3.578125 L 10.859375 -3.578125 L 10.859375 0 L 0.5 0 L 0.5 -1.578125 L 1.890625 -1.84375 L 1.890625 -11.25 L 0.5 -11.515625 L 0.5 -13.09375 L 10.84375 -13.09375 L 10.84375 -9.5 L 8.828125 -9.5 L 8.71875 -11.078125 L 4.53125 -11.078125 L 4.53125 -7.78125 L 8.953125 -7.78125 Z M 8.953125 -5.75 "/></g></g></g><g fill="#1e5192" fill-opacity="1"><g transform="translate(313.194456, 218.047386)"><g><path d="M 13.140625 -9.6875 L 13.09375 -9.703125 L 9.578125 0 L 7.8125 0 L 4.328125 -9.65625 L 4.265625 -9.65625 L 4.53125 -3.90625 L 4.53125 -1.84375 L 5.921875 -1.578125 L 5.921875 0 L 0.5 0 L 0.5 -1.578125 L 1.890625 -1.84375 L 1.890625 -11.25 L 0.5 -11.515625 L 0.5 -13.09375 L 5.328125 -13.09375 L 8.65625 -3.4375 L 8.71875 -3.4375 L 12.078125 -13.09375 L 16.921875 -13.09375 L 16.921875 -11.515625 L 15.515625 -11.25 L 15.515625 -1.84375 L 16.921875 -1.578125 L 16.921875 0 L 11.5 0 L 11.5 -1.578125 L 12.890625 -1.84375 L 12.890625 -3.90625 Z M 13.140625 -9.6875 "/></g></g></g><g clip-path="url(#610150e85c)"><path fill="#1e5192" d="M 255.433594 115.246094 L 255.433594 97.082031 C 255.1875 97.324219 254.917969 97.554688 254.648438 97.761719 C 254.394531 97.957031 254.132812 98.132812 253.863281 98.300781 C 252.96875 98.847656 251.972656 99.21875 250.929688 99.378906 C 249.527344 99.59375 248.078125 99.511719 246.660156 99.511719 L 236.628906 99.511719 C 236.59375 99.511719 236.554688 99.511719 236.519531 99.503906 L 236.519531 100.15625 C 236.519531 100.234375 236.523438 100.304688 236.519531 100.386719 C 236.496094 100.808594 236.183594 101.125 235.757812 101.144531 C 235.011719 101.179688 234.25 101.144531 233.496094 101.144531 L 229.84375 101.144531 C 229.523438 101.144531 229.207031 101.148438 228.886719 101.144531 C 228.410156 101.132812 228.078125 100.8125 228.074219 100.332031 C 228.070312 100.058594 228.070312 99.78125 228.070312 99.511719 C 228.039062 99.515625 228 99.515625 227.96875 99.515625 C 227.949219 99.515625 227.921875 99.515625 227.902344 99.515625 C 226.476562 99.535156 225.046875 99.515625 223.625 99.515625 L 217.265625 99.515625 C 215.691406 99.515625 214.085938 99.617188 212.566406 99.128906 C 211.933594 98.925781 211.316406 98.648438 210.734375 98.308594 C 210.464844 98.144531 210.203125 97.972656 209.949219 97.78125 C 209.671875 97.574219 209.410156 97.347656 209.164062 97.109375 L 209.164062 116.90625 C 209.164062 117.054688 209.160156 117.199219 209.171875 117.347656 C 209.273438 118.730469 210.402344 119.796875 211.789062 119.816406 C 212.128906 119.824219 212.464844 119.816406 212.804688 119.816406 L 251.390625 119.816406 C 251.839844 119.816406 252.296875 119.816406 252.746094 119.816406 C 254.277344 119.8125 255.425781 118.609375 255.433594 117.09375 C 255.433594 116.46875 255.433594 115.859375 255.433594 115.246094 Z M 255.433594 115.246094 " fill-opacity="1" fill-rule="nonzero"/></g><g clip-path="url(#9ccdc99d6c)"><path fill="#1e5192" d="M 255.421875 88.984375 L 255.421875 87.183594 C 255.324219 85.8125 254.203125 84.730469 252.808594 84.710938 C 252.714844 84.710938 252.625 84.710938 252.53125 84.710938 L 241.308594 84.710938 L 241.308594 80.800781 C 241.308594 80.003906 241.082031 79.25 240.507812 78.675781 C 239.96875 78.128906 239.242188 77.878906 238.480469 77.875 C 237.796875 77.875 237.117188 77.875 236.429688 77.875 L 226.40625 77.875 C 226.273438 77.875 226.144531 77.867188 226.015625 77.875 C 224.515625 77.90625 223.332031 79.09375 223.292969 80.597656 C 223.261719 81.960938 223.277344 83.339844 223.289062 84.710938 L 212.347656 84.710938 C 212.1875 84.710938 212.027344 84.710938 211.867188 84.710938 C 211.164062 84.710938 210.511719 84.953125 209.992188 85.433594 C 209.488281 85.90625 209.222656 86.546875 209.179688 87.222656 L 209.179688 89.761719 C 209.179688 90.128906 209.179688 90.492188 209.179688 90.855469 C 209.179688 91.015625 209.179688 91.167969 209.191406 91.324219 C 209.195312 91.433594 209.207031 91.539062 209.21875 91.648438 C 209.21875 91.664062 209.222656 91.679688 209.222656 91.695312 C 209.25 91.847656 209.269531 92 209.300781 92.144531 C 209.378906 92.511719 209.496094 92.871094 209.625 93.222656 C 209.625 93.230469 209.625 93.230469 209.632812 93.234375 C 209.632812 93.238281 209.632812 93.238281 209.636719 93.246094 C 209.640625 93.253906 209.640625 93.261719 209.648438 93.269531 C 209.679688 93.34375 209.714844 93.417969 209.75 93.492188 C 209.820312 93.625 209.886719 93.757812 209.960938 93.886719 C 209.972656 93.910156 209.980469 93.929688 209.996094 93.945312 C 210.097656 94.113281 210.203125 94.28125 210.316406 94.4375 C 210.363281 94.507812 210.417969 94.5625 210.457031 94.632812 C 210.453125 94.621094 210.449219 94.609375 210.441406 94.601562 C 210.453125 94.617188 210.457031 94.625 210.46875 94.636719 C 210.558594 94.746094 210.652344 94.855469 210.75 94.960938 C 210.902344 95.125 211.066406 95.28125 211.234375 95.433594 C 211.300781 95.496094 211.371094 95.554688 211.441406 95.609375 C 211.453125 95.621094 211.46875 95.632812 211.484375 95.640625 C 211.574219 95.699219 211.609375 95.71875 211.613281 95.726562 C 211.609375 95.726562 211.582031 95.703125 211.546875 95.683594 C 211.65625 95.757812 211.761719 95.839844 211.871094 95.914062 C 212.164062 96.101562 212.46875 96.269531 212.78125 96.417969 C 213.085938 96.511719 212.925781 96.472656 212.824219 96.4375 C 212.835938 96.441406 212.839844 96.441406 212.851562 96.449219 C 212.941406 96.480469 213.023438 96.515625 213.113281 96.542969 C 213.28125 96.601562 213.449219 96.652344 213.613281 96.699219 C 213.796875 96.746094 213.980469 96.789062 214.171875 96.824219 C 214.234375 96.835938 214.296875 96.847656 214.359375 96.855469 C 214.394531 96.863281 214.433594 96.863281 214.464844 96.867188 C 214.929688 96.910156 215.398438 96.898438 215.867188 96.898438 L 227.984375 96.898438 C 228.023438 96.898438 228.058594 96.898438 228.09375 96.902344 L 228.09375 95.640625 C 228.09375 95.277344 228.042969 94.882812 228.339844 94.609375 C 228.597656 94.375 228.933594 94.410156 229.253906 94.410156 L 235.585938 94.410156 C 235.648438 94.410156 235.71875 94.410156 235.78125 94.410156 C 236.1875 94.433594 236.476562 94.714844 236.527344 95.109375 C 236.535156 95.128906 236.535156 95.148438 236.535156 95.171875 C 236.535156 95.179688 236.535156 95.191406 236.535156 95.203125 L 236.535156 96.910156 C 236.570312 96.902344 236.609375 96.902344 236.644531 96.902344 L 236.710938 96.902344 C 238.097656 96.878906 239.488281 96.902344 240.867188 96.902344 L 249.496094 96.902344 C 249.722656 96.902344 249.941406 96.894531 250.167969 96.871094 C 250.207031 96.867188 250.253906 96.863281 250.296875 96.855469 C 250.351562 96.847656 250.40625 96.839844 250.460938 96.832031 C 250.644531 96.792969 250.832031 96.757812 251.015625 96.703125 C 251.199219 96.65625 251.375 96.601562 251.554688 96.539062 C 251.636719 96.503906 251.714844 96.472656 251.800781 96.441406 C 252.125 96.292969 252.433594 96.128906 252.730469 95.933594 C 252.832031 95.871094 252.925781 95.808594 253.019531 95.742188 C 253.046875 95.71875 253.128906 95.65625 253.167969 95.632812 C 253.167969 95.632812 253.171875 95.625 253.171875 95.625 C 253.175781 95.621094 253.1875 95.617188 253.1875 95.609375 C 253.261719 95.554688 253.328125 95.492188 253.394531 95.433594 C 253.5625 95.285156 253.722656 95.128906 253.878906 94.960938 C 253.976562 94.855469 254.070312 94.753906 254.160156 94.636719 C 254.164062 94.625 254.175781 94.621094 254.183594 94.609375 C 254.222656 94.542969 254.28125 94.476562 254.328125 94.410156 C 254.429688 94.269531 254.523438 94.125 254.605469 93.976562 C 254.621094 93.945312 254.640625 93.914062 254.65625 93.886719 C 254.738281 93.746094 254.816406 93.605469 254.882812 93.460938 C 254.914062 93.390625 254.953125 93.316406 254.984375 93.25 C 255.113281 92.902344 255.230469 92.554688 255.308594 92.1875 C 255.332031 92.070312 255.355469 91.953125 255.375 91.835938 C 255.375 91.835938 255.375 91.832031 255.375 91.832031 C 255.375 91.832031 255.375 91.824219 255.375 91.824219 C 255.375 91.820312 255.375 91.816406 255.375 91.808594 C 255.375 91.804688 255.375 91.800781 255.378906 91.792969 C 255.386719 91.742188 255.394531 91.675781 255.402344 91.632812 C 255.410156 91.539062 255.417969 91.4375 255.421875 91.34375 C 255.425781 91.191406 255.433594 91.039062 255.4375 90.886719 L 255.4375 89.851562 C 255.425781 89.542969 255.421875 89.265625 255.421875 88.984375 Z M 238.707031 80.617188 C 238.707031 80.621094 238.707031 80.628906 238.710938 80.628906 C 238.710938 80.628906 238.710938 80.632812 238.710938 80.632812 C 238.71875 80.660156 238.722656 80.675781 238.710938 80.648438 C 238.707031 80.652344 238.695312 80.644531 238.691406 80.632812 C 238.71875 81.996094 238.707031 83.355469 238.695312 84.714844 L 225.90625 84.714844 L 225.90625 80.910156 C 225.90625 80.820312 225.90625 80.726562 225.90625 80.636719 C 225.890625 80.660156 225.878906 80.664062 225.875 80.660156 C 225.863281 80.675781 225.863281 80.644531 225.871094 80.605469 C 225.84375 80.636719 225.828125 80.644531 225.871094 80.597656 C 225.871094 80.574219 225.875 80.558594 225.878906 80.539062 C 225.878906 80.539062 225.878906 80.539062 225.875 80.539062 C 225.875 80.539062 225.875 80.539062 225.878906 80.539062 C 225.886719 80.527344 225.886719 80.511719 225.890625 80.503906 C 225.855469 80.503906 225.863281 80.492188 225.898438 80.488281 C 225.902344 80.460938 225.914062 80.449219 225.914062 80.480469 C 225.921875 80.480469 225.933594 80.476562 225.949219 80.476562 C 225.949219 80.472656 225.949219 80.472656 225.949219 80.464844 C 225.949219 80.464844 225.949219 80.472656 225.949219 80.472656 C 225.96875 80.464844 225.984375 80.464844 226.007812 80.460938 C 226.027344 80.4375 226.039062 80.433594 226.042969 80.429688 C 226.039062 80.433594 226.027344 80.445312 226.011719 80.460938 C 226.054688 80.453125 226.085938 80.453125 226.070312 80.464844 C 226.074219 80.472656 226.070312 80.480469 226.046875 80.496094 C 226.089844 80.496094 226.132812 80.496094 226.175781 80.496094 L 238.117188 80.496094 C 238.273438 80.496094 238.425781 80.492188 238.582031 80.496094 C 238.570312 80.492188 238.566406 80.492188 238.558594 80.488281 C 238.523438 80.464844 238.535156 80.460938 238.558594 80.453125 C 238.542969 80.445312 238.550781 80.445312 238.566406 80.453125 C 238.570312 80.453125 238.582031 80.453125 238.585938 80.453125 C 238.566406 80.4375 238.554688 80.429688 238.550781 80.421875 C 238.550781 80.421875 238.566406 80.433594 238.589844 80.453125 C 238.613281 80.453125 238.632812 80.460938 238.65625 80.460938 C 238.664062 80.460938 238.671875 80.464844 238.679688 80.464844 C 238.679688 80.453125 238.679688 80.449219 238.6875 80.449219 C 238.6875 80.449219 238.691406 80.453125 238.691406 80.464844 C 238.738281 80.476562 238.757812 80.488281 238.691406 80.492188 C 238.691406 80.503906 238.691406 80.507812 238.691406 80.519531 C 238.707031 80.523438 238.71875 80.527344 238.722656 80.527344 C 238.71875 80.527344 238.703125 80.527344 238.691406 80.523438 L 238.691406 80.527344 C 238.695312 80.535156 238.707031 80.539062 238.71875 80.550781 C 238.710938 80.550781 238.707031 80.542969 238.695312 80.539062 C 238.695312 80.550781 238.703125 80.554688 238.703125 80.566406 C 238.71875 80.585938 238.738281 80.605469 238.753906 80.617188 C 238.738281 80.605469 238.722656 80.589844 238.707031 80.582031 C 238.707031 80.601562 238.707031 80.605469 238.707031 80.617188 Z M 238.707031 80.617188 " fill-opacity="1" fill-rule="nonzero"/></g></svg>