<svg xmlns="http://www.w3.org/2000/svg" xmlns:xlink="http://www.w3.org/1999/xlink" width="277" zoomAndPan="magnify" viewBox="0 0 207.75 233.249991" height="311" preserveAspectRatio="xMidYMid meet" version="1.0"><defs><clipPath id="8935b4b197"><path d="M 2 1 L 206 1 L 206 231.753906 L 2 231.753906 Z M 2 1 " clip-rule="nonzero"/></clipPath></defs><path fill="#ffffff" d="M 139.445312 101.046875 L 88.273438 152.21875 L 68.351562 132.296875 C 68.160156 132.105469 67.953125 131.933594 67.730469 131.785156 C 67.503906 131.632812 67.269531 131.507812 67.019531 131.40625 C 66.769531 131.300781 66.511719 131.222656 66.246094 131.171875 C 65.984375 131.117188 65.714844 131.089844 65.445312 131.089844 C 65.175781 131.089844 64.910156 131.117188 64.644531 131.171875 C 64.378906 131.222656 64.121094 131.300781 63.871094 131.40625 C 63.625 131.507812 63.386719 131.632812 63.160156 131.785156 C 62.9375 131.933594 62.730469 132.105469 62.539062 132.296875 L 39.28125 155.554688 C 39.089844 155.746094 38.917969 155.953125 38.769531 156.175781 C 38.617188 156.402344 38.492188 156.640625 38.386719 156.886719 C 38.285156 157.136719 38.207031 157.394531 38.15625 157.660156 C 38.101562 157.925781 38.074219 158.191406 38.074219 158.460938 C 38.074219 158.730469 38.101562 159 38.15625 159.261719 C 38.207031 159.527344 38.285156 159.785156 38.386719 160.035156 C 38.492188 160.285156 38.617188 160.519531 38.769531 160.746094 C 38.917969 160.96875 39.089844 161.175781 39.28125 161.367188 L 85.363281 207.464844 C 85.554688 207.65625 85.761719 207.824219 85.984375 207.976562 C 86.210938 208.125 86.445312 208.25 86.695312 208.355469 C 86.945312 208.457031 87.203125 208.535156 87.46875 208.589844 C 87.730469 208.640625 88 208.667969 88.269531 208.667969 C 88.539062 208.667969 88.804688 208.640625 89.070312 208.589844 C 89.335938 208.535156 89.59375 208.457031 89.84375 208.355469 C 90.09375 208.25 90.328125 208.125 90.554688 207.976562 C 90.777344 207.824219 90.984375 207.65625 91.175781 207.464844 L 168.519531 130.117188 C 168.710938 129.925781 168.882812 129.71875 169.03125 129.492188 C 169.179688 129.269531 169.308594 129.03125 169.410156 128.78125 C 169.515625 128.53125 169.59375 128.277344 169.644531 128.011719 C 169.699219 127.746094 169.722656 127.480469 169.722656 127.210938 C 169.722656 126.9375 169.699219 126.671875 169.644531 126.40625 C 169.59375 126.140625 169.515625 125.886719 169.410156 125.636719 C 169.308594 125.386719 169.179688 125.148438 169.03125 124.925781 C 168.882812 124.699219 168.710938 124.492188 168.519531 124.300781 L 145.261719 101.046875 C 145.070312 100.855469 144.863281 100.6875 144.636719 100.535156 C 144.414062 100.386719 144.175781 100.257812 143.925781 100.15625 C 143.675781 100.054688 143.421875 99.976562 143.15625 99.921875 C 142.890625 99.871094 142.625 99.84375 142.351562 99.84375 C 142.082031 99.84375 141.816406 99.871094 141.550781 99.921875 C 141.285156 99.976562 141.03125 100.054688 140.78125 100.15625 C 140.53125 100.257812 140.292969 100.386719 140.070312 100.535156 C 139.84375 100.6875 139.636719 100.855469 139.445312 101.046875 Z M 88.273438 198.742188 L 47.980469 158.449219 L 65.441406 141.027344 L 85.363281 160.953125 C 85.753906 161.324219 86.203125 161.609375 86.703125 161.808594 C 87.207031 162.011719 87.730469 162.109375 88.269531 162.109375 C 88.808594 162.109375 89.332031 162.011719 89.832031 161.808594 C 90.335938 161.609375 90.785156 161.324219 91.175781 160.953125 L 142.351562 109.78125 L 159.816406 127.210938 Z M 88.273438 198.742188 " fill-opacity="1" fill-rule="nonzero"/><g clip-path="url(#8935b4b197)"><path fill="#ffffff" d="M 185.171875 28.234375 L 168.675781 28.234375 L 168.675781 22.992188 C 168.675781 22.292969 168.644531 21.59375 168.574219 20.898438 C 168.507812 20.203125 168.40625 19.511719 168.269531 18.824219 C 168.132812 18.140625 167.964844 17.460938 167.761719 16.792969 C 167.558594 16.121094 167.324219 15.464844 167.054688 14.816406 C 166.789062 14.171875 166.488281 13.539062 166.160156 12.921875 C 165.832031 12.304688 165.472656 11.707031 165.082031 11.125 C 164.695312 10.542969 164.277344 9.980469 163.835938 9.441406 C 163.390625 8.898438 162.921875 8.382812 162.429688 7.886719 C 161.933594 7.394531 161.417969 6.921875 160.875 6.480469 C 160.335938 6.035156 159.773438 5.621094 159.191406 5.230469 C 158.613281 4.84375 158.011719 4.484375 157.394531 4.152344 C 156.777344 3.824219 156.148438 3.523438 155.5 3.257812 C 154.855469 2.988281 154.199219 2.753906 153.527344 2.550781 C 152.859375 2.347656 152.179688 2.175781 151.496094 2.039062 C 150.808594 1.902344 150.117188 1.800781 149.421875 1.734375 C 148.726562 1.664062 148.027344 1.628906 147.328125 1.628906 C 146.628906 1.628906 145.929688 1.664062 145.234375 1.734375 C 144.539062 1.800781 143.847656 1.902344 143.160156 2.039062 C 142.476562 2.175781 141.796875 2.347656 141.128906 2.550781 C 140.460938 2.753906 139.800781 2.988281 139.15625 3.257812 C 138.507812 3.523438 137.878906 3.824219 137.261719 4.152344 C 136.644531 4.484375 136.046875 4.84375 135.464844 5.230469 C 134.882812 5.621094 134.320312 6.035156 133.78125 6.480469 C 133.242188 6.921875 132.722656 7.394531 132.226562 7.886719 C 131.734375 8.382812 131.265625 8.898438 130.820312 9.441406 C 130.378906 9.980469 129.960938 10.542969 129.574219 11.125 C 129.183594 11.707031 128.828125 12.304688 128.496094 12.921875 C 128.167969 13.539062 127.867188 14.171875 127.601562 14.816406 C 127.335938 15.464844 127.097656 16.121094 126.898438 16.792969 C 126.695312 17.460938 126.523438 18.140625 126.390625 18.824219 C 126.253906 19.511719 126.152344 20.203125 126.082031 20.898438 C 126.015625 21.59375 125.980469 22.292969 125.980469 22.992188 L 125.980469 28.234375 L 77.703125 28.234375 C 77.433594 28.234375 77.164062 28.261719 76.898438 28.3125 C 76.636719 28.367188 76.378906 28.445312 76.128906 28.546875 C 75.878906 28.652344 75.644531 28.777344 75.417969 28.925781 C 75.195312 29.078125 74.984375 29.246094 74.796875 29.4375 C 74.605469 29.628906 74.433594 29.835938 74.285156 30.0625 C 74.132812 30.285156 74.007812 30.523438 73.902344 30.773438 C 73.800781 31.023438 73.722656 31.277344 73.667969 31.542969 C 73.617188 31.808594 73.589844 32.074219 73.589844 32.347656 L 73.589844 41.695312 C 73.589844 42.558594 73.507812 43.410156 73.339844 44.257812 C 73.171875 45.101562 72.921875 45.921875 72.59375 46.71875 C 72.261719 47.515625 71.859375 48.269531 71.378906 48.988281 C 70.898438 49.703125 70.355469 50.367188 69.746094 50.976562 C 69.136719 51.585938 68.472656 52.128906 67.757812 52.609375 C 67.042969 53.085938 66.285156 53.492188 65.488281 53.820312 C 64.691406 54.152344 63.871094 54.398438 63.027344 54.566406 C 62.183594 54.734375 61.328125 54.820312 60.464844 54.820312 C 59.605469 54.820312 58.75 54.734375 57.90625 54.566406 C 57.0625 54.398438 56.242188 54.152344 55.445312 53.820312 C 54.648438 53.492188 53.890625 53.085938 53.175781 52.609375 C 52.457031 52.128906 51.796875 51.585938 51.1875 50.976562 C 50.578125 50.367188 50.03125 49.703125 49.554688 48.988281 C 49.074219 48.269531 48.671875 47.515625 48.339844 46.71875 C 48.011719 45.921875 47.761719 45.101562 47.59375 44.257812 C 47.425781 43.410156 47.34375 42.558594 47.34375 41.695312 L 47.34375 22.992188 C 47.34375 22.328125 47.394531 21.667969 47.492188 21.011719 C 47.59375 20.355469 47.742188 19.710938 47.941406 19.078125 C 48.140625 18.445312 48.386719 17.832031 48.675781 17.234375 C 48.96875 16.640625 49.300781 16.070312 49.679688 15.523438 C 50.058594 14.980469 50.476562 14.464844 50.929688 13.984375 C 51.386719 13.5 51.878906 13.054688 52.402344 12.648438 C 52.925781 12.242188 53.476562 11.875 54.054688 11.550781 C 54.632812 11.226562 55.234375 10.949219 55.855469 10.714844 C 56.476562 10.480469 57.109375 10.296875 57.757812 10.160156 C 58.410156 10.023438 59.066406 9.933594 59.726562 9.898438 C 60.390625 9.859375 61.050781 9.875 61.710938 9.9375 C 62.371094 10 63.023438 10.113281 63.667969 10.273438 C 64.3125 10.433594 64.9375 10.644531 65.550781 10.902344 C 66.160156 11.160156 66.75 11.460938 67.316406 11.804688 C 67.882812 12.152344 68.417969 12.539062 68.925781 12.96875 C 69.433594 13.394531 69.90625 13.859375 70.34375 14.359375 C 70.515625 14.578125 70.707031 14.777344 70.921875 14.960938 C 71.136719 15.140625 71.363281 15.296875 71.609375 15.433594 C 71.855469 15.566406 72.113281 15.675781 72.378906 15.757812 C 72.648438 15.835938 72.921875 15.890625 73.199219 15.917969 C 73.476562 15.941406 73.757812 15.941406 74.035156 15.910156 C 74.3125 15.878906 74.585938 15.820312 74.851562 15.734375 C 75.117188 15.648438 75.371094 15.535156 75.613281 15.398438 C 75.859375 15.257812 76.085938 15.097656 76.292969 14.914062 C 76.503906 14.726562 76.695312 14.523438 76.863281 14.300781 C 77.03125 14.078125 77.175781 13.839844 77.296875 13.585938 C 77.414062 13.332031 77.507812 13.070312 77.574219 12.800781 C 77.640625 12.527344 77.679688 12.25 77.6875 11.972656 C 77.699219 11.691406 77.679688 11.414062 77.632812 11.136719 C 77.589844 10.863281 77.515625 10.59375 77.414062 10.332031 C 77.3125 10.074219 77.183594 9.824219 77.03125 9.589844 C 76.878906 9.355469 76.707031 9.136719 76.511719 8.9375 C 75.800781 8.125 75.03125 7.371094 74.207031 6.675781 C 73.378906 5.980469 72.507812 5.347656 71.585938 4.785156 C 70.664062 4.222656 69.707031 3.730469 68.710938 3.3125 C 67.714844 2.894531 66.695312 2.554688 65.644531 2.289062 C 64.597656 2.027344 63.539062 1.84375 62.464844 1.742188 C 61.386719 1.640625 60.3125 1.617188 59.234375 1.679688 C 58.15625 1.742188 57.085938 1.882812 56.03125 2.105469 C 54.972656 2.328125 53.941406 2.632812 52.929688 3.011719 C 51.917969 3.390625 50.941406 3.84375 50 4.375 C 49.058594 4.902344 48.164062 5.496094 47.3125 6.160156 C 46.460938 6.824219 45.664062 7.550781 44.921875 8.335938 C 44.179688 9.121094 43.503906 9.957031 42.886719 10.84375 C 42.273438 11.734375 41.730469 12.664062 41.253906 13.632812 C 40.78125 14.605469 40.382812 15.605469 40.0625 16.636719 C 39.742188 17.667969 39.5 18.714844 39.335938 19.785156 C 39.175781 20.851562 39.09375 21.925781 39.09375 23.003906 L 39.09375 28.246094 L 22.625 28.246094 C 21.949219 28.246094 21.277344 28.28125 20.609375 28.347656 C 19.9375 28.414062 19.273438 28.515625 18.613281 28.644531 C 17.953125 28.777344 17.300781 28.941406 16.660156 29.136719 C 16.015625 29.332031 15.382812 29.558594 14.761719 29.816406 C 14.136719 30.078125 13.53125 30.363281 12.9375 30.679688 C 12.34375 31 11.765625 31.34375 11.207031 31.71875 C 10.648438 32.09375 10.109375 32.492188 9.589844 32.921875 C 9.066406 33.347656 8.570312 33.800781 8.09375 34.273438 C 7.617188 34.75 7.167969 35.25 6.738281 35.769531 C 6.3125 36.289062 5.910156 36.828125 5.539062 37.390625 C 5.164062 37.949219 4.816406 38.523438 4.5 39.117188 C 4.183594 39.710938 3.894531 40.320312 3.636719 40.941406 C 3.378906 41.5625 3.152344 42.195312 2.957031 42.839844 C 2.761719 43.484375 2.597656 44.136719 2.464844 44.796875 C 2.332031 45.457031 2.234375 46.121094 2.167969 46.789062 C 2.101562 47.460938 2.066406 48.132812 2.066406 48.804688 L 2.066406 211.335938 C 2.066406 212.011719 2.101562 212.679688 2.167969 213.351562 C 2.234375 214.019531 2.332031 214.6875 2.464844 215.347656 C 2.597656 216.007812 2.761719 216.65625 2.957031 217.300781 C 3.152344 217.945312 3.378906 218.578125 3.636719 219.199219 C 3.894531 219.820312 4.183594 220.429688 4.5 221.023438 C 4.816406 221.617188 5.164062 222.191406 5.539062 222.753906 C 5.910156 223.3125 6.3125 223.851562 6.738281 224.371094 C 7.167969 224.890625 7.617188 225.390625 8.09375 225.867188 C 8.570312 226.34375 9.066406 226.792969 9.589844 227.222656 C 10.109375 227.648438 10.648438 228.046875 11.207031 228.421875 C 11.765625 228.796875 12.34375 229.144531 12.9375 229.460938 C 13.53125 229.777344 14.136719 230.066406 14.761719 230.324219 C 15.382812 230.582031 16.015625 230.808594 16.660156 231.003906 C 17.300781 231.199219 17.953125 231.363281 18.613281 231.496094 C 19.273438 231.628906 19.9375 231.726562 20.609375 231.792969 C 21.277344 231.859375 21.949219 231.894531 22.625 231.894531 L 164.5625 231.894531 C 164.835938 231.894531 165.101562 231.867188 165.367188 231.816406 C 165.632812 231.761719 165.886719 231.683594 166.136719 231.582031 C 166.386719 231.480469 166.625 231.351562 166.847656 231.203125 C 167.074219 231.050781 167.28125 230.882812 167.472656 230.691406 C 167.664062 230.5 167.832031 230.292969 167.984375 230.066406 C 168.132812 229.84375 168.257812 229.605469 168.363281 229.355469 C 168.464844 229.105469 168.542969 228.851562 168.597656 228.585938 C 168.648438 228.320312 168.675781 228.054688 168.675781 227.785156 C 168.675781 227.511719 168.648438 227.246094 168.597656 226.980469 C 168.542969 226.714844 168.464844 226.460938 168.363281 226.210938 C 168.257812 225.960938 168.132812 225.722656 167.984375 225.5 C 167.832031 225.273438 167.664062 225.066406 167.472656 224.875 C 167.28125 224.683594 167.074219 224.515625 166.847656 224.363281 C 166.625 224.214844 166.386719 224.089844 166.136719 223.984375 C 165.886719 223.882812 165.632812 223.804688 165.367188 223.75 C 165.101562 223.699219 164.835938 223.671875 164.5625 223.671875 L 22.625 223.671875 C 21.8125 223.671875 21.011719 223.59375 20.21875 223.433594 C 19.421875 223.277344 18.652344 223.042969 17.902344 222.734375 C 17.15625 222.421875 16.445312 222.042969 15.769531 221.59375 C 15.097656 221.144531 14.472656 220.632812 13.902344 220.058594 C 13.328125 219.484375 12.816406 218.863281 12.367188 218.191406 C 11.917969 217.515625 11.539062 216.804688 11.226562 216.058594 C 10.917969 215.308594 10.683594 214.539062 10.527344 213.742188 C 10.367188 212.949219 10.289062 212.148438 10.289062 211.335938 L 10.289062 84.835938 L 197.507812 84.835938 L 197.507812 211.335938 C 197.507812 212.148438 197.425781 212.949219 197.269531 213.742188 C 197.113281 214.539062 196.878906 215.308594 196.566406 216.058594 C 196.257812 216.804688 195.878906 217.515625 195.429688 218.191406 C 194.976562 218.863281 194.464844 219.484375 193.894531 220.058594 C 193.320312 220.632812 192.699219 221.144531 192.023438 221.59375 C 191.351562 222.042969 190.640625 222.421875 189.890625 222.734375 C 189.144531 223.042969 188.371094 223.277344 187.578125 223.433594 C 186.785156 223.59375 185.980469 223.671875 185.171875 223.671875 C 184.902344 223.671875 184.632812 223.699219 184.371094 223.75 C 184.105469 223.804688 183.847656 223.882812 183.597656 223.984375 C 183.347656 224.089844 183.113281 224.214844 182.886719 224.363281 C 182.664062 224.515625 182.457031 224.683594 182.265625 224.875 C 182.074219 225.066406 181.902344 225.273438 181.753906 225.5 C 181.601562 225.722656 181.476562 225.960938 181.375 226.210938 C 181.269531 226.460938 181.191406 226.714844 181.140625 226.980469 C 181.085938 227.246094 181.058594 227.511719 181.058594 227.785156 C 181.058594 228.054688 181.085938 228.320312 181.140625 228.585938 C 181.191406 228.851562 181.269531 229.105469 181.375 229.355469 C 181.476562 229.605469 181.601562 229.84375 181.753906 230.066406 C 181.902344 230.292969 182.074219 230.5 182.265625 230.691406 C 182.457031 230.882812 182.664062 231.050781 182.886719 231.203125 C 183.113281 231.351562 183.347656 231.480469 183.597656 231.582031 C 183.847656 231.683594 184.105469 231.761719 184.371094 231.816406 C 184.632812 231.867188 184.902344 231.894531 185.171875 231.894531 C 185.84375 231.894531 186.515625 231.859375 187.1875 231.792969 C 187.855469 231.726562 188.519531 231.628906 189.179688 231.496094 C 189.839844 231.363281 190.492188 231.199219 191.136719 231.003906 C 191.78125 230.808594 192.414062 230.582031 193.035156 230.324219 C 193.65625 230.066406 194.265625 229.777344 194.859375 229.460938 C 195.453125 229.144531 196.027344 228.796875 196.585938 228.421875 C 197.148438 228.046875 197.6875 227.648438 198.207031 227.222656 C 198.726562 226.792969 199.226562 226.34375 199.703125 225.867188 C 200.175781 225.390625 200.628906 224.890625 201.054688 224.371094 C 201.484375 223.851562 201.882812 223.3125 202.257812 222.753906 C 202.632812 222.191406 202.976562 221.617188 203.296875 221.023438 C 203.613281 220.429688 203.902344 219.820312 204.160156 219.199219 C 204.417969 218.578125 204.644531 217.945312 204.839844 217.300781 C 205.035156 216.65625 205.199219 216.007812 205.332031 215.347656 C 205.460938 214.6875 205.5625 214.019531 205.628906 213.351562 C 205.695312 212.679688 205.730469 212.011719 205.730469 211.335938 L 205.730469 48.792969 C 205.730469 48.121094 205.695312 47.449219 205.628906 46.777344 C 205.5625 46.109375 205.460938 45.445312 205.332031 44.785156 C 205.199219 44.125 205.035156 43.472656 204.839844 42.828125 C 204.644531 42.183594 204.417969 41.550781 204.160156 40.929688 C 203.902344 40.308594 203.613281 39.699219 203.296875 39.105469 C 202.976562 38.511719 202.632812 37.9375 202.257812 37.375 C 201.882812 36.816406 201.484375 36.277344 201.054688 35.757812 C 200.628906 35.238281 200.175781 34.738281 199.703125 34.261719 C 199.226562 33.785156 198.726562 33.335938 198.207031 32.910156 C 197.6875 32.480469 197.148438 32.082031 196.585938 31.707031 C 196.027344 31.332031 195.453125 30.988281 194.859375 30.667969 C 194.265625 30.351562 193.65625 30.0625 193.035156 29.804688 C 192.414062 29.546875 191.78125 29.320312 191.136719 29.125 C 190.492188 28.929688 189.839844 28.765625 189.179688 28.632812 C 188.519531 28.5 187.855469 28.402344 187.1875 28.335938 C 186.515625 28.269531 185.84375 28.234375 185.171875 28.234375 Z M 134.1875 22.992188 C 134.1875 22.128906 134.269531 21.277344 134.4375 20.429688 C 134.605469 19.585938 134.855469 18.761719 135.183594 17.964844 C 135.511719 17.167969 135.917969 16.410156 136.394531 15.695312 C 136.875 14.976562 137.417969 14.3125 138.027344 13.703125 C 138.636719 13.09375 139.300781 12.550781 140.015625 12.070312 C 140.734375 11.589844 141.488281 11.183594 142.285156 10.855469 C 143.082031 10.523438 143.90625 10.277344 144.75 10.109375 C 145.597656 9.9375 146.449219 9.855469 147.3125 9.855469 C 148.175781 9.855469 149.027344 9.9375 149.875 10.109375 C 150.71875 10.277344 151.539062 10.523438 152.335938 10.855469 C 153.132812 11.183594 153.890625 11.589844 154.609375 12.070312 C 155.324219 12.550781 155.988281 13.09375 156.597656 13.703125 C 157.207031 14.3125 157.75 14.976562 158.230469 15.695312 C 158.707031 16.410156 159.113281 17.167969 159.441406 17.964844 C 159.769531 18.761719 160.019531 19.585938 160.1875 20.429688 C 160.355469 21.277344 160.4375 22.128906 160.4375 22.992188 L 160.4375 41.695312 C 160.4375 42.558594 160.355469 43.414062 160.1875 44.257812 C 160.019531 45.105469 159.769531 45.925781 159.441406 46.722656 C 159.113281 47.519531 158.707031 48.277344 158.230469 48.992188 C 157.75 49.710938 157.207031 50.375 156.597656 50.984375 C 155.988281 51.59375 155.324219 52.140625 154.609375 52.617188 C 153.890625 53.097656 153.132812 53.503906 152.335938 53.832031 C 151.539062 54.164062 150.71875 54.414062 149.875 54.582031 C 149.027344 54.75 148.175781 54.832031 147.3125 54.832031 C 146.449219 54.832031 145.597656 54.75 144.75 54.582031 C 143.90625 54.414062 143.082031 54.164062 142.285156 53.832031 C 141.488281 53.503906 140.734375 53.097656 140.015625 52.617188 C 139.300781 52.140625 138.636719 51.59375 138.027344 50.984375 C 137.417969 50.375 136.875 49.710938 136.394531 48.992188 C 135.917969 48.277344 135.511719 47.519531 135.183594 46.722656 C 134.855469 45.925781 134.605469 45.105469 134.4375 44.257812 C 134.269531 43.414062 134.1875 42.558594 134.1875 41.695312 Z M 197.507812 76.613281 L 10.289062 76.613281 L 10.289062 48.792969 C 10.289062 47.984375 10.367188 47.179688 10.527344 46.386719 C 10.683594 45.589844 10.917969 44.820312 11.226562 44.070312 C 11.539062 43.324219 11.917969 42.613281 12.367188 41.941406 C 12.816406 41.265625 13.328125 40.644531 13.902344 40.070312 C 14.472656 39.496094 15.097656 38.988281 15.769531 38.535156 C 16.445312 38.085938 17.15625 37.707031 17.902344 37.398438 C 18.652344 37.085938 19.421875 36.851562 20.21875 36.695312 C 21.011719 36.535156 21.8125 36.457031 22.625 36.457031 L 39.117188 36.457031 L 39.117188 41.695312 C 39.117188 42.394531 39.152344 43.09375 39.21875 43.789062 C 39.289062 44.484375 39.390625 45.175781 39.527344 45.863281 C 39.664062 46.546875 39.832031 47.226562 40.035156 47.894531 C 40.238281 48.566406 40.472656 49.222656 40.738281 49.871094 C 41.007812 50.515625 41.304688 51.148438 41.636719 51.765625 C 41.964844 52.382812 42.324219 52.980469 42.710938 53.5625 C 43.101562 54.144531 43.515625 54.707031 43.960938 55.246094 C 44.402344 55.789062 44.871094 56.304688 45.367188 56.800781 C 45.859375 57.296875 46.378906 57.765625 46.917969 58.207031 C 47.460938 58.652344 48.019531 59.070312 48.601562 59.457031 C 49.183594 59.847656 49.78125 60.207031 50.398438 60.535156 C 51.015625 60.863281 51.648438 61.164062 52.292969 61.433594 C 52.941406 61.699219 53.597656 61.933594 54.265625 62.136719 C 54.9375 62.339844 55.613281 62.511719 56.300781 62.648438 C 56.984375 62.785156 57.675781 62.886719 58.375 62.957031 C 59.070312 63.023438 59.765625 63.058594 60.464844 63.058594 C 61.167969 63.058594 61.863281 63.023438 62.558594 62.957031 C 63.257812 62.886719 63.945312 62.785156 64.632812 62.648438 C 65.320312 62.511719 65.996094 62.339844 66.667969 62.136719 C 67.335938 61.933594 67.992188 61.699219 68.640625 61.433594 C 69.285156 61.164062 69.917969 60.863281 70.535156 60.535156 C 71.152344 60.207031 71.75 59.847656 72.332031 59.457031 C 72.914062 59.070312 73.472656 58.652344 74.015625 58.207031 C 74.554688 57.765625 75.074219 57.296875 75.566406 56.800781 C 76.0625 56.304688 76.53125 55.789062 76.972656 55.246094 C 77.417969 54.707031 77.832031 54.144531 78.222656 53.5625 C 78.609375 52.980469 78.96875 52.382812 79.296875 51.765625 C 79.628906 51.148438 79.925781 50.515625 80.191406 49.871094 C 80.460938 49.222656 80.695312 48.566406 80.898438 47.894531 C 81.101562 47.226562 81.269531 46.546875 81.40625 45.863281 C 81.542969 45.175781 81.644531 44.484375 81.710938 43.789062 C 81.78125 43.09375 81.816406 42.394531 81.8125 41.695312 L 81.8125 36.457031 L 125.980469 36.457031 L 125.980469 41.695312 C 125.980469 42.394531 126.015625 43.09375 126.082031 43.789062 C 126.152344 44.484375 126.253906 45.175781 126.390625 45.863281 C 126.523438 46.546875 126.695312 47.226562 126.898438 47.894531 C 127.097656 48.566406 127.335938 49.222656 127.601562 49.871094 C 127.867188 50.515625 128.167969 51.148438 128.496094 51.765625 C 128.828125 52.382812 129.183594 52.980469 129.574219 53.5625 C 129.960938 54.144531 130.378906 54.707031 130.820312 55.246094 C 131.265625 55.789062 131.734375 56.304688 132.226562 56.800781 C 132.722656 57.296875 133.242188 57.765625 133.78125 58.207031 C 134.320312 58.652344 134.882812 59.070312 135.464844 59.457031 C 136.046875 59.847656 136.644531 60.207031 137.261719 60.535156 C 137.878906 60.863281 138.507812 61.164062 139.15625 61.433594 C 139.800781 61.699219 140.460938 61.933594 141.128906 62.136719 C 141.796875 62.339844 142.476562 62.511719 143.160156 62.648438 C 143.847656 62.785156 144.539062 62.886719 145.234375 62.957031 C 145.929688 63.023438 146.628906 63.058594 147.328125 63.058594 C 148.027344 63.058594 148.726562 63.023438 149.421875 62.957031 C 150.117188 62.886719 150.808594 62.785156 151.496094 62.648438 C 152.179688 62.511719 152.859375 62.339844 153.527344 62.136719 C 154.199219 61.933594 154.855469 61.699219 155.5 61.433594 C 156.148438 61.164062 156.777344 60.863281 157.394531 60.535156 C 158.011719 60.207031 158.613281 59.847656 159.191406 59.457031 C 159.773438 59.070312 160.335938 58.652344 160.875 58.207031 C 161.417969 57.765625 161.933594 57.296875 162.429688 56.800781 C 162.921875 56.304688 163.390625 55.789062 163.835938 55.246094 C 164.277344 54.707031 164.695312 54.144531 165.082031 53.5625 C 165.472656 52.980469 165.832031 52.382812 166.160156 51.765625 C 166.488281 51.148438 166.789062 50.515625 167.054688 49.871094 C 167.324219 49.222656 167.558594 48.566406 167.761719 47.894531 C 167.964844 47.226562 168.132812 46.546875 168.269531 45.863281 C 168.40625 45.175781 168.507812 44.484375 168.574219 43.789062 C 168.644531 43.09375 168.675781 42.394531 168.675781 41.695312 L 168.675781 36.457031 L 185.171875 36.457031 C 185.980469 36.457031 186.785156 36.535156 187.578125 36.695312 C 188.371094 36.851562 189.144531 37.085938 189.890625 37.398438 C 190.640625 37.707031 191.351562 38.085938 192.023438 38.535156 C 192.699219 38.988281 193.320312 39.496094 193.894531 40.070312 C 194.464844 40.644531 194.976562 41.265625 195.429688 41.941406 C 195.878906 42.613281 196.257812 43.324219 196.566406 44.070312 C 196.878906 44.820312 197.113281 45.589844 197.269531 46.386719 C 197.425781 47.179688 197.507812 47.984375 197.507812 48.792969 Z M 197.507812 76.613281 " fill-opacity="1" fill-rule="nonzero"/></g></svg>