<svg xmlns="http://www.w3.org/2000/svg" xmlns:xlink="http://www.w3.org/1999/xlink" width="311" zoomAndPan="magnify" viewBox="0 0 233.25 233.249995" height="311" preserveAspectRatio="xMidYMid meet" version="1.0"><defs><clipPath id="624ed83af9"><path d="M 0 0 L 231.753906 0 L 231.753906 231.753906 L 0 231.753906 Z M 0 0 " clip-rule="nonzero"/></clipPath></defs><g clip-path="url(#624ed83af9)"><path fill="#ffffff" d="M 11.601562 77.332031 L 75.730469 77.332031 L 88.460938 90.0625 C 89.765625 91.371094 91.429688 92.257812 93.242188 92.621094 C 95.050781 92.980469 96.929688 92.796875 98.636719 92.089844 C 100.339844 91.382812 101.800781 90.1875 102.824219 88.652344 C 103.851562 87.117188 104.398438 85.3125 104.398438 83.464844 L 104.398438 77.332031 L 119.867188 77.332031 C 122.941406 77.328125 125.890625 76.105469 128.066406 73.933594 C 130.238281 71.757812 131.464844 68.808594 131.464844 65.734375 L 131.464844 11.601562 C 131.464844 8.523438 130.238281 5.574219 128.066406 3.402344 C 125.890625 1.226562 122.941406 0.00390625 119.867188 0 L 11.601562 0 C 8.523438 0.00390625 5.574219 1.226562 3.402344 3.402344 C 1.226562 5.574219 0.00390625 8.523438 0 11.601562 L 0 65.734375 C 0.00390625 68.808594 1.226562 71.757812 3.402344 73.933594 C 5.574219 76.105469 8.523438 77.328125 11.601562 77.332031 Z M 7.734375 11.601562 C 7.734375 10.574219 8.140625 9.59375 8.867188 8.867188 C 9.59375 8.140625 10.574219 7.734375 11.601562 7.734375 L 119.867188 7.734375 C 120.890625 7.734375 121.875 8.140625 122.597656 8.867188 C 123.324219 9.59375 123.730469 10.574219 123.734375 11.601562 L 123.734375 65.734375 C 123.730469 66.757812 123.324219 67.742188 122.597656 68.464844 C 121.875 69.191406 120.890625 69.597656 119.867188 69.601562 L 100.535156 69.601562 C 100.027344 69.601562 99.523438 69.699219 99.054688 69.894531 C 98.585938 70.089844 98.15625 70.375 97.796875 70.730469 C 97.441406 71.089844 97.15625 71.519531 96.960938 71.988281 C 96.765625 72.457031 96.667969 72.957031 96.667969 73.464844 L 96.667969 83.464844 C 96.640625 83.769531 96.535156 84.0625 96.351562 84.308594 C 96.171875 84.558594 95.929688 84.75 95.644531 84.867188 C 95.363281 84.984375 95.054688 85.019531 94.75 84.972656 C 94.449219 84.925781 94.167969 84.796875 93.933594 84.597656 L 80.066406 70.734375 C 79.707031 70.375 79.28125 70.089844 78.8125 69.894531 C 78.34375 69.699219 77.839844 69.601562 77.332031 69.601562 L 11.601562 69.601562 C 10.574219 69.597656 9.59375 69.191406 8.867188 68.464844 C 8.140625 67.742188 7.734375 66.757812 7.734375 65.734375 Z M 58 27.066406 C 58 26.558594 58.101562 26.054688 58.292969 25.585938 C 58.488281 25.117188 58.773438 24.691406 59.132812 24.332031 C 59.492188 23.972656 59.917969 23.6875 60.386719 23.492188 C 60.855469 23.300781 61.359375 23.199219 61.867188 23.199219 L 108.265625 23.199219 C 109.292969 23.199219 110.277344 23.605469 111 24.332031 C 111.726562 25.058594 112.132812 26.042969 112.132812 27.066406 C 112.132812 28.09375 111.726562 29.074219 111 29.800781 C 110.277344 30.527344 109.292969 30.933594 108.265625 30.933594 L 61.867188 30.933594 C 61.359375 30.933594 60.855469 30.832031 60.386719 30.640625 C 59.917969 30.445312 59.492188 30.160156 59.132812 29.800781 C 58.773438 29.441406 58.488281 29.015625 58.292969 28.546875 C 58.101562 28.078125 58 27.574219 58 27.066406 Z M 19.332031 27.066406 C 19.332031 26.558594 19.433594 26.054688 19.628906 25.585938 C 19.820312 25.117188 20.105469 24.691406 20.464844 24.332031 C 20.824219 23.972656 21.25 23.6875 21.71875 23.492188 C 22.1875 23.300781 22.691406 23.199219 23.199219 23.199219 L 46.398438 23.199219 C 47.425781 23.199219 48.410156 23.605469 49.132812 24.332031 C 49.859375 25.058594 50.265625 26.042969 50.265625 27.066406 C 50.265625 28.09375 49.859375 29.074219 49.132812 29.800781 C 48.410156 30.527344 47.425781 30.933594 46.398438 30.933594 L 23.199219 30.933594 C 22.691406 30.933594 22.1875 30.832031 21.71875 30.640625 C 21.25 30.445312 20.824219 30.160156 20.464844 29.800781 C 20.105469 29.441406 19.820312 29.015625 19.628906 28.546875 C 19.433594 28.078125 19.332031 27.574219 19.332031 27.066406 Z M 19.332031 50.265625 C 19.332031 49.757812 19.433594 49.257812 19.628906 48.785156 C 19.820312 48.316406 20.105469 47.890625 20.464844 47.53125 C 20.824219 47.171875 21.25 46.886719 21.71875 46.695312 C 22.1875 46.5 22.691406 46.398438 23.199219 46.398438 L 85.066406 46.398438 C 86.09375 46.398438 87.074219 46.808594 87.800781 47.53125 C 88.527344 48.257812 88.933594 49.242188 88.933594 50.265625 C 88.933594 51.292969 88.527344 52.277344 87.800781 53 C 87.074219 53.726562 86.09375 54.132812 85.066406 54.132812 L 23.199219 54.132812 C 22.691406 54.132812 22.1875 54.035156 21.71875 53.839844 C 21.25 53.644531 20.824219 53.359375 20.464844 53 C 20.105469 52.640625 19.820312 52.214844 19.628906 51.746094 C 19.433594 51.277344 19.332031 50.773438 19.332031 50.265625 Z M 145.875 108.265625 L 143.066406 108.265625 C 133.839844 108.277344 124.996094 111.945312 118.472656 118.472656 C 111.945312 124.996094 108.277344 133.839844 108.265625 143.066406 L 108.265625 158.535156 C 108.265625 159.558594 108.675781 160.542969 109.398438 161.265625 C 110.125 161.992188 111.109375 162.398438 112.132812 162.398438 C 113.160156 162.398438 114.140625 161.992188 114.867188 161.265625 C 115.59375 160.542969 116 159.558594 116 158.535156 L 116 143.066406 C 116.007812 135.890625 118.863281 129.011719 123.9375 123.9375 C 129.011719 118.863281 135.890625 116.007812 143.066406 116 L 151.988281 116 L 156.484375 127.988281 L 151.5 157.898438 C 151.410156 158.398438 151.421875 158.914062 151.535156 159.414062 C 151.644531 159.910156 151.855469 160.382812 152.148438 160.800781 C 152.445312 161.21875 152.820312 161.570312 153.253906 161.84375 C 153.683594 162.113281 154.167969 162.296875 154.671875 162.378906 C 155.175781 162.464844 155.691406 162.449219 156.1875 162.332031 C 156.683594 162.214844 157.152344 162.003906 157.566406 161.703125 C 157.980469 161.40625 158.332031 161.027344 158.601562 160.59375 C 158.867188 160.15625 159.046875 159.675781 159.125 159.167969 L 163.742188 131.464844 L 168.792969 131.464844 L 173.40625 159.167969 C 173.582031 160.171875 174.148438 161.066406 174.980469 161.65625 C 175.816406 162.246094 176.847656 162.480469 177.851562 162.3125 C 178.859375 162.144531 179.757812 161.589844 180.351562 160.761719 C 180.949219 159.933594 181.195312 158.902344 181.035156 157.898438 L 176.050781 127.988281 L 180.546875 116 L 189.464844 116 C 196.644531 116.007812 203.523438 118.863281 208.597656 123.9375 C 213.671875 129.011719 216.523438 135.890625 216.535156 143.066406 L 216.535156 158.535156 C 216.535156 159.558594 216.941406 160.542969 217.664062 161.265625 C 218.390625 161.992188 219.375 162.398438 220.398438 162.398438 C 221.425781 162.398438 222.410156 161.992188 223.132812 161.265625 C 223.859375 160.542969 224.265625 159.558594 224.265625 158.535156 L 224.265625 143.066406 C 224.257812 133.839844 220.585938 124.996094 214.0625 118.472656 C 207.539062 111.945312 198.691406 108.277344 189.464844 108.265625 L 186.660156 108.265625 C 191.390625 104.121094 194.742188 98.628906 196.273438 92.527344 C 197.800781 86.425781 197.433594 80 195.21875 74.113281 C 193.003906 68.226562 189.042969 63.152344 183.871094 59.570312 C 178.699219 55.992188 172.558594 54.074219 166.265625 54.074219 C 159.976562 54.074219 153.835938 55.992188 148.660156 59.570312 C 143.488281 63.152344 139.53125 68.226562 137.316406 74.113281 C 135.101562 80 134.730469 86.425781 136.261719 92.527344 C 137.789062 98.628906 141.144531 104.121094 145.875 108.265625 Z M 169.386719 123.734375 L 163.148438 123.734375 L 160.246094 116 L 172.285156 116 Z M 166.265625 61.867188 C 170.855469 61.867188 175.339844 63.226562 179.15625 65.777344 C 182.972656 68.324219 185.945312 71.949219 187.699219 76.1875 C 189.457031 80.425781 189.917969 85.09375 189.019531 89.59375 C 188.125 94.09375 185.917969 98.226562 182.671875 101.472656 C 179.425781 104.714844 175.292969 106.925781 170.792969 107.820312 C 166.292969 108.714844 161.628906 108.257812 157.386719 106.5 C 153.148438 104.746094 149.527344 101.769531 146.976562 97.957031 C 144.425781 94.140625 143.066406 89.65625 143.066406 85.066406 C 143.074219 78.914062 145.519531 73.019531 149.871094 68.667969 C 154.21875 64.320312 160.117188 61.875 166.265625 61.867188 Z M 228.132812 170.132812 L 110.757812 170.132812 C 104.585938 165.128906 96.878906 162.394531 88.933594 162.398438 L 86.125 162.398438 C 90.855469 158.253906 94.210938 152.761719 95.738281 146.660156 C 97.269531 140.558594 96.902344 134.132812 94.683594 128.246094 C 92.46875 122.359375 88.511719 117.285156 83.339844 113.707031 C 78.164062 110.125 72.023438 108.207031 65.734375 108.207031 C 59.441406 108.207031 53.300781 110.125 48.128906 113.707031 C 42.957031 117.285156 38.996094 122.359375 36.78125 128.246094 C 34.566406 134.132812 34.199219 140.558594 35.726562 146.660156 C 37.257812 152.761719 40.609375 158.253906 45.339844 162.398438 L 42.535156 162.398438 C 34.585938 162.394531 26.878906 165.128906 20.707031 170.132812 L 3.867188 170.132812 C 3.359375 170.132812 2.855469 170.234375 2.386719 170.425781 C 1.917969 170.621094 1.492188 170.90625 1.132812 171.265625 C 0.773438 171.625 0.488281 172.050781 0.292969 172.519531 C 0.101562 172.988281 0 173.492188 0 174 L 0 189.464844 C 0 189.976562 0.101562 190.476562 0.292969 190.945312 C 0.488281 191.414062 0.773438 191.84375 1.132812 192.203125 C 1.492188 192.558594 1.917969 192.84375 2.386719 193.039062 C 2.855469 193.234375 3.359375 193.332031 3.867188 193.332031 L 7.960938 193.332031 C 7.8125 194.617188 7.738281 195.90625 7.734375 197.199219 L 7.734375 228.132812 C 7.734375 229.160156 8.140625 230.140625 8.867188 230.867188 C 9.589844 231.59375 10.574219 232 11.601562 232 C 12.625 232 13.609375 231.59375 14.335938 230.867188 C 15.058594 230.140625 15.464844 229.160156 15.464844 228.132812 L 15.464844 197.199219 C 15.476562 190.023438 18.328125 183.144531 23.402344 178.070312 C 28.476562 172.996094 35.355469 170.140625 42.535156 170.132812 L 88.933594 170.132812 C 96.109375 170.140625 102.988281 172.996094 108.0625 178.070312 C 113.136719 183.144531 115.992188 190.023438 116 197.199219 L 116 228.132812 C 116 229.160156 116.40625 230.140625 117.132812 230.867188 C 117.859375 231.59375 118.839844 232 119.867188 232 C 120.890625 232 121.875 231.59375 122.601562 230.867188 C 123.324219 230.140625 123.734375 229.160156 123.734375 228.132812 L 123.734375 197.199219 C 123.730469 195.90625 123.652344 194.617188 123.503906 193.332031 L 216.535156 193.332031 L 216.535156 228.132812 C 216.535156 229.160156 216.941406 230.140625 217.664062 230.867188 C 218.390625 231.59375 219.375 232 220.398438 232 C 221.425781 232 222.410156 231.59375 223.132812 230.867188 C 223.859375 230.140625 224.265625 229.160156 224.265625 228.132812 L 224.265625 193.332031 L 228.132812 193.332031 C 228.640625 193.332031 229.144531 193.234375 229.613281 193.039062 C 230.082031 192.84375 230.507812 192.558594 230.867188 192.203125 C 231.226562 191.84375 231.511719 191.414062 231.707031 190.945312 C 231.898438 190.476562 232 189.976562 232 189.464844 L 232 174 C 232 173.492188 231.898438 172.988281 231.707031 172.519531 C 231.511719 172.050781 231.226562 171.625 230.867188 171.265625 C 230.507812 170.90625 230.082031 170.621094 229.613281 170.425781 C 229.144531 170.234375 228.640625 170.132812 228.132812 170.132812 Z M 7.734375 185.601562 L 7.734375 177.867188 L 13.617188 177.867188 C 12.015625 180.273438 10.722656 182.871094 9.765625 185.601562 Z M 42.535156 139.199219 C 42.535156 134.613281 43.894531 130.125 46.441406 126.3125 C 48.992188 122.496094 52.617188 119.523438 56.855469 117.765625 C 61.09375 116.011719 65.757812 115.550781 70.257812 116.445312 C 74.757812 117.339844 78.894531 119.550781 82.136719 122.796875 C 85.382812 126.039062 87.59375 130.171875 88.488281 134.671875 C 89.382812 139.175781 88.921875 143.839844 87.167969 148.078125 C 85.410156 152.316406 82.4375 155.941406 78.621094 158.488281 C 74.808594 161.039062 70.320312 162.398438 65.734375 162.398438 C 59.582031 162.394531 53.683594 159.945312 49.335938 155.597656 C 44.988281 151.25 42.539062 145.351562 42.535156 139.199219 Z M 224.265625 185.601562 L 121.703125 185.601562 C 120.746094 182.871094 119.449219 180.273438 117.847656 177.867188 L 224.265625 177.867188 Z M 35.414062 204.933594 L 35.414062 228.132812 C 35.414062 229.160156 35.007812 230.140625 34.28125 230.867188 C 33.558594 231.59375 32.574219 232 31.550781 232 C 30.523438 232 29.539062 231.59375 28.816406 230.867188 C 28.089844 230.140625 27.683594 229.160156 27.683594 228.132812 L 27.683594 204.933594 C 27.683594 203.90625 28.089844 202.925781 28.816406 202.199219 C 29.539062 201.472656 30.523438 201.066406 31.550781 201.066406 C 32.574219 201.066406 33.558594 201.472656 34.28125 202.199219 C 35.007812 202.925781 35.414062 203.90625 35.414062 204.933594 Z M 105.015625 204.933594 L 105.015625 228.132812 C 105.015625 229.160156 104.609375 230.140625 103.882812 230.867188 C 103.15625 231.59375 102.175781 232 101.148438 232 C 100.125 232 99.140625 231.59375 98.414062 230.867188 C 97.691406 230.140625 97.28125 229.160156 97.28125 228.132812 L 97.28125 204.933594 C 97.28125 203.90625 97.691406 202.925781 98.414062 202.199219 C 99.140625 201.472656 100.125 201.066406 101.148438 201.066406 C 102.175781 201.066406 103.15625 201.472656 103.882812 202.199219 C 104.609375 202.925781 105.015625 203.90625 105.015625 204.933594 Z M 132.082031 146.933594 C 132.589844 146.933594 133.09375 147.035156 133.5625 147.226562 C 134.03125 147.421875 134.457031 147.707031 134.816406 148.066406 C 135.175781 148.425781 135.460938 148.851562 135.65625 149.320312 C 135.847656 149.789062 135.949219 150.292969 135.949219 150.800781 L 135.949219 158.535156 C 135.949219 159.558594 135.542969 160.542969 134.816406 161.265625 C 134.089844 161.992188 133.109375 162.398438 132.082031 162.398438 C 131.058594 162.398438 130.074219 161.992188 129.347656 161.265625 C 128.621094 160.542969 128.214844 159.558594 128.214844 158.535156 L 128.214844 150.800781 C 128.214844 150.292969 128.316406 149.789062 128.507812 149.320312 C 128.703125 148.851562 128.988281 148.425781 129.347656 148.066406 C 129.707031 147.707031 130.132812 147.421875 130.601562 147.226562 C 131.070312 147.035156 131.574219 146.933594 132.082031 146.933594 Z M 201.683594 146.933594 C 202.191406 146.933594 202.691406 147.035156 203.160156 147.226562 C 203.632812 147.421875 204.058594 147.707031 204.417969 148.066406 C 204.777344 148.425781 205.0625 148.851562 205.253906 149.320312 C 205.449219 149.789062 205.550781 150.292969 205.550781 150.800781 L 205.550781 158.535156 C 205.550781 159.558594 205.140625 160.542969 204.417969 161.265625 C 203.691406 161.992188 202.707031 162.398438 201.683594 162.398438 C 200.65625 162.398438 199.671875 161.992188 198.949219 161.265625 C 198.222656 160.542969 197.816406 159.558594 197.816406 158.535156 L 197.816406 150.800781 C 197.816406 150.292969 197.914062 149.789062 198.109375 149.320312 C 198.304688 148.851562 198.589844 148.425781 198.949219 148.066406 C 199.308594 147.707031 199.734375 147.421875 200.203125 147.226562 C 200.671875 147.035156 201.175781 146.933594 201.683594 146.933594 Z M 201.683594 146.933594 " fill-opacity="1" fill-rule="nonzero"/></g></svg>