<svg width="51" height="50" viewBox="0 0 51 50" fill="none" xmlns="http://www.w3.org/2000/svg">
<g clip-path="url(#clip0_872_1909)">
<path d="M50.4561 42.3975C50.4561 46.5951 47.0517 49.9966 42.857 49.9966H8.05221C3.8575 49.9966 0.456055 46.5951 0.456055 42.3975V7.59567C0.456055 3.39802 3.8575 -0.00341797 8.05221 -0.00341797H42.857C47.0517 -0.00341797 50.4561 3.39802 50.4561 7.59567V42.3975Z" fill="#0A66C2"/>
<path d="M19.9985 17.6301C19.9985 17.8732 19.9754 18.1133 19.9262 18.3506C19.8799 18.5879 19.8104 18.8194 19.7178 19.0422C19.6253 19.2679 19.5095 19.4791 19.3764 19.6816C19.2404 19.8813 19.0871 20.0694 18.9163 20.2401C18.7456 20.4108 18.5575 20.5641 18.3579 20.7001C18.1553 20.8332 17.9412 20.949 17.7184 21.0416C17.4956 21.1342 17.2641 21.2036 17.0269 21.2499C16.7896 21.2991 16.5494 21.3222 16.3064 21.3222C16.0633 21.3222 15.8232 21.2991 15.5859 21.2499C15.3486 21.2036 15.1172 21.1342 14.8915 21.0416C14.6687 20.949 14.4574 20.8332 14.2549 20.7001C14.0523 20.5641 13.8672 20.4108 13.6964 20.2401C13.5228 20.0694 13.3695 19.8813 13.2364 19.6816C13.1004 19.4791 12.9875 19.2679 12.8949 19.0422C12.8023 18.8194 12.7329 18.5879 12.6837 18.3506C12.6374 18.1133 12.6143 17.8732 12.6143 17.6301C12.6143 17.3871 12.6374 17.1469 12.6837 16.9096C12.7329 16.6724 12.8023 16.4409 12.8949 16.2181C12.9875 15.9924 13.1004 15.7812 13.2364 15.5786C13.3695 15.3761 13.5228 15.1909 13.6964 15.0202C13.8672 14.8466 14.0523 14.6961 14.2549 14.5601C14.4574 14.4241 14.6687 14.3113 14.8915 14.2187C15.1172 14.1261 15.3486 14.0566 15.5859 14.0074C15.8232 13.9611 16.0633 13.938 16.3064 13.938C16.5494 13.938 16.7896 13.9611 17.0269 14.0074C17.2641 14.0566 17.4956 14.1261 17.7184 14.2187C17.9412 14.3113 18.1553 14.4241 18.3579 14.5601C18.5575 14.6961 18.7456 14.8466 18.9163 15.0202C19.0871 15.1909 19.2404 15.3761 19.3764 15.5786C19.5095 15.7812 19.6253 15.9924 19.7178 16.2181C19.8104 16.4409 19.8799 16.6724 19.9262 16.9096C19.9754 17.1469 19.9985 17.3871 19.9985 17.6301Z" fill="white"/>
<path d="M13.1235 24.0452H19.4661V44.4503H13.1235V24.0452Z" fill="white"/>
<path d="M23.4561 24.0452H29.4919V44.4503H23.4561V24.0452Z" fill="white"/>
<path d="M23.7163 34.9075H29.7522V44.4503H23.7163V34.9075Z" fill="white"/>
<path d="M29.7523 34.9075C29.7523 34.9075 29.6597 32.2629 30.357 30.8855C30.357 30.8855 31.0544 29.1899 33.2476 29.1813C33.2476 29.1813 35.8229 28.7328 36.5607 31.2848C36.5607 31.2848 36.8385 32.6998 36.8385 33.2987C36.8385 33.8977 36.8588 44.4503 36.8588 44.4503H43.1811V32.7605C43.1811 32.7605 43.6412 26.1575 39.677 24.3491C39.677 24.3491 33.1608 21.4237 29.625 26.797C29.625 26.797 28.8524 27.3294 28.7482 25.8392C28.6412 24.3491 27.7355 28.1251 27.7095 28.2061C27.6834 28.2872 28.7482 35.7322 28.7482 35.7322L29.7523 34.9075Z" fill="white"/>
</g>
<defs>
<clipPath id="clip0_872_1909">
<rect width="50" height="50" fill="white" transform="translate(0.452637)"/>
</clipPath>
</defs>
</svg>
