<svg xmlns="http://www.w3.org/2000/svg" xmlns:xlink="http://www.w3.org/1999/xlink" width="513" zoomAndPan="magnify" viewBox="0 0 384.75 208.499994" height="278" preserveAspectRatio="xMidYMid meet" version="1.0"><defs><clipPath id="cbdd391be1"><path d="M 0.335938 107 L 107 107 L 107 172 L 0.335938 172 Z M 0.335938 107 " clip-rule="nonzero"/></clipPath><clipPath id="0d8efcaf9b"><path d="M 277 107 L 383.417969 107 L 383.417969 172 L 277 172 Z M 277 107 " clip-rule="nonzero"/></clipPath></defs><path fill="#ffffff" d="M 96.125 59.785156 C 96.125 60.832031 96.074219 61.875 95.972656 62.917969 C 95.871094 63.957031 95.71875 64.992188 95.511719 66.015625 C 95.308594 67.042969 95.054688 68.054688 94.75 69.054688 C 94.449219 70.054688 94.097656 71.039062 93.695312 72.003906 C 93.296875 72.972656 92.847656 73.917969 92.355469 74.839844 C 91.863281 75.761719 91.324219 76.65625 90.746094 77.527344 C 90.164062 78.394531 89.542969 79.234375 88.878906 80.042969 C 88.214844 80.851562 87.511719 81.625 86.773438 82.363281 C 86.035156 83.105469 85.261719 83.804688 84.453125 84.46875 C 83.644531 85.132812 82.804688 85.753906 81.9375 86.335938 C 81.066406 86.917969 80.171875 87.453125 79.246094 87.945312 C 78.324219 88.441406 77.382812 88.886719 76.414062 89.285156 C 75.449219 89.6875 74.464844 90.039062 73.464844 90.34375 C 72.464844 90.644531 71.449219 90.898438 70.425781 91.101562 C 69.398438 91.308594 68.367188 91.460938 67.324219 91.5625 C 66.285156 91.664062 65.242188 91.71875 64.195312 91.71875 C 63.148438 91.71875 62.105469 91.664062 61.066406 91.5625 C 60.027344 91.460938 58.992188 91.308594 57.964844 91.101562 C 56.941406 90.898438 55.929688 90.644531 54.925781 90.34375 C 53.925781 90.039062 52.941406 89.6875 51.976562 89.285156 C 51.011719 88.886719 50.066406 88.441406 49.144531 87.945312 C 48.222656 87.453125 47.324219 86.917969 46.457031 86.335938 C 45.585938 85.753906 44.75 85.132812 43.941406 84.46875 C 43.132812 83.804688 42.355469 83.105469 41.617188 82.363281 C 40.878906 81.625 40.175781 80.851562 39.511719 80.042969 C 38.851562 79.234375 38.226562 78.394531 37.648438 77.527344 C 37.066406 76.65625 36.527344 75.761719 36.035156 74.839844 C 35.542969 73.917969 35.097656 72.972656 34.695312 72.003906 C 34.296875 71.039062 33.945312 70.054688 33.640625 69.054688 C 33.335938 68.054688 33.082031 67.042969 32.878906 66.015625 C 32.675781 64.992188 32.523438 63.957031 32.417969 62.917969 C 32.316406 61.875 32.265625 60.832031 32.265625 59.785156 C 32.265625 58.742188 32.316406 57.699219 32.417969 56.65625 C 32.523438 55.617188 32.675781 54.582031 32.878906 53.558594 C 33.082031 52.53125 33.335938 51.519531 33.640625 50.519531 C 33.945312 49.515625 34.296875 48.535156 34.695312 47.566406 C 35.097656 46.601562 35.542969 45.65625 36.035156 44.734375 C 36.527344 43.8125 37.066406 42.917969 37.648438 42.046875 C 38.226562 41.175781 38.851562 40.339844 39.511719 39.53125 C 40.175781 38.722656 40.878906 37.949219 41.617188 37.207031 C 42.355469 36.46875 43.132812 35.769531 43.941406 35.105469 C 44.75 34.441406 45.585938 33.820312 46.457031 33.238281 C 47.324219 32.65625 48.222656 32.121094 49.144531 31.625 C 50.066406 31.132812 51.011719 30.6875 51.976562 30.285156 C 52.941406 29.886719 53.925781 29.535156 54.925781 29.230469 C 55.929688 28.929688 56.941406 28.675781 57.964844 28.46875 C 58.992188 28.265625 60.027344 28.113281 61.066406 28.011719 C 62.105469 27.90625 63.148438 27.855469 64.195312 27.855469 C 65.242188 27.855469 66.285156 27.90625 67.324219 28.011719 C 68.367188 28.113281 69.398438 28.265625 70.425781 28.46875 C 71.449219 28.675781 72.464844 28.929688 73.464844 29.230469 C 74.464844 29.535156 75.449219 29.886719 76.414062 30.285156 C 77.382812 30.6875 78.324219 31.132812 79.246094 31.625 C 80.171875 32.121094 81.066406 32.65625 81.9375 33.238281 C 82.804688 33.820312 83.644531 34.441406 84.453125 35.105469 C 85.261719 35.769531 86.035156 36.46875 86.773438 37.207031 C 87.511719 37.949219 88.214844 38.722656 88.878906 39.53125 C 89.542969 40.339844 90.164062 41.175781 90.746094 42.046875 C 91.324219 42.917969 91.863281 43.8125 92.355469 44.734375 C 92.847656 45.65625 93.296875 46.601562 93.695312 47.566406 C 94.097656 48.535156 94.449219 49.515625 94.75 50.519531 C 95.054688 51.519531 95.308594 52.53125 95.511719 53.558594 C 95.71875 54.582031 95.871094 55.617188 95.972656 56.65625 C 96.074219 57.699219 96.125 58.742188 96.125 59.785156 Z M 96.125 59.785156 " fill-opacity="1" fill-rule="nonzero"/><g clip-path="url(#cbdd391be1)"><path fill="#ffffff" d="M 106.824219 114.066406 C 90.699219 126.203125 80.160156 145.679688 80.160156 167.550781 L 80.160156 171.542969 L 12.308594 171.542969 C 5.765625 171.542969 0.335938 166.113281 0.335938 159.570312 L 0.335938 151.585938 C 0.335938 127.320312 19.972656 107.683594 44.238281 107.683594 L 84.152344 107.683594 C 92.453125 107.683594 100.277344 110.078125 106.824219 114.066406 Z M 106.824219 114.066406 " fill-opacity="1" fill-rule="nonzero"/></g><path fill="#ffffff" d="M 351.570312 59.785156 C 351.570312 60.832031 351.515625 61.875 351.414062 62.917969 C 351.3125 63.957031 351.160156 64.992188 350.953125 66.015625 C 350.75 67.042969 350.496094 68.054688 350.195312 69.054688 C 349.890625 70.054688 349.539062 71.039062 349.136719 72.003906 C 348.738281 72.972656 348.292969 73.917969 347.796875 74.839844 C 347.304688 75.761719 346.769531 76.65625 346.1875 77.527344 C 345.605469 78.394531 344.984375 79.234375 344.320312 80.042969 C 343.65625 80.851562 342.957031 81.625 342.214844 82.363281 C 341.476562 83.105469 340.703125 83.804688 339.894531 84.46875 C 339.085938 85.132812 338.246094 85.753906 337.378906 86.335938 C 336.507812 86.917969 335.613281 87.453125 334.691406 87.945312 C 333.769531 88.441406 332.824219 88.886719 331.855469 89.285156 C 330.890625 89.6875 329.90625 90.039062 328.90625 90.34375 C 327.90625 90.644531 326.894531 90.898438 325.867188 91.101562 C 324.839844 91.308594 323.808594 91.460938 322.769531 91.5625 C 321.726562 91.664062 320.683594 91.71875 319.636719 91.71875 C 318.59375 91.71875 317.550781 91.664062 316.507812 91.5625 C 315.46875 91.460938 314.433594 91.308594 313.410156 91.101562 C 312.382812 90.898438 311.371094 90.644531 310.371094 90.34375 C 309.367188 90.039062 308.386719 89.6875 307.417969 89.285156 C 306.453125 88.886719 305.507812 88.441406 304.585938 87.945312 C 303.664062 87.453125 302.769531 86.917969 301.898438 86.335938 C 301.027344 85.753906 300.191406 85.132812 299.382812 84.46875 C 298.574219 83.804688 297.800781 83.105469 297.058594 82.363281 C 296.320312 81.625 295.621094 80.851562 294.957031 80.042969 C 294.292969 79.234375 293.671875 78.394531 293.089844 77.527344 C 292.507812 76.65625 291.972656 75.761719 291.476562 74.839844 C 290.984375 73.917969 290.539062 72.972656 290.136719 72.003906 C 289.738281 71.039062 289.386719 70.054688 289.082031 69.054688 C 288.777344 68.054688 288.527344 67.042969 288.320312 66.015625 C 288.117188 64.992188 287.964844 63.957031 287.863281 62.917969 C 287.757812 61.875 287.707031 60.832031 287.707031 59.785156 C 287.707031 58.742188 287.757812 57.699219 287.863281 56.65625 C 287.964844 55.617188 288.117188 54.582031 288.320312 53.558594 C 288.527344 52.53125 288.777344 51.519531 289.082031 50.519531 C 289.386719 49.515625 289.738281 48.535156 290.136719 47.566406 C 290.539062 46.601562 290.984375 45.65625 291.476562 44.734375 C 291.972656 43.8125 292.507812 42.917969 293.089844 42.046875 C 293.671875 41.175781 294.292969 40.339844 294.957031 39.53125 C 295.621094 38.722656 296.320312 37.949219 297.058594 37.207031 C 297.800781 36.46875 298.574219 35.769531 299.382812 35.105469 C 300.191406 34.441406 301.027344 33.820312 301.898438 33.238281 C 302.769531 32.65625 303.664062 32.121094 304.585938 31.625 C 305.507812 31.132812 306.453125 30.6875 307.417969 30.285156 C 308.386719 29.886719 309.367188 29.535156 310.371094 29.230469 C 311.371094 28.929688 312.382812 28.675781 313.410156 28.46875 C 314.433594 28.265625 315.46875 28.113281 316.507812 28.011719 C 317.550781 27.90625 318.59375 27.855469 319.636719 27.855469 C 320.683594 27.855469 321.726562 27.90625 322.769531 28.011719 C 323.808594 28.113281 324.839844 28.265625 325.867188 28.46875 C 326.894531 28.675781 327.90625 28.929688 328.90625 29.230469 C 329.90625 29.535156 330.890625 29.886719 331.855469 30.285156 C 332.824219 30.6875 333.769531 31.132812 334.691406 31.625 C 335.613281 32.121094 336.507812 32.65625 337.378906 33.238281 C 338.246094 33.820312 339.085938 34.441406 339.894531 35.105469 C 340.703125 35.769531 341.476562 36.46875 342.214844 37.207031 C 342.957031 37.949219 343.65625 38.722656 344.320312 39.53125 C 344.984375 40.339844 345.605469 41.175781 346.1875 42.046875 C 346.769531 42.917969 347.304688 43.8125 347.796875 44.734375 C 348.292969 45.65625 348.738281 46.601562 349.136719 47.566406 C 349.539062 48.535156 349.890625 49.515625 350.195312 50.519531 C 350.496094 51.519531 350.75 52.53125 350.953125 53.558594 C 351.160156 54.582031 351.3125 55.617188 351.414062 56.65625 C 351.515625 57.699219 351.570312 58.742188 351.570312 59.785156 Z M 351.570312 59.785156 " fill-opacity="1" fill-rule="nonzero"/><g clip-path="url(#0d8efcaf9b)"><path fill="#ffffff" d="M 383.5 151.585938 L 383.5 159.570312 C 383.5 166.113281 378.070312 171.542969 371.523438 171.542969 L 303.671875 171.542969 L 303.671875 167.550781 C 303.671875 145.679688 293.136719 126.203125 277.011719 114.066406 C 283.558594 110.078125 291.378906 107.683594 299.683594 107.683594 L 339.59375 107.683594 C 363.863281 107.683594 383.5 127.320312 383.5 151.585938 Z M 383.5 151.585938 " fill-opacity="1" fill-rule="nonzero"/></g><path fill="#ffffff" d="M 239.8125 51.804688 C 239.8125 53.371094 239.734375 54.9375 239.582031 56.5 C 239.429688 58.058594 239.199219 59.609375 238.890625 61.148438 C 238.585938 62.6875 238.207031 64.207031 237.75 65.707031 C 237.292969 67.207031 236.765625 68.683594 236.167969 70.132812 C 235.566406 71.582031 234.898438 73 234.15625 74.382812 C 233.417969 75.765625 232.613281 77.109375 231.742188 78.414062 C 230.871094 79.71875 229.9375 80.976562 228.941406 82.1875 C 227.945312 83.402344 226.894531 84.5625 225.785156 85.671875 C 224.675781 86.78125 223.515625 87.832031 222.300781 88.828125 C 221.089844 89.824219 219.832031 90.757812 218.527344 91.628906 C 217.222656 92.5 215.878906 93.304688 214.496094 94.042969 C 213.113281 94.785156 211.695312 95.453125 210.246094 96.054688 C 208.796875 96.652344 207.320312 97.183594 205.820312 97.636719 C 204.320312 98.09375 202.800781 98.472656 201.261719 98.777344 C 199.722656 99.085938 198.171875 99.316406 196.613281 99.46875 C 195.050781 99.621094 193.484375 99.699219 191.917969 99.699219 C 190.347656 99.699219 188.785156 99.621094 187.222656 99.46875 C 185.660156 99.316406 184.113281 99.085938 182.574219 98.777344 C 181.035156 98.472656 179.515625 98.09375 178.015625 97.636719 C 176.511719 97.183594 175.039062 96.652344 173.589844 96.054688 C 172.140625 95.453125 170.722656 94.785156 169.339844 94.042969 C 167.957031 93.304688 166.613281 92.5 165.308594 91.628906 C 164.003906 90.757812 162.746094 89.824219 161.53125 88.828125 C 160.320312 87.832031 159.160156 86.78125 158.050781 85.671875 C 156.941406 84.5625 155.886719 83.402344 154.894531 82.1875 C 153.898438 80.976562 152.964844 79.71875 152.09375 78.414062 C 151.222656 77.109375 150.417969 75.765625 149.675781 74.382812 C 148.9375 73 148.269531 71.582031 147.667969 70.132812 C 147.066406 68.683594 146.539062 67.207031 146.085938 65.707031 C 145.628906 64.207031 145.246094 62.6875 144.941406 61.148438 C 144.636719 59.609375 144.40625 58.058594 144.253906 56.5 C 144.097656 54.9375 144.023438 53.371094 144.023438 51.804688 C 144.023438 50.234375 144.097656 48.671875 144.253906 47.109375 C 144.40625 45.546875 144.636719 44 144.941406 42.460938 C 145.246094 40.921875 145.628906 39.402344 146.085938 37.902344 C 146.539062 36.398438 147.066406 34.925781 147.667969 33.476562 C 148.269531 32.027344 148.9375 30.609375 149.675781 29.226562 C 150.417969 27.84375 151.222656 26.5 152.09375 25.195312 C 152.964844 23.890625 153.898438 22.632812 154.894531 21.417969 C 155.886719 20.207031 156.941406 19.046875 158.050781 17.9375 C 159.160156 16.828125 160.320312 15.777344 161.53125 14.78125 C 162.746094 13.785156 164.003906 12.851562 165.308594 11.980469 C 166.613281 11.109375 167.957031 10.304688 169.339844 9.5625 C 170.722656 8.824219 172.140625 8.15625 173.589844 7.554688 C 175.039062 6.953125 176.511719 6.425781 178.015625 5.972656 C 179.515625 5.515625 181.035156 5.136719 182.574219 4.828125 C 184.113281 4.523438 185.660156 4.292969 187.222656 4.140625 C 188.785156 3.984375 190.347656 3.910156 191.917969 3.910156 C 193.484375 3.910156 195.050781 3.984375 196.613281 4.140625 C 198.171875 4.292969 199.722656 4.523438 201.261719 4.828125 C 202.800781 5.136719 204.320312 5.515625 205.820312 5.972656 C 207.320312 6.425781 208.796875 6.953125 210.246094 7.554688 C 211.695312 8.15625 213.113281 8.824219 214.496094 9.5625 C 215.878906 10.304688 217.222656 11.109375 218.527344 11.980469 C 219.832031 12.851562 221.089844 13.785156 222.300781 14.78125 C 223.515625 15.777344 224.675781 16.828125 225.785156 17.9375 C 226.894531 19.046875 227.945312 20.207031 228.941406 21.417969 C 229.9375 22.632812 230.871094 23.890625 231.742188 25.195312 C 232.613281 26.5 233.417969 27.84375 234.15625 29.226562 C 234.898438 30.609375 235.566406 32.027344 236.167969 33.476562 C 236.765625 34.925781 237.292969 36.398438 237.75 37.902344 C 238.207031 39.402344 238.585938 40.921875 238.890625 42.460938 C 239.199219 44 239.429688 45.546875 239.582031 47.109375 C 239.734375 48.671875 239.8125 50.234375 239.8125 51.804688 Z M 239.8125 51.804688 " fill-opacity="1" fill-rule="nonzero"/><path fill="#ffffff" d="M 235.820312 123.648438 L 148.011719 123.648438 C 123.792969 123.648438 104.109375 143.332031 104.109375 167.550781 L 104.109375 191.5 C 104.109375 198.109375 109.472656 203.472656 116.082031 203.472656 L 267.75 203.472656 C 274.359375 203.472656 279.726562 198.109375 279.726562 191.5 L 279.726562 167.550781 C 279.726562 143.332031 260.039062 123.648438 235.820312 123.648438 Z M 235.820312 123.648438 " fill-opacity="1" fill-rule="nonzero"/></svg>