<svg xmlns="http://www.w3.org/2000/svg" xmlns:xlink="http://www.w3.org/1999/xlink" width="347" zoomAndPan="magnify" viewBox="0 0 260.25 233.249991" height="311" preserveAspectRatio="xMidYMid meet" version="1.0"><defs><clipPath id="f55c175d27"><path d="M 0.0429688 139 L 259.460938 139 L 259.460938 231.753906 L 0.0429688 231.753906 Z M 0.0429688 139 " clip-rule="nonzero"/></clipPath></defs><path fill="#ffffff" d="M 181.121094 24.882812 L 184.40625 29.464844 L 179.144531 33.246094 L 175.855469 28.664062 Z M 181.121094 24.882812 " fill-opacity="1" fill-rule="nonzero"/><g clip-path="url(#f55c175d27)"><path fill="#ffffff" d="M 251.402344 152.75 C 246.550781 149.425781 240.378906 148.707031 234.894531 150.824219 L 234.773438 150.871094 L 232.398438 152.007812 C 228.378906 146.996094 222.0625 144.210938 215.535156 144.78125 C 213.183594 144.976562 210.890625 145.601562 208.703125 146.648438 L 207.527344 147.21875 C 205.605469 143.878906 202.585938 141.367188 198.914062 140.089844 C 194.871094 138.683594 190.527344 138.9375 186.683594 140.804688 L 160.402344 153.519531 C 158.367188 152.703125 156.148438 152.25 153.820312 152.25 L 98.902344 152.25 L 95.5625 152.277344 C 75.203125 152.457031 56.015625 161.300781 42.671875 176.601562 L 31.414062 176.601562 L 31.414062 168.605469 L 0.0390625 168.605469 L 0.0390625 174.246094 L 25.773438 174.246094 L 25.773438 226.210938 L 0.0390625 226.210938 L 0.0390625 231.851562 L 31.414062 231.851562 L 31.414062 223.578125 L 46.433594 223.578125 L 146.101562 229.570312 C 146.542969 229.59375 146.984375 229.609375 147.425781 229.609375 C 150.75 229.609375 154.054688 228.859375 157.050781 227.417969 L 247.878906 184.03125 C 250.164062 183.128906 252.195312 181.792969 253.925781 180.066406 C 257.292969 176.699219 259.148438 172.21875 259.148438 167.453125 C 259.148438 161.570312 256.25 156.074219 251.402344 152.75 Z M 207.472656 154.765625 L 211.640625 152.746094 C 213.070312 152.0625 214.566406 151.652344 216.109375 151.523438 C 219.832031 151.199219 223.441406 152.535156 226.042969 155.046875 L 171.734375 181.015625 L 167.761719 181.015625 C 169.726562 178.527344 171.042969 175.507812 171.449219 172.210938 Z M 189.632812 146.890625 C 191.851562 145.816406 194.359375 145.667969 196.691406 146.480469 C 198.65625 147.164062 200.292969 148.464844 201.40625 150.183594 L 170.859375 164.976562 C 170.070312 162.3125 168.671875 159.910156 166.828125 157.925781 Z M 249.140625 175.277344 C 248.046875 176.371094 246.761719 177.207031 245.3125 177.769531 L 245.191406 177.816406 L 154.128906 221.316406 C 151.761719 222.453125 149.128906 222.96875 146.507812 222.8125 L 46.738281 216.816406 L 31.414062 216.808594 L 31.414062 183.367188 L 45.816406 183.367188 L 46.832031 182.152344 C 58.9375 167.632812 76.71875 159.210938 95.621094 159.042969 L 98.933594 159.015625 L 153.824219 159.015625 C 159.886719 159.015625 164.824219 163.949219 164.824219 170.015625 C 164.824219 176.070312 159.910156 180.992188 153.859375 181.015625 L 112.203125 181.015625 L 95.800781 186.394531 L 97.90625 192.824219 L 113.285156 187.78125 L 115.625 187.78125 L 115.625 187.785156 L 153.824219 187.785156 C 153.847656 187.785156 153.875 187.78125 153.898438 187.78125 L 173.269531 187.78125 L 237.449219 157.09375 C 240.871094 155.8125 244.554688 156.261719 247.574219 158.332031 C 250.628906 160.425781 252.378906 163.75 252.378906 167.453125 C 252.378906 170.410156 251.230469 173.191406 249.140625 175.277344 Z M 249.140625 175.277344 " fill-opacity="1" fill-rule="nonzero"/></g><path fill="#ffffff" d="M 16.625 179.050781 L 22.265625 179.050781 L 22.265625 185.191406 L 16.625 185.191406 Z M 16.625 179.050781 " fill-opacity="1" fill-rule="nonzero"/><path fill="#ffffff" d="M 16.625 189.609375 L 22.265625 189.609375 L 22.265625 221.660156 L 16.625 221.660156 Z M 16.625 189.609375 " fill-opacity="1" fill-rule="nonzero"/><path fill="#ffffff" d="M 135.308594 105.527344 L 135.308594 134.8125 L 129.355469 128.859375 L 125.367188 132.847656 L 138.128906 145.609375 L 150.957031 132.78125 L 146.96875 128.792969 L 140.949219 134.8125 L 140.949219 105.527344 Z M 135.308594 105.527344 " fill-opacity="1" fill-rule="nonzero"/><path fill="#ffffff" d="M 111.46875 114.570312 L 105.484375 108.585938 L 101.496094 112.574219 L 114.257812 125.335938 L 127.085938 112.507812 L 123.097656 108.519531 L 117.109375 114.503906 L 117.109375 100.730469 L 159.148438 100.730469 L 159.148438 114.570312 L 153.160156 108.585938 L 149.171875 112.574219 L 161.933594 125.335938 L 174.761719 112.507812 L 170.777344 108.519531 L 164.789062 114.503906 L 164.789062 100.730469 L 219.453125 100.730469 L 219.453125 0.046875 L 56.804688 0.046875 L 56.804688 100.730469 L 111.46875 100.730469 Z M 67.824219 95.09375 L 118.015625 55.949219 L 114.546875 51.503906 L 62.445312 92.136719 L 62.445312 8.359375 L 129.949219 56.800781 C 132.398438 58.558594 135.261719 59.433594 138.128906 59.433594 C 140.996094 59.433594 143.863281 58.558594 146.308594 56.800781 L 174.066406 36.882812 L 170.78125 32.300781 L 143.019531 52.21875 C 140.097656 54.320312 136.164062 54.320312 133.238281 52.21875 L 68.390625 5.683594 L 207.867188 5.683594 L 185.941406 21.417969 L 189.230469 26 L 213.8125 8.359375 L 213.8125 92.132812 L 161.710938 51.503906 L 158.242188 55.949219 L 208.4375 95.09375 L 164.789062 95.09375 L 164.789062 87.054688 L 159.148438 87.054688 L 159.148438 95.09375 L 117.109375 95.09375 L 117.109375 87.054688 L 111.46875 87.054688 L 111.46875 95.09375 Z M 67.824219 95.09375 " fill-opacity="1" fill-rule="nonzero"/><path fill="#ffffff" d="M 135.308594 84.234375 L 140.949219 84.234375 L 140.949219 92.414062 L 135.308594 92.414062 Z M 135.308594 84.234375 " fill-opacity="1" fill-rule="nonzero"/><path fill="#ffffff" d="M 111.46875 73.84375 L 117.109375 73.84375 L 117.109375 82.023438 L 111.46875 82.023438 Z M 111.46875 73.84375 " fill-opacity="1" fill-rule="nonzero"/><path fill="#ffffff" d="M 159.148438 73.84375 L 164.789062 73.84375 L 164.789062 82.023438 L 159.148438 82.023438 Z M 159.148438 73.84375 " fill-opacity="1" fill-rule="nonzero"/></svg>