<svg width="236" height="150" viewBox="0 0 236 150" fill="none" xmlns="http://www.w3.org/2000/svg">
<mask id="mask0_915_2528" style="mask-type:luminance" maskUnits="userSpaceOnUse" x="0" y="0" width="235" height="149">
<path d="M0.350586 0H234.443V148.862H0.350586V0Z" fill="white"/>
</mask>
<g mask="url(#mask0_915_2528)">
<path d="M19.5344 4.25974C11.318 4.25974 4.63128 10.9464 4.63128 19.1629V129.878C4.63128 138.097 11.318 144.784 19.5344 144.784H215.417C223.637 144.784 230.323 138.097 230.323 129.878V19.1629C230.323 10.9464 223.637 4.25974 215.417 4.25974H19.5344ZM215.417 149.041H19.5344C8.9742 149.041 0.374512 140.441 0.374512 129.878V19.1629C0.374512 8.59969 8.9742 0 19.5344 0H215.417C225.98 0 234.58 8.59969 234.58 19.1629V129.878C234.58 140.441 225.98 149.041 215.417 149.041Z" fill="#FE6601"/>
</g>
<path d="M211.16 25.5495H23.7939C22.6117 25.5495 21.6641 24.6019 21.6641 23.4196C21.6641 22.2403 22.6117 21.2927 23.7939 21.2927H211.16C212.34 21.2927 213.29 22.2403 213.29 23.4196C213.29 24.6019 212.34 25.5495 211.16 25.5495Z" fill="#FE6601"/>
<path d="M57.8602 59.6157C51.9874 59.6157 47.2138 64.3893 47.2138 70.262C47.2138 76.1348 51.9874 80.9084 57.8602 80.9084C63.7329 80.9084 68.5066 76.1348 68.5066 70.262C68.5066 64.3893 63.7329 59.6157 57.8602 59.6157ZM57.8602 85.1652C49.6437 85.1652 42.957 78.4785 42.957 70.262C42.957 62.0456 49.6437 55.3589 57.8602 55.3589C66.0767 55.3589 72.7634 62.0456 72.7634 70.262C72.7634 78.4785 66.0767 85.1652 57.8602 85.1652Z" fill="#FE6601"/>
<path d="M83.4096 110.718C82.2303 110.718 81.2798 109.767 81.2798 108.588C81.2798 95.6779 70.767 85.1652 57.8601 85.1652C44.9531 85.1652 34.4404 95.6779 34.4404 108.588C34.4404 109.767 33.4928 110.718 32.3105 110.718C31.1283 110.718 30.1807 109.767 30.1807 108.588C30.1807 93.3164 42.5915 80.9084 57.8601 80.9084C73.1316 80.9084 85.5395 93.3164 85.5395 108.588C85.5395 109.767 84.5919 110.718 83.4096 110.718Z" fill="#FE6601"/>
<path d="M25.9238 106.458H89.7962V42.5826H25.9238V106.458ZM91.9261 110.718H23.7939C22.6117 110.718 21.6641 109.767 21.6641 108.588V40.4527C21.6641 39.2734 22.6117 38.3258 23.7939 38.3258H91.9261C93.1083 38.3258 94.0559 39.2734 94.0559 40.4527V108.588C94.0559 109.767 93.1083 110.718 91.9261 110.718Z" fill="#FE6601"/>
<path d="M83.4097 132.008C83.1096 132.008 82.7948 131.942 82.4948 131.808C71.2186 126.467 64.8468 131.327 64.5795 131.541C63.7002 132.224 62.4021 132.123 61.6535 131.292C60.5722 130.062 57.1294 127.068 54.0519 127.7C52.3052 128.083 51.4408 128.749 50.4427 129.53C48.9456 130.695 47.2642 132.008 43.456 132.008C38.6972 132.008 34.3246 127.433 32.061 124.623L25.2912 131.375C24.4595 132.207 23.1287 132.207 22.2791 131.375C21.4473 130.543 21.4473 129.212 22.2791 128.38L30.8134 119.864C31.262 119.401 31.8947 119.166 32.5274 119.249C33.1601 119.317 33.7424 119.65 34.0899 120.182C35.388 122.145 39.8943 127.751 43.456 127.751C45.7998 127.751 46.5988 127.118 47.8138 126.17C48.9931 125.255 50.4427 124.124 53.1518 123.541C57.5779 122.594 61.5525 125.422 63.5487 127.183C66.6113 125.538 73.8802 123.025 84.3246 127.95C85.391 128.449 85.8396 129.729 85.3405 130.793C84.9751 131.559 84.2087 132.008 83.4097 132.008Z" fill="#FE6601"/>
<path d="M211.16 46.8423H113.219C112.036 46.8423 111.089 45.8947 111.089 44.7124C111.089 43.5301 112.036 42.5825 113.219 42.5825H211.16C212.339 42.5825 213.29 43.5301 213.29 44.7124C213.29 45.8947 212.339 46.8423 211.16 46.8423Z" fill="#FE6601"/>
<path d="M172.834 89.4249H113.219C112.036 89.4249 111.089 88.4773 111.089 87.295C111.089 86.1157 112.036 85.1652 113.219 85.1652H172.834C174.017 85.1652 174.964 86.1157 174.964 87.295C174.964 88.4773 174.017 89.4249 172.834 89.4249Z" fill="#FE6601"/>
<path d="M172.834 106.458H113.219C112.036 106.458 111.089 105.51 111.089 104.328C111.089 103.149 112.036 102.198 113.219 102.198H172.834C174.017 102.198 174.964 103.149 174.964 104.328C174.964 105.51 174.017 106.458 172.834 106.458Z" fill="#FE6601"/>
<path d="M172.834 123.491H113.219C112.036 123.491 111.089 122.543 111.089 121.361C111.089 120.182 112.036 119.234 113.219 119.234H172.834C174.017 119.234 174.964 120.182 174.964 121.361C174.964 122.543 174.017 123.491 172.834 123.491Z" fill="#FE6601"/>
<path d="M120.886 66.0053C120.886 67.8826 119.356 69.4154 117.476 69.4154C115.598 69.4154 114.065 67.8826 114.065 66.0053C114.065 64.1249 115.598 62.5951 117.476 62.5951C119.356 62.5951 120.886 64.1249 120.886 66.0053Z" fill="#FE6601"/>
<path d="M133.662 66.0053C133.662 67.8826 132.132 69.4154 130.252 69.4154C128.372 69.4154 126.842 67.8826 126.842 66.0053C126.842 64.1249 128.372 62.5951 130.252 62.5951C132.132 62.5951 133.662 64.1249 133.662 66.0053Z" fill="#FE6601"/>
<path d="M146.436 66.0053C146.436 67.8826 144.906 69.4154 143.028 69.4154C141.148 69.4154 139.618 67.8826 139.618 66.0053C139.618 64.1249 141.148 62.5951 143.028 62.5951C144.906 62.5951 146.436 64.1249 146.436 66.0053Z" fill="#FE6601"/>
<path d="M159.211 66.0053C159.211 67.8826 157.682 69.4154 155.801 69.4154C153.921 69.4154 152.391 67.8826 152.391 66.0053C152.391 64.1249 153.921 62.5951 155.801 62.5951C157.682 62.5951 159.211 64.1249 159.211 66.0053Z" fill="#FE6601"/>
<path d="M171.988 66.0053C171.988 67.8826 170.455 69.4154 168.578 69.4154C166.697 69.4154 165.167 67.8826 165.167 66.0053C165.167 64.1249 166.697 62.5951 168.578 62.5951C170.455 62.5951 171.988 64.1249 171.988 66.0053Z" fill="#FE6601"/>
<path d="M184.761 66.0053C184.761 67.8826 183.231 69.4154 181.351 69.4154C179.471 69.4154 177.941 67.8826 177.941 66.0053C177.941 64.1249 179.471 62.5951 181.351 62.5951C183.231 62.5951 184.761 64.1249 184.761 66.0053Z" fill="#FE6601"/>
<path d="M197.538 66.0053C197.538 67.8826 196.008 69.4154 194.127 69.4154C192.247 69.4154 190.717 67.8826 190.717 66.0053C190.717 64.1249 192.247 62.5951 194.127 62.5951C196.008 62.5951 197.538 64.1249 197.538 66.0053Z" fill="#FE6601"/>
<path d="M210.311 66.0053C210.311 67.8826 208.781 69.4154 206.9 69.4154C205.023 69.4154 203.49 67.8826 203.49 66.0053C203.49 64.1249 205.023 62.5951 206.9 62.5951C208.781 62.5951 210.311 64.1249 210.311 66.0053Z" fill="#FE6601"/>
</svg>
