<svg xmlns="http://www.w3.org/2000/svg" xmlns:xlink="http://www.w3.org/1999/xlink" width="216" zoomAndPan="magnify" viewBox="0 0 162 208.499994" height="278" preserveAspectRatio="xMidYMid meet" version="1.0"><defs><clipPath id="9595ed6a80"><path d="M 0.195312 0 L 161 0 L 161 207.253906 L 0.195312 207.253906 Z M 0.195312 0 " clip-rule="nonzero"/></clipPath></defs><g clip-path="url(#9595ed6a80)"><path fill="#ffffff" d="M 144.460938 201.496094 L 137.457031 201.496094 L 137.457031 154.078125 C 137.457031 153.691406 137.382812 153.316406 137.234375 152.960938 C 137.085938 152.601562 136.875 152.285156 136.601562 152.011719 C 136.328125 151.738281 136.011719 151.527344 135.65625 151.378906 C 135.296875 151.230469 134.925781 151.160156 134.539062 151.160156 L 114.179688 151.160156 C 114.015625 146.769531 113.546875 145.15625 112.191406 143.828125 C 111.535156 143.167969 110.78125 142.664062 109.921875 142.308594 C 109.066406 141.953125 108.171875 141.773438 107.242188 141.773438 C 106.378906 141.769531 105.519531 141.699219 104.664062 141.558594 C 103.8125 141.417969 102.976562 141.207031 102.15625 140.929688 C 101.335938 140.652344 100.546875 140.308594 99.78125 139.902344 C 99.019531 139.496094 98.292969 139.027344 97.605469 138.503906 C 96.921875 137.976562 96.28125 137.398438 95.6875 136.769531 C 95.09375 136.140625 94.554688 135.464844 94.074219 134.75 C 93.589844 134.03125 93.167969 133.277344 92.808594 132.492188 C 92.449219 131.707031 92.15625 130.894531 91.925781 130.0625 C 91.699219 129.226562 91.539062 128.378906 91.449219 127.519531 C 91.359375 126.65625 91.339844 125.796875 91.390625 124.933594 C 91.445312 124.070312 91.566406 123.214844 91.753906 122.371094 C 91.945312 121.527344 92.203125 120.703125 92.527344 119.902344 C 92.851562 119.101562 93.238281 118.332031 93.691406 117.59375 C 94.140625 116.855469 94.648438 116.15625 95.210938 115.5 C 95.777344 114.84375 96.390625 114.238281 97.054688 113.683594 C 97.714844 113.128906 98.421875 112.628906 99.164062 112.191406 C 99.164062 112.191406 100.425781 111.582031 100.824219 111.347656 C 113.035156 104.953125 123.332031 91.222656 130.40625 73.289062 C 132.664062 72.160156 134.835938 70.878906 136.917969 69.449219 C 139 68.023438 140.972656 66.457031 142.839844 64.753906 C 144.707031 63.050781 146.445312 61.230469 148.0625 59.289062 C 149.675781 57.347656 151.148438 55.300781 152.484375 53.15625 C 153.816406 51.011719 154.996094 48.785156 156.023438 46.476562 C 157.046875 44.167969 157.910156 41.800781 158.609375 39.375 C 159.308594 36.949219 159.839844 34.484375 160.199219 31.984375 C 160.558594 29.484375 160.746094 26.972656 160.757812 24.445312 C 160.757812 23.558594 160.671875 22.675781 160.496094 21.804688 C 160.324219 20.933594 160.066406 20.085938 159.726562 19.261719 C 159.386719 18.441406 158.96875 17.660156 158.476562 16.921875 C 157.980469 16.183594 157.421875 15.5 156.792969 14.871094 C 156.164062 14.242188 155.480469 13.679688 154.738281 13.1875 C 154 12.691406 153.21875 12.273438 152.398438 11.933594 C 151.578125 11.59375 150.730469 11.335938 149.859375 11.164062 C 148.984375 10.992188 148.105469 10.902344 147.214844 10.902344 L 140.839844 10.902344 L 140.839844 2.988281 C 140.839844 2.601562 140.769531 2.230469 140.621094 1.871094 C 140.472656 1.515625 140.261719 1.199219 139.988281 0.925781 C 139.714844 0.652344 139.398438 0.441406 139.039062 0.292969 C 138.683594 0.144531 138.308594 0.0703125 137.921875 0.0703125 L 23.84375 0.0703125 C 23.457031 0.0703125 23.082031 0.144531 22.726562 0.292969 C 22.367188 0.441406 22.050781 0.652344 21.777344 0.925781 C 21.503906 1.199219 21.292969 1.515625 21.144531 1.871094 C 20.996094 2.230469 20.921875 2.601562 20.921875 2.988281 L 20.921875 10.902344 L 13.917969 10.902344 C 13.03125 10.90625 12.152344 10.992188 11.28125 11.167969 C 10.410156 11.34375 9.5625 11.601562 8.742188 11.941406 C 7.925781 12.28125 7.144531 12.699219 6.40625 13.195312 C 5.667969 13.6875 4.984375 14.25 4.359375 14.878906 C 3.730469 15.507812 3.171875 16.191406 2.679688 16.929688 C 2.183594 17.667969 1.769531 18.449219 1.429688 19.269531 C 1.089844 20.089844 0.832031 20.9375 0.660156 21.808594 C 0.488281 22.679688 0.402344 23.558594 0.402344 24.445312 C 0.410156 26.984375 0.59375 29.511719 0.953125 32.023438 C 1.3125 34.539062 1.84375 37.015625 2.546875 39.453125 C 3.25 41.894531 4.117188 44.273438 5.152344 46.59375 C 6.183594 48.914062 7.371094 51.148438 8.714844 53.304688 C 10.058594 55.457031 11.542969 57.511719 13.171875 59.460938 C 14.800781 61.40625 16.554688 63.234375 18.433594 64.941406 C 20.316406 66.644531 22.304688 68.214844 24.402344 69.644531 C 26.5 71.074219 28.6875 72.351562 30.964844 73.476562 C 31.085938 73.535156 31.207031 73.582031 31.335938 73.617188 C 38.34375 91.386719 48.636719 105 60.734375 111.347656 L 62.320312 112.167969 C 63.074219 112.597656 63.789062 113.089844 64.460938 113.640625 C 65.136719 114.1875 65.761719 114.789062 66.335938 115.441406 C 66.910156 116.09375 67.429688 116.789062 67.890625 117.527344 C 68.351562 118.261719 68.75 119.03125 69.082031 119.835938 C 69.417969 120.636719 69.683594 121.460938 69.882812 122.308594 C 70.082031 123.15625 70.210938 124.011719 70.269531 124.878906 C 70.328125 125.746094 70.3125 126.613281 70.230469 127.480469 C 70.144531 128.34375 69.992188 129.195312 69.765625 130.035156 C 69.542969 130.875 69.25 131.691406 68.894531 132.484375 C 68.535156 133.277344 68.113281 134.035156 67.632812 134.757812 C 67.148438 135.480469 66.609375 136.160156 66.015625 136.792969 C 65.421875 137.429688 64.78125 138.011719 64.089844 138.539062 C 63.398438 139.070312 62.671875 139.539062 61.90625 139.949219 C 61.136719 140.355469 60.34375 140.703125 59.519531 140.980469 C 58.695312 141.257812 57.855469 141.46875 56.996094 141.609375 C 56.140625 141.75 55.273438 141.820312 54.40625 141.820312 C 53.476562 141.820312 52.582031 142 51.726562 142.355469 C 50.867188 142.710938 50.113281 143.214844 49.457031 143.875 C 48.125 145.203125 47.632812 146.816406 47.472656 151.203125 L 26.832031 151.203125 C 26.445312 151.203125 26.070312 151.277344 25.714844 151.425781 C 25.355469 151.574219 25.039062 151.785156 24.765625 152.058594 C 24.492188 152.332031 24.28125 152.648438 24.132812 153.007812 C 23.988281 153.363281 23.914062 153.738281 23.914062 154.125 L 23.914062 201.496094 L 16.792969 201.496094 C 16.402344 201.496094 16.03125 201.570312 15.675781 201.71875 C 15.316406 201.867188 15 202.078125 14.726562 202.351562 C 14.453125 202.625 14.242188 202.941406 14.09375 203.300781 C 13.945312 203.65625 13.871094 204.027344 13.871094 204.417969 C 13.871094 204.804688 13.945312 205.175781 14.09375 205.53125 C 14.242188 205.890625 14.453125 206.207031 14.726562 206.480469 C 15 206.753906 15.316406 206.964844 15.675781 207.113281 C 16.03125 207.261719 16.402344 207.335938 16.792969 207.335938 L 144.460938 207.335938 C 144.847656 207.335938 145.21875 207.261719 145.578125 207.113281 C 145.933594 206.964844 146.25 206.753906 146.523438 206.480469 C 146.796875 206.207031 147.007812 205.890625 147.15625 205.53125 C 147.304688 205.175781 147.378906 204.804688 147.378906 204.417969 C 147.378906 204.027344 147.304688 203.65625 147.15625 203.300781 C 147.007812 202.941406 146.796875 202.625 146.523438 202.351562 C 146.25 202.078125 145.933594 201.867188 145.578125 201.71875 C 145.21875 201.570312 144.847656 201.496094 144.460938 201.496094 Z M 152.632812 19.003906 C 153.371094 19.71875 153.941406 20.546875 154.347656 21.492188 C 154.753906 22.433594 154.957031 23.417969 154.96875 24.445312 C 154.957031 26.429688 154.828125 28.402344 154.582031 30.367188 C 154.332031 32.335938 153.96875 34.28125 153.484375 36.203125 C 153 38.125 152.398438 40.011719 151.6875 41.859375 C 150.972656 43.710938 150.152344 45.507812 149.222656 47.257812 C 148.289062 49.007812 147.257812 50.695312 146.121094 52.320312 C 144.984375 53.945312 143.753906 55.496094 142.429688 56.96875 C 141.109375 58.445312 139.699219 59.835938 138.207031 61.140625 C 136.714844 62.445312 135.148438 63.652344 133.511719 64.769531 C 138.332031 49.121094 140.769531 33.113281 140.820312 16.742188 L 147.191406 16.742188 C 148.214844 16.734375 149.199219 16.929688 150.140625 17.320312 C 151.085938 17.714844 151.917969 18.277344 152.632812 19.003906 Z M 115.789062 52.042969 C 119.484375 40.109375 120.972656 27.90625 120.25 15.433594 C 120.207031 15.050781 120.238281 14.671875 120.34375 14.300781 C 120.453125 13.929688 120.625 13.59375 120.867188 13.292969 C 121.109375 12.988281 121.398438 12.746094 121.734375 12.558594 C 122.074219 12.371094 122.433594 12.253906 122.816406 12.210938 C 123.203125 12.160156 123.582031 12.191406 123.953125 12.292969 C 124.328125 12.398438 124.667969 12.574219 124.972656 12.8125 C 125.273438 13.054688 125.519531 13.347656 125.703125 13.6875 C 125.890625 14.03125 126 14.394531 126.039062 14.78125 C 126.46875 21.355469 126.289062 27.914062 125.503906 34.457031 C 124.71875 41 123.339844 47.414062 121.367188 53.703125 C 121.277344 54.003906 121.144531 54.285156 120.964844 54.542969 C 120.785156 54.800781 120.566406 55.027344 120.316406 55.214844 C 120.0625 55.402344 119.789062 55.546875 119.488281 55.648438 C 119.191406 55.75 118.882812 55.800781 118.566406 55.804688 C 118.289062 55.796875 118.019531 55.757812 117.75 55.6875 C 117.382812 55.570312 117.046875 55.390625 116.75 55.144531 C 116.453125 54.898438 116.210938 54.605469 116.03125 54.261719 C 115.847656 53.921875 115.734375 53.5625 115.691406 53.175781 C 115.652344 52.792969 115.683594 52.414062 115.789062 52.042969 Z M 115.648438 59.164062 C 116.035156 59.167969 116.40625 59.246094 116.761719 59.394531 C 117.117188 59.546875 117.429688 59.757812 117.703125 60.035156 C 117.972656 60.308594 118.183594 60.625 118.328125 60.984375 C 118.472656 61.339844 118.546875 61.710938 118.542969 62.097656 C 118.542969 62.484375 118.464844 62.855469 118.316406 63.214844 C 118.167969 63.570312 117.957031 63.882812 117.679688 64.15625 C 117.40625 64.425781 117.089844 64.636719 116.734375 64.785156 C 116.375 64.929688 116.003906 65.003906 115.617188 65.003906 C 115.230469 65 114.859375 64.925781 114.503906 64.777344 C 114.148438 64.628906 113.832031 64.417969 113.558594 64.144531 C 113.285156 63.871094 113.074219 63.554688 112.929688 63.199219 C 112.78125 62.839844 112.707031 62.46875 112.707031 62.082031 C 112.707031 61.691406 112.78125 61.316406 112.933594 60.957031 C 113.085938 60.59375 113.300781 60.277344 113.578125 60.003906 C 113.855469 59.730469 114.179688 59.519531 114.539062 59.375 C 114.902344 59.226562 115.28125 59.160156 115.671875 59.164062 Z M 6.308594 24.445312 C 6.308594 23.941406 6.359375 23.441406 6.457031 22.945312 C 6.558594 22.453125 6.703125 21.972656 6.898438 21.507812 C 7.089844 21.039062 7.328125 20.597656 7.609375 20.179688 C 7.886719 19.757812 8.207031 19.371094 8.5625 19.011719 C 8.917969 18.65625 9.304688 18.335938 9.726562 18.054688 C 10.144531 17.773438 10.585938 17.535156 11.050781 17.339844 C 11.515625 17.144531 11.996094 16.996094 12.492188 16.898438 C 12.984375 16.796875 13.484375 16.742188 13.988281 16.742188 L 20.992188 16.742188 C 21.078125 33.265625 23.574219 49.414062 28.488281 65.1875 C 26.800781 64.085938 25.1875 62.882812 23.652344 61.578125 C 22.113281 60.277344 20.660156 58.882812 19.292969 57.402344 C 17.925781 55.917969 16.65625 54.359375 15.480469 52.71875 C 14.308594 51.082031 13.238281 49.378906 12.273438 47.605469 C 11.3125 45.835938 10.460938 44.011719 9.71875 42.136719 C 8.980469 40.261719 8.359375 38.347656 7.859375 36.394531 C 7.355469 34.445312 6.972656 32.46875 6.714844 30.46875 C 6.453125 28.46875 6.320312 26.460938 6.308594 24.445312 Z M 60.242188 33.386719 L 55.738281 30.121094 C 55.21875 29.761719 54.648438 29.582031 54.019531 29.582031 C 53.390625 29.582031 52.820312 29.761719 52.304688 30.121094 L 47.820312 33.386719 L 47.820312 5.90625 L 60.242188 5.90625 Z M 29.65625 201.496094 L 29.65625 156.996094 L 131.503906 156.996094 L 131.503906 201.496094 Z M 29.65625 201.496094 " fill-opacity="1" fill-rule="nonzero"/></g><path fill="#ffffff" d="M 49.734375 167.828125 L 112.542969 167.828125 C 112.929688 167.828125 113.300781 167.902344 113.660156 168.050781 C 114.019531 168.199219 114.332031 168.410156 114.605469 168.683594 C 114.878906 168.957031 115.089844 169.273438 115.238281 169.628906 C 115.386719 169.988281 115.460938 170.359375 115.460938 170.746094 L 115.460938 187.769531 C 115.460938 188.15625 115.386719 188.527344 115.238281 188.886719 C 115.089844 189.242188 114.878906 189.558594 114.605469 189.832031 C 114.332031 190.105469 114.019531 190.316406 113.660156 190.464844 C 113.300781 190.613281 112.929688 190.6875 112.542969 190.6875 L 49.734375 190.6875 C 49.347656 190.6875 48.976562 190.613281 48.617188 190.464844 C 48.261719 190.316406 47.945312 190.105469 47.671875 189.832031 C 47.398438 189.558594 47.1875 189.242188 47.039062 188.886719 C 46.890625 188.527344 46.816406 188.15625 46.816406 187.769531 L 46.816406 170.746094 C 46.816406 170.359375 46.890625 169.988281 47.039062 169.628906 C 47.1875 169.273438 47.398438 168.957031 47.671875 168.683594 C 47.945312 168.410156 48.261719 168.199219 48.617188 168.050781 C 48.976562 167.902344 49.347656 167.828125 49.734375 167.828125 Z M 49.734375 167.828125 " fill-opacity="1" fill-rule="nonzero"/></svg>