<svg width="40" height="55" viewBox="0 0 40 55" fill="none" xmlns="http://www.w3.org/2000/svg">
<g clip-path="url(#clip0_915_2490)">
<mask id="mask0_915_2490" style="mask-type:luminance" maskUnits="userSpaceOnUse" x="0" y="0" width="55" height="53">
<path d="M0.027832 0H54.2244V52.8246H0.027832V0Z" fill="white"/>
</mask>
<g mask="url(#mask0_915_2490)">
<path d="M36.3494 25.797V8.7911C36.3382 8.71674 36.328 8.63216 36.2964 8.5578C36.2648 8.49459 36.2323 8.43046 36.1793 8.37748L27.9784 0.186836C27.8725 0.0808749 27.7247 0.0390478 27.576 0.0176697H6.8512C5.85572 0.0176697 5.04985 0.822605 5.04985 1.82924V4.58424H1.8394C0.843922 4.57402 0.027832 5.39011 0.027832 6.38559V44.0531C0.027832 45.0485 0.843922 45.8544 1.8394 45.8544H28.4553C35.5965 57.8587 53.9269 52.9111 54.0654 38.9353C54.2132 29.8867 44.9425 23.0308 36.3494 25.797ZM28.1374 1.97796L34.3789 8.20831H28.7945C28.4348 8.20831 28.1374 7.9118 28.1374 7.55116V1.97796ZM6.19405 1.81902C6.19405 1.45837 6.49056 1.16187 6.84097 1.16187H26.983V7.55116C26.983 8.54757 27.7879 9.35251 28.7843 9.35251H35.1838V26.1781C29.6952 28.3503 26.0395 34.2516 26.6223 40.1325H6.8512C6.49056 40.1325 6.2052 39.8462 6.2052 39.4753V1.81902H6.19405ZM1.8394 44.6991C1.46854 44.6991 1.18225 44.4128 1.18225 44.0531V6.38559C1.18225 6.01472 1.46854 5.72844 1.8394 5.72844H5.04985V39.4865C5.04985 40.482 5.85572 41.2981 6.8512 41.2981H26.7924C26.9932 42.3363 27.3752 43.724 27.852 44.7093H1.8394V44.6991ZM29.2927 44.9956C27.8093 42.3047 27.364 39.0515 28.0742 36.0427C31.8674 21.6329 52.4964 23.9743 52.9203 38.9241C52.7827 51.9147 35.6495 56.3009 29.2927 44.9956ZM9.6694 8.65354H20.1168C20.7526 8.65354 21.2722 8.13395 21.2722 7.49818V5.72844C21.2722 5.09267 20.7526 4.57402 20.1168 4.57402H9.6694C9.03363 4.57402 8.51498 5.09267 8.51498 5.72844V7.49818C8.51498 8.13395 9.03363 8.65354 9.6694 8.65354ZM9.6694 5.72844H20.1168V7.49818H9.6694V5.72844ZM9.09777 13.3465C8.34488 13.3465 8.34488 12.2023 9.09777 12.1921H20.6996C21.4516 12.1921 21.4516 13.3363 20.6996 13.3465H9.09777ZM9.09777 17.6807H31.6769C32.439 17.6909 32.4288 18.8249 31.6769 18.8351H9.09777C8.33466 18.8147 8.34488 17.6909 9.09777 17.6807ZM31.6657 24.3135H9.09777C8.33466 24.3024 8.34488 23.1693 9.09777 23.1582H31.6769C32.4288 23.1693 32.4186 24.3024 31.6657 24.3135ZM26.3472 29.791H9.09777C8.34488 29.791 8.35604 28.6468 9.09777 28.6366H26.3472C27.0991 28.6468 27.0889 29.791 26.3472 29.791ZM23.5708 35.2796H9.09777C8.34488 35.2796 8.34488 34.1354 9.09777 34.1252H23.582C24.3339 34.1252 24.3237 35.2796 23.5708 35.2796ZM41.8269 29.6218C41.1177 28.7314 39.6872 28.6682 38.9027 29.4843L34.654 33.7432C34.2831 34.114 34.0712 34.6123 34.0712 35.1421C34.008 36.8477 36.275 37.7483 37.4406 36.5409L38.3413 35.6403V41.7637C38.3413 42.8559 39.2308 43.7352 40.3118 43.7352C41.403 43.7352 42.2823 42.8447 42.2823 41.7637V35.6821L43.183 36.5828C44.3486 37.7911 46.6165 36.8904 46.5524 35.1839C46.5524 34.655 46.3516 34.1568 45.9696 33.7859L41.8269 29.6218ZM45.1749 35.7667C44.8681 36.0743 44.317 36.0743 44.0102 35.7667L41.1493 32.8955V41.7637C41.1493 42.2201 40.7784 42.591 40.323 42.591C39.8666 42.591 39.4957 42.2201 39.4957 41.7637V32.8639L36.6245 35.7351C35.841 36.4768 34.707 35.354 35.459 34.5695L39.7188 30.3106C39.8777 30.1516 40.0683 30.0457 40.3118 30.0671C40.5553 30.0559 40.7998 30.173 40.9587 30.3738L45.1749 34.602C45.4928 34.9088 45.4928 35.4599 45.1749 35.7667ZM42.9924 45.0067H37.6525C36.5613 45.0067 35.682 45.8962 35.682 46.9772C35.682 48.0684 36.5715 48.9477 37.6525 48.9477H42.9924C45.5987 48.8845 45.5987 45.0699 42.9924 45.0067ZM42.9924 47.8035H37.6525C37.1971 47.8035 36.8262 47.4327 36.8262 46.9772C36.8262 46.5218 37.1971 46.1509 37.6525 46.1509H42.9924C44.0734 46.1723 44.0734 47.7822 42.9924 47.8035Z" fill="white"/>
</g>
</g>
<defs>
<clipPath id="clip0_915_2490">
<rect width="54.2523" height="58" fill="white"/>
</clipPath>
</defs>
</svg>
