<svg width="474" height="87" viewBox="0 0 474 87" fill="none" xmlns="http://www.w3.org/2000/svg">
<path d="M473.562 66.9001C471.081 66.9001 470.187 65.5601 470.187 61.838V46.3044C470.187 38.0662 466.167 33.7485 458.674 33.7485C451.18 33.7485 446.415 37.3714 443.09 42.1357L443.785 42.8305C446.515 40.4483 449.691 39.555 452.371 39.555C457.383 39.555 459.021 42.5823 459.021 48.091V49.6295C451.13 51.2176 441.85 53.1531 441.85 62.7313C441.85 67.4956 444.927 71.0688 449.79 71.0688C453.959 71.0688 457.085 68.9348 459.269 65.8083C459.964 68.8356 462.445 71.0192 466.614 71.0192C469.79 71.0192 472.023 69.6792 473.612 67.4956V66.9497L473.562 66.9001ZM458.922 64.1209C458.078 64.4187 457.135 64.6172 455.994 64.6172C452.966 64.6172 451.577 62.1358 451.577 59.5551C451.577 55.2375 454.058 52.8057 458.922 51.7139V64.1209Z" fill="white"/>
<path d="M176.587 33.7496C166.115 33.7496 159.316 40.2509 159.316 51.7646C159.316 62.1865 165.768 71.0203 176.289 71.0203C184.279 71.0203 189.441 66.653 191.327 60.0525L190.781 59.7547C189.441 61.194 186.81 63.1295 182.046 63.1295C175.942 63.1295 171.078 59.9533 170.731 49.0351H191.376C191.575 40.6976 186.165 33.6504 176.537 33.6504L176.587 33.7496ZM180.607 46.9011L170.781 47.05C170.781 40.7472 172.567 35.9333 176.19 35.9333C178.87 35.9333 180.607 37.6703 180.607 44.2708V46.9011Z" fill="white"/>
<path d="M162.045 34.2955L160.259 18.613C156.239 18.9108 151.872 19.2582 147.455 19.2582H130.184C125.47 19.2582 121.499 18.9108 117.479 18.613L115.693 34.2955H116.586C124.03 23.6751 127.604 21.69 130.383 21.5907H132.666V55.3378C132.666 62.0872 132.616 64.916 131.574 69.6307V69.9781H146.462V69.6307C145.222 64.916 145.073 61.9383 145.073 55.3378V21.5411H147.356C150.135 21.69 153.708 23.6751 161.152 34.2955H162.045Z" fill="white"/>
<path d="M280.657 28.3393L281.104 25.3616H255.347L254.95 28.3393H280.657Z" fill="white"/>
<path d="M283.933 34.8414H271.675V35.1888C272.221 36.8761 272.767 39.3575 272.767 43.5263V60.3006C271.675 62.5338 269.987 63.973 267.704 63.973C264.578 63.973 263.288 61.7398 263.288 58.911V34.8414H251.625V35.2384C251.923 36.9754 252.171 39.4072 252.171 43.5759V60.0028C252.171 66.653 255.496 71.0202 261.551 71.0202C267.605 71.0202 271.476 66.2559 272.915 63.3279H273.114V69.978H285.372V69.6307C284.33 65.2634 283.933 63.2286 283.933 55.5363V34.7917V34.8414Z" fill="white"/>
<path d="M344.28 33.7496C333.809 33.7496 327.01 40.2509 327.01 51.7646C327.01 62.1865 333.461 71.0203 343.983 71.0203C351.973 71.0203 357.134 66.653 359.02 60.0525L358.474 59.7547C357.134 61.194 354.504 63.1295 349.739 63.1295C343.635 63.1295 338.772 59.9533 338.424 49.0351H359.069C359.268 40.6976 353.858 33.6504 344.231 33.6504L344.28 33.7496ZM348.3 46.9011L338.474 47.05C338.474 40.7472 340.26 35.9333 343.883 35.9333C346.563 35.9333 348.3 37.6703 348.3 44.2708V46.9011Z" fill="white"/>
<path d="M397.382 43.3764C397.382 37.4706 393.064 33.7485 386.96 33.7485C380.856 33.7485 378.523 37.421 376.637 40.3987H376.339V33.7485L363.734 37.421V37.7684C364.826 40.5476 365.52 43.3764 365.52 48.5873V57.8181C365.52 63.6246 365.223 66.5527 364.826 69.6793V70.0267H377.382V69.6793C376.885 66.5031 376.637 63.575 376.637 57.8181V43.8727C377.332 41.7883 378.87 39.3069 381.501 39.3069C384.776 39.3069 386.215 41.7883 386.215 44.766V57.8678C386.215 63.4261 385.868 66.5527 385.471 69.6793V70.0267H398.722V69.6793C397.878 66.5031 397.382 63.6246 397.382 57.7685V43.426V43.3764Z" fill="white"/>
<path d="M426.662 64.0223L418.623 63.1291C413.908 62.5831 412.32 62.1365 412.32 60.1514C412.32 59.4566 412.519 58.7618 412.965 58.2655C415.05 59.0099 417.382 59.5062 419.963 59.5062C429.591 59.5062 435.298 54.8412 435.298 46.7518C435.298 43.1289 433.958 40.3498 431.824 38.3646L440.012 38.9106H440.31V30.8708L439.913 30.7219L430.087 36.8262C427.506 34.8907 424.727 33.7989 419.963 33.7989C411.03 33.7989 404.628 39.2083 404.628 46.5533C404.628 51.4168 406.96 54.99 410.881 57.1737C407.407 58.9107 404.38 61.8387 404.38 65.9578C404.38 69.3326 406.166 71.3177 409.293 72.5584C405.223 73.0547 401.253 74.8909 401.253 78.3152C401.253 83.3773 408.251 85.958 418.821 85.958C430.137 85.958 439.02 81.4418 439.02 73.8983C439.02 67.7445 433.263 64.7668 426.811 64.072L426.662 64.0223ZM419.863 36.0321C423.189 36.0321 424.429 39.3076 424.429 46.5533C424.429 53.799 423.04 57.3226 419.913 57.3226C416.786 57.3226 415.496 53.9975 415.496 46.5533C415.496 39.1091 416.538 36.0321 419.863 36.0321ZM421.898 83.5262C415.099 83.5262 410.335 81.2929 410.335 76.7271C410.335 75.3872 410.732 74.1465 411.377 73.2035C412.816 73.5509 414.504 73.8487 416.29 74.0472L422.444 74.742C428.945 75.4864 431.923 75.9827 431.923 78.9108C431.923 81.8388 427.705 83.5758 421.849 83.5758L421.898 83.5262Z" fill="white"/>
<path d="M312.568 45.8585L315 43.7245C318.275 40.8957 320.806 38.7121 325.62 35.4863V34.8411H313.71L311.228 44.4193L303.784 50.2258V15.9824L291.228 20.0023V20.3497C292.221 23.2777 292.618 25.9577 292.618 31.1686V59.1092C292.618 64.7172 292.469 67.0001 291.923 69.6304V69.9778H304.479V69.6304C303.982 67.149 303.784 64.5187 303.784 59.1092V52.7072L313.213 69.9778H327.059V69.3326C325.323 67.1986 324.131 65.6601 322.345 62.5335L312.568 45.8089V45.8585Z" fill="white"/>
<path d="M228.596 19.2576H209.936V19.605C210.978 24.3693 211.027 27.0988 211.027 33.8978V55.3868C211.027 62.1362 210.978 64.965 209.936 69.6797V70.0271H224.824V69.6797C223.583 64.965 223.434 61.9873 223.434 55.3868V49.2329H227.156C241.003 49.2329 247.107 42.0865 247.107 33.2031C247.107 25.1633 242.343 19.2576 228.546 19.2576H228.596ZM225.469 46.95H223.434V21.5901C224.278 21.5405 224.824 21.5405 225.519 21.5405C231.127 21.5405 234.452 26.4536 234.452 33.2031C234.452 39.9525 231.822 46.95 225.42 46.95H225.469Z" fill="white"/>
<path d="M81.9458 72.8064C88.6456 51.0197 95.0476 26.3545 100.556 0.150895C100.556 0.00201078 100.407 -0.0476172 100.358 0.0516389C85.122 15.4363 58.6702 28.3396 36.9331 32.0617C24.0298 24.0716 13.2109 14.0468 0.208374 0.29978C0.109118 0.200524 -0.0397707 0.29978 0.00985738 0.399036C5.96522 26.9997 12.8139 53.6003 21.1514 80.3002C30.7296 83.8734 44.8736 86.5037 60.8539 87C60.9531 87 60.9531 86.9007 60.8539 86.8511C52.2682 84.2705 44.9232 81.5409 38.422 77.9677C38.3227 77.9181 38.3723 77.7692 38.4716 77.7692C49.2409 78.6129 65.1219 78.6625 81.9458 72.8064ZM62.9879 68.191C54.7992 66.0073 45.8662 61.5904 37.082 55.9328C36.9828 55.8832 37.082 55.7343 37.1317 55.7343C50.3824 58.2157 67.6529 59.4564 85.916 53.5507C86.0153 53.5507 86.1145 53.6499 86.0153 53.6996C79.3651 59.3075 71.2758 64.2207 62.9879 68.1413V68.191ZM38.9183 33.0543C57.0325 35.7342 76.4867 34.295 92.8143 27.1982C92.9136 27.1982 93.0128 27.2974 92.9136 27.3471C84.4272 34.8905 76.0401 40.9452 65.3204 45.8583C55.494 41.8881 46.7595 37.8682 38.8686 33.2032C38.7694 33.1536 38.8686 33.0047 38.9183 33.0047V33.0543ZM8.74441 31.5655C8.74441 31.5655 8.7444 31.3669 8.89328 31.4166C26.4616 41.3422 45.1714 45.3124 63.3849 46.6028C63.4841 46.6028 63.5338 46.7516 63.3849 46.8013C55.3948 50.2752 46.3128 52.9055 35.2954 54.7914C24.8735 47.8931 15.2457 39.4563 8.69477 31.5655H8.74441ZM36.685 76.9255C29.6378 72.8064 23.2358 67.5458 16.4367 60.2009C16.3375 60.1016 16.4368 60.0023 16.536 60.052C30.5311 66.3051 45.8662 69.3324 61.0524 68.8858C61.1516 68.8858 61.2013 69.0346 61.0524 69.0843C52.8141 72.856 44.2284 75.6352 36.6353 76.9751L36.685 76.9255Z" fill="white"/>
</svg>
