<svg width="474" height="89" viewBox="0 0 474 89" fill="none" xmlns="http://www.w3.org/2000/svg">
<path d="M473.562 67.9585C471.081 67.9585 470.187 66.614 470.187 62.8792V47.2926C470.187 39.0262 466.167 34.6938 458.674 34.6938C451.18 34.6938 446.415 38.3291 443.09 43.1096L443.785 43.8068C446.515 41.4165 449.691 40.5201 452.371 40.5201C457.383 40.5201 459.021 43.5578 459.021 49.0853V50.629C451.13 52.2225 441.85 54.1646 441.85 63.7755C441.85 68.5561 444.927 72.1415 449.79 72.1415C453.959 72.1415 457.085 70.0002 459.269 66.863C459.964 69.9006 462.445 72.0917 466.614 72.0917C469.79 72.0917 472.023 70.7472 473.612 68.5561V68.0083L473.562 67.9585ZM458.922 65.1699C458.078 65.4686 457.135 65.6678 455.994 65.6678C452.966 65.6678 451.577 63.178 451.577 60.5885C451.577 56.2561 454.058 53.816 458.922 52.7205V65.1699Z" fill="#1E5192"/>
<path d="M176.587 34.6948C166.115 34.6948 159.316 41.2183 159.316 52.7713C159.316 63.2287 165.768 72.0927 176.289 72.0927C184.279 72.0927 189.44 67.7105 191.326 61.0874L190.78 60.7886C189.44 62.2328 186.81 64.1749 182.046 64.1749C175.942 64.1749 171.078 60.9878 170.731 50.0324H191.376C191.574 41.6664 186.165 34.5952 176.537 34.5952L176.587 34.6948ZM180.607 47.8911L170.78 48.0405C170.78 41.7162 172.567 36.8859 176.19 36.8859C178.87 36.8859 180.607 38.6288 180.607 45.2519V47.8911Z" fill="#1E5192"/>
<path d="M162.045 35.2426L160.259 19.5066C156.239 19.8054 151.872 20.154 147.455 20.154H130.184C125.47 20.154 121.499 19.8054 117.479 19.5066L115.693 35.2426H116.586C124.03 24.5859 127.604 22.594 130.383 22.4944H132.666V56.3567C132.666 63.1291 132.616 65.9676 131.574 70.6983V71.0469H146.462V70.6983C145.222 65.9676 145.073 62.9797 145.073 56.3567V22.4446H147.356C150.135 22.594 153.708 24.5859 161.152 35.2426H162.045Z" fill="#1E5192"/>
<path d="M280.657 29.2662L281.104 26.2783H255.347L254.95 29.2662H280.657Z" fill="#1E5192"/>
<path d="M283.933 35.7903H271.675V36.1389C272.221 37.832 272.767 40.3218 272.767 44.5048V61.3363C271.675 63.5772 269.987 65.0213 267.704 65.0213C264.578 65.0213 263.288 62.7805 263.288 59.942V35.7903H251.625V36.1887C251.923 37.9316 252.171 40.3716 252.171 44.5546V61.0376C252.171 67.7104 255.496 72.0926 261.551 72.0926C267.605 72.0926 271.476 67.312 272.915 64.374H273.114V71.0468H285.372V70.6983C284.33 66.3161 283.933 64.2744 283.933 56.5558V35.7405V35.7903Z" fill="#1E5192"/>
<path d="M344.28 34.6948C333.809 34.6948 327.01 41.2183 327.01 52.7713C327.01 63.2287 333.461 72.0927 343.983 72.0927C351.973 72.0927 357.134 67.7105 359.02 61.0874L358.474 60.7886C357.134 62.2328 354.504 64.1749 349.739 64.1749C343.635 64.1749 338.772 60.9878 338.424 50.0324H359.069C359.268 41.6664 353.858 34.5952 344.231 34.5952L344.28 34.6948ZM348.3 47.8911L338.474 48.0405C338.474 41.7162 340.26 36.8859 343.883 36.8859C346.563 36.8859 348.3 38.6288 348.3 45.2519V47.8911Z" fill="#1E5192"/>
<path d="M397.382 44.3545C397.382 38.4287 393.064 34.6938 386.96 34.6938C380.856 34.6938 378.523 38.3789 376.637 41.3667H376.339V34.6938L363.734 38.3789V38.7274C364.826 41.5161 365.52 44.3545 365.52 49.5833V58.8456C365.52 64.6719 365.223 67.6099 364.826 70.7472V71.0957H377.382V70.7472C376.885 67.5601 376.637 64.6221 376.637 58.8456V44.8525C377.332 42.761 378.87 40.2712 381.501 40.2712C384.776 40.2712 386.215 42.761 386.215 45.7489V58.8954C386.215 64.4727 385.868 67.6099 385.471 70.7472V71.0957H398.722V70.7472C397.878 67.5601 397.382 64.6719 397.382 58.7958V44.4043V44.3545Z" fill="#1E5192"/>
<path d="M426.662 65.0708L418.623 64.1744C413.908 63.6267 412.32 63.1785 412.32 61.1866C412.32 60.4894 412.519 59.7923 412.965 59.2943C415.05 60.0413 417.382 60.5392 419.963 60.5392C429.591 60.5392 435.298 55.8583 435.298 47.7413C435.298 44.1061 433.958 41.3174 431.824 39.3255L440.012 39.8733H440.31V31.8061L439.913 31.6567L430.087 37.7818C427.506 35.8397 424.727 34.7442 419.963 34.7442C411.03 34.7442 404.628 40.1721 404.628 47.5421C404.628 52.4223 406.96 56.0077 410.881 58.1988C407.407 59.9417 404.38 62.8797 404.38 67.0129C404.38 70.3991 406.166 72.391 409.293 73.6359C405.223 74.1339 401.253 75.9764 401.253 79.4124C401.253 84.4918 408.251 87.0812 418.821 87.0812C430.137 87.0812 439.02 82.5497 439.02 74.9805C439.02 68.8056 433.263 65.8178 426.811 65.1206L426.662 65.0708ZM419.863 36.9851C423.189 36.9851 424.429 40.2717 424.429 47.5421C424.429 54.8125 423.04 58.3481 419.913 58.3481C416.786 58.3481 415.496 55.0117 415.496 47.5421C415.496 40.0725 416.538 36.9851 419.863 36.9851ZM421.898 84.6412C415.099 84.6412 410.335 82.4003 410.335 77.8189C410.335 76.4744 410.732 75.2295 411.377 74.2833C412.816 74.6319 414.504 74.9307 416.29 75.1299L422.444 75.827C428.945 76.574 431.923 77.072 431.923 80.01C431.923 82.9481 427.705 84.691 421.849 84.691L421.898 84.6412Z" fill="#1E5192"/>
<path d="M312.568 46.8452L315 44.7039C318.275 41.8655 320.806 39.6744 325.62 36.4376V35.7902H313.71L311.228 45.4011L303.784 51.2274V16.8672L291.228 20.9008V21.2494C292.221 24.1874 292.618 26.8765 292.618 32.1052V60.1411C292.618 65.7682 292.469 68.0589 291.923 70.6982V71.0468H304.479V70.6982C303.982 68.2083 303.784 65.569 303.784 60.1411V53.7173L313.213 71.0468H327.059V70.3994C325.323 68.2581 324.131 66.7144 322.345 63.5772L312.568 46.7954V46.8452Z" fill="#1E5192"/>
<path d="M228.595 20.1533H209.935V20.5019C210.977 25.2825 211.027 28.0213 211.027 34.8436V56.4058C211.027 63.1783 210.977 66.0167 209.935 70.7475V71.0961H224.824V70.7475C223.583 66.0167 223.434 63.0289 223.434 56.4058V50.231H227.156C241.002 50.231 247.107 43.0601 247.107 34.1464C247.107 26.0792 242.342 20.1533 228.546 20.1533H228.595ZM225.469 47.9403H223.434V22.4938C224.278 22.444 224.824 22.444 225.518 22.444C231.126 22.444 234.452 27.3739 234.452 34.1464C234.452 40.9188 231.821 47.9403 225.419 47.9403H225.469Z" fill="#1E5192"/>
<path d="M81.9458 73.8849C88.6456 52.0238 95.0476 27.2745 100.556 0.981488C100.556 0.832096 100.407 0.782298 100.358 0.881893C85.122 16.3191 58.6702 29.2664 36.9331 33.0012C24.0298 24.9838 13.2109 14.9248 0.208374 1.13088C0.109118 1.03129 -0.0397707 1.13088 0.00985738 1.23048C5.96522 27.9219 12.8139 54.6133 21.1514 81.4043C30.7296 84.9897 44.8736 87.629 60.8539 88.1269C60.9531 88.1269 60.9531 88.0273 60.8539 87.9775C52.2682 85.3881 44.9232 82.6492 38.422 79.0638C38.3227 79.014 38.3723 78.8646 38.4716 78.8646C49.2409 79.7112 65.1219 79.761 81.9458 73.8849ZM62.9879 69.2537C54.7992 67.0626 45.8662 62.6307 37.082 56.9538C36.9828 56.904 37.082 56.7546 37.1317 56.7546C50.3824 59.2444 67.6529 60.4894 85.916 54.5635C86.0153 54.5635 86.1145 54.6631 86.0153 54.7129C79.3651 60.34 71.2758 65.2699 62.9879 69.2039V69.2537ZM38.9183 33.9972C57.0325 36.6862 76.4867 35.2421 92.8143 28.1211C92.9136 28.1211 93.0128 28.2207 92.9136 28.2705C84.4272 35.8397 76.0401 41.915 65.3204 46.8449C55.494 42.8611 46.7595 38.8275 38.8686 34.1466C38.7694 34.0968 38.8686 33.9474 38.9183 33.9474V33.9972ZM8.74441 32.5032C8.74441 32.5032 8.7444 32.3041 8.89328 32.3538C26.4616 42.3133 45.1714 46.2971 63.3849 47.5919C63.4841 47.5919 63.5338 47.7412 63.3849 47.791C55.3948 51.2769 46.3128 53.9161 35.2954 55.8084C24.8735 48.8866 15.2457 40.421 8.69477 32.5032H8.74441ZM36.685 78.0181C29.6378 73.8849 23.2358 68.6064 16.4367 61.2363C16.3375 61.1367 16.4368 61.0372 16.536 61.087C30.5311 67.3614 45.8662 70.3991 61.0524 69.9509C61.1516 69.9509 61.2013 70.1003 61.0524 70.1501C52.8141 73.9347 44.2284 76.7233 36.6353 78.0679L36.685 78.0181Z" fill="#1E5192"/>
</svg>
