<svg width="68" height="50" viewBox="0 0 68 50" fill="none" xmlns="http://www.w3.org/2000/svg">
<g clip-path="url(#clip0_872_1903)">
<mask id="mask0_872_1903" style="mask-type:luminance" maskUnits="userSpaceOnUse" x="0" y="0" width="67" height="50">
<path d="M0 0.0170898H66.9836V49.6707H0V0.0170898Z" fill="white"/>
</mask>
<g mask="url(#mask0_872_1903)">
<path d="M21.1453 14.4678C21.1453 12.9937 21.9757 11.6302 23.2631 10.9128C24.5504 10.193 26.1449 10.2274 27.4003 10.9988L43.8409 21.1182C45.0545 21.8675 45.7817 23.1622 45.7817 24.5872C45.7817 26.0121 45.0595 27.3092 43.8458 28.0561L26.6411 38.6521C26.0687 39.0034 25.4201 39.1803 24.7715 39.1803C24.1721 39.1803 23.5431 39.0305 23.0027 38.7283C21.875 38.0993 21.1453 36.9054 21.1453 35.6156V14.4678ZM12.441 49.538H54.5524C61.3773 49.538 66.9197 44.0865 66.9197 37.2616V12.3132C66.9197 5.4883 61.3773 0.0170898 54.5524 0.0170898H12.441C5.61616 0.0170898 0 5.4883 0 12.3132V37.2616C0 44.0865 5.61616 49.538 12.441 49.538Z" fill="#FF0000"/>
</g>
</g>
<defs>
<clipPath id="clip0_872_1903">
<rect width="67.4528" height="50" fill="white"/>
</clipPath>
</defs>
</svg>
