<svg xmlns="http://www.w3.org/2000/svg" xmlns:xlink="http://www.w3.org/1999/xlink" width="52" zoomAndPan="magnify" viewBox="0 0 39 53.25" height="71" preserveAspectRatio="xMidYMid meet" version="1.0"><defs><clipPath id="4f7624e5a3"><path d="M 0.269531 6.113281 L 37.988281 6.113281 L 37.988281 51.765625 L 0.269531 51.765625 Z M 0.269531 6.113281 " clip-rule="nonzero"/></clipPath></defs><g clip-path="url(#4f7624e5a3)"><path fill="#231815" d="M 2.652344 7.222656 C 1.945312 7.222656 1.371094 7.804688 1.371094 8.515625 L 1.371094 49.367188 C 1.371094 50.078125 1.945312 50.65625 2.652344 50.65625 L 35.609375 50.65625 C 36.316406 50.65625 36.890625 50.078125 36.890625 49.367188 L 36.890625 8.515625 C 36.890625 7.804688 36.316406 7.222656 35.609375 7.222656 L 31.375 7.222656 L 31.375 9.042969 C 31.375 10.136719 30.492188 11.023438 29.410156 11.023438 L 8.382812 11.023438 C 7.296875 11.023438 6.414062 10.136719 6.414062 9.042969 L 6.414062 7.222656 Z M 35.609375 51.765625 L 2.652344 51.765625 C 1.339844 51.765625 0.269531 50.6875 0.269531 49.367188 L 0.269531 8.515625 C 0.269531 7.191406 1.339844 6.117188 2.652344 6.117188 L 7.515625 6.117188 L 7.515625 9.042969 C 7.515625 9.523438 7.902344 9.917969 8.382812 9.917969 L 29.410156 9.917969 C 29.886719 9.917969 30.277344 9.523438 30.277344 9.042969 L 30.277344 6.117188 L 35.609375 6.117188 C 36.921875 6.117188 37.988281 7.191406 37.988281 8.515625 L 37.988281 49.367188 C 37.988281 50.6875 36.921875 51.765625 35.609375 51.765625 " fill-opacity="1" fill-rule="nonzero"/></g><path fill="#231815" d="M 8.382812 4.382812 C 7.902344 4.382812 7.515625 4.773438 7.515625 5.257812 L 7.515625 9.042969 C 7.515625 9.523438 7.902344 9.917969 8.382812 9.917969 L 29.410156 9.917969 C 29.886719 9.917969 30.277344 9.523438 30.277344 9.042969 L 30.277344 5.257812 C 30.277344 4.773438 29.886719 4.382812 29.410156 4.382812 L 24.671875 4.382812 C 23.792969 4.382812 22.992188 3.863281 22.582031 3.03125 C 22.007812 1.867188 20.664062 1.113281 19.164062 1.113281 C 17.660156 1.113281 16.320312 1.867188 15.742188 3.03125 C 15.332031 3.863281 14.53125 4.382812 13.65625 4.382812 Z M 29.410156 11.023438 L 8.382812 11.023438 C 7.296875 11.023438 6.414062 10.136719 6.414062 9.042969 L 6.414062 5.257812 C 6.414062 4.164062 7.296875 3.277344 8.382812 3.277344 L 13.65625 3.277344 C 14.113281 3.277344 14.535156 2.992188 14.761719 2.539062 C 15.519531 1 17.246094 0.0078125 19.164062 0.0078125 C 21.078125 0.0078125 22.808594 1 23.566406 2.539062 C 23.789062 2.992188 24.214844 3.277344 24.671875 3.277344 L 29.410156 3.277344 C 30.496094 3.277344 31.375 4.164062 31.375 5.257812 L 31.375 9.042969 C 31.375 10.136719 30.496094 11.023438 29.410156 11.023438 " fill-opacity="1" fill-rule="nonzero"/><path fill="#231815" d="M 20.054688 6.085938 C 20.054688 6.601562 19.640625 7.015625 19.128906 7.015625 C 18.621094 7.015625 18.207031 6.601562 18.207031 6.085938 C 18.207031 5.574219 18.621094 5.15625 19.128906 5.15625 C 19.640625 5.15625 20.054688 5.574219 20.054688 6.085938 " fill-opacity="1" fill-rule="nonzero"/><path fill="#231815" d="M 30.773438 20.082031 L 21.152344 20.082031 C 20.644531 20.082031 20.234375 19.667969 20.234375 19.160156 C 20.234375 18.648438 20.644531 18.238281 21.152344 18.238281 L 30.773438 18.238281 C 31.28125 18.238281 31.691406 18.648438 31.691406 19.160156 C 31.691406 19.667969 31.28125 20.082031 30.773438 20.082031 " fill-opacity="1" fill-rule="nonzero"/><path fill="#231815" d="M 30.777344 30.058594 L 21.152344 30.058594 C 20.644531 30.058594 20.234375 29.644531 20.234375 29.132812 C 20.234375 28.625 20.644531 28.210938 21.152344 28.210938 L 30.777344 28.210938 C 31.28125 28.210938 31.691406 28.625 31.691406 29.132812 C 31.691406 29.644531 31.28125 30.058594 30.777344 30.058594 " fill-opacity="1" fill-rule="nonzero"/><path fill="#231815" d="M 9.3125 20.269531 C 9.492188 20.546875 9.691406 20.808594 9.898438 21.0625 C 10.105469 21.316406 10.335938 21.542969 10.578125 21.757812 L 10.6875 21.851562 L 10.730469 21.886719 C 11.085938 22.15625 11.589844 22.082031 11.855469 21.722656 C 12.214844 21.234375 12.539062 20.714844 12.914062 20.238281 C 13.277344 19.753906 13.648438 19.273438 14 18.78125 C 14.359375 18.292969 14.710938 17.796875 15.058594 17.296875 C 15.40625 16.800781 15.757812 16.300781 16.09375 15.792969 C 16.117188 15.761719 16.113281 15.71875 16.089844 15.6875 C 16.058594 15.652344 16.003906 15.644531 15.96875 15.675781 C 15.5 16.066406 15.046875 16.46875 14.589844 16.871094 C 14.132812 17.269531 13.679688 17.671875 13.234375 18.082031 C 12.78125 18.488281 12.347656 18.910156 11.90625 19.324219 C 11.695312 19.527344 11.472656 19.722656 11.246094 19.917969 C 11.210938 19.882812 11.175781 19.847656 11.136719 19.816406 C 10.886719 19.605469 10.625 19.40625 10.351562 19.222656 C 10.078125 19.039062 9.792969 18.863281 9.488281 18.710938 C 9.191406 18.550781 8.871094 18.414062 8.519531 18.304688 C 8.503906 18.300781 8.484375 18.300781 8.464844 18.304688 C 8.414062 18.320312 8.382812 18.375 8.398438 18.429688 C 8.503906 18.78125 8.644531 19.101562 8.800781 19.402344 C 8.953125 19.710938 9.128906 19.996094 9.3125 20.269531 " fill-opacity="1" fill-rule="nonzero"/><path fill="#231815" d="M 15.96875 25.652344 C 15.5 26.042969 15.046875 26.445312 14.589844 26.847656 C 14.132812 27.246094 13.679688 27.648438 13.234375 28.058594 C 12.78125 28.460938 12.347656 28.882812 11.90625 29.296875 C 11.695312 29.503906 11.472656 29.699219 11.246094 29.894531 C 11.210938 29.859375 11.175781 29.824219 11.136719 29.789062 C 10.886719 29.582031 10.625 29.382812 10.351562 29.199219 C 10.078125 29.015625 9.792969 28.839844 9.488281 28.6875 C 9.191406 28.527344 8.871094 28.386719 8.519531 28.28125 C 8.503906 28.273438 8.484375 28.273438 8.464844 28.28125 C 8.414062 28.296875 8.382812 28.351562 8.398438 28.402344 C 8.503906 28.757812 8.644531 29.078125 8.800781 29.378906 C 8.953125 29.683594 9.128906 29.96875 9.3125 30.246094 C 9.492188 30.523438 9.691406 30.785156 9.898438 31.035156 C 10.105469 31.289062 10.335938 31.515625 10.578125 31.730469 L 10.6875 31.824219 L 10.730469 31.863281 C 11.085938 32.128906 11.589844 32.054688 11.855469 31.699219 C 12.214844 31.210938 12.539062 30.691406 12.914062 30.214844 C 13.277344 29.726562 13.648438 29.25 14 28.753906 C 14.359375 28.265625 14.710938 27.769531 15.058594 27.269531 C 15.40625 26.773438 15.757812 26.277344 16.09375 25.769531 C 16.117188 25.738281 16.113281 25.695312 16.089844 25.664062 C 16.058594 25.625 16.003906 25.621094 15.96875 25.652344 " fill-opacity="1" fill-rule="nonzero"/><path fill="#231815" d="M 15.96875 35.625 C 15.5 36.015625 15.046875 36.417969 14.589844 36.820312 C 14.132812 37.21875 13.679688 37.625 13.234375 38.035156 C 12.78125 38.4375 12.347656 38.859375 11.90625 39.273438 C 11.695312 39.480469 11.472656 39.675781 11.246094 39.867188 C 11.210938 39.835938 11.175781 39.796875 11.136719 39.765625 C 10.886719 39.558594 10.625 39.359375 10.351562 39.175781 C 10.078125 38.988281 9.792969 38.816406 9.488281 38.660156 C 9.191406 38.503906 8.871094 38.363281 8.519531 38.253906 C 8.503906 38.25 8.484375 38.25 8.464844 38.253906 C 8.414062 38.269531 8.382812 38.324219 8.398438 38.378906 C 8.503906 38.730469 8.644531 39.050781 8.800781 39.355469 C 8.953125 39.660156 9.128906 39.945312 9.3125 40.222656 C 9.492188 40.496094 9.691406 40.757812 9.898438 41.011719 C 10.105469 41.265625 10.335938 41.492188 10.578125 41.707031 L 10.6875 41.800781 L 10.730469 41.835938 C 11.085938 42.105469 11.589844 42.03125 11.855469 41.671875 C 12.214844 41.1875 12.539062 40.664062 12.914062 40.1875 C 13.277344 39.703125 13.648438 39.226562 14 38.730469 C 14.359375 38.242188 14.710938 37.746094 15.058594 37.246094 C 15.40625 36.75 15.757812 36.253906 16.09375 35.742188 C 16.117188 35.710938 16.113281 35.667969 16.089844 35.636719 C 16.058594 35.601562 16.003906 35.597656 15.96875 35.625 " fill-opacity="1" fill-rule="nonzero"/><path fill="#231815" d="M 30.777344 40.03125 L 21.152344 40.03125 C 20.644531 40.03125 20.234375 39.617188 20.234375 39.109375 C 20.234375 38.601562 20.644531 38.1875 21.152344 38.1875 L 30.777344 38.1875 C 31.28125 38.1875 31.691406 38.601562 31.691406 39.109375 C 31.691406 39.617188 31.28125 40.03125 30.777344 40.03125 " fill-opacity="1" fill-rule="nonzero"/></svg>