<svg width="32" height="40" viewBox="0 0 32 40" fill="none" xmlns="http://www.w3.org/2000/svg">
<g clip-path="url(#clip0_490_1241)">
<mask id="mask0_490_1241" style="mask-type:luminance" maskUnits="userSpaceOnUse" x="0" y="0" width="32" height="40">
<path d="M0.118164 0H31.8821V39.7037H0.118164V0Z" fill="white"/>
</mask>
<g mask="url(#mask0_490_1241)">
<path d="M28.0464 -0.0671387H3.81955C1.77789 -0.0671387 0.118164 1.59258 0.118164 3.63425V35.9375C0.118164 37.9792 1.77789 39.6389 3.81955 39.6389H28.0464C30.0881 39.6389 31.7478 37.9792 31.7478 35.9375V3.63425C31.7478 1.59258 30.0881 -0.0671387 28.0464 -0.0671387ZM16.9052 5.38888C17.4214 5.18749 18.0094 5.43286 18.2154 5.95138L19.97 10.338L21.7246 5.95138C21.933 5.43286 22.5209 5.18749 23.0371 5.38888C23.5557 5.5949 23.8057 6.18286 23.5996 6.70138L20.9075 13.4305C20.7547 13.8148 20.3844 14.0648 19.97 14.0648C19.558 14.0648 19.1876 13.8148 19.0325 13.4305L16.3427 6.70138C16.1344 6.18286 16.3867 5.5949 16.9052 5.38888ZM11.7038 5.31712C12.6946 5.31712 13.639 5.73379 14.3612 6.49073C14.7455 6.89351 14.7293 7.5324 14.3265 7.91666C13.9237 8.30323 13.2848 8.28703 12.9006 7.88425C12.6598 7.63425 12.2594 7.33564 11.7038 7.33564C10.6691 7.33564 9.82881 8.3912 9.82881 9.68981C9.82881 10.9884 10.6691 12.0463 11.7038 12.0463C12.139 12.0463 12.5649 11.8518 12.9006 11.4977C13.2848 11.0949 13.926 11.0787 14.3288 11.463C14.7316 11.8472 14.7478 12.4861 14.3635 12.8912C13.6413 13.6481 12.6969 14.0648 11.7038 14.0648C9.55798 14.0648 7.81029 12.1018 7.81029 9.68981C7.81029 7.28008 9.55798 5.31712 11.7038 5.31712ZM15.933 34.2546H6.51168C5.95381 34.2546 5.50242 33.8032 5.50242 33.2454C5.50242 32.6875 5.95381 32.2361 6.51168 32.2361H15.933C16.4908 32.2361 16.9422 32.6875 16.9422 33.2454C16.9422 33.8032 16.4908 34.2546 15.933 34.2546ZM25.3543 27.5255H6.51168C5.95381 27.5255 5.50242 27.0718 5.50242 26.5162C5.50242 25.9583 5.95381 25.5069 6.51168 25.5069H25.3543C25.9121 25.5069 26.3635 25.9583 26.3635 26.5162C26.3635 27.0718 25.9121 27.5255 25.3543 27.5255ZM25.3543 20.794H6.51168C5.95381 20.794 5.50242 20.3426 5.50242 19.7847C5.50242 19.2292 5.95381 18.7755 6.51168 18.7755H25.3543C25.9121 18.7755 26.3635 19.2292 26.3635 19.7847C26.3635 20.3426 25.9121 20.794 25.3543 20.794Z" fill="#FE6601"/>
</g>
</g>
<defs>
<clipPath id="clip0_490_1241">
<rect width="32" height="40" fill="white"/>
</clipPath>
</defs>
</svg>
