<svg xmlns="http://www.w3.org/2000/svg" xmlns:xlink="http://www.w3.org/1999/xlink" width="72" zoomAndPan="magnify" viewBox="0 0 54 67.499998" height="90" preserveAspectRatio="xMidYMid meet" version="1.0"><defs><clipPath id="c1381f0783"><path d="M 0.199219 0 L 53.800781 0 L 53.800781 67 L 0.199219 67 Z M 0.199219 0 " clip-rule="nonzero"/></clipPath></defs><g clip-path="url(#c1381f0783)"><path fill="#000000" d="M 47.328125 -0.113281 L 6.445312 -0.113281 C 3 -0.113281 0.199219 2.6875 0.199219 6.132812 L 0.199219 60.644531 C 0.199219 64.089844 3 66.890625 6.445312 66.890625 L 47.328125 66.890625 C 50.773438 66.890625 53.574219 64.089844 53.574219 60.644531 L 53.574219 6.132812 C 53.574219 2.6875 50.773438 -0.113281 47.328125 -0.113281 Z M 28.527344 9.09375 C 29.398438 8.753906 30.390625 9.167969 30.738281 10.042969 L 33.699219 17.445312 L 36.660156 10.042969 C 37.011719 9.167969 38.003906 8.753906 38.875 9.09375 C 39.75 9.441406 40.171875 10.433594 39.824219 11.308594 L 35.28125 22.664062 C 35.023438 23.3125 34.398438 23.734375 33.699219 23.734375 C 33.003906 23.734375 32.378906 23.3125 32.117188 22.664062 L 27.578125 11.308594 C 27.226562 10.433594 27.652344 9.441406 28.527344 9.09375 Z M 19.75 8.972656 C 21.421875 8.972656 23.015625 9.675781 24.234375 10.953125 C 24.882812 11.632812 24.855469 12.710938 24.175781 13.359375 C 23.496094 14.011719 22.417969 13.984375 21.769531 13.304688 C 21.363281 12.882812 20.6875 12.378906 19.75 12.378906 C 18.003906 12.378906 16.585938 14.160156 16.585938 16.351562 C 16.585938 18.542969 18.003906 20.328125 19.75 20.328125 C 20.484375 20.328125 21.203125 20 21.769531 19.402344 C 22.417969 18.722656 23.5 18.695312 24.179688 19.34375 C 24.859375 19.992188 24.886719 21.070312 24.238281 21.753906 C 23.019531 23.03125 21.425781 23.734375 19.75 23.734375 C 16.128906 23.734375 13.179688 20.421875 13.179688 16.351562 C 13.179688 12.285156 16.128906 8.972656 19.75 8.972656 Z M 26.886719 57.804688 L 10.988281 57.804688 C 10.046875 57.804688 9.285156 57.042969 9.285156 56.101562 C 9.285156 55.160156 10.046875 54.398438 10.988281 54.398438 L 26.886719 54.398438 C 27.828125 54.398438 28.589844 55.160156 28.589844 56.101562 C 28.589844 57.042969 27.828125 57.804688 26.886719 57.804688 Z M 42.785156 46.449219 L 10.988281 46.449219 C 10.046875 46.449219 9.285156 45.683594 9.285156 44.746094 C 9.285156 43.804688 10.046875 43.042969 10.988281 43.042969 L 42.785156 43.042969 C 43.726562 43.042969 44.488281 43.804688 44.488281 44.746094 C 44.488281 45.683594 43.726562 46.449219 42.785156 46.449219 Z M 42.785156 35.089844 L 10.988281 35.089844 C 10.046875 35.089844 9.285156 34.328125 9.285156 33.386719 C 9.285156 32.449219 10.046875 31.683594 10.988281 31.683594 L 42.785156 31.683594 C 43.726562 31.683594 44.488281 32.449219 44.488281 33.386719 C 44.488281 34.328125 43.726562 35.089844 42.785156 35.089844 Z M 42.785156 35.089844 " fill-opacity="1" fill-rule="nonzero"/></g></svg>