<svg xmlns="http://www.w3.org/2000/svg" xmlns:xlink="http://www.w3.org/1999/xlink" width="59" zoomAndPan="magnify" viewBox="0 0 44.25 41.25" height="55" preserveAspectRatio="xMidYMid meet" version="1.0"><defs><clipPath id="bc5c75efdc"><path d="M 0.0273438 0 L 43.488281 0 L 43.488281 33 L 0.0273438 33 Z M 0.0273438 0 " clip-rule="nonzero"/></clipPath><clipPath id="cc49197131"><path d="M 0.0273438 24 L 43.488281 24 L 43.488281 26 L 0.0273438 26 Z M 0.0273438 24 " clip-rule="nonzero"/></clipPath><clipPath id="f4da004d12"><path d="M 8 36 L 35 36 L 35 40.511719 L 8 40.511719 Z M 8 36 " clip-rule="nonzero"/></clipPath></defs><path fill="#000000" d="M 21.140625 19.402344 C 21.082031 19.402344 21.023438 19.390625 20.96875 19.371094 C 20.714844 19.277344 20.582031 18.996094 20.679688 18.742188 L 25.316406 6.28125 C 25.410156 6.027344 25.695312 5.898438 25.949219 5.992188 C 26.203125 6.085938 26.332031 6.371094 26.238281 6.625 L 21.601562 19.082031 C 21.527344 19.277344 21.339844 19.402344 21.140625 19.402344 Z M 21.140625 19.402344 " fill-opacity="1" fill-rule="nonzero"/><path fill="#000000" d="M 10.105469 17.078125 C 8.503906 17.078125 7.203125 15.847656 7.203125 14.335938 L 7.203125 8.832031 C 7.203125 8.5625 7.421875 8.34375 7.695312 8.34375 C 7.964844 8.34375 8.1875 8.5625 8.1875 8.832031 L 8.1875 14.335938 C 8.1875 15.308594 9.046875 16.097656 10.105469 16.097656 C 11.167969 16.097656 12.027344 15.308594 12.027344 14.335938 L 12.027344 8.832031 C 12.027344 8.5625 12.25 8.34375 12.519531 8.34375 C 12.792969 8.34375 13.011719 8.5625 13.011719 8.832031 L 13.011719 14.335938 C 13.011719 15.847656 11.707031 17.078125 10.105469 17.078125 Z M 10.105469 17.078125 " fill-opacity="1" fill-rule="nonzero"/><path fill="#000000" d="M 14.851562 17.078125 C 14.773438 17.078125 14.691406 17.058594 14.617188 17.019531 C 14.378906 16.890625 14.289062 16.59375 14.417969 16.355469 L 18.644531 8.546875 C 18.773438 8.308594 19.070312 8.21875 19.308594 8.347656 C 19.550781 8.472656 19.640625 8.769531 19.511719 9.007812 L 15.285156 16.820312 C 15.195312 16.984375 15.027344 17.078125 14.851562 17.078125 Z M 14.851562 17.078125 " fill-opacity="1" fill-rule="nonzero"/><path fill="#000000" d="M 19.078125 17.078125 C 18.902344 17.078125 18.734375 16.984375 18.644531 16.820312 L 14.417969 9.007812 C 14.289062 8.769531 14.378906 8.472656 14.617188 8.347656 C 14.855469 8.21875 15.15625 8.308594 15.285156 8.546875 L 19.511719 16.355469 C 19.640625 16.59375 19.550781 16.890625 19.308594 17.019531 C 19.238281 17.058594 19.15625 17.078125 19.078125 17.078125 Z M 19.078125 17.078125 " fill-opacity="1" fill-rule="nonzero"/><path fill="#000000" d="M 30.253906 17.078125 C 28.652344 17.078125 27.347656 15.847656 27.347656 14.335938 L 27.347656 8.832031 C 27.347656 8.5625 27.570312 8.34375 27.839844 8.34375 C 28.113281 8.34375 28.332031 8.5625 28.332031 8.832031 L 28.332031 14.335938 C 28.332031 15.308594 29.191406 16.097656 30.253906 16.097656 C 31.3125 16.097656 32.175781 15.308594 32.175781 14.335938 L 32.175781 8.832031 C 32.175781 8.5625 32.394531 8.34375 32.664062 8.34375 C 32.9375 8.34375 33.15625 8.5625 33.15625 8.832031 L 33.15625 14.335938 C 33.15625 15.847656 31.855469 17.078125 30.253906 17.078125 Z M 30.253906 17.078125 " fill-opacity="1" fill-rule="nonzero"/><path fill="#000000" d="M 35.808594 17.609375 C 35.539062 17.609375 35.320312 17.390625 35.320312 17.117188 L 35.316406 8.246094 C 35.316406 7.976562 35.535156 7.757812 35.808594 7.757812 C 36.078125 7.757812 36.300781 7.976562 36.300781 8.246094 L 36.300781 17.117188 C 36.304688 17.390625 36.082031 17.605469 35.808594 17.609375 C 35.8125 17.609375 35.808594 17.609375 35.808594 17.609375 Z M 35.808594 17.609375 " fill-opacity="1" fill-rule="nonzero"/><path fill="#000000" d="M 17.011719 30.0625 C 16.113281 30.0625 15.382812 29.335938 15.382812 28.441406 C 15.382812 27.550781 16.113281 26.824219 17.011719 26.824219 C 17.90625 26.824219 18.636719 27.550781 18.636719 28.441406 C 18.636719 29.335938 17.90625 30.0625 17.011719 30.0625 Z M 17.011719 27.800781 C 16.65625 27.800781 16.367188 28.089844 16.367188 28.441406 C 16.367188 28.796875 16.65625 29.082031 17.011719 29.082031 C 17.367188 29.082031 17.652344 28.796875 17.652344 28.441406 C 17.652344 28.089844 17.367188 27.800781 17.011719 27.800781 Z M 17.011719 27.800781 " fill-opacity="1" fill-rule="nonzero"/><path fill="#000000" d="M 21.753906 30.0625 C 20.855469 30.0625 20.125 29.335938 20.125 28.441406 C 20.125 27.550781 20.855469 26.824219 21.753906 26.824219 C 22.648438 26.824219 23.378906 27.550781 23.378906 28.441406 C 23.378906 29.335938 22.648438 30.0625 21.753906 30.0625 Z M 21.753906 27.800781 C 21.398438 27.800781 21.109375 28.089844 21.109375 28.441406 C 21.109375 28.796875 21.398438 29.082031 21.753906 29.082031 C 22.109375 29.082031 22.394531 28.796875 22.394531 28.441406 C 22.394531 28.089844 22.109375 27.800781 21.753906 27.800781 Z M 21.753906 27.800781 " fill-opacity="1" fill-rule="nonzero"/><path fill="#000000" d="M 26.496094 30.0625 C 25.597656 30.0625 24.867188 29.335938 24.867188 28.441406 C 24.867188 27.550781 25.597656 26.824219 26.496094 26.824219 C 27.390625 26.824219 28.121094 27.550781 28.121094 28.441406 C 28.121094 29.335938 27.390625 30.0625 26.496094 30.0625 Z M 26.496094 27.800781 C 26.140625 27.800781 25.851562 28.089844 25.851562 28.441406 C 25.851562 28.796875 26.140625 29.082031 26.496094 29.082031 C 26.851562 29.082031 27.136719 28.796875 27.136719 28.441406 C 27.136719 28.089844 26.851562 27.800781 26.496094 27.800781 Z M 26.496094 27.800781 " fill-opacity="1" fill-rule="nonzero"/><g clip-path="url(#bc5c75efdc)"><path fill="#000000" d="M 40.429688 32.511719 L 3.074219 32.511719 C 1.390625 32.511719 0.0234375 31.148438 0.0234375 29.472656 L 0.0234375 3.050781 C 0.0234375 1.378906 1.390625 0.0117188 3.074219 0.0117188 L 40.429688 0.0117188 C 42.113281 0.0117188 43.484375 1.375 43.484375 3.050781 L 43.484375 29.472656 C 43.484375 31.148438 42.113281 32.511719 40.429688 32.511719 Z M 3.074219 0.992188 C 1.933594 0.992188 1.007812 1.917969 1.007812 3.050781 L 1.007812 29.472656 C 1.007812 30.609375 1.933594 31.53125 3.074219 31.53125 L 40.429688 31.53125 C 41.570312 31.53125 42.5 30.609375 42.5 29.472656 L 42.5 3.050781 C 42.5 1.917969 41.570312 0.992188 40.429688 0.992188 Z M 3.074219 0.992188 " fill-opacity="1" fill-rule="nonzero"/></g><g clip-path="url(#cc49197131)"><path fill="#000000" d="M 42.992188 25.351562 L 0.515625 25.351562 C 0.242188 25.351562 0.0234375 25.132812 0.0234375 24.859375 C 0.0234375 24.589844 0.242188 24.371094 0.515625 24.371094 L 42.992188 24.371094 C 43.261719 24.371094 43.484375 24.589844 43.484375 24.859375 C 43.484375 25.132812 43.261719 25.351562 42.992188 25.351562 Z M 42.992188 25.351562 " fill-opacity="1" fill-rule="nonzero"/></g><path fill="#000000" d="M 29.609375 37.03125 C 29.335938 37.03125 29.117188 36.8125 29.117188 36.542969 L 29.117188 32.023438 C 29.117188 31.753906 29.335938 31.53125 29.609375 31.53125 C 29.878906 31.53125 30.097656 31.753906 30.097656 32.023438 L 30.097656 36.542969 C 30.097656 36.8125 29.878906 37.03125 29.609375 37.03125 Z M 14.128906 37.03125 C 13.859375 37.03125 13.640625 36.8125 13.640625 36.542969 L 13.640625 32.023438 C 13.640625 31.753906 13.859375 31.53125 14.128906 31.53125 C 14.402344 31.53125 14.621094 31.753906 14.621094 32.023438 L 14.621094 36.542969 C 14.621094 36.8125 14.402344 37.03125 14.128906 37.03125 Z M 14.128906 37.03125 " fill-opacity="1" fill-rule="nonzero"/><g clip-path="url(#f4da004d12)"><path fill="#000000" d="M 32.285156 40.507812 L 11.222656 40.507812 C 9.988281 40.507812 8.984375 39.507812 8.984375 38.28125 C 8.984375 37.050781 9.988281 36.054688 11.222656 36.054688 L 32.285156 36.054688 C 33.519531 36.054688 34.519531 37.054688 34.519531 38.28125 C 34.523438 39.507812 33.519531 40.507812 32.285156 40.507812 Z M 11.222656 37.03125 C 10.53125 37.03125 9.96875 37.589844 9.96875 38.28125 C 9.96875 38.96875 10.53125 39.527344 11.222656 39.527344 L 32.285156 39.527344 C 32.976562 39.527344 33.539062 38.96875 33.539062 38.28125 C 33.539062 37.589844 32.976562 37.03125 32.285156 37.03125 Z M 11.222656 37.03125 " fill-opacity="1" fill-rule="nonzero"/></g></svg>