<svg xmlns="http://www.w3.org/2000/svg" xmlns:xlink="http://www.w3.org/1999/xlink" width="87" zoomAndPan="magnify" viewBox="0 0 65.25 67.499996" height="90" preserveAspectRatio="xMidYMid meet" version="1.0"><defs><clipPath id="d2af98dbbd"><path d="M 0 1 L 63.765625 1 L 63.765625 66 L 0 66 Z M 0 1 " clip-rule="nonzero"/></clipPath></defs><g clip-path="url(#d2af98dbbd)"><path fill="#000000" d="M 31.882812 1.46875 C 14.273438 1.46875 0 15.8125 0 33.503906 C 0 51.195312 14.273438 65.539062 31.882812 65.539062 C 49.492188 65.539062 63.765625 51.195312 63.765625 33.503906 C 63.765625 15.8125 49.492188 1.46875 31.882812 1.46875 Z M 5.3125 33.503906 C 5.3125 18.757812 17.210938 6.808594 31.882812 6.808594 C 46.558594 6.808594 58.453125 18.757812 58.453125 33.503906 C 58.453125 45.515625 50.554688 55.675781 39.691406 59.027344 C 39.988281 53.632812 39.886719 50.289062 39.382812 49 C 38.855469 47.640625 38.425781 47.082031 38.167969 46.75 C 38 46.53125 37.902344 46.40625 37.902344 46.214844 C 37.902344 45.894531 38.128906 45.664062 38.578125 45.519531 C 42.492188 44.652344 45.117188 42.234375 46.453125 38.269531 C 48.300781 32.773438 45.660156 28.78125 44.59375 27.164062 C 44.503906 27.03125 44.425781 26.914062 44.363281 26.8125 C 43.53125 25.492188 44.621094 22.285156 45.921875 19.71875 C 41.5 18.828125 39.8125 20.890625 38.84375 22.074219 C 38.449219 22.558594 38.171875 22.894531 37.878906 22.824219 C 37.617188 22.761719 37.339844 22.636719 37 22.488281 C 36.035156 22.0625 34.613281 21.433594 31.882812 21.433594 C 28.5 21.433594 26.257812 22.621094 25.914062 22.800781 C 25.886719 22.816406 25.871094 22.824219 25.871094 22.824219 C 24.089844 20.332031 21.566406 19.296875 18.292969 19.71875 C 19.195312 23.339844 19.261719 25.703125 18.496094 26.8125 C 17.347656 28.476562 15.195312 32.347656 16.867188 38.269531 C 18.539062 44.191406 24.625 45.519531 25.78125 45.519531 L 25.789062 45.523438 C 25.882812 45.542969 26.734375 45.726562 26.480469 46.449219 C 26.429688 46.644531 26.394531 46.90625 26.355469 47.199219 C 26.238281 48.148438 26.074219 49.4375 25.167969 49.855469 C 23.980469 50.40625 21.363281 50.703125 20.265625 50.019531 C 19.902344 49.789062 19.640625 49.3125 19.324219 48.738281 C 18.691406 47.585938 17.847656 46.042969 15.53125 45.324219 C 12.058594 44.246094 12.277344 45.671875 13.144531 46.019531 C 13.335938 46.097656 13.585938 46.167969 13.875 46.25 C 14.898438 46.542969 16.367188 46.960938 17.121094 48.179688 C 17.34375 48.535156 17.570312 48.925781 17.804688 49.328125 C 18.585938 50.675781 19.425781 52.125 20.265625 52.679688 C 20.992188 53.15625 22.730469 53.351562 25.484375 53.253906 C 25.363281 55.863281 25.300781 57.902344 25.292969 59.371094 C 13.808594 56.425781 5.3125 45.960938 5.3125 33.503906 Z M 5.3125 33.503906 " fill-opacity="0.85" fill-rule="evenodd"/></g></svg>