<svg width="39" height="40" viewBox="0 0 39 40" fill="none" xmlns="http://www.w3.org/2000/svg">
<g clip-path="url(#clip0_490_1254)">
<mask id="mask0_490_1254" style="mask-type:luminance" maskUnits="userSpaceOnUse" x="0" y="0" width="38" height="40">
<path d="M0 0.592651H37.787V39.1112H0V0.592651Z" fill="white"/>
</mask>
<g mask="url(#mask0_490_1254)">
<path fill-rule="evenodd" clip-rule="evenodd" d="M18.8935 0.870483C8.45833 0.870483 0 9.37048 0 19.8543C0 30.3381 8.45833 38.8381 18.8935 38.8381C29.3287 38.8381 37.787 30.3381 37.787 19.8543C37.787 9.37048 29.3287 0.870483 18.8935 0.870483ZM3.14815 19.8543C3.14815 11.1159 10.1991 4.03484 18.8935 4.03484C27.5903 4.03484 34.6389 11.1159 34.6389 19.8543C34.6389 26.9723 29.9583 32.9932 23.5208 34.9793C23.6968 31.7825 23.6366 29.801 23.338 29.0371C23.0255 28.2316 22.7708 27.9006 22.6181 27.7038C22.5185 27.5742 22.4607 27.5001 22.4607 27.3867C22.4607 27.1969 22.5949 27.0603 22.8611 26.9746C25.1806 26.4608 26.7361 25.0279 27.5278 22.6784C28.6227 19.4214 27.0579 17.0557 26.4259 16.0973C26.3727 16.0186 26.3264 15.9492 26.2894 15.889C25.7963 15.1066 26.4421 13.2061 27.213 11.6853C24.5926 11.1575 23.5926 12.3797 23.0185 13.0811C22.7847 13.3682 22.6204 13.5672 22.4468 13.5256C22.2917 13.4885 22.1273 13.4145 21.9259 13.3265C21.3542 13.0742 20.5116 12.7015 18.8935 12.7015C16.8889 12.7015 15.5602 13.4052 15.3565 13.5117C15.3403 13.5209 15.331 13.5256 15.331 13.5256C14.2755 12.0487 12.7801 11.4353 10.8403 11.6853C11.375 13.8311 11.4144 15.2316 10.9606 15.889C10.2801 16.8751 9.00463 19.1691 9.99537 22.6784C10.9861 26.1876 14.5926 26.9746 15.2778 26.9746L15.2824 26.977C15.338 26.9885 15.8426 27.0973 15.6921 27.5256C15.662 27.6413 15.6412 27.7964 15.6181 27.97C15.5486 28.5325 15.4514 29.2964 14.9144 29.5441C14.2106 29.8705 12.6597 30.0464 12.0093 29.6413C11.794 29.5047 11.6389 29.2223 11.4514 28.8821C11.0764 28.1992 10.5764 27.2848 9.2037 26.8589C7.14583 26.22 7.27546 27.0649 7.78935 27.2709C7.90278 27.3172 8.05093 27.3589 8.22222 27.4075C8.8287 27.5811 9.69908 27.8288 10.1458 28.551C10.2778 28.7617 10.412 28.9932 10.5509 29.2316C11.0139 30.0302 11.5116 30.889 12.0093 31.2177C12.4398 31.5001 13.4699 31.6159 15.1019 31.558C15.0301 33.1043 14.9931 34.3126 14.9884 35.183C8.18287 33.4376 3.14815 27.2362 3.14815 19.8543Z" fill="#FE6601"/>
</g>
</g>
<defs>
<clipPath id="clip0_490_1254">
<rect width="38.6667" height="40" fill="white"/>
</clipPath>
</defs>
</svg>
