<svg width="40" height="40" viewBox="0 0 40 40" fill="none" xmlns="http://www.w3.org/2000/svg">
<g clip-path="url(#clip0_490_1247)">
<path d="M39.5413 33.5278C39.5413 36.8472 36.8492 39.537 33.532 39.537H6.0089C2.69177 39.537 0.00195312 36.8472 0.00195312 33.5278V6.00694C0.00195312 2.6875 2.69177 -0.00231934 6.0089 -0.00231934H33.532C36.8492 -0.00231934 39.5413 2.6875 39.5413 6.00694V33.5278Z" fill="#FE6601"/>
<path d="M15.6369 14.1042C15.6369 14.2987 15.6184 14.4908 15.579 14.6806C15.542 14.8704 15.4864 15.0556 15.4124 15.2338C15.3383 15.4144 15.2457 15.5834 15.1392 15.7454C15.0304 15.9051 14.9077 16.0556 14.7712 16.1922C14.6346 16.3288 14.4841 16.4514 14.3244 16.5602C14.1624 16.6667 13.9911 16.7593 13.8128 16.8334C13.6346 16.9075 13.4494 16.963 13.2596 17.0001C13.0698 17.0394 12.8776 17.0579 12.6832 17.0579C12.4888 17.0579 12.2966 17.0394 12.1068 17.0001C11.917 16.963 11.7318 16.9075 11.5513 16.8334C11.373 16.7593 11.204 16.6667 11.042 16.5602C10.88 16.4514 10.7318 16.3288 10.5952 16.1922C10.4563 16.0556 10.3337 15.9051 10.2272 15.7454C10.1184 15.5834 10.0281 15.4144 9.95403 15.2338C9.87996 15.0556 9.8244 14.8704 9.78505 14.6806C9.74801 14.4908 9.72949 14.2987 9.72949 14.1042C9.72949 13.9098 9.74801 13.7176 9.78505 13.5278C9.8244 13.338 9.87996 13.1528 9.95403 12.9746C10.0281 12.794 10.1184 12.6251 10.2272 12.463C10.3337 12.301 10.4563 12.1528 10.5952 12.0163C10.7318 11.8774 10.88 11.757 11.042 11.6482C11.204 11.5394 11.373 11.4491 11.5513 11.375C11.7318 11.301 11.917 11.2454 12.1068 11.2061C12.2966 11.169 12.4888 11.1505 12.6832 11.1505C12.8776 11.1505 13.0698 11.169 13.2596 11.2061C13.4494 11.2454 13.6346 11.301 13.8128 11.375C13.9911 11.4491 14.1624 11.5394 14.3244 11.6482C14.4841 11.757 14.6346 11.8774 14.7712 12.0163C14.9077 12.1528 15.0304 12.301 15.1392 12.463C15.2457 12.6251 15.3383 12.794 15.4124 12.9746C15.4864 13.1528 15.542 13.338 15.579 13.5278C15.6184 13.7176 15.6369 13.9098 15.6369 14.1042Z" fill="white"/>
<path d="M10.1367 19.2361H15.2108V35.5602H10.1367V19.2361Z" fill="white"/>
<path d="M18.4023 19.2361H23.231V35.5602H18.4023V19.2361Z" fill="white"/>
<path d="M18.6113 27.9259H23.44V35.5602H18.6113V27.9259Z" fill="white"/>
<path d="M23.4403 27.9259C23.4403 27.9259 23.3662 25.8102 23.9241 24.7083C23.9241 24.7083 24.482 23.3518 26.2366 23.3449C26.2366 23.3449 28.2968 22.9861 28.8871 25.0278C28.8871 25.0278 29.1093 26.1597 29.1093 26.6389C29.1093 27.1181 29.1255 35.5602 29.1255 35.5602H34.1834V26.2083C34.1834 26.2083 34.5514 20.9259 31.3801 19.4792C31.3801 19.4792 26.1672 17.1389 23.3384 21.4375C23.3384 21.4375 22.7204 21.8634 22.6371 20.6713C22.5514 19.4792 21.8269 22.5 21.806 22.5648C21.7852 22.6296 22.6371 28.5856 22.6371 28.5856L23.4403 27.9259Z" fill="white"/>
</g>
<defs>
<clipPath id="clip0_490_1247">
<rect width="40" height="40" fill="white"/>
</clipPath>
</defs>
</svg>
