<svg xmlns="http://www.w3.org/2000/svg" xmlns:xlink="http://www.w3.org/1999/xlink" width="88" zoomAndPan="magnify" viewBox="0 0 66 66" height="88" preserveAspectRatio="xMidYMid meet" version="1.0"><defs><clipPath id="68b1a6a7c3"><path d="M 0 0 L 65.25 0 L 65.25 65.25 L 0 65.25 Z M 0 0 " clip-rule="nonzero"/></clipPath></defs><g clip-path="url(#68b1a6a7c3)"><path fill="#000000" d="M 45.5 2.484375 C 49.449219 4.117188 52.929688 6.464844 55.859375 9.390625 C 58.785156 12.320312 61.132812 15.800781 62.765625 19.75 C 64.367188 23.675781 65.25 28.011719 65.25 32.625 C 65.25 37.238281 64.367188 41.574219 62.765625 45.5 C 61.132812 49.449219 58.785156 52.929688 55.859375 55.859375 C 52.929688 58.785156 49.449219 61.132812 45.5 62.765625 C 41.574219 64.367188 37.238281 65.25 32.625 65.25 C 28.011719 65.25 23.675781 64.367188 19.75 62.765625 C 15.800781 61.132812 12.320312 58.785156 9.390625 55.859375 C 6.464844 52.929688 4.117188 49.449219 2.484375 45.5 C 0.882812 41.574219 0 37.238281 0 32.625 C 0 28.011719 0.882812 23.675781 2.484375 19.75 C 4.117188 15.800781 6.464844 12.320312 9.390625 9.390625 C 12.320312 6.464844 15.800781 4.117188 19.75 2.484375 C 23.675781 0.882812 28.011719 0 32.625 0 C 37.238281 0 41.574219 0.882812 45.5 2.484375 Z M 44.726562 60.800781 C 48.371094 59.3125 51.660156 57.101562 54.394531 54.394531 C 57.101562 51.660156 59.3125 48.371094 60.800781 44.726562 C 62.320312 41.023438 63.152344 36.960938 63.152344 32.625 C 63.152344 28.289062 62.320312 24.226562 60.800781 20.523438 C 59.3125 16.878906 57.101562 13.589844 54.394531 10.855469 C 51.660156 8.148438 48.371094 5.9375 44.726562 4.449219 C 41.023438 2.929688 36.960938 2.097656 32.625 2.097656 C 28.289062 2.097656 24.226562 2.929688 20.523438 4.449219 C 16.878906 5.9375 13.589844 8.148438 10.855469 10.855469 C 8.148438 13.589844 5.9375 16.878906 4.449219 20.523438 C 2.929688 24.226562 2.097656 28.289062 2.097656 32.625 C 2.097656 36.960938 2.929688 41.023438 4.449219 44.726562 C 5.9375 48.371094 8.148438 51.660156 10.855469 54.394531 C 13.589844 57.101562 16.878906 59.3125 20.523438 60.800781 C 24.226562 62.320312 28.289062 63.152344 32.625 63.152344 C 36.960938 63.152344 41.023438 62.320312 44.726562 60.800781 Z M 44.726562 60.800781 " fill-opacity="1" fill-rule="evenodd"/></g><path fill="#000000" d="M 27.15625 19.421875 C 27.101562 19.421875 27.042969 19.449219 26.988281 19.476562 C 26.851562 19.53125 26.742188 19.613281 26.628906 19.695312 C 26.546875 19.808594 26.464844 19.917969 26.410156 20.054688 C 26.382812 20.109375 26.355469 20.167969 26.355469 20.222656 C 26.328125 20.277344 26.328125 20.304688 26.328125 20.359375 L 26.328125 21.4375 L 38.757812 21.4375 L 38.757812 20.359375 C 38.757812 20.304688 38.757812 20.277344 38.730469 20.222656 C 38.730469 20.167969 38.703125 20.109375 38.675781 20.054688 C 38.621094 19.945312 38.535156 19.808594 38.425781 19.722656 C 38.316406 19.613281 38.207031 19.53125 38.066406 19.476562 C 38.011719 19.449219 37.957031 19.421875 37.902344 19.421875 C 37.847656 19.394531 37.820312 19.394531 37.761719 19.394531 L 27.292969 19.394531 C 27.238281 19.394531 27.210938 19.394531 27.15625 19.421875 Z M 24.226562 20.359375 C 24.226562 20.136719 24.253906 19.945312 24.308594 19.75 C 24.335938 19.558594 24.421875 19.363281 24.503906 19.171875 C 24.640625 18.8125 24.890625 18.507812 25.167969 18.234375 C 25.441406 17.957031 25.746094 17.707031 26.105469 17.570312 C 26.300781 17.488281 26.492188 17.402344 26.6875 17.375 C 26.878906 17.320312 27.074219 17.292969 27.292969 17.292969 L 37.761719 17.292969 C 37.984375 17.292969 38.175781 17.320312 38.371094 17.375 C 38.5625 17.402344 38.757812 17.488281 38.949219 17.570312 C 39.308594 17.707031 39.613281 17.957031 39.890625 18.234375 C 40.195312 18.480469 40.414062 18.8125 40.582031 19.171875 C 40.664062 19.335938 40.746094 19.53125 40.773438 19.722656 C 40.828125 19.945312 40.855469 20.136719 40.855469 20.359375 L 40.855469 21.4375 L 48.480469 21.4375 C 50.082031 21.4375 51.714844 23.039062 51.714844 24.640625 L 51.714844 27.542969 L 34.945312 33.039062 C 34.835938 32.984375 34.722656 32.957031 34.640625 32.929688 C 34.53125 32.902344 34.394531 32.902344 34.28125 32.902344 L 30.800781 32.902344 C 30.691406 32.902344 30.554688 32.902344 30.441406 32.929688 C 30.359375 32.957031 30.25 32.984375 30.167969 33.011719 L 13.398438 27.542969 L 13.398438 24.640625 C 13.398438 23.039062 15 21.4375 16.601562 21.4375 L 24.226562 21.4375 Z M 30.773438 34.308594 L 34.308594 34.308594 C 34.335938 34.308594 34.367188 34.308594 34.394531 34.308594 C 34.421875 34.335938 34.476562 34.367188 34.503906 34.421875 C 34.558594 34.449219 34.585938 34.503906 34.613281 34.53125 C 34.613281 34.558594 34.613281 34.558594 34.613281 34.585938 L 34.640625 34.613281 L 34.640625 35.800781 L 34.613281 35.828125 C 34.613281 35.855469 34.613281 35.882812 34.613281 35.882812 C 34.585938 35.941406 34.558594 35.996094 34.503906 36.023438 C 34.476562 36.078125 34.421875 36.105469 34.367188 36.132812 C 34.367188 36.132812 34.335938 36.132812 34.308594 36.132812 L 34.28125 36.160156 L 30.800781 36.160156 L 30.773438 36.132812 C 30.746094 36.132812 30.71875 36.132812 30.71875 36.132812 C 30.664062 36.105469 30.609375 36.078125 30.582031 36.023438 C 30.527344 35.996094 30.496094 35.941406 30.46875 35.882812 C 30.46875 35.882812 30.46875 35.855469 30.46875 35.828125 L 30.46875 34.585938 C 30.46875 34.558594 30.46875 34.558594 30.46875 34.53125 C 30.496094 34.503906 30.527344 34.449219 30.582031 34.421875 C 30.609375 34.367188 30.664062 34.335938 30.691406 34.308594 C 30.71875 34.308594 30.746094 34.308594 30.773438 34.308594 Z M 35.996094 34.253906 C 35.996094 34.226562 35.96875 34.199219 35.96875 34.171875 L 51.714844 29.007812 L 51.714844 43.535156 C 51.714844 45.140625 50.082031 46.769531 48.480469 46.769531 L 16.601562 46.769531 C 15 46.769531 13.398438 45.140625 13.398438 43.535156 L 13.398438 29.007812 L 29.117188 34.171875 C 29.117188 34.199219 29.089844 34.226562 29.089844 34.253906 C 29.0625 34.367188 29.0625 34.503906 29.0625 34.613281 L 29.0625 35.800781 C 29.0625 35.914062 29.0625 36.050781 29.089844 36.160156 C 29.117188 36.269531 29.144531 36.382812 29.199219 36.492188 C 29.28125 36.6875 29.421875 36.851562 29.585938 37.015625 C 29.753906 37.183594 29.917969 37.320312 30.109375 37.402344 C 30.222656 37.460938 30.332031 37.488281 30.441406 37.515625 C 30.554688 37.542969 30.691406 37.570312 30.800781 37.570312 L 34.28125 37.570312 C 34.394531 37.570312 34.53125 37.542969 34.640625 37.515625 C 34.753906 37.488281 34.863281 37.460938 34.972656 37.402344 C 35.167969 37.320312 35.332031 37.183594 35.496094 37.015625 C 35.664062 36.851562 35.800781 36.6875 35.882812 36.492188 C 35.941406 36.382812 35.96875 36.269531 35.996094 36.160156 C 36.023438 36.050781 36.050781 35.914062 36.050781 35.800781 L 36.050781 34.613281 C 36.050781 34.503906 36.023438 34.367188 35.996094 34.253906 Z M 35.996094 34.253906 " fill-opacity="1" fill-rule="evenodd"/></svg>