<svg width="41" height="40" viewBox="0 0 41 40" fill="none" xmlns="http://www.w3.org/2000/svg">
<g clip-path="url(#clip0_490_1260)">
<mask id="mask0_490_1260" style="mask-type:luminance" maskUnits="userSpaceOnUse" x="0" y="0" width="41" height="40">
<path d="M0.666992 0H40.2124V39.5455H0.666992V0Z" fill="white"/>
</mask>
<g mask="url(#mask0_490_1260)">
<path fill-rule="evenodd" clip-rule="evenodd" d="M28.2428 1.50568C30.6362 2.49527 32.7456 3.91809 34.5212 5.69129C36.2944 7.46686 37.7172 9.57623 38.7068 11.9697C39.6774 14.349 40.2124 16.9768 40.2124 19.7727C40.2124 22.5687 39.6774 25.1965 38.7068 27.5758C37.7172 29.9692 36.2944 32.0786 34.5212 33.8542C32.7456 35.6274 30.6362 37.0502 28.2428 38.0398C25.8635 39.0104 23.2356 39.5455 20.4397 39.5455C17.6438 39.5455 15.016 39.0104 12.6367 38.0398C10.2432 37.0502 8.13385 35.6274 6.35828 33.8542C4.58508 32.0786 3.16226 29.9692 2.17267 27.5758C1.20203 25.1965 0.666992 22.5687 0.666992 19.7727C0.666992 16.9768 1.20203 14.349 2.17267 11.9697C3.16226 9.57623 4.58508 7.46686 6.35828 5.69129C8.13385 3.91809 10.2432 2.49527 12.6367 1.50568C15.016 0.535038 17.6438 0 20.4397 0C23.2356 0 25.8635 0.535038 28.2428 1.50568ZM27.774 36.849C29.9828 35.947 31.9762 34.607 33.6334 32.9664C35.274 31.3092 36.614 29.3158 37.516 27.107C38.4369 24.8627 38.9411 22.4006 38.9411 19.7727C38.9411 17.1449 38.4369 14.6828 37.516 12.4384C36.614 10.2296 35.274 8.23627 33.6334 6.57907C31.9762 4.93845 29.9828 3.59848 27.774 2.6965C25.5297 1.77557 23.0676 1.27131 20.4397 1.27131C17.8119 1.27131 15.3498 1.77557 13.1054 2.6965C10.8966 3.59848 8.90326 4.93845 7.24606 6.57907C5.60544 8.23627 4.26548 10.2296 3.36349 12.4384C2.44256 14.6828 1.9383 17.1449 1.9383 19.7727C1.9383 22.4006 2.44256 24.8627 3.36349 27.107C4.26548 29.3158 5.60544 31.3092 7.24606 32.9664C8.90326 34.607 10.8966 35.947 13.1054 36.849C15.3498 37.7699 17.8119 38.2741 20.4397 38.2741C23.0676 38.2741 25.5297 37.7699 27.774 36.849Z" fill="#FE6601"/>
</g>
<path fill-rule="evenodd" clip-rule="evenodd" d="M17.1252 11.7708C17.092 11.7708 17.0565 11.7874 17.0234 11.804C16.9405 11.8371 16.8742 11.8868 16.8056 11.9366C16.7559 12.0052 16.7061 12.0715 16.673 12.1544C16.6564 12.1875 16.6399 12.223 16.6399 12.2562C16.6233 12.2893 16.6233 12.3059 16.6233 12.339V12.9924H24.1564V12.339C24.1564 12.3059 24.1564 12.2893 24.1399 12.2562C24.1399 12.223 24.1233 12.1875 24.1067 12.1544C24.0736 12.0881 24.0215 12.0052 23.9552 11.9531C23.8889 11.8868 23.8226 11.8371 23.7374 11.804C23.7043 11.7874 23.6711 11.7708 23.638 11.7708C23.6048 11.7543 23.5882 11.7543 23.5527 11.7543H17.208C17.1749 11.7543 17.1583 11.7543 17.1252 11.7708ZM15.3496 12.339C15.3496 12.2041 15.3662 12.0881 15.3993 11.9697C15.4159 11.8537 15.468 11.7353 15.5177 11.6193C15.6006 11.4015 15.7521 11.2169 15.9202 11.0511C16.0859 10.8831 16.2705 10.7315 16.4883 10.6487C16.6067 10.599 16.7227 10.5469 16.8411 10.5303C16.9571 10.4972 17.0755 10.4806 17.208 10.4806H23.5527C23.6877 10.4806 23.8037 10.4972 23.9221 10.5303C24.0381 10.5469 24.1564 10.599 24.2724 10.6487C24.4902 10.7315 24.6749 10.8831 24.843 11.0511C25.0276 11.2003 25.1602 11.4015 25.262 11.6193C25.3117 11.7188 25.3614 11.8371 25.378 11.9531C25.4112 12.0881 25.4277 12.2041 25.4277 12.339V12.9924H30.0489C31.0196 12.9924 32.0092 13.9631 32.0092 14.9337V16.6927L21.8458 20.0237C21.7795 19.9905 21.7109 19.974 21.6612 19.9574C21.5949 19.9408 21.512 19.9408 21.4434 19.9408H19.334C19.2677 19.9408 19.1848 19.9408 19.1162 19.9574C19.0665 19.974 19.0002 19.9905 18.9505 20.0071L8.78711 16.6927V14.9337C8.78711 13.9631 9.75775 12.9924 10.7284 12.9924H15.3496V12.339ZM19.3174 20.7931H21.4599C21.4765 20.7931 21.4954 20.7931 21.512 20.7931C21.5286 20.8097 21.5617 20.8286 21.5783 20.8617C21.6114 20.8783 21.628 20.9115 21.6446 20.928C21.6446 20.9446 21.6446 20.9446 21.6446 20.9612L21.6612 20.9777V21.6974L21.6446 21.714C21.6446 21.7306 21.6446 21.7472 21.6446 21.7472C21.628 21.7827 21.6114 21.8158 21.5783 21.8324C21.5617 21.8655 21.5286 21.8821 21.4954 21.8987C21.4954 21.8987 21.4765 21.8987 21.4599 21.8987L21.4434 21.9152H19.334L19.3174 21.8987C19.3008 21.8987 19.2843 21.8987 19.2843 21.8987C19.2511 21.8821 19.218 21.8655 19.2014 21.8324C19.1683 21.8158 19.1493 21.7827 19.1328 21.7472C19.1328 21.7472 19.1328 21.7306 19.1328 21.714V20.9612C19.1328 20.9446 19.1328 20.9446 19.1328 20.928C19.1493 20.9115 19.1683 20.8783 19.2014 20.8617C19.218 20.8286 19.2511 20.8097 19.2677 20.7931C19.2843 20.7931 19.3008 20.7931 19.3174 20.7931ZM22.4827 20.7599C22.4827 20.7434 22.4661 20.7268 22.4661 20.7102L32.0092 17.5805V26.3849C32.0092 27.358 31.0196 28.3452 30.0489 28.3452H10.7284C9.75775 28.3452 8.78711 27.358 8.78711 26.3849V17.5805L18.3136 20.7102C18.3136 20.7268 18.2971 20.7434 18.2971 20.7599C18.2805 20.8286 18.2805 20.9115 18.2805 20.9777V21.6974C18.2805 21.7661 18.2805 21.849 18.2971 21.9152C18.3136 21.9815 18.3302 22.0502 18.3633 22.1165C18.4131 22.2349 18.4983 22.3343 18.5977 22.4337C18.6995 22.5355 18.7989 22.6184 18.915 22.6681C18.9836 22.7036 19.0499 22.7202 19.1162 22.7367C19.1848 22.7533 19.2677 22.7699 19.334 22.7699H21.4434C21.512 22.7699 21.5949 22.7533 21.6612 22.7367C21.7298 22.7202 21.7961 22.7036 21.8624 22.6681C21.9808 22.6184 22.0802 22.5355 22.1796 22.4337C22.2814 22.3343 22.3643 22.2349 22.414 22.1165C22.4495 22.0502 22.4661 21.9815 22.4827 21.9152C22.4992 21.849 22.5158 21.7661 22.5158 21.6974V20.9777C22.5158 20.9115 22.4992 20.8286 22.4827 20.7599Z" fill="#FE6601"/>
</g>
<defs>
<clipPath id="clip0_490_1260">
<rect width="40" height="40" fill="white" transform="translate(0.666992)"/>
</clipPath>
</defs>
</svg>
