<svg xmlns="http://www.w3.org/2000/svg" xmlns:xlink="http://www.w3.org/1999/xlink" width="64" zoomAndPan="magnify" viewBox="0 0 48 42" height="56" preserveAspectRatio="xMidYMid meet" version="1.0"><defs><clipPath id="2ae97be1d9"><path d="M 0.558594 0 L 46.710938 0 L 46.710938 41 L 0.558594 41 Z M 0.558594 0 " clip-rule="nonzero"/></clipPath></defs><path fill="#000000" d="M 19.058594 5.839844 C 19.011719 5.898438 18.96875 5.960938 18.921875 6.019531 C 18.894531 6.0625 18.863281 6.101562 18.835938 6.144531 C 18.792969 6.203125 18.75 6.265625 18.707031 6.324219 C 18.679688 6.367188 18.648438 6.414062 18.617188 6.457031 C 18.578125 6.519531 18.539062 6.582031 18.496094 6.644531 C 18.46875 6.6875 18.4375 6.734375 18.410156 6.78125 C 18.371094 6.84375 18.328125 6.910156 18.289062 6.976562 C 18.261719 7.023438 18.234375 7.070312 18.207031 7.113281 C 18.164062 7.1875 18.125 7.257812 18.082031 7.328125 C 18.058594 7.375 18.03125 7.417969 18.007812 7.460938 C 17.960938 7.546875 17.914062 7.632812 17.867188 7.722656 C 17.851562 7.753906 17.832031 7.785156 17.816406 7.816406 C 17.753906 7.9375 17.691406 8.0625 17.628906 8.183594 C 17.613281 8.214844 17.597656 8.246094 17.582031 8.277344 C 17.539062 8.375 17.492188 8.46875 17.449219 8.566406 C 17.425781 8.613281 17.402344 8.660156 17.382812 8.710938 C 17.34375 8.792969 17.308594 8.871094 17.269531 8.957031 C 17.246094 9.007812 17.222656 9.0625 17.199219 9.121094 C 17.167969 9.199219 17.132812 9.277344 17.101562 9.359375 C 17.078125 9.414062 17.054688 9.472656 17.03125 9.53125 C 17 9.609375 16.964844 9.691406 16.933594 9.769531 C 16.914062 9.828125 16.890625 9.890625 16.867188 9.949219 C 16.835938 10.03125 16.804688 10.113281 16.773438 10.195312 C 16.753906 10.257812 16.730469 10.316406 16.710938 10.375 C 16.703125 10.402344 16.691406 10.425781 16.683594 10.453125 C 16.707031 10.457031 16.730469 10.460938 16.757812 10.460938 C 16.835938 10.472656 16.914062 10.484375 16.992188 10.492188 C 17.207031 10.519531 17.417969 10.546875 17.632812 10.574219 C 17.734375 10.585938 17.835938 10.59375 17.941406 10.605469 C 18.140625 10.628906 18.339844 10.648438 18.542969 10.667969 C 18.640625 10.679688 18.742188 10.6875 18.84375 10.699219 C 19.074219 10.71875 19.304688 10.738281 19.539062 10.757812 C 19.605469 10.761719 19.671875 10.765625 19.738281 10.773438 C 20.035156 10.792969 20.335938 10.8125 20.636719 10.832031 C 20.714844 10.835938 20.789062 10.839844 20.867188 10.84375 C 21.09375 10.855469 21.320312 10.863281 21.546875 10.875 C 21.652344 10.878906 21.757812 10.882812 21.863281 10.882812 C 22.070312 10.890625 22.277344 10.898438 22.484375 10.902344 C 22.589844 10.902344 22.695312 10.90625 22.800781 10.90625 C 22.863281 10.910156 22.921875 10.910156 22.980469 10.910156 L 22.980469 3.089844 C 22.964844 3.09375 22.945312 3.09375 22.925781 3.097656 C 22.894531 3.105469 22.863281 3.109375 22.832031 3.117188 C 22.78125 3.128906 22.726562 3.140625 22.675781 3.152344 C 22.644531 3.160156 22.617188 3.167969 22.585938 3.175781 C 22.527344 3.191406 22.472656 3.210938 22.414062 3.226562 C 22.390625 3.234375 22.367188 3.242188 22.339844 3.25 C 22.261719 3.277344 22.179688 3.304688 22.097656 3.335938 C 22.089844 3.339844 22.078125 3.347656 22.066406 3.351562 C 21.996094 3.378906 21.925781 3.40625 21.859375 3.441406 C 21.832031 3.453125 21.804688 3.464844 21.777344 3.476562 C 21.722656 3.503906 21.667969 3.53125 21.617188 3.558594 C 21.585938 3.574219 21.558594 3.589844 21.527344 3.605469 C 21.476562 3.632812 21.425781 3.660156 21.375 3.691406 C 21.34375 3.707031 21.316406 3.726562 21.285156 3.742188 C 21.230469 3.777344 21.175781 3.8125 21.121094 3.847656 C 21.097656 3.863281 21.074219 3.878906 21.050781 3.894531 C 20.96875 3.945312 20.894531 4 20.816406 4.058594 C 20.808594 4.0625 20.800781 4.066406 20.796875 4.074219 C 20.726562 4.125 20.652344 4.179688 20.582031 4.238281 C 20.558594 4.257812 20.53125 4.277344 20.507812 4.300781 C 20.457031 4.34375 20.402344 4.386719 20.351562 4.429688 C 20.324219 4.457031 20.296875 4.480469 20.269531 4.507812 C 20.21875 4.550781 20.171875 4.597656 20.121094 4.640625 C 20.09375 4.667969 20.066406 4.695312 20.039062 4.722656 C 19.988281 4.769531 19.9375 4.824219 19.886719 4.875 C 19.859375 4.898438 19.835938 4.921875 19.8125 4.945312 C 19.738281 5.023438 19.667969 5.105469 19.59375 5.183594 C 19.515625 5.269531 19.441406 5.359375 19.367188 5.449219 C 19.339844 5.480469 19.316406 5.511719 19.292969 5.539062 C 19.242188 5.601562 19.191406 5.664062 19.140625 5.726562 C 19.113281 5.765625 19.085938 5.804688 19.058594 5.839844 " fill-opacity="1" fill-rule="nonzero"/><path fill="#000000" d="M 10.976562 9.273438 C 11.203125 9.339844 11.433594 9.402344 11.667969 9.464844 C 11.730469 9.480469 11.796875 9.5 11.863281 9.515625 C 12.039062 9.5625 12.214844 9.605469 12.394531 9.648438 C 12.46875 9.667969 12.542969 9.683594 12.617188 9.703125 C 12.820312 9.75 13.023438 9.796875 13.230469 9.84375 C 13.273438 9.851562 13.3125 9.863281 13.351562 9.871094 C 13.597656 9.921875 13.847656 9.972656 14.097656 10.023438 C 14.164062 10.035156 14.234375 10.050781 14.300781 10.0625 C 14.492188 10.097656 14.683594 10.132812 14.875 10.167969 C 14.953125 10.183594 15.035156 10.195312 15.113281 10.210938 C 15.171875 10.21875 15.230469 10.230469 15.289062 10.238281 C 15.308594 10.171875 15.335938 10.105469 15.355469 10.042969 C 15.394531 9.9375 15.429688 9.835938 15.464844 9.734375 C 15.492188 9.660156 15.519531 9.585938 15.550781 9.507812 C 15.585938 9.414062 15.621094 9.316406 15.65625 9.222656 C 15.6875 9.148438 15.71875 9.074219 15.746094 8.996094 C 15.785156 8.90625 15.820312 8.816406 15.859375 8.726562 C 15.890625 8.652344 15.921875 8.578125 15.953125 8.503906 C 15.992188 8.414062 16.027344 8.328125 16.066406 8.242188 C 16.097656 8.167969 16.132812 8.097656 16.164062 8.023438 C 16.203125 7.941406 16.242188 7.859375 16.28125 7.777344 C 16.316406 7.703125 16.351562 7.632812 16.386719 7.5625 C 16.425781 7.484375 16.464844 7.402344 16.503906 7.324219 C 16.539062 7.253906 16.578125 7.1875 16.613281 7.117188 C 16.652344 7.039062 16.695312 6.960938 16.734375 6.886719 C 16.773438 6.820312 16.808594 6.753906 16.847656 6.6875 C 16.886719 6.613281 16.929688 6.539062 16.972656 6.464844 C 17.011719 6.402344 17.046875 6.335938 17.085938 6.273438 C 17.128906 6.203125 17.171875 6.128906 17.214844 6.0625 C 17.253906 6 17.292969 5.9375 17.335938 5.875 C 17.378906 5.808594 17.421875 5.738281 17.46875 5.671875 C 17.507812 5.613281 17.546875 5.554688 17.589844 5.496094 C 17.632812 5.429688 17.679688 5.363281 17.722656 5.300781 C 17.765625 5.242188 17.804688 5.1875 17.847656 5.128906 C 17.894531 5.066406 17.941406 5.003906 17.988281 4.945312 C 18.027344 4.890625 18.070312 4.835938 18.113281 4.78125 C 18.160156 4.722656 18.207031 4.664062 18.257812 4.605469 C 18.300781 4.554688 18.34375 4.503906 18.386719 4.453125 C 18.433594 4.394531 18.484375 4.339844 18.53125 4.285156 C 18.574219 4.234375 18.617188 4.1875 18.664062 4.136719 C 18.710938 4.085938 18.761719 4.03125 18.8125 3.980469 C 18.855469 3.933594 18.902344 3.886719 18.945312 3.84375 C 18.996094 3.792969 19.046875 3.742188 19.097656 3.691406 C 19.128906 3.664062 19.15625 3.636719 19.183594 3.609375 C 18.027344 3.914062 16.90625 4.34375 15.820312 4.890625 C 13.777344 5.921875 11.933594 7.371094 10.433594 9.109375 C 10.582031 9.15625 10.730469 9.203125 10.878906 9.246094 C 10.914062 9.253906 10.941406 9.265625 10.976562 9.273438 " fill-opacity="1" fill-rule="nonzero"/><path fill="#000000" d="M 28.40625 3.84375 C 28.453125 3.886719 28.496094 3.933594 28.539062 3.980469 C 28.589844 4.03125 28.640625 4.085938 28.6875 4.136719 C 28.734375 4.1875 28.777344 4.234375 28.820312 4.285156 C 28.871094 4.339844 28.917969 4.394531 28.964844 4.453125 C 29.011719 4.503906 29.054688 4.554688 29.097656 4.605469 C 29.144531 4.664062 29.191406 4.722656 29.238281 4.78125 C 29.28125 4.835938 29.324219 4.890625 29.367188 4.945312 C 29.410156 5.007812 29.457031 5.066406 29.503906 5.128906 C 29.546875 5.1875 29.585938 5.242188 29.628906 5.300781 C 29.675781 5.363281 29.71875 5.429688 29.765625 5.496094 C 29.804688 5.554688 29.84375 5.613281 29.886719 5.671875 C 29.929688 5.738281 29.972656 5.808594 30.019531 5.875 C 30.058594 5.9375 30.097656 6 30.136719 6.0625 C 30.179688 6.132812 30.222656 6.203125 30.265625 6.273438 C 30.304688 6.335938 30.34375 6.402344 30.378906 6.464844 C 30.421875 6.539062 30.464844 6.613281 30.507812 6.6875 C 30.542969 6.753906 30.582031 6.820312 30.617188 6.886719 C 30.660156 6.960938 30.699219 7.039062 30.738281 7.117188 C 30.777344 7.1875 30.8125 7.253906 30.847656 7.324219 C 30.886719 7.402344 30.925781 7.484375 30.96875 7.5625 C 31 7.632812 31.035156 7.703125 31.070312 7.773438 C 31.109375 7.859375 31.148438 7.941406 31.1875 8.027344 C 31.21875 8.097656 31.253906 8.167969 31.285156 8.242188 C 31.324219 8.328125 31.363281 8.417969 31.398438 8.503906 C 31.429688 8.578125 31.464844 8.652344 31.496094 8.726562 C 31.53125 8.816406 31.570312 8.90625 31.605469 9 C 31.636719 9.074219 31.664062 9.148438 31.695312 9.222656 C 31.730469 9.316406 31.765625 9.414062 31.804688 9.507812 C 31.832031 9.585938 31.859375 9.660156 31.886719 9.734375 C 31.925781 9.835938 31.960938 9.9375 31.996094 10.039062 C 32.019531 10.105469 32.042969 10.171875 32.066406 10.238281 C 32.121094 10.230469 32.179688 10.21875 32.238281 10.210938 C 32.320312 10.195312 32.398438 10.183594 32.476562 10.167969 C 32.671875 10.132812 32.863281 10.097656 33.054688 10.0625 C 33.121094 10.050781 33.1875 10.035156 33.253906 10.023438 C 33.503906 9.972656 33.753906 9.921875 34 9.871094 C 34.039062 9.863281 34.078125 9.851562 34.117188 9.84375 C 34.324219 9.796875 34.53125 9.75 34.734375 9.703125 C 34.808594 9.683594 34.882812 9.667969 34.957031 9.648438 C 35.136719 9.605469 35.316406 9.5625 35.492188 9.515625 C 35.554688 9.5 35.621094 9.480469 35.683594 9.464844 C 35.917969 9.402344 36.148438 9.339844 36.378906 9.273438 C 36.410156 9.265625 36.4375 9.253906 36.46875 9.246094 C 36.621094 9.203125 36.769531 9.15625 36.917969 9.109375 C 35.421875 7.371094 33.574219 5.921875 31.535156 4.890625 C 30.449219 4.34375 29.324219 3.914062 28.167969 3.609375 C 28.195312 3.636719 28.226562 3.664062 28.253906 3.695312 C 28.304688 3.742188 28.355469 3.792969 28.40625 3.84375 " fill-opacity="1" fill-rule="nonzero"/><path fill="#000000" d="M 24.871094 10.902344 C 25.074219 10.898438 25.28125 10.890625 25.488281 10.882812 C 25.59375 10.882812 25.699219 10.878906 25.804688 10.875 C 26.03125 10.863281 26.257812 10.855469 26.488281 10.84375 C 26.5625 10.839844 26.640625 10.835938 26.714844 10.832031 C 27.015625 10.8125 27.316406 10.792969 27.613281 10.773438 C 27.679688 10.765625 27.746094 10.761719 27.816406 10.757812 C 28.046875 10.738281 28.277344 10.71875 28.511719 10.699219 C 28.609375 10.6875 28.710938 10.679688 28.8125 10.667969 C 29.011719 10.648438 29.210938 10.628906 29.414062 10.605469 C 29.515625 10.59375 29.617188 10.585938 29.71875 10.574219 C 29.933594 10.546875 30.144531 10.519531 30.359375 10.492188 C 30.4375 10.484375 30.515625 10.472656 30.597656 10.460938 C 30.621094 10.460938 30.644531 10.457031 30.667969 10.453125 C 30.660156 10.425781 30.648438 10.398438 30.640625 10.375 C 30.621094 10.316406 30.597656 10.257812 30.578125 10.199219 C 30.546875 10.113281 30.515625 10.03125 30.484375 9.949219 C 30.460938 9.890625 30.441406 9.832031 30.417969 9.773438 C 30.386719 9.691406 30.351562 9.609375 30.320312 9.527344 C 30.296875 9.472656 30.273438 9.414062 30.253906 9.359375 C 30.21875 9.277344 30.183594 9.195312 30.148438 9.117188 C 30.128906 9.0625 30.105469 9.007812 30.082031 8.957031 C 30.042969 8.871094 30.007812 8.789062 29.96875 8.707031 C 29.949219 8.660156 29.925781 8.613281 29.90625 8.566406 C 29.859375 8.464844 29.8125 8.371094 29.765625 8.273438 C 29.75 8.242188 29.738281 8.214844 29.722656 8.1875 C 29.664062 8.0625 29.597656 7.9375 29.535156 7.816406 C 29.519531 7.785156 29.503906 7.757812 29.488281 7.726562 C 29.441406 7.636719 29.390625 7.546875 29.34375 7.460938 C 29.320312 7.417969 29.296875 7.375 29.269531 7.332031 C 29.230469 7.257812 29.1875 7.1875 29.144531 7.113281 C 29.117188 7.070312 29.089844 7.023438 29.0625 6.980469 C 29.023438 6.910156 28.984375 6.84375 28.941406 6.78125 C 28.914062 6.734375 28.882812 6.6875 28.855469 6.644531 C 28.816406 6.582031 28.773438 6.519531 28.734375 6.457031 C 28.703125 6.414062 28.675781 6.367188 28.644531 6.324219 C 28.601562 6.265625 28.558594 6.203125 28.519531 6.144531 C 28.488281 6.101562 28.457031 6.0625 28.429688 6.019531 C 28.386719 5.960938 28.339844 5.898438 28.296875 5.839844 C 28.265625 5.804688 28.238281 5.765625 28.210938 5.726562 C 28.160156 5.664062 28.109375 5.601562 28.058594 5.539062 C 28.035156 5.511719 28.011719 5.480469 27.988281 5.449219 C 27.910156 5.359375 27.835938 5.269531 27.757812 5.183594 C 27.6875 5.105469 27.613281 5.023438 27.539062 4.945312 C 27.515625 4.921875 27.492188 4.898438 27.46875 4.875 C 27.417969 4.824219 27.367188 4.769531 27.3125 4.722656 C 27.285156 4.695312 27.257812 4.667969 27.230469 4.640625 C 27.183594 4.597656 27.132812 4.550781 27.085938 4.507812 C 27.054688 4.480469 27.027344 4.457031 27 4.429688 C 26.949219 4.386719 26.894531 4.34375 26.84375 4.300781 C 26.820312 4.277344 26.792969 4.257812 26.769531 4.238281 C 26.699219 4.179688 26.628906 4.125 26.554688 4.074219 C 26.550781 4.066406 26.542969 4.0625 26.539062 4.058594 C 26.460938 4 26.382812 3.945312 26.304688 3.894531 C 26.277344 3.878906 26.253906 3.863281 26.230469 3.847656 C 26.175781 3.8125 26.121094 3.777344 26.066406 3.742188 C 26.039062 3.726562 26.007812 3.707031 25.980469 3.691406 C 25.929688 3.660156 25.875 3.632812 25.824219 3.605469 C 25.796875 3.589844 25.765625 3.574219 25.734375 3.558594 C 25.683594 3.53125 25.628906 3.503906 25.574219 3.476562 C 25.546875 3.464844 25.519531 3.453125 25.496094 3.441406 C 25.425781 3.40625 25.355469 3.378906 25.285156 3.351562 C 25.273438 3.347656 25.261719 3.339844 25.253906 3.335938 C 25.171875 3.304688 25.09375 3.277344 25.011719 3.25 C 24.988281 3.242188 24.964844 3.234375 24.941406 3.226562 C 24.882812 3.210938 24.824219 3.191406 24.765625 3.175781 C 24.738281 3.167969 24.707031 3.160156 24.679688 3.152344 C 24.625 3.140625 24.570312 3.128906 24.519531 3.117188 C 24.488281 3.109375 24.457031 3.105469 24.429688 3.097656 C 24.410156 3.09375 24.390625 3.09375 24.371094 3.089844 L 24.371094 10.910156 C 24.429688 10.910156 24.488281 10.910156 24.550781 10.90625 C 24.65625 10.90625 24.761719 10.902344 24.871094 10.902344 " fill-opacity="1" fill-rule="nonzero"/><path fill="#000000" d="M 22.488281 30.074219 C 22.277344 30.082031 22.070312 30.085938 21.863281 30.09375 C 21.757812 30.097656 21.652344 30.101562 21.550781 30.105469 C 21.320312 30.113281 21.09375 30.125 20.863281 30.136719 C 20.789062 30.140625 20.710938 30.140625 20.636719 30.148438 C 20.335938 30.164062 20.035156 30.183594 19.738281 30.203125 C 19.671875 30.210938 19.601562 30.214844 19.535156 30.222656 C 19.304688 30.238281 19.074219 30.257812 18.84375 30.28125 C 18.742188 30.289062 18.640625 30.300781 18.539062 30.308594 C 18.339844 30.328125 18.140625 30.347656 17.941406 30.371094 C 17.839844 30.382812 17.734375 30.394531 17.632812 30.40625 C 17.417969 30.429688 17.207031 30.457031 16.992188 30.484375 C 16.914062 30.496094 16.835938 30.503906 16.757812 30.515625 C 16.730469 30.519531 16.707031 30.523438 16.683594 30.523438 C 16.691406 30.550781 16.703125 30.578125 16.710938 30.601562 C 16.730469 30.664062 16.753906 30.722656 16.773438 30.78125 C 16.804688 30.863281 16.835938 30.945312 16.867188 31.027344 C 16.890625 31.089844 16.914062 31.148438 16.933594 31.207031 C 16.964844 31.289062 17 31.367188 17.03125 31.445312 C 17.054688 31.503906 17.078125 31.5625 17.101562 31.621094 C 17.132812 31.699219 17.167969 31.78125 17.199219 31.859375 C 17.222656 31.914062 17.246094 31.96875 17.269531 32.023438 C 17.308594 32.105469 17.34375 32.1875 17.382812 32.265625 C 17.402344 32.316406 17.425781 32.363281 17.449219 32.414062 C 17.492188 32.507812 17.539062 32.605469 17.582031 32.699219 C 17.597656 32.730469 17.613281 32.761719 17.628906 32.792969 C 17.691406 32.917969 17.753906 33.039062 17.816406 33.160156 C 17.832031 33.191406 17.851562 33.226562 17.867188 33.257812 C 17.914062 33.34375 17.960938 33.429688 18.007812 33.515625 C 18.03125 33.5625 18.058594 33.605469 18.082031 33.648438 C 18.125 33.71875 18.164062 33.792969 18.207031 33.863281 C 18.234375 33.910156 18.261719 33.953125 18.289062 34 C 18.328125 34.066406 18.371094 34.132812 18.410156 34.195312 C 18.4375 34.242188 18.46875 34.289062 18.496094 34.332031 C 18.539062 34.398438 18.578125 34.460938 18.617188 34.519531 C 18.648438 34.566406 18.679688 34.609375 18.707031 34.652344 C 18.75 34.714844 18.792969 34.773438 18.832031 34.832031 C 18.863281 34.875 18.894531 34.917969 18.921875 34.957031 C 18.96875 35.019531 19.011719 35.078125 19.054688 35.136719 C 19.085938 35.175781 19.113281 35.210938 19.140625 35.25 C 19.191406 35.3125 19.242188 35.375 19.292969 35.4375 C 19.316406 35.464844 19.339844 35.496094 19.367188 35.527344 C 19.441406 35.617188 19.515625 35.707031 19.59375 35.792969 C 19.664062 35.875 19.738281 35.953125 19.8125 36.03125 C 19.835938 36.054688 19.863281 36.078125 19.886719 36.105469 C 19.9375 36.15625 19.988281 36.207031 20.039062 36.253906 C 20.066406 36.28125 20.09375 36.308594 20.121094 36.335938 C 20.171875 36.382812 20.21875 36.425781 20.265625 36.46875 C 20.296875 36.496094 20.324219 36.523438 20.351562 36.546875 C 20.402344 36.589844 20.457031 36.632812 20.507812 36.675781 C 20.53125 36.699219 20.558594 36.71875 20.582031 36.742188 C 20.652344 36.796875 20.722656 36.851562 20.796875 36.902344 C 20.800781 36.910156 20.808594 36.914062 20.816406 36.917969 C 20.894531 36.976562 20.96875 37.03125 21.046875 37.082031 C 21.074219 37.101562 21.097656 37.113281 21.121094 37.132812 C 21.175781 37.167969 21.230469 37.199219 21.285156 37.234375 C 21.316406 37.25 21.34375 37.269531 21.375 37.285156 C 21.425781 37.316406 21.476562 37.34375 21.527344 37.371094 C 21.558594 37.386719 21.585938 37.40625 21.617188 37.417969 C 21.667969 37.449219 21.722656 37.472656 21.777344 37.5 C 21.804688 37.511719 21.832031 37.523438 21.859375 37.539062 C 21.925781 37.570312 21.996094 37.597656 22.066406 37.628906 C 22.078125 37.632812 22.089844 37.636719 22.097656 37.640625 C 22.179688 37.671875 22.261719 37.699219 22.339844 37.726562 C 22.367188 37.734375 22.390625 37.742188 22.414062 37.75 C 22.472656 37.769531 22.527344 37.785156 22.585938 37.800781 C 22.617188 37.808594 22.644531 37.816406 22.675781 37.824219 C 22.726562 37.835938 22.78125 37.847656 22.832031 37.859375 C 22.863281 37.867188 22.894531 37.871094 22.925781 37.878906 C 22.945312 37.882812 22.964844 37.882812 22.980469 37.886719 L 22.980469 30.066406 C 22.921875 30.070312 22.859375 30.070312 22.800781 30.070312 C 22.695312 30.070312 22.589844 30.074219 22.488281 30.074219 " fill-opacity="1" fill-rule="nonzero"/><path fill="#000000" d="M 36.378906 31.703125 C 36.148438 31.636719 35.917969 31.574219 35.683594 31.511719 C 35.621094 31.496094 35.554688 31.480469 35.492188 31.460938 C 35.316406 31.417969 35.136719 31.371094 34.953125 31.328125 C 34.882812 31.308594 34.808594 31.292969 34.734375 31.273438 C 34.53125 31.226562 34.324219 31.179688 34.117188 31.132812 C 34.078125 31.125 34.039062 31.117188 34 31.109375 C 33.753906 31.054688 33.503906 31.003906 33.253906 30.953125 C 33.1875 30.941406 33.121094 30.929688 33.054688 30.914062 C 32.863281 30.878906 32.671875 30.84375 32.476562 30.808594 C 32.398438 30.792969 32.316406 30.78125 32.238281 30.765625 C 32.179688 30.757812 32.121094 30.746094 32.066406 30.738281 C 32.042969 30.804688 32.019531 30.871094 31.996094 30.9375 C 31.960938 31.039062 31.925781 31.140625 31.886719 31.242188 C 31.859375 31.316406 31.832031 31.390625 31.804688 31.46875 C 31.765625 31.5625 31.730469 31.660156 31.695312 31.753906 C 31.664062 31.832031 31.636719 31.902344 31.605469 31.976562 C 31.570312 32.070312 31.53125 32.160156 31.496094 32.25 C 31.464844 32.328125 31.429688 32.398438 31.398438 32.472656 C 31.363281 32.5625 31.324219 32.648438 31.285156 32.734375 C 31.253906 32.808594 31.21875 32.878906 31.1875 32.953125 C 31.148438 33.035156 31.109375 33.121094 31.070312 33.203125 C 31.035156 33.273438 31 33.34375 30.96875 33.414062 C 30.925781 33.496094 30.886719 33.574219 30.847656 33.65625 C 30.8125 33.722656 30.777344 33.792969 30.738281 33.859375 C 30.699219 33.9375 30.660156 34.015625 30.617188 34.089844 C 30.582031 34.15625 30.542969 34.222656 30.507812 34.289062 C 30.464844 34.363281 30.421875 34.4375 30.378906 34.511719 C 30.34375 34.578125 30.304688 34.640625 30.265625 34.703125 C 30.222656 34.777344 30.179688 34.847656 30.136719 34.917969 C 30.097656 34.980469 30.058594 35.039062 30.019531 35.101562 C 29.972656 35.171875 29.929688 35.238281 29.886719 35.304688 C 29.84375 35.363281 29.804688 35.425781 29.765625 35.480469 C 29.71875 35.546875 29.671875 35.613281 29.628906 35.675781 C 29.585938 35.734375 29.546875 35.792969 29.503906 35.847656 C 29.457031 35.910156 29.410156 35.972656 29.363281 36.03125 C 29.324219 36.085938 29.28125 36.140625 29.238281 36.195312 C 29.191406 36.253906 29.144531 36.3125 29.097656 36.371094 C 29.054688 36.421875 29.011719 36.476562 28.964844 36.527344 C 28.917969 36.582031 28.871094 36.636719 28.820312 36.691406 C 28.777344 36.742188 28.734375 36.792969 28.6875 36.839844 C 28.640625 36.894531 28.589844 36.945312 28.539062 36.996094 C 28.496094 37.042969 28.453125 37.089844 28.40625 37.136719 C 28.355469 37.1875 28.304688 37.234375 28.253906 37.285156 C 28.226562 37.3125 28.195312 37.34375 28.167969 37.371094 C 29.324219 37.0625 30.449219 36.632812 31.535156 36.085938 C 33.574219 35.054688 35.421875 33.605469 36.917969 31.867188 C 36.769531 31.820312 36.625 31.777344 36.472656 31.730469 C 36.441406 31.722656 36.410156 31.710938 36.378906 31.703125 " fill-opacity="1" fill-rule="nonzero"/><path fill="#000000" d="M 18.945312 37.136719 C 18.902344 37.089844 18.855469 37.042969 18.8125 36.996094 C 18.761719 36.945312 18.710938 36.894531 18.664062 36.839844 C 18.617188 36.792969 18.574219 36.742188 18.53125 36.695312 C 18.484375 36.636719 18.433594 36.582031 18.386719 36.527344 C 18.34375 36.476562 18.300781 36.421875 18.257812 36.371094 C 18.207031 36.3125 18.160156 36.253906 18.113281 36.195312 C 18.070312 36.140625 18.03125 36.085938 17.988281 36.03125 C 17.941406 35.972656 17.894531 35.910156 17.847656 35.847656 C 17.804688 35.792969 17.765625 35.734375 17.722656 35.679688 C 17.679688 35.613281 17.632812 35.546875 17.585938 35.480469 C 17.546875 35.425781 17.507812 35.363281 17.46875 35.304688 C 17.421875 35.238281 17.378906 35.167969 17.332031 35.101562 C 17.292969 35.039062 17.253906 34.980469 17.21875 34.917969 C 17.171875 34.847656 17.128906 34.773438 17.085938 34.703125 C 17.046875 34.640625 17.011719 34.578125 16.972656 34.511719 C 16.929688 34.4375 16.886719 34.363281 16.84375 34.289062 C 16.808594 34.222656 16.773438 34.15625 16.734375 34.089844 C 16.695312 34.015625 16.652344 33.9375 16.613281 33.859375 C 16.574219 33.792969 16.539062 33.722656 16.503906 33.65625 C 16.464844 33.574219 16.425781 33.492188 16.382812 33.414062 C 16.351562 33.34375 16.316406 33.273438 16.28125 33.203125 C 16.242188 33.121094 16.203125 33.035156 16.164062 32.949219 C 16.132812 32.878906 16.097656 32.808594 16.066406 32.734375 C 16.027344 32.648438 15.988281 32.558594 15.953125 32.472656 C 15.921875 32.398438 15.886719 32.328125 15.859375 32.253906 C 15.820312 32.160156 15.785156 32.070312 15.746094 31.976562 C 15.714844 31.902344 15.6875 31.828125 15.65625 31.753906 C 15.621094 31.660156 15.585938 31.5625 15.546875 31.464844 C 15.519531 31.390625 15.492188 31.316406 15.464844 31.242188 C 15.425781 31.140625 15.390625 31.035156 15.355469 30.933594 C 15.332031 30.867188 15.308594 30.804688 15.289062 30.738281 C 15.230469 30.746094 15.171875 30.757812 15.113281 30.765625 C 15.035156 30.78125 14.953125 30.792969 14.875 30.808594 C 14.683594 30.84375 14.492188 30.878906 14.300781 30.914062 C 14.234375 30.929688 14.164062 30.941406 14.097656 30.953125 C 13.847656 31.003906 13.597656 31.054688 13.351562 31.105469 C 13.3125 31.117188 13.269531 31.125 13.230469 31.132812 C 13.023438 31.179688 12.820312 31.226562 12.617188 31.273438 C 12.542969 31.292969 12.46875 31.308594 12.394531 31.328125 C 12.214844 31.371094 12.039062 31.417969 11.863281 31.460938 C 11.796875 31.476562 11.734375 31.496094 11.667969 31.511719 C 11.433594 31.574219 11.203125 31.636719 10.976562 31.703125 C 10.941406 31.714844 10.910156 31.722656 10.875 31.734375 C 10.726562 31.777344 10.578125 31.820312 10.433594 31.867188 C 11.933594 33.605469 13.777344 35.054688 15.820312 36.085938 C 16.90625 36.632812 18.027344 37.0625 19.183594 37.371094 C 19.15625 37.34375 19.128906 37.3125 19.097656 37.285156 C 19.046875 37.234375 18.996094 37.1875 18.945312 37.136719 " fill-opacity="1" fill-rule="nonzero"/><path fill="#000000" d="M 28.296875 35.136719 C 28.339844 35.078125 28.386719 35.019531 28.429688 34.957031 C 28.457031 34.917969 28.488281 34.875 28.519531 34.832031 C 28.558594 34.773438 28.601562 34.714844 28.644531 34.652344 C 28.675781 34.609375 28.703125 34.566406 28.734375 34.519531 C 28.773438 34.460938 28.816406 34.398438 28.855469 34.332031 C 28.882812 34.289062 28.914062 34.242188 28.941406 34.199219 C 28.984375 34.132812 29.023438 34.066406 29.066406 33.996094 C 29.089844 33.953125 29.117188 33.910156 29.144531 33.863281 C 29.1875 33.792969 29.230469 33.71875 29.273438 33.644531 C 29.296875 33.601562 29.320312 33.558594 29.34375 33.519531 C 29.390625 33.429688 29.441406 33.339844 29.488281 33.25 C 29.503906 33.21875 29.519531 33.191406 29.535156 33.160156 C 29.597656 33.039062 29.664062 32.917969 29.722656 32.792969 C 29.738281 32.765625 29.75 32.738281 29.761719 32.710938 C 29.8125 32.609375 29.859375 32.511719 29.90625 32.410156 C 29.925781 32.367188 29.945312 32.320312 29.96875 32.273438 C 30.007812 32.191406 30.042969 32.105469 30.082031 32.019531 C 30.105469 31.96875 30.125 31.914062 30.148438 31.863281 C 30.183594 31.78125 30.21875 31.699219 30.253906 31.617188 C 30.273438 31.5625 30.296875 31.507812 30.320312 31.449219 C 30.351562 31.367188 30.386719 31.285156 30.417969 31.203125 C 30.441406 31.148438 30.460938 31.089844 30.484375 31.03125 C 30.515625 30.945312 30.546875 30.863281 30.578125 30.777344 C 30.597656 30.71875 30.621094 30.664062 30.640625 30.605469 C 30.648438 30.578125 30.660156 30.550781 30.667969 30.523438 C 30.644531 30.523438 30.621094 30.519531 30.597656 30.515625 C 30.515625 30.503906 30.4375 30.496094 30.359375 30.484375 C 30.144531 30.457031 29.933594 30.429688 29.71875 30.40625 C 29.617188 30.394531 29.515625 30.382812 29.410156 30.371094 C 29.210938 30.347656 29.011719 30.328125 28.8125 30.308594 C 28.710938 30.300781 28.609375 30.289062 28.507812 30.28125 C 28.28125 30.257812 28.046875 30.238281 27.816406 30.222656 C 27.75 30.214844 27.679688 30.210938 27.613281 30.203125 C 27.316406 30.183594 27.015625 30.164062 26.714844 30.148438 C 26.640625 30.140625 26.5625 30.140625 26.488281 30.136719 C 26.261719 30.125 26.03125 30.113281 25.800781 30.105469 C 25.699219 30.101562 25.59375 30.097656 25.492188 30.09375 C 25.28125 30.085938 25.074219 30.082031 24.867188 30.074219 C 24.761719 30.074219 24.65625 30.070312 24.554688 30.070312 C 24.492188 30.070312 24.429688 30.070312 24.371094 30.066406 L 24.371094 37.886719 C 24.390625 37.882812 24.40625 37.882812 24.425781 37.878906 C 24.457031 37.871094 24.488281 37.867188 24.519531 37.859375 C 24.574219 37.847656 24.625 37.835938 24.675781 37.824219 C 24.707031 37.816406 24.738281 37.808594 24.765625 37.800781 C 24.824219 37.785156 24.882812 37.769531 24.9375 37.75 C 24.960938 37.742188 24.988281 37.734375 25.011719 37.726562 C 25.09375 37.699219 25.171875 37.671875 25.253906 37.640625 C 25.265625 37.636719 25.277344 37.632812 25.285156 37.625 C 25.355469 37.597656 25.425781 37.570312 25.496094 37.539062 C 25.519531 37.523438 25.546875 37.511719 25.574219 37.5 C 25.628906 37.472656 25.683594 37.449219 25.734375 37.421875 C 25.765625 37.40625 25.796875 37.386719 25.824219 37.371094 C 25.875 37.34375 25.925781 37.316406 25.976562 37.285156 C 26.007812 37.269531 26.039062 37.25 26.066406 37.234375 C 26.121094 37.199219 26.175781 37.167969 26.230469 37.132812 C 26.253906 37.113281 26.277344 37.101562 26.304688 37.082031 C 26.382812 37.03125 26.460938 36.976562 26.535156 36.917969 C 26.542969 36.914062 26.550781 36.910156 26.558594 36.902344 C 26.628906 36.851562 26.699219 36.796875 26.769531 36.742188 C 26.792969 36.71875 26.820312 36.699219 26.84375 36.675781 C 26.898438 36.632812 26.949219 36.589844 27 36.546875 C 27.027344 36.523438 27.054688 36.496094 27.085938 36.46875 C 27.132812 36.425781 27.183594 36.382812 27.230469 36.335938 C 27.257812 36.308594 27.285156 36.28125 27.316406 36.253906 C 27.367188 36.207031 27.417969 36.15625 27.46875 36.105469 C 27.492188 36.078125 27.515625 36.054688 27.539062 36.03125 C 27.613281 35.953125 27.6875 35.875 27.757812 35.792969 C 27.835938 35.707031 27.910156 35.617188 27.988281 35.527344 C 28.011719 35.496094 28.035156 35.46875 28.058594 35.4375 C 28.109375 35.375 28.160156 35.3125 28.210938 35.25 C 28.238281 35.210938 28.265625 35.175781 28.296875 35.136719 " fill-opacity="1" fill-rule="nonzero"/><g clip-path="url(#2ae97be1d9)"><path fill="#000000" d="M 39.234375 31.175781 L 38.648438 31.941406 L 38.34375 32.335938 L 38.335938 32.335938 C 36.660156 34.40625 34.53125 36.125 32.160156 37.324219 C 29.71875 38.558594 27.101562 39.226562 24.371094 39.324219 L 24.371094 39.339844 L 22.980469 39.339844 L 22.980469 39.324219 C 20.25 39.226562 17.632812 38.558594 15.191406 37.324219 C 12.820312 36.125 10.695312 34.40625 9.015625 32.335938 L 9.007812 32.335938 L 8.703125 31.941406 L 8.117188 31.175781 L 8.140625 31.164062 C 7.226562 29.835938 6.492188 28.417969 5.949219 26.925781 C 6.332031 26.996094 6.722656 27.035156 7.121094 27.035156 L 7.480469 27.035156 C 8.003906 28.320312 8.679688 29.550781 9.511719 30.699219 C 9.566406 30.683594 9.621094 30.664062 9.675781 30.648438 C 9.757812 30.621094 9.839844 30.597656 9.925781 30.570312 C 10.085938 30.519531 10.246094 30.472656 10.410156 30.421875 C 10.492188 30.398438 10.574219 30.375 10.65625 30.351562 C 10.847656 30.296875 11.039062 30.242188 11.234375 30.191406 C 11.285156 30.175781 11.339844 30.164062 11.394531 30.148438 C 11.640625 30.082031 11.890625 30.019531 12.140625 29.960938 C 12.210938 29.941406 12.28125 29.925781 12.351562 29.910156 C 12.539062 29.867188 12.726562 29.824219 12.917969 29.78125 C 13.007812 29.761719 13.101562 29.742188 13.191406 29.722656 C 13.367188 29.683594 13.542969 29.648438 13.722656 29.613281 C 13.8125 29.59375 13.90625 29.578125 14 29.558594 C 14.195312 29.519531 14.394531 29.484375 14.59375 29.449219 C 14.664062 29.4375 14.738281 29.421875 14.8125 29.410156 C 14.828125 29.40625 14.84375 29.402344 14.863281 29.398438 L 14.859375 29.394531 L 14.871094 29.390625 C 14.851562 29.324219 14.835938 29.253906 14.816406 29.183594 C 14.796875 29.121094 14.78125 29.058594 14.765625 28.992188 C 14.730469 28.863281 14.695312 28.726562 14.664062 28.59375 C 14.652344 28.550781 14.640625 28.507812 14.628906 28.460938 C 14.585938 28.285156 14.542969 28.105469 14.503906 27.925781 C 14.492188 27.878906 14.484375 27.835938 14.472656 27.789062 C 14.445312 27.652344 14.414062 27.515625 14.386719 27.378906 C 14.375 27.3125 14.359375 27.246094 14.347656 27.179688 C 14.339844 27.132812 14.328125 27.082031 14.320312 27.035156 L 15.734375 27.035156 C 15.742188 27.070312 15.75 27.109375 15.757812 27.144531 C 15.777344 27.253906 15.800781 27.363281 15.824219 27.46875 C 15.839844 27.539062 15.855469 27.605469 15.871094 27.671875 C 15.894531 27.785156 15.921875 27.898438 15.949219 28.007812 C 15.964844 28.070312 15.976562 28.132812 15.992188 28.195312 C 16.027344 28.324219 16.058594 28.457031 16.09375 28.585938 C 16.105469 28.625 16.113281 28.664062 16.125 28.703125 C 16.167969 28.863281 16.210938 29.023438 16.257812 29.179688 C 16.328125 29.171875 16.398438 29.164062 16.46875 29.152344 C 16.582031 29.136719 16.695312 29.121094 16.808594 29.109375 C 17.003906 29.082031 17.199219 29.058594 17.398438 29.035156 C 17.507812 29.023438 17.621094 29.007812 17.730469 28.996094 C 17.945312 28.972656 18.164062 28.949219 18.378906 28.929688 C 18.472656 28.921875 18.5625 28.910156 18.65625 28.902344 C 18.960938 28.875 19.273438 28.847656 19.582031 28.824219 C 19.617188 28.820312 19.65625 28.820312 19.691406 28.816406 C 19.964844 28.796875 20.242188 28.777344 20.519531 28.761719 C 20.625 28.757812 20.730469 28.753906 20.832031 28.746094 C 21.042969 28.734375 21.257812 28.726562 21.46875 28.71875 C 21.585938 28.714844 21.707031 28.707031 21.824219 28.703125 C 22.027344 28.699219 22.230469 28.691406 22.433594 28.6875 C 22.554688 28.683594 22.671875 28.683594 22.792969 28.679688 C 22.855469 28.679688 22.917969 28.679688 22.980469 28.675781 L 22.980469 27.035156 L 24.371094 27.035156 L 24.371094 28.675781 C 24.433594 28.679688 24.496094 28.679688 24.558594 28.679688 C 24.679688 28.683594 24.796875 28.683594 24.917969 28.6875 C 25.121094 28.691406 25.324219 28.699219 25.527344 28.703125 C 25.648438 28.707031 25.765625 28.714844 25.882812 28.71875 C 26.097656 28.726562 26.308594 28.734375 26.519531 28.746094 C 26.625 28.753906 26.726562 28.757812 26.832031 28.761719 C 27.109375 28.777344 27.386719 28.796875 27.664062 28.816406 C 27.699219 28.820312 27.734375 28.820312 27.769531 28.824219 C 28.078125 28.847656 28.390625 28.875 28.699219 28.902344 C 28.789062 28.910156 28.882812 28.921875 28.972656 28.929688 C 29.1875 28.949219 29.40625 28.972656 29.621094 28.996094 C 29.734375 29.007812 29.84375 29.023438 29.953125 29.035156 C 30.152344 29.058594 30.347656 29.082031 30.542969 29.109375 C 30.65625 29.121094 30.769531 29.136719 30.882812 29.152344 C 30.953125 29.164062 31.027344 29.171875 31.097656 29.179688 C 31.140625 29.023438 31.1875 28.863281 31.226562 28.703125 C 31.238281 28.664062 31.25 28.621094 31.261719 28.578125 C 31.292969 28.453125 31.328125 28.324219 31.359375 28.195312 C 31.375 28.132812 31.390625 28.066406 31.40625 28.003906 C 31.429688 27.894531 31.457031 27.785156 31.480469 27.675781 C 31.496094 27.605469 31.511719 27.535156 31.527344 27.464844 C 31.550781 27.359375 31.574219 27.253906 31.59375 27.148438 C 31.601562 27.109375 31.609375 27.070312 31.617188 27.035156 L 33.035156 27.035156 C 33.023438 27.082031 33.015625 27.132812 33.003906 27.179688 C 32.992188 27.246094 32.976562 27.3125 32.964844 27.378906 C 32.9375 27.519531 32.90625 27.65625 32.878906 27.792969 C 32.867188 27.835938 32.859375 27.882812 32.847656 27.925781 C 32.808594 28.105469 32.765625 28.285156 32.722656 28.464844 C 32.710938 28.507812 32.699219 28.546875 32.691406 28.589844 C 32.65625 28.726562 32.621094 28.859375 32.585938 28.996094 C 32.570312 29.058594 32.554688 29.117188 32.539062 29.179688 C 32.519531 29.25 32.5 29.320312 32.480469 29.390625 L 32.492188 29.394531 L 32.492188 29.398438 C 32.507812 29.402344 32.523438 29.40625 32.542969 29.410156 C 32.613281 29.421875 32.6875 29.4375 32.757812 29.449219 C 32.957031 29.484375 33.15625 29.519531 33.351562 29.558594 C 33.445312 29.578125 33.539062 29.59375 33.628906 29.613281 C 33.808594 29.648438 33.984375 29.6875 34.160156 29.722656 C 34.253906 29.742188 34.34375 29.761719 34.433594 29.78125 C 34.628906 29.824219 34.816406 29.867188 35.007812 29.914062 C 35.074219 29.929688 35.140625 29.941406 35.207031 29.960938 C 35.460938 30.019531 35.714844 30.082031 35.960938 30.148438 C 36.011719 30.164062 36.058594 30.175781 36.109375 30.1875 C 36.308594 30.242188 36.503906 30.296875 36.699219 30.351562 C 36.78125 30.375 36.859375 30.398438 36.941406 30.421875 C 37.105469 30.472656 37.269531 30.519531 37.429688 30.570312 C 37.511719 30.597656 37.59375 30.621094 37.675781 30.648438 C 37.730469 30.664062 37.785156 30.683594 37.839844 30.699219 C 38.671875 29.550781 39.347656 28.320312 39.871094 27.035156 L 40.230469 27.035156 C 40.628906 27.035156 41.023438 26.996094 41.402344 26.925781 C 40.859375 28.417969 40.125 29.835938 39.210938 31.164062 Z M 8.117188 9.804688 L 8.703125 9.039062 L 9.007812 8.640625 L 9.015625 8.644531 C 10.695312 6.570312 12.820312 4.851562 15.191406 3.652344 C 17.632812 2.421875 20.25 1.75 22.980469 1.652344 L 22.980469 1.640625 L 24.371094 1.640625 L 24.371094 1.652344 C 27.101562 1.75 29.71875 2.421875 32.160156 3.652344 C 34.53125 4.851562 36.660156 6.570312 38.335938 8.644531 L 38.34375 8.640625 L 38.648438 9.039062 L 39.234375 9.804688 L 39.210938 9.8125 C 40.125 11.140625 40.859375 12.5625 41.402344 14.050781 C 41.023438 13.980469 40.628906 13.945312 40.230469 13.945312 L 39.871094 13.945312 C 39.347656 12.65625 38.671875 11.425781 37.839844 10.277344 C 37.789062 10.296875 37.734375 10.3125 37.679688 10.328125 C 37.59375 10.355469 37.511719 10.382812 37.425781 10.410156 C 37.265625 10.457031 37.105469 10.503906 36.945312 10.554688 C 36.863281 10.578125 36.78125 10.601562 36.695312 10.625 C 36.507812 10.679688 36.3125 10.734375 36.121094 10.785156 C 36.066406 10.800781 36.011719 10.816406 35.960938 10.828125 C 35.710938 10.894531 35.460938 10.957031 35.210938 11.019531 C 35.140625 11.035156 35.070312 11.050781 35.003906 11.066406 C 34.816406 11.109375 34.625 11.152344 34.4375 11.195312 C 34.34375 11.214844 34.25 11.234375 34.160156 11.253906 C 33.984375 11.292969 33.808594 11.328125 33.632812 11.363281 C 33.539062 11.382812 33.445312 11.402344 33.351562 11.417969 C 33.15625 11.457031 32.960938 11.492188 32.761719 11.527344 C 32.6875 11.542969 32.613281 11.554688 32.539062 11.566406 C 32.523438 11.570312 32.507812 11.574219 32.492188 11.578125 L 32.492188 11.585938 L 32.480469 11.585938 C 32.5 11.65625 32.519531 11.726562 32.539062 11.796875 C 32.554688 11.859375 32.570312 11.921875 32.585938 11.984375 C 32.621094 12.117188 32.65625 12.253906 32.691406 12.386719 C 32.703125 12.429688 32.710938 12.472656 32.722656 12.515625 C 32.765625 12.691406 32.808594 12.871094 32.847656 13.050781 C 32.859375 13.097656 32.867188 13.140625 32.875 13.183594 C 32.90625 13.320312 32.9375 13.460938 32.964844 13.597656 C 32.976562 13.664062 32.992188 13.730469 33.003906 13.796875 C 33.015625 13.84375 33.023438 13.894531 33.035156 13.945312 L 31.617188 13.945312 C 31.609375 13.90625 31.601562 13.867188 31.59375 13.832031 C 31.574219 13.722656 31.550781 13.617188 31.527344 13.511719 C 31.511719 13.441406 31.496094 13.371094 31.480469 13.300781 C 31.457031 13.191406 31.429688 13.082031 31.40625 12.972656 C 31.390625 12.910156 31.375 12.847656 31.359375 12.78125 C 31.328125 12.652344 31.292969 12.527344 31.261719 12.398438 C 31.25 12.355469 31.238281 12.316406 31.226562 12.273438 C 31.1875 12.113281 31.140625 11.953125 31.097656 11.796875 C 31.027344 11.804688 30.953125 11.8125 30.886719 11.824219 C 30.769531 11.839844 30.65625 11.855469 30.539062 11.871094 C 30.347656 11.894531 30.152344 11.917969 29.957031 11.941406 C 29.84375 11.957031 29.730469 11.96875 29.617188 11.980469 C 29.40625 12.003906 29.191406 12.027344 28.980469 12.046875 C 28.882812 12.054688 28.789062 12.066406 28.695312 12.074219 C 28.386719 12.105469 28.082031 12.128906 27.769531 12.152344 C 27.730469 12.15625 27.6875 12.160156 27.648438 12.160156 C 27.378906 12.179688 27.105469 12.199219 26.832031 12.214844 C 26.726562 12.21875 26.621094 12.226562 26.515625 12.230469 C 26.304688 12.242188 26.09375 12.25 25.886719 12.261719 C 25.765625 12.265625 25.644531 12.269531 25.527344 12.273438 C 25.324219 12.277344 25.121094 12.285156 24.917969 12.289062 C 24.800781 12.292969 24.679688 12.292969 24.5625 12.296875 C 24.496094 12.296875 24.433594 12.300781 24.371094 12.300781 L 24.371094 13.945312 L 22.980469 13.945312 L 22.980469 12.300781 C 22.917969 12.300781 22.855469 12.296875 22.792969 12.296875 C 22.671875 12.292969 22.554688 12.292969 22.433594 12.289062 C 22.230469 12.285156 22.027344 12.277344 21.824219 12.273438 C 21.707031 12.269531 21.585938 12.265625 21.46875 12.261719 C 21.257812 12.25 21.046875 12.242188 20.835938 12.230469 C 20.730469 12.226562 20.625 12.21875 20.519531 12.214844 C 20.246094 12.199219 19.976562 12.179688 19.703125 12.160156 C 19.664062 12.160156 19.621094 12.15625 19.582031 12.152344 C 19.273438 12.128906 18.964844 12.105469 18.65625 12.074219 C 18.5625 12.066406 18.46875 12.058594 18.375 12.046875 C 18.160156 12.027344 17.945312 12.003906 17.734375 11.980469 C 17.621094 11.96875 17.507812 11.957031 17.394531 11.941406 C 17.199219 11.917969 17.003906 11.894531 16.8125 11.871094 C 16.695312 11.855469 16.582031 11.839844 16.46875 11.824219 C 16.398438 11.8125 16.328125 11.804688 16.257812 11.796875 C 16.210938 11.953125 16.167969 12.113281 16.125 12.273438 C 16.113281 12.3125 16.101562 12.351562 16.09375 12.390625 C 16.058594 12.523438 16.027344 12.652344 15.992188 12.785156 C 15.976562 12.847656 15.964844 12.910156 15.949219 12.972656 C 15.921875 13.082031 15.894531 13.191406 15.871094 13.300781 C 15.855469 13.371094 15.839844 13.441406 15.824219 13.511719 C 15.800781 13.617188 15.78125 13.722656 15.757812 13.832031 C 15.75 13.867188 15.742188 13.90625 15.734375 13.945312 L 14.320312 13.945312 C 14.328125 13.894531 14.339844 13.847656 14.347656 13.796875 C 14.359375 13.730469 14.375 13.664062 14.386719 13.597656 C 14.414062 13.460938 14.445312 13.324219 14.476562 13.1875 C 14.484375 13.140625 14.492188 13.097656 14.503906 13.050781 C 14.542969 12.871094 14.585938 12.691406 14.628906 12.515625 C 14.640625 12.472656 14.652344 12.429688 14.660156 12.386719 C 14.695312 12.25 14.730469 12.117188 14.765625 11.984375 C 14.78125 11.921875 14.796875 11.859375 14.816406 11.796875 C 14.835938 11.726562 14.851562 11.65625 14.871094 11.585938 L 14.859375 11.585938 L 14.863281 11.578125 C 14.84375 11.574219 14.828125 11.570312 14.8125 11.566406 C 14.738281 11.554688 14.664062 11.542969 14.589844 11.527344 C 14.390625 11.492188 14.195312 11.457031 14 11.417969 C 13.90625 11.402344 13.8125 11.382812 13.722656 11.363281 C 13.542969 11.328125 13.367188 11.292969 13.191406 11.253906 C 13.097656 11.234375 13.007812 11.214844 12.917969 11.195312 C 12.726562 11.152344 12.535156 11.109375 12.34375 11.066406 C 12.277344 11.050781 12.210938 11.035156 12.144531 11.019531 C 11.890625 10.957031 11.640625 10.894531 11.390625 10.828125 C 11.339844 10.816406 11.289062 10.800781 11.238281 10.785156 C 11.042969 10.734375 10.847656 10.679688 10.65625 10.625 C 10.570312 10.601562 10.488281 10.578125 10.40625 10.554688 C 10.246094 10.503906 10.085938 10.457031 9.925781 10.410156 C 9.84375 10.382812 9.757812 10.355469 9.671875 10.328125 C 9.621094 10.3125 9.566406 10.296875 9.511719 10.277344 C 8.679688 11.425781 8.003906 12.65625 7.480469 13.945312 L 7.121094 13.945312 C 6.722656 13.945312 6.332031 13.980469 5.949219 14.050781 C 6.492188 12.5625 7.226562 11.140625 8.140625 9.8125 Z M 40.371094 25.628906 C 40.324219 25.632812 40.277344 25.632812 40.230469 25.632812 L 7.121094 25.632812 C 7.074219 25.632812 7.027344 25.632812 6.980469 25.628906 C 6.449219 25.617188 5.9375 25.519531 5.457031 25.355469 C 4.71875 25.105469 4.058594 24.6875 3.515625 24.152344 C 2.566406 23.21875 1.976562 21.921875 1.976562 20.488281 C 1.976562 19.054688 2.566406 17.757812 3.515625 16.824219 C 4.058594 16.289062 4.71875 15.875 5.457031 15.621094 C 5.9375 15.457031 6.449219 15.363281 6.980469 15.347656 C 7.027344 15.347656 7.074219 15.34375 7.121094 15.34375 L 40.230469 15.34375 C 40.277344 15.34375 40.324219 15.347656 40.371094 15.347656 C 40.902344 15.363281 41.414062 15.457031 41.894531 15.621094 C 42.632812 15.875 43.292969 16.289062 43.839844 16.824219 C 44.785156 17.757812 45.375 19.054688 45.375 20.488281 C 45.375 21.921875 44.785156 23.21875 43.839844 24.152344 C 43.292969 24.6875 42.632812 25.105469 41.894531 25.355469 C 41.414062 25.519531 40.902344 25.617188 40.371094 25.628906 Z M 43.34375 14.734375 C 40.859375 6.21875 32.992188 0 23.675781 0 C 14.359375 0 6.496094 6.21875 4.007812 14.734375 C 1.964844 15.84375 0.578125 18.007812 0.578125 20.488281 C 0.578125 22.972656 1.964844 25.132812 4.007812 26.242188 C 6.496094 34.757812 14.359375 40.976562 23.675781 40.976562 C 32.992188 40.976562 40.859375 34.757812 43.34375 26.242188 C 45.386719 25.132812 46.773438 22.972656 46.773438 20.488281 C 46.773438 18.007812 45.386719 15.84375 43.34375 14.734375 " fill-opacity="1" fill-rule="nonzero"/></g><path fill="#000000" d="M 15.140625 18.773438 C 15.140625 18.773438 15.140625 18.777344 15.140625 18.777344 C 15.046875 19.152344 14.964844 19.492188 14.890625 19.792969 C 14.75 20.363281 14.640625 20.816406 14.554688 21.183594 C 14.4375 21.683594 14.359375 22.027344 14.308594 22.304688 L 14.296875 22.304688 C 14.261719 22.046875 14.1875 21.667969 14.078125 21.183594 C 13.988281 20.785156 13.875 20.320312 13.742188 19.792969 C 13.734375 19.765625 13.726562 19.734375 13.71875 19.703125 C 13.71875 19.703125 13.71875 19.703125 13.71875 19.699219 C 13.515625 18.898438 13.273438 17.960938 13 16.925781 L 11.503906 16.925781 C 11.210938 18.070312 10.96875 19.015625 10.765625 19.792969 C 10.628906 20.332031 10.511719 20.792969 10.417969 21.183594 C 10.292969 21.679688 10.203125 22.0625 10.144531 22.351562 L 10.121094 22.351562 C 10.070312 22.058594 9.992188 21.671875 9.882812 21.183594 C 9.796875 20.789062 9.691406 20.332031 9.566406 19.792969 C 9.386719 19.007812 9.167969 18.0625 8.902344 16.925781 L 7.15625 16.925781 L 7.972656 19.792969 L 8.367188 21.183594 L 9.183594 24.050781 L 10.851562 24.050781 C 11.136719 23.0625 11.421875 22.0625 11.660156 21.183594 C 11.800781 20.671875 11.921875 20.203125 12.015625 19.792969 C 12.085938 19.5 12.144531 19.238281 12.179688 19.019531 L 12.195312 19.019531 C 12.234375 19.242188 12.289062 19.503906 12.355469 19.792969 C 12.449219 20.199219 12.5625 20.664062 12.695312 21.183594 C 12.910156 22.015625 13.164062 22.980469 13.433594 24.050781 L 15.085938 24.050781 L 15.234375 23.554688 L 15.945312 21.183594 L 16.359375 19.792969 L 17.21875 16.925781 L 15.59375 16.925781 C 15.421875 17.628906 15.273438 18.242188 15.140625 18.773438 " fill-opacity="1" fill-rule="nonzero"/><path fill="#000000" d="M 26.535156 19.792969 C 26.394531 20.363281 26.285156 20.816406 26.199219 21.183594 C 26.082031 21.683594 26.003906 22.027344 25.953125 22.304688 L 25.941406 22.304688 C 25.90625 22.046875 25.828125 21.667969 25.71875 21.183594 C 25.628906 20.785156 25.515625 20.320312 25.386719 19.792969 C 25.179688 18.96875 24.925781 18 24.644531 16.925781 L 23.144531 16.925781 C 23.089844 17.148438 23.035156 17.359375 22.980469 17.570312 C 22.761719 18.429688 22.570312 19.164062 22.410156 19.792969 C 22.273438 20.332031 22.15625 20.792969 22.058594 21.183594 C 21.9375 21.679688 21.847656 22.0625 21.789062 22.351562 L 21.765625 22.351562 C 21.714844 22.058594 21.632812 21.671875 21.527344 21.183594 C 21.441406 20.789062 21.335938 20.332031 21.210938 19.792969 C 21.03125 19.007812 20.808594 18.0625 20.546875 16.925781 L 18.800781 16.925781 L 19.613281 19.792969 L 20.007812 21.183594 L 20.824219 24.050781 L 22.496094 24.050781 C 22.660156 23.476562 22.824219 22.902344 22.980469 22.347656 C 23.09375 21.945312 23.203125 21.554688 23.304688 21.183594 C 23.441406 20.671875 23.5625 20.203125 23.660156 19.792969 C 23.730469 19.5 23.785156 19.238281 23.824219 19.019531 L 23.839844 19.019531 C 23.878906 19.242188 23.933594 19.503906 24 19.792969 C 24.089844 20.199219 24.207031 20.664062 24.339844 21.183594 C 24.351562 21.222656 24.359375 21.261719 24.371094 21.300781 C 24.578125 22.105469 24.820312 23.03125 25.074219 24.050781 L 26.726562 24.050781 L 27.585938 21.183594 L 28.003906 19.792969 L 28.863281 16.925781 L 27.238281 16.925781 C 26.941406 18.128906 26.714844 19.058594 26.535156 19.792969 " fill-opacity="1" fill-rule="nonzero"/><path fill="#000000" d="M 38.179688 19.792969 C 38.039062 20.363281 37.929688 20.816406 37.84375 21.183594 C 37.722656 21.683594 37.648438 22.027344 37.597656 22.304688 L 37.582031 22.304688 C 37.550781 22.046875 37.472656 21.667969 37.363281 21.183594 C 37.273438 20.785156 37.160156 20.320312 37.027344 19.792969 C 36.824219 18.96875 36.570312 18 36.289062 16.925781 L 34.789062 16.925781 C 34.496094 18.070312 34.253906 19.015625 34.054688 19.792969 C 33.917969 20.332031 33.800781 20.792969 33.703125 21.183594 C 33.675781 21.292969 33.652344 21.394531 33.628906 21.492188 C 33.628906 21.492188 33.628906 21.496094 33.628906 21.496094 C 33.542969 21.84375 33.480469 22.125 33.433594 22.351562 L 33.410156 22.351562 C 33.359375 22.058594 33.277344 21.671875 33.167969 21.183594 C 33.082031 20.789062 32.980469 20.332031 32.855469 19.792969 C 32.675781 19.007812 32.453125 18.0625 32.191406 16.925781 L 30.441406 16.925781 L 31.257812 19.792969 L 31.652344 21.183594 L 32.164062 22.980469 L 32.164062 22.984375 L 32.46875 24.050781 L 34.136719 24.050781 C 34.421875 23.0625 34.710938 22.0625 34.949219 21.183594 C 35.085938 20.671875 35.207031 20.203125 35.304688 19.792969 C 35.375 19.5 35.429688 19.238281 35.46875 19.019531 L 35.480469 19.019531 C 35.519531 19.242188 35.574219 19.503906 35.640625 19.792969 C 35.734375 20.199219 35.851562 20.664062 35.984375 21.183594 C 36.195312 22.015625 36.453125 22.980469 36.71875 24.050781 L 38.371094 24.050781 L 39.230469 21.183594 L 39.648438 19.792969 L 40.507812 16.925781 L 38.878906 16.925781 C 38.585938 18.128906 38.355469 19.058594 38.179688 19.792969 " fill-opacity="1" fill-rule="nonzero"/></svg>